G04 #@! TF.FileFunction,Copper,L1,Top,Signal*
%FSLAX46Y46*%
G04 Gerber Fmt 4.6, Leading zero omitted, Abs format (unit mm)*
G04 Created by KiCad (PCBNEW 0.201509071501+6164~29~ubuntu14.04.1-product) date Wed 06 Jan 2016 18:04:02 GMT*
%MOMM*%
G01*
G04 APERTURE LIST*
%ADD10C,0.100000*%
%ADD11R,1.060000X0.650000*%
%ADD12R,1.200000X2.000000*%
%ADD13R,1.000000X1.000000*%
%ADD14C,2.000000*%
%ADD15R,0.600000X0.400000*%
%ADD16R,1.500000X2.400000*%
%ADD17C,1.016000*%
%ADD18R,2.286000X5.080000*%
%ADD19R,2.413000X5.080000*%
%ADD20R,0.750000X0.800000*%
%ADD21R,0.900000X0.500000*%
%ADD22R,0.500000X0.900000*%
%ADD23R,1.500000X3.000000*%
%ADD24R,0.400000X0.900000*%
%ADD25R,1.198880X1.198880*%
%ADD26R,1.100000X1.900000*%
%ADD27C,1.800000*%
%ADD28C,0.750000*%
%ADD29R,0.800000X0.750000*%
%ADD30C,0.787000*%
%ADD31C,1.000000*%
%ADD32R,1.200000X1.200000*%
%ADD33R,0.550000X0.300000*%
%ADD34R,0.300000X0.550000*%
%ADD35R,3.450000X3.450000*%
%ADD36C,0.400000*%
%ADD37C,0.700000*%
%ADD38C,0.750000*%
%ADD39C,0.400000*%
%ADD40C,0.250000*%
%ADD41C,0.500000*%
%ADD42C,0.300000*%
G04 APERTURE END LIST*
D10*
D11*
X116350000Y-115850000D03*
X116350000Y-114900000D03*
X116350000Y-113950000D03*
X114150000Y-113950000D03*
X114150000Y-115850000D03*
D12*
X129050000Y-126750000D03*
X143050000Y-109050000D03*
X141050000Y-109050000D03*
X139050000Y-109050000D03*
X137050000Y-109050000D03*
X135050000Y-109050000D03*
X133050000Y-109050000D03*
X131050000Y-109050000D03*
X129050000Y-109050000D03*
X131050000Y-126750000D03*
X133050000Y-126750000D03*
X135050000Y-126750000D03*
X137050000Y-126750000D03*
X139050000Y-126750000D03*
X141050000Y-126750000D03*
X143050000Y-126750000D03*
D13*
X129950000Y-101650000D03*
X127950000Y-101650000D03*
X129950000Y-103650000D03*
X127950000Y-103650000D03*
D10*
G36*
X106400000Y-106035786D02*
X107814214Y-107450000D01*
X106400000Y-108864214D01*
X104985786Y-107450000D01*
X106400000Y-106035786D01*
X106400000Y-106035786D01*
G37*
D14*
X104603949Y-105653949D03*
D15*
X133500000Y-100200000D03*
X133500000Y-99200000D03*
X133500000Y-98200000D03*
X130800000Y-100200000D03*
X130800000Y-99200000D03*
X130800000Y-98200000D03*
D16*
X132150000Y-99200000D03*
D17*
X121098025Y-123305923D03*
X121996051Y-124203949D03*
X120200000Y-124203949D03*
X121098025Y-125101975D03*
X119301974Y-125101975D03*
X120200000Y-126000000D03*
X118403949Y-126000000D03*
X119301974Y-126898026D03*
X117505923Y-126898026D03*
X118403949Y-127796051D03*
D18*
X135400000Y-135450000D03*
D19*
X139781500Y-135450000D03*
X131018500Y-135450000D03*
D20*
X112800000Y-93750000D03*
X112800000Y-95250000D03*
D21*
X111100000Y-93750000D03*
X111100000Y-95250000D03*
D22*
X129300000Y-129350000D03*
X130800000Y-129350000D03*
D23*
X112900000Y-90900000D03*
X115500000Y-90900000D03*
D24*
X114250000Y-93400000D03*
X114900000Y-93400000D03*
X115550000Y-93400000D03*
X114250000Y-95600000D03*
X114900000Y-95600000D03*
X115550000Y-95600000D03*
D20*
X117250000Y-93750000D03*
X117250000Y-95250000D03*
X112550000Y-115050000D03*
X112550000Y-113550000D03*
X125600000Y-111600000D03*
X125600000Y-113100000D03*
X113300000Y-110800000D03*
X113300000Y-109300000D03*
D25*
X122050000Y-91649020D03*
X122050000Y-89550980D03*
X114999020Y-100200000D03*
X112900980Y-100200000D03*
X114999020Y-102100000D03*
X112900980Y-102100000D03*
D26*
X123000000Y-102250000D03*
X125500000Y-102250000D03*
D27*
X132200000Y-131200000D03*
X119600000Y-90650000D03*
X123000000Y-94050000D03*
D28*
X126750000Y-106650000D03*
X126650000Y-105100000D03*
D29*
X116550000Y-117250000D03*
X118050000Y-117250000D03*
D20*
X127100000Y-111600000D03*
X127100000Y-113100000D03*
X123650000Y-100300000D03*
X123650000Y-98800000D03*
X125200000Y-100300000D03*
X125200000Y-98800000D03*
X122150000Y-100300000D03*
X122150000Y-98800000D03*
D29*
X123300000Y-105450000D03*
X124800000Y-105450000D03*
X118700000Y-101500000D03*
X120200000Y-101500000D03*
X118700000Y-103000000D03*
X120200000Y-103000000D03*
D20*
X129450000Y-99900000D03*
X129450000Y-98400000D03*
X114800000Y-110800000D03*
X114800000Y-109300000D03*
X127900000Y-99900000D03*
X127900000Y-98400000D03*
D22*
X106850000Y-97000000D03*
X108350000Y-97000000D03*
D21*
X123850000Y-89850000D03*
X123850000Y-91350000D03*
D22*
X125200000Y-109150000D03*
X123700000Y-109150000D03*
X125200000Y-107550000D03*
X123700000Y-107550000D03*
X111500000Y-100350000D03*
X110000000Y-100350000D03*
X111500000Y-101950000D03*
X110000000Y-101950000D03*
D21*
X109050000Y-108200000D03*
X109050000Y-109700000D03*
D29*
X114100000Y-112400000D03*
X115600000Y-112400000D03*
D30*
X124045477Y-127799426D03*
X124943503Y-128697452D03*
X123147452Y-128697452D03*
X124045477Y-129595477D03*
X122249426Y-129595477D03*
X123147452Y-130493503D03*
D14*
X108565224Y-94715224D03*
X145334776Y-131484776D03*
D10*
G36*
X112922793Y-119094365D02*
X113877387Y-118139771D01*
X114160229Y-118422613D01*
X113205635Y-119377207D01*
X112922793Y-119094365D01*
X112922793Y-119094365D01*
G37*
G36*
X113382412Y-119553985D02*
X114337006Y-118599391D01*
X114619848Y-118882233D01*
X113665254Y-119836827D01*
X113382412Y-119553985D01*
X113382412Y-119553985D01*
G37*
G36*
X112463173Y-118634746D02*
X113417767Y-117680152D01*
X113700609Y-117962994D01*
X112746015Y-118917588D01*
X112463173Y-118634746D01*
X112463173Y-118634746D01*
G37*
G36*
X112003554Y-118175127D02*
X112958148Y-117220533D01*
X113240990Y-117503375D01*
X112286396Y-118457969D01*
X112003554Y-118175127D01*
X112003554Y-118175127D01*
G37*
G36*
X113842031Y-120013604D02*
X114796625Y-119059010D01*
X115079467Y-119341852D01*
X114124873Y-120296446D01*
X113842031Y-120013604D01*
X113842031Y-120013604D01*
G37*
D31*
X115433021Y-120013604D02*
X115256245Y-120190380D01*
X112286396Y-116866979D02*
X112109620Y-117043755D01*
D10*
G36*
X111155025Y-121498528D02*
X112498528Y-120155025D01*
X113771321Y-121427818D01*
X112427818Y-122771321D01*
X111155025Y-121498528D01*
X111155025Y-121498528D01*
G37*
G36*
X109528679Y-119872182D02*
X110872182Y-118528679D01*
X112144975Y-119801472D01*
X110801472Y-121144975D01*
X109528679Y-119872182D01*
X109528679Y-119872182D01*
G37*
G36*
X112816726Y-123160229D02*
X114160229Y-121816726D01*
X115273922Y-122930419D01*
X113930419Y-124273922D01*
X112816726Y-123160229D01*
X112816726Y-123160229D01*
G37*
D31*
X114920369Y-123283973D02*
X114283973Y-123920369D01*
D10*
G36*
X108026078Y-118369581D02*
X109369581Y-117026078D01*
X110483274Y-118139771D01*
X109139771Y-119483274D01*
X108026078Y-118369581D01*
X108026078Y-118369581D01*
G37*
D31*
X109016027Y-117379631D02*
X108379631Y-118016027D01*
D32*
X119550000Y-109400000D03*
X117750000Y-109400000D03*
X117750000Y-107600000D03*
D33*
X121025000Y-110250000D03*
D34*
X116900000Y-110875000D03*
X120400000Y-106125000D03*
D33*
X116275000Y-106750000D03*
D35*
X118650000Y-108500000D03*
D32*
X119550000Y-107600000D03*
D36*
X119950000Y-108500000D03*
X118650000Y-109800000D03*
X118650000Y-107200000D03*
X117350000Y-108500000D03*
X118650000Y-108500000D03*
D34*
X117400000Y-110875000D03*
X117900000Y-110875000D03*
X118400000Y-110875000D03*
X118900000Y-110875000D03*
X119400000Y-110875000D03*
X119900000Y-110875000D03*
X120400000Y-110875000D03*
D33*
X116275000Y-107250000D03*
X116275000Y-107750000D03*
X116275000Y-108250000D03*
X116275000Y-108750000D03*
X116275000Y-109250000D03*
X116275000Y-109750000D03*
X116275000Y-110250000D03*
D34*
X119900000Y-106125000D03*
X119400000Y-106125000D03*
X118900000Y-106125000D03*
X118400000Y-106125000D03*
X117900000Y-106125000D03*
X117400000Y-106125000D03*
X116900000Y-106125000D03*
D33*
X121025000Y-109750000D03*
X121025000Y-109250000D03*
X121025000Y-108750000D03*
X121025000Y-108250000D03*
X121025000Y-107750000D03*
X121025000Y-107250000D03*
X121025000Y-106750000D03*
D37*
X125050000Y-115900000D03*
X124450000Y-115350000D03*
X121500000Y-118100000D03*
X122100000Y-118700000D03*
X116350000Y-93700000D03*
X114900000Y-96650000D03*
X111950000Y-93200000D03*
X113250000Y-96950000D03*
X128000000Y-112600000D03*
X124600000Y-112050000D03*
X115300000Y-113250000D03*
X114800000Y-108450000D03*
X113250000Y-108350000D03*
X122050000Y-106600000D03*
X116400000Y-121850000D03*
X115800000Y-121250000D03*
X125650000Y-105350000D03*
X121200000Y-102700000D03*
X141750000Y-136600000D03*
X141750000Y-134200000D03*
X129050000Y-134350000D03*
X129050000Y-136750000D03*
X141750000Y-135450000D03*
X129050000Y-135450000D03*
X127950000Y-102750000D03*
X128500000Y-98950000D03*
X110000000Y-99150000D03*
X109650000Y-110700000D03*
X132150000Y-99200000D03*
X120500000Y-128900000D03*
X121400000Y-128900000D03*
X125050000Y-97450000D03*
X112550000Y-112550000D03*
X115250000Y-115400000D03*
X115250000Y-114450000D03*
X118150000Y-116000000D03*
X121150000Y-101500000D03*
X123850000Y-92300000D03*
X118150000Y-96200000D03*
X118250000Y-95250000D03*
X110100000Y-96100000D03*
X111100000Y-96250000D03*
X114900000Y-94550000D03*
X115750000Y-94550000D03*
X114450000Y-104300000D03*
X119150000Y-104300000D03*
X120500000Y-122200000D03*
X123750000Y-125278800D03*
X125579081Y-126079081D03*
X121250000Y-121650000D03*
X126215479Y-125442683D03*
X112050000Y-106000000D03*
X113881135Y-107627025D03*
X116308414Y-102583424D03*
X117279080Y-104229080D03*
X115282317Y-103609522D03*
X116429081Y-105079081D03*
X112700000Y-105300000D03*
X114517532Y-106990627D03*
X113375209Y-104675209D03*
X115170801Y-106371561D03*
X124000000Y-116300000D03*
X118200000Y-114650000D03*
X124400000Y-114350000D03*
X117650000Y-113250000D03*
X124400000Y-113000000D03*
X117700000Y-112300000D03*
D38*
X126625001Y-99950000D02*
X126625001Y-96924999D01*
X126625001Y-96924999D02*
X126650000Y-96900000D01*
X129413603Y-96900000D02*
X126650000Y-96900000D01*
X126650000Y-96900000D02*
X125550000Y-95800000D01*
X125550000Y-95800000D02*
X124769002Y-95800000D01*
X124769002Y-95800000D02*
X121100000Y-95800000D01*
D39*
X118700000Y-101500000D02*
X117473140Y-101500000D01*
X117473140Y-101500000D02*
X117450000Y-101476860D01*
D38*
X117450000Y-102750000D02*
X117450000Y-101476860D01*
X117450000Y-101476860D02*
X117450000Y-99650000D01*
X113250000Y-106950000D02*
X117450000Y-102750000D01*
X117450000Y-99650000D02*
X121100000Y-96000000D01*
X121100000Y-96000000D02*
X121100000Y-95800000D01*
X134350000Y-96900000D02*
X129413603Y-96900000D01*
D39*
X129450000Y-98400000D02*
X129450000Y-96936397D01*
X129450000Y-96936397D02*
X129413603Y-96900000D01*
D38*
X125633823Y-110450000D02*
X126050000Y-110450000D01*
X134900000Y-101550000D02*
X134900000Y-97450000D01*
X126050000Y-110450000D02*
X127050000Y-109450000D01*
X127050000Y-108000000D02*
X128950000Y-106100000D01*
X127050000Y-109450000D02*
X127050000Y-108000000D01*
X128950000Y-106100000D02*
X130350000Y-106100000D01*
X130350000Y-106100000D02*
X134900000Y-101550000D01*
X134900000Y-97450000D02*
X134350000Y-96900000D01*
X124450000Y-115350000D02*
X124500000Y-115350000D01*
X124500000Y-115350000D02*
X125050000Y-115900000D01*
X124000000Y-115350000D02*
X124450000Y-115350000D01*
X123450000Y-114800000D02*
X124000000Y-115350000D01*
X123450000Y-114650000D02*
X123450000Y-114800000D01*
X123450000Y-110750000D02*
X123450000Y-114650000D01*
X125162055Y-110450000D02*
X123750000Y-110450000D01*
X123750000Y-110450000D02*
X123450000Y-110750000D01*
D39*
X113300000Y-110800000D02*
X114800000Y-110800000D01*
D38*
X111249992Y-108950008D02*
X111249992Y-110664056D01*
X111249992Y-110664056D02*
X111249992Y-111600000D01*
D39*
X113300000Y-110800000D02*
X111385936Y-110800000D01*
X111385936Y-110800000D02*
X111249992Y-110664056D01*
D40*
X116900000Y-110875000D02*
X114875000Y-110875000D01*
X114875000Y-110875000D02*
X114800000Y-110800000D01*
X125200000Y-109150000D02*
X125200000Y-110412055D01*
D38*
X125633823Y-110450000D02*
X125162055Y-110450000D01*
X125600000Y-111600000D02*
X125600000Y-110483823D01*
X125600000Y-110483823D02*
X125633823Y-110450000D01*
D39*
X125200000Y-110412055D02*
X125162055Y-110450000D01*
D38*
X122100000Y-118700000D02*
X122450000Y-119050000D01*
X122450000Y-119050000D02*
X122450000Y-122000000D01*
X121500000Y-118100000D02*
X122100000Y-118700000D01*
D40*
X120400000Y-105850000D02*
X120800000Y-105450000D01*
X120800000Y-105450000D02*
X123300000Y-105450000D01*
X120400000Y-106150000D02*
X120400000Y-105850000D01*
X118400000Y-104000000D02*
X118700000Y-103700000D01*
X118700000Y-103700000D02*
X118700000Y-103000000D01*
X118400000Y-106150000D02*
X118400000Y-104000000D01*
D41*
X126750000Y-103550000D02*
X126750000Y-100074999D01*
X126750000Y-100074999D02*
X126625001Y-99950000D01*
X125900000Y-104400000D02*
X126750000Y-103550000D01*
X123800000Y-104400000D02*
X125900000Y-104400000D01*
X123300000Y-104900000D02*
X123800000Y-104400000D01*
X123300000Y-105450000D02*
X123300000Y-104900000D01*
D38*
X128100000Y-111600000D02*
X129050000Y-110650000D01*
X129050000Y-110650000D02*
X129050000Y-109050000D01*
X127100000Y-111600000D02*
X128100000Y-111600000D01*
X125600000Y-111600000D02*
X127100000Y-111600000D01*
D40*
X125200000Y-107550000D02*
X125200000Y-109150000D01*
D38*
X124675001Y-124225001D02*
X122450000Y-122000000D01*
X121098025Y-123305923D02*
X121606024Y-122797924D01*
X121606024Y-122797924D02*
X121652076Y-122797924D01*
X121652076Y-122797924D02*
X122450000Y-122000000D01*
X124045477Y-127799426D02*
X124045477Y-126352325D01*
X124045477Y-126352325D02*
X124675001Y-125722801D01*
X124675001Y-125722801D02*
X124675001Y-124225001D01*
D39*
X127900000Y-99900000D02*
X129650000Y-101650000D01*
X129650000Y-101650000D02*
X129950000Y-101650000D01*
X129450000Y-98450000D02*
X130200000Y-99200000D01*
X130200000Y-99200000D02*
X130800000Y-99200000D01*
X129450000Y-98400000D02*
X129450000Y-98450000D01*
X126675001Y-99900000D02*
X126625001Y-99950000D01*
X127900000Y-99900000D02*
X126675001Y-99900000D01*
D38*
X113250000Y-106950000D02*
X111249992Y-108950008D01*
X111249992Y-111600000D02*
X111250000Y-111600000D01*
X113250000Y-106950000D02*
X113200000Y-107000000D01*
X111250000Y-111600000D02*
X111250000Y-111600000D01*
X111250000Y-111600000D02*
X111250000Y-114875000D01*
X112550000Y-115050000D02*
X111425000Y-115050000D01*
X111425000Y-115050000D02*
X111250000Y-114875000D01*
D40*
X119600000Y-90650000D02*
X120599020Y-91649020D01*
X120599020Y-91649020D02*
X122050000Y-91649020D01*
D38*
X119100000Y-93750000D02*
X119600000Y-93250000D01*
X119600000Y-93250000D02*
X119600000Y-90650000D01*
D42*
X118700000Y-103000000D02*
X118700000Y-101500000D01*
X112550000Y-115050000D02*
X113350000Y-115050000D01*
X113350000Y-115050000D02*
X114150000Y-115850000D01*
D38*
X117250000Y-93750000D02*
X119050000Y-93750000D01*
X119050000Y-93750000D02*
X119100000Y-93800000D01*
X121100000Y-95800000D02*
X120500000Y-95200000D01*
X119100000Y-93800000D02*
X120500000Y-95200000D01*
D40*
X119100000Y-93800000D02*
X119100000Y-93750000D01*
D38*
X119100000Y-93750000D02*
X119100000Y-93750000D01*
X119100000Y-93750000D02*
X119150000Y-93750000D01*
D40*
X114900000Y-95600000D02*
X114900000Y-96650000D01*
X116350000Y-93700000D02*
X116400000Y-93700000D01*
X106850000Y-97000000D02*
X106850000Y-96800000D01*
X106850000Y-96800000D02*
X108565224Y-95084776D01*
X108565224Y-95084776D02*
X108565224Y-94715224D01*
X112800000Y-93750000D02*
X112800000Y-91000000D01*
X112800000Y-91000000D02*
X112900000Y-90900000D01*
X113800000Y-93400000D02*
X113450000Y-93750000D01*
X113450000Y-93750000D02*
X112800000Y-93750000D01*
X114250000Y-93400000D02*
X113800000Y-93400000D01*
D38*
X111100000Y-93750000D02*
X109400000Y-93750000D01*
X109400000Y-93750000D02*
X108550000Y-94600000D01*
X108550000Y-94600000D02*
X108515224Y-94615224D01*
D40*
X114250000Y-95600000D02*
X114250000Y-95950000D01*
X114250000Y-95950000D02*
X113250000Y-96950000D01*
X112800000Y-93750000D02*
X112500000Y-93750000D01*
X114250000Y-95550000D02*
X114250000Y-95600000D01*
X112800000Y-93800000D02*
X112800000Y-93750000D01*
D31*
X129050000Y-129467907D02*
X129050000Y-131550000D01*
X129050000Y-131550000D02*
X131018500Y-133518500D01*
X131018500Y-133518500D02*
X131018500Y-135450000D01*
D41*
X127100000Y-113100000D02*
X127500000Y-113100000D01*
X127500000Y-113100000D02*
X128000000Y-112600000D01*
X125600000Y-113100000D02*
X125600000Y-113050000D01*
X125600000Y-113050000D02*
X124600000Y-112050000D01*
D40*
X125600000Y-113100000D02*
X125600000Y-113000000D01*
X115600000Y-112400000D02*
X115600000Y-112950000D01*
X115600000Y-112950000D02*
X115300000Y-113250000D01*
D39*
X114800000Y-109300000D02*
X114800000Y-108450000D01*
X113300000Y-109300000D02*
X113300000Y-108400000D01*
X113300000Y-108400000D02*
X113250000Y-108350000D01*
D31*
X129050000Y-126750000D02*
X129050000Y-129467907D01*
D40*
X129300000Y-129350000D02*
X129167907Y-129350000D01*
X129167907Y-129350000D02*
X129050000Y-129467907D01*
X115250000Y-114450000D02*
X115250000Y-114948272D01*
X115250000Y-114948272D02*
X115250000Y-115400000D01*
X116350000Y-114900000D02*
X115298272Y-114900000D01*
X115298272Y-114900000D02*
X115250000Y-114948272D01*
X121700000Y-107250000D02*
X122050000Y-106900000D01*
X122050000Y-106900000D02*
X122050000Y-106600000D01*
X121000000Y-107250000D02*
X121700000Y-107250000D01*
X115800000Y-121250000D02*
X116400000Y-121850000D01*
X114250000Y-120500000D02*
X115000000Y-121250000D01*
X115000000Y-121250000D02*
X115800000Y-121250000D01*
X114250000Y-119888477D02*
X114250000Y-120500000D01*
X114460749Y-119677728D02*
X114250000Y-119888477D01*
D42*
X124800000Y-105450000D02*
X125550000Y-105450000D01*
X125550000Y-105450000D02*
X125650000Y-105350000D01*
D40*
X120200000Y-103000000D02*
X120900000Y-103000000D01*
X120900000Y-103000000D02*
X121200000Y-102700000D01*
D39*
X141750000Y-136600000D02*
X140931500Y-136600000D01*
X140931500Y-136600000D02*
X139781500Y-135450000D01*
X141750000Y-135450000D02*
X141750000Y-136600000D01*
X141750000Y-134200000D02*
X141031500Y-134200000D01*
X141031500Y-134200000D02*
X139781500Y-135450000D01*
X141750000Y-135450000D02*
X141750000Y-134200000D01*
X129050000Y-134350000D02*
X129918500Y-134350000D01*
X129918500Y-134350000D02*
X131018500Y-135450000D01*
X129050000Y-135450000D02*
X129050000Y-134350000D01*
X129050000Y-136750000D02*
X129718500Y-136750000D01*
X129718500Y-136750000D02*
X131018500Y-135450000D01*
X129050000Y-135450000D02*
X129050000Y-136750000D01*
X139781500Y-135450000D02*
X141750000Y-135450000D01*
X131018500Y-135450000D02*
X129050000Y-135450000D01*
D31*
X136650000Y-129150000D02*
X139781500Y-132281500D01*
X139781500Y-132281500D02*
X139781500Y-135450000D01*
X133950000Y-129150000D02*
X136650000Y-129150000D01*
X133050000Y-128250000D02*
X133950000Y-129150000D01*
X133050000Y-126750000D02*
X133050000Y-128250000D01*
D40*
X127950000Y-103650000D02*
X127950000Y-102750000D01*
D39*
X128500000Y-98950000D02*
X129450000Y-99900000D01*
X127950000Y-98400000D02*
X128500000Y-98950000D01*
X127900000Y-98400000D02*
X127950000Y-98400000D01*
D40*
X110000000Y-100350000D02*
X110000000Y-99150000D01*
X110000000Y-101950000D02*
X110000000Y-100350000D01*
X109050000Y-109700000D02*
X109050000Y-110100000D01*
X109050000Y-110100000D02*
X109650000Y-110700000D01*
D42*
X133500000Y-99200000D02*
X132150000Y-99200000D01*
D41*
X121400000Y-128900000D02*
X120500000Y-128900000D01*
X122249426Y-129595477D02*
X122095477Y-129595477D01*
X122095477Y-129595477D02*
X121400000Y-128900000D01*
D40*
X122150000Y-98800000D02*
X122150000Y-98150000D01*
X122150000Y-98150000D02*
X122850000Y-97450000D01*
X122850000Y-97450000D02*
X124555026Y-97450000D01*
X124555026Y-97450000D02*
X125050000Y-97450000D01*
D42*
X115550000Y-95600000D02*
X115550000Y-94750000D01*
X115550000Y-94750000D02*
X115750000Y-94550000D01*
D40*
X123650000Y-98750000D02*
X123750000Y-98750000D01*
X123750000Y-98750000D02*
X125050000Y-97450000D01*
X123650000Y-98800000D02*
X123650000Y-98750000D01*
X125200000Y-98800000D02*
X125200000Y-97600000D01*
X125200000Y-97600000D02*
X125050000Y-97450000D01*
X123550000Y-98700000D02*
X123650000Y-98800000D01*
X123900000Y-98550000D02*
X123650000Y-98800000D01*
D42*
X112550000Y-113550000D02*
X112550000Y-112550000D01*
X118050000Y-117250000D02*
X118050000Y-116100000D01*
X118050000Y-116100000D02*
X118150000Y-116000000D01*
D38*
X145284776Y-131384776D02*
X145525884Y-131384776D01*
D42*
X121150000Y-101500000D02*
X120250000Y-101500000D01*
D40*
X123850000Y-91350000D02*
X123850000Y-92300000D01*
X117250000Y-95250000D02*
X117250000Y-95300000D01*
X117250000Y-95300000D02*
X118150000Y-96200000D01*
X117250000Y-95250000D02*
X118250000Y-95250000D01*
X111100000Y-95250000D02*
X110950000Y-95250000D01*
X110950000Y-95250000D02*
X110100000Y-96100000D01*
X111100000Y-95250000D02*
X111100000Y-96250000D01*
X114950000Y-94550000D02*
X114900000Y-94550000D01*
X112800000Y-95250000D02*
X112950000Y-95250000D01*
X112950000Y-95250000D02*
X113650000Y-94550000D01*
X113650000Y-94550000D02*
X114950000Y-94550000D01*
X114950000Y-94550000D02*
X115750000Y-94550000D01*
X118403949Y-127796051D02*
X122246051Y-127796051D01*
X122246051Y-127796051D02*
X123147452Y-128697452D01*
X114450000Y-104300000D02*
X114450000Y-104750000D01*
X114450000Y-104750000D02*
X110400000Y-108800000D01*
X110400000Y-108800000D02*
X110400000Y-117300000D01*
X110400000Y-117300000D02*
X116550000Y-123450000D01*
X116550000Y-127174945D02*
X117171106Y-127796051D01*
X116550000Y-123450000D02*
X116550000Y-127174945D01*
X117171106Y-127796051D02*
X118403949Y-127796051D01*
X119542178Y-104700000D02*
X120167208Y-104074970D01*
X119400000Y-104842178D02*
X119542178Y-104700000D01*
X119542178Y-104700000D02*
X119542178Y-104692178D01*
X119542178Y-104692178D02*
X119150000Y-104300000D01*
X118900000Y-105342178D02*
X119400000Y-104842178D01*
X121875010Y-100300000D02*
X122150000Y-100300000D01*
X120167208Y-104074970D02*
X120925030Y-104074970D01*
X120925030Y-104074970D02*
X122124999Y-102875001D01*
X122124999Y-102875001D02*
X122124999Y-100975001D01*
X122124999Y-100975001D02*
X122150000Y-100950000D01*
X122150000Y-100950000D02*
X122150000Y-100300000D01*
X118900000Y-106150000D02*
X118900000Y-105342178D01*
X119900000Y-118550000D02*
X119900000Y-121600000D01*
X119900000Y-121600000D02*
X120500000Y-122200000D01*
X119900000Y-110875000D02*
X119900000Y-118550000D01*
X123750000Y-125278800D02*
X123070902Y-125278800D01*
X123070902Y-125278800D02*
X121996051Y-124203949D01*
X126500000Y-127813590D02*
X126500000Y-127000000D01*
X126500000Y-127000000D02*
X125579081Y-126079081D01*
X125613590Y-128700000D02*
X126500000Y-127813590D01*
X124943503Y-128697452D02*
X125499996Y-128697452D01*
X125499996Y-128697452D02*
X125502544Y-128700000D01*
X125502544Y-128700000D02*
X125613590Y-128700000D01*
X120400000Y-118850000D02*
X120400000Y-120800000D01*
X120400000Y-120800000D02*
X121250000Y-121650000D01*
X120400000Y-110875000D02*
X120400000Y-118850000D01*
X125354523Y-129595477D02*
X126950010Y-127999990D01*
X126950010Y-127999990D02*
X126950010Y-126177214D01*
X126950010Y-126177214D02*
X126215479Y-125442683D01*
X124045477Y-129595477D02*
X125354523Y-129595477D01*
X126750000Y-106650000D02*
X126760037Y-106650000D01*
X126760037Y-106650000D02*
X128360027Y-105050010D01*
X124750000Y-106700000D02*
X126700000Y-106700000D01*
X126700000Y-106700000D02*
X126750000Y-106650000D01*
X131500000Y-103550000D02*
X130050000Y-103550000D01*
X130050000Y-103550000D02*
X129950000Y-103650000D01*
X123700000Y-109150000D02*
X124200000Y-109150000D01*
X124200000Y-109150000D02*
X124450000Y-108900000D01*
X124450000Y-108900000D02*
X124450000Y-107000000D01*
X124450000Y-107000000D02*
X124750000Y-106700000D01*
X128360027Y-105050010D02*
X129299991Y-105050009D01*
X129299991Y-105050009D02*
X129950000Y-104400000D01*
X129950000Y-104400000D02*
X129950000Y-103650000D01*
X121000000Y-108250000D02*
X122036410Y-108250000D01*
X122036410Y-108250000D02*
X122936410Y-109150000D01*
X122936410Y-109150000D02*
X123700000Y-109150000D01*
X131500000Y-103550000D02*
X134150000Y-100900000D01*
X134050000Y-97650000D02*
X131000000Y-97650000D01*
X134150000Y-100900000D02*
X134150000Y-97750000D01*
X134150000Y-97750000D02*
X134050000Y-97650000D01*
X131000000Y-97650000D02*
X130800000Y-97850000D01*
X130800000Y-97850000D02*
X130800000Y-98200000D01*
X126650000Y-105100000D02*
X126899002Y-105100000D01*
X126899002Y-105100000D02*
X127399002Y-104600000D01*
X125749012Y-106249990D02*
X126650000Y-105349002D01*
X126650000Y-105349002D02*
X126650000Y-105100000D01*
X128950000Y-102650000D02*
X128950000Y-104400000D01*
X128950000Y-104400000D02*
X128750000Y-104600000D01*
X128750000Y-104600000D02*
X127399002Y-104600000D01*
X123700000Y-106850000D02*
X123700000Y-107550000D01*
X125749012Y-106249990D02*
X124300009Y-106249991D01*
X124300009Y-106249991D02*
X123700000Y-106850000D01*
X123700000Y-107550000D02*
X123700000Y-107350000D01*
X121000000Y-107750000D02*
X121400000Y-107750000D01*
X121400000Y-107750000D02*
X121424990Y-107725010D01*
X121424990Y-107725010D02*
X123024990Y-107725010D01*
X123024990Y-107725010D02*
X123200000Y-107550000D01*
X123200000Y-107550000D02*
X123700000Y-107550000D01*
X131600000Y-102650000D02*
X133500000Y-100750000D01*
X133500000Y-100750000D02*
X133500000Y-100200000D01*
X128950000Y-102650000D02*
X131600000Y-102650000D01*
X128950000Y-102650000D02*
X127950000Y-101650000D01*
X115500000Y-116950000D02*
X113511523Y-116950000D01*
X113511523Y-116950000D02*
X112622272Y-117839251D01*
X115800000Y-117250000D02*
X115500000Y-116950000D01*
X116550000Y-117250000D02*
X115800000Y-117250000D01*
D42*
X117400000Y-114170000D02*
X117400000Y-115630000D01*
X117400000Y-115630000D02*
X117180000Y-115850000D01*
X117180000Y-115850000D02*
X116350000Y-115850000D01*
X116350000Y-113950000D02*
X117180000Y-113950000D01*
X117180000Y-113950000D02*
X117400000Y-114170000D01*
X116550000Y-117250000D02*
X116550000Y-116050000D01*
X116550000Y-116050000D02*
X116350000Y-115850000D01*
X114900000Y-93400000D02*
X114900000Y-91500000D01*
X114900000Y-91500000D02*
X115500000Y-90900000D01*
D40*
X119400000Y-106150000D02*
X119400000Y-105478588D01*
X121125020Y-104524980D02*
X123000000Y-102650000D01*
X119400000Y-105478588D02*
X120353608Y-104524980D01*
X120353608Y-104524980D02*
X121125020Y-104524980D01*
X123000000Y-102650000D02*
X123000000Y-102250000D01*
X123000000Y-101700000D02*
X123650000Y-101050000D01*
X123650000Y-101050000D02*
X123650000Y-100300000D01*
X123000000Y-102250000D02*
X123000000Y-101700000D01*
X119900000Y-106150000D02*
X119900000Y-105614998D01*
X122215008Y-104974990D02*
X123390009Y-103799989D01*
X119900000Y-105614998D02*
X120540008Y-104974990D01*
X120540008Y-104974990D02*
X122215008Y-104974990D01*
X123390009Y-103799989D02*
X124350011Y-103799989D01*
X124350011Y-103799989D02*
X125500000Y-102650000D01*
X125500000Y-102650000D02*
X125500000Y-102250000D01*
X125500000Y-101350000D02*
X125200000Y-101050000D01*
X125200000Y-101050000D02*
X125200000Y-100300000D01*
X125500000Y-102250000D02*
X125500000Y-101350000D01*
X123850000Y-89850000D02*
X122100000Y-89850000D01*
D31*
X131050000Y-126750000D02*
X131050000Y-129327916D01*
X131050000Y-129327916D02*
X131050000Y-130050000D01*
D40*
X130800000Y-129350000D02*
X131027916Y-129350000D01*
X131027916Y-129350000D02*
X131050000Y-129327916D01*
D31*
X134400000Y-131200000D02*
X135400000Y-132200000D01*
X135400000Y-132200000D02*
X135400000Y-135450000D01*
X132200000Y-131200000D02*
X134400000Y-131200000D01*
X131050000Y-130050000D02*
X132200000Y-131200000D01*
X135400000Y-133550000D02*
X135400000Y-135450000D01*
X135400000Y-133850000D02*
X135400000Y-135450000D01*
D40*
X111500000Y-100350000D02*
X112750980Y-100350000D01*
X112750980Y-100350000D02*
X112900980Y-100200000D01*
X112900980Y-102100000D02*
X111650000Y-102100000D01*
X111650000Y-102100000D02*
X111500000Y-101950000D01*
X112050000Y-106000000D02*
X112050000Y-106205438D01*
X112050000Y-106205438D02*
X110055438Y-108200000D01*
X109050000Y-108200000D02*
X110055438Y-108200000D01*
X116300000Y-107750000D02*
X114004110Y-107750000D01*
X114004110Y-107750000D02*
X113881135Y-107627025D01*
X109050000Y-108200000D02*
X107150000Y-108200000D01*
X107150000Y-108200000D02*
X106400000Y-107450000D01*
X116275001Y-107774999D02*
X116300000Y-107750000D01*
X128050030Y-118350030D02*
X135050000Y-125350000D01*
X135050000Y-125350000D02*
X135050000Y-126750000D01*
X123775015Y-118350030D02*
X128050030Y-118350030D01*
X121700000Y-109850000D02*
X121600000Y-109750000D01*
X121600000Y-109750000D02*
X121025000Y-109750000D01*
X121700000Y-116275015D02*
X121700000Y-109850000D01*
X123775015Y-118350030D02*
X121700000Y-116275015D01*
X136600000Y-125050000D02*
X137050000Y-125500000D01*
X137050000Y-125500000D02*
X137050000Y-126750000D01*
X135450000Y-125050000D02*
X136600000Y-125050000D01*
X128300020Y-117900020D02*
X135450000Y-125050000D01*
X123961415Y-117900020D02*
X128300020Y-117900020D01*
X122200000Y-109700000D02*
X121750000Y-109250000D01*
X121750000Y-109250000D02*
X121025000Y-109250000D01*
X122200000Y-116138605D02*
X122200000Y-109700000D01*
X123961415Y-117900020D02*
X122200000Y-116138605D01*
X138000000Y-124550000D02*
X139050000Y-125600000D01*
X139050000Y-125600000D02*
X139050000Y-126750000D01*
X135700000Y-124550000D02*
X138000000Y-124550000D01*
X128600010Y-117450010D02*
X135700000Y-124550000D01*
X124147815Y-117450010D02*
X128600010Y-117450010D01*
X122700000Y-109550000D02*
X121900000Y-108750000D01*
X121900000Y-108750000D02*
X121025000Y-108750000D01*
X122700000Y-116002195D02*
X122700000Y-109550000D01*
X124147815Y-117450010D02*
X122700000Y-116002195D01*
X134050000Y-125000000D02*
X127850040Y-118800040D01*
X127850040Y-118800040D02*
X123588615Y-118800040D01*
X134050000Y-128000000D02*
X134050000Y-125000000D01*
X123588615Y-118800040D02*
X121025000Y-116236425D01*
X121025000Y-116236425D02*
X121025000Y-110250000D01*
X141050000Y-128000000D02*
X141050000Y-126750000D01*
X134050000Y-128000000D02*
X134250000Y-128200000D01*
X134250000Y-128200000D02*
X140850000Y-128200000D01*
X140850000Y-128200000D02*
X141050000Y-128000000D01*
X116308414Y-102583424D02*
X116308414Y-100659954D01*
X116308414Y-100659954D02*
X115848460Y-100200000D01*
X115848460Y-100200000D02*
X114999020Y-100200000D01*
X117900000Y-106150000D02*
X117900000Y-104850000D01*
X117900000Y-104850000D02*
X117279080Y-104229080D01*
X115282317Y-103609522D02*
X115282317Y-102383297D01*
X115282317Y-102383297D02*
X114999020Y-102100000D01*
X117400000Y-106150000D02*
X117400000Y-105614998D01*
X117400000Y-105614998D02*
X116864083Y-105079081D01*
X116864083Y-105079081D02*
X116429081Y-105079081D01*
X112700000Y-105300000D02*
X104957898Y-105300000D01*
X104957898Y-105300000D02*
X104603949Y-105653949D01*
X114776905Y-107250000D02*
X114517532Y-106990627D01*
X116300000Y-107250000D02*
X114776905Y-107250000D01*
X108350000Y-97000000D02*
X108350000Y-101789963D01*
X108350000Y-101789963D02*
X110260047Y-103700010D01*
X110260047Y-103700010D02*
X112400010Y-103700010D01*
X112400010Y-103700010D02*
X113375209Y-104675209D01*
X116300000Y-106750000D02*
X115549240Y-106750000D01*
X115549240Y-106750000D02*
X115170801Y-106371561D01*
X129650000Y-115000000D02*
X127050000Y-115000000D01*
X127050000Y-115000000D02*
X125350000Y-116700000D01*
X133500000Y-111150000D02*
X129650000Y-115000000D01*
X142250000Y-111150000D02*
X133500000Y-111150000D01*
X143050000Y-110350000D02*
X142250000Y-111150000D01*
X143050000Y-109050000D02*
X143050000Y-110350000D01*
X124400000Y-116700000D02*
X125350000Y-116700000D01*
X124000000Y-116300000D02*
X124400000Y-116700000D01*
X118400000Y-110850000D02*
X118400000Y-114450000D01*
X118400000Y-114450000D02*
X118200000Y-114650000D01*
X114150000Y-113950000D02*
X114150000Y-112450000D01*
X114150000Y-112450000D02*
X114100000Y-112400000D01*
X115003552Y-117600000D02*
X113886828Y-117600000D01*
X113886828Y-117600000D02*
X113187958Y-118298870D01*
X113187958Y-118298870D02*
X113081891Y-118298870D01*
X115603552Y-118200000D02*
X115003552Y-117600000D01*
X118746448Y-118200000D02*
X115603552Y-118200000D01*
X118900001Y-118046447D02*
X118746448Y-118200000D01*
X118900000Y-110875000D02*
X118900001Y-110875001D01*
X118900001Y-110875001D02*
X118900001Y-118046447D01*
X114796448Y-118100000D02*
X114093934Y-118100000D01*
X114093934Y-118100000D02*
X113541511Y-118652423D01*
X113541511Y-118652423D02*
X113541511Y-118758489D01*
X115396448Y-118700000D02*
X114796448Y-118100000D01*
X118953552Y-118700000D02*
X115396448Y-118700000D01*
X119399999Y-118253553D02*
X118953552Y-118700000D01*
X119400000Y-110875000D02*
X119399999Y-110875001D01*
X119399999Y-110875001D02*
X119399999Y-118253553D01*
X129350000Y-114500000D02*
X124550000Y-114500000D01*
X124550000Y-114500000D02*
X124400000Y-114350000D01*
X133200000Y-110650000D02*
X129350000Y-114500000D01*
X140700000Y-110650000D02*
X133200000Y-110650000D01*
X141050000Y-110300000D02*
X140700000Y-110650000D01*
X141050000Y-109050000D02*
X141050000Y-110300000D01*
X124500000Y-114450000D02*
X124400000Y-114350000D01*
X117050000Y-112700000D02*
X117600000Y-113250000D01*
X117600000Y-113250000D02*
X117650000Y-113250000D01*
X117050000Y-111850000D02*
X117050000Y-112700000D01*
X117400000Y-111500000D02*
X117050000Y-111850000D01*
X117400000Y-110875000D02*
X117400000Y-111500000D01*
X125000000Y-113950000D02*
X124400000Y-113350000D01*
X124400000Y-113350000D02*
X124400000Y-113000000D01*
X129200000Y-113950000D02*
X125000000Y-113950000D01*
X133050000Y-110100000D02*
X129200000Y-113950000D01*
X133050000Y-109050000D02*
X133050000Y-110100000D01*
X133050000Y-109050000D02*
X133050000Y-109800000D01*
X133050000Y-109050000D02*
X133050000Y-109850000D01*
X117900000Y-110875000D02*
X117900000Y-112100000D01*
X117900000Y-112100000D02*
X117700000Y-112300000D01*
D10*
G36*
X114050000Y-94104897D02*
X114450000Y-94104897D01*
X114476026Y-94100000D01*
X114675818Y-94100000D01*
X114700000Y-94104897D01*
X115100000Y-94104897D01*
X115126026Y-94100000D01*
X115325818Y-94100000D01*
X115350000Y-94104897D01*
X115750000Y-94104897D01*
X115776026Y-94100000D01*
X115829290Y-94100000D01*
X116464645Y-94735355D01*
X116481185Y-94746325D01*
X116500000Y-94750000D01*
X118279290Y-94750000D01*
X118700000Y-95170710D01*
X118700000Y-96229290D01*
X118379290Y-96550000D01*
X117820710Y-96550000D01*
X116185355Y-94914645D01*
X116168815Y-94903675D01*
X116150000Y-94900000D01*
X115124182Y-94900000D01*
X115100000Y-94895103D01*
X114700000Y-94895103D01*
X114673974Y-94900000D01*
X114474182Y-94900000D01*
X114450000Y-94895103D01*
X114050000Y-94895103D01*
X114023974Y-94900000D01*
X113850000Y-94900000D01*
X113830547Y-94903939D01*
X113814645Y-94914645D01*
X113129290Y-95600000D01*
X112450000Y-95600000D01*
X112430547Y-95603939D01*
X112414645Y-95614645D01*
X111429290Y-96600000D01*
X110070710Y-96600000D01*
X109750000Y-96279290D01*
X109750000Y-95970710D01*
X110670710Y-95050000D01*
X112250000Y-95050000D01*
X112269453Y-95046061D01*
X112285355Y-95035355D01*
X112420710Y-94900000D01*
X112950000Y-94900000D01*
X112969453Y-94896061D01*
X112985355Y-94885355D01*
X113770710Y-94100000D01*
X114025818Y-94100000D01*
X114050000Y-94104897D01*
X114050000Y-94104897D01*
G37*
X114050000Y-94104897D02*
X114450000Y-94104897D01*
X114476026Y-94100000D01*
X114675818Y-94100000D01*
X114700000Y-94104897D01*
X115100000Y-94104897D01*
X115126026Y-94100000D01*
X115325818Y-94100000D01*
X115350000Y-94104897D01*
X115750000Y-94104897D01*
X115776026Y-94100000D01*
X115829290Y-94100000D01*
X116464645Y-94735355D01*
X116481185Y-94746325D01*
X116500000Y-94750000D01*
X118279290Y-94750000D01*
X118700000Y-95170710D01*
X118700000Y-96229290D01*
X118379290Y-96550000D01*
X117820710Y-96550000D01*
X116185355Y-94914645D01*
X116168815Y-94903675D01*
X116150000Y-94900000D01*
X115124182Y-94900000D01*
X115100000Y-94895103D01*
X114700000Y-94895103D01*
X114673974Y-94900000D01*
X114474182Y-94900000D01*
X114450000Y-94895103D01*
X114050000Y-94895103D01*
X114023974Y-94900000D01*
X113850000Y-94900000D01*
X113830547Y-94903939D01*
X113814645Y-94914645D01*
X113129290Y-95600000D01*
X112450000Y-95600000D01*
X112430547Y-95603939D01*
X112414645Y-95614645D01*
X111429290Y-96600000D01*
X110070710Y-96600000D01*
X109750000Y-96279290D01*
X109750000Y-95970710D01*
X110670710Y-95050000D01*
X112250000Y-95050000D01*
X112269453Y-95046061D01*
X112285355Y-95035355D01*
X112420710Y-94900000D01*
X112950000Y-94900000D01*
X112969453Y-94896061D01*
X112985355Y-94885355D01*
X113770710Y-94100000D01*
X114025818Y-94100000D01*
X114050000Y-94104897D01*
G36*
X113600000Y-92829290D02*
X113114645Y-93314645D01*
X113103675Y-93331185D01*
X113100000Y-93350000D01*
X113100000Y-94100000D01*
X111670710Y-94100000D01*
X111535355Y-93964645D01*
X111518815Y-93953675D01*
X111500000Y-93950000D01*
X110550000Y-93950000D01*
X110550000Y-93520710D01*
X112170710Y-91900000D01*
X113600000Y-91900000D01*
X113600000Y-92829290D01*
X113600000Y-92829290D01*
G37*
X113600000Y-92829290D02*
X113114645Y-93314645D01*
X113103675Y-93331185D01*
X113100000Y-93350000D01*
X113100000Y-94100000D01*
X111670710Y-94100000D01*
X111535355Y-93964645D01*
X111518815Y-93953675D01*
X111500000Y-93950000D01*
X110550000Y-93950000D01*
X110550000Y-93520710D01*
X112170710Y-91900000D01*
X113600000Y-91900000D01*
X113600000Y-92829290D01*
G36*
X116814645Y-93385355D02*
X116831185Y-93396325D01*
X116850000Y-93400000D01*
X117550000Y-93400000D01*
X117550000Y-94100000D01*
X116320710Y-94100000D01*
X116035355Y-93814645D01*
X116018815Y-93803675D01*
X116000000Y-93800000D01*
X115400000Y-93800000D01*
X115400000Y-93000000D01*
X116429290Y-93000000D01*
X116814645Y-93385355D01*
X116814645Y-93385355D01*
G37*
X116814645Y-93385355D02*
X116831185Y-93396325D01*
X116850000Y-93400000D01*
X117550000Y-93400000D01*
X117550000Y-94100000D01*
X116320710Y-94100000D01*
X116035355Y-93814645D01*
X116018815Y-93803675D01*
X116000000Y-93800000D01*
X115400000Y-93800000D01*
X115400000Y-93000000D01*
X116429290Y-93000000D01*
X116814645Y-93385355D01*
M02*
