G04 #@! TF.FileFunction,Legend,Top*
%FSLAX46Y46*%
G04 Gerber Fmt 4.6, Leading zero omitted, Abs format (unit mm)*
G04 Created by KiCad (PCBNEW 4.0.1-3.201512221402+6198~38~ubuntu14.04.1-stable) date Tue 12 Jan 2016 14:15:59 GMT*
%MOMM*%
G01*
G04 APERTURE LIST*
%ADD10C,0.100000*%
%ADD11C,0.150000*%
G04 APERTURE END LIST*
D10*
D11*
X130350000Y-139550000D02*
X130350000Y-140250000D01*
X129150000Y-140250000D02*
X129150000Y-139550000D01*
X134700000Y-124350000D02*
X134000000Y-124350000D01*
X134000000Y-123150000D02*
X134700000Y-123150000D01*
X135050000Y-139650000D02*
X135050000Y-140350000D01*
X133850000Y-140350000D02*
X133850000Y-139650000D01*
X134700000Y-125850000D02*
X134000000Y-125850000D01*
X134000000Y-124650000D02*
X134700000Y-124650000D01*
X139350000Y-126300000D02*
X139350000Y-125600000D01*
X140550000Y-125600000D02*
X140550000Y-126300000D01*
X132450000Y-114050000D02*
X131750000Y-114050000D01*
X131750000Y-112850000D02*
X132450000Y-112850000D01*
X132450000Y-112550000D02*
X131750000Y-112550000D01*
X131750000Y-111350000D02*
X132450000Y-111350000D01*
X121900000Y-140600000D02*
X121900000Y-141300000D01*
X120700000Y-141300000D02*
X120700000Y-140600000D01*
X120400000Y-140600000D02*
X120400000Y-141300000D01*
X119200000Y-141300000D02*
X119200000Y-140600000D01*
X122671751Y-132576777D02*
X122176777Y-133071751D01*
X121328249Y-132223223D02*
X121823223Y-131728249D01*
X134300000Y-128150000D02*
X134300000Y-128850000D01*
X133100000Y-128850000D02*
X133100000Y-128150000D01*
X122050000Y-136700000D02*
X121350000Y-136700000D01*
X121350000Y-135500000D02*
X122050000Y-135500000D01*
X122050000Y-135200000D02*
X121350000Y-135200000D01*
X121350000Y-134000000D02*
X122050000Y-134000000D01*
X123850000Y-119600000D02*
X123850000Y-120300000D01*
X122650000Y-120300000D02*
X122650000Y-119600000D01*
X119900000Y-128350000D02*
X119900000Y-127650000D01*
X121100000Y-127650000D02*
X121100000Y-128350000D01*
X118400000Y-128350000D02*
X118400000Y-127650000D01*
X119600000Y-127650000D02*
X119600000Y-128350000D01*
X123850000Y-116450000D02*
X123850000Y-117150000D01*
X122650000Y-117150000D02*
X122650000Y-116450000D01*
X127525000Y-140400000D02*
X127525000Y-139400000D01*
X128875000Y-139400000D02*
X128875000Y-140400000D01*
X134750000Y-133500000D02*
X134750000Y-130800000D01*
X133250000Y-133500000D02*
X133250000Y-130800000D01*
X134150000Y-132000000D02*
X133900000Y-132000000D01*
X133900000Y-132000000D02*
X134050000Y-132150000D01*
X133650000Y-132250000D02*
X134350000Y-132250000D01*
X134000000Y-131900000D02*
X134000000Y-131550000D01*
X134000000Y-132250000D02*
X133650000Y-131900000D01*
X133650000Y-131900000D02*
X134350000Y-131900000D01*
X134350000Y-131900000D02*
X134000000Y-132250000D01*
X131600000Y-89275000D02*
X131600000Y-88275000D01*
X132950000Y-88275000D02*
X132950000Y-89275000D01*
X127000000Y-134150000D02*
X124300000Y-134150000D01*
X127000000Y-135650000D02*
X124300000Y-135650000D01*
X125500000Y-134750000D02*
X125500000Y-135000000D01*
X125500000Y-135000000D02*
X125650000Y-134850000D01*
X125750000Y-135250000D02*
X125750000Y-134550000D01*
X125400000Y-134900000D02*
X125050000Y-134900000D01*
X125750000Y-134900000D02*
X125400000Y-135250000D01*
X125400000Y-135250000D02*
X125400000Y-134550000D01*
X125400000Y-134550000D02*
X125750000Y-134900000D01*
X127000000Y-136050000D02*
X124300000Y-136050000D01*
X127000000Y-137550000D02*
X124300000Y-137550000D01*
X125500000Y-136650000D02*
X125500000Y-136900000D01*
X125500000Y-136900000D02*
X125650000Y-136750000D01*
X125750000Y-137150000D02*
X125750000Y-136450000D01*
X125400000Y-136800000D02*
X125050000Y-136800000D01*
X125750000Y-136800000D02*
X125400000Y-137150000D01*
X125400000Y-137150000D02*
X125400000Y-136450000D01*
X125400000Y-136450000D02*
X125750000Y-136800000D01*
X136350000Y-120100000D02*
X138050000Y-120100000D01*
X136350000Y-119300000D02*
X136350000Y-120100000D01*
X136350000Y-112700000D02*
X136350000Y-113550000D01*
X138050000Y-112700000D02*
X136350000Y-112700000D01*
X132900000Y-137500000D02*
X129900000Y-137500000D01*
X129900000Y-134300000D02*
X132900000Y-134300000D01*
X140900000Y-93700000D02*
X140900000Y-95600000D01*
X140900000Y-89400000D02*
X140900000Y-91300000D01*
X139314000Y-106199000D02*
X139114000Y-106199000D01*
X136720000Y-106199000D02*
X136900000Y-106199000D01*
X137030357Y-102971256D02*
G75*
G03X136714000Y-106199000I1003643J-1727744D01*
G01*
X136900932Y-103646994D02*
G75*
G03X136900000Y-105750000I1133068J-1052006D01*
G01*
X139340726Y-106186220D02*
G75*
G03X138994000Y-102949000I-1306726J1497220D01*
G01*
X139113253Y-105712889D02*
G75*
G03X139094000Y-103665000I-1079253J1013889D01*
G01*
X129175000Y-135200000D02*
X129175000Y-136200000D01*
X127825000Y-136200000D02*
X127825000Y-135200000D01*
X132975000Y-132000000D02*
X132975000Y-133000000D01*
X131625000Y-133000000D02*
X131625000Y-132000000D01*
X121850000Y-114925000D02*
X120850000Y-114925000D01*
X120850000Y-113575000D02*
X121850000Y-113575000D01*
X120850000Y-111975000D02*
X121850000Y-111975000D01*
X121850000Y-113325000D02*
X120850000Y-113325000D01*
X122900000Y-139725000D02*
X123900000Y-139725000D01*
X123900000Y-141075000D02*
X122900000Y-141075000D01*
X123600000Y-137925000D02*
X124600000Y-137925000D01*
X124600000Y-139275000D02*
X123600000Y-139275000D01*
X137600000Y-108725000D02*
X136600000Y-108725000D01*
X136600000Y-107375000D02*
X137600000Y-107375000D01*
X139300000Y-124200000D02*
G75*
G03X139300000Y-124200000I-100000J0D01*
G01*
X138950000Y-124750000D02*
X138950000Y-124250000D01*
X136050000Y-124750000D02*
X138950000Y-124750000D01*
X136050000Y-124250000D02*
X136050000Y-124750000D01*
X138950000Y-124250000D02*
X136050000Y-124250000D01*
X131150000Y-141100000D02*
G75*
G03X131150000Y-141100000I-200000J0D01*
G01*
X133150000Y-139100000D02*
X133350000Y-139100000D01*
X133350000Y-139100000D02*
X133350000Y-140700000D01*
X133350000Y-140700000D02*
X133150000Y-140700000D01*
X130950000Y-139100000D02*
X131150000Y-139100000D01*
X130950000Y-139100000D02*
X130950000Y-140700000D01*
X130950000Y-140700000D02*
X131150000Y-140700000D01*
X118000000Y-110950000D02*
X134000000Y-110950000D01*
X134000000Y-110950000D02*
X134000000Y-90950000D01*
X134000000Y-90950000D02*
X118000000Y-90950000D01*
X118000000Y-90950000D02*
X118000000Y-110950000D01*
X121613856Y-128494975D02*
G75*
G03X121613856Y-128494975I-200000J0D01*
G01*
X127000000Y-133656854D02*
X126505025Y-133161880D01*
X127494975Y-133161880D02*
X127000000Y-133656854D01*
X121343146Y-128000000D02*
X121838120Y-128494975D01*
X121838120Y-127505025D02*
X121343146Y-128000000D01*
X132656854Y-128000000D02*
X132161880Y-128494975D01*
X132161880Y-127505025D02*
X132656854Y-128000000D01*
X127000000Y-122343146D02*
X127494975Y-122838120D01*
X126505025Y-122838120D02*
X127000000Y-122343146D01*
X118600000Y-119050000D02*
G75*
G03X118600000Y-119050000I-250000J0D01*
G01*
X118850000Y-118800000D02*
X118850000Y-122300000D01*
X118850000Y-122300000D02*
X122350000Y-122300000D01*
X122350000Y-122300000D02*
X122350000Y-118800000D01*
X122350000Y-118800000D02*
X118850000Y-118800000D01*
X122100000Y-114650000D02*
G75*
G03X122100000Y-114650000I-250000J0D01*
G01*
X122350000Y-115150000D02*
X118850000Y-115150000D01*
X118850000Y-115150000D02*
X118850000Y-118650000D01*
X118850000Y-118650000D02*
X122350000Y-118650000D01*
X122350000Y-118650000D02*
X122350000Y-115150000D01*
X135325000Y-128240000D02*
X135325000Y-133320000D01*
X136150500Y-133320000D02*
X135325000Y-133320000D01*
X135325000Y-131859500D02*
X136150500Y-131859500D01*
X136150500Y-128240000D02*
X135325000Y-128240000D01*
X135325000Y-129700500D02*
X136150500Y-129700500D01*
X139579500Y-128240000D02*
X140405000Y-128240000D01*
X140405000Y-128240000D02*
X140405000Y-133320000D01*
X140405000Y-133320000D02*
X139579500Y-133320000D01*
X139579500Y-130780000D02*
X139579500Y-133955000D01*
X139579500Y-133955000D02*
X136150500Y-133955000D01*
X136150500Y-133955000D02*
X136150500Y-127605000D01*
X136150500Y-127605000D02*
X139579500Y-127605000D01*
X139579500Y-127605000D02*
X139579500Y-130780000D01*
X119550000Y-137225000D02*
X121550000Y-137225000D01*
X121550000Y-139375000D02*
X119550000Y-139375000D01*
X140192381Y-107951905D02*
X139192381Y-107951905D01*
X140192381Y-107380476D02*
X139620952Y-107809048D01*
X139192381Y-107380476D02*
X139763810Y-107951905D01*
M02*
