M48
;DRILL file {KiCad 4.0.1-3.201512221402+6198~38~ubuntu14.04.1-stable} date Tue 12 Jan 2016 14:15:10 GMT
;FORMAT={-:-/ absolute / inch / decimal}
FMAT,2
INCH,TZ
T1C0.016
T2C0.020
T3C0.024
T4C0.025
T5C0.026
T6C0.035
T7C0.039
T8C0.040
%
G90
G05
M72
T1
X4.6703Y-5.3789
X4.685Y-4.9764
X4.7087Y-4.6063
X4.7441Y-4.9764
X4.7441Y-5.6063
X4.748Y-4.7461
X4.7559Y-5.2598
X4.7835Y-5.3858
X4.8051Y-4.8425
X4.8248Y-4.6083
X4.8307Y-5.5669
X4.8327Y-4.7165
X4.8425Y-5.4006
X4.8839Y-4.7264
X4.8957Y-4.6339
X4.9055Y-4.4626
X4.9843Y-4.9341
X5.0157Y-4.9596
X5.0236Y-4.4646
X5.0384Y-4.8012
X5.0472Y-5.5709
X5.0679Y-4.7805
X5.0787Y-3.5256
X5.1043Y-4.8346
X5.1122Y-5.4429
X5.1289Y-4.811
X5.1319Y-4.4075
X5.1358Y-4.4665
X5.1624Y-4.8898
X5.1752Y-5.5906
X5.1791Y-5.5059
X5.185Y-4.8642
X5.2087Y-5.5925
X5.2165Y-5.2126
X5.2224Y-5.5059
X5.2579Y-5.4665
X5.2707Y-4.4203
X5.2707Y-4.503
X5.2717Y-3.6949
X5.2835Y-4.8504
X5.2835Y-4.9055
X5.2933Y-5.0886
X5.2992Y-5.3386
X5.3248Y-4.5276
X5.3661Y-5.4193
X5.372Y-5.0118
X5.3917Y-4.9016
X5.3986Y-4.9833
X5.435Y-4.9016
X5.4587Y-4.252
X5.5177Y-5.0984
X5.5236Y-4.9035
T2
X4.7106Y-4.435
X4.7106Y-4.498
T4
X5.4028Y-5.0488
X5.4028Y-5.0988
X5.4028Y-5.1488
X5.4028Y-5.1988
X5.4028Y-5.2488
X5.4528Y-5.0488
X5.4528Y-5.0988
X5.4528Y-5.1488
X5.4528Y-5.1988
X5.4528Y-5.2488
T6
X4.9803Y-3.4843
X4.9803Y-5.5315
T7
X5.4331Y-4.0732
X5.4331Y-4.1732
T8
X4.8661Y-3.4843
X5.3839Y-3.6417
X5.4764Y-4.3445
T3
X5.4646Y-4.4183G85X5.4921Y-4.4183
G05
X5.4646Y-4.747G85X5.4921Y-4.747
G05
T5
X5.3563Y-4.4951G85X5.3642Y-4.4951
G05
X5.3563Y-4.6703G85X5.3642Y-4.6703
G05
T0
M30
