G04 #@! TF.FileFunction,Legend,Top*
%FSLAX46Y46*%
G04 Gerber Fmt 4.6, Leading zero omitted, Abs format (unit mm)*
G04 Created by KiCad (PCBNEW 0.201509071501+6164~29~ubuntu14.04.1-product) date Thu 07 Jan 2016 12:58:05 GMT*
%MOMM*%
G01*
G04 APERTURE LIST*
%ADD10C,0.100000*%
%ADD11C,3.000000*%
%ADD12C,0.150000*%
%ADD13C,0.200000*%
%ADD14C,0.010000*%
G04 APERTURE END LIST*
D10*
D11*
X132150000Y-106100000D02*
X135400000Y-106100000D01*
D12*
X113140476Y-99252381D02*
X113140476Y-98252381D01*
X113521429Y-98252381D01*
X113616667Y-98300000D01*
X113664286Y-98347619D01*
X113711905Y-98442857D01*
X113711905Y-98585714D01*
X113664286Y-98680952D01*
X113616667Y-98728571D01*
X113521429Y-98776190D01*
X113140476Y-98776190D01*
X114330952Y-98252381D02*
X114521429Y-98252381D01*
X114616667Y-98300000D01*
X114711905Y-98395238D01*
X114759524Y-98585714D01*
X114759524Y-98919048D01*
X114711905Y-99109524D01*
X114616667Y-99204762D01*
X114521429Y-99252381D01*
X114330952Y-99252381D01*
X114235714Y-99204762D01*
X114140476Y-99109524D01*
X114092857Y-98919048D01*
X114092857Y-98585714D01*
X114140476Y-98395238D01*
X114235714Y-98300000D01*
X114330952Y-98252381D01*
X115092857Y-98252381D02*
X115330952Y-99252381D01*
X115521429Y-98538095D01*
X115711905Y-99252381D01*
X115950000Y-98252381D01*
X116330952Y-98728571D02*
X116664286Y-98728571D01*
X116807143Y-99252381D02*
X116330952Y-99252381D01*
X116330952Y-98252381D01*
X116807143Y-98252381D01*
X117807143Y-99252381D02*
X117473809Y-98776190D01*
X117235714Y-99252381D02*
X117235714Y-98252381D01*
X117616667Y-98252381D01*
X117711905Y-98300000D01*
X117759524Y-98347619D01*
X117807143Y-98442857D01*
X117807143Y-98585714D01*
X117759524Y-98680952D01*
X117711905Y-98728571D01*
X117616667Y-98776190D01*
X117235714Y-98776190D01*
D13*
X150678571Y-124521428D02*
X149178571Y-124521428D01*
X150607143Y-124521428D02*
X150678571Y-124664285D01*
X150678571Y-124949999D01*
X150607143Y-125092857D01*
X150535714Y-125164285D01*
X150392857Y-125235714D01*
X149964286Y-125235714D01*
X149821429Y-125164285D01*
X149750000Y-125092857D01*
X149678571Y-124949999D01*
X149678571Y-124664285D01*
X149750000Y-124521428D01*
X149678571Y-123949999D02*
X150678571Y-123664285D01*
X149964286Y-123378571D01*
X150678571Y-123092856D01*
X149678571Y-122807142D01*
X149678571Y-122449999D02*
X149678571Y-121878570D01*
X149178571Y-122235713D02*
X150464286Y-122235713D01*
X150607143Y-122164285D01*
X150678571Y-122021427D01*
X150678571Y-121878570D01*
X149321429Y-121449999D02*
X149250000Y-121378570D01*
X149178571Y-121235713D01*
X149178571Y-120878570D01*
X149250000Y-120735713D01*
X149321429Y-120664284D01*
X149464286Y-120592856D01*
X149607143Y-120592856D01*
X149821429Y-120664284D01*
X150678571Y-121521427D01*
X150678571Y-120592856D01*
X149178571Y-120092856D02*
X149178571Y-119092856D01*
X150678571Y-119735713D01*
X147121429Y-131035713D02*
X147050000Y-130964284D01*
X146978571Y-130821427D01*
X146978571Y-130464284D01*
X147050000Y-130321427D01*
X147121429Y-130249998D01*
X147264286Y-130178570D01*
X147407143Y-130178570D01*
X147621429Y-130249998D01*
X148478571Y-131107141D01*
X148478571Y-130178570D01*
X146978571Y-129249999D02*
X146978571Y-129107142D01*
X147050000Y-128964285D01*
X147121429Y-128892856D01*
X147264286Y-128821427D01*
X147550000Y-128749999D01*
X147907143Y-128749999D01*
X148192857Y-128821427D01*
X148335714Y-128892856D01*
X148407143Y-128964285D01*
X148478571Y-129107142D01*
X148478571Y-129249999D01*
X148407143Y-129392856D01*
X148335714Y-129464285D01*
X148192857Y-129535713D01*
X147907143Y-129607142D01*
X147550000Y-129607142D01*
X147264286Y-129535713D01*
X147121429Y-129464285D01*
X147050000Y-129392856D01*
X146978571Y-129249999D01*
X148478571Y-127321428D02*
X148478571Y-128178571D01*
X148478571Y-127749999D02*
X146978571Y-127749999D01*
X147192857Y-127892856D01*
X147335714Y-128035714D01*
X147407143Y-128178571D01*
X146978571Y-126035714D02*
X146978571Y-126321428D01*
X147050000Y-126464285D01*
X147121429Y-126535714D01*
X147335714Y-126678571D01*
X147621429Y-126750000D01*
X148192857Y-126750000D01*
X148335714Y-126678571D01*
X148407143Y-126607143D01*
X148478571Y-126464285D01*
X148478571Y-126178571D01*
X148407143Y-126035714D01*
X148335714Y-125964285D01*
X148192857Y-125892857D01*
X147835714Y-125892857D01*
X147692857Y-125964285D01*
X147621429Y-126035714D01*
X147550000Y-126178571D01*
X147550000Y-126464285D01*
X147621429Y-126607143D01*
X147692857Y-126678571D01*
X147835714Y-126750000D01*
X147907143Y-125250000D02*
X147907143Y-124107143D01*
X146978571Y-123107143D02*
X146978571Y-122964286D01*
X147050000Y-122821429D01*
X147121429Y-122750000D01*
X147264286Y-122678571D01*
X147550000Y-122607143D01*
X147907143Y-122607143D01*
X148192857Y-122678571D01*
X148335714Y-122750000D01*
X148407143Y-122821429D01*
X148478571Y-122964286D01*
X148478571Y-123107143D01*
X148407143Y-123250000D01*
X148335714Y-123321429D01*
X148192857Y-123392857D01*
X147907143Y-123464286D01*
X147550000Y-123464286D01*
X147264286Y-123392857D01*
X147121429Y-123321429D01*
X147050000Y-123250000D01*
X146978571Y-123107143D01*
X148478571Y-121178572D02*
X148478571Y-122035715D01*
X148478571Y-121607143D02*
X146978571Y-121607143D01*
X147192857Y-121750000D01*
X147335714Y-121892858D01*
X147407143Y-122035715D01*
X147907143Y-120535715D02*
X147907143Y-119392858D01*
X146978571Y-118392858D02*
X146978571Y-118250001D01*
X147050000Y-118107144D01*
X147121429Y-118035715D01*
X147264286Y-117964286D01*
X147550000Y-117892858D01*
X147907143Y-117892858D01*
X148192857Y-117964286D01*
X148335714Y-118035715D01*
X148407143Y-118107144D01*
X148478571Y-118250001D01*
X148478571Y-118392858D01*
X148407143Y-118535715D01*
X148335714Y-118607144D01*
X148192857Y-118678572D01*
X147907143Y-118750001D01*
X147550000Y-118750001D01*
X147264286Y-118678572D01*
X147121429Y-118607144D01*
X147050000Y-118535715D01*
X146978571Y-118392858D01*
X146978571Y-116535715D02*
X146978571Y-117250001D01*
X147692857Y-117321430D01*
X147621429Y-117250001D01*
X147550000Y-117107144D01*
X147550000Y-116750001D01*
X147621429Y-116607144D01*
X147692857Y-116535715D01*
X147835714Y-116464287D01*
X148192857Y-116464287D01*
X148335714Y-116535715D01*
X148407143Y-116607144D01*
X148478571Y-116750001D01*
X148478571Y-117107144D01*
X148407143Y-117250001D01*
X148335714Y-117321430D01*
X144828571Y-127807142D02*
X144828571Y-126949999D01*
X146328571Y-127378570D02*
X144828571Y-127378570D01*
X145542857Y-126449999D02*
X145542857Y-125949999D01*
X146328571Y-125735713D02*
X146328571Y-126449999D01*
X144828571Y-126449999D01*
X144828571Y-125735713D01*
X145900000Y-125164285D02*
X145900000Y-124449999D01*
X146328571Y-125307142D02*
X144828571Y-124807142D01*
X146328571Y-124307142D01*
X146328571Y-123807142D02*
X144828571Y-123807142D01*
X144828571Y-123235714D01*
X144900000Y-123092856D01*
X144971429Y-123021428D01*
X145114286Y-122949999D01*
X145328571Y-122949999D01*
X145471429Y-123021428D01*
X145542857Y-123092856D01*
X145614286Y-123235714D01*
X145614286Y-123807142D01*
X144828571Y-122021428D02*
X144828571Y-121735714D01*
X144900000Y-121592856D01*
X145042857Y-121449999D01*
X145328571Y-121378571D01*
X145828571Y-121378571D01*
X146114286Y-121449999D01*
X146257143Y-121592856D01*
X146328571Y-121735714D01*
X146328571Y-122021428D01*
X146257143Y-122164285D01*
X146114286Y-122307142D01*
X145828571Y-122378571D01*
X145328571Y-122378571D01*
X145042857Y-122307142D01*
X144900000Y-122164285D01*
X144828571Y-122021428D01*
X144828571Y-120949999D02*
X144828571Y-120092856D01*
X146328571Y-120521427D02*
X144828571Y-120521427D01*
X146328571Y-118449999D02*
X145328571Y-118449999D01*
X145614286Y-118449999D02*
X145471429Y-118378571D01*
X145400000Y-118307142D01*
X145328571Y-118164285D01*
X145328571Y-118021428D01*
X146328571Y-116735714D02*
X146328571Y-117592857D01*
X146328571Y-117164285D02*
X144828571Y-117164285D01*
X145042857Y-117307142D01*
X145185714Y-117450000D01*
X145257143Y-117592857D01*
D12*
X131269048Y-97952381D02*
X131269048Y-96952381D01*
X131269048Y-97428571D02*
X131840477Y-97428571D01*
X131840477Y-97952381D02*
X131840477Y-96952381D01*
X132316667Y-96952381D02*
X132316667Y-97761905D01*
X132364286Y-97857143D01*
X132411905Y-97904762D01*
X132507143Y-97952381D01*
X132697620Y-97952381D01*
X132792858Y-97904762D01*
X132840477Y-97857143D01*
X132888096Y-97761905D01*
X132888096Y-96952381D01*
X133364286Y-97952381D02*
X133364286Y-96952381D01*
X133697620Y-97666667D01*
X134030953Y-96952381D01*
X134030953Y-97952381D01*
X131059524Y-104252381D02*
X131059524Y-103252381D01*
X131440477Y-103252381D01*
X131535715Y-103300000D01*
X131583334Y-103347619D01*
X131630953Y-103442857D01*
X131630953Y-103585714D01*
X131583334Y-103680952D01*
X131535715Y-103728571D01*
X131440477Y-103776190D01*
X131059524Y-103776190D01*
X132630953Y-104252381D02*
X132297619Y-103776190D01*
X132059524Y-104252381D02*
X132059524Y-103252381D01*
X132440477Y-103252381D01*
X132535715Y-103300000D01*
X132583334Y-103347619D01*
X132630953Y-103442857D01*
X132630953Y-103585714D01*
X132583334Y-103680952D01*
X132535715Y-103728571D01*
X132440477Y-103776190D01*
X132059524Y-103776190D01*
X133059524Y-103728571D02*
X133392858Y-103728571D01*
X133535715Y-104252381D02*
X133059524Y-104252381D01*
X133059524Y-103252381D01*
X133535715Y-103252381D01*
X133916667Y-104204762D02*
X134059524Y-104252381D01*
X134297620Y-104252381D01*
X134392858Y-104204762D01*
X134440477Y-104157143D01*
X134488096Y-104061905D01*
X134488096Y-103966667D01*
X134440477Y-103871429D01*
X134392858Y-103823810D01*
X134297620Y-103776190D01*
X134107143Y-103728571D01*
X134011905Y-103680952D01*
X133964286Y-103633333D01*
X133916667Y-103538095D01*
X133916667Y-103442857D01*
X133964286Y-103347619D01*
X134011905Y-103300000D01*
X134107143Y-103252381D01*
X134345239Y-103252381D01*
X134488096Y-103300000D01*
X103266667Y-104002381D02*
X102790476Y-104002381D01*
X102790476Y-103002381D01*
X103600000Y-104002381D02*
X103600000Y-103002381D01*
X104600000Y-103050000D02*
X104504762Y-103002381D01*
X104361905Y-103002381D01*
X104219047Y-103050000D01*
X104123809Y-103145238D01*
X104076190Y-103240476D01*
X104028571Y-103430952D01*
X104028571Y-103573810D01*
X104076190Y-103764286D01*
X104123809Y-103859524D01*
X104219047Y-103954762D01*
X104361905Y-104002381D01*
X104457143Y-104002381D01*
X104600000Y-103954762D01*
X104647619Y-103907143D01*
X104647619Y-103573810D01*
X104457143Y-103573810D01*
X105076190Y-104002381D02*
X105076190Y-103002381D01*
X105076190Y-103478571D02*
X105647619Y-103478571D01*
X105647619Y-104002381D02*
X105647619Y-103002381D01*
X105980952Y-103002381D02*
X106552381Y-103002381D01*
X106266666Y-104002381D02*
X106266666Y-103002381D01*
X113185714Y-102528571D02*
X113519048Y-102528571D01*
X113661905Y-103052381D02*
X113185714Y-103052381D01*
X113185714Y-102052381D01*
X113661905Y-102052381D01*
X114661905Y-103052381D02*
X114328571Y-102576190D01*
X114090476Y-103052381D02*
X114090476Y-102052381D01*
X114471429Y-102052381D01*
X114566667Y-102100000D01*
X114614286Y-102147619D01*
X114661905Y-102242857D01*
X114661905Y-102385714D01*
X114614286Y-102480952D01*
X114566667Y-102528571D01*
X114471429Y-102576190D01*
X114090476Y-102576190D01*
X115661905Y-103052381D02*
X115328571Y-102576190D01*
X115090476Y-103052381D02*
X115090476Y-102052381D01*
X115471429Y-102052381D01*
X115566667Y-102100000D01*
X115614286Y-102147619D01*
X115661905Y-102242857D01*
X115661905Y-102385714D01*
X115614286Y-102480952D01*
X115566667Y-102528571D01*
X115471429Y-102576190D01*
X115090476Y-102576190D01*
X113088095Y-100102381D02*
X113659524Y-100102381D01*
X113373809Y-101102381D02*
X113373809Y-100102381D01*
X113897619Y-100102381D02*
X114564286Y-101102381D01*
X114564286Y-100102381D02*
X113897619Y-101102381D01*
X115659524Y-100054762D02*
X114802381Y-101340476D01*
X116564286Y-101102381D02*
X116230952Y-100626190D01*
X115992857Y-101102381D02*
X115992857Y-100102381D01*
X116373810Y-100102381D01*
X116469048Y-100150000D01*
X116516667Y-100197619D01*
X116564286Y-100292857D01*
X116564286Y-100435714D01*
X116516667Y-100530952D01*
X116469048Y-100578571D01*
X116373810Y-100626190D01*
X115992857Y-100626190D01*
X116897619Y-100102381D02*
X117564286Y-101102381D01*
X117564286Y-100102381D02*
X116897619Y-101102381D01*
X115650000Y-116600000D02*
G75*
G03X115650000Y-116600000I-100000J0D01*
G01*
X115000000Y-116350000D02*
X115500000Y-116350000D01*
X115000000Y-113450000D02*
X115000000Y-116350000D01*
X115500000Y-113450000D02*
X115000000Y-113450000D01*
X115500000Y-116350000D02*
X115500000Y-113450000D01*
X144050000Y-107900000D02*
X128050000Y-107900000D01*
X128050000Y-107900000D02*
X128050000Y-127900000D01*
X128050000Y-127900000D02*
X144050000Y-127900000D01*
X144050000Y-127900000D02*
X144050000Y-107900000D01*
X130450000Y-100400000D02*
G75*
G03X130450000Y-100400000I-250000J0D01*
G01*
X130700000Y-100900000D02*
X127200000Y-100900000D01*
X127200000Y-100900000D02*
X127200000Y-104400000D01*
X127200000Y-104400000D02*
X130700000Y-104400000D01*
X130700000Y-104400000D02*
X130700000Y-100900000D01*
X107469853Y-106661576D02*
X107328431Y-106802997D01*
X105635618Y-108495811D02*
X105762897Y-108368532D01*
X103572713Y-105993995D02*
G75*
G03X105631375Y-108500054I1931383J-512017D01*
G01*
X103959016Y-106563332D02*
G75*
G03X105445406Y-108051041I1545080J57320D01*
G01*
X107479714Y-106633640D02*
G75*
G03X104945481Y-104589753I-1982689J134699D01*
G01*
X106984169Y-106459792D02*
G75*
G03X105522480Y-105025331I-1480073J-46220D01*
G01*
X135250000Y-101500000D02*
G75*
G03X135250000Y-101500000I-250000J0D01*
G01*
X134500000Y-101750000D02*
X134500000Y-98250000D01*
X134500000Y-98250000D02*
X131000000Y-98250000D01*
X131000000Y-98250000D02*
X131000000Y-101750000D01*
X131000000Y-101750000D02*
X134500000Y-101750000D01*
X119750987Y-121958885D02*
X116158885Y-125550987D01*
X116742601Y-126134704D02*
X116158885Y-125550987D01*
X117191614Y-124518258D02*
X117775331Y-125101975D01*
X120334704Y-122542602D02*
X119750987Y-121958885D01*
X118718258Y-122991614D02*
X119301974Y-123575331D01*
X122759373Y-124967271D02*
X123343089Y-125550987D01*
X123343089Y-125550987D02*
X119750987Y-129143090D01*
X119750987Y-129143090D02*
X119167270Y-128559373D01*
X120963322Y-126763322D02*
X118718258Y-129008386D01*
X118718258Y-129008386D02*
X116293588Y-126583717D01*
X116293588Y-126583717D02*
X120783716Y-122093589D01*
X120783716Y-122093589D02*
X123208386Y-124518258D01*
X123208386Y-124518258D02*
X120963322Y-126763322D01*
X135600000Y-137900000D02*
X133700000Y-137900000D01*
X139900000Y-137900000D02*
X138000000Y-137900000D01*
X113400000Y-94150000D02*
X113400000Y-94850000D01*
X112200000Y-94850000D02*
X112200000Y-94150000D01*
X110425000Y-95000000D02*
X110425000Y-94000000D01*
X111775000Y-94000000D02*
X111775000Y-95000000D01*
X133030850Y-131173744D02*
X132323744Y-131880850D01*
X131369150Y-130926256D02*
X132076256Y-130219150D01*
X115700000Y-92500000D02*
X112700000Y-92500000D01*
X112700000Y-89300000D02*
X115700000Y-89300000D01*
X113900000Y-95700000D02*
G75*
G03X113900000Y-95700000I-200000J0D01*
G01*
X115900000Y-93700000D02*
X116100000Y-93700000D01*
X116100000Y-93700000D02*
X116100000Y-95300000D01*
X116100000Y-95300000D02*
X115900000Y-95300000D01*
X113700000Y-93700000D02*
X113900000Y-93700000D01*
X113700000Y-93700000D02*
X113700000Y-95300000D01*
X113700000Y-95300000D02*
X113900000Y-95300000D01*
X117850000Y-94150000D02*
X117850000Y-94850000D01*
X116650000Y-94850000D02*
X116650000Y-94150000D01*
X111950000Y-114650000D02*
X111950000Y-113950000D01*
X113150000Y-113950000D02*
X113150000Y-114650000D01*
X126200000Y-112000000D02*
X126200000Y-112700000D01*
X125000000Y-112700000D02*
X125000000Y-112000000D01*
X112700000Y-110400000D02*
X112700000Y-109700000D01*
X113900000Y-109700000D02*
X113900000Y-110400000D01*
X109400000Y-99500000D02*
X112100000Y-99500000D01*
X109400000Y-98000000D02*
X112100000Y-98000000D01*
X110900000Y-98900000D02*
X110900000Y-98650000D01*
X110900000Y-98650000D02*
X110750000Y-98800000D01*
X110650000Y-98400000D02*
X110650000Y-99100000D01*
X111000000Y-98750000D02*
X111350000Y-98750000D01*
X110650000Y-98750000D02*
X111000000Y-98400000D01*
X111000000Y-98400000D02*
X111000000Y-99100000D01*
X111000000Y-99100000D02*
X110650000Y-98750000D01*
X109400000Y-101400000D02*
X112100000Y-101400000D01*
X109400000Y-99900000D02*
X112100000Y-99900000D01*
X110900000Y-100800000D02*
X110900000Y-100550000D01*
X110900000Y-100550000D02*
X110750000Y-100700000D01*
X110650000Y-100300000D02*
X110650000Y-101000000D01*
X111000000Y-100650000D02*
X111350000Y-100650000D01*
X110650000Y-100650000D02*
X111000000Y-100300000D01*
X111000000Y-100300000D02*
X111000000Y-101000000D01*
X111000000Y-101000000D02*
X110650000Y-100650000D01*
X109400000Y-103300000D02*
X112100000Y-103300000D01*
X109400000Y-101800000D02*
X112100000Y-101800000D01*
X110900000Y-102700000D02*
X110900000Y-102450000D01*
X110900000Y-102450000D02*
X110750000Y-102600000D01*
X110650000Y-102200000D02*
X110650000Y-102900000D01*
X111000000Y-102550000D02*
X111350000Y-102550000D01*
X110650000Y-102550000D02*
X111000000Y-102200000D01*
X111000000Y-102200000D02*
X111000000Y-102900000D01*
X111000000Y-102900000D02*
X110650000Y-102550000D01*
X125250000Y-103325000D02*
X123250000Y-103325000D01*
X123250000Y-101175000D02*
X125250000Y-101175000D01*
X116950000Y-116650000D02*
X117650000Y-116650000D01*
X117650000Y-117850000D02*
X116950000Y-117850000D01*
X127700000Y-112000000D02*
X127700000Y-112700000D01*
X126500000Y-112700000D02*
X126500000Y-112000000D01*
X123050000Y-99900000D02*
X123050000Y-99200000D01*
X124250000Y-99200000D02*
X124250000Y-99900000D01*
X124600000Y-99900000D02*
X124600000Y-99200000D01*
X125800000Y-99200000D02*
X125800000Y-99900000D01*
X121550000Y-99900000D02*
X121550000Y-99200000D01*
X122750000Y-99200000D02*
X122750000Y-99900000D01*
X123700000Y-104850000D02*
X124400000Y-104850000D01*
X124400000Y-106050000D02*
X123700000Y-106050000D01*
X119100000Y-100900000D02*
X119800000Y-100900000D01*
X119800000Y-102100000D02*
X119100000Y-102100000D01*
X119100000Y-102400000D02*
X119800000Y-102400000D01*
X119800000Y-103600000D02*
X119100000Y-103600000D01*
X128850000Y-99500000D02*
X128850000Y-98800000D01*
X130050000Y-98800000D02*
X130050000Y-99500000D01*
X114200000Y-110400000D02*
X114200000Y-109700000D01*
X115400000Y-109700000D02*
X115400000Y-110400000D01*
X127300000Y-99500000D02*
X127300000Y-98800000D01*
X128500000Y-98800000D02*
X128500000Y-99500000D01*
X107300000Y-96775000D02*
X108300000Y-96775000D01*
X108300000Y-98125000D02*
X107300000Y-98125000D01*
X107300000Y-98375000D02*
X108300000Y-98375000D01*
X108300000Y-99725000D02*
X107300000Y-99725000D01*
X123950000Y-108475000D02*
X124950000Y-108475000D01*
X124950000Y-109825000D02*
X123950000Y-109825000D01*
X123950000Y-106875000D02*
X124950000Y-106875000D01*
X124950000Y-108225000D02*
X123950000Y-108225000D01*
X107300000Y-99975000D02*
X108300000Y-99975000D01*
X108300000Y-101325000D02*
X107300000Y-101325000D01*
X107300000Y-101575000D02*
X108300000Y-101575000D01*
X108300000Y-102925000D02*
X107300000Y-102925000D01*
X108475000Y-109050000D02*
X108475000Y-108050000D01*
X109825000Y-108050000D02*
X109825000Y-109050000D01*
X114500000Y-111800000D02*
X115200000Y-111800000D01*
X115200000Y-113000000D02*
X114500000Y-113000000D01*
X111013604Y-116053806D02*
X109811522Y-117255887D01*
X111579289Y-116619491D02*
X111013604Y-116053806D01*
X116246194Y-121286396D02*
X115645153Y-120685355D01*
X115044113Y-122488478D02*
X116246194Y-121286396D01*
X116650000Y-106000000D02*
X116150000Y-106000000D01*
X116150000Y-106000000D02*
X116150000Y-106500000D01*
X116650000Y-111000000D02*
X116150000Y-111000000D01*
X116150000Y-111000000D02*
X116150000Y-110500000D01*
X121150000Y-110500000D02*
X121150000Y-111000000D01*
X121150000Y-111000000D02*
X120650000Y-111000000D01*
X120650000Y-106000000D02*
X121150000Y-106000000D01*
X121150000Y-106000000D02*
X121150000Y-106500000D01*
X120650000Y-105250000D02*
G75*
G03X120650000Y-105250000I-250000J0D01*
G01*
D14*
G36*
X139107703Y-107117689D02*
X139208940Y-107154258D01*
X139320853Y-107188996D01*
X139439628Y-107220976D01*
X139561454Y-107249272D01*
X139682520Y-107272957D01*
X139799014Y-107291103D01*
X139843654Y-107296624D01*
X139913170Y-107303014D01*
X139993315Y-107307866D01*
X140080391Y-107311138D01*
X140170702Y-107312790D01*
X140260549Y-107312780D01*
X140346236Y-107311065D01*
X140424065Y-107307605D01*
X140476277Y-107303729D01*
X140639185Y-107283639D01*
X140802134Y-107253507D01*
X140961512Y-107214168D01*
X141113707Y-107166458D01*
X141188287Y-107138825D01*
X141211008Y-107130462D01*
X141225910Y-107127499D01*
X141238524Y-107129646D01*
X141252033Y-107135489D01*
X141270095Y-107143257D01*
X141282812Y-107147235D01*
X141284194Y-107147371D01*
X141295119Y-107149981D01*
X141313040Y-107156442D01*
X141317664Y-107158329D01*
X141334157Y-107165818D01*
X141339103Y-107171671D01*
X141334416Y-107179679D01*
X141330612Y-107183959D01*
X141305412Y-107204875D01*
X141267299Y-107227027D01*
X141217780Y-107249995D01*
X141158363Y-107273357D01*
X141090555Y-107296693D01*
X141015863Y-107319583D01*
X140935793Y-107341605D01*
X140851854Y-107362338D01*
X140765551Y-107381362D01*
X140678392Y-107398257D01*
X140591884Y-107412601D01*
X140507534Y-107423973D01*
X140449143Y-107430070D01*
X140407594Y-107432827D01*
X140354939Y-107434802D01*
X140294566Y-107436000D01*
X140229861Y-107436427D01*
X140164212Y-107436087D01*
X140101005Y-107434985D01*
X140043629Y-107433126D01*
X139995469Y-107430515D01*
X139981058Y-107429394D01*
X139865600Y-107417594D01*
X139749115Y-107402224D01*
X139633880Y-107383744D01*
X139522175Y-107362613D01*
X139416277Y-107339289D01*
X139318466Y-107314232D01*
X139231021Y-107287901D01*
X139168804Y-107265742D01*
X139123968Y-107247307D01*
X139081143Y-107227806D01*
X139041992Y-107208208D01*
X139008183Y-107189481D01*
X138981380Y-107172594D01*
X138963250Y-107158517D01*
X138955458Y-107148218D01*
X138958135Y-107143189D01*
X138967916Y-107137654D01*
X138985552Y-107126657D01*
X139002809Y-107115470D01*
X139039891Y-107091049D01*
X139107703Y-107117689D01*
X139107703Y-107117689D01*
G37*
X139107703Y-107117689D02*
X139208940Y-107154258D01*
X139320853Y-107188996D01*
X139439628Y-107220976D01*
X139561454Y-107249272D01*
X139682520Y-107272957D01*
X139799014Y-107291103D01*
X139843654Y-107296624D01*
X139913170Y-107303014D01*
X139993315Y-107307866D01*
X140080391Y-107311138D01*
X140170702Y-107312790D01*
X140260549Y-107312780D01*
X140346236Y-107311065D01*
X140424065Y-107307605D01*
X140476277Y-107303729D01*
X140639185Y-107283639D01*
X140802134Y-107253507D01*
X140961512Y-107214168D01*
X141113707Y-107166458D01*
X141188287Y-107138825D01*
X141211008Y-107130462D01*
X141225910Y-107127499D01*
X141238524Y-107129646D01*
X141252033Y-107135489D01*
X141270095Y-107143257D01*
X141282812Y-107147235D01*
X141284194Y-107147371D01*
X141295119Y-107149981D01*
X141313040Y-107156442D01*
X141317664Y-107158329D01*
X141334157Y-107165818D01*
X141339103Y-107171671D01*
X141334416Y-107179679D01*
X141330612Y-107183959D01*
X141305412Y-107204875D01*
X141267299Y-107227027D01*
X141217780Y-107249995D01*
X141158363Y-107273357D01*
X141090555Y-107296693D01*
X141015863Y-107319583D01*
X140935793Y-107341605D01*
X140851854Y-107362338D01*
X140765551Y-107381362D01*
X140678392Y-107398257D01*
X140591884Y-107412601D01*
X140507534Y-107423973D01*
X140449143Y-107430070D01*
X140407594Y-107432827D01*
X140354939Y-107434802D01*
X140294566Y-107436000D01*
X140229861Y-107436427D01*
X140164212Y-107436087D01*
X140101005Y-107434985D01*
X140043629Y-107433126D01*
X139995469Y-107430515D01*
X139981058Y-107429394D01*
X139865600Y-107417594D01*
X139749115Y-107402224D01*
X139633880Y-107383744D01*
X139522175Y-107362613D01*
X139416277Y-107339289D01*
X139318466Y-107314232D01*
X139231021Y-107287901D01*
X139168804Y-107265742D01*
X139123968Y-107247307D01*
X139081143Y-107227806D01*
X139041992Y-107208208D01*
X139008183Y-107189481D01*
X138981380Y-107172594D01*
X138963250Y-107158517D01*
X138955458Y-107148218D01*
X138958135Y-107143189D01*
X138967916Y-107137654D01*
X138985552Y-107126657D01*
X139002809Y-107115470D01*
X139039891Y-107091049D01*
X139107703Y-107117689D01*
G36*
X141240649Y-104722155D02*
X141254413Y-104771062D01*
X141277204Y-104828245D01*
X141309245Y-104894127D01*
X141350756Y-104969132D01*
X141401958Y-105053683D01*
X141462956Y-105148028D01*
X141537363Y-105268642D01*
X141598800Y-105387295D01*
X141648188Y-105506226D01*
X141686450Y-105627672D01*
X141714510Y-105753871D01*
X141715821Y-105761257D01*
X141730917Y-105887265D01*
X141731652Y-106011270D01*
X141718013Y-106133453D01*
X141689988Y-106253994D01*
X141679453Y-106287803D01*
X141662585Y-106335919D01*
X141644368Y-106380822D01*
X141623719Y-106424234D01*
X141599552Y-106467874D01*
X141570783Y-106513462D01*
X141536328Y-106562721D01*
X141495103Y-106617369D01*
X141446022Y-106679127D01*
X141389239Y-106748228D01*
X141339689Y-106808537D01*
X141296402Y-106862659D01*
X141260040Y-106909713D01*
X141231267Y-106948817D01*
X141210744Y-106979093D01*
X141199133Y-106999658D01*
X141197859Y-107002742D01*
X141186871Y-107014937D01*
X141163103Y-107029137D01*
X141128085Y-107044923D01*
X141083346Y-107061871D01*
X141030417Y-107079561D01*
X140970826Y-107097571D01*
X140906104Y-107115479D01*
X140837781Y-107132864D01*
X140767385Y-107149304D01*
X140696448Y-107164377D01*
X140626498Y-107177662D01*
X140559066Y-107188737D01*
X140495681Y-107197182D01*
X140490032Y-107197820D01*
X140460420Y-107200302D01*
X140419258Y-107202627D01*
X140369509Y-107204724D01*
X140314136Y-107206523D01*
X140256103Y-107207956D01*
X140198374Y-107208953D01*
X140143911Y-107209444D01*
X140095678Y-107209359D01*
X140056639Y-107208629D01*
X140046372Y-107208239D01*
X139942783Y-107200606D01*
X139829836Y-107186911D01*
X139711028Y-107167832D01*
X139589856Y-107144045D01*
X139469815Y-107116229D01*
X139354404Y-107085059D01*
X139262600Y-107056450D01*
X139201842Y-107035743D01*
X139154013Y-107018437D01*
X139118058Y-107004064D01*
X139092917Y-106992153D01*
X139077533Y-106982236D01*
X139070847Y-106973843D01*
X139070367Y-106971144D01*
X139065098Y-106949959D01*
X139050397Y-106921186D01*
X139027605Y-106886962D01*
X138998066Y-106849421D01*
X138982635Y-106831686D01*
X138922645Y-106761779D01*
X138864441Y-106688281D01*
X138811810Y-106616077D01*
X138786319Y-106578243D01*
X138744165Y-106513486D01*
X138796554Y-106488229D01*
X138855701Y-106451919D01*
X138906672Y-106403904D01*
X138949554Y-106344057D01*
X138984438Y-106272248D01*
X139011412Y-106188352D01*
X139014879Y-106174307D01*
X139031510Y-106096389D01*
X139042035Y-106026403D01*
X139046981Y-105959371D01*
X139046874Y-105890317D01*
X139046363Y-105877371D01*
X139040545Y-105804296D01*
X139029282Y-105739977D01*
X139011277Y-105679260D01*
X138985229Y-105616993D01*
X138975861Y-105597659D01*
X138934626Y-105527488D01*
X138884060Y-105465047D01*
X138822586Y-105408696D01*
X138748624Y-105356794D01*
X138737432Y-105349940D01*
X138738317Y-105346054D01*
X138743245Y-105335060D01*
X138752635Y-105316156D01*
X138766909Y-105288538D01*
X138786485Y-105251403D01*
X138811785Y-105203946D01*
X138843227Y-105145364D01*
X138880908Y-105075457D01*
X138918622Y-105003555D01*
X138949610Y-104939564D01*
X138975587Y-104879589D01*
X138998270Y-104819735D01*
X139013598Y-104774303D01*
X139023221Y-104744930D01*
X139031279Y-104721187D01*
X139036708Y-104706168D01*
X139038323Y-104702545D01*
X139045403Y-104703984D01*
X139057776Y-104710868D01*
X139076039Y-104720764D01*
X139105181Y-104734123D01*
X139142326Y-104749773D01*
X139184598Y-104766544D01*
X139229120Y-104783264D01*
X139273017Y-104798762D01*
X139276650Y-104799993D01*
X139377898Y-104832340D01*
X139474066Y-104858941D01*
X139568170Y-104880292D01*
X139663226Y-104896885D01*
X139762250Y-104909215D01*
X139868261Y-104917776D01*
X139984273Y-104923061D01*
X140036656Y-104924422D01*
X140121749Y-104925707D01*
X140195835Y-104925561D01*
X140262372Y-104923770D01*
X140324817Y-104920121D01*
X140386625Y-104914402D01*
X140451255Y-104906400D01*
X140522162Y-104895902D01*
X140536229Y-104893671D01*
X140678776Y-104868269D01*
X140807994Y-104839708D01*
X140924773Y-104807741D01*
X141030004Y-104772122D01*
X141124576Y-104732603D01*
X141136388Y-104727045D01*
X141232177Y-104681344D01*
X141240649Y-104722155D01*
X141240649Y-104722155D01*
G37*
X141240649Y-104722155D02*
X141254413Y-104771062D01*
X141277204Y-104828245D01*
X141309245Y-104894127D01*
X141350756Y-104969132D01*
X141401958Y-105053683D01*
X141462956Y-105148028D01*
X141537363Y-105268642D01*
X141598800Y-105387295D01*
X141648188Y-105506226D01*
X141686450Y-105627672D01*
X141714510Y-105753871D01*
X141715821Y-105761257D01*
X141730917Y-105887265D01*
X141731652Y-106011270D01*
X141718013Y-106133453D01*
X141689988Y-106253994D01*
X141679453Y-106287803D01*
X141662585Y-106335919D01*
X141644368Y-106380822D01*
X141623719Y-106424234D01*
X141599552Y-106467874D01*
X141570783Y-106513462D01*
X141536328Y-106562721D01*
X141495103Y-106617369D01*
X141446022Y-106679127D01*
X141389239Y-106748228D01*
X141339689Y-106808537D01*
X141296402Y-106862659D01*
X141260040Y-106909713D01*
X141231267Y-106948817D01*
X141210744Y-106979093D01*
X141199133Y-106999658D01*
X141197859Y-107002742D01*
X141186871Y-107014937D01*
X141163103Y-107029137D01*
X141128085Y-107044923D01*
X141083346Y-107061871D01*
X141030417Y-107079561D01*
X140970826Y-107097571D01*
X140906104Y-107115479D01*
X140837781Y-107132864D01*
X140767385Y-107149304D01*
X140696448Y-107164377D01*
X140626498Y-107177662D01*
X140559066Y-107188737D01*
X140495681Y-107197182D01*
X140490032Y-107197820D01*
X140460420Y-107200302D01*
X140419258Y-107202627D01*
X140369509Y-107204724D01*
X140314136Y-107206523D01*
X140256103Y-107207956D01*
X140198374Y-107208953D01*
X140143911Y-107209444D01*
X140095678Y-107209359D01*
X140056639Y-107208629D01*
X140046372Y-107208239D01*
X139942783Y-107200606D01*
X139829836Y-107186911D01*
X139711028Y-107167832D01*
X139589856Y-107144045D01*
X139469815Y-107116229D01*
X139354404Y-107085059D01*
X139262600Y-107056450D01*
X139201842Y-107035743D01*
X139154013Y-107018437D01*
X139118058Y-107004064D01*
X139092917Y-106992153D01*
X139077533Y-106982236D01*
X139070847Y-106973843D01*
X139070367Y-106971144D01*
X139065098Y-106949959D01*
X139050397Y-106921186D01*
X139027605Y-106886962D01*
X138998066Y-106849421D01*
X138982635Y-106831686D01*
X138922645Y-106761779D01*
X138864441Y-106688281D01*
X138811810Y-106616077D01*
X138786319Y-106578243D01*
X138744165Y-106513486D01*
X138796554Y-106488229D01*
X138855701Y-106451919D01*
X138906672Y-106403904D01*
X138949554Y-106344057D01*
X138984438Y-106272248D01*
X139011412Y-106188352D01*
X139014879Y-106174307D01*
X139031510Y-106096389D01*
X139042035Y-106026403D01*
X139046981Y-105959371D01*
X139046874Y-105890317D01*
X139046363Y-105877371D01*
X139040545Y-105804296D01*
X139029282Y-105739977D01*
X139011277Y-105679260D01*
X138985229Y-105616993D01*
X138975861Y-105597659D01*
X138934626Y-105527488D01*
X138884060Y-105465047D01*
X138822586Y-105408696D01*
X138748624Y-105356794D01*
X138737432Y-105349940D01*
X138738317Y-105346054D01*
X138743245Y-105335060D01*
X138752635Y-105316156D01*
X138766909Y-105288538D01*
X138786485Y-105251403D01*
X138811785Y-105203946D01*
X138843227Y-105145364D01*
X138880908Y-105075457D01*
X138918622Y-105003555D01*
X138949610Y-104939564D01*
X138975587Y-104879589D01*
X138998270Y-104819735D01*
X139013598Y-104774303D01*
X139023221Y-104744930D01*
X139031279Y-104721187D01*
X139036708Y-104706168D01*
X139038323Y-104702545D01*
X139045403Y-104703984D01*
X139057776Y-104710868D01*
X139076039Y-104720764D01*
X139105181Y-104734123D01*
X139142326Y-104749773D01*
X139184598Y-104766544D01*
X139229120Y-104783264D01*
X139273017Y-104798762D01*
X139276650Y-104799993D01*
X139377898Y-104832340D01*
X139474066Y-104858941D01*
X139568170Y-104880292D01*
X139663226Y-104896885D01*
X139762250Y-104909215D01*
X139868261Y-104917776D01*
X139984273Y-104923061D01*
X140036656Y-104924422D01*
X140121749Y-104925707D01*
X140195835Y-104925561D01*
X140262372Y-104923770D01*
X140324817Y-104920121D01*
X140386625Y-104914402D01*
X140451255Y-104906400D01*
X140522162Y-104895902D01*
X140536229Y-104893671D01*
X140678776Y-104868269D01*
X140807994Y-104839708D01*
X140924773Y-104807741D01*
X141030004Y-104772122D01*
X141124576Y-104732603D01*
X141136388Y-104727045D01*
X141232177Y-104681344D01*
X141240649Y-104722155D01*
G36*
X142311308Y-104512292D02*
X142394157Y-104532065D01*
X142401421Y-104534448D01*
X142491680Y-104571980D01*
X142573326Y-104621157D01*
X142646250Y-104681860D01*
X142710341Y-104753973D01*
X142765489Y-104837377D01*
X142811583Y-104931953D01*
X142837611Y-105002312D01*
X142862703Y-105096628D01*
X142876184Y-105192364D01*
X142878060Y-105291234D01*
X142868335Y-105394953D01*
X142847016Y-105505235D01*
X142839291Y-105536286D01*
X142798470Y-105678895D01*
X142753228Y-105808551D01*
X142702971Y-105926300D01*
X142647106Y-106033189D01*
X142585039Y-106130267D01*
X142516175Y-106218580D01*
X142439921Y-106299174D01*
X142372286Y-106359553D01*
X142304214Y-106412645D01*
X142237617Y-106457011D01*
X142169002Y-106494440D01*
X142094875Y-106526721D01*
X142011742Y-106555645D01*
X141958629Y-106571415D01*
X141916939Y-106582626D01*
X141881988Y-106590377D01*
X141848427Y-106595487D01*
X141810905Y-106598778D01*
X141765526Y-106601011D01*
X141724295Y-106602139D01*
X141691522Y-106602050D01*
X141669152Y-106600797D01*
X141659132Y-106598431D01*
X141658896Y-106598156D01*
X141659794Y-106588196D01*
X141667519Y-106572666D01*
X141669298Y-106569976D01*
X141679869Y-106552505D01*
X141694521Y-106525619D01*
X141711348Y-106493125D01*
X141728442Y-106458830D01*
X141743899Y-106426540D01*
X141755811Y-106400064D01*
X141761258Y-106386349D01*
X141766076Y-106374327D01*
X141772481Y-106367515D01*
X141784210Y-106364422D01*
X141805004Y-106363554D01*
X141818551Y-106363493D01*
X141885680Y-106357712D01*
X141958222Y-106341392D01*
X142032946Y-106315654D01*
X142106622Y-106281619D01*
X142176018Y-106240406D01*
X142178763Y-106238553D01*
X142256826Y-106179222D01*
X142327490Y-106111723D01*
X142391922Y-106034618D01*
X142451284Y-105946472D01*
X142506741Y-105845847D01*
X142521515Y-105815686D01*
X142571540Y-105701372D01*
X142609379Y-105592637D01*
X142635428Y-105487821D01*
X142650084Y-105385265D01*
X142653743Y-105283311D01*
X142653237Y-105264143D01*
X142648944Y-105196452D01*
X142640797Y-105139225D01*
X142627885Y-105088711D01*
X142609300Y-105041160D01*
X142589818Y-105002886D01*
X142547496Y-104938284D01*
X142497381Y-104884308D01*
X142438949Y-104839431D01*
X142388228Y-104809949D01*
X142340245Y-104791174D01*
X142289970Y-104781547D01*
X142244992Y-104779388D01*
X142193807Y-104782110D01*
X142144291Y-104790836D01*
X142095004Y-104806341D01*
X142044507Y-104829403D01*
X141991361Y-104860798D01*
X141934125Y-104901304D01*
X141871361Y-104951696D01*
X141801629Y-105012752D01*
X141785683Y-105027260D01*
X141742070Y-105066268D01*
X141702486Y-105099921D01*
X141668091Y-105127353D01*
X141640044Y-105147698D01*
X141619505Y-105160091D01*
X141607634Y-105163666D01*
X141605312Y-105161875D01*
X141600462Y-105153174D01*
X141589098Y-105134912D01*
X141572802Y-105109575D01*
X141553155Y-105079647D01*
X141548378Y-105072450D01*
X141528464Y-105042144D01*
X141511841Y-105016150D01*
X141499995Y-104996846D01*
X141494414Y-104986612D01*
X141494172Y-104985757D01*
X141499792Y-104979541D01*
X141514646Y-104967870D01*
X141535722Y-104953082D01*
X141539529Y-104950543D01*
X141557671Y-104937068D01*
X141584222Y-104915375D01*
X141617090Y-104887272D01*
X141654186Y-104854563D01*
X141693422Y-104819056D01*
X141719143Y-104795275D01*
X141759584Y-104757998D01*
X141800088Y-104721473D01*
X141838352Y-104687719D01*
X141872072Y-104658753D01*
X141898944Y-104636594D01*
X141910626Y-104627551D01*
X141990082Y-104575735D01*
X142069539Y-104538366D01*
X142149337Y-104515378D01*
X142229814Y-104506708D01*
X142311308Y-104512292D01*
X142311308Y-104512292D01*
G37*
X142311308Y-104512292D02*
X142394157Y-104532065D01*
X142401421Y-104534448D01*
X142491680Y-104571980D01*
X142573326Y-104621157D01*
X142646250Y-104681860D01*
X142710341Y-104753973D01*
X142765489Y-104837377D01*
X142811583Y-104931953D01*
X142837611Y-105002312D01*
X142862703Y-105096628D01*
X142876184Y-105192364D01*
X142878060Y-105291234D01*
X142868335Y-105394953D01*
X142847016Y-105505235D01*
X142839291Y-105536286D01*
X142798470Y-105678895D01*
X142753228Y-105808551D01*
X142702971Y-105926300D01*
X142647106Y-106033189D01*
X142585039Y-106130267D01*
X142516175Y-106218580D01*
X142439921Y-106299174D01*
X142372286Y-106359553D01*
X142304214Y-106412645D01*
X142237617Y-106457011D01*
X142169002Y-106494440D01*
X142094875Y-106526721D01*
X142011742Y-106555645D01*
X141958629Y-106571415D01*
X141916939Y-106582626D01*
X141881988Y-106590377D01*
X141848427Y-106595487D01*
X141810905Y-106598778D01*
X141765526Y-106601011D01*
X141724295Y-106602139D01*
X141691522Y-106602050D01*
X141669152Y-106600797D01*
X141659132Y-106598431D01*
X141658896Y-106598156D01*
X141659794Y-106588196D01*
X141667519Y-106572666D01*
X141669298Y-106569976D01*
X141679869Y-106552505D01*
X141694521Y-106525619D01*
X141711348Y-106493125D01*
X141728442Y-106458830D01*
X141743899Y-106426540D01*
X141755811Y-106400064D01*
X141761258Y-106386349D01*
X141766076Y-106374327D01*
X141772481Y-106367515D01*
X141784210Y-106364422D01*
X141805004Y-106363554D01*
X141818551Y-106363493D01*
X141885680Y-106357712D01*
X141958222Y-106341392D01*
X142032946Y-106315654D01*
X142106622Y-106281619D01*
X142176018Y-106240406D01*
X142178763Y-106238553D01*
X142256826Y-106179222D01*
X142327490Y-106111723D01*
X142391922Y-106034618D01*
X142451284Y-105946472D01*
X142506741Y-105845847D01*
X142521515Y-105815686D01*
X142571540Y-105701372D01*
X142609379Y-105592637D01*
X142635428Y-105487821D01*
X142650084Y-105385265D01*
X142653743Y-105283311D01*
X142653237Y-105264143D01*
X142648944Y-105196452D01*
X142640797Y-105139225D01*
X142627885Y-105088711D01*
X142609300Y-105041160D01*
X142589818Y-105002886D01*
X142547496Y-104938284D01*
X142497381Y-104884308D01*
X142438949Y-104839431D01*
X142388228Y-104809949D01*
X142340245Y-104791174D01*
X142289970Y-104781547D01*
X142244992Y-104779388D01*
X142193807Y-104782110D01*
X142144291Y-104790836D01*
X142095004Y-104806341D01*
X142044507Y-104829403D01*
X141991361Y-104860798D01*
X141934125Y-104901304D01*
X141871361Y-104951696D01*
X141801629Y-105012752D01*
X141785683Y-105027260D01*
X141742070Y-105066268D01*
X141702486Y-105099921D01*
X141668091Y-105127353D01*
X141640044Y-105147698D01*
X141619505Y-105160091D01*
X141607634Y-105163666D01*
X141605312Y-105161875D01*
X141600462Y-105153174D01*
X141589098Y-105134912D01*
X141572802Y-105109575D01*
X141553155Y-105079647D01*
X141548378Y-105072450D01*
X141528464Y-105042144D01*
X141511841Y-105016150D01*
X141499995Y-104996846D01*
X141494414Y-104986612D01*
X141494172Y-104985757D01*
X141499792Y-104979541D01*
X141514646Y-104967870D01*
X141535722Y-104953082D01*
X141539529Y-104950543D01*
X141557671Y-104937068D01*
X141584222Y-104915375D01*
X141617090Y-104887272D01*
X141654186Y-104854563D01*
X141693422Y-104819056D01*
X141719143Y-104795275D01*
X141759584Y-104757998D01*
X141800088Y-104721473D01*
X141838352Y-104687719D01*
X141872072Y-104658753D01*
X141898944Y-104636594D01*
X141910626Y-104627551D01*
X141990082Y-104575735D01*
X142069539Y-104538366D01*
X142149337Y-104515378D01*
X142229814Y-104506708D01*
X142311308Y-104512292D01*
G36*
X137731717Y-104966326D02*
X137755921Y-104979332D01*
X137785658Y-104997627D01*
X137818953Y-105020005D01*
X137853833Y-105045256D01*
X137884829Y-105069345D01*
X137929183Y-105106650D01*
X137969253Y-105144109D01*
X138007795Y-105184659D01*
X138047565Y-105231234D01*
X138091321Y-105286772D01*
X138101458Y-105300091D01*
X138127687Y-105334255D01*
X138153953Y-105367644D01*
X138177585Y-105396917D01*
X138195914Y-105418734D01*
X138199429Y-105422714D01*
X138253836Y-105474793D01*
X138310862Y-105513273D01*
X138369691Y-105538051D01*
X138429505Y-105549026D01*
X138489488Y-105546096D01*
X138548824Y-105529159D01*
X138606696Y-105498112D01*
X138635009Y-105477118D01*
X138674827Y-105444686D01*
X138705389Y-105464004D01*
X138774166Y-105515389D01*
X138831028Y-105575018D01*
X138875943Y-105642801D01*
X138908878Y-105718647D01*
X138929801Y-105802466D01*
X138938679Y-105894168D01*
X138935480Y-105993661D01*
X138924664Y-106076125D01*
X138907165Y-106157397D01*
X138884257Y-106226145D01*
X138855317Y-106283548D01*
X138819724Y-106330785D01*
X138776856Y-106369034D01*
X138766035Y-106376595D01*
X138737493Y-106393177D01*
X138707373Y-106406820D01*
X138685409Y-106413775D01*
X138651979Y-106418364D01*
X138610028Y-106420437D01*
X138565328Y-106419977D01*
X138523656Y-106416971D01*
X138504229Y-106414245D01*
X138436009Y-106396562D01*
X138363727Y-106367406D01*
X138289713Y-106328333D01*
X138216296Y-106280903D01*
X138145805Y-106226673D01*
X138080569Y-106167200D01*
X138022917Y-106104043D01*
X138003330Y-106079199D01*
X137961234Y-106020100D01*
X137925772Y-105962509D01*
X137895436Y-105903181D01*
X137868716Y-105838870D01*
X137844105Y-105766330D01*
X137821798Y-105688686D01*
X137796775Y-105598578D01*
X137773367Y-105521377D01*
X137750764Y-105455677D01*
X137728161Y-105400073D01*
X137704749Y-105353160D01*
X137679721Y-105313534D01*
X137652270Y-105279789D01*
X137621587Y-105250521D01*
X137586867Y-105224324D01*
X137547300Y-105199794D01*
X137537703Y-105194392D01*
X137505144Y-105176294D01*
X137465779Y-105154346D01*
X137425457Y-105131811D01*
X137401143Y-105118192D01*
X137324943Y-105075457D01*
X137426543Y-105070862D01*
X137466666Y-105068517D01*
X137504486Y-105065356D01*
X137536177Y-105061760D01*
X137557915Y-105058114D01*
X137560617Y-105057443D01*
X137603096Y-105042773D01*
X137641978Y-105023543D01*
X137674450Y-105001598D01*
X137697698Y-104978781D01*
X137707804Y-104961017D01*
X137715020Y-104959819D01*
X137731717Y-104966326D01*
X137731717Y-104966326D01*
G37*
X137731717Y-104966326D02*
X137755921Y-104979332D01*
X137785658Y-104997627D01*
X137818953Y-105020005D01*
X137853833Y-105045256D01*
X137884829Y-105069345D01*
X137929183Y-105106650D01*
X137969253Y-105144109D01*
X138007795Y-105184659D01*
X138047565Y-105231234D01*
X138091321Y-105286772D01*
X138101458Y-105300091D01*
X138127687Y-105334255D01*
X138153953Y-105367644D01*
X138177585Y-105396917D01*
X138195914Y-105418734D01*
X138199429Y-105422714D01*
X138253836Y-105474793D01*
X138310862Y-105513273D01*
X138369691Y-105538051D01*
X138429505Y-105549026D01*
X138489488Y-105546096D01*
X138548824Y-105529159D01*
X138606696Y-105498112D01*
X138635009Y-105477118D01*
X138674827Y-105444686D01*
X138705389Y-105464004D01*
X138774166Y-105515389D01*
X138831028Y-105575018D01*
X138875943Y-105642801D01*
X138908878Y-105718647D01*
X138929801Y-105802466D01*
X138938679Y-105894168D01*
X138935480Y-105993661D01*
X138924664Y-106076125D01*
X138907165Y-106157397D01*
X138884257Y-106226145D01*
X138855317Y-106283548D01*
X138819724Y-106330785D01*
X138776856Y-106369034D01*
X138766035Y-106376595D01*
X138737493Y-106393177D01*
X138707373Y-106406820D01*
X138685409Y-106413775D01*
X138651979Y-106418364D01*
X138610028Y-106420437D01*
X138565328Y-106419977D01*
X138523656Y-106416971D01*
X138504229Y-106414245D01*
X138436009Y-106396562D01*
X138363727Y-106367406D01*
X138289713Y-106328333D01*
X138216296Y-106280903D01*
X138145805Y-106226673D01*
X138080569Y-106167200D01*
X138022917Y-106104043D01*
X138003330Y-106079199D01*
X137961234Y-106020100D01*
X137925772Y-105962509D01*
X137895436Y-105903181D01*
X137868716Y-105838870D01*
X137844105Y-105766330D01*
X137821798Y-105688686D01*
X137796775Y-105598578D01*
X137773367Y-105521377D01*
X137750764Y-105455677D01*
X137728161Y-105400073D01*
X137704749Y-105353160D01*
X137679721Y-105313534D01*
X137652270Y-105279789D01*
X137621587Y-105250521D01*
X137586867Y-105224324D01*
X137547300Y-105199794D01*
X137537703Y-105194392D01*
X137505144Y-105176294D01*
X137465779Y-105154346D01*
X137425457Y-105131811D01*
X137401143Y-105118192D01*
X137324943Y-105075457D01*
X137426543Y-105070862D01*
X137466666Y-105068517D01*
X137504486Y-105065356D01*
X137536177Y-105061760D01*
X137557915Y-105058114D01*
X137560617Y-105057443D01*
X137603096Y-105042773D01*
X137641978Y-105023543D01*
X137674450Y-105001598D01*
X137697698Y-104978781D01*
X137707804Y-104961017D01*
X137715020Y-104959819D01*
X137731717Y-104966326D01*
G36*
X137514059Y-104906648D02*
X137556660Y-104915267D01*
X137578498Y-104922298D01*
X137589311Y-104928257D01*
X137588433Y-104934237D01*
X137575199Y-104941330D01*
X137548943Y-104950629D01*
X137531772Y-104956118D01*
X137504260Y-104962741D01*
X137468962Y-104968387D01*
X137430135Y-104972690D01*
X137392035Y-104975284D01*
X137358921Y-104975802D01*
X137335049Y-104973878D01*
X137332200Y-104973278D01*
X137295081Y-104963928D01*
X137270991Y-104956709D01*
X137258748Y-104950817D01*
X137257166Y-104945450D01*
X137265061Y-104939804D01*
X137275958Y-104935112D01*
X137332129Y-104917830D01*
X137393579Y-104907110D01*
X137455744Y-104903276D01*
X137514059Y-104906648D01*
X137514059Y-104906648D01*
G37*
X137514059Y-104906648D02*
X137556660Y-104915267D01*
X137578498Y-104922298D01*
X137589311Y-104928257D01*
X137588433Y-104934237D01*
X137575199Y-104941330D01*
X137548943Y-104950629D01*
X137531772Y-104956118D01*
X137504260Y-104962741D01*
X137468962Y-104968387D01*
X137430135Y-104972690D01*
X137392035Y-104975284D01*
X137358921Y-104975802D01*
X137335049Y-104973878D01*
X137332200Y-104973278D01*
X137295081Y-104963928D01*
X137270991Y-104956709D01*
X137258748Y-104950817D01*
X137257166Y-104945450D01*
X137265061Y-104939804D01*
X137275958Y-104935112D01*
X137332129Y-104917830D01*
X137393579Y-104907110D01*
X137455744Y-104903276D01*
X137514059Y-104906648D01*
G36*
X139017882Y-104444752D02*
X139053626Y-104455705D01*
X139099937Y-104474454D01*
X139137118Y-104491306D01*
X139238825Y-104536799D01*
X139333898Y-104574772D01*
X139427007Y-104606811D01*
X139522819Y-104634500D01*
X139626006Y-104659425D01*
X139643600Y-104663282D01*
X139678370Y-104670742D01*
X139707500Y-104676642D01*
X139733429Y-104681197D01*
X139758593Y-104684620D01*
X139785428Y-104687126D01*
X139816370Y-104688931D01*
X139853857Y-104690248D01*
X139900325Y-104691291D01*
X139958211Y-104692277D01*
X139976131Y-104692561D01*
X140047507Y-104693265D01*
X140117144Y-104693160D01*
X140182067Y-104692289D01*
X140239301Y-104690698D01*
X140285870Y-104688433D01*
X140296940Y-104687658D01*
X140452052Y-104670175D01*
X140612231Y-104641423D01*
X140774434Y-104602171D01*
X140935617Y-104553187D01*
X141092736Y-104495239D01*
X141144658Y-104473646D01*
X141174182Y-104461931D01*
X141200930Y-104452970D01*
X141220550Y-104448162D01*
X141225322Y-104447714D01*
X141244168Y-104451928D01*
X141263475Y-104462326D01*
X141278295Y-104475543D01*
X141283715Y-104487427D01*
X141277728Y-104499952D01*
X141261300Y-104517621D01*
X141236730Y-104538626D01*
X141206316Y-104561156D01*
X141172356Y-104583401D01*
X141137149Y-104603551D01*
X141134463Y-104604958D01*
X141073980Y-104634908D01*
X141014043Y-104661220D01*
X140952155Y-104684704D01*
X140885818Y-104706165D01*
X140812534Y-104726411D01*
X140729805Y-104746251D01*
X140635134Y-104766491D01*
X140634200Y-104766681D01*
X140522961Y-104786631D01*
X140406507Y-104802482D01*
X140288316Y-104813985D01*
X140171865Y-104820893D01*
X140060631Y-104822957D01*
X139958091Y-104819929D01*
X139923000Y-104817464D01*
X139796175Y-104804982D01*
X139680451Y-104789204D01*
X139572654Y-104769440D01*
X139469608Y-104744999D01*
X139368135Y-104715189D01*
X139265059Y-104679318D01*
X139234036Y-104667538D01*
X139162940Y-104637898D01*
X139101152Y-104607698D01*
X139049542Y-104577545D01*
X139008979Y-104548045D01*
X138980332Y-104519805D01*
X138964471Y-104493431D01*
X138961429Y-104477379D01*
X138964479Y-104457908D01*
X138974266Y-104445929D01*
X138991748Y-104441518D01*
X139017882Y-104444752D01*
X139017882Y-104444752D01*
G37*
X139017882Y-104444752D02*
X139053626Y-104455705D01*
X139099937Y-104474454D01*
X139137118Y-104491306D01*
X139238825Y-104536799D01*
X139333898Y-104574772D01*
X139427007Y-104606811D01*
X139522819Y-104634500D01*
X139626006Y-104659425D01*
X139643600Y-104663282D01*
X139678370Y-104670742D01*
X139707500Y-104676642D01*
X139733429Y-104681197D01*
X139758593Y-104684620D01*
X139785428Y-104687126D01*
X139816370Y-104688931D01*
X139853857Y-104690248D01*
X139900325Y-104691291D01*
X139958211Y-104692277D01*
X139976131Y-104692561D01*
X140047507Y-104693265D01*
X140117144Y-104693160D01*
X140182067Y-104692289D01*
X140239301Y-104690698D01*
X140285870Y-104688433D01*
X140296940Y-104687658D01*
X140452052Y-104670175D01*
X140612231Y-104641423D01*
X140774434Y-104602171D01*
X140935617Y-104553187D01*
X141092736Y-104495239D01*
X141144658Y-104473646D01*
X141174182Y-104461931D01*
X141200930Y-104452970D01*
X141220550Y-104448162D01*
X141225322Y-104447714D01*
X141244168Y-104451928D01*
X141263475Y-104462326D01*
X141278295Y-104475543D01*
X141283715Y-104487427D01*
X141277728Y-104499952D01*
X141261300Y-104517621D01*
X141236730Y-104538626D01*
X141206316Y-104561156D01*
X141172356Y-104583401D01*
X141137149Y-104603551D01*
X141134463Y-104604958D01*
X141073980Y-104634908D01*
X141014043Y-104661220D01*
X140952155Y-104684704D01*
X140885818Y-104706165D01*
X140812534Y-104726411D01*
X140729805Y-104746251D01*
X140635134Y-104766491D01*
X140634200Y-104766681D01*
X140522961Y-104786631D01*
X140406507Y-104802482D01*
X140288316Y-104813985D01*
X140171865Y-104820893D01*
X140060631Y-104822957D01*
X139958091Y-104819929D01*
X139923000Y-104817464D01*
X139796175Y-104804982D01*
X139680451Y-104789204D01*
X139572654Y-104769440D01*
X139469608Y-104744999D01*
X139368135Y-104715189D01*
X139265059Y-104679318D01*
X139234036Y-104667538D01*
X139162940Y-104637898D01*
X139101152Y-104607698D01*
X139049542Y-104577545D01*
X139008979Y-104548045D01*
X138980332Y-104519805D01*
X138964471Y-104493431D01*
X138961429Y-104477379D01*
X138964479Y-104457908D01*
X138974266Y-104445929D01*
X138991748Y-104441518D01*
X139017882Y-104444752D01*
G36*
X140495345Y-103845032D02*
X140603269Y-103886319D01*
X140706755Y-103937929D01*
X140803636Y-103998453D01*
X140891750Y-104066485D01*
X140968929Y-104140617D01*
X140994378Y-104169425D01*
X141018365Y-104198964D01*
X141043241Y-104231394D01*
X141067377Y-104264371D01*
X141089142Y-104295556D01*
X141106905Y-104322607D01*
X141119037Y-104343182D01*
X141123907Y-104354941D01*
X141123934Y-104355466D01*
X141121267Y-104360261D01*
X141112436Y-104366461D01*
X141096011Y-104374710D01*
X141070563Y-104385650D01*
X141034661Y-104399922D01*
X140986878Y-104418170D01*
X140971658Y-104423898D01*
X140895651Y-104450595D01*
X140811589Y-104476922D01*
X140723184Y-104501922D01*
X140634144Y-104524634D01*
X140548180Y-104544100D01*
X140469003Y-104559359D01*
X140416486Y-104567443D01*
X140372573Y-104572403D01*
X140319693Y-104576984D01*
X140260285Y-104581096D01*
X140196788Y-104584652D01*
X140131641Y-104587565D01*
X140067284Y-104589745D01*
X140006157Y-104591106D01*
X139950698Y-104591559D01*
X139903348Y-104591017D01*
X139866545Y-104589391D01*
X139850429Y-104587844D01*
X139674731Y-104558258D01*
X139506453Y-104516283D01*
X139345696Y-104461949D01*
X139262600Y-104427720D01*
X139212859Y-104405534D01*
X139175610Y-104388087D01*
X139149820Y-104374841D01*
X139134460Y-104365261D01*
X139128499Y-104358810D01*
X139128343Y-104357874D01*
X139132255Y-104348086D01*
X139142733Y-104329456D01*
X139157886Y-104304938D01*
X139175827Y-104277489D01*
X139194665Y-104250063D01*
X139212512Y-104225617D01*
X139214715Y-104222743D01*
X139230751Y-104203324D01*
X139253428Y-104177607D01*
X139279167Y-104149595D01*
X139294799Y-104133138D01*
X139376359Y-104055811D01*
X139461620Y-103989930D01*
X139553067Y-103933960D01*
X139653185Y-103886367D01*
X139756086Y-103848334D01*
X139788537Y-103837860D01*
X139810184Y-103831638D01*
X139823986Y-103829311D01*
X139832902Y-103830522D01*
X139839890Y-103834912D01*
X139843172Y-103837810D01*
X139866167Y-103854144D01*
X139898848Y-103871438D01*
X139936691Y-103887687D01*
X139975175Y-103900887D01*
X139999659Y-103907153D01*
X140054347Y-103915120D01*
X140114229Y-103917854D01*
X140175171Y-103915613D01*
X140233040Y-103908653D01*
X140283701Y-103897231D01*
X140309996Y-103887886D01*
X140333507Y-103876293D01*
X140361647Y-103860300D01*
X140381598Y-103847754D01*
X140421804Y-103821067D01*
X140495345Y-103845032D01*
X140495345Y-103845032D01*
G37*
X140495345Y-103845032D02*
X140603269Y-103886319D01*
X140706755Y-103937929D01*
X140803636Y-103998453D01*
X140891750Y-104066485D01*
X140968929Y-104140617D01*
X140994378Y-104169425D01*
X141018365Y-104198964D01*
X141043241Y-104231394D01*
X141067377Y-104264371D01*
X141089142Y-104295556D01*
X141106905Y-104322607D01*
X141119037Y-104343182D01*
X141123907Y-104354941D01*
X141123934Y-104355466D01*
X141121267Y-104360261D01*
X141112436Y-104366461D01*
X141096011Y-104374710D01*
X141070563Y-104385650D01*
X141034661Y-104399922D01*
X140986878Y-104418170D01*
X140971658Y-104423898D01*
X140895651Y-104450595D01*
X140811589Y-104476922D01*
X140723184Y-104501922D01*
X140634144Y-104524634D01*
X140548180Y-104544100D01*
X140469003Y-104559359D01*
X140416486Y-104567443D01*
X140372573Y-104572403D01*
X140319693Y-104576984D01*
X140260285Y-104581096D01*
X140196788Y-104584652D01*
X140131641Y-104587565D01*
X140067284Y-104589745D01*
X140006157Y-104591106D01*
X139950698Y-104591559D01*
X139903348Y-104591017D01*
X139866545Y-104589391D01*
X139850429Y-104587844D01*
X139674731Y-104558258D01*
X139506453Y-104516283D01*
X139345696Y-104461949D01*
X139262600Y-104427720D01*
X139212859Y-104405534D01*
X139175610Y-104388087D01*
X139149820Y-104374841D01*
X139134460Y-104365261D01*
X139128499Y-104358810D01*
X139128343Y-104357874D01*
X139132255Y-104348086D01*
X139142733Y-104329456D01*
X139157886Y-104304938D01*
X139175827Y-104277489D01*
X139194665Y-104250063D01*
X139212512Y-104225617D01*
X139214715Y-104222743D01*
X139230751Y-104203324D01*
X139253428Y-104177607D01*
X139279167Y-104149595D01*
X139294799Y-104133138D01*
X139376359Y-104055811D01*
X139461620Y-103989930D01*
X139553067Y-103933960D01*
X139653185Y-103886367D01*
X139756086Y-103848334D01*
X139788537Y-103837860D01*
X139810184Y-103831638D01*
X139823986Y-103829311D01*
X139832902Y-103830522D01*
X139839890Y-103834912D01*
X139843172Y-103837810D01*
X139866167Y-103854144D01*
X139898848Y-103871438D01*
X139936691Y-103887687D01*
X139975175Y-103900887D01*
X139999659Y-103907153D01*
X140054347Y-103915120D01*
X140114229Y-103917854D01*
X140175171Y-103915613D01*
X140233040Y-103908653D01*
X140283701Y-103897231D01*
X140309996Y-103887886D01*
X140333507Y-103876293D01*
X140361647Y-103860300D01*
X140381598Y-103847754D01*
X140421804Y-103821067D01*
X140495345Y-103845032D01*
G36*
X140194892Y-103576332D02*
X140243620Y-103600741D01*
X140247702Y-103603503D01*
X140272843Y-103625513D01*
X140295252Y-103653461D01*
X140313288Y-103684112D01*
X140325308Y-103714231D01*
X140329672Y-103740583D01*
X140326027Y-103757808D01*
X140313349Y-103770684D01*
X140290119Y-103785067D01*
X140259957Y-103799329D01*
X140226481Y-103811837D01*
X140193309Y-103820960D01*
X140180629Y-103823345D01*
X140144585Y-103828207D01*
X140115206Y-103829657D01*
X140086087Y-103827534D01*
X140050825Y-103821679D01*
X140041506Y-103819854D01*
X140006648Y-103811910D01*
X139980432Y-103802818D01*
X139957043Y-103790120D01*
X139935700Y-103775148D01*
X139919169Y-103758606D01*
X139912715Y-103739459D01*
X139916208Y-103715044D01*
X139929519Y-103682697D01*
X139931062Y-103679571D01*
X139960645Y-103635279D01*
X139998915Y-103601117D01*
X140043673Y-103577613D01*
X140092720Y-103565296D01*
X140143859Y-103564693D01*
X140194892Y-103576332D01*
X140194892Y-103576332D01*
G37*
X140194892Y-103576332D02*
X140243620Y-103600741D01*
X140247702Y-103603503D01*
X140272843Y-103625513D01*
X140295252Y-103653461D01*
X140313288Y-103684112D01*
X140325308Y-103714231D01*
X140329672Y-103740583D01*
X140326027Y-103757808D01*
X140313349Y-103770684D01*
X140290119Y-103785067D01*
X140259957Y-103799329D01*
X140226481Y-103811837D01*
X140193309Y-103820960D01*
X140180629Y-103823345D01*
X140144585Y-103828207D01*
X140115206Y-103829657D01*
X140086087Y-103827534D01*
X140050825Y-103821679D01*
X140041506Y-103819854D01*
X140006648Y-103811910D01*
X139980432Y-103802818D01*
X139957043Y-103790120D01*
X139935700Y-103775148D01*
X139919169Y-103758606D01*
X139912715Y-103739459D01*
X139916208Y-103715044D01*
X139929519Y-103682697D01*
X139931062Y-103679571D01*
X139960645Y-103635279D01*
X139998915Y-103601117D01*
X140043673Y-103577613D01*
X140092720Y-103565296D01*
X140143859Y-103564693D01*
X140194892Y-103576332D01*
D12*
X133485715Y-115702381D02*
X133152381Y-115226190D01*
X132914286Y-115702381D02*
X132914286Y-114702381D01*
X133295239Y-114702381D01*
X133390477Y-114750000D01*
X133438096Y-114797619D01*
X133485715Y-114892857D01*
X133485715Y-115035714D01*
X133438096Y-115130952D01*
X133390477Y-115178571D01*
X133295239Y-115226190D01*
X132914286Y-115226190D01*
X134247620Y-115178571D02*
X133914286Y-115178571D01*
X133914286Y-115702381D02*
X133914286Y-114702381D01*
X134390477Y-114702381D01*
X134771429Y-115702381D02*
X134771429Y-114702381D01*
X135104763Y-115416667D01*
X135438096Y-114702381D01*
X135438096Y-115702381D01*
X136342858Y-114702381D02*
X136152381Y-114702381D01*
X136057143Y-114750000D01*
X136009524Y-114797619D01*
X135914286Y-114940476D01*
X135866667Y-115130952D01*
X135866667Y-115511905D01*
X135914286Y-115607143D01*
X135961905Y-115654762D01*
X136057143Y-115702381D01*
X136247620Y-115702381D01*
X136342858Y-115654762D01*
X136390477Y-115607143D01*
X136438096Y-115511905D01*
X136438096Y-115273810D01*
X136390477Y-115178571D01*
X136342858Y-115130952D01*
X136247620Y-115083333D01*
X136057143Y-115083333D01*
X135961905Y-115130952D01*
X135914286Y-115178571D01*
X135866667Y-115273810D01*
X136914286Y-115702381D02*
X137104762Y-115702381D01*
X137200001Y-115654762D01*
X137247620Y-115607143D01*
X137342858Y-115464286D01*
X137390477Y-115273810D01*
X137390477Y-114892857D01*
X137342858Y-114797619D01*
X137295239Y-114750000D01*
X137200001Y-114702381D01*
X137009524Y-114702381D01*
X136914286Y-114750000D01*
X136866667Y-114797619D01*
X136819048Y-114892857D01*
X136819048Y-115130952D01*
X136866667Y-115226190D01*
X136914286Y-115273810D01*
X137009524Y-115321429D01*
X137200001Y-115321429D01*
X137295239Y-115273810D01*
X137342858Y-115226190D01*
X137390477Y-115130952D01*
X137723810Y-114702381D02*
X137961905Y-115702381D01*
X138152382Y-114988095D01*
X138342858Y-115702381D01*
X138580953Y-114702381D01*
X136857143Y-131666667D02*
X137333334Y-131666667D01*
X136761905Y-131952381D02*
X137095238Y-130952381D01*
X137428572Y-131952381D01*
X137761905Y-131952381D02*
X137761905Y-130952381D01*
X138333334Y-131952381D01*
X138333334Y-130952381D01*
X138666667Y-130952381D02*
X139238096Y-130952381D01*
X138952381Y-131952381D02*
X138952381Y-130952381D01*
X118459524Y-92002381D02*
X119078572Y-92002381D01*
X118745238Y-92383333D01*
X118888096Y-92383333D01*
X118983334Y-92430952D01*
X119030953Y-92478571D01*
X119078572Y-92573810D01*
X119078572Y-92811905D01*
X119030953Y-92907143D01*
X118983334Y-92954762D01*
X118888096Y-93002381D01*
X118602381Y-93002381D01*
X118507143Y-92954762D01*
X118459524Y-92907143D01*
X119411905Y-92335714D02*
X119650000Y-93002381D01*
X119888096Y-92335714D01*
X120173810Y-92002381D02*
X120792858Y-92002381D01*
X120459524Y-92383333D01*
X120602382Y-92383333D01*
X120697620Y-92430952D01*
X120745239Y-92478571D01*
X120792858Y-92573810D01*
X120792858Y-92811905D01*
X120745239Y-92907143D01*
X120697620Y-92954762D01*
X120602382Y-93002381D01*
X120316667Y-93002381D01*
X120221429Y-92954762D01*
X120173810Y-92907143D01*
X122188096Y-92050000D02*
X122092858Y-92002381D01*
X121950001Y-92002381D01*
X121807143Y-92050000D01*
X121711905Y-92145238D01*
X121664286Y-92240476D01*
X121616667Y-92430952D01*
X121616667Y-92573810D01*
X121664286Y-92764286D01*
X121711905Y-92859524D01*
X121807143Y-92954762D01*
X121950001Y-93002381D01*
X122045239Y-93002381D01*
X122188096Y-92954762D01*
X122235715Y-92907143D01*
X122235715Y-92573810D01*
X122045239Y-92573810D01*
X122664286Y-93002381D02*
X122664286Y-92002381D01*
X123235715Y-93002381D01*
X123235715Y-92002381D01*
X123711905Y-93002381D02*
X123711905Y-92002381D01*
X123950000Y-92002381D01*
X124092858Y-92050000D01*
X124188096Y-92145238D01*
X124235715Y-92240476D01*
X124283334Y-92430952D01*
X124283334Y-92573810D01*
X124235715Y-92764286D01*
X124188096Y-92859524D01*
X124092858Y-92954762D01*
X123950000Y-93002381D01*
X123711905Y-93002381D01*
X127514286Y-107054762D02*
X127657143Y-107102381D01*
X127895239Y-107102381D01*
X127990477Y-107054762D01*
X128038096Y-107007143D01*
X128085715Y-106911905D01*
X128085715Y-106816667D01*
X128038096Y-106721429D01*
X127990477Y-106673810D01*
X127895239Y-106626190D01*
X127704762Y-106578571D01*
X127609524Y-106530952D01*
X127561905Y-106483333D01*
X127514286Y-106388095D01*
X127514286Y-106292857D01*
X127561905Y-106197619D01*
X127609524Y-106150000D01*
X127704762Y-106102381D01*
X127942858Y-106102381D01*
X128085715Y-106150000D01*
X129085715Y-107007143D02*
X129038096Y-107054762D01*
X128895239Y-107102381D01*
X128800001Y-107102381D01*
X128657143Y-107054762D01*
X128561905Y-106959524D01*
X128514286Y-106864286D01*
X128466667Y-106673810D01*
X128466667Y-106530952D01*
X128514286Y-106340476D01*
X128561905Y-106245238D01*
X128657143Y-106150000D01*
X128800001Y-106102381D01*
X128895239Y-106102381D01*
X129038096Y-106150000D01*
X129085715Y-106197619D01*
X129514286Y-107102381D02*
X129514286Y-106102381D01*
X130085715Y-107102381D02*
X129657143Y-106530952D01*
X130085715Y-106102381D02*
X129514286Y-106673810D01*
X127535714Y-105654762D02*
X127678571Y-105702381D01*
X127916667Y-105702381D01*
X128011905Y-105654762D01*
X128059524Y-105607143D01*
X128107143Y-105511905D01*
X128107143Y-105416667D01*
X128059524Y-105321429D01*
X128011905Y-105273810D01*
X127916667Y-105226190D01*
X127726190Y-105178571D01*
X127630952Y-105130952D01*
X127583333Y-105083333D01*
X127535714Y-104988095D01*
X127535714Y-104892857D01*
X127583333Y-104797619D01*
X127630952Y-104750000D01*
X127726190Y-104702381D01*
X127964286Y-104702381D01*
X128107143Y-104750000D01*
X128535714Y-105702381D02*
X128535714Y-104702381D01*
X128773809Y-104702381D01*
X128916667Y-104750000D01*
X129011905Y-104845238D01*
X129059524Y-104940476D01*
X129107143Y-105130952D01*
X129107143Y-105273810D01*
X129059524Y-105464286D01*
X129011905Y-105559524D01*
X128916667Y-105654762D01*
X128773809Y-105702381D01*
X128535714Y-105702381D01*
X129488095Y-105416667D02*
X129964286Y-105416667D01*
X129392857Y-105702381D02*
X129726190Y-104702381D01*
X130059524Y-105702381D01*
M02*
