G04 #@! TF.FileFunction,Legend,Top*
%FSLAX46Y46*%
G04 Gerber Fmt 4.6, Leading zero omitted, Abs format (unit mm)*
G04 Created by KiCad (PCBNEW 0.201509071501+6164~29~ubuntu14.04.1-product) date Thu 07 Jan 2016 13:16:16 GMT*
%MOMM*%
G01*
G04 APERTURE LIST*
%ADD10C,0.100000*%
%ADD11C,3.000000*%
%ADD12C,0.150000*%
%ADD13C,0.200000*%
%ADD14C,0.010000*%
G04 APERTURE END LIST*
D10*
D11*
X132150000Y-106100000D02*
X135400000Y-106100000D01*
D12*
X113140476Y-99252381D02*
X113140476Y-98252381D01*
X113521429Y-98252381D01*
X113616667Y-98300000D01*
X113664286Y-98347619D01*
X113711905Y-98442857D01*
X113711905Y-98585714D01*
X113664286Y-98680952D01*
X113616667Y-98728571D01*
X113521429Y-98776190D01*
X113140476Y-98776190D01*
X114330952Y-98252381D02*
X114521429Y-98252381D01*
X114616667Y-98300000D01*
X114711905Y-98395238D01*
X114759524Y-98585714D01*
X114759524Y-98919048D01*
X114711905Y-99109524D01*
X114616667Y-99204762D01*
X114521429Y-99252381D01*
X114330952Y-99252381D01*
X114235714Y-99204762D01*
X114140476Y-99109524D01*
X114092857Y-98919048D01*
X114092857Y-98585714D01*
X114140476Y-98395238D01*
X114235714Y-98300000D01*
X114330952Y-98252381D01*
X115092857Y-98252381D02*
X115330952Y-99252381D01*
X115521429Y-98538095D01*
X115711905Y-99252381D01*
X115950000Y-98252381D01*
X116330952Y-98728571D02*
X116664286Y-98728571D01*
X116807143Y-99252381D02*
X116330952Y-99252381D01*
X116330952Y-98252381D01*
X116807143Y-98252381D01*
X117807143Y-99252381D02*
X117473809Y-98776190D01*
X117235714Y-99252381D02*
X117235714Y-98252381D01*
X117616667Y-98252381D01*
X117711905Y-98300000D01*
X117759524Y-98347619D01*
X117807143Y-98442857D01*
X117807143Y-98585714D01*
X117759524Y-98680952D01*
X117711905Y-98728571D01*
X117616667Y-98776190D01*
X117235714Y-98776190D01*
D13*
X150678571Y-124521428D02*
X149178571Y-124521428D01*
X150607143Y-124521428D02*
X150678571Y-124664285D01*
X150678571Y-124949999D01*
X150607143Y-125092857D01*
X150535714Y-125164285D01*
X150392857Y-125235714D01*
X149964286Y-125235714D01*
X149821429Y-125164285D01*
X149750000Y-125092857D01*
X149678571Y-124949999D01*
X149678571Y-124664285D01*
X149750000Y-124521428D01*
X149678571Y-123949999D02*
X150678571Y-123664285D01*
X149964286Y-123378571D01*
X150678571Y-123092856D01*
X149678571Y-122807142D01*
X149678571Y-122449999D02*
X149678571Y-121878570D01*
X149178571Y-122235713D02*
X150464286Y-122235713D01*
X150607143Y-122164285D01*
X150678571Y-122021427D01*
X150678571Y-121878570D01*
X149321429Y-121449999D02*
X149250000Y-121378570D01*
X149178571Y-121235713D01*
X149178571Y-120878570D01*
X149250000Y-120735713D01*
X149321429Y-120664284D01*
X149464286Y-120592856D01*
X149607143Y-120592856D01*
X149821429Y-120664284D01*
X150678571Y-121521427D01*
X150678571Y-120592856D01*
X149178571Y-120092856D02*
X149178571Y-119092856D01*
X150678571Y-119735713D01*
X147121429Y-131035713D02*
X147050000Y-130964284D01*
X146978571Y-130821427D01*
X146978571Y-130464284D01*
X147050000Y-130321427D01*
X147121429Y-130249998D01*
X147264286Y-130178570D01*
X147407143Y-130178570D01*
X147621429Y-130249998D01*
X148478571Y-131107141D01*
X148478571Y-130178570D01*
X146978571Y-129249999D02*
X146978571Y-129107142D01*
X147050000Y-128964285D01*
X147121429Y-128892856D01*
X147264286Y-128821427D01*
X147550000Y-128749999D01*
X147907143Y-128749999D01*
X148192857Y-128821427D01*
X148335714Y-128892856D01*
X148407143Y-128964285D01*
X148478571Y-129107142D01*
X148478571Y-129249999D01*
X148407143Y-129392856D01*
X148335714Y-129464285D01*
X148192857Y-129535713D01*
X147907143Y-129607142D01*
X147550000Y-129607142D01*
X147264286Y-129535713D01*
X147121429Y-129464285D01*
X147050000Y-129392856D01*
X146978571Y-129249999D01*
X148478571Y-127321428D02*
X148478571Y-128178571D01*
X148478571Y-127749999D02*
X146978571Y-127749999D01*
X147192857Y-127892856D01*
X147335714Y-128035714D01*
X147407143Y-128178571D01*
X146978571Y-126035714D02*
X146978571Y-126321428D01*
X147050000Y-126464285D01*
X147121429Y-126535714D01*
X147335714Y-126678571D01*
X147621429Y-126750000D01*
X148192857Y-126750000D01*
X148335714Y-126678571D01*
X148407143Y-126607143D01*
X148478571Y-126464285D01*
X148478571Y-126178571D01*
X148407143Y-126035714D01*
X148335714Y-125964285D01*
X148192857Y-125892857D01*
X147835714Y-125892857D01*
X147692857Y-125964285D01*
X147621429Y-126035714D01*
X147550000Y-126178571D01*
X147550000Y-126464285D01*
X147621429Y-126607143D01*
X147692857Y-126678571D01*
X147835714Y-126750000D01*
X147907143Y-125250000D02*
X147907143Y-124107143D01*
X146978571Y-123107143D02*
X146978571Y-122964286D01*
X147050000Y-122821429D01*
X147121429Y-122750000D01*
X147264286Y-122678571D01*
X147550000Y-122607143D01*
X147907143Y-122607143D01*
X148192857Y-122678571D01*
X148335714Y-122750000D01*
X148407143Y-122821429D01*
X148478571Y-122964286D01*
X148478571Y-123107143D01*
X148407143Y-123250000D01*
X148335714Y-123321429D01*
X148192857Y-123392857D01*
X147907143Y-123464286D01*
X147550000Y-123464286D01*
X147264286Y-123392857D01*
X147121429Y-123321429D01*
X147050000Y-123250000D01*
X146978571Y-123107143D01*
X148478571Y-121178572D02*
X148478571Y-122035715D01*
X148478571Y-121607143D02*
X146978571Y-121607143D01*
X147192857Y-121750000D01*
X147335714Y-121892858D01*
X147407143Y-122035715D01*
X147907143Y-120535715D02*
X147907143Y-119392858D01*
X146978571Y-118392858D02*
X146978571Y-118250001D01*
X147050000Y-118107144D01*
X147121429Y-118035715D01*
X147264286Y-117964286D01*
X147550000Y-117892858D01*
X147907143Y-117892858D01*
X148192857Y-117964286D01*
X148335714Y-118035715D01*
X148407143Y-118107144D01*
X148478571Y-118250001D01*
X148478571Y-118392858D01*
X148407143Y-118535715D01*
X148335714Y-118607144D01*
X148192857Y-118678572D01*
X147907143Y-118750001D01*
X147550000Y-118750001D01*
X147264286Y-118678572D01*
X147121429Y-118607144D01*
X147050000Y-118535715D01*
X146978571Y-118392858D01*
X146978571Y-116535715D02*
X146978571Y-117250001D01*
X147692857Y-117321430D01*
X147621429Y-117250001D01*
X147550000Y-117107144D01*
X147550000Y-116750001D01*
X147621429Y-116607144D01*
X147692857Y-116535715D01*
X147835714Y-116464287D01*
X148192857Y-116464287D01*
X148335714Y-116535715D01*
X148407143Y-116607144D01*
X148478571Y-116750001D01*
X148478571Y-117107144D01*
X148407143Y-117250001D01*
X148335714Y-117321430D01*
X144828571Y-127807142D02*
X144828571Y-126949999D01*
X146328571Y-127378570D02*
X144828571Y-127378570D01*
X145542857Y-126449999D02*
X145542857Y-125949999D01*
X146328571Y-125735713D02*
X146328571Y-126449999D01*
X144828571Y-126449999D01*
X144828571Y-125735713D01*
X145900000Y-125164285D02*
X145900000Y-124449999D01*
X146328571Y-125307142D02*
X144828571Y-124807142D01*
X146328571Y-124307142D01*
X146328571Y-123807142D02*
X144828571Y-123807142D01*
X144828571Y-123235714D01*
X144900000Y-123092856D01*
X144971429Y-123021428D01*
X145114286Y-122949999D01*
X145328571Y-122949999D01*
X145471429Y-123021428D01*
X145542857Y-123092856D01*
X145614286Y-123235714D01*
X145614286Y-123807142D01*
X144828571Y-122021428D02*
X144828571Y-121735714D01*
X144900000Y-121592856D01*
X145042857Y-121449999D01*
X145328571Y-121378571D01*
X145828571Y-121378571D01*
X146114286Y-121449999D01*
X146257143Y-121592856D01*
X146328571Y-121735714D01*
X146328571Y-122021428D01*
X146257143Y-122164285D01*
X146114286Y-122307142D01*
X145828571Y-122378571D01*
X145328571Y-122378571D01*
X145042857Y-122307142D01*
X144900000Y-122164285D01*
X144828571Y-122021428D01*
X144828571Y-120949999D02*
X144828571Y-120092856D01*
X146328571Y-120521427D02*
X144828571Y-120521427D01*
X146328571Y-118449999D02*
X145328571Y-118449999D01*
X145614286Y-118449999D02*
X145471429Y-118378571D01*
X145400000Y-118307142D01*
X145328571Y-118164285D01*
X145328571Y-118021428D01*
X146328571Y-116735714D02*
X146328571Y-117592857D01*
X146328571Y-117164285D02*
X144828571Y-117164285D01*
X145042857Y-117307142D01*
X145185714Y-117450000D01*
X145257143Y-117592857D01*
D12*
X131269048Y-97952381D02*
X131269048Y-96952381D01*
X131269048Y-97428571D02*
X131840477Y-97428571D01*
X131840477Y-97952381D02*
X131840477Y-96952381D01*
X132316667Y-96952381D02*
X132316667Y-97761905D01*
X132364286Y-97857143D01*
X132411905Y-97904762D01*
X132507143Y-97952381D01*
X132697620Y-97952381D01*
X132792858Y-97904762D01*
X132840477Y-97857143D01*
X132888096Y-97761905D01*
X132888096Y-96952381D01*
X133364286Y-97952381D02*
X133364286Y-96952381D01*
X133697620Y-97666667D01*
X134030953Y-96952381D01*
X134030953Y-97952381D01*
X131059524Y-104252381D02*
X131059524Y-103252381D01*
X131440477Y-103252381D01*
X131535715Y-103300000D01*
X131583334Y-103347619D01*
X131630953Y-103442857D01*
X131630953Y-103585714D01*
X131583334Y-103680952D01*
X131535715Y-103728571D01*
X131440477Y-103776190D01*
X131059524Y-103776190D01*
X132630953Y-104252381D02*
X132297619Y-103776190D01*
X132059524Y-104252381D02*
X132059524Y-103252381D01*
X132440477Y-103252381D01*
X132535715Y-103300000D01*
X132583334Y-103347619D01*
X132630953Y-103442857D01*
X132630953Y-103585714D01*
X132583334Y-103680952D01*
X132535715Y-103728571D01*
X132440477Y-103776190D01*
X132059524Y-103776190D01*
X133059524Y-103728571D02*
X133392858Y-103728571D01*
X133535715Y-104252381D02*
X133059524Y-104252381D01*
X133059524Y-103252381D01*
X133535715Y-103252381D01*
X133916667Y-104204762D02*
X134059524Y-104252381D01*
X134297620Y-104252381D01*
X134392858Y-104204762D01*
X134440477Y-104157143D01*
X134488096Y-104061905D01*
X134488096Y-103966667D01*
X134440477Y-103871429D01*
X134392858Y-103823810D01*
X134297620Y-103776190D01*
X134107143Y-103728571D01*
X134011905Y-103680952D01*
X133964286Y-103633333D01*
X133916667Y-103538095D01*
X133916667Y-103442857D01*
X133964286Y-103347619D01*
X134011905Y-103300000D01*
X134107143Y-103252381D01*
X134345239Y-103252381D01*
X134488096Y-103300000D01*
X103266667Y-104002381D02*
X102790476Y-104002381D01*
X102790476Y-103002381D01*
X103600000Y-104002381D02*
X103600000Y-103002381D01*
X104600000Y-103050000D02*
X104504762Y-103002381D01*
X104361905Y-103002381D01*
X104219047Y-103050000D01*
X104123809Y-103145238D01*
X104076190Y-103240476D01*
X104028571Y-103430952D01*
X104028571Y-103573810D01*
X104076190Y-103764286D01*
X104123809Y-103859524D01*
X104219047Y-103954762D01*
X104361905Y-104002381D01*
X104457143Y-104002381D01*
X104600000Y-103954762D01*
X104647619Y-103907143D01*
X104647619Y-103573810D01*
X104457143Y-103573810D01*
X105076190Y-104002381D02*
X105076190Y-103002381D01*
X105076190Y-103478571D02*
X105647619Y-103478571D01*
X105647619Y-104002381D02*
X105647619Y-103002381D01*
X105980952Y-103002381D02*
X106552381Y-103002381D01*
X106266666Y-104002381D02*
X106266666Y-103002381D01*
X113185714Y-102528571D02*
X113519048Y-102528571D01*
X113661905Y-103052381D02*
X113185714Y-103052381D01*
X113185714Y-102052381D01*
X113661905Y-102052381D01*
X114661905Y-103052381D02*
X114328571Y-102576190D01*
X114090476Y-103052381D02*
X114090476Y-102052381D01*
X114471429Y-102052381D01*
X114566667Y-102100000D01*
X114614286Y-102147619D01*
X114661905Y-102242857D01*
X114661905Y-102385714D01*
X114614286Y-102480952D01*
X114566667Y-102528571D01*
X114471429Y-102576190D01*
X114090476Y-102576190D01*
X115661905Y-103052381D02*
X115328571Y-102576190D01*
X115090476Y-103052381D02*
X115090476Y-102052381D01*
X115471429Y-102052381D01*
X115566667Y-102100000D01*
X115614286Y-102147619D01*
X115661905Y-102242857D01*
X115661905Y-102385714D01*
X115614286Y-102480952D01*
X115566667Y-102528571D01*
X115471429Y-102576190D01*
X115090476Y-102576190D01*
X113088095Y-100102381D02*
X113659524Y-100102381D01*
X113373809Y-101102381D02*
X113373809Y-100102381D01*
X113897619Y-100102381D02*
X114564286Y-101102381D01*
X114564286Y-100102381D02*
X113897619Y-101102381D01*
X115659524Y-100054762D02*
X114802381Y-101340476D01*
X116564286Y-101102381D02*
X116230952Y-100626190D01*
X115992857Y-101102381D02*
X115992857Y-100102381D01*
X116373810Y-100102381D01*
X116469048Y-100150000D01*
X116516667Y-100197619D01*
X116564286Y-100292857D01*
X116564286Y-100435714D01*
X116516667Y-100530952D01*
X116469048Y-100578571D01*
X116373810Y-100626190D01*
X115992857Y-100626190D01*
X116897619Y-100102381D02*
X117564286Y-101102381D01*
X117564286Y-100102381D02*
X116897619Y-101102381D01*
X115650000Y-116600000D02*
G75*
G03X115650000Y-116600000I-100000J0D01*
G01*
X115000000Y-116350000D02*
X115500000Y-116350000D01*
X115000000Y-113450000D02*
X115000000Y-116350000D01*
X115500000Y-113450000D02*
X115000000Y-113450000D01*
X115500000Y-116350000D02*
X115500000Y-113450000D01*
X144050000Y-107900000D02*
X128050000Y-107900000D01*
X128050000Y-107900000D02*
X128050000Y-127900000D01*
X128050000Y-127900000D02*
X144050000Y-127900000D01*
X144050000Y-127900000D02*
X144050000Y-107900000D01*
X130450000Y-100400000D02*
G75*
G03X130450000Y-100400000I-250000J0D01*
G01*
X130700000Y-100900000D02*
X127200000Y-100900000D01*
X127200000Y-100900000D02*
X127200000Y-104400000D01*
X127200000Y-104400000D02*
X130700000Y-104400000D01*
X130700000Y-104400000D02*
X130700000Y-100900000D01*
X107469853Y-106661576D02*
X107328431Y-106802997D01*
X105635618Y-108495811D02*
X105762897Y-108368532D01*
X103572713Y-105993995D02*
G75*
G03X105631375Y-108500054I1931383J-512017D01*
G01*
X103959016Y-106563332D02*
G75*
G03X105445406Y-108051041I1545080J57320D01*
G01*
X107479714Y-106633640D02*
G75*
G03X104945481Y-104589753I-1982689J134699D01*
G01*
X106984169Y-106459792D02*
G75*
G03X105522480Y-105025331I-1480073J-46220D01*
G01*
X135250000Y-101500000D02*
G75*
G03X135250000Y-101500000I-250000J0D01*
G01*
X134500000Y-101750000D02*
X134500000Y-98250000D01*
X134500000Y-98250000D02*
X131000000Y-98250000D01*
X131000000Y-98250000D02*
X131000000Y-101750000D01*
X131000000Y-101750000D02*
X134500000Y-101750000D01*
X119750987Y-121958885D02*
X116158885Y-125550987D01*
X116742601Y-126134704D02*
X116158885Y-125550987D01*
X117191614Y-124518258D02*
X117775331Y-125101975D01*
X120334704Y-122542602D02*
X119750987Y-121958885D01*
X118718258Y-122991614D02*
X119301974Y-123575331D01*
X122759373Y-124967271D02*
X123343089Y-125550987D01*
X123343089Y-125550987D02*
X119750987Y-129143090D01*
X119750987Y-129143090D02*
X119167270Y-128559373D01*
X120963322Y-126763322D02*
X118718258Y-129008386D01*
X118718258Y-129008386D02*
X116293588Y-126583717D01*
X116293588Y-126583717D02*
X120783716Y-122093589D01*
X120783716Y-122093589D02*
X123208386Y-124518258D01*
X123208386Y-124518258D02*
X120963322Y-126763322D01*
X135600000Y-137900000D02*
X133700000Y-137900000D01*
X139900000Y-137900000D02*
X138000000Y-137900000D01*
X113400000Y-94150000D02*
X113400000Y-94850000D01*
X112200000Y-94850000D02*
X112200000Y-94150000D01*
X110425000Y-95000000D02*
X110425000Y-94000000D01*
X111775000Y-94000000D02*
X111775000Y-95000000D01*
X133030850Y-131173744D02*
X132323744Y-131880850D01*
X131369150Y-130926256D02*
X132076256Y-130219150D01*
X115700000Y-92500000D02*
X112700000Y-92500000D01*
X112700000Y-89300000D02*
X115700000Y-89300000D01*
X113900000Y-95700000D02*
G75*
G03X113900000Y-95700000I-200000J0D01*
G01*
X115900000Y-93700000D02*
X116100000Y-93700000D01*
X116100000Y-93700000D02*
X116100000Y-95300000D01*
X116100000Y-95300000D02*
X115900000Y-95300000D01*
X113700000Y-93700000D02*
X113900000Y-93700000D01*
X113700000Y-93700000D02*
X113700000Y-95300000D01*
X113700000Y-95300000D02*
X113900000Y-95300000D01*
X117850000Y-94150000D02*
X117850000Y-94850000D01*
X116650000Y-94850000D02*
X116650000Y-94150000D01*
X111950000Y-114650000D02*
X111950000Y-113950000D01*
X113150000Y-113950000D02*
X113150000Y-114650000D01*
X126200000Y-112000000D02*
X126200000Y-112700000D01*
X125000000Y-112700000D02*
X125000000Y-112000000D01*
X112700000Y-110400000D02*
X112700000Y-109700000D01*
X113900000Y-109700000D02*
X113900000Y-110400000D01*
X109400000Y-99500000D02*
X112100000Y-99500000D01*
X109400000Y-98000000D02*
X112100000Y-98000000D01*
X110900000Y-98900000D02*
X110900000Y-98650000D01*
X110900000Y-98650000D02*
X110750000Y-98800000D01*
X110650000Y-98400000D02*
X110650000Y-99100000D01*
X111000000Y-98750000D02*
X111350000Y-98750000D01*
X110650000Y-98750000D02*
X111000000Y-98400000D01*
X111000000Y-98400000D02*
X111000000Y-99100000D01*
X111000000Y-99100000D02*
X110650000Y-98750000D01*
X109400000Y-101400000D02*
X112100000Y-101400000D01*
X109400000Y-99900000D02*
X112100000Y-99900000D01*
X110900000Y-100800000D02*
X110900000Y-100550000D01*
X110900000Y-100550000D02*
X110750000Y-100700000D01*
X110650000Y-100300000D02*
X110650000Y-101000000D01*
X111000000Y-100650000D02*
X111350000Y-100650000D01*
X110650000Y-100650000D02*
X111000000Y-100300000D01*
X111000000Y-100300000D02*
X111000000Y-101000000D01*
X111000000Y-101000000D02*
X110650000Y-100650000D01*
X109400000Y-103300000D02*
X112100000Y-103300000D01*
X109400000Y-101800000D02*
X112100000Y-101800000D01*
X110900000Y-102700000D02*
X110900000Y-102450000D01*
X110900000Y-102450000D02*
X110750000Y-102600000D01*
X110650000Y-102200000D02*
X110650000Y-102900000D01*
X111000000Y-102550000D02*
X111350000Y-102550000D01*
X110650000Y-102550000D02*
X111000000Y-102200000D01*
X111000000Y-102200000D02*
X111000000Y-102900000D01*
X111000000Y-102900000D02*
X110650000Y-102550000D01*
X125250000Y-103325000D02*
X123250000Y-103325000D01*
X123250000Y-101175000D02*
X125250000Y-101175000D01*
X116950000Y-116650000D02*
X117650000Y-116650000D01*
X117650000Y-117850000D02*
X116950000Y-117850000D01*
X127700000Y-112000000D02*
X127700000Y-112700000D01*
X126500000Y-112700000D02*
X126500000Y-112000000D01*
X123050000Y-99900000D02*
X123050000Y-99200000D01*
X124250000Y-99200000D02*
X124250000Y-99900000D01*
X124600000Y-99900000D02*
X124600000Y-99200000D01*
X125800000Y-99200000D02*
X125800000Y-99900000D01*
X121550000Y-99900000D02*
X121550000Y-99200000D01*
X122750000Y-99200000D02*
X122750000Y-99900000D01*
X123700000Y-104850000D02*
X124400000Y-104850000D01*
X124400000Y-106050000D02*
X123700000Y-106050000D01*
X119100000Y-100900000D02*
X119800000Y-100900000D01*
X119800000Y-102100000D02*
X119100000Y-102100000D01*
X119100000Y-102400000D02*
X119800000Y-102400000D01*
X119800000Y-103600000D02*
X119100000Y-103600000D01*
X128850000Y-99500000D02*
X128850000Y-98800000D01*
X130050000Y-98800000D02*
X130050000Y-99500000D01*
X114200000Y-110400000D02*
X114200000Y-109700000D01*
X115400000Y-109700000D02*
X115400000Y-110400000D01*
X127300000Y-99500000D02*
X127300000Y-98800000D01*
X128500000Y-98800000D02*
X128500000Y-99500000D01*
X107300000Y-96775000D02*
X108300000Y-96775000D01*
X108300000Y-98125000D02*
X107300000Y-98125000D01*
X107300000Y-98375000D02*
X108300000Y-98375000D01*
X108300000Y-99725000D02*
X107300000Y-99725000D01*
X123950000Y-108475000D02*
X124950000Y-108475000D01*
X124950000Y-109825000D02*
X123950000Y-109825000D01*
X123950000Y-106875000D02*
X124950000Y-106875000D01*
X124950000Y-108225000D02*
X123950000Y-108225000D01*
X107300000Y-99975000D02*
X108300000Y-99975000D01*
X108300000Y-101325000D02*
X107300000Y-101325000D01*
X107300000Y-101575000D02*
X108300000Y-101575000D01*
X108300000Y-102925000D02*
X107300000Y-102925000D01*
X108475000Y-109050000D02*
X108475000Y-108050000D01*
X109825000Y-108050000D02*
X109825000Y-109050000D01*
X114500000Y-111800000D02*
X115200000Y-111800000D01*
X115200000Y-113000000D02*
X114500000Y-113000000D01*
X111013604Y-116053806D02*
X109811522Y-117255887D01*
X111579289Y-116619491D02*
X111013604Y-116053806D01*
X116246194Y-121286396D02*
X115645153Y-120685355D01*
X115044113Y-122488478D02*
X116246194Y-121286396D01*
X116650000Y-106000000D02*
X116150000Y-106000000D01*
X116150000Y-106000000D02*
X116150000Y-106500000D01*
X116650000Y-111000000D02*
X116150000Y-111000000D01*
X116150000Y-111000000D02*
X116150000Y-110500000D01*
X121150000Y-110500000D02*
X121150000Y-111000000D01*
X121150000Y-111000000D02*
X120650000Y-111000000D01*
X120650000Y-106000000D02*
X121150000Y-106000000D01*
X121150000Y-106000000D02*
X121150000Y-106500000D01*
X120650000Y-105250000D02*
G75*
G03X120650000Y-105250000I-250000J0D01*
G01*
D14*
G36*
X139083615Y-107149739D02*
X139112821Y-107160634D01*
X139188106Y-107188587D01*
X139274805Y-107216312D01*
X139369826Y-107243064D01*
X139470078Y-107268102D01*
X139572468Y-107290680D01*
X139673907Y-107310056D01*
X139771301Y-107325486D01*
X139828657Y-107332785D01*
X139893888Y-107338788D01*
X139970154Y-107343470D01*
X140054031Y-107346793D01*
X140142097Y-107348720D01*
X140230928Y-107349210D01*
X140317101Y-107348228D01*
X140397194Y-107345734D01*
X140467784Y-107341691D01*
X140487174Y-107340119D01*
X140567184Y-107331526D01*
X140652560Y-107319602D01*
X140739086Y-107305095D01*
X140822543Y-107288754D01*
X140898714Y-107271328D01*
X140946257Y-107258649D01*
X140977823Y-107249646D01*
X141006499Y-107241587D01*
X141027724Y-107235749D01*
X141033343Y-107234260D01*
X141048578Y-107229694D01*
X141073946Y-107221426D01*
X141105911Y-107210629D01*
X141140794Y-107198531D01*
X141187832Y-107183269D01*
X141222203Y-107175001D01*
X141243954Y-107173721D01*
X141253135Y-107179423D01*
X141252689Y-107186018D01*
X141243782Y-107194188D01*
X141222474Y-107205392D01*
X141190424Y-107219060D01*
X141149290Y-107234618D01*
X141100730Y-107251496D01*
X141046402Y-107269122D01*
X140987966Y-107286924D01*
X140927079Y-107304331D01*
X140865399Y-107320769D01*
X140851914Y-107324193D01*
X140779671Y-107340731D01*
X140697937Y-107356682D01*
X140611736Y-107371209D01*
X140526088Y-107383477D01*
X140446016Y-107392648D01*
X140434629Y-107393720D01*
X140391440Y-107396615D01*
X140337387Y-107398647D01*
X140276093Y-107399817D01*
X140211182Y-107400129D01*
X140146277Y-107399588D01*
X140085002Y-107398195D01*
X140030981Y-107395956D01*
X139992512Y-107393303D01*
X139847945Y-107377975D01*
X139707563Y-107358180D01*
X139572917Y-107334274D01*
X139445562Y-107306613D01*
X139327049Y-107275552D01*
X139218932Y-107241447D01*
X139122764Y-107204652D01*
X139075532Y-107183401D01*
X139046134Y-107168765D01*
X139029094Y-107158481D01*
X139023344Y-107151392D01*
X139027815Y-107146342D01*
X139038138Y-107142966D01*
X139056397Y-107142784D01*
X139083615Y-107149739D01*
X139083615Y-107149739D01*
G37*
X139083615Y-107149739D02*
X139112821Y-107160634D01*
X139188106Y-107188587D01*
X139274805Y-107216312D01*
X139369826Y-107243064D01*
X139470078Y-107268102D01*
X139572468Y-107290680D01*
X139673907Y-107310056D01*
X139771301Y-107325486D01*
X139828657Y-107332785D01*
X139893888Y-107338788D01*
X139970154Y-107343470D01*
X140054031Y-107346793D01*
X140142097Y-107348720D01*
X140230928Y-107349210D01*
X140317101Y-107348228D01*
X140397194Y-107345734D01*
X140467784Y-107341691D01*
X140487174Y-107340119D01*
X140567184Y-107331526D01*
X140652560Y-107319602D01*
X140739086Y-107305095D01*
X140822543Y-107288754D01*
X140898714Y-107271328D01*
X140946257Y-107258649D01*
X140977823Y-107249646D01*
X141006499Y-107241587D01*
X141027724Y-107235749D01*
X141033343Y-107234260D01*
X141048578Y-107229694D01*
X141073946Y-107221426D01*
X141105911Y-107210629D01*
X141140794Y-107198531D01*
X141187832Y-107183269D01*
X141222203Y-107175001D01*
X141243954Y-107173721D01*
X141253135Y-107179423D01*
X141252689Y-107186018D01*
X141243782Y-107194188D01*
X141222474Y-107205392D01*
X141190424Y-107219060D01*
X141149290Y-107234618D01*
X141100730Y-107251496D01*
X141046402Y-107269122D01*
X140987966Y-107286924D01*
X140927079Y-107304331D01*
X140865399Y-107320769D01*
X140851914Y-107324193D01*
X140779671Y-107340731D01*
X140697937Y-107356682D01*
X140611736Y-107371209D01*
X140526088Y-107383477D01*
X140446016Y-107392648D01*
X140434629Y-107393720D01*
X140391440Y-107396615D01*
X140337387Y-107398647D01*
X140276093Y-107399817D01*
X140211182Y-107400129D01*
X140146277Y-107399588D01*
X140085002Y-107398195D01*
X140030981Y-107395956D01*
X139992512Y-107393303D01*
X139847945Y-107377975D01*
X139707563Y-107358180D01*
X139572917Y-107334274D01*
X139445562Y-107306613D01*
X139327049Y-107275552D01*
X139218932Y-107241447D01*
X139122764Y-107204652D01*
X139075532Y-107183401D01*
X139046134Y-107168765D01*
X139029094Y-107158481D01*
X139023344Y-107151392D01*
X139027815Y-107146342D01*
X139038138Y-107142966D01*
X139056397Y-107142784D01*
X139083615Y-107149739D01*
G36*
X141214856Y-104776647D02*
X141234133Y-104827940D01*
X141260628Y-104885584D01*
X141294868Y-104950547D01*
X141337382Y-105023798D01*
X141388697Y-105106305D01*
X141425617Y-105163221D01*
X141473470Y-105238007D01*
X141513453Y-105305450D01*
X141547299Y-105369091D01*
X141576738Y-105432471D01*
X141603504Y-105499132D01*
X141629327Y-105572615D01*
X141636446Y-105594342D01*
X141653205Y-105652913D01*
X141668308Y-105718498D01*
X141681004Y-105786715D01*
X141690540Y-105853181D01*
X141696164Y-105913515D01*
X141697372Y-105949478D01*
X141693322Y-106028940D01*
X141681829Y-106113691D01*
X141663881Y-106199387D01*
X141640464Y-106281685D01*
X141612565Y-106356242D01*
X141597666Y-106388413D01*
X141578995Y-106423874D01*
X141558139Y-106459395D01*
X141533893Y-106496654D01*
X141505052Y-106537329D01*
X141470411Y-106583100D01*
X141428766Y-106635643D01*
X141378911Y-106696639D01*
X141360210Y-106719200D01*
X141317803Y-106770516D01*
X141283098Y-106813284D01*
X141254253Y-106849890D01*
X141229424Y-106882720D01*
X141206770Y-106914160D01*
X141184446Y-106946597D01*
X141183419Y-106948120D01*
X141171135Y-106965454D01*
X141158970Y-106979514D01*
X141144850Y-106991389D01*
X141126701Y-107002171D01*
X141102450Y-107012949D01*
X141070023Y-107024815D01*
X141027346Y-107038859D01*
X140986172Y-107051850D01*
X140858662Y-107088290D01*
X140726407Y-107119657D01*
X140595007Y-107144744D01*
X140478172Y-107161416D01*
X140448587Y-107164014D01*
X140407594Y-107166439D01*
X140358295Y-107168612D01*
X140303797Y-107170454D01*
X140247202Y-107171884D01*
X140191617Y-107172823D01*
X140140144Y-107173192D01*
X140095890Y-107172911D01*
X140064514Y-107172023D01*
X140012248Y-107168722D01*
X139953258Y-107163534D01*
X139892935Y-107157036D01*
X139836670Y-107149806D01*
X139792372Y-107142871D01*
X139756224Y-107136689D01*
X139717569Y-107130417D01*
X139685222Y-107125478D01*
X139642045Y-107117816D01*
X139588214Y-107106068D01*
X139526669Y-107091066D01*
X139460348Y-107073641D01*
X139392190Y-107054622D01*
X139325134Y-107034841D01*
X139262119Y-107015128D01*
X139206083Y-106996314D01*
X139159967Y-106979231D01*
X139142857Y-106972167D01*
X139124027Y-106962624D01*
X139110807Y-106950977D01*
X139099412Y-106932997D01*
X139089872Y-106913009D01*
X139071252Y-106879849D01*
X139043193Y-106840826D01*
X139011187Y-106802657D01*
X138972470Y-106757739D01*
X138930432Y-106706292D01*
X138888591Y-106652797D01*
X138850468Y-106601735D01*
X138825124Y-106565813D01*
X138802213Y-106532169D01*
X138850188Y-106504127D01*
X138904813Y-106463806D01*
X138952608Y-106410717D01*
X138993547Y-106344914D01*
X139027603Y-106266449D01*
X139054748Y-106175376D01*
X139074957Y-106071749D01*
X139077381Y-106055171D01*
X139081520Y-106013032D01*
X139083726Y-105962616D01*
X139084049Y-105908452D01*
X139082540Y-105855073D01*
X139079250Y-105807009D01*
X139074229Y-105768791D01*
X139074178Y-105768514D01*
X139050767Y-105675995D01*
X139016491Y-105589742D01*
X138972234Y-105511236D01*
X138918876Y-105441956D01*
X138857300Y-105383383D01*
X138834294Y-105365917D01*
X138810931Y-105348793D01*
X138797657Y-105337221D01*
X138792500Y-105328683D01*
X138793488Y-105320657D01*
X138795506Y-105316359D01*
X138801493Y-105305189D01*
X138813212Y-105283549D01*
X138829432Y-105253704D01*
X138848922Y-105217918D01*
X138870452Y-105178457D01*
X138872104Y-105175433D01*
X138915309Y-105095023D01*
X138951388Y-105024908D01*
X138981202Y-104963269D01*
X139005614Y-104908285D01*
X139025488Y-104858133D01*
X139034662Y-104832342D01*
X139044769Y-104803055D01*
X139053164Y-104779358D01*
X139058748Y-104764318D01*
X139060362Y-104760619D01*
X139067514Y-104762052D01*
X139084839Y-104768221D01*
X139109243Y-104777982D01*
X139122656Y-104783647D01*
X139197124Y-104813325D01*
X139279778Y-104842324D01*
X139366070Y-104869271D01*
X139451451Y-104892796D01*
X139531375Y-104911529D01*
X139574657Y-104919871D01*
X139638541Y-104930589D01*
X139695249Y-104939147D01*
X139748048Y-104945833D01*
X139800204Y-104950936D01*
X139854981Y-104954746D01*
X139915646Y-104957550D01*
X139985464Y-104959639D01*
X140036548Y-104960735D01*
X140122905Y-104961951D01*
X140197946Y-104961895D01*
X140264832Y-104960363D01*
X140326722Y-104957151D01*
X140386775Y-104952057D01*
X140448152Y-104944875D01*
X140514011Y-104935402D01*
X140570458Y-104926304D01*
X140706165Y-104901480D01*
X140828084Y-104874551D01*
X140936811Y-104845355D01*
X141032942Y-104813729D01*
X141117073Y-104779511D01*
X141127637Y-104774641D01*
X141202705Y-104739499D01*
X141214856Y-104776647D01*
X141214856Y-104776647D01*
G37*
X141214856Y-104776647D02*
X141234133Y-104827940D01*
X141260628Y-104885584D01*
X141294868Y-104950547D01*
X141337382Y-105023798D01*
X141388697Y-105106305D01*
X141425617Y-105163221D01*
X141473470Y-105238007D01*
X141513453Y-105305450D01*
X141547299Y-105369091D01*
X141576738Y-105432471D01*
X141603504Y-105499132D01*
X141629327Y-105572615D01*
X141636446Y-105594342D01*
X141653205Y-105652913D01*
X141668308Y-105718498D01*
X141681004Y-105786715D01*
X141690540Y-105853181D01*
X141696164Y-105913515D01*
X141697372Y-105949478D01*
X141693322Y-106028940D01*
X141681829Y-106113691D01*
X141663881Y-106199387D01*
X141640464Y-106281685D01*
X141612565Y-106356242D01*
X141597666Y-106388413D01*
X141578995Y-106423874D01*
X141558139Y-106459395D01*
X141533893Y-106496654D01*
X141505052Y-106537329D01*
X141470411Y-106583100D01*
X141428766Y-106635643D01*
X141378911Y-106696639D01*
X141360210Y-106719200D01*
X141317803Y-106770516D01*
X141283098Y-106813284D01*
X141254253Y-106849890D01*
X141229424Y-106882720D01*
X141206770Y-106914160D01*
X141184446Y-106946597D01*
X141183419Y-106948120D01*
X141171135Y-106965454D01*
X141158970Y-106979514D01*
X141144850Y-106991389D01*
X141126701Y-107002171D01*
X141102450Y-107012949D01*
X141070023Y-107024815D01*
X141027346Y-107038859D01*
X140986172Y-107051850D01*
X140858662Y-107088290D01*
X140726407Y-107119657D01*
X140595007Y-107144744D01*
X140478172Y-107161416D01*
X140448587Y-107164014D01*
X140407594Y-107166439D01*
X140358295Y-107168612D01*
X140303797Y-107170454D01*
X140247202Y-107171884D01*
X140191617Y-107172823D01*
X140140144Y-107173192D01*
X140095890Y-107172911D01*
X140064514Y-107172023D01*
X140012248Y-107168722D01*
X139953258Y-107163534D01*
X139892935Y-107157036D01*
X139836670Y-107149806D01*
X139792372Y-107142871D01*
X139756224Y-107136689D01*
X139717569Y-107130417D01*
X139685222Y-107125478D01*
X139642045Y-107117816D01*
X139588214Y-107106068D01*
X139526669Y-107091066D01*
X139460348Y-107073641D01*
X139392190Y-107054622D01*
X139325134Y-107034841D01*
X139262119Y-107015128D01*
X139206083Y-106996314D01*
X139159967Y-106979231D01*
X139142857Y-106972167D01*
X139124027Y-106962624D01*
X139110807Y-106950977D01*
X139099412Y-106932997D01*
X139089872Y-106913009D01*
X139071252Y-106879849D01*
X139043193Y-106840826D01*
X139011187Y-106802657D01*
X138972470Y-106757739D01*
X138930432Y-106706292D01*
X138888591Y-106652797D01*
X138850468Y-106601735D01*
X138825124Y-106565813D01*
X138802213Y-106532169D01*
X138850188Y-106504127D01*
X138904813Y-106463806D01*
X138952608Y-106410717D01*
X138993547Y-106344914D01*
X139027603Y-106266449D01*
X139054748Y-106175376D01*
X139074957Y-106071749D01*
X139077381Y-106055171D01*
X139081520Y-106013032D01*
X139083726Y-105962616D01*
X139084049Y-105908452D01*
X139082540Y-105855073D01*
X139079250Y-105807009D01*
X139074229Y-105768791D01*
X139074178Y-105768514D01*
X139050767Y-105675995D01*
X139016491Y-105589742D01*
X138972234Y-105511236D01*
X138918876Y-105441956D01*
X138857300Y-105383383D01*
X138834294Y-105365917D01*
X138810931Y-105348793D01*
X138797657Y-105337221D01*
X138792500Y-105328683D01*
X138793488Y-105320657D01*
X138795506Y-105316359D01*
X138801493Y-105305189D01*
X138813212Y-105283549D01*
X138829432Y-105253704D01*
X138848922Y-105217918D01*
X138870452Y-105178457D01*
X138872104Y-105175433D01*
X138915309Y-105095023D01*
X138951388Y-105024908D01*
X138981202Y-104963269D01*
X139005614Y-104908285D01*
X139025488Y-104858133D01*
X139034662Y-104832342D01*
X139044769Y-104803055D01*
X139053164Y-104779358D01*
X139058748Y-104764318D01*
X139060362Y-104760619D01*
X139067514Y-104762052D01*
X139084839Y-104768221D01*
X139109243Y-104777982D01*
X139122656Y-104783647D01*
X139197124Y-104813325D01*
X139279778Y-104842324D01*
X139366070Y-104869271D01*
X139451451Y-104892796D01*
X139531375Y-104911529D01*
X139574657Y-104919871D01*
X139638541Y-104930589D01*
X139695249Y-104939147D01*
X139748048Y-104945833D01*
X139800204Y-104950936D01*
X139854981Y-104954746D01*
X139915646Y-104957550D01*
X139985464Y-104959639D01*
X140036548Y-104960735D01*
X140122905Y-104961951D01*
X140197946Y-104961895D01*
X140264832Y-104960363D01*
X140326722Y-104957151D01*
X140386775Y-104952057D01*
X140448152Y-104944875D01*
X140514011Y-104935402D01*
X140570458Y-104926304D01*
X140706165Y-104901480D01*
X140828084Y-104874551D01*
X140936811Y-104845355D01*
X141032942Y-104813729D01*
X141117073Y-104779511D01*
X141127637Y-104774641D01*
X141202705Y-104739499D01*
X141214856Y-104776647D01*
G36*
X142300713Y-104549288D02*
X142376755Y-104567432D01*
X142387074Y-104570790D01*
X142440413Y-104590556D01*
X142485590Y-104612183D01*
X142528886Y-104638980D01*
X142561638Y-104662736D01*
X142628923Y-104722617D01*
X142688361Y-104793295D01*
X142739214Y-104872912D01*
X142780742Y-104959611D01*
X142812205Y-105051533D01*
X142832863Y-105146820D01*
X142841976Y-105243614D01*
X142838806Y-105340056D01*
X142837167Y-105354857D01*
X142830818Y-105395051D01*
X142820601Y-105445467D01*
X142807386Y-105502609D01*
X142792045Y-105562981D01*
X142775448Y-105623085D01*
X142758465Y-105679426D01*
X142749517Y-105706828D01*
X142698282Y-105841543D01*
X142639233Y-105964505D01*
X142571762Y-106076559D01*
X142495266Y-106178551D01*
X142409136Y-106271324D01*
X142312769Y-106355723D01*
X142251161Y-106401725D01*
X142192942Y-106437596D01*
X142124089Y-106471567D01*
X142048472Y-106502282D01*
X141969961Y-106528385D01*
X141892427Y-106548521D01*
X141819739Y-106561335D01*
X141786145Y-106564590D01*
X141718889Y-106568947D01*
X141758748Y-106486230D01*
X141798607Y-106403514D01*
X141855032Y-106399020D01*
X141938226Y-106385877D01*
X142023612Y-106360263D01*
X142108788Y-106323472D01*
X142191348Y-106276799D01*
X142268890Y-106221541D01*
X142339009Y-106158992D01*
X142377288Y-106117602D01*
X142438567Y-106037878D01*
X142496593Y-105946819D01*
X142549878Y-105847495D01*
X142596937Y-105742975D01*
X142636285Y-105636331D01*
X142666435Y-105530632D01*
X142671079Y-105510555D01*
X142677045Y-105481354D01*
X142681393Y-105453348D01*
X142684371Y-105423313D01*
X142686227Y-105388023D01*
X142687210Y-105344254D01*
X142687549Y-105296800D01*
X142687542Y-105246182D01*
X142687023Y-105207240D01*
X142685761Y-105177139D01*
X142683522Y-105153042D01*
X142680075Y-105132116D01*
X142675187Y-105111523D01*
X142671201Y-105097228D01*
X142641371Y-105017467D01*
X142600454Y-104944576D01*
X142549688Y-104880213D01*
X142490312Y-104826035D01*
X142445966Y-104796042D01*
X142404510Y-104773817D01*
X142365820Y-104758831D01*
X142325188Y-104749902D01*
X142277907Y-104745845D01*
X142244061Y-104745257D01*
X142190181Y-104746664D01*
X142145690Y-104751614D01*
X142105673Y-104761202D01*
X142065214Y-104776523D01*
X142031200Y-104792646D01*
X141989921Y-104815183D01*
X141947752Y-104842014D01*
X141902841Y-104874535D01*
X141853336Y-104914140D01*
X141797386Y-104962223D01*
X141752452Y-105002528D01*
X141710384Y-105040460D01*
X141677735Y-105069098D01*
X141653498Y-105089244D01*
X141636664Y-105101700D01*
X141626226Y-105107268D01*
X141621296Y-105106887D01*
X141616448Y-105100225D01*
X141605390Y-105084433D01*
X141590109Y-105062357D01*
X141582325Y-105051046D01*
X141545616Y-104997607D01*
X141587574Y-104966719D01*
X141609796Y-104949199D01*
X141638553Y-104924872D01*
X141669994Y-104897070D01*
X141697923Y-104871336D01*
X141747675Y-104824494D01*
X141788427Y-104786345D01*
X141821674Y-104755558D01*
X141848912Y-104730801D01*
X141871638Y-104710742D01*
X141891346Y-104694052D01*
X141909535Y-104679398D01*
X141927699Y-104665450D01*
X141937609Y-104658050D01*
X142011929Y-104608928D01*
X142084205Y-104573722D01*
X142155632Y-104552202D01*
X142227403Y-104544134D01*
X142300713Y-104549288D01*
X142300713Y-104549288D01*
G37*
X142300713Y-104549288D02*
X142376755Y-104567432D01*
X142387074Y-104570790D01*
X142440413Y-104590556D01*
X142485590Y-104612183D01*
X142528886Y-104638980D01*
X142561638Y-104662736D01*
X142628923Y-104722617D01*
X142688361Y-104793295D01*
X142739214Y-104872912D01*
X142780742Y-104959611D01*
X142812205Y-105051533D01*
X142832863Y-105146820D01*
X142841976Y-105243614D01*
X142838806Y-105340056D01*
X142837167Y-105354857D01*
X142830818Y-105395051D01*
X142820601Y-105445467D01*
X142807386Y-105502609D01*
X142792045Y-105562981D01*
X142775448Y-105623085D01*
X142758465Y-105679426D01*
X142749517Y-105706828D01*
X142698282Y-105841543D01*
X142639233Y-105964505D01*
X142571762Y-106076559D01*
X142495266Y-106178551D01*
X142409136Y-106271324D01*
X142312769Y-106355723D01*
X142251161Y-106401725D01*
X142192942Y-106437596D01*
X142124089Y-106471567D01*
X142048472Y-106502282D01*
X141969961Y-106528385D01*
X141892427Y-106548521D01*
X141819739Y-106561335D01*
X141786145Y-106564590D01*
X141718889Y-106568947D01*
X141758748Y-106486230D01*
X141798607Y-106403514D01*
X141855032Y-106399020D01*
X141938226Y-106385877D01*
X142023612Y-106360263D01*
X142108788Y-106323472D01*
X142191348Y-106276799D01*
X142268890Y-106221541D01*
X142339009Y-106158992D01*
X142377288Y-106117602D01*
X142438567Y-106037878D01*
X142496593Y-105946819D01*
X142549878Y-105847495D01*
X142596937Y-105742975D01*
X142636285Y-105636331D01*
X142666435Y-105530632D01*
X142671079Y-105510555D01*
X142677045Y-105481354D01*
X142681393Y-105453348D01*
X142684371Y-105423313D01*
X142686227Y-105388023D01*
X142687210Y-105344254D01*
X142687549Y-105296800D01*
X142687542Y-105246182D01*
X142687023Y-105207240D01*
X142685761Y-105177139D01*
X142683522Y-105153042D01*
X142680075Y-105132116D01*
X142675187Y-105111523D01*
X142671201Y-105097228D01*
X142641371Y-105017467D01*
X142600454Y-104944576D01*
X142549688Y-104880213D01*
X142490312Y-104826035D01*
X142445966Y-104796042D01*
X142404510Y-104773817D01*
X142365820Y-104758831D01*
X142325188Y-104749902D01*
X142277907Y-104745845D01*
X142244061Y-104745257D01*
X142190181Y-104746664D01*
X142145690Y-104751614D01*
X142105673Y-104761202D01*
X142065214Y-104776523D01*
X142031200Y-104792646D01*
X141989921Y-104815183D01*
X141947752Y-104842014D01*
X141902841Y-104874535D01*
X141853336Y-104914140D01*
X141797386Y-104962223D01*
X141752452Y-105002528D01*
X141710384Y-105040460D01*
X141677735Y-105069098D01*
X141653498Y-105089244D01*
X141636664Y-105101700D01*
X141626226Y-105107268D01*
X141621296Y-105106887D01*
X141616448Y-105100225D01*
X141605390Y-105084433D01*
X141590109Y-105062357D01*
X141582325Y-105051046D01*
X141545616Y-104997607D01*
X141587574Y-104966719D01*
X141609796Y-104949199D01*
X141638553Y-104924872D01*
X141669994Y-104897070D01*
X141697923Y-104871336D01*
X141747675Y-104824494D01*
X141788427Y-104786345D01*
X141821674Y-104755558D01*
X141848912Y-104730801D01*
X141871638Y-104710742D01*
X141891346Y-104694052D01*
X141909535Y-104679398D01*
X141927699Y-104665450D01*
X141937609Y-104658050D01*
X142011929Y-104608928D01*
X142084205Y-104573722D01*
X142155632Y-104552202D01*
X142227403Y-104544134D01*
X142300713Y-104549288D01*
G36*
X137759026Y-105027709D02*
X137818721Y-105067107D01*
X137881400Y-105118320D01*
X137945130Y-105179506D01*
X138007977Y-105248822D01*
X138062048Y-105316450D01*
X138117470Y-105387219D01*
X138168318Y-105445622D01*
X138215891Y-105492565D01*
X138261493Y-105528954D01*
X138306423Y-105555695D01*
X138351983Y-105573693D01*
X138399474Y-105583854D01*
X138450198Y-105587085D01*
X138450787Y-105587085D01*
X138513702Y-105580154D01*
X138576294Y-105560068D01*
X138635313Y-105527887D01*
X138638141Y-105525960D01*
X138659041Y-105512373D01*
X138675738Y-105502976D01*
X138683709Y-105500000D01*
X138695446Y-105504994D01*
X138714136Y-105518348D01*
X138737035Y-105537620D01*
X138761401Y-105560368D01*
X138784491Y-105584149D01*
X138803564Y-105606522D01*
X138804075Y-105607185D01*
X138823878Y-105634911D01*
X138842994Y-105664870D01*
X138855063Y-105686380D01*
X138870902Y-105725432D01*
X138884685Y-105773975D01*
X138895357Y-105827022D01*
X138901862Y-105879584D01*
X138903372Y-105914588D01*
X138901343Y-105958720D01*
X138895774Y-106010359D01*
X138887441Y-106064921D01*
X138877121Y-106117824D01*
X138865590Y-106164486D01*
X138855954Y-106194408D01*
X138829162Y-106249848D01*
X138794062Y-106298042D01*
X138752622Y-106337009D01*
X138706810Y-106364767D01*
X138675881Y-106375791D01*
X138638596Y-106382002D01*
X138593988Y-106384283D01*
X138548729Y-106382548D01*
X138515114Y-106377926D01*
X138479344Y-106368512D01*
X138436275Y-106353899D01*
X138391171Y-106336156D01*
X138349294Y-106317354D01*
X138315928Y-106299576D01*
X138213475Y-106229782D01*
X138122710Y-106151683D01*
X138043819Y-106065486D01*
X137976986Y-105971397D01*
X137922395Y-105869625D01*
X137912393Y-105847037D01*
X137899482Y-105815930D01*
X137889038Y-105789094D01*
X137882254Y-105769700D01*
X137880257Y-105761484D01*
X137878193Y-105749779D01*
X137872610Y-105726722D01*
X137864215Y-105694845D01*
X137853715Y-105656681D01*
X137841818Y-105614763D01*
X137829230Y-105571624D01*
X137816658Y-105529797D01*
X137806261Y-105496371D01*
X137789109Y-105447701D01*
X137768511Y-105397757D01*
X137746034Y-105349737D01*
X137723248Y-105306838D01*
X137701719Y-105272258D01*
X137687158Y-105253501D01*
X137658096Y-105226083D01*
X137618649Y-105197038D01*
X137567508Y-105165465D01*
X137523326Y-105140993D01*
X137464114Y-105109355D01*
X137499757Y-105105043D01*
X137550859Y-105096047D01*
X137601456Y-105082089D01*
X137647946Y-105064507D01*
X137686731Y-105044642D01*
X137711855Y-105026123D01*
X137728653Y-105010359D01*
X137759026Y-105027709D01*
X137759026Y-105027709D01*
G37*
X137759026Y-105027709D02*
X137818721Y-105067107D01*
X137881400Y-105118320D01*
X137945130Y-105179506D01*
X138007977Y-105248822D01*
X138062048Y-105316450D01*
X138117470Y-105387219D01*
X138168318Y-105445622D01*
X138215891Y-105492565D01*
X138261493Y-105528954D01*
X138306423Y-105555695D01*
X138351983Y-105573693D01*
X138399474Y-105583854D01*
X138450198Y-105587085D01*
X138450787Y-105587085D01*
X138513702Y-105580154D01*
X138576294Y-105560068D01*
X138635313Y-105527887D01*
X138638141Y-105525960D01*
X138659041Y-105512373D01*
X138675738Y-105502976D01*
X138683709Y-105500000D01*
X138695446Y-105504994D01*
X138714136Y-105518348D01*
X138737035Y-105537620D01*
X138761401Y-105560368D01*
X138784491Y-105584149D01*
X138803564Y-105606522D01*
X138804075Y-105607185D01*
X138823878Y-105634911D01*
X138842994Y-105664870D01*
X138855063Y-105686380D01*
X138870902Y-105725432D01*
X138884685Y-105773975D01*
X138895357Y-105827022D01*
X138901862Y-105879584D01*
X138903372Y-105914588D01*
X138901343Y-105958720D01*
X138895774Y-106010359D01*
X138887441Y-106064921D01*
X138877121Y-106117824D01*
X138865590Y-106164486D01*
X138855954Y-106194408D01*
X138829162Y-106249848D01*
X138794062Y-106298042D01*
X138752622Y-106337009D01*
X138706810Y-106364767D01*
X138675881Y-106375791D01*
X138638596Y-106382002D01*
X138593988Y-106384283D01*
X138548729Y-106382548D01*
X138515114Y-106377926D01*
X138479344Y-106368512D01*
X138436275Y-106353899D01*
X138391171Y-106336156D01*
X138349294Y-106317354D01*
X138315928Y-106299576D01*
X138213475Y-106229782D01*
X138122710Y-106151683D01*
X138043819Y-106065486D01*
X137976986Y-105971397D01*
X137922395Y-105869625D01*
X137912393Y-105847037D01*
X137899482Y-105815930D01*
X137889038Y-105789094D01*
X137882254Y-105769700D01*
X137880257Y-105761484D01*
X137878193Y-105749779D01*
X137872610Y-105726722D01*
X137864215Y-105694845D01*
X137853715Y-105656681D01*
X137841818Y-105614763D01*
X137829230Y-105571624D01*
X137816658Y-105529797D01*
X137806261Y-105496371D01*
X137789109Y-105447701D01*
X137768511Y-105397757D01*
X137746034Y-105349737D01*
X137723248Y-105306838D01*
X137701719Y-105272258D01*
X137687158Y-105253501D01*
X137658096Y-105226083D01*
X137618649Y-105197038D01*
X137567508Y-105165465D01*
X137523326Y-105140993D01*
X137464114Y-105109355D01*
X137499757Y-105105043D01*
X137550859Y-105096047D01*
X137601456Y-105082089D01*
X137647946Y-105064507D01*
X137686731Y-105044642D01*
X137711855Y-105026123D01*
X137728653Y-105010359D01*
X137759026Y-105027709D01*
G36*
X139004640Y-104478116D02*
X139012229Y-104480188D01*
X139025250Y-104485044D01*
X139048453Y-104494797D01*
X139078883Y-104508168D01*
X139113588Y-104523875D01*
X139124714Y-104529000D01*
X139225779Y-104573835D01*
X139319989Y-104611284D01*
X139411929Y-104642897D01*
X139506182Y-104670226D01*
X139607332Y-104694821D01*
X139629086Y-104699611D01*
X139748829Y-104725574D01*
X139976736Y-104728863D01*
X140046655Y-104729517D01*
X140114993Y-104729492D01*
X140179000Y-104728827D01*
X140235922Y-104727561D01*
X140283007Y-104725733D01*
X140308531Y-104724148D01*
X140453376Y-104707952D01*
X140604266Y-104681611D01*
X140757786Y-104645985D01*
X140910517Y-104601934D01*
X141059043Y-104550319D01*
X141159172Y-104509938D01*
X141186923Y-104498452D01*
X141210026Y-104489644D01*
X141224970Y-104484820D01*
X141228115Y-104484297D01*
X141230748Y-104488021D01*
X141222894Y-104497579D01*
X141206583Y-104511460D01*
X141183843Y-104528149D01*
X141156706Y-104546134D01*
X141127200Y-104563903D01*
X141105091Y-104575993D01*
X141049132Y-104603744D01*
X140993843Y-104628050D01*
X140936717Y-104649718D01*
X140875248Y-104669556D01*
X140806928Y-104688372D01*
X140729249Y-104706971D01*
X140639706Y-104726162D01*
X140636917Y-104726733D01*
X140534148Y-104745643D01*
X140427545Y-104761336D01*
X140320227Y-104773541D01*
X140215310Y-104781989D01*
X140115912Y-104786408D01*
X140025151Y-104786528D01*
X139973800Y-104784274D01*
X139916729Y-104779731D01*
X139853449Y-104773311D01*
X139787440Y-104765480D01*
X139722177Y-104756704D01*
X139661139Y-104747449D01*
X139607802Y-104738182D01*
X139567400Y-104729783D01*
X139468767Y-104704650D01*
X139375693Y-104677005D01*
X139289505Y-104647406D01*
X139211528Y-104616408D01*
X139143088Y-104584567D01*
X139085510Y-104552441D01*
X139040120Y-104520586D01*
X139015857Y-104498266D01*
X139002781Y-104483987D01*
X138999193Y-104478024D01*
X139004640Y-104478116D01*
X139004640Y-104478116D01*
G37*
X139004640Y-104478116D02*
X139012229Y-104480188D01*
X139025250Y-104485044D01*
X139048453Y-104494797D01*
X139078883Y-104508168D01*
X139113588Y-104523875D01*
X139124714Y-104529000D01*
X139225779Y-104573835D01*
X139319989Y-104611284D01*
X139411929Y-104642897D01*
X139506182Y-104670226D01*
X139607332Y-104694821D01*
X139629086Y-104699611D01*
X139748829Y-104725574D01*
X139976736Y-104728863D01*
X140046655Y-104729517D01*
X140114993Y-104729492D01*
X140179000Y-104728827D01*
X140235922Y-104727561D01*
X140283007Y-104725733D01*
X140308531Y-104724148D01*
X140453376Y-104707952D01*
X140604266Y-104681611D01*
X140757786Y-104645985D01*
X140910517Y-104601934D01*
X141059043Y-104550319D01*
X141159172Y-104509938D01*
X141186923Y-104498452D01*
X141210026Y-104489644D01*
X141224970Y-104484820D01*
X141228115Y-104484297D01*
X141230748Y-104488021D01*
X141222894Y-104497579D01*
X141206583Y-104511460D01*
X141183843Y-104528149D01*
X141156706Y-104546134D01*
X141127200Y-104563903D01*
X141105091Y-104575993D01*
X141049132Y-104603744D01*
X140993843Y-104628050D01*
X140936717Y-104649718D01*
X140875248Y-104669556D01*
X140806928Y-104688372D01*
X140729249Y-104706971D01*
X140639706Y-104726162D01*
X140636917Y-104726733D01*
X140534148Y-104745643D01*
X140427545Y-104761336D01*
X140320227Y-104773541D01*
X140215310Y-104781989D01*
X140115912Y-104786408D01*
X140025151Y-104786528D01*
X139973800Y-104784274D01*
X139916729Y-104779731D01*
X139853449Y-104773311D01*
X139787440Y-104765480D01*
X139722177Y-104756704D01*
X139661139Y-104747449D01*
X139607802Y-104738182D01*
X139567400Y-104729783D01*
X139468767Y-104704650D01*
X139375693Y-104677005D01*
X139289505Y-104647406D01*
X139211528Y-104616408D01*
X139143088Y-104584567D01*
X139085510Y-104552441D01*
X139040120Y-104520586D01*
X139015857Y-104498266D01*
X139002781Y-104483987D01*
X138999193Y-104478024D01*
X139004640Y-104478116D01*
G36*
X140492340Y-103885219D02*
X140600981Y-103927698D01*
X140705567Y-103982841D01*
X140804234Y-104049247D01*
X140895117Y-104125514D01*
X140976355Y-104210238D01*
X141045774Y-104301559D01*
X141072719Y-104341845D01*
X141049403Y-104352031D01*
X140964427Y-104386115D01*
X140868698Y-104419242D01*
X140765979Y-104450406D01*
X140660029Y-104478598D01*
X140554611Y-104502810D01*
X140453486Y-104522036D01*
X140369314Y-104534235D01*
X140332617Y-104537924D01*
X140286995Y-104541441D01*
X140234807Y-104544704D01*
X140178411Y-104547630D01*
X140120165Y-104550138D01*
X140062428Y-104552143D01*
X140007558Y-104553564D01*
X139957914Y-104554318D01*
X139915855Y-104554322D01*
X139883738Y-104553493D01*
X139864943Y-104551915D01*
X139777425Y-104537834D01*
X139701441Y-104524159D01*
X139634054Y-104510196D01*
X139572326Y-104495250D01*
X139513318Y-104478627D01*
X139454093Y-104459633D01*
X139411346Y-104444702D01*
X139366620Y-104428013D01*
X139319429Y-104409344D01*
X139273771Y-104390359D01*
X139233644Y-104372723D01*
X139203047Y-104358100D01*
X139201927Y-104357523D01*
X139179173Y-104345757D01*
X139198986Y-104315092D01*
X139235642Y-104263655D01*
X139280896Y-104208637D01*
X139331147Y-104154317D01*
X139350795Y-104134757D01*
X139433433Y-104061165D01*
X139517932Y-103999972D01*
X139607651Y-103949139D01*
X139705947Y-103906627D01*
X139755258Y-103889209D01*
X139812488Y-103870230D01*
X139873040Y-103901665D01*
X139926353Y-103925431D01*
X139981534Y-103941576D01*
X140042351Y-103950899D01*
X140112571Y-103954198D01*
X140120801Y-103954228D01*
X140191576Y-103951883D01*
X140251910Y-103944287D01*
X140305186Y-103930601D01*
X140354792Y-103909984D01*
X140398180Y-103885388D01*
X140430308Y-103865107D01*
X140492340Y-103885219D01*
X140492340Y-103885219D01*
G37*
X140492340Y-103885219D02*
X140600981Y-103927698D01*
X140705567Y-103982841D01*
X140804234Y-104049247D01*
X140895117Y-104125514D01*
X140976355Y-104210238D01*
X141045774Y-104301559D01*
X141072719Y-104341845D01*
X141049403Y-104352031D01*
X140964427Y-104386115D01*
X140868698Y-104419242D01*
X140765979Y-104450406D01*
X140660029Y-104478598D01*
X140554611Y-104502810D01*
X140453486Y-104522036D01*
X140369314Y-104534235D01*
X140332617Y-104537924D01*
X140286995Y-104541441D01*
X140234807Y-104544704D01*
X140178411Y-104547630D01*
X140120165Y-104550138D01*
X140062428Y-104552143D01*
X140007558Y-104553564D01*
X139957914Y-104554318D01*
X139915855Y-104554322D01*
X139883738Y-104553493D01*
X139864943Y-104551915D01*
X139777425Y-104537834D01*
X139701441Y-104524159D01*
X139634054Y-104510196D01*
X139572326Y-104495250D01*
X139513318Y-104478627D01*
X139454093Y-104459633D01*
X139411346Y-104444702D01*
X139366620Y-104428013D01*
X139319429Y-104409344D01*
X139273771Y-104390359D01*
X139233644Y-104372723D01*
X139203047Y-104358100D01*
X139201927Y-104357523D01*
X139179173Y-104345757D01*
X139198986Y-104315092D01*
X139235642Y-104263655D01*
X139280896Y-104208637D01*
X139331147Y-104154317D01*
X139350795Y-104134757D01*
X139433433Y-104061165D01*
X139517932Y-103999972D01*
X139607651Y-103949139D01*
X139705947Y-103906627D01*
X139755258Y-103889209D01*
X139812488Y-103870230D01*
X139873040Y-103901665D01*
X139926353Y-103925431D01*
X139981534Y-103941576D01*
X140042351Y-103950899D01*
X140112571Y-103954198D01*
X140120801Y-103954228D01*
X140191576Y-103951883D01*
X140251910Y-103944287D01*
X140305186Y-103930601D01*
X140354792Y-103909984D01*
X140398180Y-103885388D01*
X140430308Y-103865107D01*
X140492340Y-103885219D01*
G36*
X140177738Y-103610834D02*
X140218673Y-103632612D01*
X140238064Y-103649312D01*
X140257749Y-103671568D01*
X140274798Y-103695378D01*
X140286280Y-103716736D01*
X140289486Y-103729347D01*
X140282834Y-103741292D01*
X140264863Y-103754326D01*
X140238554Y-103767042D01*
X140206886Y-103778031D01*
X140172839Y-103785885D01*
X140168353Y-103786608D01*
X140142031Y-103790421D01*
X140121431Y-103793028D01*
X140110662Y-103793913D01*
X140110296Y-103793889D01*
X140100693Y-103792222D01*
X140081035Y-103788490D01*
X140055497Y-103783487D01*
X140054381Y-103783265D01*
X140024060Y-103775335D01*
X139995224Y-103764643D01*
X139976703Y-103755038D01*
X139959990Y-103743152D01*
X139953286Y-103733920D01*
X139954275Y-103722331D01*
X139957290Y-103713047D01*
X139966637Y-103696037D01*
X139983279Y-103674131D01*
X140003633Y-103652041D01*
X140003855Y-103651823D01*
X140028040Y-103629969D01*
X140048907Y-103616403D01*
X140071960Y-103607887D01*
X140083100Y-103605152D01*
X140131694Y-103600926D01*
X140177738Y-103610834D01*
X140177738Y-103610834D01*
G37*
X140177738Y-103610834D02*
X140218673Y-103632612D01*
X140238064Y-103649312D01*
X140257749Y-103671568D01*
X140274798Y-103695378D01*
X140286280Y-103716736D01*
X140289486Y-103729347D01*
X140282834Y-103741292D01*
X140264863Y-103754326D01*
X140238554Y-103767042D01*
X140206886Y-103778031D01*
X140172839Y-103785885D01*
X140168353Y-103786608D01*
X140142031Y-103790421D01*
X140121431Y-103793028D01*
X140110662Y-103793913D01*
X140110296Y-103793889D01*
X140100693Y-103792222D01*
X140081035Y-103788490D01*
X140055497Y-103783487D01*
X140054381Y-103783265D01*
X140024060Y-103775335D01*
X139995224Y-103764643D01*
X139976703Y-103755038D01*
X139959990Y-103743152D01*
X139953286Y-103733920D01*
X139954275Y-103722331D01*
X139957290Y-103713047D01*
X139966637Y-103696037D01*
X139983279Y-103674131D01*
X140003633Y-103652041D01*
X140003855Y-103651823D01*
X140028040Y-103629969D01*
X140048907Y-103616403D01*
X140071960Y-103607887D01*
X140083100Y-103605152D01*
X140131694Y-103600926D01*
X140177738Y-103610834D01*
D12*
X133485715Y-115702381D02*
X133152381Y-115226190D01*
X132914286Y-115702381D02*
X132914286Y-114702381D01*
X133295239Y-114702381D01*
X133390477Y-114750000D01*
X133438096Y-114797619D01*
X133485715Y-114892857D01*
X133485715Y-115035714D01*
X133438096Y-115130952D01*
X133390477Y-115178571D01*
X133295239Y-115226190D01*
X132914286Y-115226190D01*
X134247620Y-115178571D02*
X133914286Y-115178571D01*
X133914286Y-115702381D02*
X133914286Y-114702381D01*
X134390477Y-114702381D01*
X134771429Y-115702381D02*
X134771429Y-114702381D01*
X135104763Y-115416667D01*
X135438096Y-114702381D01*
X135438096Y-115702381D01*
X136342858Y-114702381D02*
X136152381Y-114702381D01*
X136057143Y-114750000D01*
X136009524Y-114797619D01*
X135914286Y-114940476D01*
X135866667Y-115130952D01*
X135866667Y-115511905D01*
X135914286Y-115607143D01*
X135961905Y-115654762D01*
X136057143Y-115702381D01*
X136247620Y-115702381D01*
X136342858Y-115654762D01*
X136390477Y-115607143D01*
X136438096Y-115511905D01*
X136438096Y-115273810D01*
X136390477Y-115178571D01*
X136342858Y-115130952D01*
X136247620Y-115083333D01*
X136057143Y-115083333D01*
X135961905Y-115130952D01*
X135914286Y-115178571D01*
X135866667Y-115273810D01*
X136914286Y-115702381D02*
X137104762Y-115702381D01*
X137200001Y-115654762D01*
X137247620Y-115607143D01*
X137342858Y-115464286D01*
X137390477Y-115273810D01*
X137390477Y-114892857D01*
X137342858Y-114797619D01*
X137295239Y-114750000D01*
X137200001Y-114702381D01*
X137009524Y-114702381D01*
X136914286Y-114750000D01*
X136866667Y-114797619D01*
X136819048Y-114892857D01*
X136819048Y-115130952D01*
X136866667Y-115226190D01*
X136914286Y-115273810D01*
X137009524Y-115321429D01*
X137200001Y-115321429D01*
X137295239Y-115273810D01*
X137342858Y-115226190D01*
X137390477Y-115130952D01*
X137723810Y-114702381D02*
X137961905Y-115702381D01*
X138152382Y-114988095D01*
X138342858Y-115702381D01*
X138580953Y-114702381D01*
X136857143Y-131666667D02*
X137333334Y-131666667D01*
X136761905Y-131952381D02*
X137095238Y-130952381D01*
X137428572Y-131952381D01*
X137761905Y-131952381D02*
X137761905Y-130952381D01*
X138333334Y-131952381D01*
X138333334Y-130952381D01*
X138666667Y-130952381D02*
X139238096Y-130952381D01*
X138952381Y-131952381D02*
X138952381Y-130952381D01*
X118409524Y-88402381D02*
X119028572Y-88402381D01*
X118695238Y-88783333D01*
X118838096Y-88783333D01*
X118933334Y-88830952D01*
X118980953Y-88878571D01*
X119028572Y-88973810D01*
X119028572Y-89211905D01*
X118980953Y-89307143D01*
X118933334Y-89354762D01*
X118838096Y-89402381D01*
X118552381Y-89402381D01*
X118457143Y-89354762D01*
X118409524Y-89307143D01*
X119361905Y-88735714D02*
X119600000Y-89402381D01*
X119838096Y-88735714D01*
X120123810Y-88402381D02*
X120742858Y-88402381D01*
X120409524Y-88783333D01*
X120552382Y-88783333D01*
X120647620Y-88830952D01*
X120695239Y-88878571D01*
X120742858Y-88973810D01*
X120742858Y-89211905D01*
X120695239Y-89307143D01*
X120647620Y-89354762D01*
X120552382Y-89402381D01*
X120266667Y-89402381D01*
X120171429Y-89354762D01*
X120123810Y-89307143D01*
X122188096Y-88450000D02*
X122092858Y-88402381D01*
X121950001Y-88402381D01*
X121807143Y-88450000D01*
X121711905Y-88545238D01*
X121664286Y-88640476D01*
X121616667Y-88830952D01*
X121616667Y-88973810D01*
X121664286Y-89164286D01*
X121711905Y-89259524D01*
X121807143Y-89354762D01*
X121950001Y-89402381D01*
X122045239Y-89402381D01*
X122188096Y-89354762D01*
X122235715Y-89307143D01*
X122235715Y-88973810D01*
X122045239Y-88973810D01*
X122664286Y-89402381D02*
X122664286Y-88402381D01*
X123235715Y-89402381D01*
X123235715Y-88402381D01*
X123711905Y-89402381D02*
X123711905Y-88402381D01*
X123950000Y-88402381D01*
X124092858Y-88450000D01*
X124188096Y-88545238D01*
X124235715Y-88640476D01*
X124283334Y-88830952D01*
X124283334Y-88973810D01*
X124235715Y-89164286D01*
X124188096Y-89259524D01*
X124092858Y-89354762D01*
X123950000Y-89402381D01*
X123711905Y-89402381D01*
X127514286Y-107054762D02*
X127657143Y-107102381D01*
X127895239Y-107102381D01*
X127990477Y-107054762D01*
X128038096Y-107007143D01*
X128085715Y-106911905D01*
X128085715Y-106816667D01*
X128038096Y-106721429D01*
X127990477Y-106673810D01*
X127895239Y-106626190D01*
X127704762Y-106578571D01*
X127609524Y-106530952D01*
X127561905Y-106483333D01*
X127514286Y-106388095D01*
X127514286Y-106292857D01*
X127561905Y-106197619D01*
X127609524Y-106150000D01*
X127704762Y-106102381D01*
X127942858Y-106102381D01*
X128085715Y-106150000D01*
X129085715Y-107007143D02*
X129038096Y-107054762D01*
X128895239Y-107102381D01*
X128800001Y-107102381D01*
X128657143Y-107054762D01*
X128561905Y-106959524D01*
X128514286Y-106864286D01*
X128466667Y-106673810D01*
X128466667Y-106530952D01*
X128514286Y-106340476D01*
X128561905Y-106245238D01*
X128657143Y-106150000D01*
X128800001Y-106102381D01*
X128895239Y-106102381D01*
X129038096Y-106150000D01*
X129085715Y-106197619D01*
X129514286Y-107102381D02*
X129514286Y-106102381D01*
X130085715Y-107102381D02*
X129657143Y-106530952D01*
X130085715Y-106102381D02*
X129514286Y-106673810D01*
X127535714Y-105654762D02*
X127678571Y-105702381D01*
X127916667Y-105702381D01*
X128011905Y-105654762D01*
X128059524Y-105607143D01*
X128107143Y-105511905D01*
X128107143Y-105416667D01*
X128059524Y-105321429D01*
X128011905Y-105273810D01*
X127916667Y-105226190D01*
X127726190Y-105178571D01*
X127630952Y-105130952D01*
X127583333Y-105083333D01*
X127535714Y-104988095D01*
X127535714Y-104892857D01*
X127583333Y-104797619D01*
X127630952Y-104750000D01*
X127726190Y-104702381D01*
X127964286Y-104702381D01*
X128107143Y-104750000D01*
X128535714Y-105702381D02*
X128535714Y-104702381D01*
X128773809Y-104702381D01*
X128916667Y-104750000D01*
X129011905Y-104845238D01*
X129059524Y-104940476D01*
X129107143Y-105130952D01*
X129107143Y-105273810D01*
X129059524Y-105464286D01*
X129011905Y-105559524D01*
X128916667Y-105654762D01*
X128773809Y-105702381D01*
X128535714Y-105702381D01*
X129488095Y-105416667D02*
X129964286Y-105416667D01*
X129392857Y-105702381D02*
X129726190Y-104702381D01*
X130059524Y-105702381D01*
M02*
