G04 #@! TF.FileFunction,Copper,L2,Bot,Signal*
%FSLAX46Y46*%
G04 Gerber Fmt 4.6, Leading zero omitted, Abs format (unit mm)*
G04 Created by KiCad (PCBNEW (2016-05-05 BZR 6775)-product) date Monday, 20 June 2016 'amt' 00:23:14*
%MOMM*%
%LPD*%
G01*
G04 APERTURE LIST*
%ADD10C,0.100000*%
%ADD11C,2.000000*%
%ADD12C,1.800000*%
%ADD13R,2.000000X2.000000*%
%ADD14C,0.750000*%
%ADD15C,0.600000*%
%ADD16R,5.080000X2.413000*%
%ADD17C,0.960000*%
%ADD18C,0.250000*%
%ADD19C,0.500000*%
%ADD20C,0.200000*%
G04 APERTURE END LIST*
D10*
D11*
X126000000Y-140500000D03*
X126000000Y-88500000D03*
D12*
X116100000Y-97500000D03*
D13*
X138800000Y-135540000D03*
D11*
X138800000Y-133000000D03*
D12*
X121500000Y-89500000D03*
X129500000Y-89500000D03*
D14*
X124300000Y-120050000D03*
X122800000Y-119650000D03*
D15*
X130450000Y-124300000D03*
X132950000Y-124300000D03*
X135450000Y-124300000D03*
X130450000Y-121800000D03*
X132950000Y-121800000D03*
X135450000Y-121800000D03*
X130450000Y-119300000D03*
X132950000Y-119300000D03*
X135450000Y-119300000D03*
D16*
X114500000Y-101931500D03*
X114500000Y-93168500D03*
D17*
X130130000Y-142040000D03*
X128700000Y-138030000D03*
X137350000Y-119800000D03*
X125350000Y-123300000D03*
X114500000Y-101931500D03*
X114500000Y-93168500D03*
X134400000Y-115650000D03*
X124200000Y-137300000D03*
X119200000Y-111850000D03*
X123250000Y-95500000D03*
X131000000Y-91500000D03*
X114100000Y-118650000D03*
X116900000Y-116800000D03*
X113350000Y-130850000D03*
X113250000Y-124550000D03*
X121550000Y-126350000D03*
X127700000Y-130100000D03*
X130100000Y-130000000D03*
X133600000Y-130000000D03*
X139200000Y-129600000D03*
X140200000Y-112400000D03*
X131700000Y-139850000D03*
X129850000Y-139800000D03*
X123550000Y-108400000D03*
X120350000Y-109950000D03*
X139300000Y-117700000D03*
X113150000Y-108500000D03*
X115200000Y-108450000D03*
X136000000Y-127400000D03*
X131420000Y-142070000D03*
X132520000Y-138520000D03*
X140350000Y-117150000D03*
X136200000Y-128800000D03*
X121550000Y-122100000D03*
X119688150Y-119205000D03*
X121550000Y-120950000D03*
X131500000Y-113900000D03*
X133150000Y-115500000D03*
X130500000Y-114900000D03*
X132100000Y-116500000D03*
X135000000Y-126200000D03*
X135000000Y-130200000D03*
X125950000Y-126650000D03*
X129400000Y-126250000D03*
D18*
X130130000Y-142040000D02*
X128710000Y-140620000D01*
X128710000Y-140620000D02*
X128710000Y-140440000D01*
X128710000Y-140440000D02*
X128710000Y-138020000D01*
D19*
X123550000Y-108400000D02*
X122000000Y-109950000D01*
X122000000Y-109950000D02*
X120350000Y-109950000D01*
D18*
X140000000Y-121800000D02*
X140000000Y-119150000D01*
X140000000Y-119150000D02*
X140000000Y-118850000D01*
X139300000Y-117700000D02*
X140000000Y-118400000D01*
X140000000Y-118400000D02*
X140000000Y-119150000D01*
X115200000Y-108450000D02*
X113200000Y-108450000D01*
X113200000Y-108450000D02*
X113150000Y-108500000D01*
X137000000Y-127400000D02*
X136000000Y-127400000D01*
X139000000Y-127400000D02*
X137000000Y-127400000D01*
X140000000Y-126400000D02*
X139000000Y-127400000D01*
X140000000Y-126200000D02*
X140000000Y-126400000D01*
X140000000Y-121800000D02*
X140000000Y-126200000D01*
X131420000Y-142070000D02*
X132520000Y-140970000D01*
X132520000Y-140970000D02*
X132520000Y-140820000D01*
X132520000Y-140820000D02*
X132520000Y-138520000D01*
X140600000Y-121000000D02*
X140600000Y-117400000D01*
X140600000Y-117400000D02*
X140350000Y-117150000D01*
X139000000Y-128400000D02*
X136600000Y-128400000D01*
X136600000Y-128400000D02*
X136200000Y-128800000D01*
X140600000Y-126800000D02*
X140600000Y-121000000D01*
X139000000Y-128400000D02*
X140600000Y-126800000D01*
X121600000Y-122100000D02*
X123650000Y-120050000D01*
X123650000Y-120050000D02*
X124300000Y-120050000D01*
X121550000Y-122100000D02*
X121600000Y-122100000D01*
X121800000Y-122100000D02*
X121550000Y-122100000D01*
X119688150Y-119942150D02*
X120696000Y-120950000D01*
X120696000Y-120950000D02*
X121550000Y-120950000D01*
X119688150Y-119205000D02*
X119688150Y-119942150D01*
X122800000Y-119650000D02*
X122800000Y-119700000D01*
X122800000Y-119700000D02*
X121550000Y-120950000D01*
X133150000Y-115500000D02*
X133100000Y-115500000D01*
X133100000Y-115500000D02*
X131500000Y-113900000D01*
X132100000Y-116500000D02*
X130500000Y-114900000D01*
X135000000Y-130200000D02*
X135000000Y-126200000D01*
X125950000Y-126650000D02*
X126350000Y-126250000D01*
X126350000Y-126250000D02*
X129400000Y-126250000D01*
D20*
G36*
X139011487Y-86558054D02*
X139868984Y-87131016D01*
X140441946Y-87988511D01*
X140650000Y-89034473D01*
X140650000Y-110898811D01*
X140529603Y-110607428D01*
X140304755Y-110382188D01*
X140010828Y-110260139D01*
X139692568Y-110259861D01*
X139398428Y-110381397D01*
X139173188Y-110606245D01*
X139051139Y-110900172D01*
X139050861Y-111218432D01*
X139172397Y-111512572D01*
X139397245Y-111737812D01*
X139691172Y-111859861D01*
X140009432Y-111860139D01*
X140303572Y-111738603D01*
X140528812Y-111513755D01*
X140650000Y-111221902D01*
X140650000Y-116430000D01*
X140505832Y-116370136D01*
X140195529Y-116369865D01*
X139908743Y-116488363D01*
X139689134Y-116707589D01*
X139579546Y-116971506D01*
X139455832Y-116920136D01*
X139145529Y-116919865D01*
X138858743Y-117038363D01*
X138639134Y-117257589D01*
X138520136Y-117544168D01*
X138519865Y-117854471D01*
X138638363Y-118141257D01*
X138857589Y-118360866D01*
X139144168Y-118479864D01*
X139454471Y-118480135D01*
X139471895Y-118472936D01*
X139575000Y-118576041D01*
X139575000Y-126223959D01*
X138823960Y-126975000D01*
X136668354Y-126975000D01*
X136661637Y-126958743D01*
X136442411Y-126739134D01*
X136155832Y-126620136D01*
X135845529Y-126619865D01*
X135568986Y-126734131D01*
X135660866Y-126642411D01*
X135779864Y-126355832D01*
X135780135Y-126045529D01*
X135661637Y-125758743D01*
X135442411Y-125539134D01*
X135155832Y-125420136D01*
X134845529Y-125419865D01*
X134558743Y-125538363D01*
X134339134Y-125757589D01*
X134220136Y-126044168D01*
X134219865Y-126354471D01*
X134338363Y-126641257D01*
X134557589Y-126860866D01*
X134575000Y-126868096D01*
X134575000Y-129531646D01*
X134558743Y-129538363D01*
X134339134Y-129757589D01*
X134220136Y-130044168D01*
X134219865Y-130354471D01*
X134338363Y-130641257D01*
X134557589Y-130860866D01*
X134844168Y-130979864D01*
X135154471Y-130980135D01*
X135441257Y-130861637D01*
X135660866Y-130642411D01*
X135779864Y-130355832D01*
X135780135Y-130045529D01*
X135661637Y-129758743D01*
X135442411Y-129539134D01*
X135425000Y-129531904D01*
X135425000Y-128966899D01*
X135538363Y-129241257D01*
X135757589Y-129460866D01*
X136044168Y-129579864D01*
X136354471Y-129580135D01*
X136641257Y-129461637D01*
X136860866Y-129242411D01*
X136979864Y-128955832D01*
X136979978Y-128825000D01*
X139000000Y-128825000D01*
X139135657Y-128798016D01*
X139162641Y-128792649D01*
X139300520Y-128700520D01*
X140650000Y-127351041D01*
X140650000Y-139965527D01*
X140441946Y-141011489D01*
X139868984Y-141868984D01*
X139011487Y-142441946D01*
X137965527Y-142650000D01*
X131943037Y-142650000D01*
X132080866Y-142512411D01*
X132199864Y-142225832D01*
X132200135Y-141915529D01*
X132192935Y-141898105D01*
X132820520Y-141270520D01*
X132912649Y-141132641D01*
X132945000Y-140970000D01*
X132945000Y-140326765D01*
X136349715Y-140326765D01*
X136600383Y-140933429D01*
X137064130Y-141397986D01*
X137670355Y-141649713D01*
X138326765Y-141650285D01*
X138933429Y-141399617D01*
X139397986Y-140935870D01*
X139649713Y-140329645D01*
X139650285Y-139673235D01*
X139399617Y-139066571D01*
X138935870Y-138602014D01*
X138329645Y-138350287D01*
X137673235Y-138349715D01*
X137066571Y-138600383D01*
X136602014Y-139064130D01*
X136350287Y-139670355D01*
X136349715Y-140326765D01*
X132945000Y-140326765D01*
X132945000Y-139188354D01*
X132961257Y-139181637D01*
X133180866Y-138962411D01*
X133299864Y-138675832D01*
X133300135Y-138365529D01*
X133181637Y-138078743D01*
X132962411Y-137859134D01*
X132675832Y-137740136D01*
X132365529Y-137739865D01*
X132078743Y-137858363D01*
X131859134Y-138077589D01*
X131740136Y-138364168D01*
X131739865Y-138674471D01*
X131858363Y-138961257D01*
X132077589Y-139180866D01*
X132095000Y-139188096D01*
X132095000Y-140793960D01*
X131592078Y-141296882D01*
X131575832Y-141290136D01*
X131265529Y-141289865D01*
X130978743Y-141408363D01*
X130789837Y-141596940D01*
X130572411Y-141379134D01*
X130285832Y-141260136D01*
X129975529Y-141259865D01*
X129958105Y-141267064D01*
X129135000Y-140443960D01*
X129135000Y-138694222D01*
X129141257Y-138691637D01*
X129360866Y-138472411D01*
X129479864Y-138185832D01*
X129480135Y-137875529D01*
X129361637Y-137588743D01*
X129142411Y-137369134D01*
X128855832Y-137250136D01*
X128545529Y-137249865D01*
X128258743Y-137368363D01*
X128039134Y-137587589D01*
X127920136Y-137874168D01*
X127919865Y-138184471D01*
X128038363Y-138471257D01*
X128257589Y-138690866D01*
X128285000Y-138702248D01*
X128285000Y-140620000D01*
X128308973Y-140740520D01*
X128317351Y-140782641D01*
X128409480Y-140920520D01*
X129356882Y-141867922D01*
X129350136Y-141884168D01*
X129349865Y-142194471D01*
X129468363Y-142481257D01*
X129636812Y-142650000D01*
X115034473Y-142650000D01*
X113988511Y-142441946D01*
X113131016Y-141868984D01*
X112558054Y-141011487D01*
X112421855Y-140326765D01*
X113349715Y-140326765D01*
X113600383Y-140933429D01*
X114064130Y-141397986D01*
X114670355Y-141649713D01*
X115326765Y-141650285D01*
X115933429Y-141399617D01*
X116397986Y-140935870D01*
X116472071Y-140757452D01*
X124699774Y-140757452D01*
X124897271Y-141235429D01*
X125262647Y-141601444D01*
X125740279Y-141799774D01*
X126257452Y-141800226D01*
X126735429Y-141602729D01*
X127101444Y-141237353D01*
X127299774Y-140759721D01*
X127300226Y-140242548D01*
X127102729Y-139764571D01*
X126737353Y-139398556D01*
X126259721Y-139200226D01*
X125742548Y-139199774D01*
X125264571Y-139397271D01*
X124898556Y-139762647D01*
X124700226Y-140240279D01*
X124699774Y-140757452D01*
X116472071Y-140757452D01*
X116649713Y-140329645D01*
X116650285Y-139673235D01*
X116399617Y-139066571D01*
X115935870Y-138602014D01*
X115329645Y-138350287D01*
X114673235Y-138349715D01*
X114066571Y-138600383D01*
X113602014Y-139064130D01*
X113350287Y-139670355D01*
X113349715Y-140326765D01*
X112421855Y-140326765D01*
X112350000Y-139965527D01*
X112350000Y-134540000D01*
X137494123Y-134540000D01*
X137494123Y-136540000D01*
X137517407Y-136657054D01*
X137583712Y-136756288D01*
X137682946Y-136822593D01*
X137800000Y-136845877D01*
X139800000Y-136845877D01*
X139917054Y-136822593D01*
X140016288Y-136756288D01*
X140082593Y-136657054D01*
X140105877Y-136540000D01*
X140105877Y-134540000D01*
X140082593Y-134422946D01*
X140016288Y-134323712D01*
X139917054Y-134257407D01*
X139800000Y-134234123D01*
X139217433Y-134234123D01*
X139535429Y-134102729D01*
X139901444Y-133737353D01*
X140099774Y-133259721D01*
X140100226Y-132742548D01*
X139902729Y-132264571D01*
X139537353Y-131898556D01*
X139059721Y-131700226D01*
X138542548Y-131699774D01*
X138064571Y-131897271D01*
X137698556Y-132262647D01*
X137500226Y-132740279D01*
X137499774Y-133257452D01*
X137697271Y-133735429D01*
X138062647Y-134101444D01*
X138382174Y-134234123D01*
X137800000Y-134234123D01*
X137682946Y-134257407D01*
X137583712Y-134323712D01*
X137517407Y-134422946D01*
X137494123Y-134540000D01*
X112350000Y-134540000D01*
X112350000Y-126804471D01*
X125169865Y-126804471D01*
X125288363Y-127091257D01*
X125507589Y-127310866D01*
X125794168Y-127429864D01*
X126104471Y-127430135D01*
X126391257Y-127311637D01*
X126610866Y-127092411D01*
X126729864Y-126805832D01*
X126729978Y-126675000D01*
X128731646Y-126675000D01*
X128738363Y-126691257D01*
X128957589Y-126910866D01*
X129244168Y-127029864D01*
X129554471Y-127030135D01*
X129841257Y-126911637D01*
X130060866Y-126692411D01*
X130179864Y-126405832D01*
X130180135Y-126095529D01*
X130061637Y-125808743D01*
X129842411Y-125589134D01*
X129555832Y-125470136D01*
X129245529Y-125469865D01*
X128958743Y-125588363D01*
X128739134Y-125807589D01*
X128731904Y-125825000D01*
X126350000Y-125825000D01*
X126187360Y-125857351D01*
X126187358Y-125857352D01*
X126187359Y-125857352D01*
X126144313Y-125886115D01*
X126105832Y-125870136D01*
X125795529Y-125869865D01*
X125508743Y-125988363D01*
X125289134Y-126207589D01*
X125170136Y-126494168D01*
X125169865Y-126804471D01*
X112350000Y-126804471D01*
X112350000Y-119950000D01*
X112800000Y-119950000D01*
X112853284Y-120217878D01*
X113005025Y-120444975D01*
X113232122Y-120596716D01*
X113500000Y-120650000D01*
X117850000Y-120650000D01*
X118117878Y-120596716D01*
X118344975Y-120444975D01*
X118496716Y-120217878D01*
X118550000Y-119950000D01*
X118496716Y-119682122D01*
X118344975Y-119455025D01*
X118117878Y-119303284D01*
X117850000Y-119250000D01*
X113500000Y-119250000D01*
X113232122Y-119303284D01*
X113005025Y-119455025D01*
X112853284Y-119682122D01*
X112800000Y-119950000D01*
X112350000Y-119950000D01*
X112350000Y-114150000D01*
X112800000Y-114150000D01*
X112853284Y-114417878D01*
X113005025Y-114644975D01*
X113232122Y-114796716D01*
X113500000Y-114850000D01*
X119650000Y-114850000D01*
X119650000Y-118250000D01*
X119684809Y-118424997D01*
X119533679Y-118424865D01*
X119246893Y-118543363D01*
X119027284Y-118762589D01*
X118908286Y-119049168D01*
X118908015Y-119359471D01*
X119026513Y-119646257D01*
X119245739Y-119865866D01*
X119263150Y-119873096D01*
X119263150Y-119942150D01*
X119284603Y-120050000D01*
X119295501Y-120104791D01*
X119387630Y-120242670D01*
X120395480Y-121250520D01*
X120533359Y-121342649D01*
X120560343Y-121348016D01*
X120696000Y-121375000D01*
X120881646Y-121375000D01*
X120888363Y-121391257D01*
X121021914Y-121525041D01*
X120889134Y-121657589D01*
X120770136Y-121944168D01*
X120769865Y-122254471D01*
X120888363Y-122541257D01*
X121107589Y-122760866D01*
X121394168Y-122879864D01*
X121704471Y-122880135D01*
X121991257Y-122761637D01*
X122210866Y-122542411D01*
X122329864Y-122255832D01*
X122330113Y-121970927D01*
X123798245Y-120502796D01*
X123917144Y-120621903D01*
X124165145Y-120724883D01*
X124433677Y-120725117D01*
X124681857Y-120622571D01*
X124871903Y-120432856D01*
X124974883Y-120184855D01*
X124975117Y-119916323D01*
X124872571Y-119668143D01*
X124682856Y-119478097D01*
X124434855Y-119375117D01*
X124166323Y-119374883D01*
X123918143Y-119477429D01*
X123770315Y-119625000D01*
X123650000Y-119625000D01*
X123487359Y-119657351D01*
X123474987Y-119665618D01*
X123475117Y-119516323D01*
X123372571Y-119268143D01*
X123182856Y-119078097D01*
X122934855Y-118975117D01*
X122666323Y-118974883D01*
X122418143Y-119077429D01*
X122228097Y-119267144D01*
X122125117Y-119515145D01*
X122124891Y-119774069D01*
X121722078Y-120176882D01*
X121705832Y-120170136D01*
X121395529Y-120169865D01*
X121108743Y-120288363D01*
X120889134Y-120507589D01*
X120881904Y-120525000D01*
X120872040Y-120525000D01*
X120171579Y-119824539D01*
X120349016Y-119647411D01*
X120468014Y-119360832D01*
X120468285Y-119050529D01*
X120420918Y-118935894D01*
X120617878Y-118896716D01*
X120844975Y-118744975D01*
X120996716Y-118517878D01*
X121050000Y-118250000D01*
X121050000Y-115054471D01*
X129719865Y-115054471D01*
X129838363Y-115341257D01*
X130057589Y-115560866D01*
X130344168Y-115679864D01*
X130654471Y-115680135D01*
X130671895Y-115672935D01*
X131326882Y-116327922D01*
X131320136Y-116344168D01*
X131319865Y-116654471D01*
X131438363Y-116941257D01*
X131657589Y-117160866D01*
X131944168Y-117279864D01*
X132254471Y-117280135D01*
X132541257Y-117161637D01*
X132760866Y-116942411D01*
X132879864Y-116655832D01*
X132880135Y-116345529D01*
X132860675Y-116298432D01*
X138034861Y-116298432D01*
X138156397Y-116592572D01*
X138381245Y-116817812D01*
X138675172Y-116939861D01*
X138993432Y-116940139D01*
X139287572Y-116818603D01*
X139512812Y-116593755D01*
X139634861Y-116299828D01*
X139635139Y-115981568D01*
X139513603Y-115687428D01*
X139288755Y-115462188D01*
X138994828Y-115340139D01*
X138676568Y-115339861D01*
X138382428Y-115461397D01*
X138157188Y-115686245D01*
X138035139Y-115980172D01*
X138034861Y-116298432D01*
X132860675Y-116298432D01*
X132823766Y-116209107D01*
X132994168Y-116279864D01*
X133304471Y-116280135D01*
X133591257Y-116161637D01*
X133810866Y-115942411D01*
X133929864Y-115655832D01*
X133930135Y-115345529D01*
X133811637Y-115058743D01*
X133592411Y-114839134D01*
X133305832Y-114720136D01*
X132995529Y-114719865D01*
X132942724Y-114741684D01*
X132273118Y-114072078D01*
X132279864Y-114055832D01*
X132280135Y-113745529D01*
X132161637Y-113458743D01*
X131942411Y-113239134D01*
X131655832Y-113120136D01*
X131345529Y-113119865D01*
X131058743Y-113238363D01*
X130839134Y-113457589D01*
X130720136Y-113744168D01*
X130719865Y-114054471D01*
X130765878Y-114165831D01*
X130655832Y-114120136D01*
X130345529Y-114119865D01*
X130058743Y-114238363D01*
X129839134Y-114457589D01*
X129720136Y-114744168D01*
X129719865Y-115054471D01*
X121050000Y-115054471D01*
X121050000Y-114150000D01*
X120996716Y-113882122D01*
X120844975Y-113655025D01*
X120617878Y-113503284D01*
X120350000Y-113450000D01*
X113500000Y-113450000D01*
X113232122Y-113503284D01*
X113005025Y-113655025D01*
X112853284Y-113882122D01*
X112800000Y-114150000D01*
X112350000Y-114150000D01*
X112350000Y-111218432D01*
X137018861Y-111218432D01*
X137140397Y-111512572D01*
X137365245Y-111737812D01*
X137659172Y-111859861D01*
X137977432Y-111860139D01*
X138271572Y-111738603D01*
X138496812Y-111513755D01*
X138618861Y-111219828D01*
X138619139Y-110901568D01*
X138497603Y-110607428D01*
X138272755Y-110382188D01*
X137978828Y-110260139D01*
X137660568Y-110259861D01*
X137366428Y-110381397D01*
X137141188Y-110606245D01*
X137019139Y-110900172D01*
X137018861Y-111218432D01*
X112350000Y-111218432D01*
X112350000Y-110104471D01*
X119569865Y-110104471D01*
X119688363Y-110391257D01*
X119907589Y-110610866D01*
X120194168Y-110729864D01*
X120504471Y-110730135D01*
X120791257Y-110611637D01*
X120903089Y-110500000D01*
X122000000Y-110500000D01*
X122210476Y-110458134D01*
X122388909Y-110338909D01*
X123547820Y-109179998D01*
X123704471Y-109180135D01*
X123991257Y-109061637D01*
X124210866Y-108842411D01*
X124329864Y-108555832D01*
X124330135Y-108245529D01*
X124211637Y-107958743D01*
X123992411Y-107739134D01*
X123705832Y-107620136D01*
X123395529Y-107619865D01*
X123108743Y-107738363D01*
X122889134Y-107957589D01*
X122770136Y-108244168D01*
X122769998Y-108402184D01*
X121772182Y-109400000D01*
X120903084Y-109400000D01*
X120792411Y-109289134D01*
X120505832Y-109170136D01*
X120195529Y-109169865D01*
X119908743Y-109288363D01*
X119689134Y-109507589D01*
X119570136Y-109794168D01*
X119569865Y-110104471D01*
X112350000Y-110104471D01*
X112350000Y-108654471D01*
X112369865Y-108654471D01*
X112488363Y-108941257D01*
X112707589Y-109160866D01*
X112994168Y-109279864D01*
X113304471Y-109280135D01*
X113591257Y-109161637D01*
X113810866Y-108942411D01*
X113838857Y-108875000D01*
X114531646Y-108875000D01*
X114538363Y-108891257D01*
X114757589Y-109110866D01*
X115044168Y-109229864D01*
X115354471Y-109230135D01*
X115641257Y-109111637D01*
X115860866Y-108892411D01*
X115979864Y-108605832D01*
X115980135Y-108295529D01*
X115861637Y-108008743D01*
X115642411Y-107789134D01*
X115355832Y-107670136D01*
X115045529Y-107669865D01*
X114758743Y-107788363D01*
X114539134Y-108007589D01*
X114531904Y-108025000D01*
X113777953Y-108025000D01*
X113592411Y-107839134D01*
X113305832Y-107720136D01*
X112995529Y-107719865D01*
X112708743Y-107838363D01*
X112489134Y-108057589D01*
X112370136Y-108344168D01*
X112369865Y-108654471D01*
X112350000Y-108654471D01*
X112350000Y-103438000D01*
X114275000Y-103438000D01*
X114350000Y-103363000D01*
X114350000Y-102081500D01*
X114650000Y-102081500D01*
X114650000Y-103363000D01*
X114725000Y-103438000D01*
X117099673Y-103438000D01*
X117209936Y-103392328D01*
X117294328Y-103307937D01*
X117340000Y-103197674D01*
X117340000Y-102156500D01*
X117265000Y-102081500D01*
X114650000Y-102081500D01*
X114350000Y-102081500D01*
X114330000Y-102081500D01*
X114330000Y-101781500D01*
X114350000Y-101781500D01*
X114350000Y-100500000D01*
X114650000Y-100500000D01*
X114650000Y-101781500D01*
X117265000Y-101781500D01*
X117340000Y-101706500D01*
X117340000Y-100665326D01*
X117294328Y-100555063D01*
X117209936Y-100470672D01*
X117099673Y-100425000D01*
X114725000Y-100425000D01*
X114650000Y-100500000D01*
X114350000Y-100500000D01*
X114275000Y-100425000D01*
X112350000Y-100425000D01*
X112350000Y-97737647D01*
X114899793Y-97737647D01*
X115082097Y-98178857D01*
X115419367Y-98516717D01*
X115860258Y-98699791D01*
X116337647Y-98700207D01*
X116778857Y-98517903D01*
X117116717Y-98180633D01*
X117299791Y-97739742D01*
X117300207Y-97262353D01*
X117117903Y-96821143D01*
X116780633Y-96483283D01*
X116339742Y-96300209D01*
X115862353Y-96299793D01*
X115421143Y-96482097D01*
X115083283Y-96819367D01*
X114900209Y-97260258D01*
X114899793Y-97737647D01*
X112350000Y-97737647D01*
X112350000Y-94675000D01*
X114275000Y-94675000D01*
X114350000Y-94600000D01*
X114350000Y-93318500D01*
X114650000Y-93318500D01*
X114650000Y-94600000D01*
X114725000Y-94675000D01*
X117099673Y-94675000D01*
X117209936Y-94629328D01*
X117294328Y-94544937D01*
X117340000Y-94434674D01*
X117340000Y-93393500D01*
X117265000Y-93318500D01*
X114650000Y-93318500D01*
X114350000Y-93318500D01*
X114330000Y-93318500D01*
X114330000Y-93018500D01*
X114350000Y-93018500D01*
X114350000Y-91737000D01*
X114650000Y-91737000D01*
X114650000Y-93018500D01*
X117265000Y-93018500D01*
X117340000Y-92943500D01*
X117340000Y-91902326D01*
X117294328Y-91792063D01*
X117209936Y-91707672D01*
X117099673Y-91662000D01*
X114725000Y-91662000D01*
X114650000Y-91737000D01*
X114350000Y-91737000D01*
X114275000Y-91662000D01*
X112350000Y-91662000D01*
X112350000Y-89326765D01*
X113349715Y-89326765D01*
X113600383Y-89933429D01*
X114064130Y-90397986D01*
X114670355Y-90649713D01*
X115326765Y-90650285D01*
X115933429Y-90399617D01*
X115972841Y-90360273D01*
X120682153Y-90360273D01*
X120775352Y-90548431D01*
X121231729Y-90745935D01*
X121728949Y-90753756D01*
X122191314Y-90570705D01*
X122224648Y-90548431D01*
X122317847Y-90360273D01*
X121500000Y-89542426D01*
X120682153Y-90360273D01*
X115972841Y-90360273D01*
X116397986Y-89935870D01*
X116483907Y-89728949D01*
X120246244Y-89728949D01*
X120429295Y-90191314D01*
X120451569Y-90224648D01*
X120639727Y-90317847D01*
X121457574Y-89500000D01*
X121542426Y-89500000D01*
X122360273Y-90317847D01*
X122548431Y-90224648D01*
X122745935Y-89768271D01*
X122751218Y-89432390D01*
X125110036Y-89432390D01*
X125215406Y-89630939D01*
X125707921Y-89845102D01*
X126244903Y-89854486D01*
X126541533Y-89737647D01*
X128299793Y-89737647D01*
X128482097Y-90178857D01*
X128819367Y-90516717D01*
X129260258Y-90699791D01*
X129737647Y-90700207D01*
X130178857Y-90517903D01*
X130516717Y-90180633D01*
X130699791Y-89739742D01*
X130700150Y-89326765D01*
X136349715Y-89326765D01*
X136600383Y-89933429D01*
X137064130Y-90397986D01*
X137670355Y-90649713D01*
X138326765Y-90650285D01*
X138933429Y-90399617D01*
X139397986Y-89935870D01*
X139649713Y-89329645D01*
X139650285Y-88673235D01*
X139399617Y-88066571D01*
X138935870Y-87602014D01*
X138329645Y-87350287D01*
X137673235Y-87349715D01*
X137066571Y-87600383D01*
X136602014Y-88064130D01*
X136350287Y-88670355D01*
X136349715Y-89326765D01*
X130700150Y-89326765D01*
X130700207Y-89262353D01*
X130517903Y-88821143D01*
X130180633Y-88483283D01*
X129739742Y-88300209D01*
X129262353Y-88299793D01*
X128821143Y-88482097D01*
X128483283Y-88819367D01*
X128300209Y-89260258D01*
X128299793Y-89737647D01*
X126541533Y-89737647D01*
X126744600Y-89657662D01*
X126784594Y-89630939D01*
X126889964Y-89432390D01*
X126000000Y-88542426D01*
X125110036Y-89432390D01*
X122751218Y-89432390D01*
X122753756Y-89271051D01*
X122570705Y-88808686D01*
X122548431Y-88775352D01*
X122486958Y-88744903D01*
X124645514Y-88744903D01*
X124842338Y-89244600D01*
X124869061Y-89284594D01*
X125067610Y-89389964D01*
X125957574Y-88500000D01*
X126042426Y-88500000D01*
X126932390Y-89389964D01*
X127130939Y-89284594D01*
X127345102Y-88792079D01*
X127354486Y-88255097D01*
X127157662Y-87755400D01*
X127130939Y-87715406D01*
X126932390Y-87610036D01*
X126042426Y-88500000D01*
X125957574Y-88500000D01*
X125067610Y-87610036D01*
X124869061Y-87715406D01*
X124654898Y-88207921D01*
X124645514Y-88744903D01*
X122486958Y-88744903D01*
X122360273Y-88682153D01*
X121542426Y-89500000D01*
X121457574Y-89500000D01*
X120639727Y-88682153D01*
X120451569Y-88775352D01*
X120254065Y-89231729D01*
X120246244Y-89728949D01*
X116483907Y-89728949D01*
X116649713Y-89329645D01*
X116650285Y-88673235D01*
X116636440Y-88639727D01*
X120682153Y-88639727D01*
X121500000Y-89457574D01*
X122317847Y-88639727D01*
X122224648Y-88451569D01*
X121768271Y-88254065D01*
X121271051Y-88246244D01*
X120808686Y-88429295D01*
X120775352Y-88451569D01*
X120682153Y-88639727D01*
X116636440Y-88639727D01*
X116399617Y-88066571D01*
X115935870Y-87602014D01*
X115853017Y-87567610D01*
X125110036Y-87567610D01*
X126000000Y-88457574D01*
X126889964Y-87567610D01*
X126784594Y-87369061D01*
X126292079Y-87154898D01*
X125755097Y-87145514D01*
X125255400Y-87342338D01*
X125215406Y-87369061D01*
X125110036Y-87567610D01*
X115853017Y-87567610D01*
X115329645Y-87350287D01*
X114673235Y-87349715D01*
X114066571Y-87600383D01*
X113602014Y-88064130D01*
X113350287Y-88670355D01*
X113349715Y-89326765D01*
X112350000Y-89326765D01*
X112350000Y-89034473D01*
X112558054Y-87988513D01*
X113131016Y-87131016D01*
X113988511Y-86558054D01*
X115034473Y-86350000D01*
X137965527Y-86350000D01*
X139011487Y-86558054D01*
X139011487Y-86558054D01*
G37*
X139011487Y-86558054D02*
X139868984Y-87131016D01*
X140441946Y-87988511D01*
X140650000Y-89034473D01*
X140650000Y-110898811D01*
X140529603Y-110607428D01*
X140304755Y-110382188D01*
X140010828Y-110260139D01*
X139692568Y-110259861D01*
X139398428Y-110381397D01*
X139173188Y-110606245D01*
X139051139Y-110900172D01*
X139050861Y-111218432D01*
X139172397Y-111512572D01*
X139397245Y-111737812D01*
X139691172Y-111859861D01*
X140009432Y-111860139D01*
X140303572Y-111738603D01*
X140528812Y-111513755D01*
X140650000Y-111221902D01*
X140650000Y-116430000D01*
X140505832Y-116370136D01*
X140195529Y-116369865D01*
X139908743Y-116488363D01*
X139689134Y-116707589D01*
X139579546Y-116971506D01*
X139455832Y-116920136D01*
X139145529Y-116919865D01*
X138858743Y-117038363D01*
X138639134Y-117257589D01*
X138520136Y-117544168D01*
X138519865Y-117854471D01*
X138638363Y-118141257D01*
X138857589Y-118360866D01*
X139144168Y-118479864D01*
X139454471Y-118480135D01*
X139471895Y-118472936D01*
X139575000Y-118576041D01*
X139575000Y-126223959D01*
X138823960Y-126975000D01*
X136668354Y-126975000D01*
X136661637Y-126958743D01*
X136442411Y-126739134D01*
X136155832Y-126620136D01*
X135845529Y-126619865D01*
X135568986Y-126734131D01*
X135660866Y-126642411D01*
X135779864Y-126355832D01*
X135780135Y-126045529D01*
X135661637Y-125758743D01*
X135442411Y-125539134D01*
X135155832Y-125420136D01*
X134845529Y-125419865D01*
X134558743Y-125538363D01*
X134339134Y-125757589D01*
X134220136Y-126044168D01*
X134219865Y-126354471D01*
X134338363Y-126641257D01*
X134557589Y-126860866D01*
X134575000Y-126868096D01*
X134575000Y-129531646D01*
X134558743Y-129538363D01*
X134339134Y-129757589D01*
X134220136Y-130044168D01*
X134219865Y-130354471D01*
X134338363Y-130641257D01*
X134557589Y-130860866D01*
X134844168Y-130979864D01*
X135154471Y-130980135D01*
X135441257Y-130861637D01*
X135660866Y-130642411D01*
X135779864Y-130355832D01*
X135780135Y-130045529D01*
X135661637Y-129758743D01*
X135442411Y-129539134D01*
X135425000Y-129531904D01*
X135425000Y-128966899D01*
X135538363Y-129241257D01*
X135757589Y-129460866D01*
X136044168Y-129579864D01*
X136354471Y-129580135D01*
X136641257Y-129461637D01*
X136860866Y-129242411D01*
X136979864Y-128955832D01*
X136979978Y-128825000D01*
X139000000Y-128825000D01*
X139135657Y-128798016D01*
X139162641Y-128792649D01*
X139300520Y-128700520D01*
X140650000Y-127351041D01*
X140650000Y-139965527D01*
X140441946Y-141011489D01*
X139868984Y-141868984D01*
X139011487Y-142441946D01*
X137965527Y-142650000D01*
X131943037Y-142650000D01*
X132080866Y-142512411D01*
X132199864Y-142225832D01*
X132200135Y-141915529D01*
X132192935Y-141898105D01*
X132820520Y-141270520D01*
X132912649Y-141132641D01*
X132945000Y-140970000D01*
X132945000Y-140326765D01*
X136349715Y-140326765D01*
X136600383Y-140933429D01*
X137064130Y-141397986D01*
X137670355Y-141649713D01*
X138326765Y-141650285D01*
X138933429Y-141399617D01*
X139397986Y-140935870D01*
X139649713Y-140329645D01*
X139650285Y-139673235D01*
X139399617Y-139066571D01*
X138935870Y-138602014D01*
X138329645Y-138350287D01*
X137673235Y-138349715D01*
X137066571Y-138600383D01*
X136602014Y-139064130D01*
X136350287Y-139670355D01*
X136349715Y-140326765D01*
X132945000Y-140326765D01*
X132945000Y-139188354D01*
X132961257Y-139181637D01*
X133180866Y-138962411D01*
X133299864Y-138675832D01*
X133300135Y-138365529D01*
X133181637Y-138078743D01*
X132962411Y-137859134D01*
X132675832Y-137740136D01*
X132365529Y-137739865D01*
X132078743Y-137858363D01*
X131859134Y-138077589D01*
X131740136Y-138364168D01*
X131739865Y-138674471D01*
X131858363Y-138961257D01*
X132077589Y-139180866D01*
X132095000Y-139188096D01*
X132095000Y-140793960D01*
X131592078Y-141296882D01*
X131575832Y-141290136D01*
X131265529Y-141289865D01*
X130978743Y-141408363D01*
X130789837Y-141596940D01*
X130572411Y-141379134D01*
X130285832Y-141260136D01*
X129975529Y-141259865D01*
X129958105Y-141267064D01*
X129135000Y-140443960D01*
X129135000Y-138694222D01*
X129141257Y-138691637D01*
X129360866Y-138472411D01*
X129479864Y-138185832D01*
X129480135Y-137875529D01*
X129361637Y-137588743D01*
X129142411Y-137369134D01*
X128855832Y-137250136D01*
X128545529Y-137249865D01*
X128258743Y-137368363D01*
X128039134Y-137587589D01*
X127920136Y-137874168D01*
X127919865Y-138184471D01*
X128038363Y-138471257D01*
X128257589Y-138690866D01*
X128285000Y-138702248D01*
X128285000Y-140620000D01*
X128308973Y-140740520D01*
X128317351Y-140782641D01*
X128409480Y-140920520D01*
X129356882Y-141867922D01*
X129350136Y-141884168D01*
X129349865Y-142194471D01*
X129468363Y-142481257D01*
X129636812Y-142650000D01*
X115034473Y-142650000D01*
X113988511Y-142441946D01*
X113131016Y-141868984D01*
X112558054Y-141011487D01*
X112421855Y-140326765D01*
X113349715Y-140326765D01*
X113600383Y-140933429D01*
X114064130Y-141397986D01*
X114670355Y-141649713D01*
X115326765Y-141650285D01*
X115933429Y-141399617D01*
X116397986Y-140935870D01*
X116472071Y-140757452D01*
X124699774Y-140757452D01*
X124897271Y-141235429D01*
X125262647Y-141601444D01*
X125740279Y-141799774D01*
X126257452Y-141800226D01*
X126735429Y-141602729D01*
X127101444Y-141237353D01*
X127299774Y-140759721D01*
X127300226Y-140242548D01*
X127102729Y-139764571D01*
X126737353Y-139398556D01*
X126259721Y-139200226D01*
X125742548Y-139199774D01*
X125264571Y-139397271D01*
X124898556Y-139762647D01*
X124700226Y-140240279D01*
X124699774Y-140757452D01*
X116472071Y-140757452D01*
X116649713Y-140329645D01*
X116650285Y-139673235D01*
X116399617Y-139066571D01*
X115935870Y-138602014D01*
X115329645Y-138350287D01*
X114673235Y-138349715D01*
X114066571Y-138600383D01*
X113602014Y-139064130D01*
X113350287Y-139670355D01*
X113349715Y-140326765D01*
X112421855Y-140326765D01*
X112350000Y-139965527D01*
X112350000Y-134540000D01*
X137494123Y-134540000D01*
X137494123Y-136540000D01*
X137517407Y-136657054D01*
X137583712Y-136756288D01*
X137682946Y-136822593D01*
X137800000Y-136845877D01*
X139800000Y-136845877D01*
X139917054Y-136822593D01*
X140016288Y-136756288D01*
X140082593Y-136657054D01*
X140105877Y-136540000D01*
X140105877Y-134540000D01*
X140082593Y-134422946D01*
X140016288Y-134323712D01*
X139917054Y-134257407D01*
X139800000Y-134234123D01*
X139217433Y-134234123D01*
X139535429Y-134102729D01*
X139901444Y-133737353D01*
X140099774Y-133259721D01*
X140100226Y-132742548D01*
X139902729Y-132264571D01*
X139537353Y-131898556D01*
X139059721Y-131700226D01*
X138542548Y-131699774D01*
X138064571Y-131897271D01*
X137698556Y-132262647D01*
X137500226Y-132740279D01*
X137499774Y-133257452D01*
X137697271Y-133735429D01*
X138062647Y-134101444D01*
X138382174Y-134234123D01*
X137800000Y-134234123D01*
X137682946Y-134257407D01*
X137583712Y-134323712D01*
X137517407Y-134422946D01*
X137494123Y-134540000D01*
X112350000Y-134540000D01*
X112350000Y-126804471D01*
X125169865Y-126804471D01*
X125288363Y-127091257D01*
X125507589Y-127310866D01*
X125794168Y-127429864D01*
X126104471Y-127430135D01*
X126391257Y-127311637D01*
X126610866Y-127092411D01*
X126729864Y-126805832D01*
X126729978Y-126675000D01*
X128731646Y-126675000D01*
X128738363Y-126691257D01*
X128957589Y-126910866D01*
X129244168Y-127029864D01*
X129554471Y-127030135D01*
X129841257Y-126911637D01*
X130060866Y-126692411D01*
X130179864Y-126405832D01*
X130180135Y-126095529D01*
X130061637Y-125808743D01*
X129842411Y-125589134D01*
X129555832Y-125470136D01*
X129245529Y-125469865D01*
X128958743Y-125588363D01*
X128739134Y-125807589D01*
X128731904Y-125825000D01*
X126350000Y-125825000D01*
X126187360Y-125857351D01*
X126187358Y-125857352D01*
X126187359Y-125857352D01*
X126144313Y-125886115D01*
X126105832Y-125870136D01*
X125795529Y-125869865D01*
X125508743Y-125988363D01*
X125289134Y-126207589D01*
X125170136Y-126494168D01*
X125169865Y-126804471D01*
X112350000Y-126804471D01*
X112350000Y-119950000D01*
X112800000Y-119950000D01*
X112853284Y-120217878D01*
X113005025Y-120444975D01*
X113232122Y-120596716D01*
X113500000Y-120650000D01*
X117850000Y-120650000D01*
X118117878Y-120596716D01*
X118344975Y-120444975D01*
X118496716Y-120217878D01*
X118550000Y-119950000D01*
X118496716Y-119682122D01*
X118344975Y-119455025D01*
X118117878Y-119303284D01*
X117850000Y-119250000D01*
X113500000Y-119250000D01*
X113232122Y-119303284D01*
X113005025Y-119455025D01*
X112853284Y-119682122D01*
X112800000Y-119950000D01*
X112350000Y-119950000D01*
X112350000Y-114150000D01*
X112800000Y-114150000D01*
X112853284Y-114417878D01*
X113005025Y-114644975D01*
X113232122Y-114796716D01*
X113500000Y-114850000D01*
X119650000Y-114850000D01*
X119650000Y-118250000D01*
X119684809Y-118424997D01*
X119533679Y-118424865D01*
X119246893Y-118543363D01*
X119027284Y-118762589D01*
X118908286Y-119049168D01*
X118908015Y-119359471D01*
X119026513Y-119646257D01*
X119245739Y-119865866D01*
X119263150Y-119873096D01*
X119263150Y-119942150D01*
X119284603Y-120050000D01*
X119295501Y-120104791D01*
X119387630Y-120242670D01*
X120395480Y-121250520D01*
X120533359Y-121342649D01*
X120560343Y-121348016D01*
X120696000Y-121375000D01*
X120881646Y-121375000D01*
X120888363Y-121391257D01*
X121021914Y-121525041D01*
X120889134Y-121657589D01*
X120770136Y-121944168D01*
X120769865Y-122254471D01*
X120888363Y-122541257D01*
X121107589Y-122760866D01*
X121394168Y-122879864D01*
X121704471Y-122880135D01*
X121991257Y-122761637D01*
X122210866Y-122542411D01*
X122329864Y-122255832D01*
X122330113Y-121970927D01*
X123798245Y-120502796D01*
X123917144Y-120621903D01*
X124165145Y-120724883D01*
X124433677Y-120725117D01*
X124681857Y-120622571D01*
X124871903Y-120432856D01*
X124974883Y-120184855D01*
X124975117Y-119916323D01*
X124872571Y-119668143D01*
X124682856Y-119478097D01*
X124434855Y-119375117D01*
X124166323Y-119374883D01*
X123918143Y-119477429D01*
X123770315Y-119625000D01*
X123650000Y-119625000D01*
X123487359Y-119657351D01*
X123474987Y-119665618D01*
X123475117Y-119516323D01*
X123372571Y-119268143D01*
X123182856Y-119078097D01*
X122934855Y-118975117D01*
X122666323Y-118974883D01*
X122418143Y-119077429D01*
X122228097Y-119267144D01*
X122125117Y-119515145D01*
X122124891Y-119774069D01*
X121722078Y-120176882D01*
X121705832Y-120170136D01*
X121395529Y-120169865D01*
X121108743Y-120288363D01*
X120889134Y-120507589D01*
X120881904Y-120525000D01*
X120872040Y-120525000D01*
X120171579Y-119824539D01*
X120349016Y-119647411D01*
X120468014Y-119360832D01*
X120468285Y-119050529D01*
X120420918Y-118935894D01*
X120617878Y-118896716D01*
X120844975Y-118744975D01*
X120996716Y-118517878D01*
X121050000Y-118250000D01*
X121050000Y-115054471D01*
X129719865Y-115054471D01*
X129838363Y-115341257D01*
X130057589Y-115560866D01*
X130344168Y-115679864D01*
X130654471Y-115680135D01*
X130671895Y-115672935D01*
X131326882Y-116327922D01*
X131320136Y-116344168D01*
X131319865Y-116654471D01*
X131438363Y-116941257D01*
X131657589Y-117160866D01*
X131944168Y-117279864D01*
X132254471Y-117280135D01*
X132541257Y-117161637D01*
X132760866Y-116942411D01*
X132879864Y-116655832D01*
X132880135Y-116345529D01*
X132860675Y-116298432D01*
X138034861Y-116298432D01*
X138156397Y-116592572D01*
X138381245Y-116817812D01*
X138675172Y-116939861D01*
X138993432Y-116940139D01*
X139287572Y-116818603D01*
X139512812Y-116593755D01*
X139634861Y-116299828D01*
X139635139Y-115981568D01*
X139513603Y-115687428D01*
X139288755Y-115462188D01*
X138994828Y-115340139D01*
X138676568Y-115339861D01*
X138382428Y-115461397D01*
X138157188Y-115686245D01*
X138035139Y-115980172D01*
X138034861Y-116298432D01*
X132860675Y-116298432D01*
X132823766Y-116209107D01*
X132994168Y-116279864D01*
X133304471Y-116280135D01*
X133591257Y-116161637D01*
X133810866Y-115942411D01*
X133929864Y-115655832D01*
X133930135Y-115345529D01*
X133811637Y-115058743D01*
X133592411Y-114839134D01*
X133305832Y-114720136D01*
X132995529Y-114719865D01*
X132942724Y-114741684D01*
X132273118Y-114072078D01*
X132279864Y-114055832D01*
X132280135Y-113745529D01*
X132161637Y-113458743D01*
X131942411Y-113239134D01*
X131655832Y-113120136D01*
X131345529Y-113119865D01*
X131058743Y-113238363D01*
X130839134Y-113457589D01*
X130720136Y-113744168D01*
X130719865Y-114054471D01*
X130765878Y-114165831D01*
X130655832Y-114120136D01*
X130345529Y-114119865D01*
X130058743Y-114238363D01*
X129839134Y-114457589D01*
X129720136Y-114744168D01*
X129719865Y-115054471D01*
X121050000Y-115054471D01*
X121050000Y-114150000D01*
X120996716Y-113882122D01*
X120844975Y-113655025D01*
X120617878Y-113503284D01*
X120350000Y-113450000D01*
X113500000Y-113450000D01*
X113232122Y-113503284D01*
X113005025Y-113655025D01*
X112853284Y-113882122D01*
X112800000Y-114150000D01*
X112350000Y-114150000D01*
X112350000Y-111218432D01*
X137018861Y-111218432D01*
X137140397Y-111512572D01*
X137365245Y-111737812D01*
X137659172Y-111859861D01*
X137977432Y-111860139D01*
X138271572Y-111738603D01*
X138496812Y-111513755D01*
X138618861Y-111219828D01*
X138619139Y-110901568D01*
X138497603Y-110607428D01*
X138272755Y-110382188D01*
X137978828Y-110260139D01*
X137660568Y-110259861D01*
X137366428Y-110381397D01*
X137141188Y-110606245D01*
X137019139Y-110900172D01*
X137018861Y-111218432D01*
X112350000Y-111218432D01*
X112350000Y-110104471D01*
X119569865Y-110104471D01*
X119688363Y-110391257D01*
X119907589Y-110610866D01*
X120194168Y-110729864D01*
X120504471Y-110730135D01*
X120791257Y-110611637D01*
X120903089Y-110500000D01*
X122000000Y-110500000D01*
X122210476Y-110458134D01*
X122388909Y-110338909D01*
X123547820Y-109179998D01*
X123704471Y-109180135D01*
X123991257Y-109061637D01*
X124210866Y-108842411D01*
X124329864Y-108555832D01*
X124330135Y-108245529D01*
X124211637Y-107958743D01*
X123992411Y-107739134D01*
X123705832Y-107620136D01*
X123395529Y-107619865D01*
X123108743Y-107738363D01*
X122889134Y-107957589D01*
X122770136Y-108244168D01*
X122769998Y-108402184D01*
X121772182Y-109400000D01*
X120903084Y-109400000D01*
X120792411Y-109289134D01*
X120505832Y-109170136D01*
X120195529Y-109169865D01*
X119908743Y-109288363D01*
X119689134Y-109507589D01*
X119570136Y-109794168D01*
X119569865Y-110104471D01*
X112350000Y-110104471D01*
X112350000Y-108654471D01*
X112369865Y-108654471D01*
X112488363Y-108941257D01*
X112707589Y-109160866D01*
X112994168Y-109279864D01*
X113304471Y-109280135D01*
X113591257Y-109161637D01*
X113810866Y-108942411D01*
X113838857Y-108875000D01*
X114531646Y-108875000D01*
X114538363Y-108891257D01*
X114757589Y-109110866D01*
X115044168Y-109229864D01*
X115354471Y-109230135D01*
X115641257Y-109111637D01*
X115860866Y-108892411D01*
X115979864Y-108605832D01*
X115980135Y-108295529D01*
X115861637Y-108008743D01*
X115642411Y-107789134D01*
X115355832Y-107670136D01*
X115045529Y-107669865D01*
X114758743Y-107788363D01*
X114539134Y-108007589D01*
X114531904Y-108025000D01*
X113777953Y-108025000D01*
X113592411Y-107839134D01*
X113305832Y-107720136D01*
X112995529Y-107719865D01*
X112708743Y-107838363D01*
X112489134Y-108057589D01*
X112370136Y-108344168D01*
X112369865Y-108654471D01*
X112350000Y-108654471D01*
X112350000Y-103438000D01*
X114275000Y-103438000D01*
X114350000Y-103363000D01*
X114350000Y-102081500D01*
X114650000Y-102081500D01*
X114650000Y-103363000D01*
X114725000Y-103438000D01*
X117099673Y-103438000D01*
X117209936Y-103392328D01*
X117294328Y-103307937D01*
X117340000Y-103197674D01*
X117340000Y-102156500D01*
X117265000Y-102081500D01*
X114650000Y-102081500D01*
X114350000Y-102081500D01*
X114330000Y-102081500D01*
X114330000Y-101781500D01*
X114350000Y-101781500D01*
X114350000Y-100500000D01*
X114650000Y-100500000D01*
X114650000Y-101781500D01*
X117265000Y-101781500D01*
X117340000Y-101706500D01*
X117340000Y-100665326D01*
X117294328Y-100555063D01*
X117209936Y-100470672D01*
X117099673Y-100425000D01*
X114725000Y-100425000D01*
X114650000Y-100500000D01*
X114350000Y-100500000D01*
X114275000Y-100425000D01*
X112350000Y-100425000D01*
X112350000Y-97737647D01*
X114899793Y-97737647D01*
X115082097Y-98178857D01*
X115419367Y-98516717D01*
X115860258Y-98699791D01*
X116337647Y-98700207D01*
X116778857Y-98517903D01*
X117116717Y-98180633D01*
X117299791Y-97739742D01*
X117300207Y-97262353D01*
X117117903Y-96821143D01*
X116780633Y-96483283D01*
X116339742Y-96300209D01*
X115862353Y-96299793D01*
X115421143Y-96482097D01*
X115083283Y-96819367D01*
X114900209Y-97260258D01*
X114899793Y-97737647D01*
X112350000Y-97737647D01*
X112350000Y-94675000D01*
X114275000Y-94675000D01*
X114350000Y-94600000D01*
X114350000Y-93318500D01*
X114650000Y-93318500D01*
X114650000Y-94600000D01*
X114725000Y-94675000D01*
X117099673Y-94675000D01*
X117209936Y-94629328D01*
X117294328Y-94544937D01*
X117340000Y-94434674D01*
X117340000Y-93393500D01*
X117265000Y-93318500D01*
X114650000Y-93318500D01*
X114350000Y-93318500D01*
X114330000Y-93318500D01*
X114330000Y-93018500D01*
X114350000Y-93018500D01*
X114350000Y-91737000D01*
X114650000Y-91737000D01*
X114650000Y-93018500D01*
X117265000Y-93018500D01*
X117340000Y-92943500D01*
X117340000Y-91902326D01*
X117294328Y-91792063D01*
X117209936Y-91707672D01*
X117099673Y-91662000D01*
X114725000Y-91662000D01*
X114650000Y-91737000D01*
X114350000Y-91737000D01*
X114275000Y-91662000D01*
X112350000Y-91662000D01*
X112350000Y-89326765D01*
X113349715Y-89326765D01*
X113600383Y-89933429D01*
X114064130Y-90397986D01*
X114670355Y-90649713D01*
X115326765Y-90650285D01*
X115933429Y-90399617D01*
X115972841Y-90360273D01*
X120682153Y-90360273D01*
X120775352Y-90548431D01*
X121231729Y-90745935D01*
X121728949Y-90753756D01*
X122191314Y-90570705D01*
X122224648Y-90548431D01*
X122317847Y-90360273D01*
X121500000Y-89542426D01*
X120682153Y-90360273D01*
X115972841Y-90360273D01*
X116397986Y-89935870D01*
X116483907Y-89728949D01*
X120246244Y-89728949D01*
X120429295Y-90191314D01*
X120451569Y-90224648D01*
X120639727Y-90317847D01*
X121457574Y-89500000D01*
X121542426Y-89500000D01*
X122360273Y-90317847D01*
X122548431Y-90224648D01*
X122745935Y-89768271D01*
X122751218Y-89432390D01*
X125110036Y-89432390D01*
X125215406Y-89630939D01*
X125707921Y-89845102D01*
X126244903Y-89854486D01*
X126541533Y-89737647D01*
X128299793Y-89737647D01*
X128482097Y-90178857D01*
X128819367Y-90516717D01*
X129260258Y-90699791D01*
X129737647Y-90700207D01*
X130178857Y-90517903D01*
X130516717Y-90180633D01*
X130699791Y-89739742D01*
X130700150Y-89326765D01*
X136349715Y-89326765D01*
X136600383Y-89933429D01*
X137064130Y-90397986D01*
X137670355Y-90649713D01*
X138326765Y-90650285D01*
X138933429Y-90399617D01*
X139397986Y-89935870D01*
X139649713Y-89329645D01*
X139650285Y-88673235D01*
X139399617Y-88066571D01*
X138935870Y-87602014D01*
X138329645Y-87350287D01*
X137673235Y-87349715D01*
X137066571Y-87600383D01*
X136602014Y-88064130D01*
X136350287Y-88670355D01*
X136349715Y-89326765D01*
X130700150Y-89326765D01*
X130700207Y-89262353D01*
X130517903Y-88821143D01*
X130180633Y-88483283D01*
X129739742Y-88300209D01*
X129262353Y-88299793D01*
X128821143Y-88482097D01*
X128483283Y-88819367D01*
X128300209Y-89260258D01*
X128299793Y-89737647D01*
X126541533Y-89737647D01*
X126744600Y-89657662D01*
X126784594Y-89630939D01*
X126889964Y-89432390D01*
X126000000Y-88542426D01*
X125110036Y-89432390D01*
X122751218Y-89432390D01*
X122753756Y-89271051D01*
X122570705Y-88808686D01*
X122548431Y-88775352D01*
X122486958Y-88744903D01*
X124645514Y-88744903D01*
X124842338Y-89244600D01*
X124869061Y-89284594D01*
X125067610Y-89389964D01*
X125957574Y-88500000D01*
X126042426Y-88500000D01*
X126932390Y-89389964D01*
X127130939Y-89284594D01*
X127345102Y-88792079D01*
X127354486Y-88255097D01*
X127157662Y-87755400D01*
X127130939Y-87715406D01*
X126932390Y-87610036D01*
X126042426Y-88500000D01*
X125957574Y-88500000D01*
X125067610Y-87610036D01*
X124869061Y-87715406D01*
X124654898Y-88207921D01*
X124645514Y-88744903D01*
X122486958Y-88744903D01*
X122360273Y-88682153D01*
X121542426Y-89500000D01*
X121457574Y-89500000D01*
X120639727Y-88682153D01*
X120451569Y-88775352D01*
X120254065Y-89231729D01*
X120246244Y-89728949D01*
X116483907Y-89728949D01*
X116649713Y-89329645D01*
X116650285Y-88673235D01*
X116636440Y-88639727D01*
X120682153Y-88639727D01*
X121500000Y-89457574D01*
X122317847Y-88639727D01*
X122224648Y-88451569D01*
X121768271Y-88254065D01*
X121271051Y-88246244D01*
X120808686Y-88429295D01*
X120775352Y-88451569D01*
X120682153Y-88639727D01*
X116636440Y-88639727D01*
X116399617Y-88066571D01*
X115935870Y-87602014D01*
X115853017Y-87567610D01*
X125110036Y-87567610D01*
X126000000Y-88457574D01*
X126889964Y-87567610D01*
X126784594Y-87369061D01*
X126292079Y-87154898D01*
X125755097Y-87145514D01*
X125255400Y-87342338D01*
X125215406Y-87369061D01*
X125110036Y-87567610D01*
X115853017Y-87567610D01*
X115329645Y-87350287D01*
X114673235Y-87349715D01*
X114066571Y-87600383D01*
X113602014Y-88064130D01*
X113350287Y-88670355D01*
X113349715Y-89326765D01*
X112350000Y-89326765D01*
X112350000Y-89034473D01*
X112558054Y-87988513D01*
X113131016Y-87131016D01*
X113988511Y-86558054D01*
X115034473Y-86350000D01*
X137965527Y-86350000D01*
X139011487Y-86558054D01*
M02*
