M48
;DRILL file {KiCad (2016-05-05 BZR 6775)-product} date Monday, 20 June 2016 'amt' 00:13:16
;FORMAT={-:-/ absolute / inch / decimal}
FMAT,2
INCH,TZ
T1C0.016
T2C0.020
T3C0.035
T4C0.039
T5C0.040
%
G90
G05
M72
T1
X5.1358Y-4.6969
X5.1358Y-4.7953
X5.1358Y-4.8937
X5.2343Y-4.6969
X5.2343Y-4.7953
X5.2343Y-4.8937
X5.3327Y-4.6969
X5.3327Y-4.7953
X5.3327Y-4.8937
T2
X4.4547Y-4.2717
X4.4587Y-4.9035
X4.4626Y-5.1516
X4.4921Y-4.6713
X4.5079Y-3.6681
X4.5079Y-4.0131
X4.5354Y-4.2697
X4.6024Y-4.5984
X4.6929Y-4.4035
X4.7121Y-4.6931
X4.7382Y-4.3287
X4.7854Y-4.7618
X4.7854Y-4.8071
X4.7854Y-4.9744
X4.8346Y-4.7106
X4.8524Y-3.7598
X4.8642Y-4.2677
X4.8898Y-5.4055
X4.8937Y-4.7264
X4.935Y-4.8543
X4.9587Y-4.9862
X5.0276Y-5.122
X5.0669Y-5.4343
X5.0945Y-4.9705
X5.1122Y-5.5039
X5.122Y-5.1181
X5.1232Y-5.5921
X5.1378Y-4.5236
X5.1575Y-3.6024
X5.174Y-5.5933
X5.1772Y-4.4843
X5.185Y-5.5059
X5.2008Y-4.5866
X5.2173Y-5.4535
X5.2421Y-4.5472
X5.2598Y-5.1181
X5.2913Y-4.5531
X5.315Y-4.9685
X5.315Y-5.126
X5.3543Y-5.0157
X5.3622Y-5.0709
X5.4075Y-4.7165
X5.4803Y-5.1024
X5.4843Y-4.6339
X5.5197Y-4.4252
X5.5256Y-4.6122
T3
X4.9606Y-3.4843
X4.9606Y-5.5315
T4
X5.4646Y-5.2362
X5.4646Y-5.3362
T5
X4.5709Y-3.8386
X4.7835Y-3.5236
X5.0984Y-3.5236
T0
M30
