G04 #@! TF.FileFunction,Copper,L1,Top,Signal*
%FSLAX46Y46*%
G04 Gerber Fmt 4.6, Leading zero omitted, Abs format (unit mm)*
G04 Created by KiCad (PCBNEW 4.0.1-3.201512221402+6198~38~ubuntu14.04.1-stable) date Tue 12 Jan 2016 14:15:59 GMT*
%MOMM*%
G01*
G04 APERTURE LIST*
%ADD10C,0.100000*%
%ADD11R,0.750000X0.800000*%
%ADD12R,0.800000X0.750000*%
%ADD13R,0.900000X0.500000*%
%ADD14R,1.198880X1.198880*%
%ADD15R,1.350000X0.400000*%
%ADD16O,1.250000X1.000000*%
%ADD17R,1.900000X1.800000*%
%ADD18R,1.900000X1.575000*%
%ADD19O,1.900000X1.000000*%
%ADD20R,1.500000X3.000000*%
%ADD21C,2.000000*%
%ADD22R,5.080000X2.286000*%
%ADD23R,5.080000X2.413000*%
%ADD24C,0.787000*%
%ADD25R,2.000000X2.000000*%
%ADD26R,0.500000X0.900000*%
%ADD27C,1.800000*%
%ADD28C,0.750000*%
%ADD29R,0.650000X1.060000*%
%ADD30R,0.400000X0.900000*%
%ADD31R,1.200000X2.000000*%
%ADD32R,0.600000X0.400000*%
%ADD33R,1.500000X2.400000*%
%ADD34R,1.000000X1.000000*%
%ADD35C,1.016000*%
%ADD36R,1.100000X1.900000*%
%ADD37C,0.600000*%
%ADD38C,0.250000*%
%ADD39C,0.750000*%
%ADD40C,0.300000*%
%ADD41C,1.000000*%
%ADD42C,0.400000*%
%ADD43C,0.600000*%
%ADD44C,0.500000*%
G04 APERTURE END LIST*
D10*
D11*
X129750000Y-139150000D03*
X129750000Y-140650000D03*
D12*
X135100000Y-123750000D03*
X133600000Y-123750000D03*
D11*
X134450000Y-139250000D03*
X134450000Y-140750000D03*
D12*
X135100000Y-125250000D03*
X133600000Y-125250000D03*
D11*
X139950000Y-126700000D03*
X139950000Y-125200000D03*
D12*
X132850000Y-113450000D03*
X131350000Y-113450000D03*
X132850000Y-111950000D03*
X131350000Y-111950000D03*
D11*
X121300000Y-140200000D03*
X121300000Y-141700000D03*
X119800000Y-140200000D03*
X119800000Y-141700000D03*
D10*
G36*
X122548008Y-131321662D02*
X123078338Y-131851992D01*
X122512652Y-132417678D01*
X121982322Y-131887348D01*
X122548008Y-131321662D01*
X122548008Y-131321662D01*
G37*
G36*
X121487348Y-132382322D02*
X122017678Y-132912652D01*
X121451992Y-133478338D01*
X120921662Y-132948008D01*
X121487348Y-132382322D01*
X121487348Y-132382322D01*
G37*
D11*
X133700000Y-127750000D03*
X133700000Y-129250000D03*
D12*
X122450000Y-136100000D03*
X120950000Y-136100000D03*
X122450000Y-134600000D03*
X120950000Y-134600000D03*
D11*
X123250000Y-119200000D03*
X123250000Y-120700000D03*
X120500000Y-128750000D03*
X120500000Y-127250000D03*
X119000000Y-128750000D03*
X119000000Y-127250000D03*
X123250000Y-116050000D03*
X123250000Y-117550000D03*
D13*
X128200000Y-139150000D03*
X128200000Y-140650000D03*
D14*
X134000000Y-130850980D03*
X134000000Y-132949020D03*
D13*
X132275000Y-88025000D03*
X132275000Y-89525000D03*
D14*
X124350980Y-134900000D03*
X126449020Y-134900000D03*
X124350980Y-136800000D03*
X126449020Y-136800000D03*
D15*
X136475000Y-116400000D03*
X136475000Y-115750000D03*
X136475000Y-117050000D03*
X136475000Y-117700000D03*
X136475000Y-115100000D03*
D16*
X136150000Y-114175000D03*
X136150000Y-118625000D03*
D17*
X139150000Y-115250000D03*
X139150000Y-117550000D03*
D18*
X139150000Y-113012500D03*
D19*
X139150000Y-112225000D03*
D18*
X139150000Y-119787500D03*
D19*
X139150000Y-120575000D03*
D20*
X130100000Y-135900000D03*
X132700000Y-135900000D03*
D21*
X126500000Y-140500000D03*
X126500000Y-88500000D03*
D22*
X138500000Y-92500000D03*
D23*
X138500000Y-88118500D03*
X138500000Y-96881500D03*
D24*
X137400000Y-136710000D03*
X138670000Y-136710000D03*
X137400000Y-137980000D03*
X138670000Y-137980000D03*
X137400000Y-139250000D03*
X138670000Y-139250000D03*
D25*
X138000000Y-106000000D03*
D21*
X138000000Y-103460000D03*
D13*
X128500000Y-136450000D03*
X128500000Y-134950000D03*
X132300000Y-133250000D03*
X132300000Y-131750000D03*
D26*
X120600000Y-114250000D03*
X122100000Y-114250000D03*
X122100000Y-112650000D03*
X120600000Y-112650000D03*
X124150000Y-140400000D03*
X122650000Y-140400000D03*
X124850000Y-138600000D03*
X123350000Y-138600000D03*
X136350000Y-108050000D03*
X137850000Y-108050000D03*
D27*
X136750000Y-92500000D03*
X139100000Y-110350000D03*
X123600000Y-88500000D03*
D28*
X119650000Y-114250000D03*
X119650000Y-112650000D03*
D29*
X138450000Y-123400000D03*
X137500000Y-123400000D03*
X136550000Y-123400000D03*
X136550000Y-125600000D03*
X138450000Y-125600000D03*
D30*
X131500000Y-138800000D03*
X132150000Y-138800000D03*
X132800000Y-138800000D03*
X131500000Y-141000000D03*
X132150000Y-141000000D03*
X132800000Y-141000000D03*
D31*
X133000000Y-92100000D03*
X119000000Y-109800000D03*
X121000000Y-109800000D03*
X123000000Y-109800000D03*
X125000000Y-109800000D03*
X127000000Y-109800000D03*
X129000000Y-109800000D03*
X131000000Y-109800000D03*
X133000000Y-109800000D03*
X131000000Y-92100000D03*
X129000000Y-92100000D03*
X127000000Y-92100000D03*
X125000000Y-92100000D03*
X123000000Y-92100000D03*
X121000000Y-92100000D03*
X119000000Y-92100000D03*
D10*
G36*
X121413856Y-129272792D02*
X122262384Y-128424264D01*
X122615938Y-128777818D01*
X121767410Y-129626346D01*
X121413856Y-129272792D01*
X121413856Y-129272792D01*
G37*
G36*
X121979542Y-129838477D02*
X122828070Y-128989949D01*
X123181624Y-129343503D01*
X122333096Y-130192031D01*
X121979542Y-129838477D01*
X121979542Y-129838477D01*
G37*
G36*
X122545227Y-130404163D02*
X123393755Y-129555635D01*
X123747309Y-129909189D01*
X122898781Y-130757717D01*
X122545227Y-130404163D01*
X122545227Y-130404163D01*
G37*
G36*
X123110912Y-130969848D02*
X123959440Y-130121320D01*
X124312994Y-130474874D01*
X123464466Y-131323402D01*
X123110912Y-130969848D01*
X123110912Y-130969848D01*
G37*
G36*
X123676598Y-131535534D02*
X124525126Y-130687006D01*
X124878680Y-131040560D01*
X124030152Y-131889088D01*
X123676598Y-131535534D01*
X123676598Y-131535534D01*
G37*
G36*
X124242283Y-132101219D02*
X125090811Y-131252691D01*
X125444365Y-131606245D01*
X124595837Y-132454773D01*
X124242283Y-132101219D01*
X124242283Y-132101219D01*
G37*
G36*
X124807969Y-132666904D02*
X125656497Y-131818376D01*
X126010051Y-132171930D01*
X125161523Y-133020458D01*
X124807969Y-132666904D01*
X124807969Y-132666904D01*
G37*
G36*
X125373654Y-133232590D02*
X126222182Y-132384062D01*
X126575736Y-132737616D01*
X125727208Y-133586144D01*
X125373654Y-133232590D01*
X125373654Y-133232590D01*
G37*
G36*
X131384062Y-127222182D02*
X132232590Y-126373654D01*
X132586144Y-126727208D01*
X131737616Y-127575736D01*
X131384062Y-127222182D01*
X131384062Y-127222182D01*
G37*
G36*
X130818376Y-126656497D02*
X131666904Y-125807969D01*
X132020458Y-126161523D01*
X131171930Y-127010051D01*
X130818376Y-126656497D01*
X130818376Y-126656497D01*
G37*
G36*
X130252691Y-126090811D02*
X131101219Y-125242283D01*
X131454773Y-125595837D01*
X130606245Y-126444365D01*
X130252691Y-126090811D01*
X130252691Y-126090811D01*
G37*
G36*
X129687006Y-125525126D02*
X130535534Y-124676598D01*
X130889088Y-125030152D01*
X130040560Y-125878680D01*
X129687006Y-125525126D01*
X129687006Y-125525126D01*
G37*
G36*
X129121320Y-124959440D02*
X129969848Y-124110912D01*
X130323402Y-124464466D01*
X129474874Y-125312994D01*
X129121320Y-124959440D01*
X129121320Y-124959440D01*
G37*
G36*
X128555635Y-124393755D02*
X129404163Y-123545227D01*
X129757717Y-123898781D01*
X128909189Y-124747309D01*
X128555635Y-124393755D01*
X128555635Y-124393755D01*
G37*
G36*
X127989949Y-123828070D02*
X128838477Y-122979542D01*
X129192031Y-123333096D01*
X128343503Y-124181624D01*
X127989949Y-123828070D01*
X127989949Y-123828070D01*
G37*
G36*
X127424264Y-123262384D02*
X128272792Y-122413856D01*
X128626346Y-122767410D01*
X127777818Y-123615938D01*
X127424264Y-123262384D01*
X127424264Y-123262384D01*
G37*
G36*
X127424264Y-132737616D02*
X127777818Y-132384062D01*
X128626346Y-133232590D01*
X128272792Y-133586144D01*
X127424264Y-132737616D01*
X127424264Y-132737616D01*
G37*
G36*
X127989949Y-132171930D02*
X128343503Y-131818376D01*
X129192031Y-132666904D01*
X128838477Y-133020458D01*
X127989949Y-132171930D01*
X127989949Y-132171930D01*
G37*
G36*
X128555635Y-131606245D02*
X128909189Y-131252691D01*
X129757717Y-132101219D01*
X129404163Y-132454773D01*
X128555635Y-131606245D01*
X128555635Y-131606245D01*
G37*
G36*
X129121320Y-131040560D02*
X129474874Y-130687006D01*
X130323402Y-131535534D01*
X129969848Y-131889088D01*
X129121320Y-131040560D01*
X129121320Y-131040560D01*
G37*
G36*
X129687006Y-130474874D02*
X130040560Y-130121320D01*
X130889088Y-130969848D01*
X130535534Y-131323402D01*
X129687006Y-130474874D01*
X129687006Y-130474874D01*
G37*
G36*
X130252691Y-129909189D02*
X130606245Y-129555635D01*
X131454773Y-130404163D01*
X131101219Y-130757717D01*
X130252691Y-129909189D01*
X130252691Y-129909189D01*
G37*
G36*
X130818376Y-129343503D02*
X131171930Y-128989949D01*
X132020458Y-129838477D01*
X131666904Y-130192031D01*
X130818376Y-129343503D01*
X130818376Y-129343503D01*
G37*
G36*
X131384062Y-128777818D02*
X131737616Y-128424264D01*
X132586144Y-129272792D01*
X132232590Y-129626346D01*
X131384062Y-128777818D01*
X131384062Y-128777818D01*
G37*
G36*
X125373654Y-122767410D02*
X125727208Y-122413856D01*
X126575736Y-123262384D01*
X126222182Y-123615938D01*
X125373654Y-122767410D01*
X125373654Y-122767410D01*
G37*
G36*
X124807969Y-123333096D02*
X125161523Y-122979542D01*
X126010051Y-123828070D01*
X125656497Y-124181624D01*
X124807969Y-123333096D01*
X124807969Y-123333096D01*
G37*
G36*
X124242283Y-123898781D02*
X124595837Y-123545227D01*
X125444365Y-124393755D01*
X125090811Y-124747309D01*
X124242283Y-123898781D01*
X124242283Y-123898781D01*
G37*
G36*
X123676598Y-124464466D02*
X124030152Y-124110912D01*
X124878680Y-124959440D01*
X124525126Y-125312994D01*
X123676598Y-124464466D01*
X123676598Y-124464466D01*
G37*
G36*
X123110912Y-125030152D02*
X123464466Y-124676598D01*
X124312994Y-125525126D01*
X123959440Y-125878680D01*
X123110912Y-125030152D01*
X123110912Y-125030152D01*
G37*
G36*
X122545227Y-125595837D02*
X122898781Y-125242283D01*
X123747309Y-126090811D01*
X123393755Y-126444365D01*
X122545227Y-125595837D01*
X122545227Y-125595837D01*
G37*
G36*
X121979542Y-126161523D02*
X122333096Y-125807969D01*
X123181624Y-126656497D01*
X122828070Y-127010051D01*
X121979542Y-126161523D01*
X121979542Y-126161523D01*
G37*
G36*
X121413856Y-126727208D02*
X121767410Y-126373654D01*
X122615938Y-127222182D01*
X122262384Y-127575736D01*
X121413856Y-126727208D01*
X121413856Y-126727208D01*
G37*
D32*
X119250000Y-119550000D03*
X119250000Y-120550000D03*
X119250000Y-121550000D03*
X121950000Y-119550000D03*
X121950000Y-120550000D03*
X121950000Y-121550000D03*
D33*
X120600000Y-120550000D03*
D34*
X121600000Y-115900000D03*
X119600000Y-115900000D03*
X121600000Y-117900000D03*
X119600000Y-117900000D03*
D35*
X137230000Y-128240000D03*
X138500000Y-128240000D03*
X137230000Y-129510000D03*
X138500000Y-129510000D03*
X137230000Y-130780000D03*
X138500000Y-130780000D03*
X137230000Y-132050000D03*
X138500000Y-132050000D03*
X137230000Y-133320000D03*
X138500000Y-133320000D03*
D36*
X121800000Y-138300000D03*
X119300000Y-138300000D03*
D37*
X131450000Y-142000000D03*
X129850000Y-138250000D03*
X138650000Y-108000000D03*
X122550000Y-117050000D03*
X122750000Y-119800000D03*
X119600000Y-117000000D03*
X120600000Y-120550000D03*
X135250000Y-115000000D03*
X140300000Y-124550000D03*
X134450000Y-129250000D03*
X134200000Y-123200000D03*
X134200000Y-124600000D03*
X132500000Y-132400000D03*
X122700000Y-141400000D03*
X128200000Y-141500000D03*
X121500000Y-136800000D03*
X120800000Y-133600000D03*
X119000000Y-126400000D03*
X120500000Y-126400000D03*
X120500000Y-142400000D03*
X133900000Y-93850000D03*
X129000000Y-89550000D03*
X130450000Y-113450000D03*
X130350000Y-111950000D03*
X138050000Y-124500000D03*
X136950000Y-124500000D03*
X131550000Y-139850000D03*
X132650000Y-139850000D03*
X123000000Y-137175000D03*
X118625000Y-136625000D03*
X124350000Y-117700000D03*
X124050000Y-120050000D03*
X122050000Y-123000000D03*
X132300000Y-142050000D03*
X133550000Y-138850000D03*
X134600000Y-135600000D03*
X136300000Y-137650000D03*
X136450000Y-127300000D03*
X131125000Y-124200000D03*
X129650000Y-122800000D03*
X137125000Y-126575000D03*
X131700000Y-123550000D03*
X130275000Y-122200000D03*
X140150000Y-129500000D03*
X126600000Y-125325000D03*
X127975000Y-121950000D03*
X124600000Y-113350000D03*
X127600000Y-113400000D03*
X127400000Y-125975000D03*
X128725000Y-121425000D03*
X133875000Y-114375000D03*
X133875000Y-112275000D03*
D38*
X128500000Y-136450000D02*
X129550000Y-136450000D01*
X129550000Y-136450000D02*
X130100000Y-135900000D01*
X128200000Y-139150000D02*
X127750000Y-139150000D01*
X127750000Y-139150000D02*
X127500000Y-138900000D01*
D39*
X126500000Y-139900000D02*
X127500000Y-138900000D01*
X127500000Y-138900000D02*
X129500000Y-138900000D01*
X126500000Y-140500000D02*
X126500000Y-139900000D01*
X129500000Y-138900000D02*
X129750000Y-139150000D01*
D40*
X131450000Y-142000000D02*
X131500000Y-141950000D01*
X131500000Y-141950000D02*
X131500000Y-141000000D01*
X129750000Y-139150000D02*
X129750000Y-138350000D01*
X129750000Y-138350000D02*
X129850000Y-138250000D01*
X131500000Y-138800000D02*
X130100000Y-138800000D01*
X130100000Y-138800000D02*
X129750000Y-139150000D01*
D41*
X130800000Y-87750000D02*
X131525000Y-87750000D01*
X131525000Y-87750000D02*
X138131500Y-87750000D01*
D38*
X132275000Y-88025000D02*
X131800000Y-88025000D01*
X131800000Y-88025000D02*
X131525000Y-87750000D01*
X121425000Y-126125000D02*
X121425000Y-126384798D01*
X121425000Y-126384798D02*
X122014897Y-126974695D01*
X121800000Y-125750000D02*
X121425000Y-126125000D01*
X121921573Y-125750000D02*
X121800000Y-125750000D01*
X122580583Y-126409010D02*
X121921573Y-125750000D01*
D40*
X137850000Y-108050000D02*
X138600000Y-108050000D01*
X138600000Y-108050000D02*
X138650000Y-108000000D01*
D38*
X123250000Y-117550000D02*
X123050000Y-117550000D01*
X123050000Y-117550000D02*
X122550000Y-117050000D01*
X123250000Y-119200000D02*
X123250000Y-119300000D01*
X123250000Y-119300000D02*
X122750000Y-119800000D01*
X119600000Y-117900000D02*
X119600000Y-117000000D01*
X119250000Y-120550000D02*
X120600000Y-120550000D01*
D42*
X136475000Y-115100000D02*
X135350000Y-115100000D01*
X135350000Y-115100000D02*
X135250000Y-115000000D01*
X139950000Y-125200000D02*
X139950000Y-124900000D01*
X139950000Y-124900000D02*
X140300000Y-124550000D01*
D38*
X133700000Y-129250000D02*
X134450000Y-129250000D01*
X133600000Y-123750000D02*
X133650000Y-123750000D01*
X133650000Y-123750000D02*
X134200000Y-123200000D01*
X133600000Y-125250000D02*
X133600000Y-125200000D01*
X133600000Y-125200000D02*
X134200000Y-124600000D01*
X131985103Y-129025305D02*
X132209798Y-129250000D01*
X132209798Y-129250000D02*
X133700000Y-129250000D01*
X132300000Y-131750000D02*
X132300000Y-132200000D01*
X132300000Y-132200000D02*
X132500000Y-132400000D01*
X122650000Y-140400000D02*
X122650000Y-141350000D01*
X122650000Y-141350000D02*
X122700000Y-141400000D01*
X123350000Y-139350000D02*
X122650000Y-140050000D01*
X122650000Y-140050000D02*
X122650000Y-140400000D01*
X123350000Y-138600000D02*
X123350000Y-139350000D01*
D42*
X128200000Y-140650000D02*
X128200000Y-141500000D01*
X128200000Y-140650000D02*
X129750000Y-140650000D01*
D38*
X120950000Y-134600000D02*
X120950000Y-133750000D01*
X120950000Y-133750000D02*
X120800000Y-133600000D01*
X120950000Y-136100000D02*
X120950000Y-136250000D01*
X120950000Y-136250000D02*
X121500000Y-136800000D01*
X121469670Y-132930330D02*
X120800000Y-133600000D01*
X119000000Y-127250000D02*
X119000000Y-126400000D01*
X120500000Y-127250000D02*
X120500000Y-126400000D01*
X120500000Y-127250000D02*
X121739592Y-127250000D01*
X121739592Y-127250000D02*
X122014897Y-126974695D01*
X121300000Y-141700000D02*
X121200000Y-141700000D01*
X121200000Y-141700000D02*
X120500000Y-142400000D01*
X119800000Y-141700000D02*
X120500000Y-142400000D01*
D41*
X133000000Y-92950000D02*
X133900000Y-93850000D01*
X133900000Y-93850000D02*
X136931500Y-96881500D01*
D42*
X131350000Y-113450000D02*
X130450000Y-113450000D01*
X131350000Y-111950000D02*
X130350000Y-111950000D01*
D41*
X138131500Y-87750000D02*
X138500000Y-88118500D01*
X129000000Y-89550000D02*
X130800000Y-87750000D01*
X129000000Y-92100000D02*
X129000000Y-89550000D01*
X136931500Y-96881500D02*
X138500000Y-96881500D01*
X133000000Y-92100000D02*
X133000000Y-92950000D01*
D42*
X137500000Y-123950000D02*
X138050000Y-124500000D01*
X137500000Y-123400000D02*
X137500000Y-123950000D01*
X137500000Y-123950000D02*
X136950000Y-124500000D01*
D43*
X136750000Y-139250000D02*
X135250000Y-140750000D01*
X135250000Y-140750000D02*
X134450000Y-140750000D01*
X137400000Y-139250000D02*
X136750000Y-139250000D01*
D40*
X132650000Y-139850000D02*
X131550000Y-139850000D01*
X133900000Y-140750000D02*
X133000000Y-139850000D01*
X133000000Y-139850000D02*
X132650000Y-139850000D01*
X134450000Y-140750000D02*
X133900000Y-140750000D01*
D41*
X138500000Y-88000000D02*
X138500000Y-88118500D01*
X136500000Y-97000000D02*
X138250000Y-97000000D01*
X138250000Y-97000000D02*
X138500000Y-96881500D01*
D42*
X136550000Y-120450000D02*
X136550000Y-122400000D01*
X136550000Y-122400000D02*
X136550000Y-123400000D01*
D40*
X137950000Y-122400000D02*
X136550000Y-122400000D01*
X138450000Y-122900000D02*
X137950000Y-122400000D01*
X138450000Y-123400000D02*
X138450000Y-122900000D01*
D42*
X136475000Y-117700000D02*
X135600000Y-117700000D01*
X135100000Y-119000000D02*
X136550000Y-120450000D01*
X135600000Y-117700000D02*
X135100000Y-118200000D01*
X135100000Y-118200000D02*
X135100000Y-119000000D01*
X135700000Y-123750000D02*
X136050000Y-123400000D01*
X136050000Y-123400000D02*
X136550000Y-123400000D01*
X135100000Y-123750000D02*
X135700000Y-123750000D01*
X122450000Y-136100000D02*
X122450000Y-136625000D01*
X122450000Y-136625000D02*
X123000000Y-137175000D01*
X118625000Y-132525000D02*
X118625000Y-136625000D01*
X119000000Y-132150000D02*
X118625000Y-132525000D01*
X119000000Y-128750000D02*
X119000000Y-132150000D01*
D44*
X137650000Y-113150000D02*
X137650000Y-121150000D01*
D42*
X129750000Y-126300000D02*
X131450000Y-128000000D01*
X131450000Y-128000000D02*
X132000000Y-128000000D01*
X128750000Y-126300000D02*
X129750000Y-126300000D01*
X126900000Y-124450000D02*
X128750000Y-126300000D01*
X126400000Y-124450000D02*
X126900000Y-124450000D01*
X122850000Y-128000000D02*
X126400000Y-124450000D01*
X121400000Y-128000000D02*
X122850000Y-128000000D01*
D40*
X124050000Y-116050000D02*
X124350000Y-116350000D01*
X124350000Y-116350000D02*
X124350000Y-117700000D01*
X123250000Y-116050000D02*
X124050000Y-116050000D01*
X123250000Y-120700000D02*
X123400000Y-120700000D01*
X123400000Y-120700000D02*
X124050000Y-120050000D01*
D38*
X119750000Y-128000000D02*
X119100000Y-128000000D01*
X121400000Y-128000000D02*
X119750000Y-128000000D01*
D40*
X119750000Y-128000000D02*
X119750000Y-125300000D01*
X119750000Y-125300000D02*
X122050000Y-123000000D01*
D38*
X122400000Y-115900000D02*
X122550000Y-116050000D01*
X122550000Y-116050000D02*
X123250000Y-116050000D01*
X121600000Y-115900000D02*
X122400000Y-115900000D01*
X122300000Y-120550000D02*
X122450000Y-120700000D01*
X122450000Y-120700000D02*
X123250000Y-120700000D01*
X121950000Y-120550000D02*
X122300000Y-120550000D01*
X121600000Y-115350000D02*
X122100000Y-114850000D01*
X122100000Y-114850000D02*
X122100000Y-114250000D01*
X121600000Y-115900000D02*
X121600000Y-115350000D01*
X122100000Y-112650000D02*
X122100000Y-114250000D01*
D43*
X137650000Y-113150000D02*
X137650000Y-110750000D01*
X136850000Y-113150000D02*
X137650000Y-113150000D01*
X138450000Y-125600000D02*
X138450000Y-125400000D01*
X138450000Y-125400000D02*
X139050000Y-124800000D01*
X139050000Y-124800000D02*
X139050000Y-124500000D01*
X139050000Y-124500000D02*
X139550000Y-124000000D01*
X139550000Y-124000000D02*
X139550000Y-122500000D01*
X139550000Y-122500000D02*
X138950000Y-121900000D01*
X138950000Y-121900000D02*
X138400000Y-121900000D01*
X138400000Y-121900000D02*
X137650000Y-121150000D01*
X137650000Y-110750000D02*
X138050000Y-110350000D01*
X138050000Y-110350000D02*
X139100000Y-110350000D01*
X136850000Y-113150000D02*
X134000000Y-113150000D01*
X134000000Y-113150000D02*
X133700000Y-113450000D01*
X133700000Y-113450000D02*
X132850000Y-113450000D01*
D42*
X139750000Y-126700000D02*
X138650000Y-125600000D01*
X138650000Y-125600000D02*
X138450000Y-125600000D01*
X139950000Y-126700000D02*
X139750000Y-126700000D01*
D38*
X119100000Y-128000000D02*
X119000000Y-128100000D01*
X119000000Y-128100000D02*
X119000000Y-128750000D01*
D42*
X132250000Y-127750000D02*
X132000000Y-128000000D01*
X132760408Y-127750000D02*
X132250000Y-127750000D01*
X134050000Y-127750000D02*
X134540000Y-128240000D01*
X134540000Y-128240000D02*
X135610000Y-128240000D01*
X133700000Y-127750000D02*
X134050000Y-127750000D01*
D38*
X133700000Y-127750000D02*
X132760408Y-127750000D01*
X132760408Y-127750000D02*
X131985103Y-126974695D01*
D39*
X135490000Y-132900000D02*
X135490000Y-130800000D01*
X135490000Y-130800000D02*
X135490000Y-128800000D01*
D38*
X135439020Y-130850980D02*
X135490000Y-130800000D01*
X134000000Y-130850980D02*
X135439020Y-130850980D01*
D39*
X135490000Y-136710000D02*
X135490000Y-132900000D01*
D38*
X120500000Y-128750000D02*
X119000000Y-128750000D01*
X120500000Y-128750000D02*
X121739592Y-128750000D01*
X121739592Y-128750000D02*
X122014897Y-129025305D01*
D44*
X132850000Y-111950000D02*
X132850000Y-109950000D01*
X132850000Y-109950000D02*
X133000000Y-109800000D01*
X132850000Y-113450000D02*
X132850000Y-111950000D01*
D39*
X135490000Y-128800000D02*
X135490000Y-128360000D01*
D43*
X138450000Y-126450000D02*
X137230000Y-127670000D01*
X137230000Y-127670000D02*
X137230000Y-128240000D01*
X138450000Y-125600000D02*
X138450000Y-126450000D01*
X137400000Y-136710000D02*
X135490000Y-136710000D01*
D39*
X137230000Y-128240000D02*
X135610000Y-128240000D01*
X135610000Y-128240000D02*
X135490000Y-128360000D01*
X134450000Y-137750000D02*
X135490000Y-136710000D01*
X134450000Y-139250000D02*
X134450000Y-137750000D01*
D40*
X132300000Y-142050000D02*
X132150000Y-141900000D01*
X132150000Y-141900000D02*
X132150000Y-141000000D01*
X132800000Y-138800000D02*
X133500000Y-138800000D01*
X133500000Y-138800000D02*
X133550000Y-138850000D01*
D38*
X122450000Y-134600000D02*
X122450000Y-136100000D01*
X124277639Y-131288047D02*
X122450000Y-133115686D01*
X122450000Y-133115686D02*
X122450000Y-134600000D01*
D42*
X135650000Y-125250000D02*
X136000000Y-125600000D01*
X136000000Y-125600000D02*
X136550000Y-125600000D01*
X135100000Y-125250000D02*
X135650000Y-125250000D01*
D38*
X119900000Y-136500000D02*
X121700000Y-138300000D01*
X121700000Y-138300000D02*
X121800000Y-138300000D01*
X119900000Y-133402944D02*
X119900000Y-136500000D01*
X123146268Y-130156676D02*
X119900000Y-133402944D01*
X121300000Y-140000000D02*
X121800000Y-139500000D01*
X121800000Y-139500000D02*
X121800000Y-138300000D01*
X121300000Y-140200000D02*
X121300000Y-140000000D01*
X119300000Y-139200000D02*
X119800000Y-139700000D01*
X119800000Y-139700000D02*
X119800000Y-140200000D01*
X119300000Y-138300000D02*
X119300000Y-139200000D01*
X122580583Y-129590990D02*
X119300000Y-132871573D01*
X119300000Y-132871573D02*
X119300000Y-138300000D01*
X134000000Y-134000000D02*
X134600000Y-134600000D01*
X134600000Y-134600000D02*
X134600000Y-135600000D01*
X131400000Y-134000000D02*
X134000000Y-134000000D01*
X128100000Y-134000000D02*
X131400000Y-134000000D01*
X127000000Y-132900000D02*
X128100000Y-134000000D01*
X127000000Y-132600000D02*
X127000000Y-132900000D01*
X124700000Y-130300000D02*
X127000000Y-132600000D01*
X124134314Y-130300000D02*
X124700000Y-130300000D01*
X123711953Y-130722361D02*
X124134314Y-130300000D01*
X122530330Y-131869670D02*
X122564644Y-131869670D01*
X122564644Y-131869670D02*
X123711953Y-130722361D01*
X137400000Y-137980000D02*
X136630000Y-137980000D01*
X136630000Y-137980000D02*
X136300000Y-137650000D01*
X137400000Y-137980000D02*
X137420000Y-137980000D01*
X132300000Y-133250000D02*
X133699020Y-133250000D01*
X133699020Y-133250000D02*
X134000000Y-132949020D01*
X132275000Y-89525000D02*
X131875000Y-89525000D01*
X131875000Y-89525000D02*
X131600000Y-89800000D01*
D41*
X134150000Y-89800000D02*
X136750000Y-92400000D01*
X136750000Y-92400000D02*
X136750000Y-92500000D01*
X131600000Y-89800000D02*
X134150000Y-89800000D01*
X131000000Y-90400000D02*
X131600000Y-89800000D01*
X131000000Y-92100000D02*
X131000000Y-90400000D01*
X136750000Y-92250000D02*
X138500000Y-92500000D01*
D38*
X127400000Y-137700000D02*
X124700000Y-140400000D01*
X124700000Y-140400000D02*
X124150000Y-140400000D01*
X127400000Y-135900000D02*
X127400000Y-137700000D01*
X126449020Y-134949020D02*
X127400000Y-135900000D01*
X126449020Y-134900000D02*
X126449020Y-134949020D01*
X126449020Y-136850980D02*
X124850000Y-138450000D01*
X124850000Y-138450000D02*
X124850000Y-138600000D01*
X126449020Y-136800000D02*
X126449020Y-136850980D01*
X135125736Y-116400000D02*
X136550000Y-116400000D01*
X133900000Y-117625736D02*
X135125736Y-116400000D01*
X133900000Y-119544365D02*
X133900000Y-117625736D01*
X129298097Y-124146268D02*
X133900000Y-119544365D01*
X129156676Y-124146268D02*
X129298097Y-124146268D01*
X135374264Y-117000000D02*
X136550000Y-117000000D01*
X134500000Y-117874264D02*
X135374264Y-117000000D01*
X134500000Y-119792893D02*
X134500000Y-117874264D01*
X129722361Y-124570532D02*
X134500000Y-119792893D01*
X129722361Y-124711953D02*
X129722361Y-124570532D01*
X139450000Y-128975000D02*
X139450000Y-135930000D01*
X139450000Y-135930000D02*
X138670000Y-136710000D01*
X138715000Y-128240000D02*
X139450000Y-128975000D01*
X138500000Y-128240000D02*
X138715000Y-128240000D01*
X134400000Y-126975000D02*
X134725000Y-127300000D01*
X134725000Y-127300000D02*
X136450000Y-127300000D01*
X133350000Y-126975000D02*
X134400000Y-126975000D01*
X131375000Y-125000000D02*
X133350000Y-126975000D01*
X131375000Y-124450000D02*
X131375000Y-125000000D01*
X131125000Y-124200000D02*
X131375000Y-124450000D01*
X128590990Y-123580583D02*
X129371573Y-122800000D01*
X129371573Y-122800000D02*
X129650000Y-122800000D01*
X134800000Y-126625000D02*
X137075000Y-126625000D01*
X137075000Y-126625000D02*
X137125000Y-126575000D01*
X134675000Y-126500000D02*
X134800000Y-126625000D01*
X133600000Y-126500000D02*
X134675000Y-126500000D01*
X131850000Y-124750000D02*
X133600000Y-126500000D01*
X131850000Y-123850000D02*
X131850000Y-124750000D01*
X131700000Y-123700000D02*
X131850000Y-123850000D01*
X131700000Y-123550000D02*
X131700000Y-123700000D01*
X128940202Y-122100000D02*
X130175000Y-122100000D01*
X130175000Y-122100000D02*
X130275000Y-122200000D01*
X128025305Y-123014897D02*
X128940202Y-122100000D01*
X140050000Y-129600000D02*
X140050000Y-136600000D01*
X140050000Y-136600000D02*
X138670000Y-137980000D01*
X140150000Y-129500000D02*
X140050000Y-129600000D01*
X126600000Y-125325000D02*
X126600000Y-131559798D01*
X126600000Y-131559798D02*
X128025305Y-132985103D01*
X132100000Y-116700000D02*
X127975000Y-120825000D01*
X127975000Y-120825000D02*
X127975000Y-121950000D01*
X132100000Y-111175000D02*
X132100000Y-116700000D01*
X132025000Y-111100000D02*
X132100000Y-111175000D01*
X132025000Y-108525000D02*
X132025000Y-111100000D01*
X132500000Y-108050000D02*
X132025000Y-108525000D01*
X136350000Y-108050000D02*
X132500000Y-108050000D01*
D40*
X136350000Y-106500000D02*
X136850000Y-106000000D01*
X136850000Y-106000000D02*
X138000000Y-106000000D01*
X136350000Y-108050000D02*
X136350000Y-106500000D01*
D38*
X120600000Y-114250000D02*
X119650000Y-114250000D01*
X120600000Y-117650000D02*
X120850000Y-117900000D01*
X120850000Y-117900000D02*
X121600000Y-117900000D01*
X120600000Y-114250000D02*
X120600000Y-117650000D01*
X123200000Y-121550000D02*
X123650000Y-121550000D01*
X123650000Y-121550000D02*
X124750000Y-120450000D01*
X124100000Y-118350000D02*
X122750000Y-118350000D01*
X124750000Y-120450000D02*
X124750000Y-119000000D01*
X124750000Y-119000000D02*
X124100000Y-118350000D01*
X122750000Y-118350000D02*
X122300000Y-117900000D01*
X122300000Y-117900000D02*
X121600000Y-117900000D01*
X121950000Y-121550000D02*
X123200000Y-121550000D01*
X123300000Y-124865686D02*
X123300000Y-121650000D01*
X123300000Y-121650000D02*
X123200000Y-121550000D01*
X123711953Y-125277639D02*
X123300000Y-124865686D01*
X123146268Y-125843324D02*
X122750000Y-125447056D01*
X122750000Y-125447056D02*
X122750000Y-122500000D01*
X122750000Y-122500000D02*
X122550000Y-122300000D01*
X118550000Y-121950000D02*
X118550000Y-119750000D01*
X118550000Y-119750000D02*
X118550000Y-119550000D01*
X122550000Y-122300000D02*
X118900000Y-122300000D01*
X118900000Y-122300000D02*
X118550000Y-121950000D01*
X118550000Y-119550000D02*
X118550000Y-115800000D01*
X118550000Y-115800000D02*
X118550000Y-113250000D01*
X119600000Y-115900000D02*
X118650000Y-115900000D01*
X118650000Y-115900000D02*
X118550000Y-115800000D01*
X118550000Y-113250000D02*
X119150000Y-112650000D01*
X119150000Y-112650000D02*
X119650000Y-112650000D01*
X120600000Y-112650000D02*
X119650000Y-112650000D01*
X119250000Y-119550000D02*
X118550000Y-119550000D01*
X124650000Y-112750000D02*
X124650000Y-113300000D01*
X124650000Y-113300000D02*
X124600000Y-113350000D01*
X123250000Y-111350000D02*
X124650000Y-112750000D01*
X119400000Y-111350000D02*
X123250000Y-111350000D01*
X119000000Y-110950000D02*
X119400000Y-111350000D01*
X119000000Y-109800000D02*
X119000000Y-110950000D01*
X127300000Y-122000000D02*
X127300000Y-113700000D01*
X127300000Y-113700000D02*
X127600000Y-113400000D01*
X126950000Y-122350000D02*
X127300000Y-122000000D01*
X126950000Y-123000000D02*
X126950000Y-122350000D01*
X126950000Y-123600000D02*
X126950000Y-123000000D01*
X129050000Y-125700000D02*
X126950000Y-123600000D01*
X129865686Y-125700000D02*
X129050000Y-125700000D01*
X130288047Y-125277639D02*
X129865686Y-125700000D01*
X128025000Y-94750000D02*
X127000000Y-93725000D01*
X127000000Y-93725000D02*
X127000000Y-92100000D01*
X128025000Y-110925000D02*
X128025000Y-94750000D01*
X127675000Y-111275000D02*
X128025000Y-110925000D01*
X127375000Y-111275000D02*
X127675000Y-111275000D01*
X126275000Y-112375000D02*
X127375000Y-111275000D01*
X126275000Y-121325000D02*
X126275000Y-112375000D01*
X125000000Y-122600000D02*
X126275000Y-121325000D01*
X125000000Y-123171573D02*
X125000000Y-122600000D01*
X125409010Y-123580583D02*
X125000000Y-123171573D01*
X126550000Y-92550000D02*
X127000000Y-92100000D01*
X124843324Y-124146268D02*
X124450000Y-123752944D01*
X124450000Y-122400000D02*
X125750000Y-121100000D01*
X124450000Y-123752944D02*
X124450000Y-122400000D01*
X125750000Y-121100000D02*
X125750000Y-111475000D01*
X125750000Y-111475000D02*
X126000000Y-111225000D01*
X126000000Y-111225000D02*
X126000000Y-94525000D01*
X126000000Y-94525000D02*
X125000000Y-93525000D01*
X125000000Y-93525000D02*
X125000000Y-92100000D01*
X124277639Y-124711953D02*
X123875000Y-124309314D01*
X123875000Y-124309314D02*
X123875000Y-122175000D01*
X125250000Y-112225000D02*
X124050000Y-111025000D01*
X123875000Y-122175000D02*
X125250000Y-120800000D01*
X123000000Y-94450000D02*
X123000000Y-92100000D01*
X125250000Y-120800000D02*
X125250000Y-112225000D01*
X124050000Y-111025000D02*
X124050000Y-95500000D01*
X124050000Y-95500000D02*
X123000000Y-94450000D01*
X121250000Y-90650000D02*
X121000000Y-90900000D01*
X121000000Y-90900000D02*
X121000000Y-92100000D01*
X127700000Y-90650000D02*
X121250000Y-90650000D01*
X128000000Y-90950000D02*
X127700000Y-90650000D01*
X128000000Y-93400000D02*
X128000000Y-90950000D01*
X130000000Y-95400000D02*
X128000000Y-93400000D01*
X130000000Y-111000000D02*
X130000000Y-95400000D01*
X129600000Y-111400000D02*
X130000000Y-111000000D01*
X128500000Y-111400000D02*
X129600000Y-111400000D01*
X126800000Y-113100000D02*
X128500000Y-111400000D01*
X126800000Y-121650000D02*
X126800000Y-113100000D01*
X125974695Y-122475305D02*
X126800000Y-121650000D01*
X125974695Y-123014897D02*
X125974695Y-122475305D01*
X124350980Y-134900000D02*
X124350980Y-133477447D01*
X124350980Y-133477447D02*
X125409010Y-132419417D01*
X123300000Y-136500000D02*
X123600000Y-136800000D01*
X123600000Y-136800000D02*
X124350980Y-136800000D01*
X123300000Y-133397056D02*
X123300000Y-136500000D01*
X124843324Y-131853732D02*
X123300000Y-133397056D01*
X127400000Y-125975000D02*
X127400000Y-131228427D01*
X127400000Y-131228427D02*
X128590990Y-132419417D01*
X128900000Y-120675000D02*
X128725000Y-120850000D01*
X128725000Y-120850000D02*
X128725000Y-121425000D01*
X132675000Y-116900000D02*
X128900000Y-120675000D01*
X132675000Y-114700000D02*
X132675000Y-116900000D01*
X133000000Y-114375000D02*
X132675000Y-114700000D01*
X133875000Y-114375000D02*
X133000000Y-114375000D01*
X139000000Y-108850000D02*
X137300000Y-108850000D01*
X137300000Y-108850000D02*
X133875000Y-112275000D01*
X139650000Y-108200000D02*
X139000000Y-108850000D01*
X139650000Y-104525000D02*
X139650000Y-108200000D01*
X138585000Y-103460000D02*
X139650000Y-104525000D01*
X138000000Y-103460000D02*
X138585000Y-103460000D01*
X138000000Y-103460000D02*
X138810000Y-103460000D01*
X126385103Y-132985103D02*
X128350000Y-134950000D01*
X128350000Y-134950000D02*
X128500000Y-134950000D01*
X125974695Y-132985103D02*
X126385103Y-132985103D01*
D10*
G36*
X130800000Y-137988539D02*
X130068648Y-139500000D01*
X128650000Y-139500000D01*
X128650000Y-138170710D01*
X129385355Y-137435355D01*
X129396325Y-137418815D01*
X129400000Y-137400000D01*
X129400000Y-134450000D01*
X130800000Y-134450000D01*
X130800000Y-137988539D01*
X130800000Y-137988539D01*
G37*
X130800000Y-137988539D02*
X130068648Y-139500000D01*
X128650000Y-139500000D01*
X128650000Y-138170710D01*
X129385355Y-137435355D01*
X129396325Y-137418815D01*
X129400000Y-137400000D01*
X129400000Y-134450000D01*
X130800000Y-134450000D01*
X130800000Y-137988539D01*
G36*
X134066660Y-140387262D02*
X134083784Y-140397297D01*
X134100000Y-140400000D01*
X135300000Y-140400000D01*
X135300000Y-141550000D01*
X133311803Y-141550000D01*
X133022361Y-141405279D01*
X133000000Y-141400000D01*
X132650000Y-141400000D01*
X132650000Y-140250000D01*
X132646061Y-140230547D01*
X132634864Y-140214160D01*
X132618173Y-140203419D01*
X132600000Y-140200000D01*
X131100000Y-140200000D01*
X131080547Y-140203939D01*
X131061452Y-140218156D01*
X130126450Y-141350000D01*
X129050000Y-141350000D01*
X129050000Y-140300000D01*
X130100000Y-140300000D01*
X130119453Y-140296061D01*
X130130000Y-140290000D01*
X131116667Y-139550000D01*
X133130897Y-139550000D01*
X134066660Y-140387262D01*
X134066660Y-140387262D01*
G37*
X134066660Y-140387262D02*
X134083784Y-140397297D01*
X134100000Y-140400000D01*
X135300000Y-140400000D01*
X135300000Y-141550000D01*
X133311803Y-141550000D01*
X133022361Y-141405279D01*
X133000000Y-141400000D01*
X132650000Y-141400000D01*
X132650000Y-140250000D01*
X132646061Y-140230547D01*
X132634864Y-140214160D01*
X132618173Y-140203419D01*
X132600000Y-140200000D01*
X131100000Y-140200000D01*
X131080547Y-140203939D01*
X131061452Y-140218156D01*
X130126450Y-141350000D01*
X129050000Y-141350000D01*
X129050000Y-140300000D01*
X130100000Y-140300000D01*
X130119453Y-140296061D01*
X130130000Y-140290000D01*
X131116667Y-139550000D01*
X133130897Y-139550000D01*
X134066660Y-140387262D01*
G36*
X133400000Y-137374734D02*
X132470340Y-138059747D01*
X132457125Y-138074275D01*
X132307125Y-138324275D01*
X132300000Y-138350000D01*
X132300000Y-139200000D01*
X132000000Y-139200000D01*
X132000000Y-134450000D01*
X133400000Y-134450000D01*
X133400000Y-137374734D01*
X133400000Y-137374734D01*
G37*
X133400000Y-137374734D02*
X132470340Y-138059747D01*
X132457125Y-138074275D01*
X132307125Y-138324275D01*
X132300000Y-138350000D01*
X132300000Y-139200000D01*
X132000000Y-139200000D01*
X132000000Y-134450000D01*
X133400000Y-134450000D01*
X133400000Y-137374734D01*
G36*
X135150000Y-139600000D02*
X134111803Y-139600000D01*
X133322361Y-139205279D01*
X133300000Y-139200000D01*
X132650000Y-139200000D01*
X132650000Y-138389776D01*
X133905696Y-138100000D01*
X135150000Y-138100000D01*
X135150000Y-139600000D01*
X135150000Y-139600000D01*
G37*
X135150000Y-139600000D02*
X134111803Y-139600000D01*
X133322361Y-139205279D01*
X133300000Y-139200000D01*
X132650000Y-139200000D01*
X132650000Y-138389776D01*
X133905696Y-138100000D01*
X135150000Y-138100000D01*
X135150000Y-139600000D01*
M02*
