G04 #@! TF.FileFunction,Copper,L1,Top,Signal*
%FSLAX46Y46*%
G04 Gerber Fmt 4.6, Leading zero omitted, Abs format (unit mm)*
G04 Created by KiCad (PCBNEW 4.0.1-3.201512150931+6195~38~ubuntu14.04.1-stable) date Sat 02 Jan 2016 04:25:21 GMT*
%MOMM*%
G01*
G04 APERTURE LIST*
%ADD10C,0.100000*%
%ADD11R,1.060000X0.650000*%
%ADD12R,1.000000X1.000000*%
%ADD13C,2.000000*%
%ADD14R,0.400000X0.600000*%
%ADD15R,2.400000X1.500000*%
%ADD16C,1.016000*%
%ADD17R,0.750000X0.800000*%
%ADD18R,0.900000X0.500000*%
%ADD19R,0.500000X0.900000*%
%ADD20R,1.500000X3.000000*%
%ADD21R,0.400000X0.900000*%
%ADD22R,1.198880X1.198880*%
%ADD23R,1.100000X1.900000*%
%ADD24C,1.000000*%
%ADD25C,1.800000*%
%ADD26C,0.750000*%
%ADD27R,0.800000X0.750000*%
%ADD28R,0.600000X0.300000*%
%ADD29R,0.300000X0.600000*%
%ADD30R,3.450000X3.450000*%
%ADD31C,0.400000*%
%ADD32C,0.787000*%
%ADD33C,0.700000*%
%ADD34C,0.750000*%
%ADD35C,0.300000*%
%ADD36C,0.250000*%
%ADD37C,0.500000*%
%ADD38C,1.000000*%
G04 APERTURE END LIST*
D10*
D11*
X116350000Y-115850000D03*
X116350000Y-114900000D03*
X116350000Y-113950000D03*
X114150000Y-113950000D03*
X114150000Y-115850000D03*
D10*
G36*
X137923223Y-110075201D02*
X137074695Y-110923729D01*
X135660481Y-109509515D01*
X136509009Y-108660987D01*
X137923223Y-110075201D01*
X137923223Y-110075201D01*
G37*
G36*
X140539519Y-132490485D02*
X139690991Y-133339013D01*
X138276777Y-131924799D01*
X139125305Y-131076271D01*
X140539519Y-132490485D01*
X140539519Y-132490485D01*
G37*
G36*
X141953732Y-131076272D02*
X141105204Y-131924800D01*
X139690990Y-130510586D01*
X140539518Y-129662058D01*
X141953732Y-131076272D01*
X141953732Y-131076272D01*
G37*
G36*
X143367946Y-129662058D02*
X142519418Y-130510586D01*
X141105204Y-129096372D01*
X141953732Y-128247844D01*
X143367946Y-129662058D01*
X143367946Y-129662058D01*
G37*
G36*
X144782159Y-128247845D02*
X143933631Y-129096373D01*
X142519417Y-127682159D01*
X143367945Y-126833631D01*
X144782159Y-128247845D01*
X144782159Y-128247845D01*
G37*
G36*
X146196373Y-126833631D02*
X145347845Y-127682159D01*
X143933631Y-126267945D01*
X144782159Y-125419417D01*
X146196373Y-126833631D01*
X146196373Y-126833631D01*
G37*
G36*
X147610586Y-125419418D02*
X146762058Y-126267946D01*
X145347844Y-124853732D01*
X146196372Y-124005204D01*
X147610586Y-125419418D01*
X147610586Y-125419418D01*
G37*
G36*
X149024800Y-124005204D02*
X148176272Y-124853732D01*
X146762058Y-123439518D01*
X147610586Y-122590990D01*
X149024800Y-124005204D01*
X149024800Y-124005204D01*
G37*
G36*
X150439013Y-122590991D02*
X149590485Y-123439519D01*
X148176271Y-122025305D01*
X149024799Y-121176777D01*
X150439013Y-122590991D01*
X150439013Y-122590991D01*
G37*
G36*
X136509010Y-111489414D02*
X135660482Y-112337942D01*
X134246268Y-110923728D01*
X135094796Y-110075200D01*
X136509010Y-111489414D01*
X136509010Y-111489414D01*
G37*
G36*
X135094796Y-112903628D02*
X134246268Y-113752156D01*
X132832054Y-112337942D01*
X133680582Y-111489414D01*
X135094796Y-112903628D01*
X135094796Y-112903628D01*
G37*
G36*
X133680583Y-114317841D02*
X132832055Y-115166369D01*
X131417841Y-113752155D01*
X132266369Y-112903627D01*
X133680583Y-114317841D01*
X133680583Y-114317841D01*
G37*
G36*
X132266369Y-115732055D02*
X131417841Y-116580583D01*
X130003627Y-115166369D01*
X130852155Y-114317841D01*
X132266369Y-115732055D01*
X132266369Y-115732055D01*
G37*
G36*
X130852156Y-117146268D02*
X130003628Y-117994796D01*
X128589414Y-116580582D01*
X129437942Y-115732054D01*
X130852156Y-117146268D01*
X130852156Y-117146268D01*
G37*
G36*
X129437942Y-118560482D02*
X128589414Y-119409010D01*
X127175200Y-117994796D01*
X128023728Y-117146268D01*
X129437942Y-118560482D01*
X129437942Y-118560482D01*
G37*
G36*
X128023729Y-119974695D02*
X127175201Y-120823223D01*
X125760987Y-119409009D01*
X126609515Y-118560481D01*
X128023729Y-119974695D01*
X128023729Y-119974695D01*
G37*
D12*
X132250000Y-134750000D03*
X130250000Y-134750000D03*
X132250000Y-136750000D03*
X130250000Y-136750000D03*
D10*
G36*
X107050000Y-106085786D02*
X108464214Y-107500000D01*
X107050000Y-108914214D01*
X105635786Y-107500000D01*
X107050000Y-106085786D01*
X107050000Y-106085786D01*
G37*
D13*
X105253949Y-105703949D03*
D14*
X134000000Y-136600000D03*
X135000000Y-136600000D03*
X136000000Y-136600000D03*
X134000000Y-133900000D03*
X135000000Y-133900000D03*
X136000000Y-133900000D03*
D15*
X135000000Y-135250000D03*
D16*
X121098025Y-123305923D03*
X121996051Y-124203949D03*
X120200000Y-124203949D03*
X121098025Y-125101975D03*
X119301974Y-125101975D03*
X120200000Y-126000000D03*
X118403949Y-126000000D03*
X119301974Y-126898026D03*
X117505923Y-126898026D03*
X118403949Y-127796051D03*
D10*
G36*
X135395726Y-103587828D02*
X138987828Y-99995726D01*
X140604274Y-101612172D01*
X137012172Y-105204274D01*
X135395726Y-103587828D01*
X135395726Y-103587828D01*
G37*
G36*
X132252636Y-100444739D02*
X135844739Y-96852636D01*
X137550988Y-98558885D01*
X133958885Y-102150988D01*
X132252636Y-100444739D01*
X132252636Y-100444739D01*
G37*
G36*
X138449012Y-106641115D02*
X142041115Y-103049012D01*
X143747364Y-104755261D01*
X140155261Y-108347364D01*
X138449012Y-106641115D01*
X138449012Y-106641115D01*
G37*
D17*
X112800000Y-93750000D03*
X112800000Y-95250000D03*
D18*
X111100000Y-93750000D03*
X111100000Y-95250000D03*
D19*
X132050000Y-108100000D03*
X133550000Y-108100000D03*
D20*
X112900000Y-90900000D03*
X115500000Y-90900000D03*
D21*
X114250000Y-93400000D03*
X114900000Y-93400000D03*
X115550000Y-93400000D03*
X114250000Y-95600000D03*
X114900000Y-95600000D03*
X115550000Y-95600000D03*
D17*
X117250000Y-93750000D03*
X117250000Y-95250000D03*
X112550000Y-115050000D03*
X112550000Y-113550000D03*
D10*
G36*
X147321662Y-126901992D02*
X147851992Y-126371662D01*
X148417678Y-126937348D01*
X147887348Y-127467678D01*
X147321662Y-126901992D01*
X147321662Y-126901992D01*
G37*
G36*
X148382322Y-127962652D02*
X148912652Y-127432322D01*
X149478338Y-127998008D01*
X148948008Y-128528338D01*
X148382322Y-127962652D01*
X148382322Y-127962652D01*
G37*
D17*
X113150000Y-111400000D03*
X113150000Y-109900000D03*
D22*
X120400000Y-92249020D03*
X120400000Y-90150980D03*
X120900000Y-102499020D03*
X120900000Y-100400980D03*
X119000000Y-102499020D03*
X119000000Y-100400980D03*
D23*
X123000000Y-102250000D03*
X125500000Y-102250000D03*
D10*
G36*
X112436396Y-118307969D02*
X112153554Y-118025127D01*
X113108148Y-117070533D01*
X113390990Y-117353375D01*
X112436396Y-118307969D01*
X112436396Y-118307969D01*
G37*
G36*
X112896015Y-118767588D02*
X112613173Y-118484746D01*
X113567767Y-117530152D01*
X113850609Y-117812994D01*
X112896015Y-118767588D01*
X112896015Y-118767588D01*
G37*
G36*
X113355635Y-119227207D02*
X113072793Y-118944365D01*
X114027387Y-117989771D01*
X114310229Y-118272613D01*
X113355635Y-119227207D01*
X113355635Y-119227207D01*
G37*
G36*
X113815254Y-119686827D02*
X113532412Y-119403985D01*
X114487006Y-118449391D01*
X114769848Y-118732233D01*
X113815254Y-119686827D01*
X113815254Y-119686827D01*
G37*
G36*
X114274873Y-120146446D02*
X113992031Y-119863604D01*
X114946625Y-118909010D01*
X115229467Y-119191852D01*
X114274873Y-120146446D01*
X114274873Y-120146446D01*
G37*
D24*
X112348008Y-116805367D03*
X115494633Y-119951992D03*
D10*
G36*
X110986827Y-120959619D02*
X109714035Y-119686827D01*
X110986827Y-118414035D01*
X112259619Y-119686827D01*
X110986827Y-120959619D01*
X110986827Y-120959619D01*
G37*
G36*
X112613173Y-122585965D02*
X111340381Y-121313173D01*
X112613173Y-120040381D01*
X113885965Y-121313173D01*
X112613173Y-122585965D01*
X112613173Y-122585965D01*
G37*
G36*
X114197092Y-121808147D02*
X115922433Y-123533488D01*
X114578930Y-124876991D01*
X112853589Y-123151650D01*
X114197092Y-121808147D01*
X114197092Y-121808147D01*
G37*
G36*
X109148350Y-119446411D02*
X107423009Y-117721070D01*
X108766512Y-116377567D01*
X110491853Y-118102908D01*
X109148350Y-119446411D01*
X109148350Y-119446411D01*
G37*
D25*
X134800000Y-105500000D03*
X141400000Y-136200000D03*
X143500000Y-134200000D03*
D26*
X122850000Y-108000000D03*
X124000000Y-106900000D03*
D27*
X116550000Y-117250000D03*
X118050000Y-117250000D03*
D10*
G36*
X148421662Y-125801992D02*
X148951992Y-125271662D01*
X149517678Y-125837348D01*
X148987348Y-126367678D01*
X148421662Y-125801992D01*
X148421662Y-125801992D01*
G37*
G36*
X149482322Y-126862652D02*
X150012652Y-126332322D01*
X150578338Y-126898008D01*
X150048008Y-127428338D01*
X149482322Y-126862652D01*
X149482322Y-126862652D01*
G37*
D17*
X123650000Y-100300000D03*
X123650000Y-98800000D03*
X125200000Y-100300000D03*
X125200000Y-98800000D03*
D27*
X115950000Y-100400000D03*
X114450000Y-100400000D03*
X123100000Y-105450000D03*
X124600000Y-105450000D03*
X116850000Y-102500000D03*
X115350000Y-102500000D03*
X116850000Y-104000000D03*
X115350000Y-104000000D03*
X135850000Y-132500000D03*
X134350000Y-132500000D03*
D17*
X114650000Y-111400000D03*
X114650000Y-109900000D03*
D27*
X130750000Y-133000000D03*
X132250000Y-133000000D03*
D18*
X106800000Y-96150000D03*
X106800000Y-97650000D03*
X122200000Y-90450000D03*
X122200000Y-91950000D03*
X128050000Y-104900000D03*
X128050000Y-106400000D03*
X129650000Y-104900000D03*
X129650000Y-106400000D03*
D19*
X120800000Y-98700000D03*
X122300000Y-98700000D03*
X122400000Y-97150000D03*
X123900000Y-97150000D03*
D10*
G36*
X108911091Y-109175305D02*
X108274695Y-108538909D01*
X108628249Y-108185355D01*
X109264645Y-108821751D01*
X108911091Y-109175305D01*
X108911091Y-109175305D01*
G37*
G36*
X109971751Y-108114645D02*
X109335355Y-107478249D01*
X109688909Y-107124695D01*
X110325305Y-107761091D01*
X109971751Y-108114645D01*
X109971751Y-108114645D01*
G37*
D27*
X116050000Y-112450000D03*
X117550000Y-112450000D03*
D28*
X121000000Y-110250000D03*
D29*
X116900000Y-110850000D03*
X120400000Y-106150000D03*
X119900000Y-106150000D03*
X119400000Y-106150000D03*
X118900000Y-106150000D03*
X118400000Y-106150000D03*
X117900000Y-106150000D03*
X117400000Y-106150000D03*
X116900000Y-106150000D03*
D28*
X116300000Y-106750000D03*
X116300000Y-107250000D03*
X116300000Y-107750000D03*
X116300000Y-108250000D03*
X116300000Y-108750000D03*
X116300000Y-109250000D03*
X116300000Y-109750000D03*
X116300000Y-110250000D03*
D29*
X117400000Y-110850000D03*
X117900000Y-110850000D03*
X118400000Y-110850000D03*
X118900000Y-110850000D03*
X119400000Y-110850000D03*
X119900000Y-110850000D03*
X120400000Y-110850000D03*
D28*
X121000000Y-109750000D03*
X121000000Y-109250000D03*
X121000000Y-108750000D03*
X121000000Y-108250000D03*
X121000000Y-107750000D03*
X121000000Y-107250000D03*
X121000000Y-106750000D03*
D30*
X118650000Y-108500000D03*
D31*
X119950000Y-108500000D03*
X118650000Y-109800000D03*
X118650000Y-107200000D03*
X117350000Y-108500000D03*
X118650000Y-108500000D03*
D32*
X124050000Y-127853949D03*
X124948026Y-128751975D03*
X123151975Y-128751975D03*
X124050000Y-129650000D03*
X122253949Y-129650000D03*
X123151975Y-130548026D03*
D13*
X108565224Y-94715224D03*
X145334776Y-131484776D03*
D33*
X116350000Y-93700000D03*
X114900000Y-96650000D03*
X111950000Y-93200000D03*
X113250000Y-96950000D03*
X110500000Y-106825029D03*
X125050000Y-97450000D03*
X121950000Y-106400000D03*
X116450000Y-121850000D03*
X115800000Y-121200000D03*
X117724990Y-113505039D03*
X112550000Y-112550000D03*
X115250000Y-115400000D03*
X115250000Y-114450000D03*
X118150000Y-116000000D03*
X133150000Y-132700000D03*
X136944805Y-133705195D03*
X135000000Y-135250000D03*
X128950000Y-136700000D03*
X125550000Y-105450000D03*
X121400000Y-128750000D03*
X120500000Y-128750000D03*
X114650000Y-108900000D03*
X113150000Y-108900000D03*
X114400000Y-102500000D03*
X114400000Y-104000000D03*
X113500000Y-100400000D03*
X122200000Y-92900000D03*
X118150000Y-96200000D03*
X118250000Y-95250000D03*
X110100000Y-96100000D03*
X111100000Y-96250000D03*
X114900000Y-94550000D03*
X115750000Y-94550000D03*
X112150000Y-104074990D03*
X112150000Y-106825020D03*
X123551536Y-122848430D03*
X125900000Y-129700000D03*
X124187929Y-123484845D03*
X124900000Y-130450000D03*
X126175010Y-108050000D03*
X134779048Y-131079048D03*
X131556829Y-130685055D03*
X126927304Y-107427304D03*
X129830969Y-131594998D03*
X132455944Y-130724990D03*
X115300000Y-106750000D03*
X113390122Y-106843244D03*
X126852801Y-110802801D03*
X122994573Y-110771885D03*
X126114198Y-111541405D03*
X122988270Y-109810973D03*
X125477801Y-112177802D03*
X123885549Y-109880918D03*
X124802801Y-112852802D03*
X122358176Y-111408283D03*
X120250000Y-103850000D03*
X117699990Y-104944982D03*
X119250000Y-103750000D03*
X116702332Y-105184481D03*
X113390122Y-105943241D03*
X115240133Y-105851991D03*
X111395496Y-107340931D03*
X114880508Y-108030018D03*
X122850000Y-114850000D03*
X118200000Y-114650000D03*
D34*
X126475001Y-104174999D02*
X126475001Y-104600000D01*
X126475001Y-104600000D02*
X126475001Y-105005999D01*
X123100000Y-105450000D02*
X123150000Y-105450000D01*
X123150000Y-105450000D02*
X123624999Y-104975001D01*
X123624999Y-104975001D02*
X123624999Y-104614999D01*
X123624999Y-104614999D02*
X123739999Y-104499999D01*
X123739999Y-104499999D02*
X126375000Y-104499999D01*
X126375000Y-104499999D02*
X126475001Y-104600000D01*
D35*
X118400000Y-104650000D02*
X117750000Y-104000000D01*
X117750000Y-104000000D02*
X116850000Y-104000000D01*
X118400000Y-106150000D02*
X118400000Y-104650000D01*
D34*
X113200000Y-105000000D02*
X113200000Y-102330998D01*
X113200000Y-102330998D02*
X113980999Y-101549999D01*
X113980999Y-101549999D02*
X116210001Y-101549999D01*
X116210001Y-101549999D02*
X116850000Y-102189998D01*
X116850000Y-102189998D02*
X116850000Y-102500000D01*
D35*
X116850000Y-104000000D02*
X116850000Y-102500000D01*
D34*
X128100000Y-102550000D02*
X126475001Y-104174999D01*
X128100000Y-98800000D02*
X128100000Y-102550000D01*
X125300000Y-96000000D02*
X128100000Y-98800000D01*
X121100000Y-96000000D02*
X125300000Y-96000000D01*
D36*
X128050000Y-104900000D02*
X127350000Y-104900000D01*
X127350000Y-104900000D02*
X127244001Y-105005999D01*
X127244001Y-105005999D02*
X126475001Y-105005999D01*
X129650000Y-104900000D02*
X128050000Y-104900000D01*
D34*
X125250000Y-109824623D02*
X121024979Y-114049644D01*
X121024979Y-114049644D02*
X121024976Y-114049644D01*
X126475001Y-105924999D02*
X125250000Y-107150000D01*
X125250000Y-107150000D02*
X125250000Y-109824623D01*
X126475001Y-105005999D02*
X126475001Y-105924999D01*
X111250000Y-114875000D02*
X111250000Y-111525000D01*
X111250000Y-111525000D02*
X111700000Y-111075000D01*
X111425000Y-115050000D02*
X111250000Y-114875000D01*
X112550000Y-115050000D02*
X111425000Y-115050000D01*
D35*
X112550000Y-115050000D02*
X113350000Y-115050000D01*
X113350000Y-115050000D02*
X114150000Y-115850000D01*
X116500000Y-111400000D02*
X114650000Y-111400000D01*
X116900000Y-110850000D02*
X116900000Y-111000000D01*
X116900000Y-111000000D02*
X116500000Y-111400000D01*
D34*
X113150000Y-111400000D02*
X114650000Y-111400000D01*
X113200000Y-105000000D02*
X113580998Y-105000000D01*
X113580998Y-105000000D02*
X113605999Y-105025001D01*
X112705999Y-107974999D02*
X111700000Y-108980998D01*
X113605999Y-105025001D02*
X113932143Y-105025001D01*
X113932143Y-105025001D02*
X114315132Y-105407990D01*
X114315132Y-105407990D02*
X114315132Y-107287236D01*
X114315132Y-107287236D02*
X113627369Y-107974999D01*
X111700000Y-111075000D02*
X112025000Y-111400000D01*
X113627369Y-107974999D02*
X112705999Y-107974999D01*
X111700000Y-108980998D02*
X111700000Y-111075000D01*
X112025000Y-111400000D02*
X113150000Y-111400000D01*
X113200000Y-105000000D02*
X109300000Y-105000000D01*
X108900000Y-98100000D02*
X119000000Y-98100000D01*
X119000000Y-98100000D02*
X121100000Y-96000000D01*
X109300000Y-105000000D02*
X107700000Y-103400000D01*
X107700000Y-99300000D02*
X108900000Y-98100000D01*
X107700000Y-103400000D02*
X107700000Y-99300000D01*
X121100000Y-96000000D02*
X121100000Y-95800000D01*
X121024976Y-114049644D02*
X121024976Y-118332908D01*
X124400000Y-125005056D02*
X123804790Y-124409846D01*
X125112949Y-124292107D02*
X124400000Y-125005056D01*
X121606024Y-122797924D02*
X121098025Y-123305923D01*
X123743928Y-124409846D02*
X122132006Y-122797924D01*
X123804790Y-124409846D02*
X123743928Y-124409846D01*
X121024976Y-118332908D02*
X125112949Y-122420881D01*
X125112949Y-122420881D02*
X125112949Y-124292107D01*
X122132006Y-122797924D02*
X121606024Y-122797924D01*
X150600000Y-124189340D02*
X150600000Y-123600506D01*
X150600000Y-123600506D02*
X149307642Y-122308148D01*
X148969670Y-125819670D02*
X150600000Y-124189340D01*
X147869670Y-126919670D02*
X148969670Y-125819670D01*
X145400000Y-128700000D02*
X146089340Y-128700000D01*
X146089340Y-128700000D02*
X147869670Y-126919670D01*
X139650000Y-134450000D02*
X141400000Y-136200000D01*
X137450000Y-132250000D02*
X139650000Y-134450000D01*
X139650000Y-134450000D02*
X145400000Y-128700000D01*
D35*
X135000000Y-133900000D02*
X135000000Y-133150000D01*
X135000000Y-133150000D02*
X134350000Y-132500000D01*
D34*
X133300000Y-131249936D02*
X133200000Y-131349936D01*
X133200000Y-131349936D02*
X133200000Y-131375000D01*
X133200000Y-131375000D02*
X134325000Y-132500000D01*
X134325000Y-132500000D02*
X134350000Y-132500000D01*
X132899936Y-131650000D02*
X133300000Y-131249936D01*
X133300000Y-131249936D02*
X134399936Y-130150000D01*
X130800000Y-131650000D02*
X132899936Y-131650000D01*
X134399936Y-130150000D02*
X135450000Y-130150000D01*
D35*
X130750000Y-133000000D02*
X130750000Y-133250000D01*
X130750000Y-133250000D02*
X132250000Y-134750000D01*
D34*
X125724879Y-126329935D02*
X124400000Y-125005056D01*
D35*
X120400000Y-106150000D02*
X120400000Y-106000000D01*
X120400000Y-106000000D02*
X120950000Y-105450000D01*
X120950000Y-105450000D02*
X122400000Y-105450000D01*
X122400000Y-105450000D02*
X123100000Y-105450000D01*
D34*
X125913040Y-126329935D02*
X125724879Y-126329935D01*
X130800000Y-131650000D02*
X130800000Y-131216895D01*
X130800000Y-131216895D02*
X125913040Y-126329935D01*
X125913040Y-126329935D02*
X124881038Y-126329935D01*
X124050000Y-127297456D02*
X124050000Y-127853949D01*
X124881038Y-126329935D02*
X124050000Y-127160973D01*
X124050000Y-127160973D02*
X124050000Y-127297456D01*
X130800000Y-131650000D02*
X130750000Y-131700000D01*
D37*
X124050000Y-127900000D02*
X124050000Y-127853949D01*
D34*
X137450000Y-131550000D02*
X137450000Y-132250000D01*
X136050000Y-130150000D02*
X137450000Y-131550000D01*
X135450000Y-130150000D02*
X136050000Y-130150000D01*
D37*
X149300000Y-122300000D02*
X149307642Y-122308148D01*
D34*
X130750000Y-131800000D02*
X130750000Y-131700000D01*
X130750000Y-131700000D02*
X130750000Y-133000000D01*
X117250000Y-93750000D02*
X119050000Y-93750000D01*
X119050000Y-93750000D02*
X119100000Y-93800000D01*
X121100000Y-95800000D02*
X120500000Y-95200000D01*
X119100000Y-93800000D02*
X120500000Y-95200000D01*
D36*
X120400000Y-92249020D02*
X120400000Y-92500000D01*
X120400000Y-92500000D02*
X119100000Y-93800000D01*
X119100000Y-93800000D02*
X119100000Y-93750000D01*
X120300000Y-92300000D02*
X120350000Y-92199020D01*
D34*
X119100000Y-93750000D02*
X119100000Y-93750000D01*
X119100000Y-93750000D02*
X119150000Y-93750000D01*
D36*
X114900000Y-95600000D02*
X114900000Y-96650000D01*
X116350000Y-93700000D02*
X116400000Y-93700000D01*
X112800000Y-93750000D02*
X112800000Y-91000000D01*
X112800000Y-91000000D02*
X112900000Y-90900000D01*
X113800000Y-93400000D02*
X113450000Y-93750000D01*
X113450000Y-93750000D02*
X112800000Y-93750000D01*
X114250000Y-93400000D02*
X113800000Y-93400000D01*
X106800000Y-96150000D02*
X106980448Y-96150000D01*
X106980448Y-96150000D02*
X108515224Y-94615224D01*
D34*
X111100000Y-93750000D02*
X109400000Y-93750000D01*
X109400000Y-93750000D02*
X108550000Y-94600000D01*
X108550000Y-94600000D02*
X108515224Y-94615224D01*
D36*
X114250000Y-95600000D02*
X114250000Y-95950000D01*
X114250000Y-95950000D02*
X113250000Y-96950000D01*
X112800000Y-93750000D02*
X112500000Y-93750000D01*
X114250000Y-95550000D02*
X114250000Y-95600000D01*
X112800000Y-93800000D02*
X112800000Y-93750000D01*
X109830330Y-107619670D02*
X109830330Y-107494699D01*
X109830330Y-107494699D02*
X110500000Y-106825029D01*
D35*
X115550000Y-95600000D02*
X115550000Y-94750000D01*
X115550000Y-94750000D02*
X115750000Y-94550000D01*
D36*
X123900000Y-97150000D02*
X124750000Y-97150000D01*
X124750000Y-97150000D02*
X125050000Y-97450000D01*
X123650000Y-98750000D02*
X123750000Y-98750000D01*
X123750000Y-98750000D02*
X125050000Y-97450000D01*
X123650000Y-98800000D02*
X123650000Y-98750000D01*
X125200000Y-98800000D02*
X125200000Y-97600000D01*
X125200000Y-97600000D02*
X125050000Y-97450000D01*
X122300000Y-98700000D02*
X123550000Y-98700000D01*
X123550000Y-98700000D02*
X123650000Y-98800000D01*
X123900000Y-98550000D02*
X123650000Y-98800000D01*
D35*
X121750000Y-107250000D02*
X121950000Y-107050000D01*
X121950000Y-107050000D02*
X121950000Y-106400000D01*
X121000000Y-107250000D02*
X121750000Y-107250000D01*
X115800000Y-121200000D02*
X116450000Y-121850000D01*
X114610749Y-119527728D02*
X114610749Y-120326110D01*
X114610749Y-120326110D02*
X115484639Y-121200000D01*
X115484639Y-121200000D02*
X115800000Y-121200000D01*
X117550000Y-112450000D02*
X117550000Y-113330049D01*
X117550000Y-113330049D02*
X117724990Y-113505039D01*
X112550000Y-113550000D02*
X112550000Y-112550000D01*
X116350000Y-114900000D02*
X115750000Y-114900000D01*
X115750000Y-114900000D02*
X115250000Y-115400000D01*
X116350000Y-114900000D02*
X115700000Y-114900000D01*
X115700000Y-114900000D02*
X115250000Y-114450000D01*
X118050000Y-117250000D02*
X118050000Y-116100000D01*
X118050000Y-116100000D02*
X118150000Y-116000000D01*
D34*
X145284776Y-131384776D02*
X145525884Y-131384776D01*
X145525884Y-131384776D02*
X148930330Y-127980330D01*
X150030330Y-126880330D02*
X148930330Y-127980330D01*
D36*
X132250000Y-133000000D02*
X132850000Y-133000000D01*
X132850000Y-133000000D02*
X133150000Y-132700000D01*
X135850000Y-132500000D02*
X135850000Y-132610390D01*
X135850000Y-132610390D02*
X136944805Y-133705195D01*
X135000000Y-136600000D02*
X135000000Y-135250000D01*
D35*
X130250000Y-136750000D02*
X129000000Y-136750000D01*
X129000000Y-136750000D02*
X128950000Y-136700000D01*
X124600000Y-105450000D02*
X125550000Y-105450000D01*
D37*
X120500000Y-128750000D02*
X121400000Y-128750000D01*
X121400000Y-128750000D02*
X122253949Y-129603949D01*
X122253949Y-129650000D02*
X122253949Y-129603949D01*
D36*
X114650000Y-109900000D02*
X114650000Y-108900000D01*
D35*
X113150000Y-109900000D02*
X113150000Y-108900000D01*
X114400000Y-102500000D02*
X115300000Y-102500000D01*
X114400000Y-104000000D02*
X115250000Y-104000000D01*
D36*
X114450000Y-100400000D02*
X113500000Y-100400000D01*
X122200000Y-91950000D02*
X122200000Y-92900000D01*
X117250000Y-95250000D02*
X117250000Y-95300000D01*
X117250000Y-95300000D02*
X118150000Y-96200000D01*
X117250000Y-95250000D02*
X118250000Y-95250000D01*
X111100000Y-95250000D02*
X110950000Y-95250000D01*
X110950000Y-95250000D02*
X110100000Y-96100000D01*
X111100000Y-95250000D02*
X111100000Y-96250000D01*
X114950000Y-94550000D02*
X114900000Y-94550000D01*
X112800000Y-95250000D02*
X112950000Y-95250000D01*
X112950000Y-95250000D02*
X113650000Y-94550000D01*
X113650000Y-94550000D02*
X114950000Y-94550000D01*
X114950000Y-94550000D02*
X115750000Y-94550000D01*
X132050000Y-108100000D02*
X131600000Y-108100000D01*
X131600000Y-108100000D02*
X131500000Y-108100000D01*
D38*
X136791852Y-109792358D02*
X140784210Y-105800000D01*
X140784210Y-105800000D02*
X141000000Y-105800000D01*
X141000000Y-105800000D02*
X141098188Y-105698188D01*
X133963425Y-112620785D02*
X131500000Y-110157360D01*
X131500000Y-102900000D02*
X135000000Y-99400000D01*
X131500000Y-110157360D02*
X131500000Y-108100000D01*
X131500000Y-108100000D02*
X131500000Y-102900000D01*
X135000000Y-99400000D02*
X134901812Y-99501812D01*
D36*
X118403949Y-127796051D02*
X117171106Y-127796051D01*
X117171106Y-127796051D02*
X116650000Y-127274945D01*
X116650000Y-127274945D02*
X116650000Y-123250000D01*
X110999990Y-108691045D02*
X112150000Y-107541035D01*
X116650000Y-123250000D02*
X110549989Y-117149989D01*
X110549989Y-117149989D02*
X110549990Y-111235047D01*
X110549990Y-111235047D02*
X110999990Y-110785047D01*
X110999990Y-110785047D02*
X110999990Y-108691045D01*
X112150000Y-107541035D02*
X112150000Y-106825020D01*
X115675000Y-99500000D02*
X113400998Y-99500000D01*
X113400998Y-99500000D02*
X112150000Y-100750998D01*
X112150000Y-100750998D02*
X112150000Y-102000998D01*
X115950000Y-100400000D02*
X115950000Y-99775000D01*
X115950000Y-99775000D02*
X115675000Y-99500000D01*
X117850000Y-101050000D02*
X117200000Y-100400000D01*
X117200000Y-100400000D02*
X115950000Y-100400000D01*
X117850000Y-103428235D02*
X117850000Y-101050000D01*
X118900000Y-106150000D02*
X118900000Y-104478235D01*
X118900000Y-104478235D02*
X117850000Y-103428235D01*
X112150000Y-104074990D02*
X112150000Y-102000998D01*
X118403949Y-127796051D02*
X122196051Y-127796051D01*
X122196051Y-127796051D02*
X123151975Y-128751975D01*
X123201537Y-122498431D02*
X123551536Y-122848430D01*
X119874954Y-119424954D02*
X122813610Y-122363611D01*
X122813610Y-122363611D02*
X123066717Y-122363611D01*
X119874954Y-113573290D02*
X119874954Y-119424954D01*
X119900000Y-113548244D02*
X119874954Y-113573290D01*
X123066717Y-122363611D02*
X123201537Y-122498431D01*
X119900000Y-110850000D02*
X119900000Y-113548244D01*
X125900000Y-129700000D02*
X125896051Y-129700000D01*
X125896051Y-129700000D02*
X124948026Y-128751975D01*
X124226554Y-122524450D02*
X124226554Y-123446220D01*
X120324965Y-113759690D02*
X120324965Y-118622861D01*
X120400000Y-110850000D02*
X120400000Y-113684655D01*
X120324965Y-118622861D02*
X124226554Y-122524450D01*
X120400000Y-113684655D02*
X120324965Y-113759690D01*
X124226554Y-123446220D02*
X124187929Y-123484845D01*
X124900000Y-130450000D02*
X124850000Y-130450000D01*
X124850000Y-130450000D02*
X124050000Y-129650000D01*
X126175010Y-108050000D02*
X126175010Y-107875010D01*
X126175010Y-107875010D02*
X125950010Y-107650010D01*
X125950010Y-107650010D02*
X125950010Y-107449990D01*
X125950010Y-107449990D02*
X127000000Y-106400000D01*
X127000000Y-106400000D02*
X128050000Y-106400000D01*
X131556829Y-130685055D02*
X131258122Y-130685055D01*
X131258122Y-130685055D02*
X125812960Y-125239894D01*
X125812960Y-125239894D02*
X125812960Y-122130928D01*
X125812960Y-122130928D02*
X121724987Y-118042955D01*
X121724987Y-118042955D02*
X121724988Y-114339598D01*
X121724988Y-114339598D02*
X126175010Y-109889576D01*
X126175010Y-109889576D02*
X126175010Y-108050000D01*
D35*
X121000000Y-108250000D02*
X122600000Y-108250000D01*
X122600000Y-108250000D02*
X122850000Y-108000000D01*
D36*
X136620804Y-134380196D02*
X137000000Y-134380196D01*
X137000000Y-134380196D02*
X137268806Y-134380196D01*
X133700000Y-137450000D02*
X136235002Y-137450000D01*
X136235002Y-137450000D02*
X137000000Y-136685002D01*
X137000000Y-136685002D02*
X137000000Y-134380196D01*
X132250000Y-136750000D02*
X133000000Y-136750000D01*
X133000000Y-136750000D02*
X133700000Y-137450000D01*
X134779048Y-131079048D02*
X135274022Y-131079048D01*
X135274022Y-131079048D02*
X135994973Y-131799999D01*
X135994973Y-131799999D02*
X136391837Y-131799999D01*
X136391837Y-131799999D02*
X136575001Y-131983163D01*
X136000000Y-133900000D02*
X136140608Y-133900000D01*
X136140608Y-133900000D02*
X136620804Y-134380196D01*
X137268806Y-134380196D02*
X137650000Y-133999002D01*
X137650000Y-133999002D02*
X137650000Y-133439962D01*
X137650000Y-133439962D02*
X136575001Y-132364963D01*
X136575001Y-132364963D02*
X136575001Y-131983163D01*
D35*
X122850000Y-108250000D02*
X123000000Y-108100000D01*
D36*
X126927304Y-107427304D02*
X129122696Y-107427304D01*
X129122696Y-107427304D02*
X129650000Y-106900000D01*
X129650000Y-106900000D02*
X129650000Y-106400000D01*
X126927304Y-107427304D02*
X126850011Y-107504597D01*
X126850011Y-107504597D02*
X126850011Y-109792851D01*
X126850011Y-109792851D02*
X126879079Y-109821919D01*
X126879079Y-109821919D02*
X122174998Y-114525998D01*
X122174998Y-114525998D02*
X122174998Y-117856553D01*
X122174998Y-117856553D02*
X132455944Y-128137516D01*
X132455944Y-128137516D02*
X132455944Y-130724990D01*
D35*
X121000000Y-107750000D02*
X121957120Y-107750000D01*
X121957120Y-107750000D02*
X122807120Y-106900000D01*
X122807120Y-106900000D02*
X123469670Y-106900000D01*
X123469670Y-106900000D02*
X124000000Y-106900000D01*
D36*
X133350000Y-136400000D02*
X133350000Y-136150000D01*
X133350000Y-136150000D02*
X132950000Y-135750000D01*
X134000000Y-136600000D02*
X133550000Y-136600000D01*
X133550000Y-136600000D02*
X133350000Y-136400000D01*
X132950000Y-135750000D02*
X130500000Y-135750000D01*
X130500000Y-135750000D02*
X130250000Y-135500000D01*
X130250000Y-135500000D02*
X130250000Y-134750000D01*
X134000000Y-136600000D02*
X134000000Y-136550000D01*
D35*
X130250000Y-134750000D02*
X130250000Y-133905002D01*
X130250000Y-133905002D02*
X129830969Y-133485971D01*
X129830969Y-133485971D02*
X129830969Y-131594998D01*
X117400000Y-114170000D02*
X117400000Y-115630000D01*
X117400000Y-115630000D02*
X117180000Y-115850000D01*
X117180000Y-115850000D02*
X116350000Y-115850000D01*
X116350000Y-113950000D02*
X117180000Y-113950000D01*
X117180000Y-113950000D02*
X117400000Y-114170000D01*
X116550000Y-117250000D02*
X116550000Y-116050000D01*
X116550000Y-116050000D02*
X116350000Y-115850000D01*
X115450000Y-116850000D02*
X113611523Y-116850000D01*
X113611523Y-116850000D02*
X112772272Y-117689251D01*
X116550000Y-117250000D02*
X115850000Y-117250000D01*
X115850000Y-117250000D02*
X115450000Y-116850000D01*
X114900000Y-93400000D02*
X114900000Y-91500000D01*
X114900000Y-91500000D02*
X115500000Y-90900000D01*
D36*
X119400000Y-106150000D02*
X119400000Y-105478588D01*
X121125020Y-104524980D02*
X123000000Y-102650000D01*
X119400000Y-105478588D02*
X120353608Y-104524980D01*
X120353608Y-104524980D02*
X121125020Y-104524980D01*
X123000000Y-102650000D02*
X123000000Y-102250000D01*
X123000000Y-101700000D02*
X123650000Y-101050000D01*
X123650000Y-101050000D02*
X123650000Y-100300000D01*
X123000000Y-102250000D02*
X123000000Y-101700000D01*
X123450046Y-103799989D02*
X124350011Y-103799989D01*
X124350011Y-103799989D02*
X125500000Y-102650000D01*
X125500000Y-102650000D02*
X125500000Y-102250000D01*
X120540008Y-104974990D02*
X122215008Y-104974990D01*
X122215008Y-104974990D02*
X122789998Y-104400000D01*
X122789998Y-104400000D02*
X122850035Y-104400000D01*
X122850035Y-104400000D02*
X123450046Y-103799989D01*
X119900000Y-106150000D02*
X119900000Y-105614998D01*
X119900000Y-105614998D02*
X120540008Y-104974990D01*
X125500000Y-101350000D02*
X125200000Y-101050000D01*
X125200000Y-101050000D02*
X125200000Y-100300000D01*
X125500000Y-102250000D02*
X125500000Y-101350000D01*
X122200000Y-90450000D02*
X120450000Y-90450000D01*
X120450000Y-90450000D02*
X120400000Y-90400000D01*
X120400000Y-90400000D02*
X120400000Y-90150980D01*
X120250000Y-90450000D02*
X120200000Y-90400000D01*
X120200000Y-90400000D02*
X120350000Y-90100980D01*
X134800000Y-105500000D02*
X134800000Y-105600000D01*
X134800000Y-105600000D02*
X134000000Y-106400000D01*
X133550000Y-108100000D02*
X134100000Y-108100000D01*
X134100000Y-108100000D02*
X134000000Y-108100000D01*
D38*
X135377639Y-111206571D02*
X134000000Y-109828932D01*
X134000000Y-106400000D02*
X138000000Y-102400000D01*
X134000000Y-109828932D02*
X134000000Y-108100000D01*
X134000000Y-108100000D02*
X134000000Y-106400000D01*
X138000000Y-102400000D02*
X138000000Y-102600000D01*
D36*
X120800000Y-98700000D02*
X120800000Y-100300980D01*
X120800000Y-100300980D02*
X120900000Y-100400980D01*
X122400000Y-97150000D02*
X120939962Y-97150000D01*
X120939962Y-97150000D02*
X119000000Y-99089962D01*
X119000000Y-99089962D02*
X119000000Y-99551540D01*
X119000000Y-99551540D02*
X119000000Y-100400980D01*
X107050000Y-107500000D02*
X107589340Y-107500000D01*
X107589340Y-107500000D02*
X108769670Y-108680330D01*
X112600010Y-106150010D02*
X112249990Y-106150010D01*
X112249990Y-106150010D02*
X112249981Y-106150019D01*
X112249981Y-106150019D02*
X108399981Y-106150019D01*
X108399981Y-106150019D02*
X107827817Y-106722183D01*
X107827817Y-106722183D02*
X107050000Y-107500000D01*
X116300000Y-106750000D02*
X115300000Y-106750000D01*
X113291123Y-106843244D02*
X112715121Y-106267242D01*
X113390122Y-106843244D02*
X113291123Y-106843244D01*
X112715121Y-106265121D02*
X112600010Y-106150010D01*
X112715121Y-106267242D02*
X112715121Y-106265121D01*
X132549212Y-114034998D02*
X131028948Y-114034998D01*
X131028948Y-114034998D02*
X127843950Y-110850000D01*
X127843950Y-110850000D02*
X126600000Y-110850000D01*
X121000000Y-109750000D02*
X121972688Y-109750000D01*
X121972688Y-109750000D02*
X122994573Y-110771885D01*
X132014214Y-113500000D02*
X132549212Y-114034998D01*
X131134998Y-115449212D02*
X127227191Y-111541405D01*
X127227191Y-111541405D02*
X126114198Y-111541405D01*
X121000000Y-109250000D02*
X122427297Y-109250000D01*
X122427297Y-109250000D02*
X122988270Y-109810973D01*
X129720785Y-116863425D02*
X125477801Y-112620441D01*
X125477801Y-112620441D02*
X125477801Y-112177802D01*
X129720785Y-116420786D02*
X129720785Y-116863425D01*
X121000000Y-108750000D02*
X122613998Y-108750000D01*
X122613998Y-108750000D02*
X122663999Y-108800001D01*
X122663999Y-108800001D02*
X122976300Y-108800001D01*
X122976300Y-108800001D02*
X123950000Y-109773701D01*
X123950000Y-109773701D02*
X123950000Y-109950000D01*
X124802801Y-112852802D02*
X124802801Y-114773869D01*
X124802801Y-114773869D02*
X128306571Y-118277639D01*
X121000000Y-110250000D02*
X121199893Y-110250000D01*
X121199893Y-110250000D02*
X122358176Y-111408283D01*
X127877638Y-118277639D02*
X128306571Y-118277639D01*
X121000000Y-110250000D02*
X121200000Y-110250000D01*
X120944974Y-103650000D02*
X120900000Y-103605026D01*
X120900000Y-103605026D02*
X120900000Y-102499020D01*
X120250000Y-103850000D02*
X120744974Y-103850000D01*
X120744974Y-103850000D02*
X120944974Y-103650000D01*
X117900000Y-106150000D02*
X117900000Y-105144992D01*
X117900000Y-105144992D02*
X117699990Y-104944982D01*
X119250000Y-103750000D02*
X119250000Y-102749020D01*
X119250000Y-102749020D02*
X119000000Y-102499020D01*
X117400000Y-106150000D02*
X117400000Y-105600000D01*
X117400000Y-105600000D02*
X117389999Y-105589999D01*
X117375001Y-105589999D02*
X117310001Y-105524999D01*
X117042850Y-105524999D02*
X116702332Y-105184481D01*
X117389999Y-105589999D02*
X117375001Y-105589999D01*
X117310001Y-105524999D02*
X117042850Y-105524999D01*
X113390122Y-105943241D02*
X113029651Y-105943241D01*
X113029651Y-105943241D02*
X112786420Y-105700010D01*
X112786420Y-105700010D02*
X106672101Y-105700010D01*
X106672101Y-105700010D02*
X106668162Y-105703949D01*
X106668162Y-105703949D02*
X105253949Y-105703949D01*
X113390122Y-105943241D02*
X113390122Y-105840122D01*
X116900000Y-106150000D02*
X116601991Y-105851991D01*
X116601991Y-105851991D02*
X115240133Y-105851991D01*
X103928948Y-105021052D02*
X106800000Y-102150000D01*
X106800000Y-102150000D02*
X106800000Y-97650000D01*
X106850315Y-109500315D02*
X103928948Y-106578948D01*
X103928948Y-106578948D02*
X103928948Y-105021052D01*
X111395496Y-107340931D02*
X109236112Y-109500315D01*
X109236112Y-109500315D02*
X106850315Y-109500315D01*
X106800000Y-97550000D02*
X106800000Y-97650000D01*
X116300000Y-109250000D02*
X115750000Y-109250000D01*
X115750000Y-109250000D02*
X115674999Y-109174999D01*
X115674999Y-109174999D02*
X115674999Y-108824509D01*
X115674999Y-108824509D02*
X114880508Y-108030018D01*
X126658670Y-118150000D02*
X126150000Y-118150000D01*
X126150000Y-118150000D02*
X122850000Y-114850000D01*
X139408148Y-132207642D02*
X139408148Y-130899478D01*
X139408148Y-130899478D02*
X126658670Y-118150000D01*
X118400000Y-110850000D02*
X118400000Y-114450000D01*
X118400000Y-114450000D02*
X118200000Y-114650000D01*
X139408148Y-131908148D02*
X139408148Y-132207642D01*
D35*
X114150000Y-113200000D02*
X114900000Y-112450000D01*
X114900000Y-112450000D02*
X116050000Y-112450000D01*
X114150000Y-113950000D02*
X114150000Y-113200000D01*
D36*
X113337958Y-118148870D02*
X114086828Y-117400000D01*
X115153552Y-117400000D02*
X116603552Y-118850000D01*
X118367392Y-118850000D02*
X118900001Y-118317391D01*
X113231891Y-118148870D02*
X113337958Y-118148870D01*
X114086828Y-117400000D02*
X115153552Y-117400000D01*
X116603552Y-118850000D02*
X118367392Y-118850000D01*
X118900001Y-118317391D02*
X118900001Y-110850001D01*
X118900001Y-110850001D02*
X118900000Y-110850000D01*
X113691511Y-118608489D02*
X113691511Y-118502423D01*
X113691511Y-118502423D02*
X114293934Y-117900000D01*
X114293934Y-117900000D02*
X114946448Y-117900000D01*
X114946448Y-117900000D02*
X116396448Y-119350000D01*
X119399999Y-110850001D02*
X119400000Y-110850000D01*
X116396448Y-119350000D02*
X118574496Y-119350000D01*
X118574496Y-119350000D02*
X119399999Y-118524497D01*
X119399999Y-118524497D02*
X119399999Y-110850001D01*
D10*
G36*
X114050000Y-94104897D02*
X114450000Y-94104897D01*
X114476026Y-94100000D01*
X114675818Y-94100000D01*
X114700000Y-94104897D01*
X115100000Y-94104897D01*
X115126026Y-94100000D01*
X115325818Y-94100000D01*
X115350000Y-94104897D01*
X115750000Y-94104897D01*
X115776026Y-94100000D01*
X115829290Y-94100000D01*
X116464645Y-94735355D01*
X116481185Y-94746325D01*
X116500000Y-94750000D01*
X118279290Y-94750000D01*
X118700000Y-95170710D01*
X118700000Y-96229290D01*
X118379290Y-96550000D01*
X117820710Y-96550000D01*
X116185355Y-94914645D01*
X116168815Y-94903675D01*
X116150000Y-94900000D01*
X115124182Y-94900000D01*
X115100000Y-94895103D01*
X114700000Y-94895103D01*
X114673974Y-94900000D01*
X114474182Y-94900000D01*
X114450000Y-94895103D01*
X114050000Y-94895103D01*
X114023974Y-94900000D01*
X113850000Y-94900000D01*
X113830547Y-94903939D01*
X113814645Y-94914645D01*
X113129290Y-95600000D01*
X112450000Y-95600000D01*
X112430547Y-95603939D01*
X112414645Y-95614645D01*
X111429290Y-96600000D01*
X110070710Y-96600000D01*
X109750000Y-96279290D01*
X109750000Y-95970710D01*
X110670710Y-95050000D01*
X112250000Y-95050000D01*
X112269453Y-95046061D01*
X112285355Y-95035355D01*
X112420710Y-94900000D01*
X112950000Y-94900000D01*
X112969453Y-94896061D01*
X112985355Y-94885355D01*
X113770710Y-94100000D01*
X114025818Y-94100000D01*
X114050000Y-94104897D01*
X114050000Y-94104897D01*
G37*
X114050000Y-94104897D02*
X114450000Y-94104897D01*
X114476026Y-94100000D01*
X114675818Y-94100000D01*
X114700000Y-94104897D01*
X115100000Y-94104897D01*
X115126026Y-94100000D01*
X115325818Y-94100000D01*
X115350000Y-94104897D01*
X115750000Y-94104897D01*
X115776026Y-94100000D01*
X115829290Y-94100000D01*
X116464645Y-94735355D01*
X116481185Y-94746325D01*
X116500000Y-94750000D01*
X118279290Y-94750000D01*
X118700000Y-95170710D01*
X118700000Y-96229290D01*
X118379290Y-96550000D01*
X117820710Y-96550000D01*
X116185355Y-94914645D01*
X116168815Y-94903675D01*
X116150000Y-94900000D01*
X115124182Y-94900000D01*
X115100000Y-94895103D01*
X114700000Y-94895103D01*
X114673974Y-94900000D01*
X114474182Y-94900000D01*
X114450000Y-94895103D01*
X114050000Y-94895103D01*
X114023974Y-94900000D01*
X113850000Y-94900000D01*
X113830547Y-94903939D01*
X113814645Y-94914645D01*
X113129290Y-95600000D01*
X112450000Y-95600000D01*
X112430547Y-95603939D01*
X112414645Y-95614645D01*
X111429290Y-96600000D01*
X110070710Y-96600000D01*
X109750000Y-96279290D01*
X109750000Y-95970710D01*
X110670710Y-95050000D01*
X112250000Y-95050000D01*
X112269453Y-95046061D01*
X112285355Y-95035355D01*
X112420710Y-94900000D01*
X112950000Y-94900000D01*
X112969453Y-94896061D01*
X112985355Y-94885355D01*
X113770710Y-94100000D01*
X114025818Y-94100000D01*
X114050000Y-94104897D01*
G36*
X113600000Y-92829290D02*
X113114645Y-93314645D01*
X113103675Y-93331185D01*
X113100000Y-93350000D01*
X113100000Y-94100000D01*
X111670710Y-94100000D01*
X111535355Y-93964645D01*
X111518815Y-93953675D01*
X111500000Y-93950000D01*
X110550000Y-93950000D01*
X110550000Y-93520710D01*
X112170710Y-91900000D01*
X113600000Y-91900000D01*
X113600000Y-92829290D01*
X113600000Y-92829290D01*
G37*
X113600000Y-92829290D02*
X113114645Y-93314645D01*
X113103675Y-93331185D01*
X113100000Y-93350000D01*
X113100000Y-94100000D01*
X111670710Y-94100000D01*
X111535355Y-93964645D01*
X111518815Y-93953675D01*
X111500000Y-93950000D01*
X110550000Y-93950000D01*
X110550000Y-93520710D01*
X112170710Y-91900000D01*
X113600000Y-91900000D01*
X113600000Y-92829290D01*
G36*
X116814645Y-93385355D02*
X116831185Y-93396325D01*
X116850000Y-93400000D01*
X117550000Y-93400000D01*
X117550000Y-94100000D01*
X116320710Y-94100000D01*
X116035355Y-93814645D01*
X116018815Y-93803675D01*
X116000000Y-93800000D01*
X115400000Y-93800000D01*
X115400000Y-93000000D01*
X116429290Y-93000000D01*
X116814645Y-93385355D01*
X116814645Y-93385355D01*
G37*
X116814645Y-93385355D02*
X116831185Y-93396325D01*
X116850000Y-93400000D01*
X117550000Y-93400000D01*
X117550000Y-94100000D01*
X116320710Y-94100000D01*
X116035355Y-93814645D01*
X116018815Y-93803675D01*
X116000000Y-93800000D01*
X115400000Y-93800000D01*
X115400000Y-93000000D01*
X116429290Y-93000000D01*
X116814645Y-93385355D01*
M02*
