M48
;DRILL file {KiCad 4.0.1-3.201512221402+6198~38~ubuntu14.04.1-stable} date Mon 25 Jan 2016 19:22:21 GMT
;FORMAT={-:-/ absolute / inch / decimal}
FMAT,2
INCH,TZ
T1C0.020
T2C0.024
T3C0.025
T4C0.026
T5C0.035
T6C0.039
T7C0.040
%
G90
G05
M72
T1
X4.6781Y-4.8425
X4.6827Y-4.9744
X4.7087Y-4.6098
X4.7098Y-5.5472
X4.7106Y-5.4846
X4.7118Y-5.4169
X4.7201Y-5.3256
X4.7465Y-4.9732
X4.748Y-4.7461
X4.8031Y-4.8449
X4.8256Y-4.6031
X4.8307Y-4.6622
X4.8717Y-4.1685
X4.8823Y-4.722
X4.9Y-4.465
X4.9016Y-4.5079
X4.9059Y-5.3815
X4.9339Y-5.3508
X4.9795Y-4.9346
X4.9913Y-4.1878
X5.0106Y-4.9622
X5.0244Y-4.4646
X5.0421Y-4.7917
X5.048Y-5.5717
X5.0787Y-3.5256
X5.0803Y-4.7783
X5.0992Y-4.837
X5.1087Y-5.4378
X5.1283Y-4.8083
X5.1469Y-4.7287
X5.1642Y-5.5071
X5.1697Y-5.5941
X5.1768Y-4.7
X5.189Y-4.4866
X5.2102Y-4.8425
X5.2126Y-5.5941
X5.2193Y-5.2642
X5.2217Y-4.9472
X5.228Y-5.5079
X5.2402Y-4.8134
X5.248Y-4.9122
X5.2587Y-5.4575
X5.2634Y-5.1248
X5.2717Y-3.6949
X5.2717Y-4.8728
X5.2862Y-4.8319
X5.2933Y-5.3386
X5.3122Y-4.3709
X5.3213Y-4.5343
X5.3665Y-5.4323
X5.3685Y-5.0091
X5.3976Y-4.902
X5.4067Y-4.3075
X5.4126Y-4.9657
X5.4276Y-4.9012
X5.4717Y-5.0079
X5.5252Y-4.8894
T3
X5.4028Y-5.0488
X5.4028Y-5.0988
X5.4028Y-5.1488
X5.4028Y-5.1988
X5.4028Y-5.2488
X5.4528Y-5.0488
X5.4528Y-5.0988
X5.4528Y-5.1488
X5.4528Y-5.1988
X5.4528Y-5.2488
T5
X4.9803Y-3.4843
X4.9803Y-5.5315
T6
X5.3618Y-4.1567
X5.4618Y-4.1567
T7
X5.3398Y-4.0268
X5.3839Y-3.6417
X5.472Y-4.0224
T2
X5.4646Y-4.4183G85X5.4921Y-4.4183
G05
X5.4646Y-4.747G85X5.4921Y-4.747
G05
T4
X5.3563Y-4.4951G85X5.3642Y-4.4951
G05
X5.3563Y-4.6703G85X5.3642Y-4.6703
G05
T0
M30
