G04 #@! TF.FileFunction,Copper,L1,Top,Signal*
%FSLAX46Y46*%
G04 Gerber Fmt 4.6, Leading zero omitted, Abs format (unit mm)*
G04 Created by KiCad (PCBNEW 4.0.1-3.201512221402+6198~38~ubuntu14.04.1-stable) date Mon 25 Jan 2016 19:22:19 GMT*
%MOMM*%
G01*
G04 APERTURE LIST*
%ADD10C,0.100000*%
%ADD11R,0.750000X0.800000*%
%ADD12R,0.800000X0.750000*%
%ADD13R,0.900000X0.500000*%
%ADD14R,1.198880X1.198880*%
%ADD15R,1.350000X0.400000*%
%ADD16O,1.250000X1.000000*%
%ADD17R,1.900000X1.800000*%
%ADD18R,1.900000X1.575000*%
%ADD19O,1.900000X1.000000*%
%ADD20R,1.500000X3.000000*%
%ADD21C,2.000000*%
%ADD22R,5.080000X2.286000*%
%ADD23R,5.080000X2.413000*%
%ADD24C,0.787000*%
%ADD25R,2.000000X2.000000*%
%ADD26R,0.500000X0.900000*%
%ADD27C,1.800000*%
%ADD28C,0.750000*%
%ADD29R,0.650000X1.060000*%
%ADD30R,0.400000X0.900000*%
%ADD31R,1.200000X2.000000*%
%ADD32R,0.600000X0.400000*%
%ADD33R,1.500000X2.400000*%
%ADD34R,1.000000X1.000000*%
%ADD35C,1.016000*%
%ADD36C,0.800000*%
%ADD37C,0.250000*%
%ADD38C,0.750000*%
%ADD39C,0.300000*%
%ADD40C,0.500000*%
%ADD41C,0.400000*%
%ADD42C,1.000000*%
%ADD43C,0.600000*%
G04 APERTURE END LIST*
D10*
D11*
X129750000Y-139150000D03*
X129750000Y-140650000D03*
X135125000Y-124225000D03*
X135125000Y-122725000D03*
X134450000Y-139250000D03*
X134450000Y-140750000D03*
D12*
X135175000Y-125700000D03*
X133675000Y-125700000D03*
D11*
X139950000Y-126700000D03*
X139950000Y-125200000D03*
X136450000Y-108580000D03*
X136450000Y-110080000D03*
X134930000Y-108580000D03*
X134930000Y-110080000D03*
X120875000Y-134300000D03*
X120875000Y-135800000D03*
X119375000Y-132825000D03*
X119375000Y-134325000D03*
D12*
X130125000Y-133375000D03*
X131625000Y-133375000D03*
D11*
X133700000Y-127750000D03*
X133700000Y-129250000D03*
D10*
G36*
X122096662Y-135051992D02*
X122626992Y-134521662D01*
X123192678Y-135087348D01*
X122662348Y-135617678D01*
X122096662Y-135051992D01*
X122096662Y-135051992D01*
G37*
G36*
X123157322Y-136112652D02*
X123687652Y-135582322D01*
X124253338Y-136148008D01*
X123723008Y-136678338D01*
X123157322Y-136112652D01*
X123157322Y-136112652D01*
G37*
G36*
X123146662Y-133976992D02*
X123676992Y-133446662D01*
X124242678Y-134012348D01*
X123712348Y-134542678D01*
X123146662Y-133976992D01*
X123146662Y-133976992D01*
G37*
G36*
X124207322Y-135037652D02*
X124737652Y-134507322D01*
X125303338Y-135073008D01*
X124773008Y-135603338D01*
X124207322Y-135037652D01*
X124207322Y-135037652D01*
G37*
D11*
X123250000Y-119050000D03*
X123250000Y-120550000D03*
X120500000Y-128750000D03*
X120500000Y-127250000D03*
X119000000Y-128750000D03*
X119000000Y-127250000D03*
X123250000Y-115900000D03*
X123250000Y-117400000D03*
D13*
X128200000Y-139150000D03*
X128200000Y-140650000D03*
D14*
X123949020Y-138125000D03*
X121850980Y-138125000D03*
D13*
X132275000Y-88025000D03*
X132275000Y-89525000D03*
D14*
X123949020Y-141925000D03*
X121850980Y-141925000D03*
X123949020Y-140025000D03*
X121850980Y-140025000D03*
D15*
X136475000Y-116400000D03*
X136475000Y-115750000D03*
X136475000Y-117050000D03*
X136475000Y-117700000D03*
X136475000Y-115100000D03*
D16*
X136150000Y-114175000D03*
X136150000Y-118625000D03*
D17*
X139150000Y-115250000D03*
X139150000Y-117550000D03*
D18*
X139150000Y-113012500D03*
D19*
X139150000Y-112225000D03*
D18*
X139150000Y-119787500D03*
D19*
X139150000Y-120575000D03*
D20*
X130100000Y-135900000D03*
X132700000Y-135900000D03*
D21*
X126500000Y-140500000D03*
X126500000Y-88500000D03*
D22*
X138500000Y-92500000D03*
D23*
X138500000Y-88118500D03*
X138500000Y-96881500D03*
D24*
X137400000Y-136710000D03*
X138670000Y-136710000D03*
X137400000Y-137980000D03*
X138670000Y-137980000D03*
X137400000Y-139250000D03*
X138670000Y-139250000D03*
D25*
X136190000Y-105580000D03*
D21*
X138730000Y-105580000D03*
D13*
X128500000Y-136450000D03*
X128500000Y-134950000D03*
D26*
X120450000Y-138425000D03*
X118950000Y-138425000D03*
X119400000Y-114200000D03*
X120900000Y-114200000D03*
X120900000Y-112600000D03*
X119400000Y-112600000D03*
X120450000Y-141625000D03*
X118950000Y-141625000D03*
X120450000Y-140025000D03*
X118950000Y-140025000D03*
D13*
X132820000Y-115470000D03*
X132820000Y-113970000D03*
D27*
X136750000Y-92500000D03*
X135630000Y-102280000D03*
X138990000Y-102170000D03*
D28*
X124500000Y-114500000D03*
X118825000Y-123000000D03*
D29*
X138450000Y-123400000D03*
X137500000Y-123400000D03*
X136550000Y-123400000D03*
X136550000Y-125600000D03*
X138450000Y-125600000D03*
D30*
X131500000Y-138800000D03*
X132150000Y-138800000D03*
X132800000Y-138800000D03*
X131500000Y-141000000D03*
X132150000Y-141000000D03*
X132800000Y-141000000D03*
D31*
X133000000Y-92100000D03*
X119000000Y-109800000D03*
X121000000Y-109800000D03*
X123000000Y-109800000D03*
X125000000Y-109800000D03*
X127000000Y-109800000D03*
X129000000Y-109800000D03*
X131000000Y-109800000D03*
X133000000Y-109800000D03*
X131000000Y-92100000D03*
X129000000Y-92100000D03*
X127000000Y-92100000D03*
X125000000Y-92100000D03*
X123000000Y-92100000D03*
X121000000Y-92100000D03*
X119000000Y-92100000D03*
D10*
G36*
X121413856Y-129272792D02*
X122262384Y-128424264D01*
X122615938Y-128777818D01*
X121767410Y-129626346D01*
X121413856Y-129272792D01*
X121413856Y-129272792D01*
G37*
G36*
X121979542Y-129838477D02*
X122828070Y-128989949D01*
X123181624Y-129343503D01*
X122333096Y-130192031D01*
X121979542Y-129838477D01*
X121979542Y-129838477D01*
G37*
G36*
X122545227Y-130404163D02*
X123393755Y-129555635D01*
X123747309Y-129909189D01*
X122898781Y-130757717D01*
X122545227Y-130404163D01*
X122545227Y-130404163D01*
G37*
G36*
X123110912Y-130969848D02*
X123959440Y-130121320D01*
X124312994Y-130474874D01*
X123464466Y-131323402D01*
X123110912Y-130969848D01*
X123110912Y-130969848D01*
G37*
G36*
X123676598Y-131535534D02*
X124525126Y-130687006D01*
X124878680Y-131040560D01*
X124030152Y-131889088D01*
X123676598Y-131535534D01*
X123676598Y-131535534D01*
G37*
G36*
X124242283Y-132101219D02*
X125090811Y-131252691D01*
X125444365Y-131606245D01*
X124595837Y-132454773D01*
X124242283Y-132101219D01*
X124242283Y-132101219D01*
G37*
G36*
X124807969Y-132666904D02*
X125656497Y-131818376D01*
X126010051Y-132171930D01*
X125161523Y-133020458D01*
X124807969Y-132666904D01*
X124807969Y-132666904D01*
G37*
G36*
X125373654Y-133232590D02*
X126222182Y-132384062D01*
X126575736Y-132737616D01*
X125727208Y-133586144D01*
X125373654Y-133232590D01*
X125373654Y-133232590D01*
G37*
G36*
X131384062Y-127222182D02*
X132232590Y-126373654D01*
X132586144Y-126727208D01*
X131737616Y-127575736D01*
X131384062Y-127222182D01*
X131384062Y-127222182D01*
G37*
G36*
X130818376Y-126656497D02*
X131666904Y-125807969D01*
X132020458Y-126161523D01*
X131171930Y-127010051D01*
X130818376Y-126656497D01*
X130818376Y-126656497D01*
G37*
G36*
X130252691Y-126090811D02*
X131101219Y-125242283D01*
X131454773Y-125595837D01*
X130606245Y-126444365D01*
X130252691Y-126090811D01*
X130252691Y-126090811D01*
G37*
G36*
X129687006Y-125525126D02*
X130535534Y-124676598D01*
X130889088Y-125030152D01*
X130040560Y-125878680D01*
X129687006Y-125525126D01*
X129687006Y-125525126D01*
G37*
G36*
X129121320Y-124959440D02*
X129969848Y-124110912D01*
X130323402Y-124464466D01*
X129474874Y-125312994D01*
X129121320Y-124959440D01*
X129121320Y-124959440D01*
G37*
G36*
X128555635Y-124393755D02*
X129404163Y-123545227D01*
X129757717Y-123898781D01*
X128909189Y-124747309D01*
X128555635Y-124393755D01*
X128555635Y-124393755D01*
G37*
G36*
X127989949Y-123828070D02*
X128838477Y-122979542D01*
X129192031Y-123333096D01*
X128343503Y-124181624D01*
X127989949Y-123828070D01*
X127989949Y-123828070D01*
G37*
G36*
X127424264Y-123262384D02*
X128272792Y-122413856D01*
X128626346Y-122767410D01*
X127777818Y-123615938D01*
X127424264Y-123262384D01*
X127424264Y-123262384D01*
G37*
G36*
X127424264Y-132737616D02*
X127777818Y-132384062D01*
X128626346Y-133232590D01*
X128272792Y-133586144D01*
X127424264Y-132737616D01*
X127424264Y-132737616D01*
G37*
G36*
X127989949Y-132171930D02*
X128343503Y-131818376D01*
X129192031Y-132666904D01*
X128838477Y-133020458D01*
X127989949Y-132171930D01*
X127989949Y-132171930D01*
G37*
G36*
X128555635Y-131606245D02*
X128909189Y-131252691D01*
X129757717Y-132101219D01*
X129404163Y-132454773D01*
X128555635Y-131606245D01*
X128555635Y-131606245D01*
G37*
G36*
X129121320Y-131040560D02*
X129474874Y-130687006D01*
X130323402Y-131535534D01*
X129969848Y-131889088D01*
X129121320Y-131040560D01*
X129121320Y-131040560D01*
G37*
G36*
X129687006Y-130474874D02*
X130040560Y-130121320D01*
X130889088Y-130969848D01*
X130535534Y-131323402D01*
X129687006Y-130474874D01*
X129687006Y-130474874D01*
G37*
G36*
X130252691Y-129909189D02*
X130606245Y-129555635D01*
X131454773Y-130404163D01*
X131101219Y-130757717D01*
X130252691Y-129909189D01*
X130252691Y-129909189D01*
G37*
G36*
X130818376Y-129343503D02*
X131171930Y-128989949D01*
X132020458Y-129838477D01*
X131666904Y-130192031D01*
X130818376Y-129343503D01*
X130818376Y-129343503D01*
G37*
G36*
X131384062Y-128777818D02*
X131737616Y-128424264D01*
X132586144Y-129272792D01*
X132232590Y-129626346D01*
X131384062Y-128777818D01*
X131384062Y-128777818D01*
G37*
G36*
X125373654Y-122767410D02*
X125727208Y-122413856D01*
X126575736Y-123262384D01*
X126222182Y-123615938D01*
X125373654Y-122767410D01*
X125373654Y-122767410D01*
G37*
G36*
X124807969Y-123333096D02*
X125161523Y-122979542D01*
X126010051Y-123828070D01*
X125656497Y-124181624D01*
X124807969Y-123333096D01*
X124807969Y-123333096D01*
G37*
G36*
X124242283Y-123898781D02*
X124595837Y-123545227D01*
X125444365Y-124393755D01*
X125090811Y-124747309D01*
X124242283Y-123898781D01*
X124242283Y-123898781D01*
G37*
G36*
X123676598Y-124464466D02*
X124030152Y-124110912D01*
X124878680Y-124959440D01*
X124525126Y-125312994D01*
X123676598Y-124464466D01*
X123676598Y-124464466D01*
G37*
G36*
X123110912Y-125030152D02*
X123464466Y-124676598D01*
X124312994Y-125525126D01*
X123959440Y-125878680D01*
X123110912Y-125030152D01*
X123110912Y-125030152D01*
G37*
G36*
X122545227Y-125595837D02*
X122898781Y-125242283D01*
X123747309Y-126090811D01*
X123393755Y-126444365D01*
X122545227Y-125595837D01*
X122545227Y-125595837D01*
G37*
G36*
X121979542Y-126161523D02*
X122333096Y-125807969D01*
X123181624Y-126656497D01*
X122828070Y-127010051D01*
X121979542Y-126161523D01*
X121979542Y-126161523D01*
G37*
G36*
X121413856Y-126727208D02*
X121767410Y-126373654D01*
X122615938Y-127222182D01*
X122262384Y-127575736D01*
X121413856Y-126727208D01*
X121413856Y-126727208D01*
G37*
D32*
X119250000Y-119550000D03*
X119250000Y-120550000D03*
X119250000Y-121550000D03*
X121950000Y-119550000D03*
X121950000Y-120550000D03*
X121950000Y-121550000D03*
D33*
X120600000Y-120550000D03*
D34*
X121600000Y-115900000D03*
X119600000Y-115900000D03*
X121600000Y-117900000D03*
X119600000Y-117900000D03*
D35*
X137230000Y-128240000D03*
X138500000Y-128240000D03*
X137230000Y-129510000D03*
X138500000Y-129510000D03*
X137230000Y-130780000D03*
X138500000Y-130780000D03*
X137230000Y-132050000D03*
X138500000Y-132050000D03*
X137230000Y-133320000D03*
X138500000Y-133320000D03*
D10*
G36*
X123519543Y-132476040D02*
X122176040Y-133819543D01*
X121398223Y-133041726D01*
X122741726Y-131698223D01*
X123519543Y-132476040D01*
X123519543Y-132476040D01*
G37*
G36*
X121751777Y-130708274D02*
X120408274Y-132051777D01*
X119630457Y-131273960D01*
X120973960Y-129930457D01*
X121751777Y-130708274D01*
X121751777Y-130708274D01*
G37*
D36*
X129760000Y-138120000D03*
X131310000Y-142090000D03*
X133300000Y-124770000D03*
X132570000Y-133710000D03*
X133690000Y-130170000D03*
X134270000Y-122730000D03*
X137860000Y-124490000D03*
X137100000Y-124510000D03*
X140340000Y-124190000D03*
X132790000Y-139900000D03*
X131170000Y-139880000D03*
X128220000Y-141520000D03*
X124610000Y-136690000D03*
X125320000Y-135910000D03*
X119630000Y-140900000D03*
X119650000Y-139310000D03*
X119680000Y-137590000D03*
X119890000Y-135270000D03*
X120560000Y-126320000D03*
X118940000Y-126350000D03*
X120600000Y-120550000D03*
X122570000Y-116920000D03*
X122700000Y-118420000D03*
X119600000Y-117090000D03*
X135160000Y-115170000D03*
X131800000Y-113960000D03*
X134930000Y-111020000D03*
X137330000Y-109410000D03*
X133900000Y-93850000D03*
X129000000Y-89550000D03*
X122000000Y-123060000D03*
X132400000Y-142090000D03*
X124010000Y-119940000D03*
X133570000Y-138620000D03*
X136310000Y-137980000D03*
X134450000Y-135600000D03*
X132630000Y-125660000D03*
X129520000Y-122860000D03*
X136360000Y-127230000D03*
X133900000Y-123770000D03*
X130260000Y-122130000D03*
X137480000Y-126130000D03*
X138980000Y-127200000D03*
X126480000Y-125340000D03*
X128070000Y-121710000D03*
X127620000Y-113400000D03*
X124460000Y-113410000D03*
X127270000Y-126040000D03*
X129040000Y-121370000D03*
X131490000Y-119380000D03*
X133100000Y-122260000D03*
X126780000Y-106370000D03*
X123740000Y-105880000D03*
X130730000Y-120110000D03*
X132340000Y-123000000D03*
D37*
X131500000Y-141000000D02*
X131500000Y-141900000D01*
X131500000Y-141900000D02*
X131310000Y-142090000D01*
X129750000Y-138350000D02*
X129750000Y-138130000D01*
X129750000Y-138130000D02*
X129760000Y-138120000D01*
X128500000Y-136450000D02*
X129550000Y-136450000D01*
X129550000Y-136450000D02*
X130100000Y-135900000D01*
X128200000Y-139150000D02*
X127750000Y-139150000D01*
X127750000Y-139150000D02*
X127500000Y-138900000D01*
D38*
X126500000Y-139900000D02*
X127500000Y-138900000D01*
X127500000Y-138900000D02*
X129500000Y-138900000D01*
X126500000Y-140500000D02*
X126500000Y-139900000D01*
X129500000Y-138900000D02*
X129750000Y-139150000D01*
D39*
X129750000Y-139150000D02*
X129750000Y-138350000D01*
X131500000Y-138800000D02*
X130100000Y-138800000D01*
X130100000Y-138800000D02*
X129750000Y-139150000D01*
D37*
X133675000Y-125700000D02*
X133675000Y-125145000D01*
X133675000Y-125145000D02*
X133300000Y-124770000D01*
X131625000Y-133375000D02*
X132235000Y-133375000D01*
X132235000Y-133375000D02*
X132570000Y-133710000D01*
X133700000Y-129250000D02*
X133700000Y-130160000D01*
X133700000Y-130160000D02*
X133690000Y-130170000D01*
X135125000Y-122725000D02*
X134275000Y-122725000D01*
X134275000Y-122725000D02*
X134270000Y-122730000D01*
D40*
X137100000Y-124510000D02*
X137840000Y-124510000D01*
D39*
X137840000Y-124510000D02*
X137860000Y-124490000D01*
X137500000Y-124330000D02*
X137320000Y-124510000D01*
X137320000Y-124510000D02*
X137100000Y-124510000D01*
X137500000Y-123400000D02*
X137500000Y-124330000D01*
D37*
X139950000Y-125200000D02*
X139950000Y-124580000D01*
X139950000Y-124580000D02*
X140340000Y-124190000D01*
X130260000Y-140650000D02*
X131060000Y-139850000D01*
X131060000Y-139850000D02*
X131550000Y-139850000D01*
X129750000Y-140650000D02*
X130260000Y-140650000D01*
D39*
X128200000Y-140650000D02*
X128200000Y-141500000D01*
X128200000Y-141500000D02*
X128220000Y-141520000D01*
D37*
X123705330Y-136130330D02*
X124265000Y-136690000D01*
X124265000Y-136690000D02*
X124610000Y-136690000D01*
X124755330Y-135055330D02*
X125320000Y-135620000D01*
X125320000Y-135620000D02*
X125320000Y-135910000D01*
X118950000Y-141625000D02*
X118950000Y-141580000D01*
X118950000Y-141580000D02*
X119630000Y-140900000D01*
X118950000Y-140025000D02*
X118950000Y-140010000D01*
X118950000Y-140010000D02*
X119650000Y-139310000D01*
X118950000Y-138425000D02*
X118950000Y-138320000D01*
X118950000Y-138320000D02*
X119680000Y-137590000D01*
X120875000Y-135800000D02*
X120420000Y-135800000D01*
X120420000Y-135800000D02*
X119890000Y-135270000D01*
X119375000Y-134325000D02*
X119375000Y-134755000D01*
X119375000Y-134755000D02*
X119890000Y-135270000D01*
X120500000Y-127250000D02*
X120500000Y-126380000D01*
X120500000Y-126380000D02*
X120560000Y-126320000D01*
X119000000Y-127250000D02*
X119000000Y-126410000D01*
X119000000Y-126410000D02*
X118940000Y-126350000D01*
X123250000Y-117400000D02*
X123050000Y-117400000D01*
X123050000Y-117400000D02*
X122570000Y-116920000D01*
X123250000Y-119050000D02*
X123250000Y-118970000D01*
X123250000Y-118970000D02*
X122700000Y-118420000D01*
X119600000Y-117900000D02*
X119600000Y-117090000D01*
D41*
X136475000Y-115100000D02*
X135230000Y-115100000D01*
X135230000Y-115100000D02*
X135160000Y-115170000D01*
D37*
X132820000Y-113970000D02*
X131810000Y-113970000D01*
X131810000Y-113970000D02*
X131800000Y-113960000D01*
D41*
X134930000Y-110080000D02*
X134930000Y-111020000D01*
X136450000Y-110080000D02*
X136660000Y-110080000D01*
X136660000Y-110080000D02*
X137330000Y-109410000D01*
D37*
X118950000Y-138425000D02*
X118950000Y-138625000D01*
X118950000Y-140025000D02*
X118950000Y-140225000D01*
X118950000Y-138425000D02*
X118950000Y-138500000D01*
X118950000Y-141625000D02*
X118950000Y-141850000D01*
X121425000Y-126200000D02*
X121425000Y-126384798D01*
X121425000Y-126384798D02*
X122014897Y-126974695D01*
X121775000Y-125850000D02*
X121425000Y-126200000D01*
X122021573Y-125850000D02*
X121775000Y-125850000D01*
X122580583Y-126409010D02*
X122021573Y-125850000D01*
D42*
X130800000Y-87750000D02*
X131525000Y-87750000D01*
X131525000Y-87750000D02*
X138131500Y-87750000D01*
D37*
X132275000Y-88025000D02*
X131800000Y-88025000D01*
X131800000Y-88025000D02*
X131525000Y-87750000D01*
X123250000Y-117550000D02*
X123050000Y-117550000D01*
X119250000Y-120550000D02*
X120600000Y-120550000D01*
X131985103Y-129025305D02*
X132209798Y-129250000D01*
X132209798Y-129250000D02*
X133700000Y-129250000D01*
D41*
X128200000Y-140650000D02*
X129750000Y-140650000D01*
D37*
X120500000Y-127250000D02*
X121739592Y-127250000D01*
X121739592Y-127250000D02*
X122014897Y-126974695D01*
D42*
X133000000Y-92950000D02*
X133900000Y-93850000D01*
X133900000Y-93850000D02*
X136931500Y-96881500D01*
X138131500Y-87750000D02*
X138500000Y-88118500D01*
X129000000Y-89550000D02*
X130800000Y-87750000D01*
X129000000Y-92100000D02*
X129000000Y-89550000D01*
X136931500Y-96881500D02*
X138500000Y-96881500D01*
X133000000Y-92100000D02*
X133000000Y-92950000D01*
D43*
X136750000Y-139250000D02*
X135250000Y-140750000D01*
X135250000Y-140750000D02*
X134450000Y-140750000D01*
X137400000Y-139250000D02*
X136750000Y-139250000D01*
D39*
X132650000Y-139850000D02*
X131550000Y-139850000D01*
X133900000Y-140750000D02*
X133000000Y-139850000D01*
X133000000Y-139850000D02*
X132650000Y-139850000D01*
X134450000Y-140750000D02*
X133900000Y-140750000D01*
D42*
X138500000Y-88000000D02*
X138500000Y-88118500D01*
X136500000Y-97000000D02*
X138250000Y-97000000D01*
X138250000Y-97000000D02*
X138500000Y-96881500D01*
D41*
X135900000Y-123525000D02*
X136025000Y-123400000D01*
X136025000Y-123400000D02*
X136550000Y-123400000D01*
X135900000Y-123925000D02*
X135900000Y-123525000D01*
X135600000Y-124225000D02*
X135900000Y-123925000D01*
X135125000Y-124225000D02*
X135600000Y-124225000D01*
X136550000Y-120450000D02*
X136550000Y-122400000D01*
X136550000Y-122400000D02*
X136550000Y-123400000D01*
D39*
X137950000Y-122400000D02*
X136550000Y-122400000D01*
X138450000Y-122900000D02*
X137950000Y-122400000D01*
X138450000Y-123400000D02*
X138450000Y-122900000D01*
D41*
X136475000Y-117700000D02*
X135600000Y-117700000D01*
X135100000Y-119000000D02*
X136550000Y-120450000D01*
X135600000Y-117700000D02*
X135100000Y-118200000D01*
X135100000Y-118200000D02*
X135100000Y-119000000D01*
X126830000Y-124400000D02*
X130430000Y-128000000D01*
X130430000Y-128000000D02*
X131450000Y-128000000D01*
X126220000Y-124400000D02*
X126830000Y-124400000D01*
X122620000Y-128000000D02*
X126220000Y-124400000D01*
X121400000Y-128000000D02*
X122620000Y-128000000D01*
X131450000Y-128000000D02*
X132180000Y-128000000D01*
X132180000Y-128000000D02*
X132600000Y-128000000D01*
D37*
X131985103Y-126974695D02*
X132180000Y-127169592D01*
X132180000Y-127169592D02*
X132180000Y-128000000D01*
D41*
X132600000Y-128000000D02*
X132850000Y-127750000D01*
X132850000Y-127750000D02*
X133700000Y-127750000D01*
D38*
X134450000Y-137750000D02*
X135490000Y-136710000D01*
X135610000Y-128240000D02*
X135490000Y-128360000D01*
D43*
X137400000Y-136710000D02*
X135490000Y-136710000D01*
D38*
X135490000Y-128800000D02*
X135490000Y-128360000D01*
D43*
X137230000Y-127670000D02*
X137230000Y-128240000D01*
D37*
X121739592Y-128750000D02*
X122014897Y-129025305D01*
D38*
X135490000Y-136710000D02*
X135490000Y-132900000D01*
D41*
X133700000Y-127750000D02*
X134050000Y-127750000D01*
X134540000Y-128240000D02*
X135610000Y-128240000D01*
X134050000Y-127750000D02*
X134540000Y-128240000D01*
X138650000Y-125600000D02*
X138450000Y-125600000D01*
D43*
X138450000Y-125600000D02*
X138450000Y-125400000D01*
D37*
X121400000Y-128000000D02*
X119750000Y-128000000D01*
X119750000Y-128000000D02*
X119100000Y-128000000D01*
D39*
X121600000Y-115900000D02*
X123250000Y-115900000D01*
X124050000Y-116175000D02*
X123775000Y-115900000D01*
X123775000Y-115900000D02*
X123250000Y-115900000D01*
D37*
X120900000Y-112600000D02*
X120900000Y-114200000D01*
X120900000Y-114200000D02*
X120900000Y-114575000D01*
X123700000Y-133989340D02*
X123694670Y-133994670D01*
X123694670Y-134019670D02*
X122644670Y-135069670D01*
X119000000Y-128100000D02*
X119000000Y-128750000D01*
D39*
X121950000Y-120550000D02*
X123250000Y-120550000D01*
D41*
X122025000Y-135689340D02*
X122644670Y-135069670D01*
D37*
X135465000Y-131350000D02*
X135490000Y-131325000D01*
D41*
X119000000Y-129425000D02*
X118450000Y-129975000D01*
X119000000Y-128750000D02*
X119000000Y-129425000D01*
X118450000Y-129975000D02*
X118450000Y-135000000D01*
X118450000Y-135000000D02*
X120075000Y-136625000D01*
D37*
X123900000Y-131665686D02*
X123900000Y-133789340D01*
D41*
X121525000Y-136625000D02*
X122025000Y-136125000D01*
D37*
X119100000Y-128000000D02*
X119000000Y-128100000D01*
X122025000Y-136125000D02*
X122025000Y-136200980D01*
D40*
X140330000Y-104510000D02*
X139550000Y-103730000D01*
D37*
X121600000Y-115275000D02*
X121600000Y-115900000D01*
D40*
X140330000Y-109200000D02*
X140330000Y-104510000D01*
D37*
X122025000Y-136200980D02*
X123949020Y-138125000D01*
D38*
X137230000Y-128240000D02*
X135610000Y-128240000D01*
D40*
X137650000Y-111880000D02*
X140330000Y-109200000D01*
X138450000Y-125120000D02*
X139400000Y-124170000D01*
X137950000Y-103720000D02*
X137960000Y-103730000D01*
D39*
X119750000Y-128000000D02*
X119750000Y-125300000D01*
D40*
X139550000Y-103730000D02*
X137960000Y-103730000D01*
X139400000Y-124170000D02*
X139400000Y-122730000D01*
X132850000Y-109950000D02*
X133000000Y-109800000D01*
X137960000Y-103710000D02*
X137950000Y-103720000D01*
X134930000Y-108580000D02*
X133870000Y-108580000D01*
D43*
X138450000Y-126450000D02*
X137230000Y-127670000D01*
D40*
X134360000Y-104360000D02*
X134360000Y-106840000D01*
X136170000Y-107380000D02*
X136450000Y-107660000D01*
X136450000Y-107660000D02*
X136450000Y-108580000D01*
D38*
X135490000Y-132900000D02*
X135490000Y-131325000D01*
D40*
X135630000Y-103700000D02*
X135600000Y-103730000D01*
X135630000Y-102280000D02*
X135630000Y-103700000D01*
X134930000Y-108580000D02*
X136450000Y-108580000D01*
X137650000Y-120980000D02*
X137650000Y-111880000D01*
D41*
X139950000Y-126700000D02*
X139750000Y-126700000D01*
D40*
X135600000Y-103730000D02*
X134990000Y-103730000D01*
D38*
X135490000Y-130800000D02*
X135490000Y-128800000D01*
D41*
X122025000Y-136125000D02*
X122025000Y-135689340D01*
D40*
X137960000Y-103730000D02*
X135600000Y-103730000D01*
X134990000Y-103730000D02*
X134360000Y-104360000D01*
D37*
X123900000Y-133789340D02*
X123694670Y-133994670D01*
X123694670Y-133994670D02*
X123694670Y-134019670D01*
D39*
X124050000Y-116175000D02*
X124050000Y-119900000D01*
D40*
X134900000Y-107380000D02*
X136170000Y-107380000D01*
D43*
X138450000Y-125600000D02*
X138450000Y-126450000D01*
D37*
X123250000Y-120550000D02*
X123400000Y-120550000D01*
D40*
X138450000Y-125600000D02*
X138450000Y-125120000D01*
X133870000Y-108580000D02*
X133000000Y-109450000D01*
D39*
X123400000Y-120550000D02*
X124010000Y-119940000D01*
D40*
X139400000Y-122730000D02*
X137650000Y-120980000D01*
D39*
X119760000Y-125300000D02*
X119750000Y-125300000D01*
D40*
X134360000Y-106840000D02*
X134900000Y-107380000D01*
D39*
X124050000Y-119900000D02*
X124010000Y-119940000D01*
D38*
X134450000Y-139250000D02*
X134450000Y-137750000D01*
D37*
X120500000Y-128750000D02*
X121739592Y-128750000D01*
D39*
X122000000Y-123060000D02*
X119760000Y-125300000D01*
D37*
X132150000Y-141840000D02*
X132400000Y-142090000D01*
D41*
X139750000Y-126700000D02*
X138650000Y-125600000D01*
D38*
X135490000Y-131325000D02*
X135490000Y-130800000D01*
D40*
X133000000Y-109450000D02*
X133000000Y-109800000D01*
D37*
X132150000Y-141000000D02*
X132150000Y-141840000D01*
X120900000Y-114575000D02*
X121600000Y-115275000D01*
D41*
X120075000Y-136625000D02*
X121525000Y-136625000D01*
D37*
X124277639Y-131288047D02*
X123900000Y-131665686D01*
X133390000Y-138800000D02*
X132800000Y-138800000D01*
X120500000Y-128750000D02*
X119000000Y-128750000D01*
X133820000Y-138620000D02*
X134450000Y-139250000D01*
X133570000Y-138620000D02*
X133390000Y-138800000D01*
X133570000Y-138620000D02*
X133820000Y-138620000D01*
D41*
X135175000Y-125700000D02*
X136450000Y-125700000D01*
X136450000Y-125700000D02*
X136550000Y-125600000D01*
D37*
X120875000Y-134300000D02*
X120917766Y-134300000D01*
X120917766Y-134300000D02*
X122458883Y-132758883D01*
X122725000Y-130577944D02*
X122725000Y-132492766D01*
X122725000Y-132492766D02*
X122458883Y-132758883D01*
X123146268Y-130156676D02*
X122725000Y-130577944D01*
X119375000Y-132825000D02*
X119375000Y-132307234D01*
X119375000Y-132307234D02*
X120691117Y-130991117D01*
X122021573Y-130150000D02*
X121532234Y-130150000D01*
X121532234Y-130150000D02*
X120691117Y-130991117D01*
X122580583Y-129590990D02*
X122021573Y-130150000D01*
X137400000Y-137980000D02*
X136310000Y-137980000D01*
X132575000Y-132575000D02*
X134450000Y-134450000D01*
X134450000Y-134450000D02*
X134450000Y-135600000D01*
X130125000Y-133375000D02*
X130125000Y-133300000D01*
X130850000Y-132575000D02*
X132575000Y-132575000D01*
X130125000Y-133300000D02*
X130850000Y-132575000D01*
X128700000Y-134000000D02*
X129325000Y-133375000D01*
X129325000Y-133375000D02*
X130125000Y-133375000D01*
X128100000Y-134000000D02*
X128700000Y-134000000D01*
X127000000Y-132900000D02*
X128100000Y-134000000D01*
X127000000Y-132600000D02*
X127000000Y-132900000D01*
X124700000Y-130300000D02*
X127000000Y-132600000D01*
X124134314Y-130300000D02*
X124700000Y-130300000D01*
X123711953Y-130722361D02*
X124134314Y-130300000D01*
X137400000Y-137980000D02*
X137420000Y-137980000D01*
X120450000Y-138425000D02*
X121550980Y-138425000D01*
X121550980Y-138425000D02*
X121850980Y-138125000D01*
X132275000Y-89525000D02*
X131875000Y-89525000D01*
X131875000Y-89525000D02*
X131600000Y-89800000D01*
D42*
X134150000Y-89800000D02*
X136750000Y-92400000D01*
X136750000Y-92400000D02*
X136750000Y-92500000D01*
X131600000Y-89800000D02*
X134150000Y-89800000D01*
X131000000Y-90400000D02*
X131600000Y-89800000D01*
X131000000Y-92100000D02*
X131000000Y-90400000D01*
X136750000Y-92250000D02*
X138500000Y-92500000D01*
D37*
X120450000Y-141625000D02*
X121550980Y-141625000D01*
X121550980Y-141625000D02*
X121850980Y-141925000D01*
X120450000Y-140025000D02*
X121850980Y-140025000D01*
X135125736Y-116400000D02*
X136550000Y-116400000D01*
X133900000Y-117625736D02*
X135125736Y-116400000D01*
X133900000Y-119544365D02*
X133900000Y-117625736D01*
X129298097Y-124146268D02*
X133900000Y-119544365D01*
X129156676Y-124146268D02*
X129298097Y-124146268D01*
X135374264Y-117000000D02*
X136550000Y-117000000D01*
X134500000Y-117874264D02*
X135374264Y-117000000D01*
X134500000Y-119792893D02*
X134500000Y-117874264D01*
X129722361Y-124570532D02*
X134500000Y-119792893D01*
X129722361Y-124711953D02*
X129722361Y-124570532D01*
X132525000Y-126150000D02*
X132525000Y-125765000D01*
X132525000Y-125765000D02*
X132630000Y-125660000D01*
X128590990Y-123580583D02*
X129311573Y-122860000D01*
X129311573Y-122860000D02*
X129520000Y-122860000D01*
X132525000Y-126150000D02*
X133350000Y-126975000D01*
X133350000Y-126975000D02*
X136105000Y-126975000D01*
X136105000Y-126975000D02*
X136360000Y-127230000D01*
X139450000Y-128975000D02*
X139450000Y-135930000D01*
X139450000Y-135930000D02*
X138670000Y-136710000D01*
X138715000Y-128240000D02*
X139450000Y-128975000D01*
X138500000Y-128240000D02*
X138715000Y-128240000D01*
X134090000Y-124650000D02*
X134090000Y-123960000D01*
X134090000Y-123960000D02*
X133900000Y-123770000D01*
X134425000Y-124985000D02*
X134090000Y-124650000D01*
X134425000Y-126250000D02*
X134425000Y-124985000D01*
X134425000Y-126250000D02*
X134655000Y-126480000D01*
X134655000Y-126480000D02*
X137130000Y-126480000D01*
X137130000Y-126480000D02*
X137480000Y-126130000D01*
X128025305Y-123014897D02*
X128910202Y-122130000D01*
X128910202Y-122130000D02*
X130260000Y-122130000D01*
X138980000Y-127200000D02*
X138980000Y-127230000D01*
X138980000Y-127230000D02*
X140050000Y-128300000D01*
X140050000Y-128300000D02*
X140050000Y-136600000D01*
X140050000Y-136600000D02*
X138670000Y-137980000D01*
X128025305Y-132985103D02*
X126480000Y-131439798D01*
X126480000Y-131439798D02*
X126480000Y-125340000D01*
X128710000Y-120630000D02*
X128070000Y-121270000D01*
X128070000Y-121270000D02*
X128070000Y-121710000D01*
X129330000Y-120630000D02*
X128710000Y-120630000D01*
X129575000Y-120875000D02*
X129330000Y-120630000D01*
X131025000Y-120875000D02*
X129575000Y-120875000D01*
X133830000Y-116045000D02*
X133830000Y-115460000D01*
X133830000Y-115460000D02*
X133830000Y-114000000D01*
X132820000Y-115470000D02*
X133820000Y-115470000D01*
X133820000Y-115470000D02*
X133830000Y-115460000D01*
X139030000Y-107860000D02*
X136750000Y-105580000D01*
X136750000Y-105580000D02*
X136190000Y-105580000D01*
X139030000Y-108800000D02*
X139030000Y-107860000D01*
X131025000Y-120875000D02*
X132825000Y-119075000D01*
X132825000Y-119075000D02*
X132825000Y-117050000D01*
X132825000Y-117050000D02*
X133830000Y-116045000D01*
X133830000Y-114000000D02*
X139030000Y-108800000D01*
X124750000Y-115900000D02*
X123900000Y-115050000D01*
X123900000Y-115050000D02*
X121550000Y-112700000D01*
X124500000Y-114500000D02*
X124450000Y-114500000D01*
X124450000Y-114500000D02*
X123900000Y-115050000D01*
X120175000Y-112075000D02*
X120175000Y-114175000D01*
X120175000Y-114175000D02*
X120175000Y-114825000D01*
X119400000Y-114200000D02*
X120150000Y-114200000D01*
X120150000Y-114200000D02*
X120175000Y-114175000D01*
X123200000Y-121550000D02*
X123650000Y-121550000D01*
X120450000Y-111800000D02*
X120175000Y-112075000D01*
X123650000Y-121550000D02*
X124750000Y-120450000D01*
X124750000Y-120450000D02*
X124750000Y-115900000D01*
X120850000Y-117900000D02*
X121600000Y-117900000D01*
X121550000Y-112700000D02*
X121550000Y-112000000D01*
X121550000Y-112000000D02*
X121350000Y-111800000D01*
X121350000Y-111800000D02*
X120450000Y-111800000D01*
X120175000Y-114825000D02*
X120600000Y-115250000D01*
X120600000Y-115250000D02*
X120600000Y-117650000D01*
X120600000Y-117650000D02*
X120850000Y-117900000D01*
X121950000Y-121550000D02*
X123200000Y-121550000D01*
X123300000Y-124865686D02*
X123300000Y-121650000D01*
X123300000Y-121650000D02*
X123200000Y-121550000D01*
X123711953Y-125277639D02*
X123300000Y-124865686D01*
X118825000Y-123000000D02*
X118825000Y-122375000D01*
X118825000Y-122375000D02*
X118900000Y-122300000D01*
X118550000Y-119550000D02*
X118550000Y-121950000D01*
X118550000Y-121950000D02*
X118900000Y-122300000D01*
X118900000Y-122300000D02*
X122550000Y-122300000D01*
X122550000Y-122300000D02*
X122750000Y-122500000D01*
X122750000Y-122500000D02*
X122750000Y-125447056D01*
X122750000Y-125447056D02*
X123146268Y-125843324D01*
X118550000Y-113100000D02*
X119050000Y-112600000D01*
X119050000Y-112600000D02*
X119400000Y-112600000D01*
X118550000Y-115800000D02*
X118550000Y-113100000D01*
X118550000Y-119550000D02*
X118550000Y-115800000D01*
X119600000Y-115900000D02*
X118650000Y-115900000D01*
X118650000Y-115900000D02*
X118550000Y-115800000D01*
X119250000Y-119550000D02*
X118550000Y-119550000D01*
X127325000Y-121975000D02*
X127325000Y-113695000D01*
X127325000Y-113695000D02*
X127620000Y-113400000D01*
X122950000Y-113350000D02*
X124400000Y-113350000D01*
X124400000Y-113350000D02*
X124460000Y-113410000D01*
X130288047Y-125277639D02*
X129865686Y-125700000D01*
X129865686Y-125700000D02*
X129050000Y-125700000D01*
X129050000Y-125700000D02*
X126950000Y-123600000D01*
X126950000Y-123600000D02*
X126950000Y-122350000D01*
X126950000Y-122350000D02*
X127325000Y-121975000D01*
X119000000Y-109800000D02*
X119000000Y-110850000D01*
X119475000Y-111325000D02*
X121600000Y-111325000D01*
X119000000Y-110850000D02*
X119475000Y-111325000D01*
X121600000Y-111325000D02*
X122075000Y-111800000D01*
X122075000Y-111800000D02*
X122075000Y-112475000D01*
X122075000Y-112475000D02*
X122950000Y-113350000D01*
X125409010Y-123580583D02*
X125000000Y-123171573D01*
X126325000Y-112500000D02*
X126000000Y-112175000D01*
X125525000Y-93825000D02*
X127000000Y-92350000D01*
X125000000Y-123171573D02*
X125000000Y-122600000D01*
X125000000Y-122600000D02*
X126325000Y-121275000D01*
X126325000Y-121275000D02*
X126325000Y-112500000D01*
X126000000Y-112175000D02*
X126000000Y-107525000D01*
X125525000Y-107050000D02*
X125525000Y-93825000D01*
X126000000Y-107525000D02*
X125525000Y-107050000D01*
X127000000Y-92350000D02*
X127000000Y-92100000D01*
X126550000Y-92550000D02*
X127000000Y-92100000D01*
X125000000Y-92100000D02*
X124975000Y-92125000D01*
X124975000Y-92125000D02*
X124975000Y-106575000D01*
X125775000Y-121075000D02*
X124450000Y-122400000D01*
X124450000Y-123752944D02*
X124843324Y-124146268D01*
X124975000Y-106575000D02*
X124025000Y-107525000D01*
X124025000Y-107525000D02*
X124025000Y-110950000D01*
X124025000Y-110950000D02*
X125775000Y-112700000D01*
X125775000Y-112700000D02*
X125775000Y-121075000D01*
X124450000Y-122400000D02*
X124450000Y-123752944D01*
X123675000Y-112625000D02*
X124950000Y-112625000D01*
X124950000Y-112625000D02*
X125250000Y-112925000D01*
X122025000Y-110975000D02*
X123675000Y-112625000D01*
X122025000Y-108650000D02*
X122025000Y-110975000D01*
X124277639Y-124711953D02*
X123875000Y-124309314D01*
X125250000Y-120800000D02*
X125250000Y-112925000D01*
X123875000Y-124309314D02*
X123875000Y-122175000D01*
X123875000Y-122175000D02*
X125250000Y-120800000D01*
X122025000Y-108650000D02*
X124475000Y-106200000D01*
X124475000Y-106200000D02*
X124475000Y-93825000D01*
X124475000Y-93825000D02*
X123000000Y-92350000D01*
X123000000Y-92350000D02*
X123000000Y-92100000D01*
X121000000Y-92100000D02*
X121000000Y-90975000D01*
X127700000Y-93525000D02*
X126675000Y-93525000D01*
X126675000Y-93525000D02*
X126050000Y-94150000D01*
X121000000Y-90975000D02*
X121300000Y-90675000D01*
X126850000Y-121600000D02*
X125974695Y-122475305D01*
X121300000Y-90675000D02*
X127750000Y-90675000D01*
X127750000Y-90675000D02*
X128050000Y-90975000D01*
X126850000Y-112100000D02*
X126850000Y-121600000D01*
X128050000Y-90975000D02*
X128050000Y-93175000D01*
X125974695Y-122475305D02*
X125974695Y-123014897D01*
X128050000Y-93175000D02*
X127700000Y-93525000D01*
X126050000Y-94150000D02*
X126050000Y-106750000D01*
X127975000Y-108675000D02*
X127975000Y-110975000D01*
X126050000Y-106750000D02*
X127975000Y-108675000D01*
X127975000Y-110975000D02*
X126850000Y-112100000D01*
X125409010Y-132419417D02*
X124900000Y-132928427D01*
X124900000Y-132928427D02*
X124900000Y-133300000D01*
X124900000Y-133300000D02*
X126650000Y-135050000D01*
X126650000Y-135050000D02*
X126650000Y-138450000D01*
X126650000Y-138450000D02*
X125150000Y-139950000D01*
X125150000Y-141550000D02*
X124775000Y-141925000D01*
X125150000Y-139950000D02*
X125150000Y-141550000D01*
X124775000Y-141925000D02*
X123949020Y-141925000D01*
X124843324Y-131853732D02*
X124425000Y-132272056D01*
X124425000Y-133500000D02*
X126075000Y-135150000D01*
X124425000Y-132272056D02*
X124425000Y-133500000D01*
X126075000Y-135150000D02*
X126075000Y-138275000D01*
X124325000Y-140025000D02*
X123949020Y-140025000D01*
X126075000Y-138275000D02*
X124325000Y-140025000D01*
X128590990Y-132419417D02*
X127080000Y-130908427D01*
X127080000Y-130908427D02*
X127080000Y-126230000D01*
X127080000Y-126230000D02*
X127270000Y-126040000D01*
X131440000Y-121210000D02*
X133325000Y-119325000D01*
X129040000Y-121370000D02*
X131280000Y-121370000D01*
X131280000Y-121370000D02*
X131440000Y-121210000D01*
X134375000Y-116300000D02*
X134375000Y-114225000D01*
X133325000Y-119325000D02*
X133325000Y-117350000D01*
X133325000Y-117350000D02*
X134375000Y-116300000D01*
X134375000Y-114225000D02*
X139640000Y-108960000D01*
X139640000Y-108960000D02*
X139640000Y-106490000D01*
X139640000Y-106490000D02*
X138730000Y-105580000D01*
X126385103Y-132985103D02*
X128350000Y-134950000D01*
X128350000Y-134950000D02*
X128500000Y-134950000D01*
X125974695Y-132985103D02*
X126385103Y-132985103D01*
X131490000Y-119380000D02*
X129880000Y-119380000D01*
X129880000Y-119380000D02*
X129525000Y-119025000D01*
X126780000Y-106700000D02*
X126780000Y-106370000D01*
X129525000Y-119025000D02*
X129525000Y-111525000D01*
X129800000Y-108400000D02*
X128480000Y-108400000D01*
X129525000Y-111525000D02*
X130025000Y-111025000D01*
X130025000Y-111025000D02*
X130025000Y-108625000D01*
X130025000Y-108625000D02*
X129800000Y-108400000D01*
X128480000Y-108400000D02*
X126780000Y-106700000D01*
X131875000Y-124565000D02*
X133100000Y-123340000D01*
X133100000Y-123340000D02*
X133100000Y-122260000D01*
X131875000Y-125953427D02*
X131875000Y-124565000D01*
X121000000Y-108930000D02*
X123740000Y-106190000D01*
X123740000Y-106190000D02*
X123740000Y-105880000D01*
X121000000Y-109800000D02*
X121000000Y-108930000D01*
X131875000Y-125953427D02*
X131419417Y-126409010D01*
X130730000Y-120110000D02*
X129685000Y-120110000D01*
X129685000Y-120110000D02*
X129000000Y-119425000D01*
X132150000Y-123125000D02*
X132215000Y-123125000D01*
X132215000Y-123125000D02*
X132340000Y-123000000D01*
X129000000Y-118225000D02*
X129000000Y-119425000D01*
X131250000Y-124025000D02*
X131250000Y-125447056D01*
X131250000Y-125447056D02*
X130853732Y-125843324D01*
X132150000Y-123125000D02*
X131250000Y-124025000D01*
X129000000Y-109800000D02*
X129000000Y-118225000D01*
D10*
G36*
X130800000Y-137988539D02*
X130068648Y-139500000D01*
X128650000Y-139500000D01*
X128650000Y-138170710D01*
X129385355Y-137435355D01*
X129396325Y-137418815D01*
X129400000Y-137400000D01*
X129400000Y-134450000D01*
X130800000Y-134450000D01*
X130800000Y-137988539D01*
X130800000Y-137988539D01*
G37*
X130800000Y-137988539D02*
X130068648Y-139500000D01*
X128650000Y-139500000D01*
X128650000Y-138170710D01*
X129385355Y-137435355D01*
X129396325Y-137418815D01*
X129400000Y-137400000D01*
X129400000Y-134450000D01*
X130800000Y-134450000D01*
X130800000Y-137988539D01*
G36*
X134066660Y-140387262D02*
X134083784Y-140397297D01*
X134100000Y-140400000D01*
X135300000Y-140400000D01*
X135300000Y-141550000D01*
X133311803Y-141550000D01*
X133022361Y-141405279D01*
X133000000Y-141400000D01*
X132650000Y-141400000D01*
X132650000Y-140250000D01*
X132646061Y-140230547D01*
X132634864Y-140214160D01*
X132618173Y-140203419D01*
X132600000Y-140200000D01*
X131100000Y-140200000D01*
X131080547Y-140203939D01*
X131061452Y-140218156D01*
X130126450Y-141350000D01*
X129050000Y-141350000D01*
X129050000Y-140300000D01*
X130100000Y-140300000D01*
X130119453Y-140296061D01*
X130130000Y-140290000D01*
X131116667Y-139550000D01*
X133130897Y-139550000D01*
X134066660Y-140387262D01*
X134066660Y-140387262D01*
G37*
X134066660Y-140387262D02*
X134083784Y-140397297D01*
X134100000Y-140400000D01*
X135300000Y-140400000D01*
X135300000Y-141550000D01*
X133311803Y-141550000D01*
X133022361Y-141405279D01*
X133000000Y-141400000D01*
X132650000Y-141400000D01*
X132650000Y-140250000D01*
X132646061Y-140230547D01*
X132634864Y-140214160D01*
X132618173Y-140203419D01*
X132600000Y-140200000D01*
X131100000Y-140200000D01*
X131080547Y-140203939D01*
X131061452Y-140218156D01*
X130126450Y-141350000D01*
X129050000Y-141350000D01*
X129050000Y-140300000D01*
X130100000Y-140300000D01*
X130119453Y-140296061D01*
X130130000Y-140290000D01*
X131116667Y-139550000D01*
X133130897Y-139550000D01*
X134066660Y-140387262D01*
G36*
X133400000Y-137374734D02*
X132470340Y-138059747D01*
X132457125Y-138074275D01*
X132307125Y-138324275D01*
X132300000Y-138350000D01*
X132300000Y-139200000D01*
X132000000Y-139200000D01*
X132000000Y-134450000D01*
X133400000Y-134450000D01*
X133400000Y-137374734D01*
X133400000Y-137374734D01*
G37*
X133400000Y-137374734D02*
X132470340Y-138059747D01*
X132457125Y-138074275D01*
X132307125Y-138324275D01*
X132300000Y-138350000D01*
X132300000Y-139200000D01*
X132000000Y-139200000D01*
X132000000Y-134450000D01*
X133400000Y-134450000D01*
X133400000Y-137374734D01*
G36*
X135150000Y-139600000D02*
X134111803Y-139600000D01*
X133322361Y-139205279D01*
X133300000Y-139200000D01*
X132650000Y-139200000D01*
X132650000Y-138389776D01*
X133905696Y-138100000D01*
X135150000Y-138100000D01*
X135150000Y-139600000D01*
X135150000Y-139600000D01*
G37*
X135150000Y-139600000D02*
X134111803Y-139600000D01*
X133322361Y-139205279D01*
X133300000Y-139200000D01*
X132650000Y-139200000D01*
X132650000Y-138389776D01*
X133905696Y-138100000D01*
X135150000Y-138100000D01*
X135150000Y-139600000D01*
M02*
