M48
;DRILL file {KiCad 4.0.1-3.201512221402+6198~38~ubuntu14.04.1-stable} date Fri 05 Feb 2016 15:13:31 GMT
;FORMAT={-:-/ absolute / inch / decimal}
FMAT,2
INCH,TZ
T1C0.020
T2C0.025
T3C0.033
T4C0.035
T5C0.039
T6C0.040
%
G90
G05
M72
T1
X4.6781Y-4.8425
X4.6799Y-4.9685
X4.689Y-5.3965
X4.7094Y-4.6102
X4.7228Y-5.3244
X4.748Y-4.7461
X4.7484Y-4.9681
X4.8Y-4.848
X4.8272Y-4.6039
X4.8358Y-4.6642
X4.8669Y-4.1665
X4.8791Y-4.7272
X4.8992Y-4.4661
X4.9016Y-4.5079
X4.9224Y-5.3681
X4.9701Y-4.9476
X4.9957Y-4.1902
X5.0126Y-4.9665
X5.0264Y-4.4646
X5.0469Y-5.5748
X5.0561Y-4.7264
X5.0669Y-4.7717
X5.0787Y-3.5256
X5.1024Y-4.8287
X5.1083Y-5.4382
X5.1132Y-4.7815
X5.1535Y-5.5079
X5.1614Y-4.7077
X5.1646Y-5.5961
X5.185Y-4.4878
X5.1959Y-4.6742
X5.2154Y-5.5972
X5.2165Y-4.8425
X5.2215Y-4.939
X5.2244Y-5.2618
X5.2264Y-5.5098
X5.249Y-4.8081
X5.251Y-4.9016
X5.2587Y-5.4575
X5.2648Y-5.1319
X5.2717Y-3.6949
X5.2904Y-5.3386
X5.3126Y-4.376
X5.3228Y-4.5315
X5.3386Y-4.7904
X5.3494Y-4.9921
X5.3602Y-4.4951
X5.3602Y-4.6703
X5.3661Y-5.4321
X5.4124Y-4.9035
X5.4134Y-4.2969
X5.4636Y-5.001
X5.5226Y-4.9016
T2
X5.4028Y-5.0488
X5.4028Y-5.0988
X5.4028Y-5.1488
X5.4028Y-5.1988
X5.4028Y-5.2488
X5.4528Y-5.0488
X5.4528Y-5.0988
X5.4528Y-5.1488
X5.4528Y-5.1988
X5.4528Y-5.2488
T4
X4.9803Y-3.4843
X4.9803Y-5.5315
T5
X5.3618Y-4.1567
X5.4618Y-4.1567
T6
X5.3398Y-4.0268
X5.3839Y-3.6417
X5.472Y-4.0224
T3
X5.4695Y-4.4183G85X5.4872Y-4.4183
G05
X5.4695Y-4.747G85X5.4872Y-4.747
G05
T0
M30
