G04 #@! TF.FileFunction,Soldermask,Top*
%FSLAX46Y46*%
G04 Gerber Fmt 4.6, Leading zero omitted, Abs format (unit mm)*
G04 Created by KiCad (PCBNEW 4.0.1-3.201512150931+6195~38~ubuntu14.04.1-stable) date Thu 31 Dec 2015 00:47:45 GMT*
%MOMM*%
G01*
G04 APERTURE LIST*
%ADD10C,0.100000*%
%ADD11C,2.400000*%
%ADD12R,1.400000X1.400000*%
%ADD13R,0.700000X1.000000*%
%ADD14R,1.000000X0.700000*%
%ADD15R,3.850000X3.850000*%
%ADD16R,2.400000X2.400000*%
%ADD17R,1.600000X2.400000*%
%ADD18R,1.000000X0.800000*%
%ADD19R,1.900000X2.800000*%
%ADD20C,1.416000*%
%ADD21R,1.050000X1.460000*%
%ADD22C,1.050000*%
%ADD23R,1.150000X1.200000*%
%ADD24R,0.900000X1.300000*%
%ADD25R,1.900000X3.400000*%
%ADD26R,0.800000X1.300000*%
%ADD27R,1.650000X1.400000*%
%ADD28R,1.200000X1.150000*%
%ADD29R,1.400000X1.650000*%
%ADD30R,1.598880X1.598880*%
%ADD31R,1.700000X1.100000*%
%ADD32R,2.300000X1.500000*%
G04 APERTURE END LIST*
D10*
D11*
X108515224Y-94615224D03*
X145284776Y-131384776D03*
D12*
X132100000Y-134000000D03*
X132100000Y-136000000D03*
X134100000Y-134000000D03*
X134100000Y-136000000D03*
D13*
X114850000Y-125750000D03*
D14*
X114250000Y-121650000D03*
X118950000Y-125150000D03*
X118950000Y-124650000D03*
X118950000Y-124150000D03*
X118950000Y-123650000D03*
X118950000Y-123150000D03*
X118950000Y-122650000D03*
X118950000Y-122150000D03*
X118950000Y-121650000D03*
D13*
X118350000Y-121050000D03*
X117850000Y-121050000D03*
X117350000Y-121050000D03*
X116850000Y-121050000D03*
X116350000Y-121050000D03*
X115850000Y-121050000D03*
X115350000Y-121050000D03*
X114850000Y-121050000D03*
D14*
X114250000Y-122150000D03*
X114250000Y-122650000D03*
X114250000Y-123150000D03*
X114250000Y-123650000D03*
X114250000Y-124150000D03*
X114250000Y-124650000D03*
X114250000Y-125150000D03*
D13*
X115350000Y-125750000D03*
X115850000Y-125750000D03*
X116350000Y-125750000D03*
X116850000Y-125750000D03*
X117350000Y-125750000D03*
X117850000Y-125750000D03*
X118350000Y-125750000D03*
D15*
X116600000Y-123400000D03*
D16*
X106100000Y-109100000D03*
D11*
X106100000Y-106560000D03*
D17*
X142200000Y-101550000D03*
X128200000Y-119250000D03*
X130200000Y-119250000D03*
X132200000Y-119250000D03*
X134200000Y-119250000D03*
X136200000Y-119250000D03*
X138200000Y-119250000D03*
X140200000Y-119250000D03*
X142200000Y-119250000D03*
X140200000Y-101550000D03*
X138200000Y-101550000D03*
X136200000Y-101550000D03*
X134200000Y-101550000D03*
X132200000Y-101550000D03*
X130200000Y-101550000D03*
X128200000Y-101550000D03*
D18*
X137250000Y-132700000D03*
X137250000Y-133700000D03*
X137250000Y-134700000D03*
X139950000Y-132700000D03*
X139950000Y-133700000D03*
X139950000Y-134700000D03*
D19*
X138600000Y-133700000D03*
D20*
X118200000Y-135270000D03*
X118200000Y-134000000D03*
X119470000Y-135270000D03*
X119470000Y-134000000D03*
X120740000Y-135270000D03*
X120740000Y-134000000D03*
X122010000Y-135270000D03*
X122010000Y-134000000D03*
X123280000Y-135270000D03*
X123280000Y-134000000D03*
D10*
G36*
X142612883Y-95487828D02*
X146487828Y-91612883D01*
X148387117Y-93512172D01*
X144512172Y-97387117D01*
X142612883Y-95487828D01*
X142612883Y-95487828D01*
G37*
G36*
X139469794Y-92344739D02*
X143344739Y-88469794D01*
X145333830Y-90458885D01*
X141458885Y-94333830D01*
X139469794Y-92344739D01*
X139469794Y-92344739D01*
G37*
G36*
X145666170Y-98541115D02*
X149541115Y-94666170D01*
X151530206Y-96655261D01*
X147655261Y-100530206D01*
X145666170Y-98541115D01*
X145666170Y-98541115D01*
G37*
D21*
X108450000Y-127000000D03*
X109400000Y-127000000D03*
X110350000Y-127000000D03*
X110350000Y-124800000D03*
X108450000Y-124800000D03*
D10*
G36*
X108106066Y-129989771D02*
X109378858Y-128716979D01*
X109944544Y-129282665D01*
X108671752Y-130555457D01*
X108106066Y-129989771D01*
X108106066Y-129989771D01*
G37*
G36*
X108565685Y-130449390D02*
X109838477Y-129176598D01*
X110404163Y-129742284D01*
X109131371Y-131015076D01*
X108565685Y-130449390D01*
X108565685Y-130449390D01*
G37*
G36*
X109025305Y-130909009D02*
X110298097Y-129636217D01*
X110863783Y-130201903D01*
X109590991Y-131474695D01*
X109025305Y-130909009D01*
X109025305Y-130909009D01*
G37*
G36*
X109484924Y-131368629D02*
X110757716Y-130095837D01*
X111323402Y-130661523D01*
X110050610Y-131934315D01*
X109484924Y-131368629D01*
X109484924Y-131368629D01*
G37*
G36*
X109944543Y-131828248D02*
X111217335Y-130555456D01*
X111783021Y-131121142D01*
X110510229Y-132393934D01*
X109944543Y-131828248D01*
X109944543Y-131828248D01*
G37*
D22*
X108176777Y-129494796D03*
X111005204Y-132323223D03*
D10*
G36*
X103580583Y-129706929D02*
X105206929Y-128080583D01*
X107116117Y-129989771D01*
X105489771Y-131616117D01*
X103580583Y-129706929D01*
X103580583Y-129706929D01*
G37*
G36*
X108883883Y-135010229D02*
X110510229Y-133383883D01*
X112419417Y-135293071D01*
X110793071Y-136919417D01*
X108883883Y-135010229D01*
X108883883Y-135010229D01*
G37*
D23*
X111300000Y-95250000D03*
X111300000Y-96750000D03*
D24*
X108400000Y-97150000D03*
X106900000Y-97150000D03*
X138450000Y-99400000D03*
X139950000Y-99400000D03*
D25*
X111400000Y-92400000D03*
X114000000Y-92400000D03*
D26*
X112750000Y-94900000D03*
X113400000Y-94900000D03*
X114050000Y-94900000D03*
X112750000Y-97100000D03*
X113400000Y-97100000D03*
X114050000Y-97100000D03*
D27*
X106500000Y-126900000D03*
X106500000Y-124900000D03*
D23*
X115500000Y-95250000D03*
X115500000Y-96750000D03*
D28*
X108350000Y-123100000D03*
X106850000Y-123100000D03*
X142100000Y-123750000D03*
X140600000Y-123750000D03*
D29*
X142250000Y-122000000D03*
X140250000Y-122000000D03*
X127100000Y-124500000D03*
X129100000Y-124500000D03*
X127100000Y-126700000D03*
X129100000Y-126700000D03*
D27*
X126000000Y-121300000D03*
X126000000Y-119300000D03*
D29*
X120400000Y-126000000D03*
X122400000Y-126000000D03*
D27*
X123200000Y-122400000D03*
X123200000Y-120400000D03*
X121200000Y-122400000D03*
X121200000Y-120400000D03*
X141600000Y-132700000D03*
X141600000Y-134700000D03*
X112400000Y-121700000D03*
X112400000Y-119700000D03*
D23*
X110600000Y-121450000D03*
X110600000Y-119950000D03*
D29*
X132100000Y-132000000D03*
X134100000Y-132000000D03*
D30*
X119400000Y-90800980D03*
X119400000Y-92899020D03*
X112700000Y-117349020D03*
X112700000Y-115250980D03*
X114700000Y-117349020D03*
X114700000Y-115250980D03*
D31*
X121400000Y-92800000D03*
X121400000Y-90900000D03*
X139900000Y-128750000D03*
X139900000Y-130650000D03*
X137900000Y-128750000D03*
X137900000Y-130650000D03*
X112700000Y-113750000D03*
X112700000Y-111850000D03*
X114700000Y-113750000D03*
X114700000Y-111850000D03*
X109600000Y-108850000D03*
X109600000Y-106950000D03*
D32*
X124800000Y-124350000D03*
X124800000Y-126850000D03*
D31*
X116700000Y-111850000D03*
X116700000Y-113750000D03*
M02*
