G04 #@! TF.FileFunction,Copper,L2,Bot,Signal*
%FSLAX46Y46*%
G04 Gerber Fmt 4.6, Leading zero omitted, Abs format (unit mm)*
G04 Created by KiCad (PCBNEW 4.0.1-3.201512150931+6195~38~ubuntu14.04.1-stable) date Thu 31 Dec 2015 00:47:45 GMT*
%MOMM*%
G01*
G04 APERTURE LIST*
%ADD10C,0.100000*%
%ADD11C,2.000000*%
%ADD12R,2.000000X2.000000*%
%ADD13C,1.016000*%
%ADD14C,1.200000*%
%ADD15C,1.500000*%
%ADD16C,0.800000*%
%ADD17C,0.250000*%
%ADD18C,0.500000*%
%ADD19C,1.000000*%
G04 APERTURE END LIST*
D10*
D11*
X108515224Y-94615224D03*
X145284776Y-131384776D03*
D12*
X106100000Y-109100000D03*
D11*
X106100000Y-106560000D03*
D13*
X118200000Y-135270000D03*
X118200000Y-134000000D03*
X119470000Y-135270000D03*
X119470000Y-134000000D03*
X120740000Y-135270000D03*
X120740000Y-134000000D03*
X122010000Y-135270000D03*
X122010000Y-134000000D03*
X123280000Y-135270000D03*
X123280000Y-134000000D03*
D10*
G36*
X139752636Y-92344739D02*
X143344739Y-88752636D01*
X145050988Y-90458885D01*
X141458885Y-94050988D01*
X139752636Y-92344739D01*
X139752636Y-92344739D01*
G37*
G36*
X145949012Y-98541115D02*
X149541115Y-94949012D01*
X151247364Y-96655261D01*
X147655261Y-100247364D01*
X145949012Y-98541115D01*
X145949012Y-98541115D01*
G37*
D14*
X112500000Y-107800000D03*
X114500000Y-110600000D03*
X129100000Y-123100000D03*
X125800000Y-117900000D03*
X122900000Y-118900000D03*
X109600000Y-105700000D03*
X105000000Y-124900000D03*
X112700000Y-110600000D03*
X109200000Y-119400000D03*
X123200000Y-90900000D03*
X105500000Y-97150000D03*
D15*
X140600000Y-125200000D03*
D14*
X135600000Y-135900000D03*
X142200000Y-101500000D03*
X138200000Y-101600000D03*
D16*
X113400000Y-96000000D03*
X114300000Y-96000000D03*
D14*
X109500000Y-132700000D03*
X112400000Y-130500000D03*
X116600000Y-123400000D03*
X138600000Y-133700000D03*
X134100000Y-130600000D03*
X122400000Y-127500000D03*
X130500000Y-127100000D03*
X124400000Y-130800000D03*
X136300000Y-128900000D03*
X130700000Y-135200000D03*
X132500000Y-130400000D03*
X129700000Y-130900000D03*
X129700000Y-129400000D03*
X132500000Y-128900000D03*
X119700000Y-121000000D03*
X109900000Y-116600000D03*
X119700000Y-117300000D03*
X121800000Y-113800000D03*
X119900000Y-115900000D03*
X121700000Y-112300000D03*
X120200000Y-112200000D03*
X118700000Y-114800000D03*
X121400000Y-110300000D03*
X121300000Y-117300000D03*
X107300000Y-121100000D03*
X109700000Y-122600000D03*
X121100000Y-118900000D03*
X128100000Y-117200000D03*
D17*
X114500000Y-109800000D02*
X112500000Y-107800000D01*
X114500000Y-110600000D02*
X114500000Y-109800000D01*
D18*
X119470000Y-135270000D02*
X119470000Y-136570000D01*
X120700000Y-136800000D02*
X120700000Y-135300000D01*
X119700000Y-136800000D02*
X120700000Y-136800000D01*
X119470000Y-136570000D02*
X119700000Y-136800000D01*
X120700000Y-135300000D02*
X120740000Y-135270000D01*
D19*
X148598188Y-97598188D02*
X148598188Y-97601812D01*
X148598188Y-97601812D02*
X146000000Y-100200000D01*
X148598188Y-97598188D02*
X150300000Y-99300000D01*
X142401812Y-91401812D02*
X142198188Y-91401812D01*
X142198188Y-91401812D02*
X139000000Y-94600000D01*
X142401812Y-91401812D02*
X142101812Y-91401812D01*
X142101812Y-91401812D02*
X140600000Y-89900000D01*
D17*
X122400000Y-127500000D02*
X122400000Y-127600000D01*
X126800000Y-130800000D02*
X130500000Y-127100000D01*
X124400000Y-130800000D02*
X126800000Y-130800000D01*
X132500000Y-130400000D02*
X132700000Y-130400000D01*
X134200000Y-128900000D02*
X136300000Y-128900000D01*
X132700000Y-130400000D02*
X134200000Y-128900000D01*
X129800000Y-130800000D02*
X129800000Y-134300000D01*
X129800000Y-134300000D02*
X130700000Y-135200000D01*
X130200000Y-130400000D02*
X132500000Y-130400000D01*
X129700000Y-130900000D02*
X129800000Y-130800000D01*
X129800000Y-130800000D02*
X130200000Y-130400000D01*
X129700000Y-129400000D02*
X132000000Y-129400000D01*
X132000000Y-129400000D02*
X132500000Y-128900000D01*
X119700000Y-121000000D02*
X115300000Y-116600000D01*
X115300000Y-116600000D02*
X109900000Y-116600000D01*
X119700000Y-117300000D02*
X119900000Y-117300000D01*
X119900000Y-117300000D02*
X121500000Y-115700000D01*
X121500000Y-115700000D02*
X121500000Y-114100000D01*
X121500000Y-114100000D02*
X121800000Y-113800000D01*
X119900000Y-115900000D02*
X120700000Y-115100000D01*
X120700000Y-115100000D02*
X120700000Y-113500000D01*
X120700000Y-113500000D02*
X121700000Y-112500000D01*
X121700000Y-112500000D02*
X121700000Y-112300000D01*
X119800000Y-112600000D02*
X120200000Y-112200000D01*
X119800000Y-113700000D02*
X119800000Y-112600000D01*
X118700000Y-114800000D02*
X119800000Y-113700000D01*
X123100000Y-113900000D02*
X123100000Y-112200000D01*
X123100000Y-112200000D02*
X121400000Y-110500000D01*
X121300000Y-117300000D02*
X122100000Y-116500000D01*
X122100000Y-116500000D02*
X122100000Y-114900000D01*
X122100000Y-114900000D02*
X123100000Y-113900000D01*
X121400000Y-110300000D02*
X121400000Y-110500000D01*
X108200000Y-121100000D02*
X107300000Y-121100000D01*
X109700000Y-122600000D02*
X108200000Y-121100000D01*
X121100000Y-118900000D02*
X123200000Y-116800000D01*
X127700000Y-116800000D02*
X128100000Y-117200000D01*
X123200000Y-116800000D02*
X127700000Y-116800000D01*
D18*
G36*
X142397127Y-89063853D02*
X141310039Y-90150940D01*
X141310039Y-90310039D01*
X141150940Y-90310039D01*
X139371145Y-92089834D01*
X139302637Y-92255228D01*
X139302637Y-92434249D01*
X139371145Y-92599643D01*
X140208013Y-93436512D01*
X140367112Y-93436512D01*
X140367112Y-93595611D01*
X141203981Y-94432479D01*
X141369375Y-94500987D01*
X141548396Y-94500987D01*
X141713790Y-94432479D01*
X143493585Y-92652684D01*
X143493585Y-92493585D01*
X143652684Y-92493585D01*
X144739772Y-91406498D01*
X148593503Y-95260229D01*
X147506415Y-96347316D01*
X147506415Y-96506415D01*
X147347316Y-96506415D01*
X145567521Y-98286210D01*
X145499013Y-98451604D01*
X145499013Y-98630625D01*
X145567521Y-98796019D01*
X146404389Y-99632888D01*
X146563488Y-99632888D01*
X146563488Y-99791987D01*
X147400357Y-100628855D01*
X147565751Y-100697363D01*
X147744772Y-100697363D01*
X147910166Y-100628855D01*
X149689961Y-98849060D01*
X149689961Y-98689961D01*
X149849060Y-98689961D01*
X150936148Y-97602874D01*
X151175000Y-97841726D01*
X151175000Y-128158274D01*
X142158274Y-137175000D01*
X111841726Y-137175000D01*
X108915860Y-134249134D01*
X116941782Y-134249134D01*
X117101375Y-134635380D01*
X116942219Y-135018670D01*
X116941782Y-135519134D01*
X117132897Y-135981669D01*
X117486470Y-136335859D01*
X117948670Y-136527781D01*
X118449134Y-136528218D01*
X118841733Y-136366000D01*
X119174463Y-136518134D01*
X119674600Y-136536222D01*
X120120656Y-136370080D01*
X120444463Y-136518134D01*
X120944600Y-136536222D01*
X121384451Y-136372392D01*
X121758670Y-136527781D01*
X122259134Y-136528218D01*
X122651733Y-136366000D01*
X122984463Y-136518134D01*
X123484600Y-136536222D01*
X123953588Y-136361539D01*
X124030681Y-136310029D01*
X124051552Y-136047209D01*
X123280000Y-135275657D01*
X123267985Y-135287672D01*
X123267995Y-135276348D01*
X123274343Y-135270000D01*
X123268006Y-135263663D01*
X123268011Y-135257990D01*
X123273652Y-135257995D01*
X123280000Y-135264343D01*
X123286337Y-135258006D01*
X123297641Y-135258016D01*
X123285657Y-135270000D01*
X124057209Y-136041552D01*
X124320029Y-136020681D01*
X124528134Y-135565537D01*
X124546222Y-135065400D01*
X124382392Y-134625549D01*
X124537781Y-134251330D01*
X124538218Y-133750866D01*
X124347103Y-133288331D01*
X123993530Y-132934141D01*
X123531330Y-132742219D01*
X123030866Y-132741782D01*
X122644620Y-132901375D01*
X122261330Y-132742219D01*
X121760866Y-132741782D01*
X121374620Y-132901375D01*
X120991330Y-132742219D01*
X120490866Y-132741782D01*
X120104620Y-132901375D01*
X119721330Y-132742219D01*
X119220866Y-132741782D01*
X118834620Y-132901375D01*
X118451330Y-132742219D01*
X117950866Y-132741782D01*
X117488331Y-132932897D01*
X117134141Y-133286470D01*
X116942219Y-133748670D01*
X116941782Y-134249134D01*
X108915860Y-134249134D01*
X107202842Y-132536116D01*
X109930018Y-132536116D01*
X110093332Y-132931366D01*
X110395471Y-133234032D01*
X110790435Y-133398036D01*
X111218097Y-133398409D01*
X111613347Y-133235095D01*
X111916013Y-132932956D01*
X112080017Y-132537992D01*
X112080390Y-132110330D01*
X111917076Y-131715080D01*
X111614937Y-131412414D01*
X111219973Y-131248410D01*
X110792311Y-131248037D01*
X110397061Y-131411351D01*
X110094395Y-131713490D01*
X109930391Y-132108454D01*
X109930018Y-132536116D01*
X107202842Y-132536116D01*
X105734079Y-131067353D01*
X123049766Y-131067353D01*
X123254858Y-131563715D01*
X123634288Y-131943807D01*
X124130290Y-132149765D01*
X124652015Y-132150221D01*
X124562548Y-132600000D01*
X124748088Y-133532772D01*
X125276461Y-134323539D01*
X126067228Y-134851912D01*
X127000000Y-135037452D01*
X127932772Y-134851912D01*
X128723539Y-134323539D01*
X128925000Y-134022031D01*
X128925000Y-134300000D01*
X128964474Y-134498448D01*
X128991605Y-134634848D01*
X129181282Y-134918718D01*
X129350098Y-135087534D01*
X129349766Y-135467353D01*
X129554858Y-135963715D01*
X129934288Y-136343807D01*
X130430290Y-136549765D01*
X130967353Y-136550234D01*
X131463715Y-136345142D01*
X131843807Y-135965712D01*
X132049765Y-135469710D01*
X132050234Y-134932647D01*
X131845142Y-134436285D01*
X131465712Y-134056193D01*
X130969710Y-133850235D01*
X130675000Y-133849978D01*
X130675000Y-131834225D01*
X130843807Y-131665712D01*
X131006045Y-131275000D01*
X131465949Y-131275000D01*
X131734288Y-131543807D01*
X132230290Y-131749765D01*
X132767353Y-131750234D01*
X132966738Y-131667850D01*
X143523088Y-131667850D01*
X143765516Y-132320471D01*
X144239238Y-132830641D01*
X144872133Y-133120691D01*
X145001702Y-133146464D01*
X145280776Y-132981556D01*
X145280776Y-131388776D01*
X145288776Y-131388776D01*
X145288776Y-132981556D01*
X145567850Y-133146464D01*
X146220471Y-132904036D01*
X146730641Y-132430314D01*
X147020691Y-131797419D01*
X147046464Y-131667850D01*
X146881556Y-131388776D01*
X145288776Y-131388776D01*
X145280776Y-131388776D01*
X143687996Y-131388776D01*
X143523088Y-131667850D01*
X132966738Y-131667850D01*
X133263715Y-131545142D01*
X133643807Y-131165712D01*
X133670386Y-131101702D01*
X143523088Y-131101702D01*
X143687996Y-131380776D01*
X145280776Y-131380776D01*
X145280776Y-129787996D01*
X145288776Y-129787996D01*
X145288776Y-131380776D01*
X146881556Y-131380776D01*
X147046464Y-131101702D01*
X146804036Y-130449081D01*
X146330314Y-129938911D01*
X145697419Y-129648861D01*
X145567850Y-129623088D01*
X145288776Y-129787996D01*
X145280776Y-129787996D01*
X145001702Y-129623088D01*
X144349081Y-129865516D01*
X143838911Y-130339238D01*
X143548861Y-130972133D01*
X143523088Y-131101702D01*
X133670386Y-131101702D01*
X133849765Y-130669710D01*
X133849924Y-130487512D01*
X134562437Y-129775000D01*
X135265949Y-129775000D01*
X135534288Y-130043807D01*
X136030290Y-130249765D01*
X136567353Y-130250234D01*
X137063715Y-130045142D01*
X137443807Y-129665712D01*
X137649765Y-129169710D01*
X137650234Y-128632647D01*
X137445142Y-128136285D01*
X137065712Y-127756193D01*
X136569710Y-127550235D01*
X136032647Y-127549766D01*
X135536285Y-127754858D01*
X135265672Y-128025000D01*
X134200000Y-128025000D01*
X133920706Y-128080555D01*
X133865151Y-128091605D01*
X133678275Y-128216472D01*
X133645142Y-128136285D01*
X133265712Y-127756193D01*
X132769710Y-127550235D01*
X132232647Y-127549766D01*
X131736285Y-127754858D01*
X131656954Y-127834051D01*
X131849765Y-127369710D01*
X131850234Y-126832647D01*
X131645142Y-126336285D01*
X131265712Y-125956193D01*
X130769710Y-125750235D01*
X130232647Y-125749766D01*
X129736285Y-125954858D01*
X129356193Y-126334288D01*
X129150235Y-126830290D01*
X129149901Y-127212662D01*
X126437564Y-129925000D01*
X125434051Y-129925000D01*
X125165712Y-129656193D01*
X124669710Y-129450235D01*
X124132647Y-129449766D01*
X123636285Y-129654858D01*
X123256193Y-130034288D01*
X123050235Y-130530290D01*
X123049766Y-131067353D01*
X105734079Y-131067353D01*
X104374415Y-129707689D01*
X107101591Y-129707689D01*
X107264905Y-130102939D01*
X107567044Y-130405605D01*
X107962008Y-130569609D01*
X108389670Y-130569982D01*
X108784920Y-130406668D01*
X109087586Y-130104529D01*
X109251590Y-129709565D01*
X109251963Y-129281903D01*
X109088649Y-128886653D01*
X108786510Y-128583987D01*
X108391546Y-128419983D01*
X107963884Y-128419610D01*
X107568634Y-128582924D01*
X107265968Y-128885063D01*
X107101964Y-129280027D01*
X107101591Y-129707689D01*
X104374415Y-129707689D01*
X102825000Y-128158274D01*
X102825000Y-121367353D01*
X105949766Y-121367353D01*
X106154858Y-121863715D01*
X106534288Y-122243807D01*
X107030290Y-122449765D01*
X107567353Y-122450234D01*
X108063715Y-122245142D01*
X108085730Y-122223166D01*
X108350098Y-122487534D01*
X108349766Y-122867353D01*
X108554858Y-123363715D01*
X108934288Y-123743807D01*
X109430290Y-123949765D01*
X109967353Y-123950234D01*
X110463715Y-123745142D01*
X110843807Y-123365712D01*
X111049765Y-122869710D01*
X111050234Y-122332647D01*
X110845142Y-121836285D01*
X110465712Y-121456193D01*
X109969710Y-121250235D01*
X109587338Y-121249901D01*
X108818718Y-120481282D01*
X108534848Y-120291605D01*
X108367263Y-120258271D01*
X108065712Y-119956193D01*
X107569710Y-119750235D01*
X107032647Y-119749766D01*
X106536285Y-119954858D01*
X106156193Y-120334288D01*
X105950235Y-120830290D01*
X105949766Y-121367353D01*
X102825000Y-121367353D01*
X102825000Y-116867353D01*
X108549766Y-116867353D01*
X108754858Y-117363715D01*
X109134288Y-117743807D01*
X109630290Y-117949765D01*
X110167353Y-117950234D01*
X110663715Y-117745142D01*
X110934328Y-117475000D01*
X114937564Y-117475000D01*
X118350098Y-120887535D01*
X118349766Y-121267353D01*
X118554858Y-121763715D01*
X118934288Y-122143807D01*
X119430290Y-122349765D01*
X119967353Y-122350234D01*
X120463715Y-122145142D01*
X120843807Y-121765712D01*
X121049765Y-121269710D01*
X121050234Y-120732647D01*
X120850719Y-120249783D01*
X121367353Y-120250234D01*
X121863715Y-120045142D01*
X122243807Y-119665712D01*
X122449765Y-119169710D01*
X122450099Y-118787337D01*
X123562437Y-117675000D01*
X126835564Y-117675000D01*
X126954858Y-117963715D01*
X127334288Y-118343807D01*
X127830290Y-118549765D01*
X128367353Y-118550234D01*
X128863715Y-118345142D01*
X129243807Y-117965712D01*
X129449765Y-117469710D01*
X129450234Y-116932647D01*
X129245142Y-116436285D01*
X128865712Y-116056193D01*
X128369710Y-115850235D01*
X127832647Y-115849766D01*
X127650566Y-115925000D01*
X123200000Y-115925000D01*
X122975000Y-115969755D01*
X122975000Y-115262436D01*
X123718719Y-114518718D01*
X123908395Y-114234848D01*
X123975000Y-113900000D01*
X123975000Y-113000000D01*
X143975000Y-113000000D01*
X144159592Y-113928007D01*
X144685266Y-114714734D01*
X145471993Y-115240408D01*
X146400000Y-115425000D01*
X147328007Y-115240408D01*
X148114734Y-114714734D01*
X148640408Y-113928007D01*
X148825000Y-113000000D01*
X148640408Y-112071993D01*
X148114734Y-111285266D01*
X147328007Y-110759592D01*
X146400000Y-110575000D01*
X145471993Y-110759592D01*
X144685266Y-111285266D01*
X144159592Y-112071993D01*
X143975000Y-113000000D01*
X123975000Y-113000000D01*
X123975000Y-112200000D01*
X123908395Y-111865152D01*
X123718718Y-111581282D01*
X122737260Y-110599824D01*
X122749765Y-110569710D01*
X122750234Y-110032647D01*
X122545142Y-109536285D01*
X122165712Y-109156193D01*
X121669710Y-108950235D01*
X121132647Y-108949766D01*
X120636285Y-109154858D01*
X120256193Y-109534288D01*
X120050235Y-110030290D01*
X120049766Y-110567353D01*
X120166541Y-110849970D01*
X119932647Y-110849766D01*
X119436285Y-111054858D01*
X119056193Y-111434288D01*
X118850235Y-111930290D01*
X118849766Y-112467353D01*
X118925000Y-112649434D01*
X118925000Y-113337564D01*
X118812466Y-113450098D01*
X118432647Y-113449766D01*
X117936285Y-113654858D01*
X117556193Y-114034288D01*
X117350235Y-114530290D01*
X117349766Y-115067353D01*
X117554858Y-115563715D01*
X117934288Y-115943807D01*
X118430290Y-116149765D01*
X118549781Y-116149869D01*
X118549766Y-116167353D01*
X118658982Y-116431678D01*
X118556193Y-116534288D01*
X118350235Y-117030290D01*
X118349766Y-117567353D01*
X118554858Y-118063715D01*
X118934288Y-118443807D01*
X119430290Y-118649765D01*
X119750218Y-118650044D01*
X119749766Y-119167353D01*
X119949281Y-119650217D01*
X119587338Y-119649901D01*
X115918718Y-115981282D01*
X115634848Y-115791605D01*
X115300000Y-115725000D01*
X110934051Y-115725000D01*
X110665712Y-115456193D01*
X110169710Y-115250235D01*
X109632647Y-115249766D01*
X109136285Y-115454858D01*
X108756193Y-115834288D01*
X108550235Y-116330290D01*
X108549766Y-116867353D01*
X102825000Y-116867353D01*
X102825000Y-108100000D01*
X104335307Y-108100000D01*
X104335307Y-110100000D01*
X104387604Y-110377933D01*
X104551862Y-110633198D01*
X104802492Y-110804446D01*
X105100000Y-110864693D01*
X106514698Y-110864693D01*
X105885266Y-111285266D01*
X105359592Y-112071993D01*
X105175000Y-113000000D01*
X105359592Y-113928007D01*
X105885266Y-114714734D01*
X106671993Y-115240408D01*
X107600000Y-115425000D01*
X108528007Y-115240408D01*
X109314734Y-114714734D01*
X109840408Y-113928007D01*
X110025000Y-113000000D01*
X109840408Y-112071993D01*
X109314734Y-111285266D01*
X108528007Y-110759592D01*
X107673220Y-110589564D01*
X107804446Y-110397508D01*
X107864693Y-110100000D01*
X107864693Y-108100000D01*
X107858551Y-108067353D01*
X111149766Y-108067353D01*
X111354858Y-108563715D01*
X111734288Y-108943807D01*
X112230290Y-109149765D01*
X112612663Y-109150099D01*
X113338782Y-109876219D01*
X113150235Y-110330290D01*
X113149766Y-110867353D01*
X113354858Y-111363715D01*
X113734288Y-111743807D01*
X114230290Y-111949765D01*
X114767353Y-111950234D01*
X115263715Y-111745142D01*
X115643807Y-111365712D01*
X115849765Y-110869710D01*
X115850234Y-110332647D01*
X115645142Y-109836285D01*
X115316791Y-109507361D01*
X115308395Y-109465152D01*
X115281566Y-109425000D01*
X115118718Y-109181281D01*
X113849902Y-107912466D01*
X113850234Y-107532647D01*
X113645142Y-107036285D01*
X113265712Y-106656193D01*
X112769710Y-106450235D01*
X112232647Y-106449766D01*
X111736285Y-106654858D01*
X111356193Y-107034288D01*
X111150235Y-107530290D01*
X111149766Y-108067353D01*
X107858551Y-108067353D01*
X107812396Y-107822067D01*
X107648138Y-107566802D01*
X107592576Y-107528838D01*
X107849696Y-106909624D01*
X107850304Y-106213431D01*
X107584443Y-105569999D01*
X107092590Y-105077287D01*
X106449624Y-104810304D01*
X105753431Y-104809696D01*
X105109999Y-105075557D01*
X104617287Y-105567410D01*
X104350304Y-106210376D01*
X104349696Y-106906569D01*
X104605924Y-107526688D01*
X104566802Y-107551862D01*
X104395554Y-107802492D01*
X104335307Y-108100000D01*
X102825000Y-108100000D01*
X102825000Y-97841726D01*
X107024287Y-93642439D01*
X106765528Y-94265600D01*
X106764920Y-94961793D01*
X107030781Y-95605225D01*
X107522634Y-96097937D01*
X108165600Y-96364920D01*
X108861793Y-96365528D01*
X109505225Y-96099667D01*
X109997937Y-95607814D01*
X110264920Y-94964848D01*
X110265528Y-94268655D01*
X109999667Y-93625223D01*
X109974488Y-93600000D01*
X124575000Y-93600000D01*
X124759592Y-94528007D01*
X125285266Y-95314734D01*
X126071993Y-95840408D01*
X127000000Y-96025000D01*
X127928007Y-95840408D01*
X128714734Y-95314734D01*
X129240408Y-94528007D01*
X129425000Y-93600000D01*
X129240408Y-92671993D01*
X128714734Y-91885266D01*
X127928007Y-91359592D01*
X127000000Y-91175000D01*
X126071993Y-91359592D01*
X125285266Y-91885266D01*
X124759592Y-92671993D01*
X124575000Y-93600000D01*
X109974488Y-93600000D01*
X109507814Y-93132511D01*
X108864848Y-92865528D01*
X108168655Y-92864920D01*
X107543495Y-93123231D01*
X111841726Y-88825000D01*
X142158274Y-88825000D01*
X142397127Y-89063853D01*
X142397127Y-89063853D01*
G37*
X142397127Y-89063853D02*
X141310039Y-90150940D01*
X141310039Y-90310039D01*
X141150940Y-90310039D01*
X139371145Y-92089834D01*
X139302637Y-92255228D01*
X139302637Y-92434249D01*
X139371145Y-92599643D01*
X140208013Y-93436512D01*
X140367112Y-93436512D01*
X140367112Y-93595611D01*
X141203981Y-94432479D01*
X141369375Y-94500987D01*
X141548396Y-94500987D01*
X141713790Y-94432479D01*
X143493585Y-92652684D01*
X143493585Y-92493585D01*
X143652684Y-92493585D01*
X144739772Y-91406498D01*
X148593503Y-95260229D01*
X147506415Y-96347316D01*
X147506415Y-96506415D01*
X147347316Y-96506415D01*
X145567521Y-98286210D01*
X145499013Y-98451604D01*
X145499013Y-98630625D01*
X145567521Y-98796019D01*
X146404389Y-99632888D01*
X146563488Y-99632888D01*
X146563488Y-99791987D01*
X147400357Y-100628855D01*
X147565751Y-100697363D01*
X147744772Y-100697363D01*
X147910166Y-100628855D01*
X149689961Y-98849060D01*
X149689961Y-98689961D01*
X149849060Y-98689961D01*
X150936148Y-97602874D01*
X151175000Y-97841726D01*
X151175000Y-128158274D01*
X142158274Y-137175000D01*
X111841726Y-137175000D01*
X108915860Y-134249134D01*
X116941782Y-134249134D01*
X117101375Y-134635380D01*
X116942219Y-135018670D01*
X116941782Y-135519134D01*
X117132897Y-135981669D01*
X117486470Y-136335859D01*
X117948670Y-136527781D01*
X118449134Y-136528218D01*
X118841733Y-136366000D01*
X119174463Y-136518134D01*
X119674600Y-136536222D01*
X120120656Y-136370080D01*
X120444463Y-136518134D01*
X120944600Y-136536222D01*
X121384451Y-136372392D01*
X121758670Y-136527781D01*
X122259134Y-136528218D01*
X122651733Y-136366000D01*
X122984463Y-136518134D01*
X123484600Y-136536222D01*
X123953588Y-136361539D01*
X124030681Y-136310029D01*
X124051552Y-136047209D01*
X123280000Y-135275657D01*
X123267985Y-135287672D01*
X123267995Y-135276348D01*
X123274343Y-135270000D01*
X123268006Y-135263663D01*
X123268011Y-135257990D01*
X123273652Y-135257995D01*
X123280000Y-135264343D01*
X123286337Y-135258006D01*
X123297641Y-135258016D01*
X123285657Y-135270000D01*
X124057209Y-136041552D01*
X124320029Y-136020681D01*
X124528134Y-135565537D01*
X124546222Y-135065400D01*
X124382392Y-134625549D01*
X124537781Y-134251330D01*
X124538218Y-133750866D01*
X124347103Y-133288331D01*
X123993530Y-132934141D01*
X123531330Y-132742219D01*
X123030866Y-132741782D01*
X122644620Y-132901375D01*
X122261330Y-132742219D01*
X121760866Y-132741782D01*
X121374620Y-132901375D01*
X120991330Y-132742219D01*
X120490866Y-132741782D01*
X120104620Y-132901375D01*
X119721330Y-132742219D01*
X119220866Y-132741782D01*
X118834620Y-132901375D01*
X118451330Y-132742219D01*
X117950866Y-132741782D01*
X117488331Y-132932897D01*
X117134141Y-133286470D01*
X116942219Y-133748670D01*
X116941782Y-134249134D01*
X108915860Y-134249134D01*
X107202842Y-132536116D01*
X109930018Y-132536116D01*
X110093332Y-132931366D01*
X110395471Y-133234032D01*
X110790435Y-133398036D01*
X111218097Y-133398409D01*
X111613347Y-133235095D01*
X111916013Y-132932956D01*
X112080017Y-132537992D01*
X112080390Y-132110330D01*
X111917076Y-131715080D01*
X111614937Y-131412414D01*
X111219973Y-131248410D01*
X110792311Y-131248037D01*
X110397061Y-131411351D01*
X110094395Y-131713490D01*
X109930391Y-132108454D01*
X109930018Y-132536116D01*
X107202842Y-132536116D01*
X105734079Y-131067353D01*
X123049766Y-131067353D01*
X123254858Y-131563715D01*
X123634288Y-131943807D01*
X124130290Y-132149765D01*
X124652015Y-132150221D01*
X124562548Y-132600000D01*
X124748088Y-133532772D01*
X125276461Y-134323539D01*
X126067228Y-134851912D01*
X127000000Y-135037452D01*
X127932772Y-134851912D01*
X128723539Y-134323539D01*
X128925000Y-134022031D01*
X128925000Y-134300000D01*
X128964474Y-134498448D01*
X128991605Y-134634848D01*
X129181282Y-134918718D01*
X129350098Y-135087534D01*
X129349766Y-135467353D01*
X129554858Y-135963715D01*
X129934288Y-136343807D01*
X130430290Y-136549765D01*
X130967353Y-136550234D01*
X131463715Y-136345142D01*
X131843807Y-135965712D01*
X132049765Y-135469710D01*
X132050234Y-134932647D01*
X131845142Y-134436285D01*
X131465712Y-134056193D01*
X130969710Y-133850235D01*
X130675000Y-133849978D01*
X130675000Y-131834225D01*
X130843807Y-131665712D01*
X131006045Y-131275000D01*
X131465949Y-131275000D01*
X131734288Y-131543807D01*
X132230290Y-131749765D01*
X132767353Y-131750234D01*
X132966738Y-131667850D01*
X143523088Y-131667850D01*
X143765516Y-132320471D01*
X144239238Y-132830641D01*
X144872133Y-133120691D01*
X145001702Y-133146464D01*
X145280776Y-132981556D01*
X145280776Y-131388776D01*
X145288776Y-131388776D01*
X145288776Y-132981556D01*
X145567850Y-133146464D01*
X146220471Y-132904036D01*
X146730641Y-132430314D01*
X147020691Y-131797419D01*
X147046464Y-131667850D01*
X146881556Y-131388776D01*
X145288776Y-131388776D01*
X145280776Y-131388776D01*
X143687996Y-131388776D01*
X143523088Y-131667850D01*
X132966738Y-131667850D01*
X133263715Y-131545142D01*
X133643807Y-131165712D01*
X133670386Y-131101702D01*
X143523088Y-131101702D01*
X143687996Y-131380776D01*
X145280776Y-131380776D01*
X145280776Y-129787996D01*
X145288776Y-129787996D01*
X145288776Y-131380776D01*
X146881556Y-131380776D01*
X147046464Y-131101702D01*
X146804036Y-130449081D01*
X146330314Y-129938911D01*
X145697419Y-129648861D01*
X145567850Y-129623088D01*
X145288776Y-129787996D01*
X145280776Y-129787996D01*
X145001702Y-129623088D01*
X144349081Y-129865516D01*
X143838911Y-130339238D01*
X143548861Y-130972133D01*
X143523088Y-131101702D01*
X133670386Y-131101702D01*
X133849765Y-130669710D01*
X133849924Y-130487512D01*
X134562437Y-129775000D01*
X135265949Y-129775000D01*
X135534288Y-130043807D01*
X136030290Y-130249765D01*
X136567353Y-130250234D01*
X137063715Y-130045142D01*
X137443807Y-129665712D01*
X137649765Y-129169710D01*
X137650234Y-128632647D01*
X137445142Y-128136285D01*
X137065712Y-127756193D01*
X136569710Y-127550235D01*
X136032647Y-127549766D01*
X135536285Y-127754858D01*
X135265672Y-128025000D01*
X134200000Y-128025000D01*
X133920706Y-128080555D01*
X133865151Y-128091605D01*
X133678275Y-128216472D01*
X133645142Y-128136285D01*
X133265712Y-127756193D01*
X132769710Y-127550235D01*
X132232647Y-127549766D01*
X131736285Y-127754858D01*
X131656954Y-127834051D01*
X131849765Y-127369710D01*
X131850234Y-126832647D01*
X131645142Y-126336285D01*
X131265712Y-125956193D01*
X130769710Y-125750235D01*
X130232647Y-125749766D01*
X129736285Y-125954858D01*
X129356193Y-126334288D01*
X129150235Y-126830290D01*
X129149901Y-127212662D01*
X126437564Y-129925000D01*
X125434051Y-129925000D01*
X125165712Y-129656193D01*
X124669710Y-129450235D01*
X124132647Y-129449766D01*
X123636285Y-129654858D01*
X123256193Y-130034288D01*
X123050235Y-130530290D01*
X123049766Y-131067353D01*
X105734079Y-131067353D01*
X104374415Y-129707689D01*
X107101591Y-129707689D01*
X107264905Y-130102939D01*
X107567044Y-130405605D01*
X107962008Y-130569609D01*
X108389670Y-130569982D01*
X108784920Y-130406668D01*
X109087586Y-130104529D01*
X109251590Y-129709565D01*
X109251963Y-129281903D01*
X109088649Y-128886653D01*
X108786510Y-128583987D01*
X108391546Y-128419983D01*
X107963884Y-128419610D01*
X107568634Y-128582924D01*
X107265968Y-128885063D01*
X107101964Y-129280027D01*
X107101591Y-129707689D01*
X104374415Y-129707689D01*
X102825000Y-128158274D01*
X102825000Y-121367353D01*
X105949766Y-121367353D01*
X106154858Y-121863715D01*
X106534288Y-122243807D01*
X107030290Y-122449765D01*
X107567353Y-122450234D01*
X108063715Y-122245142D01*
X108085730Y-122223166D01*
X108350098Y-122487534D01*
X108349766Y-122867353D01*
X108554858Y-123363715D01*
X108934288Y-123743807D01*
X109430290Y-123949765D01*
X109967353Y-123950234D01*
X110463715Y-123745142D01*
X110843807Y-123365712D01*
X111049765Y-122869710D01*
X111050234Y-122332647D01*
X110845142Y-121836285D01*
X110465712Y-121456193D01*
X109969710Y-121250235D01*
X109587338Y-121249901D01*
X108818718Y-120481282D01*
X108534848Y-120291605D01*
X108367263Y-120258271D01*
X108065712Y-119956193D01*
X107569710Y-119750235D01*
X107032647Y-119749766D01*
X106536285Y-119954858D01*
X106156193Y-120334288D01*
X105950235Y-120830290D01*
X105949766Y-121367353D01*
X102825000Y-121367353D01*
X102825000Y-116867353D01*
X108549766Y-116867353D01*
X108754858Y-117363715D01*
X109134288Y-117743807D01*
X109630290Y-117949765D01*
X110167353Y-117950234D01*
X110663715Y-117745142D01*
X110934328Y-117475000D01*
X114937564Y-117475000D01*
X118350098Y-120887535D01*
X118349766Y-121267353D01*
X118554858Y-121763715D01*
X118934288Y-122143807D01*
X119430290Y-122349765D01*
X119967353Y-122350234D01*
X120463715Y-122145142D01*
X120843807Y-121765712D01*
X121049765Y-121269710D01*
X121050234Y-120732647D01*
X120850719Y-120249783D01*
X121367353Y-120250234D01*
X121863715Y-120045142D01*
X122243807Y-119665712D01*
X122449765Y-119169710D01*
X122450099Y-118787337D01*
X123562437Y-117675000D01*
X126835564Y-117675000D01*
X126954858Y-117963715D01*
X127334288Y-118343807D01*
X127830290Y-118549765D01*
X128367353Y-118550234D01*
X128863715Y-118345142D01*
X129243807Y-117965712D01*
X129449765Y-117469710D01*
X129450234Y-116932647D01*
X129245142Y-116436285D01*
X128865712Y-116056193D01*
X128369710Y-115850235D01*
X127832647Y-115849766D01*
X127650566Y-115925000D01*
X123200000Y-115925000D01*
X122975000Y-115969755D01*
X122975000Y-115262436D01*
X123718719Y-114518718D01*
X123908395Y-114234848D01*
X123975000Y-113900000D01*
X123975000Y-113000000D01*
X143975000Y-113000000D01*
X144159592Y-113928007D01*
X144685266Y-114714734D01*
X145471993Y-115240408D01*
X146400000Y-115425000D01*
X147328007Y-115240408D01*
X148114734Y-114714734D01*
X148640408Y-113928007D01*
X148825000Y-113000000D01*
X148640408Y-112071993D01*
X148114734Y-111285266D01*
X147328007Y-110759592D01*
X146400000Y-110575000D01*
X145471993Y-110759592D01*
X144685266Y-111285266D01*
X144159592Y-112071993D01*
X143975000Y-113000000D01*
X123975000Y-113000000D01*
X123975000Y-112200000D01*
X123908395Y-111865152D01*
X123718718Y-111581282D01*
X122737260Y-110599824D01*
X122749765Y-110569710D01*
X122750234Y-110032647D01*
X122545142Y-109536285D01*
X122165712Y-109156193D01*
X121669710Y-108950235D01*
X121132647Y-108949766D01*
X120636285Y-109154858D01*
X120256193Y-109534288D01*
X120050235Y-110030290D01*
X120049766Y-110567353D01*
X120166541Y-110849970D01*
X119932647Y-110849766D01*
X119436285Y-111054858D01*
X119056193Y-111434288D01*
X118850235Y-111930290D01*
X118849766Y-112467353D01*
X118925000Y-112649434D01*
X118925000Y-113337564D01*
X118812466Y-113450098D01*
X118432647Y-113449766D01*
X117936285Y-113654858D01*
X117556193Y-114034288D01*
X117350235Y-114530290D01*
X117349766Y-115067353D01*
X117554858Y-115563715D01*
X117934288Y-115943807D01*
X118430290Y-116149765D01*
X118549781Y-116149869D01*
X118549766Y-116167353D01*
X118658982Y-116431678D01*
X118556193Y-116534288D01*
X118350235Y-117030290D01*
X118349766Y-117567353D01*
X118554858Y-118063715D01*
X118934288Y-118443807D01*
X119430290Y-118649765D01*
X119750218Y-118650044D01*
X119749766Y-119167353D01*
X119949281Y-119650217D01*
X119587338Y-119649901D01*
X115918718Y-115981282D01*
X115634848Y-115791605D01*
X115300000Y-115725000D01*
X110934051Y-115725000D01*
X110665712Y-115456193D01*
X110169710Y-115250235D01*
X109632647Y-115249766D01*
X109136285Y-115454858D01*
X108756193Y-115834288D01*
X108550235Y-116330290D01*
X108549766Y-116867353D01*
X102825000Y-116867353D01*
X102825000Y-108100000D01*
X104335307Y-108100000D01*
X104335307Y-110100000D01*
X104387604Y-110377933D01*
X104551862Y-110633198D01*
X104802492Y-110804446D01*
X105100000Y-110864693D01*
X106514698Y-110864693D01*
X105885266Y-111285266D01*
X105359592Y-112071993D01*
X105175000Y-113000000D01*
X105359592Y-113928007D01*
X105885266Y-114714734D01*
X106671993Y-115240408D01*
X107600000Y-115425000D01*
X108528007Y-115240408D01*
X109314734Y-114714734D01*
X109840408Y-113928007D01*
X110025000Y-113000000D01*
X109840408Y-112071993D01*
X109314734Y-111285266D01*
X108528007Y-110759592D01*
X107673220Y-110589564D01*
X107804446Y-110397508D01*
X107864693Y-110100000D01*
X107864693Y-108100000D01*
X107858551Y-108067353D01*
X111149766Y-108067353D01*
X111354858Y-108563715D01*
X111734288Y-108943807D01*
X112230290Y-109149765D01*
X112612663Y-109150099D01*
X113338782Y-109876219D01*
X113150235Y-110330290D01*
X113149766Y-110867353D01*
X113354858Y-111363715D01*
X113734288Y-111743807D01*
X114230290Y-111949765D01*
X114767353Y-111950234D01*
X115263715Y-111745142D01*
X115643807Y-111365712D01*
X115849765Y-110869710D01*
X115850234Y-110332647D01*
X115645142Y-109836285D01*
X115316791Y-109507361D01*
X115308395Y-109465152D01*
X115281566Y-109425000D01*
X115118718Y-109181281D01*
X113849902Y-107912466D01*
X113850234Y-107532647D01*
X113645142Y-107036285D01*
X113265712Y-106656193D01*
X112769710Y-106450235D01*
X112232647Y-106449766D01*
X111736285Y-106654858D01*
X111356193Y-107034288D01*
X111150235Y-107530290D01*
X111149766Y-108067353D01*
X107858551Y-108067353D01*
X107812396Y-107822067D01*
X107648138Y-107566802D01*
X107592576Y-107528838D01*
X107849696Y-106909624D01*
X107850304Y-106213431D01*
X107584443Y-105569999D01*
X107092590Y-105077287D01*
X106449624Y-104810304D01*
X105753431Y-104809696D01*
X105109999Y-105075557D01*
X104617287Y-105567410D01*
X104350304Y-106210376D01*
X104349696Y-106906569D01*
X104605924Y-107526688D01*
X104566802Y-107551862D01*
X104395554Y-107802492D01*
X104335307Y-108100000D01*
X102825000Y-108100000D01*
X102825000Y-97841726D01*
X107024287Y-93642439D01*
X106765528Y-94265600D01*
X106764920Y-94961793D01*
X107030781Y-95605225D01*
X107522634Y-96097937D01*
X108165600Y-96364920D01*
X108861793Y-96365528D01*
X109505225Y-96099667D01*
X109997937Y-95607814D01*
X110264920Y-94964848D01*
X110265528Y-94268655D01*
X109999667Y-93625223D01*
X109974488Y-93600000D01*
X124575000Y-93600000D01*
X124759592Y-94528007D01*
X125285266Y-95314734D01*
X126071993Y-95840408D01*
X127000000Y-96025000D01*
X127928007Y-95840408D01*
X128714734Y-95314734D01*
X129240408Y-94528007D01*
X129425000Y-93600000D01*
X129240408Y-92671993D01*
X128714734Y-91885266D01*
X127928007Y-91359592D01*
X127000000Y-91175000D01*
X126071993Y-91359592D01*
X125285266Y-91885266D01*
X124759592Y-92671993D01*
X124575000Y-93600000D01*
X109974488Y-93600000D01*
X109507814Y-93132511D01*
X108864848Y-92865528D01*
X108168655Y-92864920D01*
X107543495Y-93123231D01*
X111841726Y-88825000D01*
X142158274Y-88825000D01*
X142397127Y-89063853D01*
G36*
X119463652Y-135257995D02*
X119470000Y-135264343D01*
X119476337Y-135258006D01*
X119481611Y-135258011D01*
X119481385Y-135264272D01*
X119475657Y-135270000D01*
X119480985Y-135275328D01*
X119480590Y-135286247D01*
X119470000Y-135275657D01*
X119457985Y-135287672D01*
X119457995Y-135276348D01*
X119464343Y-135270000D01*
X119458006Y-135263663D01*
X119458011Y-135257990D01*
X119463652Y-135257995D01*
X119463652Y-135257995D01*
G37*
X119463652Y-135257995D02*
X119470000Y-135264343D01*
X119476337Y-135258006D01*
X119481611Y-135258011D01*
X119481385Y-135264272D01*
X119475657Y-135270000D01*
X119480985Y-135275328D01*
X119480590Y-135286247D01*
X119470000Y-135275657D01*
X119457985Y-135287672D01*
X119457995Y-135276348D01*
X119464343Y-135270000D01*
X119458006Y-135263663D01*
X119458011Y-135257990D01*
X119463652Y-135257995D01*
G36*
X120733652Y-135257995D02*
X120740000Y-135264343D01*
X120746337Y-135258006D01*
X120752010Y-135258011D01*
X120752005Y-135263652D01*
X120745657Y-135270000D01*
X120751994Y-135276337D01*
X120751984Y-135287641D01*
X120740000Y-135275657D01*
X120728191Y-135287466D01*
X120728615Y-135275728D01*
X120734343Y-135270000D01*
X120729015Y-135264672D01*
X120729257Y-135257991D01*
X120733652Y-135257995D01*
X120733652Y-135257995D01*
G37*
X120733652Y-135257995D02*
X120740000Y-135264343D01*
X120746337Y-135258006D01*
X120752010Y-135258011D01*
X120752005Y-135263652D01*
X120745657Y-135270000D01*
X120751994Y-135276337D01*
X120751984Y-135287641D01*
X120740000Y-135275657D01*
X120728191Y-135287466D01*
X120728615Y-135275728D01*
X120734343Y-135270000D01*
X120729015Y-135264672D01*
X120729257Y-135257991D01*
X120733652Y-135257995D01*
M02*
