G04 #@! TF.FileFunction,Soldermask,Top*
%FSLAX46Y46*%
G04 Gerber Fmt 4.6, Leading zero omitted, Abs format (unit mm)*
G04 Created by KiCad (PCBNEW 4.0.1-3.201512221402+6198~38~ubuntu14.04.1-stable) date Tue 12 Jan 2016 14:15:59 GMT*
%MOMM*%
G01*
G04 APERTURE LIST*
%ADD10C,0.100000*%
%ADD11R,0.750000X0.800000*%
%ADD12R,0.800000X0.750000*%
%ADD13R,0.900000X0.500000*%
%ADD14R,1.198880X1.198880*%
%ADD15R,1.350000X0.400000*%
%ADD16O,1.250000X1.000000*%
%ADD17R,1.900000X1.800000*%
%ADD18R,1.900000X1.575000*%
%ADD19O,1.900000X1.000000*%
%ADD20R,1.500000X3.000000*%
%ADD21C,2.000000*%
%ADD22R,5.080000X2.286000*%
%ADD23R,5.080000X2.413000*%
%ADD24C,0.787000*%
%ADD25C,1.000000*%
%ADD26R,2.000000X2.000000*%
%ADD27R,0.500000X0.900000*%
%ADD28C,1.800000*%
%ADD29C,0.750000*%
%ADD30R,0.650000X1.060000*%
%ADD31R,0.400000X0.900000*%
%ADD32R,1.200000X2.000000*%
%ADD33R,0.600000X0.400000*%
%ADD34R,1.500000X2.400000*%
%ADD35R,1.000000X1.000000*%
%ADD36C,1.016000*%
%ADD37R,1.100000X1.900000*%
G04 APERTURE END LIST*
D10*
D11*
X129750000Y-139150000D03*
X129750000Y-140650000D03*
D12*
X135100000Y-123750000D03*
X133600000Y-123750000D03*
D11*
X134450000Y-139250000D03*
X134450000Y-140750000D03*
D12*
X135100000Y-125250000D03*
X133600000Y-125250000D03*
D11*
X139950000Y-126700000D03*
X139950000Y-125200000D03*
D12*
X132850000Y-113450000D03*
X131350000Y-113450000D03*
X132850000Y-111950000D03*
X131350000Y-111950000D03*
D11*
X121300000Y-140200000D03*
X121300000Y-141700000D03*
X119800000Y-140200000D03*
X119800000Y-141700000D03*
D10*
G36*
X122548008Y-131321662D02*
X123078338Y-131851992D01*
X122512652Y-132417678D01*
X121982322Y-131887348D01*
X122548008Y-131321662D01*
X122548008Y-131321662D01*
G37*
G36*
X121487348Y-132382322D02*
X122017678Y-132912652D01*
X121451992Y-133478338D01*
X120921662Y-132948008D01*
X121487348Y-132382322D01*
X121487348Y-132382322D01*
G37*
D11*
X133700000Y-127750000D03*
X133700000Y-129250000D03*
D12*
X122450000Y-136100000D03*
X120950000Y-136100000D03*
X122450000Y-134600000D03*
X120950000Y-134600000D03*
D11*
X123250000Y-119200000D03*
X123250000Y-120700000D03*
X120500000Y-128750000D03*
X120500000Y-127250000D03*
X119000000Y-128750000D03*
X119000000Y-127250000D03*
X123250000Y-116050000D03*
X123250000Y-117550000D03*
D13*
X128200000Y-139150000D03*
X128200000Y-140650000D03*
D14*
X134000000Y-130850980D03*
X134000000Y-132949020D03*
D13*
X132275000Y-88025000D03*
X132275000Y-89525000D03*
D14*
X124350980Y-134900000D03*
X126449020Y-134900000D03*
X124350980Y-136800000D03*
X126449020Y-136800000D03*
D15*
X136475000Y-116400000D03*
X136475000Y-115750000D03*
X136475000Y-117050000D03*
X136475000Y-117700000D03*
X136475000Y-115100000D03*
D16*
X136150000Y-114175000D03*
X136150000Y-118625000D03*
D17*
X139150000Y-115250000D03*
X139150000Y-117550000D03*
D18*
X139150000Y-113012500D03*
D19*
X139150000Y-112225000D03*
D18*
X139150000Y-119787500D03*
D19*
X139150000Y-120575000D03*
D20*
X130100000Y-135900000D03*
X132700000Y-135900000D03*
D21*
X126500000Y-140500000D03*
X126500000Y-88500000D03*
D22*
X138500000Y-92500000D03*
D23*
X138500000Y-88118500D03*
X138500000Y-96881500D03*
D24*
X137400000Y-136710000D03*
X138670000Y-136710000D03*
X137400000Y-137980000D03*
X138670000Y-137980000D03*
X137400000Y-139250000D03*
X138670000Y-139250000D03*
D25*
X138035000Y-135440000D03*
X137019000Y-140520000D03*
X139051000Y-140520000D03*
D26*
X138000000Y-106000000D03*
D21*
X138000000Y-103460000D03*
D13*
X128500000Y-136450000D03*
X128500000Y-134950000D03*
X132300000Y-133250000D03*
X132300000Y-131750000D03*
D27*
X120600000Y-114250000D03*
X122100000Y-114250000D03*
X122100000Y-112650000D03*
X120600000Y-112650000D03*
X124150000Y-140400000D03*
X122650000Y-140400000D03*
X124850000Y-138600000D03*
X123350000Y-138600000D03*
X136350000Y-108050000D03*
X137850000Y-108050000D03*
D28*
X136750000Y-92500000D03*
X139100000Y-110350000D03*
X123600000Y-88500000D03*
D29*
X119650000Y-114250000D03*
X119650000Y-112650000D03*
D30*
X138450000Y-123400000D03*
X137500000Y-123400000D03*
X136550000Y-123400000D03*
X136550000Y-125600000D03*
X138450000Y-125600000D03*
D31*
X131500000Y-138800000D03*
X132150000Y-138800000D03*
X132800000Y-138800000D03*
X131500000Y-141000000D03*
X132150000Y-141000000D03*
X132800000Y-141000000D03*
D32*
X133000000Y-92100000D03*
X119000000Y-109800000D03*
X121000000Y-109800000D03*
X123000000Y-109800000D03*
X125000000Y-109800000D03*
X127000000Y-109800000D03*
X129000000Y-109800000D03*
X131000000Y-109800000D03*
X133000000Y-109800000D03*
X131000000Y-92100000D03*
X129000000Y-92100000D03*
X127000000Y-92100000D03*
X125000000Y-92100000D03*
X123000000Y-92100000D03*
X121000000Y-92100000D03*
X119000000Y-92100000D03*
D10*
G36*
X121413856Y-129272792D02*
X122262384Y-128424264D01*
X122615938Y-128777818D01*
X121767410Y-129626346D01*
X121413856Y-129272792D01*
X121413856Y-129272792D01*
G37*
G36*
X121979542Y-129838477D02*
X122828070Y-128989949D01*
X123181624Y-129343503D01*
X122333096Y-130192031D01*
X121979542Y-129838477D01*
X121979542Y-129838477D01*
G37*
G36*
X122545227Y-130404163D02*
X123393755Y-129555635D01*
X123747309Y-129909189D01*
X122898781Y-130757717D01*
X122545227Y-130404163D01*
X122545227Y-130404163D01*
G37*
G36*
X123110912Y-130969848D02*
X123959440Y-130121320D01*
X124312994Y-130474874D01*
X123464466Y-131323402D01*
X123110912Y-130969848D01*
X123110912Y-130969848D01*
G37*
G36*
X123676598Y-131535534D02*
X124525126Y-130687006D01*
X124878680Y-131040560D01*
X124030152Y-131889088D01*
X123676598Y-131535534D01*
X123676598Y-131535534D01*
G37*
G36*
X124242283Y-132101219D02*
X125090811Y-131252691D01*
X125444365Y-131606245D01*
X124595837Y-132454773D01*
X124242283Y-132101219D01*
X124242283Y-132101219D01*
G37*
G36*
X124807969Y-132666904D02*
X125656497Y-131818376D01*
X126010051Y-132171930D01*
X125161523Y-133020458D01*
X124807969Y-132666904D01*
X124807969Y-132666904D01*
G37*
G36*
X125373654Y-133232590D02*
X126222182Y-132384062D01*
X126575736Y-132737616D01*
X125727208Y-133586144D01*
X125373654Y-133232590D01*
X125373654Y-133232590D01*
G37*
G36*
X131384062Y-127222182D02*
X132232590Y-126373654D01*
X132586144Y-126727208D01*
X131737616Y-127575736D01*
X131384062Y-127222182D01*
X131384062Y-127222182D01*
G37*
G36*
X130818376Y-126656497D02*
X131666904Y-125807969D01*
X132020458Y-126161523D01*
X131171930Y-127010051D01*
X130818376Y-126656497D01*
X130818376Y-126656497D01*
G37*
G36*
X130252691Y-126090811D02*
X131101219Y-125242283D01*
X131454773Y-125595837D01*
X130606245Y-126444365D01*
X130252691Y-126090811D01*
X130252691Y-126090811D01*
G37*
G36*
X129687006Y-125525126D02*
X130535534Y-124676598D01*
X130889088Y-125030152D01*
X130040560Y-125878680D01*
X129687006Y-125525126D01*
X129687006Y-125525126D01*
G37*
G36*
X129121320Y-124959440D02*
X129969848Y-124110912D01*
X130323402Y-124464466D01*
X129474874Y-125312994D01*
X129121320Y-124959440D01*
X129121320Y-124959440D01*
G37*
G36*
X128555635Y-124393755D02*
X129404163Y-123545227D01*
X129757717Y-123898781D01*
X128909189Y-124747309D01*
X128555635Y-124393755D01*
X128555635Y-124393755D01*
G37*
G36*
X127989949Y-123828070D02*
X128838477Y-122979542D01*
X129192031Y-123333096D01*
X128343503Y-124181624D01*
X127989949Y-123828070D01*
X127989949Y-123828070D01*
G37*
G36*
X127424264Y-123262384D02*
X128272792Y-122413856D01*
X128626346Y-122767410D01*
X127777818Y-123615938D01*
X127424264Y-123262384D01*
X127424264Y-123262384D01*
G37*
G36*
X127424264Y-132737616D02*
X127777818Y-132384062D01*
X128626346Y-133232590D01*
X128272792Y-133586144D01*
X127424264Y-132737616D01*
X127424264Y-132737616D01*
G37*
G36*
X127989949Y-132171930D02*
X128343503Y-131818376D01*
X129192031Y-132666904D01*
X128838477Y-133020458D01*
X127989949Y-132171930D01*
X127989949Y-132171930D01*
G37*
G36*
X128555635Y-131606245D02*
X128909189Y-131252691D01*
X129757717Y-132101219D01*
X129404163Y-132454773D01*
X128555635Y-131606245D01*
X128555635Y-131606245D01*
G37*
G36*
X129121320Y-131040560D02*
X129474874Y-130687006D01*
X130323402Y-131535534D01*
X129969848Y-131889088D01*
X129121320Y-131040560D01*
X129121320Y-131040560D01*
G37*
G36*
X129687006Y-130474874D02*
X130040560Y-130121320D01*
X130889088Y-130969848D01*
X130535534Y-131323402D01*
X129687006Y-130474874D01*
X129687006Y-130474874D01*
G37*
G36*
X130252691Y-129909189D02*
X130606245Y-129555635D01*
X131454773Y-130404163D01*
X131101219Y-130757717D01*
X130252691Y-129909189D01*
X130252691Y-129909189D01*
G37*
G36*
X130818376Y-129343503D02*
X131171930Y-128989949D01*
X132020458Y-129838477D01*
X131666904Y-130192031D01*
X130818376Y-129343503D01*
X130818376Y-129343503D01*
G37*
G36*
X131384062Y-128777818D02*
X131737616Y-128424264D01*
X132586144Y-129272792D01*
X132232590Y-129626346D01*
X131384062Y-128777818D01*
X131384062Y-128777818D01*
G37*
G36*
X125373654Y-122767410D02*
X125727208Y-122413856D01*
X126575736Y-123262384D01*
X126222182Y-123615938D01*
X125373654Y-122767410D01*
X125373654Y-122767410D01*
G37*
G36*
X124807969Y-123333096D02*
X125161523Y-122979542D01*
X126010051Y-123828070D01*
X125656497Y-124181624D01*
X124807969Y-123333096D01*
X124807969Y-123333096D01*
G37*
G36*
X124242283Y-123898781D02*
X124595837Y-123545227D01*
X125444365Y-124393755D01*
X125090811Y-124747309D01*
X124242283Y-123898781D01*
X124242283Y-123898781D01*
G37*
G36*
X123676598Y-124464466D02*
X124030152Y-124110912D01*
X124878680Y-124959440D01*
X124525126Y-125312994D01*
X123676598Y-124464466D01*
X123676598Y-124464466D01*
G37*
G36*
X123110912Y-125030152D02*
X123464466Y-124676598D01*
X124312994Y-125525126D01*
X123959440Y-125878680D01*
X123110912Y-125030152D01*
X123110912Y-125030152D01*
G37*
G36*
X122545227Y-125595837D02*
X122898781Y-125242283D01*
X123747309Y-126090811D01*
X123393755Y-126444365D01*
X122545227Y-125595837D01*
X122545227Y-125595837D01*
G37*
G36*
X121979542Y-126161523D02*
X122333096Y-125807969D01*
X123181624Y-126656497D01*
X122828070Y-127010051D01*
X121979542Y-126161523D01*
X121979542Y-126161523D01*
G37*
G36*
X121413856Y-126727208D02*
X121767410Y-126373654D01*
X122615938Y-127222182D01*
X122262384Y-127575736D01*
X121413856Y-126727208D01*
X121413856Y-126727208D01*
G37*
D33*
X119250000Y-119550000D03*
X119250000Y-120550000D03*
X119250000Y-121550000D03*
X121950000Y-119550000D03*
X121950000Y-120550000D03*
X121950000Y-121550000D03*
D34*
X120600000Y-120550000D03*
D35*
X121600000Y-115900000D03*
X119600000Y-115900000D03*
X121600000Y-117900000D03*
X119600000Y-117900000D03*
D36*
X137230000Y-128240000D03*
X138500000Y-128240000D03*
X137230000Y-129510000D03*
X138500000Y-129510000D03*
X137230000Y-130780000D03*
X138500000Y-130780000D03*
X137230000Y-132050000D03*
X138500000Y-132050000D03*
X137230000Y-133320000D03*
X138500000Y-133320000D03*
D37*
X121800000Y-138300000D03*
X119300000Y-138300000D03*
M02*
