M48
;DRILL file {KiCad 0.201509071501+6164~29~ubuntu14.04.1-product} date Thu 07 Jan 2016 12:58:08 GMT
;FORMAT={-:-/ absolute / inch / decimal}
FMAT,2
INCH,TZ
T1C0.024
T2C0.039
T3C0.130
%
G90
G05
M72
T1
X4.1142Y-4.4488
X4.1417Y-4.378
X4.1417Y-4.5197
X4.2126Y-4.3504
X4.2126Y-4.5472
X4.2835Y-4.378
X4.2835Y-4.5197
X4.311Y-4.4488
X4.9016Y-3.6654
X4.9016Y-5.2402
X4.9291Y-3.5945
X4.9291Y-3.7362
X4.9291Y-5.1693
X4.9291Y-5.311
X5.Y-3.5669
X5.Y-3.7638
X5.Y-5.1417
X5.Y-5.3386
X5.0709Y-3.5945
X5.0709Y-3.7362
X5.0709Y-5.1693
X5.0709Y-5.311
X5.0984Y-3.6654
X5.0984Y-5.2402
X5.689Y-4.4528
X5.7165Y-4.3819
X5.7165Y-4.5236
X5.7874Y-4.3543
X5.7874Y-4.5512
X5.8583Y-4.3819
X5.8583Y-4.5236
X5.8858Y-4.4528
T2
X4.767Y-5.1269
X4.8236Y-5.1835
X4.9367Y-5.0138
T3
X4.2126Y-4.4488
X5.Y-3.6654
X5.Y-5.2402
X5.7874Y-4.4528
T0
M30
