M48
;DRILL file {KiCad 4.0.1-3.201512150931+6195~38~ubuntu14.04.1-stable} date Sat 02 Jan 2016 04:25:23 GMT
;FORMAT={-:-/ absolute / inch / decimal}
FMAT,2
INCH,TZ
T1C0.012
T2C0.016
T3C0.020
T4C0.025
T5C0.026
T6C0.035
T7C0.039
T8C0.040
T9C0.059
T10C0.039
%
G90
G05
M72
T1
X4.3346Y-3.7835
X4.3504Y-4.2057
X4.374Y-3.7894
X4.3856Y-4.226
X4.4075Y-3.6693
X4.4154Y-4.0974
X4.4154Y-4.2057
X4.4311Y-4.4311
X4.4547Y-4.2874
X4.4587Y-3.8169
X4.4642Y-4.171
X4.4642Y-4.2064
X4.4685Y-3.9528
X4.5039Y-4.0354
X4.5039Y-4.0945
X4.5138Y-4.2874
X4.5229Y-4.2532
X4.5236Y-3.7224
X4.5236Y-3.8051
X4.537Y-4.1674
X4.5374Y-4.5059
X4.5374Y-4.5433
X4.5394Y-4.2028
X4.5571Y-3.7224
X4.5591Y-4.7717
X4.5807Y-3.689
X4.5846Y-4.7972
X4.5946Y-4.1411
X4.6339Y-4.1317
X4.6348Y-4.4687
X4.6516Y-3.7874
X4.6516Y-4.5669
X4.6535Y-4.5138
X4.6555Y-3.75
X4.6949Y-4.0846
X4.7343Y-4.0886
X4.7441Y-5.0689
X4.7795Y-5.0689
X4.8012Y-4.189
X4.811Y-3.6575
X4.8173Y-4.3862
X4.8366Y-4.5217
X4.8421Y-4.3233
X4.8423Y-4.3611
X4.8642Y-4.8366
X4.8774Y-4.326
X4.8893Y-4.8616
X4.9135Y-4.443
X4.9173Y-5.1358
X4.9232Y-3.8366
X4.9401Y-4.4164
X4.9429Y-4.1516
X4.9567Y-5.1063
X4.9651Y-4.3914
X4.9675Y-4.2539
X4.9942Y-4.3623
X4.9971Y-4.2294
X5.0768Y-5.3819
X5.1115Y-5.1809
X5.1794Y-5.1451
X5.2148Y-5.1467
X5.2421Y-5.2244
X5.3063Y-5.1606
X5.315Y-5.3248
X5.3915Y-5.264
T2
X4.6201Y-4.2717
X4.6713Y-4.2205
X4.6713Y-4.2717
X4.6713Y-4.3228
X4.7224Y-4.2717
T3
X4.8366Y-4.252
X4.8819Y-4.2087
T4
X4.6262Y-4.996
X4.6616Y-4.9606
X4.6616Y-5.0313
X4.6969Y-4.9253
X4.6969Y-4.996
X4.7323Y-4.8899
X4.7323Y-4.9606
X4.7676Y-4.8546
X4.7676Y-4.9253
X4.803Y-4.8899
T5
X4.4231Y-4.5986
X4.547Y-4.7225
T6
X4.2742Y-3.7289
X5.7218Y-5.1766
T7
X4.1439Y-4.1616
X4.2146Y-4.2323
T8
X5.3071Y-4.1535
X5.5669Y-5.3622
X5.6496Y-5.2835
T9
X4.2821Y-4.6347
X4.511Y-4.8635
T10
X4.7672Y-5.1291
X4.8238Y-5.1856
X4.9369Y-5.0159
T0
M30
