G04 #@! TF.FileFunction,Copper,L2,Bot,Signal*
%FSLAX46Y46*%
G04 Gerber Fmt 4.6, Leading zero omitted, Abs format (unit mm)*
G04 Created by KiCad (PCBNEW 4.0.1-3.201512221402+6198~38~ubuntu14.04.1-stable) date Tue 12 Jan 2016 14:15:59 GMT*
%MOMM*%
G01*
G04 APERTURE LIST*
%ADD10C,0.100000*%
%ADD11O,1.250000X1.000000*%
%ADD12O,1.900000X1.000000*%
%ADD13C,2.000000*%
%ADD14R,5.080000X2.413000*%
%ADD15R,2.000000X2.000000*%
%ADD16C,1.800000*%
%ADD17C,0.750000*%
%ADD18C,1.016000*%
%ADD19C,0.600000*%
%ADD20C,0.300000*%
%ADD21C,0.400000*%
%ADD22C,0.250000*%
%ADD23C,0.200000*%
G04 APERTURE END LIST*
D10*
D11*
X136150000Y-114175000D03*
X136150000Y-118625000D03*
D12*
X139150000Y-112225000D03*
X139150000Y-120575000D03*
D13*
X126500000Y-140500000D03*
X126500000Y-88500000D03*
D14*
X138500000Y-88118500D03*
X138500000Y-96881500D03*
D15*
X138000000Y-106000000D03*
D13*
X138000000Y-103460000D03*
D16*
X136750000Y-92500000D03*
X139100000Y-110350000D03*
X123600000Y-88500000D03*
D17*
X119650000Y-114250000D03*
X119650000Y-112650000D03*
D18*
X137230000Y-128240000D03*
X138500000Y-128240000D03*
X137230000Y-129510000D03*
X138500000Y-129510000D03*
X137230000Y-130780000D03*
X138500000Y-130780000D03*
X137230000Y-132050000D03*
X138500000Y-132050000D03*
X137230000Y-133320000D03*
X138500000Y-133320000D03*
D19*
X131450000Y-142000000D03*
X129850000Y-138250000D03*
X138650000Y-108000000D03*
X122550000Y-117050000D03*
X122750000Y-119800000D03*
X119600000Y-117000000D03*
X120600000Y-120550000D03*
X135250000Y-115000000D03*
X140300000Y-124550000D03*
X134450000Y-129250000D03*
X134200000Y-123200000D03*
X134200000Y-124600000D03*
X132500000Y-132400000D03*
X122700000Y-141400000D03*
X128200000Y-141500000D03*
X121500000Y-136800000D03*
X120800000Y-133600000D03*
X119000000Y-126400000D03*
X120500000Y-126400000D03*
X120500000Y-142400000D03*
X133900000Y-93850000D03*
X129000000Y-89550000D03*
X130450000Y-113450000D03*
X130350000Y-111950000D03*
X138050000Y-124500000D03*
X136950000Y-124500000D03*
X131550000Y-139850000D03*
X132650000Y-139850000D03*
X123000000Y-137175000D03*
X118625000Y-136625000D03*
X124350000Y-117700000D03*
X124050000Y-120050000D03*
X122050000Y-123000000D03*
X132300000Y-142050000D03*
X133550000Y-138850000D03*
X134600000Y-135600000D03*
X136300000Y-137650000D03*
X136450000Y-127300000D03*
X131125000Y-124200000D03*
X129650000Y-122800000D03*
X137125000Y-126575000D03*
X131700000Y-123550000D03*
X130275000Y-122200000D03*
X140150000Y-129500000D03*
X126600000Y-125325000D03*
X127975000Y-121950000D03*
X124600000Y-113350000D03*
X127600000Y-113400000D03*
X127400000Y-125975000D03*
X128725000Y-121425000D03*
X133875000Y-114375000D03*
X133875000Y-112275000D03*
D20*
X129850000Y-138250000D02*
X129850000Y-140400000D01*
X129850000Y-140400000D02*
X131450000Y-142000000D01*
D21*
X123000000Y-137175000D02*
X122625000Y-137550000D01*
X122625000Y-137550000D02*
X119550000Y-137550000D01*
X119550000Y-137550000D02*
X118625000Y-136625000D01*
D20*
X124350000Y-117700000D02*
X124350000Y-119750000D01*
X124350000Y-119750000D02*
X124050000Y-120050000D01*
X124050000Y-120050000D02*
X122050000Y-122050000D01*
X122050000Y-122050000D02*
X122050000Y-123000000D01*
X133550000Y-138850000D02*
X133550000Y-140800000D01*
X133550000Y-140800000D02*
X132300000Y-142050000D01*
D22*
X134600000Y-135600000D02*
X136220000Y-135600000D01*
X136220000Y-135600000D02*
X136300000Y-135520000D01*
X136300000Y-137650000D02*
X136300000Y-135520000D01*
X136300000Y-135520000D02*
X138500000Y-133320000D01*
X136450000Y-127300000D02*
X137560000Y-127300000D01*
X137560000Y-127300000D02*
X138500000Y-128240000D01*
X129650000Y-122800000D02*
X129725000Y-122800000D01*
X129725000Y-122800000D02*
X131125000Y-124200000D01*
X139400000Y-127950000D02*
X139400000Y-128610000D01*
X139400000Y-128610000D02*
X138500000Y-129510000D01*
X138025000Y-126575000D02*
X139400000Y-127950000D01*
X137125000Y-126575000D02*
X138025000Y-126575000D01*
X130275000Y-122200000D02*
X131625000Y-123550000D01*
X131625000Y-123550000D02*
X131700000Y-123550000D01*
X138500000Y-129510000D02*
X140140000Y-129510000D01*
X140140000Y-129510000D02*
X140150000Y-129500000D01*
X127975000Y-121975000D02*
X126600000Y-123350000D01*
X126600000Y-123350000D02*
X126600000Y-125325000D01*
X127975000Y-121950000D02*
X127975000Y-121975000D01*
X124600000Y-113350000D02*
X124650000Y-113400000D01*
X124650000Y-113400000D02*
X127600000Y-113400000D01*
X127175000Y-124975000D02*
X127400000Y-125200000D01*
X127400000Y-125200000D02*
X127400000Y-125975000D01*
X127175000Y-123650000D02*
X127175000Y-124975000D01*
X128725000Y-122100000D02*
X127175000Y-123650000D01*
X128725000Y-121425000D02*
X128725000Y-122100000D01*
X133875000Y-112275000D02*
X133875000Y-114375000D01*
D23*
G36*
X140246121Y-86405813D02*
X140454772Y-86545229D01*
X140499386Y-86612000D01*
X138725000Y-86612000D01*
X138650000Y-86687000D01*
X138650000Y-87968500D01*
X138670000Y-87968500D01*
X138670000Y-88268500D01*
X138650000Y-88268500D01*
X138650000Y-89550000D01*
X138725000Y-89625000D01*
X140650000Y-89625000D01*
X140650000Y-95375000D01*
X138725000Y-95375000D01*
X138650000Y-95450000D01*
X138650000Y-96731500D01*
X138670000Y-96731500D01*
X138670000Y-97031500D01*
X138650000Y-97031500D01*
X138650000Y-98313000D01*
X138725000Y-98388000D01*
X140650000Y-98388000D01*
X140650000Y-129151603D01*
X140490317Y-128991641D01*
X140269871Y-128900104D01*
X140031176Y-128899896D01*
X139810571Y-128991048D01*
X139716455Y-129085000D01*
X139526041Y-129085000D01*
X139700520Y-128910521D01*
X139792648Y-128772641D01*
X139792649Y-128772640D01*
X139825000Y-128610000D01*
X139825000Y-127950000D01*
X139792649Y-127787360D01*
X139792649Y-127787359D01*
X139700521Y-127649480D01*
X138325520Y-126274480D01*
X138187641Y-126182351D01*
X138160657Y-126176984D01*
X138025000Y-126150000D01*
X137548530Y-126150000D01*
X137465317Y-126066641D01*
X137244871Y-125975104D01*
X137006176Y-125974896D01*
X136785571Y-126066048D01*
X136616641Y-126234683D01*
X136525104Y-126455129D01*
X136524896Y-126693824D01*
X136527476Y-126700067D01*
X136331176Y-126699896D01*
X136110571Y-126791048D01*
X135941641Y-126959683D01*
X135850104Y-127180129D01*
X135849896Y-127418824D01*
X135941048Y-127639429D01*
X136109683Y-127808359D01*
X136330129Y-127899896D01*
X136496274Y-127900041D01*
X136422140Y-128078574D01*
X136421860Y-128400016D01*
X136544611Y-128697097D01*
X136714891Y-128867675D01*
X136694906Y-128932480D01*
X137230000Y-129467574D01*
X137765094Y-128932480D01*
X137745062Y-128867525D01*
X137865111Y-128747685D01*
X137992315Y-128875111D01*
X137872325Y-128994891D01*
X137807520Y-128974906D01*
X137272426Y-129510000D01*
X137807520Y-130045094D01*
X137872475Y-130025062D01*
X137992315Y-130145111D01*
X137872325Y-130264891D01*
X137807520Y-130244906D01*
X137272426Y-130780000D01*
X137807520Y-131315094D01*
X137872475Y-131295062D01*
X137992315Y-131415111D01*
X137864889Y-131542315D01*
X137745109Y-131422325D01*
X137765094Y-131357520D01*
X137230000Y-130822426D01*
X136694906Y-131357520D01*
X136714938Y-131422475D01*
X136545410Y-131591707D01*
X136422140Y-131888574D01*
X136421860Y-132210016D01*
X136544611Y-132507097D01*
X136714891Y-132677675D01*
X136694906Y-132742480D01*
X137230000Y-133277574D01*
X137765094Y-132742480D01*
X137745062Y-132677525D01*
X137865111Y-132557685D01*
X137992315Y-132685111D01*
X137872325Y-132804891D01*
X137807520Y-132784906D01*
X137272426Y-133320000D01*
X137286569Y-133334143D01*
X137244143Y-133376569D01*
X137230000Y-133362426D01*
X136694906Y-133897520D01*
X136740373Y-134044952D01*
X137045740Y-134173220D01*
X136043960Y-135175000D01*
X135023530Y-135175000D01*
X134940317Y-135091641D01*
X134719871Y-135000104D01*
X134481176Y-134999896D01*
X134260571Y-135091048D01*
X134091641Y-135259683D01*
X134000104Y-135480129D01*
X133999896Y-135718824D01*
X134091048Y-135939429D01*
X134259683Y-136108359D01*
X134480129Y-136199896D01*
X134718824Y-136200104D01*
X134939429Y-136108952D01*
X135023528Y-136025000D01*
X135875000Y-136025000D01*
X135875000Y-137226470D01*
X135791641Y-137309683D01*
X135700104Y-137530129D01*
X135699896Y-137768824D01*
X135791048Y-137989429D01*
X135959683Y-138158359D01*
X136180129Y-138249896D01*
X136418824Y-138250104D01*
X136639429Y-138158952D01*
X136808359Y-137990317D01*
X136899896Y-137769871D01*
X136900104Y-137531176D01*
X136808952Y-137310571D01*
X136725000Y-137226472D01*
X136725000Y-135696040D01*
X137302080Y-135118960D01*
X137235139Y-135280172D01*
X137234861Y-135598432D01*
X137356397Y-135892572D01*
X137581245Y-136117812D01*
X137875172Y-136239861D01*
X138193432Y-136240139D01*
X138487572Y-136118603D01*
X138712812Y-135893755D01*
X138834861Y-135599828D01*
X138835139Y-135281568D01*
X138713603Y-134987428D01*
X138488755Y-134762188D01*
X138194828Y-134640139D01*
X137876568Y-134639861D01*
X137714013Y-134707027D01*
X138306499Y-134114541D01*
X138338574Y-134127860D01*
X138660016Y-134128140D01*
X138957097Y-134005389D01*
X139184590Y-133778293D01*
X139307860Y-133481426D01*
X139308140Y-133159984D01*
X139185389Y-132862903D01*
X139007685Y-132684889D01*
X139184590Y-132508293D01*
X139307860Y-132211426D01*
X139308140Y-131889984D01*
X139185389Y-131592903D01*
X139007685Y-131414889D01*
X139184590Y-131238293D01*
X139307860Y-130941426D01*
X139308140Y-130619984D01*
X139185389Y-130322903D01*
X139007685Y-130144889D01*
X139184590Y-129968293D01*
X139198414Y-129935000D01*
X139736452Y-129935000D01*
X139809683Y-130008359D01*
X140030129Y-130099896D01*
X140268824Y-130100104D01*
X140489429Y-130008952D01*
X140650000Y-129848661D01*
X140650000Y-141965528D01*
X140594187Y-142246120D01*
X140454772Y-142454771D01*
X140246121Y-142594187D01*
X139965528Y-142650000D01*
X132419076Y-142650000D01*
X132639429Y-142558952D01*
X132808359Y-142390317D01*
X132899896Y-142169871D01*
X132899969Y-142086427D01*
X133868198Y-141118198D01*
X133964712Y-140973755D01*
X133965746Y-140972208D01*
X134000000Y-140800000D01*
X134000000Y-140678432D01*
X136218861Y-140678432D01*
X136340397Y-140972572D01*
X136565245Y-141197812D01*
X136859172Y-141319861D01*
X137177432Y-141320139D01*
X137471572Y-141198603D01*
X137696812Y-140973755D01*
X137818861Y-140679828D01*
X137818862Y-140678432D01*
X138250861Y-140678432D01*
X138372397Y-140972572D01*
X138597245Y-141197812D01*
X138891172Y-141319861D01*
X139209432Y-141320139D01*
X139503572Y-141198603D01*
X139728812Y-140973755D01*
X139850861Y-140679828D01*
X139851139Y-140361568D01*
X139729603Y-140067428D01*
X139504755Y-139842188D01*
X139210828Y-139720139D01*
X138892568Y-139719861D01*
X138598428Y-139841397D01*
X138373188Y-140066245D01*
X138251139Y-140360172D01*
X138250861Y-140678432D01*
X137818862Y-140678432D01*
X137819139Y-140361568D01*
X137697603Y-140067428D01*
X137472755Y-139842188D01*
X137178828Y-139720139D01*
X136860568Y-139719861D01*
X136566428Y-139841397D01*
X136341188Y-140066245D01*
X136219139Y-140360172D01*
X136218861Y-140678432D01*
X134000000Y-140678432D01*
X134000000Y-139248574D01*
X134058359Y-139190317D01*
X134149896Y-138969871D01*
X134150104Y-138731176D01*
X134058952Y-138510571D01*
X133890317Y-138341641D01*
X133669871Y-138250104D01*
X133431176Y-138249896D01*
X133210571Y-138341048D01*
X133041641Y-138509683D01*
X132950104Y-138730129D01*
X132949896Y-138968824D01*
X133041048Y-139189429D01*
X133100000Y-139248484D01*
X133100000Y-140613604D01*
X132263636Y-141449968D01*
X132181176Y-141449896D01*
X131960571Y-141541048D01*
X131899999Y-141601515D01*
X131790317Y-141491641D01*
X131569871Y-141400104D01*
X131486427Y-141400031D01*
X130300000Y-140213604D01*
X130300000Y-138648574D01*
X130358359Y-138590317D01*
X130449896Y-138369871D01*
X130450104Y-138131176D01*
X130358952Y-137910571D01*
X130190317Y-137741641D01*
X129969871Y-137650104D01*
X129731176Y-137649896D01*
X129510571Y-137741048D01*
X129341641Y-137909683D01*
X129250104Y-138130129D01*
X129249896Y-138368824D01*
X129341048Y-138589429D01*
X129400000Y-138648484D01*
X129400000Y-140400000D01*
X129434254Y-140572208D01*
X129471395Y-140627793D01*
X129531802Y-140718198D01*
X130849968Y-142036364D01*
X130849896Y-142118824D01*
X130941048Y-142339429D01*
X131109683Y-142508359D01*
X131330129Y-142599896D01*
X131568824Y-142600104D01*
X131789429Y-142508952D01*
X131850001Y-142448485D01*
X131959683Y-142558359D01*
X132180129Y-142649896D01*
X132299476Y-142650000D01*
X119034472Y-142650000D01*
X118753880Y-142594187D01*
X118545229Y-142454772D01*
X118405813Y-142246121D01*
X118350000Y-141965528D01*
X118350000Y-140757452D01*
X125199774Y-140757452D01*
X125397271Y-141235429D01*
X125762647Y-141601444D01*
X126240279Y-141799774D01*
X126757452Y-141800226D01*
X127235429Y-141602729D01*
X127601444Y-141237353D01*
X127799774Y-140759721D01*
X127800226Y-140242548D01*
X127602729Y-139764571D01*
X127237353Y-139398556D01*
X126759721Y-139200226D01*
X126242548Y-139199774D01*
X125764571Y-139397271D01*
X125398556Y-139762647D01*
X125200226Y-140240279D01*
X125199774Y-140757452D01*
X118350000Y-140757452D01*
X118350000Y-137160481D01*
X118505129Y-137224896D01*
X118517801Y-137224907D01*
X119196447Y-137903554D01*
X119266737Y-137950520D01*
X119358658Y-138011940D01*
X119550000Y-138050000D01*
X122625000Y-138050000D01*
X122816342Y-138011940D01*
X122978553Y-137903553D01*
X123107012Y-137775094D01*
X123118824Y-137775104D01*
X123339429Y-137683952D01*
X123508359Y-137515317D01*
X123599896Y-137294871D01*
X123600104Y-137056176D01*
X123508952Y-136835571D01*
X123340317Y-136666641D01*
X123119871Y-136575104D01*
X122881176Y-136574896D01*
X122660571Y-136666048D01*
X122491641Y-136834683D01*
X122402234Y-137050000D01*
X119757107Y-137050000D01*
X119225094Y-136517987D01*
X119225104Y-136506176D01*
X119133952Y-136285571D01*
X118965317Y-136116641D01*
X118744871Y-136025104D01*
X118506176Y-136024896D01*
X118350000Y-136089427D01*
X118350000Y-133486400D01*
X136371163Y-133486400D01*
X136500217Y-133802396D01*
X136505048Y-133809627D01*
X136652480Y-133855094D01*
X137187574Y-133320000D01*
X136652480Y-132784906D01*
X136505048Y-132830373D01*
X136372860Y-133145071D01*
X136371163Y-133486400D01*
X118350000Y-133486400D01*
X118350000Y-130946400D01*
X136371163Y-130946400D01*
X136500217Y-131262396D01*
X136505048Y-131269627D01*
X136652480Y-131315094D01*
X137187574Y-130780000D01*
X136652480Y-130244906D01*
X136505048Y-130290373D01*
X136372860Y-130605071D01*
X136371163Y-130946400D01*
X118350000Y-130946400D01*
X118350000Y-130087520D01*
X136694906Y-130087520D01*
X136712632Y-130145000D01*
X136694906Y-130202480D01*
X137230000Y-130737574D01*
X137765094Y-130202480D01*
X137747368Y-130145000D01*
X137765094Y-130087520D01*
X137230000Y-129552426D01*
X136694906Y-130087520D01*
X118350000Y-130087520D01*
X118350000Y-129676400D01*
X136371163Y-129676400D01*
X136500217Y-129992396D01*
X136505048Y-129999627D01*
X136652480Y-130045094D01*
X137187574Y-129510000D01*
X136652480Y-128974906D01*
X136505048Y-129020373D01*
X136372860Y-129335071D01*
X136371163Y-129676400D01*
X118350000Y-129676400D01*
X118350000Y-125443824D01*
X125999896Y-125443824D01*
X126091048Y-125664429D01*
X126259683Y-125833359D01*
X126480129Y-125924896D01*
X126718824Y-125925104D01*
X126800072Y-125891533D01*
X126799896Y-126093824D01*
X126891048Y-126314429D01*
X127059683Y-126483359D01*
X127280129Y-126574896D01*
X127518824Y-126575104D01*
X127739429Y-126483952D01*
X127908359Y-126315317D01*
X127999896Y-126094871D01*
X128000104Y-125856176D01*
X127908952Y-125635571D01*
X127825000Y-125551472D01*
X127825000Y-125200000D01*
X127792649Y-125037360D01*
X127792649Y-125037359D01*
X127700520Y-124899480D01*
X127600000Y-124798960D01*
X127600000Y-123826040D01*
X128507216Y-122918824D01*
X129049896Y-122918824D01*
X129141048Y-123139429D01*
X129309683Y-123308359D01*
X129530129Y-123399896D01*
X129724025Y-123400065D01*
X130524999Y-124201039D01*
X130524896Y-124318824D01*
X130616048Y-124539429D01*
X130784683Y-124708359D01*
X131005129Y-124799896D01*
X131243824Y-124800104D01*
X131464429Y-124708952D01*
X131633359Y-124540317D01*
X131724896Y-124319871D01*
X131725044Y-124150022D01*
X131818824Y-124150104D01*
X132039429Y-124058952D01*
X132208359Y-123890317D01*
X132299896Y-123669871D01*
X132300104Y-123431176D01*
X132208952Y-123210571D01*
X132040317Y-123041641D01*
X131819871Y-122950104D01*
X131625976Y-122949935D01*
X130875001Y-122198961D01*
X130875104Y-122081176D01*
X130783952Y-121860571D01*
X130615317Y-121691641D01*
X130394871Y-121600104D01*
X130156176Y-121599896D01*
X129935571Y-121691048D01*
X129766641Y-121859683D01*
X129675104Y-122080129D01*
X129675000Y-122200021D01*
X129531176Y-122199896D01*
X129310571Y-122291048D01*
X129141641Y-122459683D01*
X129050104Y-122680129D01*
X129049896Y-122918824D01*
X128507216Y-122918824D01*
X129025520Y-122400520D01*
X129117649Y-122262641D01*
X129123016Y-122235657D01*
X129150000Y-122100000D01*
X129150000Y-121848530D01*
X129233359Y-121765317D01*
X129324896Y-121544871D01*
X129325104Y-121306176D01*
X129233952Y-121085571D01*
X129065317Y-120916641D01*
X128844871Y-120825104D01*
X128606176Y-120824896D01*
X128385571Y-120916048D01*
X128216641Y-121084683D01*
X128125104Y-121305129D01*
X128125054Y-121362637D01*
X128094871Y-121350104D01*
X127856176Y-121349896D01*
X127635571Y-121441048D01*
X127466641Y-121609683D01*
X127375104Y-121830129D01*
X127374979Y-121973981D01*
X126299480Y-123049480D01*
X126207351Y-123187359D01*
X126207351Y-123187360D01*
X126175000Y-123350000D01*
X126175000Y-124901470D01*
X126091641Y-124984683D01*
X126000104Y-125205129D01*
X125999896Y-125443824D01*
X118350000Y-125443824D01*
X118350000Y-123118824D01*
X121449896Y-123118824D01*
X121541048Y-123339429D01*
X121709683Y-123508359D01*
X121930129Y-123599896D01*
X122168824Y-123600104D01*
X122389429Y-123508952D01*
X122558359Y-123340317D01*
X122649896Y-123119871D01*
X122650104Y-122881176D01*
X122558952Y-122660571D01*
X122500000Y-122601516D01*
X122500000Y-122236396D01*
X124086364Y-120650032D01*
X124168824Y-120650104D01*
X124350589Y-120575000D01*
X137875511Y-120575000D01*
X137936407Y-120881147D01*
X138109826Y-121140685D01*
X138369364Y-121314104D01*
X138675511Y-121375000D01*
X139624489Y-121375000D01*
X139930636Y-121314104D01*
X140190174Y-121140685D01*
X140363593Y-120881147D01*
X140424489Y-120575000D01*
X140363593Y-120268853D01*
X140190174Y-120009315D01*
X139930636Y-119835896D01*
X139624489Y-119775000D01*
X138675511Y-119775000D01*
X138369364Y-119835896D01*
X138109826Y-120009315D01*
X137936407Y-120268853D01*
X137875511Y-120575000D01*
X124350589Y-120575000D01*
X124389429Y-120558952D01*
X124558359Y-120390317D01*
X124649896Y-120169871D01*
X124649969Y-120086427D01*
X124668198Y-120068198D01*
X124680358Y-120050000D01*
X124765746Y-119922208D01*
X124800000Y-119750000D01*
X124800000Y-118625000D01*
X135206878Y-118625000D01*
X135267774Y-118931147D01*
X135441193Y-119190685D01*
X135700731Y-119364104D01*
X136006878Y-119425000D01*
X136293122Y-119425000D01*
X136599269Y-119364104D01*
X136858807Y-119190685D01*
X137032226Y-118931147D01*
X137093122Y-118625000D01*
X137032226Y-118318853D01*
X136858807Y-118059315D01*
X136599269Y-117885896D01*
X136293122Y-117825000D01*
X136006878Y-117825000D01*
X135700731Y-117885896D01*
X135441193Y-118059315D01*
X135267774Y-118318853D01*
X135206878Y-118625000D01*
X124800000Y-118625000D01*
X124800000Y-118098574D01*
X124858359Y-118040317D01*
X124949896Y-117819871D01*
X124950104Y-117581176D01*
X124858952Y-117360571D01*
X124690317Y-117191641D01*
X124469871Y-117100104D01*
X124231176Y-117099896D01*
X124010571Y-117191048D01*
X123841641Y-117359683D01*
X123750104Y-117580129D01*
X123749896Y-117818824D01*
X123841048Y-118039429D01*
X123900000Y-118098484D01*
X123900000Y-119462778D01*
X123710571Y-119541048D01*
X123541641Y-119709683D01*
X123450104Y-119930129D01*
X123450031Y-120013573D01*
X121731802Y-121731802D01*
X121634254Y-121877792D01*
X121600000Y-122050000D01*
X121600000Y-122601426D01*
X121541641Y-122659683D01*
X121450104Y-122880129D01*
X121449896Y-123118824D01*
X118350000Y-123118824D01*
X118350000Y-114383677D01*
X118974883Y-114383677D01*
X119077429Y-114631857D01*
X119267144Y-114821903D01*
X119515145Y-114924883D01*
X119783677Y-114925117D01*
X120031857Y-114822571D01*
X120221903Y-114632856D01*
X120324883Y-114384855D01*
X120325117Y-114116323D01*
X120222571Y-113868143D01*
X120032856Y-113678097D01*
X119784855Y-113575117D01*
X119516323Y-113574883D01*
X119268143Y-113677429D01*
X119078097Y-113867144D01*
X118975117Y-114115145D01*
X118974883Y-114383677D01*
X118350000Y-114383677D01*
X118350000Y-113468824D01*
X123999896Y-113468824D01*
X124091048Y-113689429D01*
X124259683Y-113858359D01*
X124480129Y-113949896D01*
X124718824Y-113950104D01*
X124939429Y-113858952D01*
X124973440Y-113825000D01*
X127176470Y-113825000D01*
X127259683Y-113908359D01*
X127480129Y-113999896D01*
X127718824Y-114000104D01*
X127939429Y-113908952D01*
X128108359Y-113740317D01*
X128199896Y-113519871D01*
X128200104Y-113281176D01*
X128108952Y-113060571D01*
X127940317Y-112891641D01*
X127719871Y-112800104D01*
X127481176Y-112799896D01*
X127260571Y-112891048D01*
X127176472Y-112975000D01*
X125073443Y-112975000D01*
X124940317Y-112841641D01*
X124719871Y-112750104D01*
X124481176Y-112749896D01*
X124260571Y-112841048D01*
X124091641Y-113009683D01*
X124000104Y-113230129D01*
X123999896Y-113468824D01*
X118350000Y-113468824D01*
X118350000Y-112783677D01*
X118974883Y-112783677D01*
X119077429Y-113031857D01*
X119267144Y-113221903D01*
X119515145Y-113324883D01*
X119783677Y-113325117D01*
X120031857Y-113222571D01*
X120221903Y-113032856D01*
X120324883Y-112784855D01*
X120325117Y-112516323D01*
X120274502Y-112393824D01*
X133274896Y-112393824D01*
X133366048Y-112614429D01*
X133450000Y-112698528D01*
X133450000Y-113951470D01*
X133366641Y-114034683D01*
X133275104Y-114255129D01*
X133274896Y-114493824D01*
X133366048Y-114714429D01*
X133534683Y-114883359D01*
X133755129Y-114974896D01*
X133993824Y-114975104D01*
X134214429Y-114883952D01*
X134383359Y-114715317D01*
X134474896Y-114494871D01*
X134475104Y-114256176D01*
X134441563Y-114175000D01*
X135206878Y-114175000D01*
X135267774Y-114481147D01*
X135441193Y-114740685D01*
X135700731Y-114914104D01*
X136006878Y-114975000D01*
X136293122Y-114975000D01*
X136599269Y-114914104D01*
X136858807Y-114740685D01*
X137032226Y-114481147D01*
X137093122Y-114175000D01*
X137032226Y-113868853D01*
X136858807Y-113609315D01*
X136599269Y-113435896D01*
X136293122Y-113375000D01*
X136006878Y-113375000D01*
X135700731Y-113435896D01*
X135441193Y-113609315D01*
X135267774Y-113868853D01*
X135206878Y-114175000D01*
X134441563Y-114175000D01*
X134383952Y-114035571D01*
X134300000Y-113951472D01*
X134300000Y-112698530D01*
X134383359Y-112615317D01*
X134474896Y-112394871D01*
X134475044Y-112225000D01*
X137875511Y-112225000D01*
X137936407Y-112531147D01*
X138109826Y-112790685D01*
X138369364Y-112964104D01*
X138675511Y-113025000D01*
X139624489Y-113025000D01*
X139930636Y-112964104D01*
X140190174Y-112790685D01*
X140363593Y-112531147D01*
X140424489Y-112225000D01*
X140363593Y-111918853D01*
X140190174Y-111659315D01*
X139930636Y-111485896D01*
X139635413Y-111427173D01*
X139778857Y-111367903D01*
X140116717Y-111030633D01*
X140299791Y-110589742D01*
X140300207Y-110112353D01*
X140117903Y-109671143D01*
X139780633Y-109333283D01*
X139339742Y-109150209D01*
X138862353Y-109149793D01*
X138421143Y-109332097D01*
X138083283Y-109669367D01*
X137900209Y-110110258D01*
X137899793Y-110587647D01*
X138082097Y-111028857D01*
X138419367Y-111366717D01*
X138597228Y-111440571D01*
X138369364Y-111485896D01*
X138109826Y-111659315D01*
X137936407Y-111918853D01*
X137875511Y-112225000D01*
X134475044Y-112225000D01*
X134475104Y-112156176D01*
X134383952Y-111935571D01*
X134215317Y-111766641D01*
X133994871Y-111675104D01*
X133756176Y-111674896D01*
X133535571Y-111766048D01*
X133366641Y-111934683D01*
X133275104Y-112155129D01*
X133274896Y-112393824D01*
X120274502Y-112393824D01*
X120222571Y-112268143D01*
X120032856Y-112078097D01*
X119784855Y-111975117D01*
X119516323Y-111974883D01*
X119268143Y-112077429D01*
X119078097Y-112267144D01*
X118975117Y-112515145D01*
X118974883Y-112783677D01*
X118350000Y-112783677D01*
X118350000Y-105000000D01*
X136694123Y-105000000D01*
X136694123Y-107000000D01*
X136715042Y-107111173D01*
X136780745Y-107213279D01*
X136880997Y-107281778D01*
X137000000Y-107305877D01*
X139000000Y-107305877D01*
X139111173Y-107284958D01*
X139213279Y-107219255D01*
X139281778Y-107119003D01*
X139305877Y-107000000D01*
X139305877Y-105000000D01*
X139284958Y-104888827D01*
X139219255Y-104786721D01*
X139119003Y-104718222D01*
X139000000Y-104694123D01*
X138417433Y-104694123D01*
X138735429Y-104562729D01*
X139101444Y-104197353D01*
X139299774Y-103719721D01*
X139300226Y-103202548D01*
X139102729Y-102724571D01*
X138737353Y-102358556D01*
X138259721Y-102160226D01*
X137742548Y-102159774D01*
X137264571Y-102357271D01*
X136898556Y-102722647D01*
X136700226Y-103200279D01*
X136699774Y-103717452D01*
X136897271Y-104195429D01*
X137262647Y-104561444D01*
X137582174Y-104694123D01*
X137000000Y-104694123D01*
X136888827Y-104715042D01*
X136786721Y-104780745D01*
X136718222Y-104880997D01*
X136694123Y-105000000D01*
X118350000Y-105000000D01*
X118350000Y-97106500D01*
X135660000Y-97106500D01*
X135660000Y-98147674D01*
X135705672Y-98257937D01*
X135790064Y-98342328D01*
X135900327Y-98388000D01*
X138275000Y-98388000D01*
X138350000Y-98313000D01*
X138350000Y-97031500D01*
X135735000Y-97031500D01*
X135660000Y-97106500D01*
X118350000Y-97106500D01*
X118350000Y-95615326D01*
X135660000Y-95615326D01*
X135660000Y-96656500D01*
X135735000Y-96731500D01*
X138350000Y-96731500D01*
X138350000Y-95450000D01*
X138275000Y-95375000D01*
X135900327Y-95375000D01*
X135790064Y-95420672D01*
X135705672Y-95505063D01*
X135660000Y-95615326D01*
X118350000Y-95615326D01*
X118350000Y-92737647D01*
X135549793Y-92737647D01*
X135732097Y-93178857D01*
X136069367Y-93516717D01*
X136510258Y-93699791D01*
X136987647Y-93700207D01*
X137428857Y-93517903D01*
X137766717Y-93180633D01*
X137949791Y-92739742D01*
X137950207Y-92262353D01*
X137767903Y-91821143D01*
X137430633Y-91483283D01*
X136989742Y-91300209D01*
X136512353Y-91299793D01*
X136071143Y-91482097D01*
X135733283Y-91819367D01*
X135550209Y-92260258D01*
X135549793Y-92737647D01*
X118350000Y-92737647D01*
X118350000Y-89360273D01*
X122782153Y-89360273D01*
X122875352Y-89548431D01*
X123331729Y-89745935D01*
X123828949Y-89753756D01*
X124291314Y-89570705D01*
X124324648Y-89548431D01*
X124382125Y-89432390D01*
X125610036Y-89432390D01*
X125715406Y-89630939D01*
X126207921Y-89845102D01*
X126744903Y-89854486D01*
X127244600Y-89657662D01*
X127284594Y-89630939D01*
X127389964Y-89432390D01*
X126500000Y-88542426D01*
X125610036Y-89432390D01*
X124382125Y-89432390D01*
X124417847Y-89360273D01*
X123600000Y-88542426D01*
X122782153Y-89360273D01*
X118350000Y-89360273D01*
X118350000Y-88728949D01*
X122346244Y-88728949D01*
X122529295Y-89191314D01*
X122551569Y-89224648D01*
X122739727Y-89317847D01*
X123557574Y-88500000D01*
X123642426Y-88500000D01*
X124460273Y-89317847D01*
X124648431Y-89224648D01*
X124845935Y-88768271D01*
X124846302Y-88744903D01*
X125145514Y-88744903D01*
X125342338Y-89244600D01*
X125369061Y-89284594D01*
X125567610Y-89389964D01*
X126457574Y-88500000D01*
X126542426Y-88500000D01*
X127432390Y-89389964D01*
X127630939Y-89284594D01*
X127845102Y-88792079D01*
X127852941Y-88343500D01*
X135660000Y-88343500D01*
X135660000Y-89384674D01*
X135705672Y-89494937D01*
X135790064Y-89579328D01*
X135900327Y-89625000D01*
X138275000Y-89625000D01*
X138350000Y-89550000D01*
X138350000Y-88268500D01*
X135735000Y-88268500D01*
X135660000Y-88343500D01*
X127852941Y-88343500D01*
X127854486Y-88255097D01*
X127657662Y-87755400D01*
X127630939Y-87715406D01*
X127432390Y-87610036D01*
X126542426Y-88500000D01*
X126457574Y-88500000D01*
X125567610Y-87610036D01*
X125369061Y-87715406D01*
X125154898Y-88207921D01*
X125145514Y-88744903D01*
X124846302Y-88744903D01*
X124853756Y-88271051D01*
X124670705Y-87808686D01*
X124648431Y-87775352D01*
X124460273Y-87682153D01*
X123642426Y-88500000D01*
X123557574Y-88500000D01*
X122739727Y-87682153D01*
X122551569Y-87775352D01*
X122354065Y-88231729D01*
X122346244Y-88728949D01*
X118350000Y-88728949D01*
X118350000Y-87639727D01*
X122782153Y-87639727D01*
X123600000Y-88457574D01*
X124417847Y-87639727D01*
X124382126Y-87567610D01*
X125610036Y-87567610D01*
X126500000Y-88457574D01*
X127389964Y-87567610D01*
X127284594Y-87369061D01*
X126792079Y-87154898D01*
X126255097Y-87145514D01*
X125755400Y-87342338D01*
X125715406Y-87369061D01*
X125610036Y-87567610D01*
X124382126Y-87567610D01*
X124324648Y-87451569D01*
X123868271Y-87254065D01*
X123371051Y-87246244D01*
X122908686Y-87429295D01*
X122875352Y-87451569D01*
X122782153Y-87639727D01*
X118350000Y-87639727D01*
X118350000Y-87034472D01*
X118386230Y-86852326D01*
X135660000Y-86852326D01*
X135660000Y-87893500D01*
X135735000Y-87968500D01*
X138350000Y-87968500D01*
X138350000Y-86687000D01*
X138275000Y-86612000D01*
X135900327Y-86612000D01*
X135790064Y-86657672D01*
X135705672Y-86742063D01*
X135660000Y-86852326D01*
X118386230Y-86852326D01*
X118405813Y-86753879D01*
X118545229Y-86545228D01*
X118753880Y-86405813D01*
X119034472Y-86350000D01*
X139965528Y-86350000D01*
X140246121Y-86405813D01*
X140246121Y-86405813D01*
G37*
X140246121Y-86405813D02*
X140454772Y-86545229D01*
X140499386Y-86612000D01*
X138725000Y-86612000D01*
X138650000Y-86687000D01*
X138650000Y-87968500D01*
X138670000Y-87968500D01*
X138670000Y-88268500D01*
X138650000Y-88268500D01*
X138650000Y-89550000D01*
X138725000Y-89625000D01*
X140650000Y-89625000D01*
X140650000Y-95375000D01*
X138725000Y-95375000D01*
X138650000Y-95450000D01*
X138650000Y-96731500D01*
X138670000Y-96731500D01*
X138670000Y-97031500D01*
X138650000Y-97031500D01*
X138650000Y-98313000D01*
X138725000Y-98388000D01*
X140650000Y-98388000D01*
X140650000Y-129151603D01*
X140490317Y-128991641D01*
X140269871Y-128900104D01*
X140031176Y-128899896D01*
X139810571Y-128991048D01*
X139716455Y-129085000D01*
X139526041Y-129085000D01*
X139700520Y-128910521D01*
X139792648Y-128772641D01*
X139792649Y-128772640D01*
X139825000Y-128610000D01*
X139825000Y-127950000D01*
X139792649Y-127787360D01*
X139792649Y-127787359D01*
X139700521Y-127649480D01*
X138325520Y-126274480D01*
X138187641Y-126182351D01*
X138160657Y-126176984D01*
X138025000Y-126150000D01*
X137548530Y-126150000D01*
X137465317Y-126066641D01*
X137244871Y-125975104D01*
X137006176Y-125974896D01*
X136785571Y-126066048D01*
X136616641Y-126234683D01*
X136525104Y-126455129D01*
X136524896Y-126693824D01*
X136527476Y-126700067D01*
X136331176Y-126699896D01*
X136110571Y-126791048D01*
X135941641Y-126959683D01*
X135850104Y-127180129D01*
X135849896Y-127418824D01*
X135941048Y-127639429D01*
X136109683Y-127808359D01*
X136330129Y-127899896D01*
X136496274Y-127900041D01*
X136422140Y-128078574D01*
X136421860Y-128400016D01*
X136544611Y-128697097D01*
X136714891Y-128867675D01*
X136694906Y-128932480D01*
X137230000Y-129467574D01*
X137765094Y-128932480D01*
X137745062Y-128867525D01*
X137865111Y-128747685D01*
X137992315Y-128875111D01*
X137872325Y-128994891D01*
X137807520Y-128974906D01*
X137272426Y-129510000D01*
X137807520Y-130045094D01*
X137872475Y-130025062D01*
X137992315Y-130145111D01*
X137872325Y-130264891D01*
X137807520Y-130244906D01*
X137272426Y-130780000D01*
X137807520Y-131315094D01*
X137872475Y-131295062D01*
X137992315Y-131415111D01*
X137864889Y-131542315D01*
X137745109Y-131422325D01*
X137765094Y-131357520D01*
X137230000Y-130822426D01*
X136694906Y-131357520D01*
X136714938Y-131422475D01*
X136545410Y-131591707D01*
X136422140Y-131888574D01*
X136421860Y-132210016D01*
X136544611Y-132507097D01*
X136714891Y-132677675D01*
X136694906Y-132742480D01*
X137230000Y-133277574D01*
X137765094Y-132742480D01*
X137745062Y-132677525D01*
X137865111Y-132557685D01*
X137992315Y-132685111D01*
X137872325Y-132804891D01*
X137807520Y-132784906D01*
X137272426Y-133320000D01*
X137286569Y-133334143D01*
X137244143Y-133376569D01*
X137230000Y-133362426D01*
X136694906Y-133897520D01*
X136740373Y-134044952D01*
X137045740Y-134173220D01*
X136043960Y-135175000D01*
X135023530Y-135175000D01*
X134940317Y-135091641D01*
X134719871Y-135000104D01*
X134481176Y-134999896D01*
X134260571Y-135091048D01*
X134091641Y-135259683D01*
X134000104Y-135480129D01*
X133999896Y-135718824D01*
X134091048Y-135939429D01*
X134259683Y-136108359D01*
X134480129Y-136199896D01*
X134718824Y-136200104D01*
X134939429Y-136108952D01*
X135023528Y-136025000D01*
X135875000Y-136025000D01*
X135875000Y-137226470D01*
X135791641Y-137309683D01*
X135700104Y-137530129D01*
X135699896Y-137768824D01*
X135791048Y-137989429D01*
X135959683Y-138158359D01*
X136180129Y-138249896D01*
X136418824Y-138250104D01*
X136639429Y-138158952D01*
X136808359Y-137990317D01*
X136899896Y-137769871D01*
X136900104Y-137531176D01*
X136808952Y-137310571D01*
X136725000Y-137226472D01*
X136725000Y-135696040D01*
X137302080Y-135118960D01*
X137235139Y-135280172D01*
X137234861Y-135598432D01*
X137356397Y-135892572D01*
X137581245Y-136117812D01*
X137875172Y-136239861D01*
X138193432Y-136240139D01*
X138487572Y-136118603D01*
X138712812Y-135893755D01*
X138834861Y-135599828D01*
X138835139Y-135281568D01*
X138713603Y-134987428D01*
X138488755Y-134762188D01*
X138194828Y-134640139D01*
X137876568Y-134639861D01*
X137714013Y-134707027D01*
X138306499Y-134114541D01*
X138338574Y-134127860D01*
X138660016Y-134128140D01*
X138957097Y-134005389D01*
X139184590Y-133778293D01*
X139307860Y-133481426D01*
X139308140Y-133159984D01*
X139185389Y-132862903D01*
X139007685Y-132684889D01*
X139184590Y-132508293D01*
X139307860Y-132211426D01*
X139308140Y-131889984D01*
X139185389Y-131592903D01*
X139007685Y-131414889D01*
X139184590Y-131238293D01*
X139307860Y-130941426D01*
X139308140Y-130619984D01*
X139185389Y-130322903D01*
X139007685Y-130144889D01*
X139184590Y-129968293D01*
X139198414Y-129935000D01*
X139736452Y-129935000D01*
X139809683Y-130008359D01*
X140030129Y-130099896D01*
X140268824Y-130100104D01*
X140489429Y-130008952D01*
X140650000Y-129848661D01*
X140650000Y-141965528D01*
X140594187Y-142246120D01*
X140454772Y-142454771D01*
X140246121Y-142594187D01*
X139965528Y-142650000D01*
X132419076Y-142650000D01*
X132639429Y-142558952D01*
X132808359Y-142390317D01*
X132899896Y-142169871D01*
X132899969Y-142086427D01*
X133868198Y-141118198D01*
X133964712Y-140973755D01*
X133965746Y-140972208D01*
X134000000Y-140800000D01*
X134000000Y-140678432D01*
X136218861Y-140678432D01*
X136340397Y-140972572D01*
X136565245Y-141197812D01*
X136859172Y-141319861D01*
X137177432Y-141320139D01*
X137471572Y-141198603D01*
X137696812Y-140973755D01*
X137818861Y-140679828D01*
X137818862Y-140678432D01*
X138250861Y-140678432D01*
X138372397Y-140972572D01*
X138597245Y-141197812D01*
X138891172Y-141319861D01*
X139209432Y-141320139D01*
X139503572Y-141198603D01*
X139728812Y-140973755D01*
X139850861Y-140679828D01*
X139851139Y-140361568D01*
X139729603Y-140067428D01*
X139504755Y-139842188D01*
X139210828Y-139720139D01*
X138892568Y-139719861D01*
X138598428Y-139841397D01*
X138373188Y-140066245D01*
X138251139Y-140360172D01*
X138250861Y-140678432D01*
X137818862Y-140678432D01*
X137819139Y-140361568D01*
X137697603Y-140067428D01*
X137472755Y-139842188D01*
X137178828Y-139720139D01*
X136860568Y-139719861D01*
X136566428Y-139841397D01*
X136341188Y-140066245D01*
X136219139Y-140360172D01*
X136218861Y-140678432D01*
X134000000Y-140678432D01*
X134000000Y-139248574D01*
X134058359Y-139190317D01*
X134149896Y-138969871D01*
X134150104Y-138731176D01*
X134058952Y-138510571D01*
X133890317Y-138341641D01*
X133669871Y-138250104D01*
X133431176Y-138249896D01*
X133210571Y-138341048D01*
X133041641Y-138509683D01*
X132950104Y-138730129D01*
X132949896Y-138968824D01*
X133041048Y-139189429D01*
X133100000Y-139248484D01*
X133100000Y-140613604D01*
X132263636Y-141449968D01*
X132181176Y-141449896D01*
X131960571Y-141541048D01*
X131899999Y-141601515D01*
X131790317Y-141491641D01*
X131569871Y-141400104D01*
X131486427Y-141400031D01*
X130300000Y-140213604D01*
X130300000Y-138648574D01*
X130358359Y-138590317D01*
X130449896Y-138369871D01*
X130450104Y-138131176D01*
X130358952Y-137910571D01*
X130190317Y-137741641D01*
X129969871Y-137650104D01*
X129731176Y-137649896D01*
X129510571Y-137741048D01*
X129341641Y-137909683D01*
X129250104Y-138130129D01*
X129249896Y-138368824D01*
X129341048Y-138589429D01*
X129400000Y-138648484D01*
X129400000Y-140400000D01*
X129434254Y-140572208D01*
X129471395Y-140627793D01*
X129531802Y-140718198D01*
X130849968Y-142036364D01*
X130849896Y-142118824D01*
X130941048Y-142339429D01*
X131109683Y-142508359D01*
X131330129Y-142599896D01*
X131568824Y-142600104D01*
X131789429Y-142508952D01*
X131850001Y-142448485D01*
X131959683Y-142558359D01*
X132180129Y-142649896D01*
X132299476Y-142650000D01*
X119034472Y-142650000D01*
X118753880Y-142594187D01*
X118545229Y-142454772D01*
X118405813Y-142246121D01*
X118350000Y-141965528D01*
X118350000Y-140757452D01*
X125199774Y-140757452D01*
X125397271Y-141235429D01*
X125762647Y-141601444D01*
X126240279Y-141799774D01*
X126757452Y-141800226D01*
X127235429Y-141602729D01*
X127601444Y-141237353D01*
X127799774Y-140759721D01*
X127800226Y-140242548D01*
X127602729Y-139764571D01*
X127237353Y-139398556D01*
X126759721Y-139200226D01*
X126242548Y-139199774D01*
X125764571Y-139397271D01*
X125398556Y-139762647D01*
X125200226Y-140240279D01*
X125199774Y-140757452D01*
X118350000Y-140757452D01*
X118350000Y-137160481D01*
X118505129Y-137224896D01*
X118517801Y-137224907D01*
X119196447Y-137903554D01*
X119266737Y-137950520D01*
X119358658Y-138011940D01*
X119550000Y-138050000D01*
X122625000Y-138050000D01*
X122816342Y-138011940D01*
X122978553Y-137903553D01*
X123107012Y-137775094D01*
X123118824Y-137775104D01*
X123339429Y-137683952D01*
X123508359Y-137515317D01*
X123599896Y-137294871D01*
X123600104Y-137056176D01*
X123508952Y-136835571D01*
X123340317Y-136666641D01*
X123119871Y-136575104D01*
X122881176Y-136574896D01*
X122660571Y-136666048D01*
X122491641Y-136834683D01*
X122402234Y-137050000D01*
X119757107Y-137050000D01*
X119225094Y-136517987D01*
X119225104Y-136506176D01*
X119133952Y-136285571D01*
X118965317Y-136116641D01*
X118744871Y-136025104D01*
X118506176Y-136024896D01*
X118350000Y-136089427D01*
X118350000Y-133486400D01*
X136371163Y-133486400D01*
X136500217Y-133802396D01*
X136505048Y-133809627D01*
X136652480Y-133855094D01*
X137187574Y-133320000D01*
X136652480Y-132784906D01*
X136505048Y-132830373D01*
X136372860Y-133145071D01*
X136371163Y-133486400D01*
X118350000Y-133486400D01*
X118350000Y-130946400D01*
X136371163Y-130946400D01*
X136500217Y-131262396D01*
X136505048Y-131269627D01*
X136652480Y-131315094D01*
X137187574Y-130780000D01*
X136652480Y-130244906D01*
X136505048Y-130290373D01*
X136372860Y-130605071D01*
X136371163Y-130946400D01*
X118350000Y-130946400D01*
X118350000Y-130087520D01*
X136694906Y-130087520D01*
X136712632Y-130145000D01*
X136694906Y-130202480D01*
X137230000Y-130737574D01*
X137765094Y-130202480D01*
X137747368Y-130145000D01*
X137765094Y-130087520D01*
X137230000Y-129552426D01*
X136694906Y-130087520D01*
X118350000Y-130087520D01*
X118350000Y-129676400D01*
X136371163Y-129676400D01*
X136500217Y-129992396D01*
X136505048Y-129999627D01*
X136652480Y-130045094D01*
X137187574Y-129510000D01*
X136652480Y-128974906D01*
X136505048Y-129020373D01*
X136372860Y-129335071D01*
X136371163Y-129676400D01*
X118350000Y-129676400D01*
X118350000Y-125443824D01*
X125999896Y-125443824D01*
X126091048Y-125664429D01*
X126259683Y-125833359D01*
X126480129Y-125924896D01*
X126718824Y-125925104D01*
X126800072Y-125891533D01*
X126799896Y-126093824D01*
X126891048Y-126314429D01*
X127059683Y-126483359D01*
X127280129Y-126574896D01*
X127518824Y-126575104D01*
X127739429Y-126483952D01*
X127908359Y-126315317D01*
X127999896Y-126094871D01*
X128000104Y-125856176D01*
X127908952Y-125635571D01*
X127825000Y-125551472D01*
X127825000Y-125200000D01*
X127792649Y-125037360D01*
X127792649Y-125037359D01*
X127700520Y-124899480D01*
X127600000Y-124798960D01*
X127600000Y-123826040D01*
X128507216Y-122918824D01*
X129049896Y-122918824D01*
X129141048Y-123139429D01*
X129309683Y-123308359D01*
X129530129Y-123399896D01*
X129724025Y-123400065D01*
X130524999Y-124201039D01*
X130524896Y-124318824D01*
X130616048Y-124539429D01*
X130784683Y-124708359D01*
X131005129Y-124799896D01*
X131243824Y-124800104D01*
X131464429Y-124708952D01*
X131633359Y-124540317D01*
X131724896Y-124319871D01*
X131725044Y-124150022D01*
X131818824Y-124150104D01*
X132039429Y-124058952D01*
X132208359Y-123890317D01*
X132299896Y-123669871D01*
X132300104Y-123431176D01*
X132208952Y-123210571D01*
X132040317Y-123041641D01*
X131819871Y-122950104D01*
X131625976Y-122949935D01*
X130875001Y-122198961D01*
X130875104Y-122081176D01*
X130783952Y-121860571D01*
X130615317Y-121691641D01*
X130394871Y-121600104D01*
X130156176Y-121599896D01*
X129935571Y-121691048D01*
X129766641Y-121859683D01*
X129675104Y-122080129D01*
X129675000Y-122200021D01*
X129531176Y-122199896D01*
X129310571Y-122291048D01*
X129141641Y-122459683D01*
X129050104Y-122680129D01*
X129049896Y-122918824D01*
X128507216Y-122918824D01*
X129025520Y-122400520D01*
X129117649Y-122262641D01*
X129123016Y-122235657D01*
X129150000Y-122100000D01*
X129150000Y-121848530D01*
X129233359Y-121765317D01*
X129324896Y-121544871D01*
X129325104Y-121306176D01*
X129233952Y-121085571D01*
X129065317Y-120916641D01*
X128844871Y-120825104D01*
X128606176Y-120824896D01*
X128385571Y-120916048D01*
X128216641Y-121084683D01*
X128125104Y-121305129D01*
X128125054Y-121362637D01*
X128094871Y-121350104D01*
X127856176Y-121349896D01*
X127635571Y-121441048D01*
X127466641Y-121609683D01*
X127375104Y-121830129D01*
X127374979Y-121973981D01*
X126299480Y-123049480D01*
X126207351Y-123187359D01*
X126207351Y-123187360D01*
X126175000Y-123350000D01*
X126175000Y-124901470D01*
X126091641Y-124984683D01*
X126000104Y-125205129D01*
X125999896Y-125443824D01*
X118350000Y-125443824D01*
X118350000Y-123118824D01*
X121449896Y-123118824D01*
X121541048Y-123339429D01*
X121709683Y-123508359D01*
X121930129Y-123599896D01*
X122168824Y-123600104D01*
X122389429Y-123508952D01*
X122558359Y-123340317D01*
X122649896Y-123119871D01*
X122650104Y-122881176D01*
X122558952Y-122660571D01*
X122500000Y-122601516D01*
X122500000Y-122236396D01*
X124086364Y-120650032D01*
X124168824Y-120650104D01*
X124350589Y-120575000D01*
X137875511Y-120575000D01*
X137936407Y-120881147D01*
X138109826Y-121140685D01*
X138369364Y-121314104D01*
X138675511Y-121375000D01*
X139624489Y-121375000D01*
X139930636Y-121314104D01*
X140190174Y-121140685D01*
X140363593Y-120881147D01*
X140424489Y-120575000D01*
X140363593Y-120268853D01*
X140190174Y-120009315D01*
X139930636Y-119835896D01*
X139624489Y-119775000D01*
X138675511Y-119775000D01*
X138369364Y-119835896D01*
X138109826Y-120009315D01*
X137936407Y-120268853D01*
X137875511Y-120575000D01*
X124350589Y-120575000D01*
X124389429Y-120558952D01*
X124558359Y-120390317D01*
X124649896Y-120169871D01*
X124649969Y-120086427D01*
X124668198Y-120068198D01*
X124680358Y-120050000D01*
X124765746Y-119922208D01*
X124800000Y-119750000D01*
X124800000Y-118625000D01*
X135206878Y-118625000D01*
X135267774Y-118931147D01*
X135441193Y-119190685D01*
X135700731Y-119364104D01*
X136006878Y-119425000D01*
X136293122Y-119425000D01*
X136599269Y-119364104D01*
X136858807Y-119190685D01*
X137032226Y-118931147D01*
X137093122Y-118625000D01*
X137032226Y-118318853D01*
X136858807Y-118059315D01*
X136599269Y-117885896D01*
X136293122Y-117825000D01*
X136006878Y-117825000D01*
X135700731Y-117885896D01*
X135441193Y-118059315D01*
X135267774Y-118318853D01*
X135206878Y-118625000D01*
X124800000Y-118625000D01*
X124800000Y-118098574D01*
X124858359Y-118040317D01*
X124949896Y-117819871D01*
X124950104Y-117581176D01*
X124858952Y-117360571D01*
X124690317Y-117191641D01*
X124469871Y-117100104D01*
X124231176Y-117099896D01*
X124010571Y-117191048D01*
X123841641Y-117359683D01*
X123750104Y-117580129D01*
X123749896Y-117818824D01*
X123841048Y-118039429D01*
X123900000Y-118098484D01*
X123900000Y-119462778D01*
X123710571Y-119541048D01*
X123541641Y-119709683D01*
X123450104Y-119930129D01*
X123450031Y-120013573D01*
X121731802Y-121731802D01*
X121634254Y-121877792D01*
X121600000Y-122050000D01*
X121600000Y-122601426D01*
X121541641Y-122659683D01*
X121450104Y-122880129D01*
X121449896Y-123118824D01*
X118350000Y-123118824D01*
X118350000Y-114383677D01*
X118974883Y-114383677D01*
X119077429Y-114631857D01*
X119267144Y-114821903D01*
X119515145Y-114924883D01*
X119783677Y-114925117D01*
X120031857Y-114822571D01*
X120221903Y-114632856D01*
X120324883Y-114384855D01*
X120325117Y-114116323D01*
X120222571Y-113868143D01*
X120032856Y-113678097D01*
X119784855Y-113575117D01*
X119516323Y-113574883D01*
X119268143Y-113677429D01*
X119078097Y-113867144D01*
X118975117Y-114115145D01*
X118974883Y-114383677D01*
X118350000Y-114383677D01*
X118350000Y-113468824D01*
X123999896Y-113468824D01*
X124091048Y-113689429D01*
X124259683Y-113858359D01*
X124480129Y-113949896D01*
X124718824Y-113950104D01*
X124939429Y-113858952D01*
X124973440Y-113825000D01*
X127176470Y-113825000D01*
X127259683Y-113908359D01*
X127480129Y-113999896D01*
X127718824Y-114000104D01*
X127939429Y-113908952D01*
X128108359Y-113740317D01*
X128199896Y-113519871D01*
X128200104Y-113281176D01*
X128108952Y-113060571D01*
X127940317Y-112891641D01*
X127719871Y-112800104D01*
X127481176Y-112799896D01*
X127260571Y-112891048D01*
X127176472Y-112975000D01*
X125073443Y-112975000D01*
X124940317Y-112841641D01*
X124719871Y-112750104D01*
X124481176Y-112749896D01*
X124260571Y-112841048D01*
X124091641Y-113009683D01*
X124000104Y-113230129D01*
X123999896Y-113468824D01*
X118350000Y-113468824D01*
X118350000Y-112783677D01*
X118974883Y-112783677D01*
X119077429Y-113031857D01*
X119267144Y-113221903D01*
X119515145Y-113324883D01*
X119783677Y-113325117D01*
X120031857Y-113222571D01*
X120221903Y-113032856D01*
X120324883Y-112784855D01*
X120325117Y-112516323D01*
X120274502Y-112393824D01*
X133274896Y-112393824D01*
X133366048Y-112614429D01*
X133450000Y-112698528D01*
X133450000Y-113951470D01*
X133366641Y-114034683D01*
X133275104Y-114255129D01*
X133274896Y-114493824D01*
X133366048Y-114714429D01*
X133534683Y-114883359D01*
X133755129Y-114974896D01*
X133993824Y-114975104D01*
X134214429Y-114883952D01*
X134383359Y-114715317D01*
X134474896Y-114494871D01*
X134475104Y-114256176D01*
X134441563Y-114175000D01*
X135206878Y-114175000D01*
X135267774Y-114481147D01*
X135441193Y-114740685D01*
X135700731Y-114914104D01*
X136006878Y-114975000D01*
X136293122Y-114975000D01*
X136599269Y-114914104D01*
X136858807Y-114740685D01*
X137032226Y-114481147D01*
X137093122Y-114175000D01*
X137032226Y-113868853D01*
X136858807Y-113609315D01*
X136599269Y-113435896D01*
X136293122Y-113375000D01*
X136006878Y-113375000D01*
X135700731Y-113435896D01*
X135441193Y-113609315D01*
X135267774Y-113868853D01*
X135206878Y-114175000D01*
X134441563Y-114175000D01*
X134383952Y-114035571D01*
X134300000Y-113951472D01*
X134300000Y-112698530D01*
X134383359Y-112615317D01*
X134474896Y-112394871D01*
X134475044Y-112225000D01*
X137875511Y-112225000D01*
X137936407Y-112531147D01*
X138109826Y-112790685D01*
X138369364Y-112964104D01*
X138675511Y-113025000D01*
X139624489Y-113025000D01*
X139930636Y-112964104D01*
X140190174Y-112790685D01*
X140363593Y-112531147D01*
X140424489Y-112225000D01*
X140363593Y-111918853D01*
X140190174Y-111659315D01*
X139930636Y-111485896D01*
X139635413Y-111427173D01*
X139778857Y-111367903D01*
X140116717Y-111030633D01*
X140299791Y-110589742D01*
X140300207Y-110112353D01*
X140117903Y-109671143D01*
X139780633Y-109333283D01*
X139339742Y-109150209D01*
X138862353Y-109149793D01*
X138421143Y-109332097D01*
X138083283Y-109669367D01*
X137900209Y-110110258D01*
X137899793Y-110587647D01*
X138082097Y-111028857D01*
X138419367Y-111366717D01*
X138597228Y-111440571D01*
X138369364Y-111485896D01*
X138109826Y-111659315D01*
X137936407Y-111918853D01*
X137875511Y-112225000D01*
X134475044Y-112225000D01*
X134475104Y-112156176D01*
X134383952Y-111935571D01*
X134215317Y-111766641D01*
X133994871Y-111675104D01*
X133756176Y-111674896D01*
X133535571Y-111766048D01*
X133366641Y-111934683D01*
X133275104Y-112155129D01*
X133274896Y-112393824D01*
X120274502Y-112393824D01*
X120222571Y-112268143D01*
X120032856Y-112078097D01*
X119784855Y-111975117D01*
X119516323Y-111974883D01*
X119268143Y-112077429D01*
X119078097Y-112267144D01*
X118975117Y-112515145D01*
X118974883Y-112783677D01*
X118350000Y-112783677D01*
X118350000Y-105000000D01*
X136694123Y-105000000D01*
X136694123Y-107000000D01*
X136715042Y-107111173D01*
X136780745Y-107213279D01*
X136880997Y-107281778D01*
X137000000Y-107305877D01*
X139000000Y-107305877D01*
X139111173Y-107284958D01*
X139213279Y-107219255D01*
X139281778Y-107119003D01*
X139305877Y-107000000D01*
X139305877Y-105000000D01*
X139284958Y-104888827D01*
X139219255Y-104786721D01*
X139119003Y-104718222D01*
X139000000Y-104694123D01*
X138417433Y-104694123D01*
X138735429Y-104562729D01*
X139101444Y-104197353D01*
X139299774Y-103719721D01*
X139300226Y-103202548D01*
X139102729Y-102724571D01*
X138737353Y-102358556D01*
X138259721Y-102160226D01*
X137742548Y-102159774D01*
X137264571Y-102357271D01*
X136898556Y-102722647D01*
X136700226Y-103200279D01*
X136699774Y-103717452D01*
X136897271Y-104195429D01*
X137262647Y-104561444D01*
X137582174Y-104694123D01*
X137000000Y-104694123D01*
X136888827Y-104715042D01*
X136786721Y-104780745D01*
X136718222Y-104880997D01*
X136694123Y-105000000D01*
X118350000Y-105000000D01*
X118350000Y-97106500D01*
X135660000Y-97106500D01*
X135660000Y-98147674D01*
X135705672Y-98257937D01*
X135790064Y-98342328D01*
X135900327Y-98388000D01*
X138275000Y-98388000D01*
X138350000Y-98313000D01*
X138350000Y-97031500D01*
X135735000Y-97031500D01*
X135660000Y-97106500D01*
X118350000Y-97106500D01*
X118350000Y-95615326D01*
X135660000Y-95615326D01*
X135660000Y-96656500D01*
X135735000Y-96731500D01*
X138350000Y-96731500D01*
X138350000Y-95450000D01*
X138275000Y-95375000D01*
X135900327Y-95375000D01*
X135790064Y-95420672D01*
X135705672Y-95505063D01*
X135660000Y-95615326D01*
X118350000Y-95615326D01*
X118350000Y-92737647D01*
X135549793Y-92737647D01*
X135732097Y-93178857D01*
X136069367Y-93516717D01*
X136510258Y-93699791D01*
X136987647Y-93700207D01*
X137428857Y-93517903D01*
X137766717Y-93180633D01*
X137949791Y-92739742D01*
X137950207Y-92262353D01*
X137767903Y-91821143D01*
X137430633Y-91483283D01*
X136989742Y-91300209D01*
X136512353Y-91299793D01*
X136071143Y-91482097D01*
X135733283Y-91819367D01*
X135550209Y-92260258D01*
X135549793Y-92737647D01*
X118350000Y-92737647D01*
X118350000Y-89360273D01*
X122782153Y-89360273D01*
X122875352Y-89548431D01*
X123331729Y-89745935D01*
X123828949Y-89753756D01*
X124291314Y-89570705D01*
X124324648Y-89548431D01*
X124382125Y-89432390D01*
X125610036Y-89432390D01*
X125715406Y-89630939D01*
X126207921Y-89845102D01*
X126744903Y-89854486D01*
X127244600Y-89657662D01*
X127284594Y-89630939D01*
X127389964Y-89432390D01*
X126500000Y-88542426D01*
X125610036Y-89432390D01*
X124382125Y-89432390D01*
X124417847Y-89360273D01*
X123600000Y-88542426D01*
X122782153Y-89360273D01*
X118350000Y-89360273D01*
X118350000Y-88728949D01*
X122346244Y-88728949D01*
X122529295Y-89191314D01*
X122551569Y-89224648D01*
X122739727Y-89317847D01*
X123557574Y-88500000D01*
X123642426Y-88500000D01*
X124460273Y-89317847D01*
X124648431Y-89224648D01*
X124845935Y-88768271D01*
X124846302Y-88744903D01*
X125145514Y-88744903D01*
X125342338Y-89244600D01*
X125369061Y-89284594D01*
X125567610Y-89389964D01*
X126457574Y-88500000D01*
X126542426Y-88500000D01*
X127432390Y-89389964D01*
X127630939Y-89284594D01*
X127845102Y-88792079D01*
X127852941Y-88343500D01*
X135660000Y-88343500D01*
X135660000Y-89384674D01*
X135705672Y-89494937D01*
X135790064Y-89579328D01*
X135900327Y-89625000D01*
X138275000Y-89625000D01*
X138350000Y-89550000D01*
X138350000Y-88268500D01*
X135735000Y-88268500D01*
X135660000Y-88343500D01*
X127852941Y-88343500D01*
X127854486Y-88255097D01*
X127657662Y-87755400D01*
X127630939Y-87715406D01*
X127432390Y-87610036D01*
X126542426Y-88500000D01*
X126457574Y-88500000D01*
X125567610Y-87610036D01*
X125369061Y-87715406D01*
X125154898Y-88207921D01*
X125145514Y-88744903D01*
X124846302Y-88744903D01*
X124853756Y-88271051D01*
X124670705Y-87808686D01*
X124648431Y-87775352D01*
X124460273Y-87682153D01*
X123642426Y-88500000D01*
X123557574Y-88500000D01*
X122739727Y-87682153D01*
X122551569Y-87775352D01*
X122354065Y-88231729D01*
X122346244Y-88728949D01*
X118350000Y-88728949D01*
X118350000Y-87639727D01*
X122782153Y-87639727D01*
X123600000Y-88457574D01*
X124417847Y-87639727D01*
X124382126Y-87567610D01*
X125610036Y-87567610D01*
X126500000Y-88457574D01*
X127389964Y-87567610D01*
X127284594Y-87369061D01*
X126792079Y-87154898D01*
X126255097Y-87145514D01*
X125755400Y-87342338D01*
X125715406Y-87369061D01*
X125610036Y-87567610D01*
X124382126Y-87567610D01*
X124324648Y-87451569D01*
X123868271Y-87254065D01*
X123371051Y-87246244D01*
X122908686Y-87429295D01*
X122875352Y-87451569D01*
X122782153Y-87639727D01*
X118350000Y-87639727D01*
X118350000Y-87034472D01*
X118386230Y-86852326D01*
X135660000Y-86852326D01*
X135660000Y-87893500D01*
X135735000Y-87968500D01*
X138350000Y-87968500D01*
X138350000Y-86687000D01*
X138275000Y-86612000D01*
X135900327Y-86612000D01*
X135790064Y-86657672D01*
X135705672Y-86742063D01*
X135660000Y-86852326D01*
X118386230Y-86852326D01*
X118405813Y-86753879D01*
X118545229Y-86545228D01*
X118753880Y-86405813D01*
X119034472Y-86350000D01*
X139965528Y-86350000D01*
X140246121Y-86405813D01*
M02*
