G04 #@! TF.FileFunction,Soldermask,Bot*
%FSLAX46Y46*%
G04 Gerber Fmt 4.6, Leading zero omitted, Abs format (unit mm)*
G04 Created by KiCad (PCBNEW 0.201509071501+6164~29~ubuntu14.04.1-product) date Thu 07 Jan 2016 13:16:16 GMT*
%MOMM*%
G01*
G04 APERTURE LIST*
%ADD10C,0.100000*%
%ADD11C,2.000000*%
%ADD12C,1.016000*%
%ADD13R,2.413000X5.080000*%
%ADD14C,1.800000*%
%ADD15C,0.750000*%
%ADD16C,1.000000*%
%ADD17C,1.000000*%
%ADD18C,6.300000*%
%ADD19C,0.600000*%
G04 APERTURE END LIST*
D10*
G36*
X106400000Y-106035786D02*
X107814214Y-107450000D01*
X106400000Y-108864214D01*
X104985786Y-107450000D01*
X106400000Y-106035786D01*
X106400000Y-106035786D01*
G37*
D11*
X104603949Y-105653949D03*
D12*
X121098025Y-123305923D03*
X121996051Y-124203949D03*
X120200000Y-124203949D03*
X121098025Y-125101975D03*
X119301974Y-125101975D03*
X120200000Y-126000000D03*
X118403949Y-126000000D03*
X119301974Y-126898026D03*
X117505923Y-126898026D03*
X118403949Y-127796051D03*
D13*
X141181500Y-135500000D03*
X132418500Y-135500000D03*
D14*
X135250000Y-131250000D03*
X119600000Y-90650000D03*
X122950000Y-90650000D03*
D15*
X126750000Y-106650000D03*
X126650000Y-105100000D03*
D16*
X125392516Y-127350413D03*
X121081993Y-130224095D03*
X122518834Y-131660936D03*
D11*
X108565224Y-94715224D03*
X145334776Y-131484776D03*
D17*
X115433021Y-120013604D02*
X115256245Y-120190380D01*
X112286396Y-116866979D02*
X112109620Y-117043755D01*
X114920369Y-123283973D02*
X114283973Y-123920369D01*
X109016027Y-117379631D02*
X108379631Y-118016027D01*
D18*
X127000000Y-93100000D03*
D19*
X127000000Y-90600000D03*
X129500000Y-93100000D03*
X127000000Y-95600000D03*
X124500000Y-93100000D03*
X125200000Y-91300000D03*
X128800000Y-91300000D03*
X125200000Y-94900000D03*
X128800000Y-94900000D03*
D18*
X107000000Y-113000000D03*
D19*
X107000000Y-110500000D03*
X109500000Y-113000000D03*
X107000000Y-115500000D03*
X104500000Y-113000000D03*
X105200000Y-111200000D03*
X108800000Y-111200000D03*
X105200000Y-114800000D03*
X108800000Y-114800000D03*
D18*
X127000000Y-133100000D03*
D19*
X127000000Y-130600000D03*
X129500000Y-133100000D03*
X127000000Y-135600000D03*
X124500000Y-133100000D03*
X125200000Y-131300000D03*
X128800000Y-131300000D03*
X125200000Y-134900000D03*
X128800000Y-134900000D03*
D18*
X147000000Y-113100000D03*
D19*
X147000000Y-110600000D03*
X149500000Y-113100000D03*
X147000000Y-115600000D03*
X144500000Y-113100000D03*
X145200000Y-111300000D03*
X148800000Y-111300000D03*
X145200000Y-114900000D03*
X148800000Y-114900000D03*
M02*
