G04 #@! TF.FileFunction,Legend,Bot*
%FSLAX46Y46*%
G04 Gerber Fmt 4.6, Leading zero omitted, Abs format (unit mm)*
G04 Created by KiCad (PCBNEW 0.201509071501+6164~29~ubuntu14.04.1-product) date Wed 06 Jan 2016 18:04:02 GMT*
%MOMM*%
G01*
G04 APERTURE LIST*
%ADD10C,0.100000*%
%ADD11C,0.150000*%
%ADD12C,0.300000*%
G04 APERTURE END LIST*
D10*
D11*
X127839940Y-89787167D02*
X127747947Y-89811817D01*
X127668279Y-89882462D01*
X127634607Y-89940783D01*
X127613260Y-90045101D01*
X127616562Y-90241411D01*
X127678186Y-90471394D01*
X127773481Y-90643055D01*
X127844127Y-90722724D01*
X127902448Y-90756395D01*
X128006766Y-90777742D01*
X128098759Y-90753093D01*
X128178428Y-90682447D01*
X128212099Y-90624126D01*
X128233446Y-90519808D01*
X128230144Y-90323498D01*
X128168520Y-90093515D01*
X128073225Y-89921854D01*
X128002579Y-89842186D01*
X127944258Y-89808514D01*
X127839940Y-89787167D01*
X127338166Y-90858295D02*
X127304495Y-90916616D01*
X127362816Y-90950288D01*
X127396488Y-90891967D01*
X127338166Y-90858295D01*
X127362816Y-90950288D01*
X126616966Y-90558551D02*
X126696634Y-90487905D01*
X126730305Y-90429584D01*
X126751652Y-90325267D01*
X126739328Y-90279270D01*
X126668682Y-90199602D01*
X126610361Y-90165931D01*
X126506043Y-90144584D01*
X126322057Y-90193883D01*
X126242388Y-90264528D01*
X126208717Y-90322850D01*
X126187370Y-90427167D01*
X126199694Y-90473164D01*
X126270340Y-90552832D01*
X126328661Y-90586503D01*
X126432979Y-90607850D01*
X126616966Y-90558551D01*
X126721283Y-90579898D01*
X126779604Y-90613570D01*
X126850250Y-90693239D01*
X126899549Y-90877225D01*
X126878202Y-90981542D01*
X126844530Y-91039864D01*
X126764862Y-91110509D01*
X126580876Y-91159808D01*
X126476558Y-91138461D01*
X126418237Y-91104790D01*
X126347591Y-91025122D01*
X126298292Y-90841136D01*
X126319639Y-90736817D01*
X126353311Y-90678496D01*
X126432979Y-90607850D01*
X125884325Y-90952058D02*
X125148381Y-91149254D01*
X124620188Y-90649897D02*
X124022234Y-90810118D01*
X124442807Y-91091817D01*
X124304817Y-91128791D01*
X124225149Y-91199437D01*
X124191477Y-91257758D01*
X124170130Y-91362076D01*
X124231754Y-91592058D01*
X124302400Y-91671727D01*
X124360721Y-91705398D01*
X124465038Y-91726745D01*
X124741018Y-91652797D01*
X124820686Y-91582151D01*
X124854358Y-91523830D01*
X123842435Y-91794974D02*
X123808764Y-91853295D01*
X123867085Y-91886966D01*
X123900757Y-91828645D01*
X123842435Y-91794974D01*
X123867085Y-91886966D01*
X123240294Y-91019638D02*
X122642340Y-91179860D01*
X123062913Y-91461558D01*
X122924923Y-91498532D01*
X122845255Y-91569178D01*
X122811583Y-91627499D01*
X122790237Y-91731818D01*
X122851860Y-91961800D01*
X122922506Y-92041468D01*
X122980827Y-92075140D01*
X123085145Y-92096487D01*
X123361124Y-92022538D01*
X123440792Y-91951892D01*
X123474464Y-91893571D01*
X122366361Y-91253808D02*
X122303206Y-92306007D01*
X121722411Y-91426354D01*
X120923311Y-92675748D02*
X120664492Y-91709823D01*
X120434510Y-91771446D01*
X120308844Y-91854417D01*
X120241501Y-91971059D01*
X120220154Y-92075377D01*
X120223456Y-92271687D01*
X120260431Y-92409677D01*
X120355726Y-92581338D01*
X120426372Y-92661006D01*
X120543014Y-92728350D01*
X120693329Y-92737372D01*
X120923311Y-92675748D01*
X119380778Y-92990471D02*
X119439099Y-93024143D01*
X119589413Y-93033165D01*
X119681406Y-93008516D01*
X119807071Y-92925545D01*
X119874415Y-92808903D01*
X119895762Y-92704585D01*
X119892459Y-92508275D01*
X119855485Y-92370285D01*
X119760190Y-92198624D01*
X119689544Y-92118956D01*
X119572901Y-92051612D01*
X119422587Y-92042590D01*
X119330594Y-92067239D01*
X119204929Y-92150210D01*
X119171257Y-92208531D01*
D12*
X125152433Y-96386901D02*
X124091773Y-97447561D01*
X125101926Y-96437408D02*
X125051418Y-96285886D01*
X124849388Y-96083855D01*
X124697865Y-96033347D01*
X124596850Y-96033348D01*
X124445326Y-96083855D01*
X124142281Y-96386900D01*
X124091774Y-96538423D01*
X124091773Y-96639438D01*
X124142281Y-96790962D01*
X124344311Y-96992993D01*
X124495834Y-97043500D01*
X126112078Y-97346546D02*
X125556495Y-97902130D01*
X125404971Y-97952637D01*
X125253448Y-97902130D01*
X125051418Y-97700099D01*
X125000911Y-97548576D01*
X126061571Y-97397053D02*
X126011063Y-97245531D01*
X125758525Y-96992993D01*
X125607002Y-96942485D01*
X125455479Y-96992992D01*
X125354464Y-97094007D01*
X125303956Y-97245531D01*
X125354464Y-97397053D01*
X125607002Y-97649591D01*
X125657510Y-97801114D01*
X125809033Y-98457714D02*
X126768678Y-98003145D01*
X126314109Y-98962790D01*
X127425277Y-98659744D02*
X126718170Y-99366851D01*
X126364616Y-99720404D02*
X126364616Y-99619389D01*
X126465632Y-99619389D01*
X126465632Y-99720404D01*
X126364616Y-99720404D01*
X126465632Y-99619389D01*
X128384922Y-99619389D02*
X127324261Y-100680050D01*
X128334414Y-99669897D02*
X128283906Y-99518374D01*
X128081876Y-99316344D01*
X127930353Y-99265835D01*
X127829338Y-99265836D01*
X127677815Y-99316343D01*
X127374769Y-99619389D01*
X127324262Y-99770912D01*
X127324261Y-99871927D01*
X127374769Y-100023451D01*
X127576800Y-100225481D01*
X127728323Y-100275988D01*
X128788983Y-100225481D02*
X128889998Y-100225480D01*
X128889998Y-100124466D01*
X128788983Y-100124465D01*
X128788983Y-100225481D01*
X128889998Y-100124466D01*
X128586953Y-101235634D02*
X129496090Y-100730557D01*
X129193044Y-101437664D01*
X129900151Y-101134619D01*
X129395075Y-102043756D01*
X130405228Y-101841726D02*
X130506243Y-101841725D01*
X130506243Y-101740710D01*
X130405228Y-101740710D01*
X130405228Y-101841726D01*
X130506243Y-101740710D01*
X130152689Y-102801371D02*
X130556751Y-103205432D01*
X129950659Y-103306447D02*
X130859797Y-102397309D01*
X131011319Y-102346801D01*
X131162842Y-102397310D01*
X131263857Y-102498325D01*
X131364873Y-104013554D02*
X132071979Y-103306447D01*
X130910304Y-103558985D02*
X131465888Y-103003401D01*
X131617411Y-102952893D01*
X131768934Y-103003402D01*
X131920456Y-103154924D01*
X131970964Y-103306446D01*
X131970964Y-103407462D01*
X132577056Y-103811524D02*
X131869949Y-104518630D01*
X132071980Y-104316599D02*
X132021472Y-104468122D01*
X132021472Y-104569138D01*
X132071979Y-104720661D01*
X132172994Y-104821676D01*
X132526548Y-105175229D02*
X133233655Y-104468122D01*
X132627564Y-105074213D02*
X132627563Y-105175228D01*
X132678071Y-105326752D01*
X132829593Y-105478275D01*
X132981116Y-105528782D01*
X133132640Y-105478275D01*
X133688223Y-104922691D01*
X134546853Y-105882335D02*
X134496345Y-105730813D01*
X134294315Y-105528783D01*
X134142792Y-105478275D01*
X133991269Y-105528782D01*
X133587208Y-105932843D01*
X133536701Y-106084366D01*
X133587208Y-106235889D01*
X133789238Y-106437920D01*
X133940761Y-106488427D01*
X134092285Y-106437920D01*
X134193300Y-106336904D01*
X133789238Y-105730813D01*
X135102437Y-106336904D02*
X134395330Y-107044011D01*
X134597361Y-106841980D02*
X134546853Y-106993503D01*
X134546853Y-107094518D01*
X134597360Y-107246042D01*
X134698375Y-107347057D01*
X135910559Y-108155178D02*
X135809544Y-108155179D01*
X135658021Y-108104671D01*
X135557005Y-108003655D01*
X135506497Y-107852132D01*
X135506498Y-107751117D01*
X135557005Y-107599594D01*
X135658020Y-107498579D01*
X135809544Y-107448072D01*
X135910559Y-107448071D01*
X136062081Y-107498579D01*
X136163097Y-107599595D01*
X136213605Y-107751117D01*
X136213604Y-107852132D01*
X135809544Y-108256193D02*
X136213604Y-107852132D01*
X136314620Y-107852132D01*
X136365127Y-107902640D01*
X136415635Y-108054163D01*
X136365127Y-108205686D01*
X136112589Y-108458224D01*
X135860051Y-108508732D01*
X135607513Y-108458224D01*
X135354975Y-108306701D01*
X135203452Y-108054163D01*
X135152944Y-107801625D01*
X135203452Y-107549087D01*
X135354974Y-107296549D01*
X135607513Y-107145026D01*
X135860051Y-107094518D01*
X136112590Y-107145026D01*
X136365127Y-107296549D01*
X136516650Y-107549086D01*
X136567158Y-107801625D01*
X137526803Y-108862285D02*
X137476295Y-108710762D01*
X137274264Y-108508732D01*
X137122741Y-108458223D01*
X137021726Y-108458224D01*
X136870203Y-108508731D01*
X136567158Y-108811777D01*
X136516650Y-108963300D01*
X136516650Y-109064315D01*
X136567158Y-109215839D01*
X136769188Y-109417869D01*
X136920711Y-109468376D01*
X138183401Y-109417869D02*
X138031878Y-109367360D01*
X137880356Y-109417868D01*
X136971218Y-110327006D01*
X138486447Y-109922945D02*
X138587462Y-109922944D01*
X138587462Y-109821930D01*
X138486447Y-109821929D01*
X138486447Y-109922945D01*
X138587462Y-109821930D01*
X139496600Y-110832082D02*
X139446092Y-110680560D01*
X139244062Y-110478529D01*
X139092539Y-110428021D01*
X138991523Y-110428021D01*
X138840000Y-110478529D01*
X138536955Y-110781574D01*
X138486448Y-110933097D01*
X138486447Y-111034112D01*
X138536955Y-111185636D01*
X138738985Y-111387666D01*
X138890508Y-111438174D01*
X140456244Y-111690712D02*
X139900660Y-112246296D01*
X139749137Y-112296803D01*
X139597614Y-112246296D01*
X139395584Y-112044265D01*
X139345077Y-111892742D01*
X140405737Y-111741219D02*
X140355229Y-111589697D01*
X140102691Y-111337158D01*
X139951168Y-111286651D01*
X139799645Y-111337158D01*
X139698630Y-111438173D01*
X139648122Y-111589697D01*
X139698630Y-111741219D01*
X139951168Y-111993757D01*
X140001676Y-112145280D01*
X140961321Y-112195788D02*
X140254214Y-112902895D01*
X140355230Y-112801879D02*
X140355229Y-112902894D01*
X140405737Y-113054418D01*
X140557259Y-113205941D01*
X140708782Y-113256448D01*
X140860305Y-113205941D01*
X141415889Y-112650357D01*
X140860305Y-113205941D02*
X140809798Y-113357464D01*
X140860305Y-113508987D01*
X141011828Y-113660509D01*
X141163352Y-113711017D01*
X141314874Y-113660509D01*
X141870458Y-113104925D01*
X142274519Y-113711017D02*
X142375534Y-113711016D01*
X142375534Y-113610002D01*
X142274519Y-113610001D01*
X142274519Y-113711017D01*
X142375534Y-113610002D01*
X143335179Y-114569647D02*
X142779596Y-115125231D01*
X142628072Y-115175738D01*
X142476549Y-115125231D01*
X142274519Y-114923200D01*
X142224012Y-114771677D01*
X143284672Y-114620154D02*
X143234164Y-114468632D01*
X142981626Y-114216094D01*
X142830103Y-114165586D01*
X142678580Y-114216093D01*
X142577565Y-114317108D01*
X142527057Y-114468632D01*
X142577565Y-114620154D01*
X142830103Y-114872692D01*
X142880611Y-115024215D01*
X144244317Y-115579799D02*
X144193809Y-115428277D01*
X143991779Y-115226246D01*
X143840256Y-115175738D01*
X143739241Y-115175739D01*
X143587717Y-115226246D01*
X143284672Y-115529291D01*
X143234165Y-115680814D01*
X143234164Y-115781829D01*
X143284672Y-115933353D01*
X143486702Y-116135384D01*
X143638225Y-116185891D01*
X144648378Y-116084876D02*
X144749393Y-116084875D01*
X144749393Y-115983860D01*
X144648378Y-115983860D01*
X144648378Y-116084876D01*
X144749393Y-115983860D01*
X145001931Y-117650612D02*
X145709038Y-116943505D01*
X144547362Y-117196044D02*
X145102947Y-116640459D01*
X145254469Y-116589951D01*
X145405992Y-116640460D01*
X145557515Y-116791982D01*
X145608023Y-116943505D01*
X145608023Y-117044521D01*
X146214114Y-117448582D02*
X145153454Y-118509242D01*
X145911069Y-117953658D02*
X146618175Y-117852643D01*
X145911068Y-118559749D02*
X145911069Y-117751627D01*
X130284008Y-98124364D02*
X129223348Y-99185024D01*
X130233501Y-98174871D02*
X130182993Y-98023348D01*
X129980962Y-97821318D01*
X129829439Y-97770810D01*
X129728424Y-97770810D01*
X129576901Y-97821317D01*
X129273856Y-98124363D01*
X129223348Y-98275886D01*
X129223348Y-98376901D01*
X129273856Y-98528425D01*
X129475886Y-98730455D01*
X129627409Y-98780962D01*
X129980962Y-99235532D02*
X130890100Y-98730455D01*
X130587054Y-99437561D01*
X131294161Y-99134517D01*
X130789084Y-100043654D01*
X131041623Y-100296192D02*
X131445684Y-100700253D01*
X130839592Y-100801268D02*
X131748730Y-99892131D01*
X131900253Y-99841623D01*
X132051776Y-99892131D01*
X132152791Y-99993146D01*
X131496192Y-101255836D02*
X131496192Y-101356852D01*
X131546699Y-101508375D01*
X131799237Y-101760913D01*
X131950760Y-101811421D01*
X132051776Y-101811421D01*
X132203299Y-101760913D01*
X132304314Y-101659898D01*
X132405330Y-101457867D01*
X132405329Y-100245685D01*
X133061928Y-100902284D01*
X132354821Y-102316497D02*
X133061928Y-103023604D01*
X133668019Y-101508375D01*
X134425633Y-102468019D02*
X134526649Y-102468019D01*
X134526649Y-102367004D01*
X134425633Y-102367004D01*
X134425633Y-102468019D01*
X134526649Y-102367004D01*
X135435786Y-103377157D02*
X135385279Y-103225634D01*
X135183248Y-103023604D01*
X135031725Y-102973095D01*
X134930710Y-102973096D01*
X134779187Y-103023603D01*
X134476141Y-103326649D01*
X134425634Y-103478172D01*
X134425633Y-103579187D01*
X134476141Y-103730711D01*
X134678172Y-103932741D01*
X134829695Y-103983248D01*
X136092385Y-103932741D02*
X135940862Y-103882232D01*
X135839847Y-103882233D01*
X135688324Y-103932740D01*
X135385279Y-104235786D01*
X135334771Y-104387309D01*
X135334771Y-104488324D01*
X135385279Y-104639848D01*
X135536801Y-104791370D01*
X135688324Y-104841877D01*
X135789340Y-104841877D01*
X135940863Y-104791370D01*
X136243908Y-104488325D01*
X136294416Y-104336802D01*
X136294416Y-104235786D01*
X136243908Y-104084263D01*
X136092385Y-103932741D01*
X136799492Y-104841878D02*
X136900507Y-104841877D01*
X136900507Y-104740863D01*
X136799492Y-104740862D01*
X136799492Y-104841878D01*
X136900507Y-104740863D01*
X137153045Y-106407615D02*
X137860152Y-105700508D01*
X136698477Y-105953046D02*
X137254061Y-105397462D01*
X137405584Y-105346954D01*
X137557107Y-105397462D01*
X137708629Y-105548985D01*
X137759137Y-105700507D01*
X137759137Y-105801523D01*
X138365229Y-106205584D02*
X137304569Y-107266245D01*
X138062183Y-106710660D02*
X138769289Y-106609645D01*
X138062183Y-107316752D02*
X138062183Y-106508630D01*
X138870305Y-108932996D02*
X139324874Y-106660153D01*
X139476397Y-108730966D02*
X139880458Y-109135027D01*
X139274367Y-109236043D02*
X140183504Y-108326905D01*
X140335027Y-108276397D01*
X140486550Y-108326905D01*
X140587565Y-108427921D01*
X141294672Y-109236042D02*
X141244164Y-109084519D01*
X141042133Y-108882489D01*
X140890611Y-108831981D01*
X140739088Y-108882488D01*
X140335027Y-109286550D01*
X140284519Y-109438073D01*
X140335027Y-109589596D01*
X140537057Y-109791626D01*
X140688580Y-109842133D01*
X140840103Y-109791626D01*
X140941118Y-109690611D01*
X140537057Y-109084519D01*
X142304824Y-110145180D02*
X141749240Y-110700763D01*
X141597717Y-110751271D01*
X141446194Y-110700763D01*
X141244164Y-110498733D01*
X141193657Y-110347210D01*
X142254317Y-110195687D02*
X142203809Y-110044164D01*
X141951271Y-109791626D01*
X141799748Y-109741118D01*
X141648225Y-109791626D01*
X141547210Y-109892641D01*
X141496702Y-110044164D01*
X141547210Y-110195687D01*
X141799748Y-110448225D01*
X141850255Y-110599748D01*
X142102794Y-111357363D02*
X143163454Y-110296703D01*
X142153302Y-111306855D02*
X142203809Y-111458378D01*
X142405839Y-111660408D01*
X142557362Y-111710916D01*
X142658378Y-111710916D01*
X142809901Y-111660408D01*
X143112947Y-111357363D01*
X143163454Y-111205840D01*
X143163454Y-111104824D01*
X143112946Y-110953302D01*
X142910916Y-110751271D01*
X142759393Y-110700763D01*
X143921069Y-111761424D02*
X143769545Y-111710916D01*
X143668530Y-111710916D01*
X143517007Y-111761424D01*
X143213962Y-112064469D01*
X143163455Y-112215992D01*
X143163454Y-112317007D01*
X143213962Y-112468531D01*
X143365484Y-112620053D01*
X143517007Y-112670561D01*
X143618023Y-112670561D01*
X143769546Y-112620053D01*
X144072592Y-112317008D01*
X144123099Y-112165485D01*
X144123099Y-112064469D01*
X144072591Y-111912947D01*
X143921069Y-111761424D01*
X143870561Y-113125130D02*
X144274622Y-113529191D01*
X143668530Y-113630206D02*
X144577668Y-112721069D01*
X144729190Y-112670561D01*
X144880714Y-112721069D01*
X144981729Y-112822084D01*
X135238806Y-101099263D02*
X135945913Y-100392156D01*
X134784237Y-100644695D02*
X135339822Y-100089110D01*
X135491344Y-100038602D01*
X135642867Y-100089111D01*
X135794390Y-100240633D01*
X135844898Y-100392156D01*
X135844898Y-100493172D01*
X136450989Y-100897233D02*
X135390329Y-101957893D01*
X136147944Y-101402309D02*
X136855050Y-101301294D01*
X136147943Y-102008400D02*
X136147944Y-101200278D01*
X137309619Y-101755863D02*
X136248959Y-102816523D01*
X137764188Y-102210431D02*
X137208604Y-102766015D01*
X137057081Y-102816522D01*
X136905558Y-102766015D01*
X136754035Y-102614493D01*
X136703528Y-102462969D01*
X136703528Y-102361954D01*
X138723833Y-103170076D02*
X138168249Y-103725660D01*
X138016726Y-103776167D01*
X137865203Y-103725660D01*
X137663173Y-103523630D01*
X137612665Y-103372107D01*
X138673325Y-103220584D02*
X138622818Y-103069061D01*
X138370279Y-102816523D01*
X138218757Y-102766015D01*
X138067234Y-102816522D01*
X137966219Y-102917537D01*
X137915711Y-103069061D01*
X137966219Y-103220584D01*
X138218757Y-103473122D01*
X138269264Y-103624645D01*
X139127894Y-103675152D02*
X139279416Y-103725660D01*
X139481447Y-103927691D01*
X139531955Y-104079213D01*
X139481447Y-104230736D01*
X139430939Y-104281244D01*
X139279417Y-104331752D01*
X139127894Y-104281244D01*
X138976371Y-104129721D01*
X138824849Y-104079213D01*
X138673325Y-104129721D01*
X138622818Y-104180229D01*
X138572310Y-104331752D01*
X138622818Y-104483275D01*
X138774341Y-104634798D01*
X138925864Y-104685305D01*
X139986524Y-104634798D02*
X140087539Y-104634797D01*
X140087539Y-104533783D01*
X139986524Y-104533782D01*
X139986524Y-104634798D01*
X140087539Y-104533783D01*
X139885509Y-105745966D02*
X140592616Y-105038859D01*
X139986525Y-105644950D02*
X139986524Y-105745965D01*
X140037032Y-105897489D01*
X140188554Y-106049011D01*
X140340077Y-106099519D01*
X140491600Y-106049011D01*
X141047184Y-105493428D01*
X141905814Y-106453072D02*
X141855306Y-106301550D01*
X141653276Y-106099519D01*
X141501753Y-106049011D01*
X141350230Y-106099519D01*
X140946169Y-106503580D01*
X140895662Y-106655103D01*
X140946169Y-106806626D01*
X141148199Y-107008656D01*
X141299722Y-107059164D01*
X141451245Y-107008656D01*
X141552261Y-106907641D01*
X141148199Y-106301550D01*
X141602768Y-107463225D02*
X142006829Y-107867286D01*
X141400737Y-107968301D02*
X142309875Y-107059164D01*
X142461398Y-107008656D01*
X142612921Y-107059164D01*
X142713936Y-107160180D01*
M02*
