G04 #@! TF.FileFunction,Copper,L2,Bot,Signal*
%FSLAX46Y46*%
G04 Gerber Fmt 4.6, Leading zero omitted, Abs format (unit mm)*
G04 Created by KiCad (PCBNEW 4.0.1-3.201512221402+6198~38~ubuntu14.04.1-stable) date Mon 25 Jan 2016 19:22:19 GMT*
%MOMM*%
G01*
G04 APERTURE LIST*
%ADD10C,0.100000*%
%ADD11O,1.250000X1.000000*%
%ADD12O,1.900000X1.000000*%
%ADD13C,2.000000*%
%ADD14R,5.080000X2.413000*%
%ADD15R,2.000000X2.000000*%
%ADD16C,1.800000*%
%ADD17C,0.750000*%
%ADD18C,1.016000*%
%ADD19C,0.800000*%
%ADD20C,0.250000*%
%ADD21C,0.300000*%
%ADD22C,0.200000*%
G04 APERTURE END LIST*
D10*
D11*
X136150000Y-114175000D03*
X136150000Y-118625000D03*
D12*
X139150000Y-112225000D03*
X139150000Y-120575000D03*
D13*
X126500000Y-140500000D03*
X126500000Y-88500000D03*
D14*
X138500000Y-88118500D03*
X138500000Y-96881500D03*
D15*
X136190000Y-105580000D03*
D13*
X138730000Y-105580000D03*
D16*
X136750000Y-92500000D03*
X135630000Y-102280000D03*
X138990000Y-102170000D03*
D17*
X124500000Y-114500000D03*
X118825000Y-123000000D03*
D18*
X137230000Y-128240000D03*
X138500000Y-128240000D03*
X137230000Y-129510000D03*
X138500000Y-129510000D03*
X137230000Y-130780000D03*
X138500000Y-130780000D03*
X137230000Y-132050000D03*
X138500000Y-132050000D03*
X137230000Y-133320000D03*
X138500000Y-133320000D03*
D19*
X129760000Y-138120000D03*
X131310000Y-142090000D03*
X133300000Y-124770000D03*
X132570000Y-133710000D03*
X133690000Y-130170000D03*
X134270000Y-122730000D03*
X137860000Y-124490000D03*
X137100000Y-124510000D03*
X140340000Y-124190000D03*
X132790000Y-139900000D03*
X131170000Y-139880000D03*
X128220000Y-141520000D03*
X124610000Y-136690000D03*
X125320000Y-135910000D03*
X119630000Y-140900000D03*
X119650000Y-139310000D03*
X119680000Y-137590000D03*
X119890000Y-135270000D03*
X120560000Y-126320000D03*
X118940000Y-126350000D03*
X120600000Y-120550000D03*
X122570000Y-116920000D03*
X122700000Y-118420000D03*
X119600000Y-117090000D03*
X135160000Y-115170000D03*
X131800000Y-113960000D03*
X134930000Y-111020000D03*
X137330000Y-109410000D03*
X133900000Y-93850000D03*
X129000000Y-89550000D03*
X122000000Y-123060000D03*
X132400000Y-142090000D03*
X124010000Y-119940000D03*
X133570000Y-138620000D03*
X136310000Y-137980000D03*
X134450000Y-135600000D03*
X132630000Y-125660000D03*
X129520000Y-122860000D03*
X136360000Y-127230000D03*
X133900000Y-123770000D03*
X130260000Y-122130000D03*
X137480000Y-126130000D03*
X138980000Y-127200000D03*
X126480000Y-125340000D03*
X128070000Y-121710000D03*
X127620000Y-113400000D03*
X124460000Y-113410000D03*
X127270000Y-126040000D03*
X129040000Y-121370000D03*
X131490000Y-119380000D03*
X133100000Y-122260000D03*
X126780000Y-106370000D03*
X123740000Y-105880000D03*
X130730000Y-120110000D03*
X132340000Y-123000000D03*
D20*
X131310000Y-142090000D02*
X129760000Y-140540000D01*
X129760000Y-140540000D02*
X129760000Y-138120000D01*
D21*
X122050000Y-123010000D02*
X122000000Y-123060000D01*
X122050000Y-121900000D02*
X122050000Y-123010000D01*
X122050000Y-121900000D02*
X124010000Y-119940000D01*
D20*
X133570000Y-140920000D02*
X133570000Y-138620000D01*
X132400000Y-142090000D02*
X133570000Y-140920000D01*
X136310000Y-137980000D02*
X136310000Y-135690000D01*
X136310000Y-135690000D02*
X136220000Y-135600000D01*
X134600000Y-135600000D02*
X134450000Y-135600000D01*
X134600000Y-135600000D02*
X136220000Y-135600000D01*
X136220000Y-135600000D02*
X136300000Y-135520000D01*
X136300000Y-135520000D02*
X138500000Y-133320000D01*
X130290000Y-122860000D02*
X132630000Y-125200000D01*
X132630000Y-125200000D02*
X132630000Y-125660000D01*
X129520000Y-122860000D02*
X130290000Y-122860000D01*
X137650000Y-127370000D02*
X136500000Y-127370000D01*
X136500000Y-127370000D02*
X136360000Y-127230000D01*
X138500000Y-128220000D02*
X137650000Y-127370000D01*
X138500000Y-128240000D02*
X138500000Y-128220000D01*
X132040000Y-123770000D02*
X130400000Y-122130000D01*
X130400000Y-122130000D02*
X130260000Y-122130000D01*
X133900000Y-123770000D02*
X132040000Y-123770000D01*
X130260000Y-122130000D02*
X130260000Y-122185000D01*
X138355000Y-126575000D02*
X138980000Y-127200000D01*
X137925000Y-126575000D02*
X137480000Y-126130000D01*
X138355000Y-126575000D02*
X137925000Y-126575000D01*
X139425000Y-128585000D02*
X139425000Y-127645000D01*
X139425000Y-127645000D02*
X138980000Y-127200000D01*
X139425000Y-128585000D02*
X138500000Y-129510000D01*
X126600000Y-123350000D02*
X126600000Y-125220000D01*
X126600000Y-125220000D02*
X126480000Y-125340000D01*
X126600000Y-123350000D02*
X128070000Y-121880000D01*
X128070000Y-121880000D02*
X128070000Y-121710000D01*
X124460000Y-113410000D02*
X127610000Y-113410000D01*
X127610000Y-113410000D02*
X127620000Y-113400000D01*
X127250000Y-123575000D02*
X127250000Y-126020000D01*
X127250000Y-126020000D02*
X127270000Y-126040000D01*
X128725000Y-122100000D02*
X129040000Y-121785000D01*
X129040000Y-121785000D02*
X129040000Y-121370000D01*
X127400000Y-123425000D02*
X127250000Y-123575000D01*
X127400000Y-123425000D02*
X128725000Y-122100000D01*
X133100000Y-122260000D02*
X131490000Y-120650000D01*
X131490000Y-120650000D02*
X131490000Y-119380000D01*
X123740000Y-105880000D02*
X126290000Y-105880000D01*
X126290000Y-105880000D02*
X126780000Y-106370000D01*
X132340000Y-123000000D02*
X130730000Y-121390000D01*
X130730000Y-121390000D02*
X130730000Y-120110000D01*
D22*
G36*
X140246121Y-86405813D02*
X140454772Y-86545229D01*
X140499386Y-86612000D01*
X138725000Y-86612000D01*
X138650000Y-86687000D01*
X138650000Y-87968500D01*
X138670000Y-87968500D01*
X138670000Y-88268500D01*
X138650000Y-88268500D01*
X138650000Y-89550000D01*
X138725000Y-89625000D01*
X140650000Y-89625000D01*
X140650000Y-95375000D01*
X138725000Y-95375000D01*
X138650000Y-95450000D01*
X138650000Y-96731500D01*
X138670000Y-96731500D01*
X138670000Y-97031500D01*
X138650000Y-97031500D01*
X138650000Y-98313000D01*
X138725000Y-98388000D01*
X140650000Y-98388000D01*
X140650000Y-141965528D01*
X140594187Y-142246120D01*
X140454772Y-142454771D01*
X140246121Y-142594187D01*
X139965528Y-142650000D01*
X132829836Y-142650000D01*
X132993085Y-142487036D01*
X133099878Y-142229850D01*
X133100086Y-141990954D01*
X133870520Y-141220520D01*
X133962649Y-141082641D01*
X133995000Y-140920000D01*
X133995000Y-140678432D01*
X136218861Y-140678432D01*
X136340397Y-140972572D01*
X136565245Y-141197812D01*
X136859172Y-141319861D01*
X137177432Y-141320139D01*
X137471572Y-141198603D01*
X137696812Y-140973755D01*
X137818861Y-140679828D01*
X137818862Y-140678432D01*
X138250861Y-140678432D01*
X138372397Y-140972572D01*
X138597245Y-141197812D01*
X138891172Y-141319861D01*
X139209432Y-141320139D01*
X139503572Y-141198603D01*
X139728812Y-140973755D01*
X139850861Y-140679828D01*
X139851139Y-140361568D01*
X139729603Y-140067428D01*
X139504755Y-139842188D01*
X139210828Y-139720139D01*
X138892568Y-139719861D01*
X138598428Y-139841397D01*
X138373188Y-140066245D01*
X138251139Y-140360172D01*
X138250861Y-140678432D01*
X137818862Y-140678432D01*
X137819139Y-140361568D01*
X137697603Y-140067428D01*
X137472755Y-139842188D01*
X137178828Y-139720139D01*
X136860568Y-139719861D01*
X136566428Y-139841397D01*
X136341188Y-140066245D01*
X136219139Y-140360172D01*
X136218861Y-140678432D01*
X133995000Y-140678432D01*
X133995000Y-139184828D01*
X134163085Y-139017036D01*
X134269878Y-138759850D01*
X134270121Y-138481372D01*
X134163777Y-138224000D01*
X133967036Y-138026915D01*
X133709850Y-137920122D01*
X133431372Y-137919879D01*
X133174000Y-138026223D01*
X132976915Y-138222964D01*
X132870122Y-138480150D01*
X132869879Y-138758628D01*
X132976223Y-139016000D01*
X133145000Y-139185072D01*
X133145000Y-140743960D01*
X132498874Y-141390086D01*
X132261372Y-141389879D01*
X132004000Y-141496223D01*
X131854913Y-141645050D01*
X131707036Y-141496915D01*
X131449850Y-141390122D01*
X131210954Y-141389914D01*
X130185000Y-140363960D01*
X130185000Y-138684828D01*
X130353085Y-138517036D01*
X130459878Y-138259850D01*
X130460121Y-137981372D01*
X130353777Y-137724000D01*
X130157036Y-137526915D01*
X129899850Y-137420122D01*
X129621372Y-137419879D01*
X129364000Y-137526223D01*
X129166915Y-137722964D01*
X129060122Y-137980150D01*
X129059879Y-138258628D01*
X129166223Y-138516000D01*
X129335000Y-138685072D01*
X129335000Y-140540000D01*
X129350810Y-140619480D01*
X129367351Y-140702641D01*
X129459480Y-140840520D01*
X130610086Y-141991126D01*
X130609879Y-142228628D01*
X130716223Y-142486000D01*
X130879937Y-142650000D01*
X119034472Y-142650000D01*
X118753880Y-142594187D01*
X118545229Y-142454772D01*
X118405813Y-142246121D01*
X118350000Y-141965528D01*
X118350000Y-140757452D01*
X125199774Y-140757452D01*
X125397271Y-141235429D01*
X125762647Y-141601444D01*
X126240279Y-141799774D01*
X126757452Y-141800226D01*
X127235429Y-141602729D01*
X127601444Y-141237353D01*
X127799774Y-140759721D01*
X127800226Y-140242548D01*
X127602729Y-139764571D01*
X127237353Y-139398556D01*
X126759721Y-139200226D01*
X126242548Y-139199774D01*
X125764571Y-139397271D01*
X125398556Y-139762647D01*
X125200226Y-140240279D01*
X125199774Y-140757452D01*
X118350000Y-140757452D01*
X118350000Y-135738628D01*
X133749879Y-135738628D01*
X133856223Y-135996000D01*
X134052964Y-136193085D01*
X134310150Y-136299878D01*
X134588628Y-136300121D01*
X134846000Y-136193777D01*
X135015072Y-136025000D01*
X135885000Y-136025000D01*
X135885000Y-137415172D01*
X135716915Y-137582964D01*
X135610122Y-137840150D01*
X135609879Y-138118628D01*
X135716223Y-138376000D01*
X135912964Y-138573085D01*
X136170150Y-138679878D01*
X136448628Y-138680121D01*
X136706000Y-138573777D01*
X136903085Y-138377036D01*
X137009878Y-138119850D01*
X137010121Y-137841372D01*
X136903777Y-137584000D01*
X136735000Y-137414928D01*
X136735000Y-135690000D01*
X136734343Y-135686697D01*
X137302080Y-135118960D01*
X137235139Y-135280172D01*
X137234861Y-135598432D01*
X137356397Y-135892572D01*
X137581245Y-136117812D01*
X137875172Y-136239861D01*
X138193432Y-136240139D01*
X138487572Y-136118603D01*
X138712812Y-135893755D01*
X138834861Y-135599828D01*
X138835139Y-135281568D01*
X138713603Y-134987428D01*
X138488755Y-134762188D01*
X138194828Y-134640139D01*
X137876568Y-134639861D01*
X137714013Y-134707027D01*
X138306499Y-134114541D01*
X138338574Y-134127860D01*
X138660016Y-134128140D01*
X138957097Y-134005389D01*
X139184590Y-133778293D01*
X139307860Y-133481426D01*
X139308140Y-133159984D01*
X139185389Y-132862903D01*
X139007685Y-132684889D01*
X139184590Y-132508293D01*
X139307860Y-132211426D01*
X139308140Y-131889984D01*
X139185389Y-131592903D01*
X139007685Y-131414889D01*
X139184590Y-131238293D01*
X139307860Y-130941426D01*
X139308140Y-130619984D01*
X139185389Y-130322903D01*
X139007685Y-130144889D01*
X139184590Y-129968293D01*
X139307860Y-129671426D01*
X139308140Y-129349984D01*
X139294374Y-129316667D01*
X139725521Y-128885520D01*
X139817649Y-128747641D01*
X139850000Y-128585000D01*
X139850000Y-127645000D01*
X139817649Y-127482360D01*
X139817649Y-127482359D01*
X139725520Y-127344480D01*
X139679914Y-127298874D01*
X139680121Y-127061372D01*
X139573777Y-126804000D01*
X139377036Y-126606915D01*
X139119850Y-126500122D01*
X138880954Y-126499914D01*
X138655520Y-126274480D01*
X138517641Y-126182351D01*
X138490657Y-126176984D01*
X138355000Y-126150000D01*
X138179983Y-126150000D01*
X138180121Y-125991372D01*
X138073777Y-125734000D01*
X137877036Y-125536915D01*
X137619850Y-125430122D01*
X137341372Y-125429879D01*
X137084000Y-125536223D01*
X136886915Y-125732964D01*
X136780122Y-125990150D01*
X136779879Y-126268628D01*
X136886223Y-126526000D01*
X137082964Y-126723085D01*
X137340150Y-126829878D01*
X137579046Y-126830086D01*
X137624480Y-126875520D01*
X137761721Y-126967223D01*
X137650000Y-126945000D01*
X136999641Y-126945000D01*
X136953777Y-126834000D01*
X136757036Y-126636915D01*
X136499850Y-126530122D01*
X136221372Y-126529879D01*
X135964000Y-126636223D01*
X135766915Y-126832964D01*
X135660122Y-127090150D01*
X135659879Y-127368628D01*
X135766223Y-127626000D01*
X135962964Y-127823085D01*
X136220150Y-127929878D01*
X136483788Y-127930108D01*
X136422140Y-128078574D01*
X136421860Y-128400016D01*
X136544611Y-128697097D01*
X136714891Y-128867675D01*
X136694906Y-128932480D01*
X137230000Y-129467574D01*
X137765094Y-128932480D01*
X137745062Y-128867525D01*
X137865111Y-128747685D01*
X137992315Y-128875111D01*
X137872325Y-128994891D01*
X137807520Y-128974906D01*
X137272426Y-129510000D01*
X137807520Y-130045094D01*
X137872475Y-130025062D01*
X137992315Y-130145111D01*
X137872325Y-130264891D01*
X137807520Y-130244906D01*
X137272426Y-130780000D01*
X137807520Y-131315094D01*
X137872475Y-131295062D01*
X137992315Y-131415111D01*
X137864889Y-131542315D01*
X137745109Y-131422325D01*
X137765094Y-131357520D01*
X137230000Y-130822426D01*
X136694906Y-131357520D01*
X136714938Y-131422475D01*
X136545410Y-131591707D01*
X136422140Y-131888574D01*
X136421860Y-132210016D01*
X136544611Y-132507097D01*
X136714891Y-132677675D01*
X136694906Y-132742480D01*
X137230000Y-133277574D01*
X137765094Y-132742480D01*
X137745062Y-132677525D01*
X137865111Y-132557685D01*
X137992315Y-132685111D01*
X137872325Y-132804891D01*
X137807520Y-132784906D01*
X137272426Y-133320000D01*
X137286569Y-133334143D01*
X137244143Y-133376569D01*
X137230000Y-133362426D01*
X136694906Y-133897520D01*
X136740373Y-134044952D01*
X137045740Y-134173220D01*
X136043960Y-135175000D01*
X135014828Y-135175000D01*
X134847036Y-135006915D01*
X134589850Y-134900122D01*
X134311372Y-134899879D01*
X134054000Y-135006223D01*
X133856915Y-135202964D01*
X133750122Y-135460150D01*
X133749879Y-135738628D01*
X118350000Y-135738628D01*
X118350000Y-133486400D01*
X136371163Y-133486400D01*
X136500217Y-133802396D01*
X136505048Y-133809627D01*
X136652480Y-133855094D01*
X137187574Y-133320000D01*
X136652480Y-132784906D01*
X136505048Y-132830373D01*
X136372860Y-133145071D01*
X136371163Y-133486400D01*
X118350000Y-133486400D01*
X118350000Y-130946400D01*
X136371163Y-130946400D01*
X136500217Y-131262396D01*
X136505048Y-131269627D01*
X136652480Y-131315094D01*
X137187574Y-130780000D01*
X136652480Y-130244906D01*
X136505048Y-130290373D01*
X136372860Y-130605071D01*
X136371163Y-130946400D01*
X118350000Y-130946400D01*
X118350000Y-130087520D01*
X136694906Y-130087520D01*
X136712632Y-130145000D01*
X136694906Y-130202480D01*
X137230000Y-130737574D01*
X137765094Y-130202480D01*
X137747368Y-130145000D01*
X137765094Y-130087520D01*
X137230000Y-129552426D01*
X136694906Y-130087520D01*
X118350000Y-130087520D01*
X118350000Y-129676400D01*
X136371163Y-129676400D01*
X136500217Y-129992396D01*
X136505048Y-129999627D01*
X136652480Y-130045094D01*
X137187574Y-129510000D01*
X136652480Y-128974906D01*
X136505048Y-129020373D01*
X136372860Y-129335071D01*
X136371163Y-129676400D01*
X118350000Y-129676400D01*
X118350000Y-125478628D01*
X125779879Y-125478628D01*
X125886223Y-125736000D01*
X126082964Y-125933085D01*
X126340150Y-126039878D01*
X126570000Y-126040079D01*
X126569879Y-126178628D01*
X126676223Y-126436000D01*
X126872964Y-126633085D01*
X127130150Y-126739878D01*
X127408628Y-126740121D01*
X127666000Y-126633777D01*
X127863085Y-126437036D01*
X127969878Y-126179850D01*
X127970121Y-125901372D01*
X127863777Y-125644000D01*
X127675000Y-125454893D01*
X127675000Y-123751040D01*
X128901237Y-122524803D01*
X128820122Y-122720150D01*
X128819879Y-122998628D01*
X128926223Y-123256000D01*
X129122964Y-123453085D01*
X129380150Y-123559878D01*
X129658628Y-123560121D01*
X129916000Y-123453777D01*
X130085072Y-123285000D01*
X130113960Y-123285000D01*
X132064443Y-125235484D01*
X132036915Y-125262964D01*
X131930122Y-125520150D01*
X131929879Y-125798628D01*
X132036223Y-126056000D01*
X132232964Y-126253085D01*
X132490150Y-126359878D01*
X132768628Y-126360121D01*
X133026000Y-126253777D01*
X133223085Y-126057036D01*
X133329878Y-125799850D01*
X133330121Y-125521372D01*
X133223777Y-125264000D01*
X133028899Y-125068781D01*
X133022649Y-125037360D01*
X133022649Y-125037359D01*
X132930521Y-124899480D01*
X132226041Y-124195000D01*
X133335172Y-124195000D01*
X133502964Y-124363085D01*
X133760150Y-124469878D01*
X134038628Y-124470121D01*
X134296000Y-124363777D01*
X134493085Y-124167036D01*
X134599878Y-123909850D01*
X134600121Y-123631372D01*
X134493777Y-123374000D01*
X134297036Y-123176915D01*
X134039850Y-123070122D01*
X133761372Y-123069879D01*
X133504000Y-123176223D01*
X133334928Y-123345000D01*
X132954692Y-123345000D01*
X133039878Y-123139850D01*
X133040035Y-122959948D01*
X133238628Y-122960121D01*
X133496000Y-122853777D01*
X133693085Y-122657036D01*
X133799878Y-122399850D01*
X133800121Y-122121372D01*
X133693777Y-121864000D01*
X133497036Y-121666915D01*
X133239850Y-121560122D01*
X133000954Y-121559914D01*
X132016040Y-120575000D01*
X137875511Y-120575000D01*
X137936407Y-120881147D01*
X138109826Y-121140685D01*
X138369364Y-121314104D01*
X138675511Y-121375000D01*
X139624489Y-121375000D01*
X139930636Y-121314104D01*
X140190174Y-121140685D01*
X140363593Y-120881147D01*
X140424489Y-120575000D01*
X140363593Y-120268853D01*
X140190174Y-120009315D01*
X139930636Y-119835896D01*
X139624489Y-119775000D01*
X138675511Y-119775000D01*
X138369364Y-119835896D01*
X138109826Y-120009315D01*
X137936407Y-120268853D01*
X137875511Y-120575000D01*
X132016040Y-120575000D01*
X131915000Y-120473960D01*
X131915000Y-119944828D01*
X132083085Y-119777036D01*
X132189878Y-119519850D01*
X132190121Y-119241372D01*
X132083777Y-118984000D01*
X131887036Y-118786915D01*
X131629850Y-118680122D01*
X131351372Y-118679879D01*
X131094000Y-118786223D01*
X130896915Y-118982964D01*
X130790122Y-119240150D01*
X130789974Y-119410052D01*
X130591372Y-119409879D01*
X130334000Y-119516223D01*
X130136915Y-119712964D01*
X130030122Y-119970150D01*
X130029879Y-120248628D01*
X130136223Y-120506000D01*
X130305000Y-120675072D01*
X130305000Y-121390000D01*
X130312966Y-121430046D01*
X130121372Y-121429879D01*
X129864000Y-121536223D01*
X129666915Y-121732964D01*
X129560122Y-121990150D01*
X129559974Y-122160035D01*
X129381372Y-122159879D01*
X129185038Y-122241003D01*
X129340520Y-122085521D01*
X129416476Y-121971844D01*
X129436000Y-121963777D01*
X129633085Y-121767036D01*
X129739878Y-121509850D01*
X129740121Y-121231372D01*
X129633777Y-120974000D01*
X129437036Y-120776915D01*
X129179850Y-120670122D01*
X128901372Y-120669879D01*
X128644000Y-120776223D01*
X128446915Y-120972964D01*
X128398891Y-121088619D01*
X128209850Y-121010122D01*
X127931372Y-121009879D01*
X127674000Y-121116223D01*
X127476915Y-121312964D01*
X127370122Y-121570150D01*
X127369879Y-121848628D01*
X127408021Y-121940939D01*
X126299480Y-123049480D01*
X126207351Y-123187359D01*
X126201984Y-123214343D01*
X126175000Y-123350000D01*
X126175000Y-124708623D01*
X126084000Y-124746223D01*
X125886915Y-124942964D01*
X125780122Y-125200150D01*
X125779879Y-125478628D01*
X118350000Y-125478628D01*
X118350000Y-123479598D01*
X118442144Y-123571903D01*
X118690145Y-123674883D01*
X118958677Y-123675117D01*
X119206857Y-123572571D01*
X119396903Y-123382856D01*
X119473401Y-123198628D01*
X121299879Y-123198628D01*
X121406223Y-123456000D01*
X121602964Y-123653085D01*
X121860150Y-123759878D01*
X122138628Y-123760121D01*
X122396000Y-123653777D01*
X122593085Y-123457036D01*
X122699878Y-123199850D01*
X122700121Y-122921372D01*
X122593777Y-122664000D01*
X122500000Y-122570059D01*
X122500000Y-122086396D01*
X123946451Y-120639945D01*
X124148628Y-120640121D01*
X124406000Y-120533777D01*
X124603085Y-120337036D01*
X124709878Y-120079850D01*
X124710121Y-119801372D01*
X124603777Y-119544000D01*
X124407036Y-119346915D01*
X124149850Y-119240122D01*
X123871372Y-119239879D01*
X123614000Y-119346223D01*
X123416915Y-119542964D01*
X123310122Y-119800150D01*
X123309944Y-120003660D01*
X121731802Y-121581802D01*
X121634254Y-121727792D01*
X121600000Y-121900000D01*
X121600000Y-122470216D01*
X121406915Y-122662964D01*
X121300122Y-122920150D01*
X121299879Y-123198628D01*
X119473401Y-123198628D01*
X119499883Y-123134855D01*
X119500117Y-122866323D01*
X119397571Y-122618143D01*
X119207856Y-122428097D01*
X118959855Y-122325117D01*
X118691323Y-122324883D01*
X118443143Y-122427429D01*
X118350000Y-122520410D01*
X118350000Y-118625000D01*
X135206878Y-118625000D01*
X135267774Y-118931147D01*
X135441193Y-119190685D01*
X135700731Y-119364104D01*
X136006878Y-119425000D01*
X136293122Y-119425000D01*
X136599269Y-119364104D01*
X136858807Y-119190685D01*
X137032226Y-118931147D01*
X137093122Y-118625000D01*
X137032226Y-118318853D01*
X136858807Y-118059315D01*
X136599269Y-117885896D01*
X136293122Y-117825000D01*
X136006878Y-117825000D01*
X135700731Y-117885896D01*
X135441193Y-118059315D01*
X135267774Y-118318853D01*
X135206878Y-118625000D01*
X118350000Y-118625000D01*
X118350000Y-113548628D01*
X123759879Y-113548628D01*
X123866223Y-113806000D01*
X124052677Y-113992780D01*
X123928097Y-114117144D01*
X123825117Y-114365145D01*
X123824883Y-114633677D01*
X123927429Y-114881857D01*
X124117144Y-115071903D01*
X124365145Y-115174883D01*
X124633677Y-115175117D01*
X124881857Y-115072571D01*
X125071903Y-114882856D01*
X125174883Y-114634855D01*
X125175117Y-114366323D01*
X125096064Y-114175000D01*
X135206878Y-114175000D01*
X135267774Y-114481147D01*
X135441193Y-114740685D01*
X135700731Y-114914104D01*
X136006878Y-114975000D01*
X136293122Y-114975000D01*
X136599269Y-114914104D01*
X136858807Y-114740685D01*
X137032226Y-114481147D01*
X137093122Y-114175000D01*
X137032226Y-113868853D01*
X136858807Y-113609315D01*
X136599269Y-113435896D01*
X136293122Y-113375000D01*
X136006878Y-113375000D01*
X135700731Y-113435896D01*
X135441193Y-113609315D01*
X135267774Y-113868853D01*
X135206878Y-114175000D01*
X125096064Y-114175000D01*
X125072571Y-114118143D01*
X124907291Y-113952575D01*
X125025072Y-113835000D01*
X127065155Y-113835000D01*
X127222964Y-113993085D01*
X127480150Y-114099878D01*
X127758628Y-114100121D01*
X128016000Y-113993777D01*
X128213085Y-113797036D01*
X128319878Y-113539850D01*
X128320121Y-113261372D01*
X128213777Y-113004000D01*
X128017036Y-112806915D01*
X127759850Y-112700122D01*
X127481372Y-112699879D01*
X127224000Y-112806223D01*
X127044910Y-112985000D01*
X125024828Y-112985000D01*
X124857036Y-112816915D01*
X124599850Y-112710122D01*
X124321372Y-112709879D01*
X124064000Y-112816223D01*
X123866915Y-113012964D01*
X123760122Y-113270150D01*
X123759879Y-113548628D01*
X118350000Y-113548628D01*
X118350000Y-112225000D01*
X137875511Y-112225000D01*
X137936407Y-112531147D01*
X138109826Y-112790685D01*
X138369364Y-112964104D01*
X138675511Y-113025000D01*
X139624489Y-113025000D01*
X139930636Y-112964104D01*
X140190174Y-112790685D01*
X140363593Y-112531147D01*
X140424489Y-112225000D01*
X140363593Y-111918853D01*
X140190174Y-111659315D01*
X139930636Y-111485896D01*
X139624489Y-111425000D01*
X138675511Y-111425000D01*
X138369364Y-111485896D01*
X138109826Y-111659315D01*
X137936407Y-111918853D01*
X137875511Y-112225000D01*
X118350000Y-112225000D01*
X118350000Y-106018628D01*
X123039879Y-106018628D01*
X123146223Y-106276000D01*
X123342964Y-106473085D01*
X123600150Y-106579878D01*
X123878628Y-106580121D01*
X124136000Y-106473777D01*
X124305072Y-106305000D01*
X126080057Y-106305000D01*
X126079879Y-106508628D01*
X126186223Y-106766000D01*
X126382964Y-106963085D01*
X126640150Y-107069878D01*
X126918628Y-107070121D01*
X127176000Y-106963777D01*
X127373085Y-106767036D01*
X127479878Y-106509850D01*
X127480121Y-106231372D01*
X127373777Y-105974000D01*
X127177036Y-105776915D01*
X126919850Y-105670122D01*
X126680954Y-105669914D01*
X126590520Y-105579480D01*
X126452641Y-105487351D01*
X126425657Y-105481984D01*
X126290000Y-105455000D01*
X124304828Y-105455000D01*
X124137036Y-105286915D01*
X123879850Y-105180122D01*
X123601372Y-105179879D01*
X123344000Y-105286223D01*
X123146915Y-105482964D01*
X123040122Y-105740150D01*
X123039879Y-106018628D01*
X118350000Y-106018628D01*
X118350000Y-104580000D01*
X134884123Y-104580000D01*
X134884123Y-106580000D01*
X134905042Y-106691173D01*
X134970745Y-106793279D01*
X135070997Y-106861778D01*
X135190000Y-106885877D01*
X137190000Y-106885877D01*
X137301173Y-106864958D01*
X137403279Y-106799255D01*
X137471778Y-106699003D01*
X137495877Y-106580000D01*
X137495877Y-105997433D01*
X137627271Y-106315429D01*
X137992647Y-106681444D01*
X138470279Y-106879774D01*
X138987452Y-106880226D01*
X139465429Y-106682729D01*
X139831444Y-106317353D01*
X140029774Y-105839721D01*
X140030226Y-105322548D01*
X139832729Y-104844571D01*
X139467353Y-104478556D01*
X138989721Y-104280226D01*
X138472548Y-104279774D01*
X137994571Y-104477271D01*
X137628556Y-104842647D01*
X137495877Y-105162174D01*
X137495877Y-104580000D01*
X137474958Y-104468827D01*
X137409255Y-104366721D01*
X137309003Y-104298222D01*
X137190000Y-104274123D01*
X135190000Y-104274123D01*
X135078827Y-104295042D01*
X134976721Y-104360745D01*
X134908222Y-104460997D01*
X134884123Y-104580000D01*
X118350000Y-104580000D01*
X118350000Y-102517647D01*
X134429793Y-102517647D01*
X134612097Y-102958857D01*
X134949367Y-103296717D01*
X135390258Y-103479791D01*
X135867647Y-103480207D01*
X136308857Y-103297903D01*
X136576955Y-103030273D01*
X138172153Y-103030273D01*
X138265352Y-103218431D01*
X138721729Y-103415935D01*
X139218949Y-103423756D01*
X139681314Y-103240705D01*
X139714648Y-103218431D01*
X139807847Y-103030273D01*
X138990000Y-102212426D01*
X138172153Y-103030273D01*
X136576955Y-103030273D01*
X136646717Y-102960633D01*
X136829791Y-102519742D01*
X136829896Y-102398949D01*
X137736244Y-102398949D01*
X137919295Y-102861314D01*
X137941569Y-102894648D01*
X138129727Y-102987847D01*
X138947574Y-102170000D01*
X139032426Y-102170000D01*
X139850273Y-102987847D01*
X140038431Y-102894648D01*
X140235935Y-102438271D01*
X140243756Y-101941051D01*
X140060705Y-101478686D01*
X140038431Y-101445352D01*
X139850273Y-101352153D01*
X139032426Y-102170000D01*
X138947574Y-102170000D01*
X138129727Y-101352153D01*
X137941569Y-101445352D01*
X137744065Y-101901729D01*
X137736244Y-102398949D01*
X136829896Y-102398949D01*
X136830207Y-102042353D01*
X136647903Y-101601143D01*
X136356996Y-101309727D01*
X138172153Y-101309727D01*
X138990000Y-102127574D01*
X139807847Y-101309727D01*
X139714648Y-101121569D01*
X139258271Y-100924065D01*
X138761051Y-100916244D01*
X138298686Y-101099295D01*
X138265352Y-101121569D01*
X138172153Y-101309727D01*
X136356996Y-101309727D01*
X136310633Y-101263283D01*
X135869742Y-101080209D01*
X135392353Y-101079793D01*
X134951143Y-101262097D01*
X134613283Y-101599367D01*
X134430209Y-102040258D01*
X134429793Y-102517647D01*
X118350000Y-102517647D01*
X118350000Y-97106500D01*
X135660000Y-97106500D01*
X135660000Y-98147674D01*
X135705672Y-98257937D01*
X135790064Y-98342328D01*
X135900327Y-98388000D01*
X138275000Y-98388000D01*
X138350000Y-98313000D01*
X138350000Y-97031500D01*
X135735000Y-97031500D01*
X135660000Y-97106500D01*
X118350000Y-97106500D01*
X118350000Y-95615326D01*
X135660000Y-95615326D01*
X135660000Y-96656500D01*
X135735000Y-96731500D01*
X138350000Y-96731500D01*
X138350000Y-95450000D01*
X138275000Y-95375000D01*
X135900327Y-95375000D01*
X135790064Y-95420672D01*
X135705672Y-95505063D01*
X135660000Y-95615326D01*
X118350000Y-95615326D01*
X118350000Y-92737647D01*
X135549793Y-92737647D01*
X135732097Y-93178857D01*
X136069367Y-93516717D01*
X136510258Y-93699791D01*
X136987647Y-93700207D01*
X137428857Y-93517903D01*
X137766717Y-93180633D01*
X137949791Y-92739742D01*
X137950207Y-92262353D01*
X137767903Y-91821143D01*
X137430633Y-91483283D01*
X136989742Y-91300209D01*
X136512353Y-91299793D01*
X136071143Y-91482097D01*
X135733283Y-91819367D01*
X135550209Y-92260258D01*
X135549793Y-92737647D01*
X118350000Y-92737647D01*
X118350000Y-89432390D01*
X125610036Y-89432390D01*
X125715406Y-89630939D01*
X126207921Y-89845102D01*
X126744903Y-89854486D01*
X127244600Y-89657662D01*
X127284594Y-89630939D01*
X127389964Y-89432390D01*
X126500000Y-88542426D01*
X125610036Y-89432390D01*
X118350000Y-89432390D01*
X118350000Y-88744903D01*
X125145514Y-88744903D01*
X125342338Y-89244600D01*
X125369061Y-89284594D01*
X125567610Y-89389964D01*
X126457574Y-88500000D01*
X126542426Y-88500000D01*
X127432390Y-89389964D01*
X127630939Y-89284594D01*
X127845102Y-88792079D01*
X127852941Y-88343500D01*
X135660000Y-88343500D01*
X135660000Y-89384674D01*
X135705672Y-89494937D01*
X135790064Y-89579328D01*
X135900327Y-89625000D01*
X138275000Y-89625000D01*
X138350000Y-89550000D01*
X138350000Y-88268500D01*
X135735000Y-88268500D01*
X135660000Y-88343500D01*
X127852941Y-88343500D01*
X127854486Y-88255097D01*
X127657662Y-87755400D01*
X127630939Y-87715406D01*
X127432390Y-87610036D01*
X126542426Y-88500000D01*
X126457574Y-88500000D01*
X125567610Y-87610036D01*
X125369061Y-87715406D01*
X125154898Y-88207921D01*
X125145514Y-88744903D01*
X118350000Y-88744903D01*
X118350000Y-87567610D01*
X125610036Y-87567610D01*
X126500000Y-88457574D01*
X127389964Y-87567610D01*
X127284594Y-87369061D01*
X126792079Y-87154898D01*
X126255097Y-87145514D01*
X125755400Y-87342338D01*
X125715406Y-87369061D01*
X125610036Y-87567610D01*
X118350000Y-87567610D01*
X118350000Y-87034472D01*
X118386230Y-86852326D01*
X135660000Y-86852326D01*
X135660000Y-87893500D01*
X135735000Y-87968500D01*
X138350000Y-87968500D01*
X138350000Y-86687000D01*
X138275000Y-86612000D01*
X135900327Y-86612000D01*
X135790064Y-86657672D01*
X135705672Y-86742063D01*
X135660000Y-86852326D01*
X118386230Y-86852326D01*
X118405813Y-86753879D01*
X118545229Y-86545228D01*
X118753880Y-86405813D01*
X119034472Y-86350000D01*
X139965528Y-86350000D01*
X140246121Y-86405813D01*
X140246121Y-86405813D01*
G37*
X140246121Y-86405813D02*
X140454772Y-86545229D01*
X140499386Y-86612000D01*
X138725000Y-86612000D01*
X138650000Y-86687000D01*
X138650000Y-87968500D01*
X138670000Y-87968500D01*
X138670000Y-88268500D01*
X138650000Y-88268500D01*
X138650000Y-89550000D01*
X138725000Y-89625000D01*
X140650000Y-89625000D01*
X140650000Y-95375000D01*
X138725000Y-95375000D01*
X138650000Y-95450000D01*
X138650000Y-96731500D01*
X138670000Y-96731500D01*
X138670000Y-97031500D01*
X138650000Y-97031500D01*
X138650000Y-98313000D01*
X138725000Y-98388000D01*
X140650000Y-98388000D01*
X140650000Y-141965528D01*
X140594187Y-142246120D01*
X140454772Y-142454771D01*
X140246121Y-142594187D01*
X139965528Y-142650000D01*
X132829836Y-142650000D01*
X132993085Y-142487036D01*
X133099878Y-142229850D01*
X133100086Y-141990954D01*
X133870520Y-141220520D01*
X133962649Y-141082641D01*
X133995000Y-140920000D01*
X133995000Y-140678432D01*
X136218861Y-140678432D01*
X136340397Y-140972572D01*
X136565245Y-141197812D01*
X136859172Y-141319861D01*
X137177432Y-141320139D01*
X137471572Y-141198603D01*
X137696812Y-140973755D01*
X137818861Y-140679828D01*
X137818862Y-140678432D01*
X138250861Y-140678432D01*
X138372397Y-140972572D01*
X138597245Y-141197812D01*
X138891172Y-141319861D01*
X139209432Y-141320139D01*
X139503572Y-141198603D01*
X139728812Y-140973755D01*
X139850861Y-140679828D01*
X139851139Y-140361568D01*
X139729603Y-140067428D01*
X139504755Y-139842188D01*
X139210828Y-139720139D01*
X138892568Y-139719861D01*
X138598428Y-139841397D01*
X138373188Y-140066245D01*
X138251139Y-140360172D01*
X138250861Y-140678432D01*
X137818862Y-140678432D01*
X137819139Y-140361568D01*
X137697603Y-140067428D01*
X137472755Y-139842188D01*
X137178828Y-139720139D01*
X136860568Y-139719861D01*
X136566428Y-139841397D01*
X136341188Y-140066245D01*
X136219139Y-140360172D01*
X136218861Y-140678432D01*
X133995000Y-140678432D01*
X133995000Y-139184828D01*
X134163085Y-139017036D01*
X134269878Y-138759850D01*
X134270121Y-138481372D01*
X134163777Y-138224000D01*
X133967036Y-138026915D01*
X133709850Y-137920122D01*
X133431372Y-137919879D01*
X133174000Y-138026223D01*
X132976915Y-138222964D01*
X132870122Y-138480150D01*
X132869879Y-138758628D01*
X132976223Y-139016000D01*
X133145000Y-139185072D01*
X133145000Y-140743960D01*
X132498874Y-141390086D01*
X132261372Y-141389879D01*
X132004000Y-141496223D01*
X131854913Y-141645050D01*
X131707036Y-141496915D01*
X131449850Y-141390122D01*
X131210954Y-141389914D01*
X130185000Y-140363960D01*
X130185000Y-138684828D01*
X130353085Y-138517036D01*
X130459878Y-138259850D01*
X130460121Y-137981372D01*
X130353777Y-137724000D01*
X130157036Y-137526915D01*
X129899850Y-137420122D01*
X129621372Y-137419879D01*
X129364000Y-137526223D01*
X129166915Y-137722964D01*
X129060122Y-137980150D01*
X129059879Y-138258628D01*
X129166223Y-138516000D01*
X129335000Y-138685072D01*
X129335000Y-140540000D01*
X129350810Y-140619480D01*
X129367351Y-140702641D01*
X129459480Y-140840520D01*
X130610086Y-141991126D01*
X130609879Y-142228628D01*
X130716223Y-142486000D01*
X130879937Y-142650000D01*
X119034472Y-142650000D01*
X118753880Y-142594187D01*
X118545229Y-142454772D01*
X118405813Y-142246121D01*
X118350000Y-141965528D01*
X118350000Y-140757452D01*
X125199774Y-140757452D01*
X125397271Y-141235429D01*
X125762647Y-141601444D01*
X126240279Y-141799774D01*
X126757452Y-141800226D01*
X127235429Y-141602729D01*
X127601444Y-141237353D01*
X127799774Y-140759721D01*
X127800226Y-140242548D01*
X127602729Y-139764571D01*
X127237353Y-139398556D01*
X126759721Y-139200226D01*
X126242548Y-139199774D01*
X125764571Y-139397271D01*
X125398556Y-139762647D01*
X125200226Y-140240279D01*
X125199774Y-140757452D01*
X118350000Y-140757452D01*
X118350000Y-135738628D01*
X133749879Y-135738628D01*
X133856223Y-135996000D01*
X134052964Y-136193085D01*
X134310150Y-136299878D01*
X134588628Y-136300121D01*
X134846000Y-136193777D01*
X135015072Y-136025000D01*
X135885000Y-136025000D01*
X135885000Y-137415172D01*
X135716915Y-137582964D01*
X135610122Y-137840150D01*
X135609879Y-138118628D01*
X135716223Y-138376000D01*
X135912964Y-138573085D01*
X136170150Y-138679878D01*
X136448628Y-138680121D01*
X136706000Y-138573777D01*
X136903085Y-138377036D01*
X137009878Y-138119850D01*
X137010121Y-137841372D01*
X136903777Y-137584000D01*
X136735000Y-137414928D01*
X136735000Y-135690000D01*
X136734343Y-135686697D01*
X137302080Y-135118960D01*
X137235139Y-135280172D01*
X137234861Y-135598432D01*
X137356397Y-135892572D01*
X137581245Y-136117812D01*
X137875172Y-136239861D01*
X138193432Y-136240139D01*
X138487572Y-136118603D01*
X138712812Y-135893755D01*
X138834861Y-135599828D01*
X138835139Y-135281568D01*
X138713603Y-134987428D01*
X138488755Y-134762188D01*
X138194828Y-134640139D01*
X137876568Y-134639861D01*
X137714013Y-134707027D01*
X138306499Y-134114541D01*
X138338574Y-134127860D01*
X138660016Y-134128140D01*
X138957097Y-134005389D01*
X139184590Y-133778293D01*
X139307860Y-133481426D01*
X139308140Y-133159984D01*
X139185389Y-132862903D01*
X139007685Y-132684889D01*
X139184590Y-132508293D01*
X139307860Y-132211426D01*
X139308140Y-131889984D01*
X139185389Y-131592903D01*
X139007685Y-131414889D01*
X139184590Y-131238293D01*
X139307860Y-130941426D01*
X139308140Y-130619984D01*
X139185389Y-130322903D01*
X139007685Y-130144889D01*
X139184590Y-129968293D01*
X139307860Y-129671426D01*
X139308140Y-129349984D01*
X139294374Y-129316667D01*
X139725521Y-128885520D01*
X139817649Y-128747641D01*
X139850000Y-128585000D01*
X139850000Y-127645000D01*
X139817649Y-127482360D01*
X139817649Y-127482359D01*
X139725520Y-127344480D01*
X139679914Y-127298874D01*
X139680121Y-127061372D01*
X139573777Y-126804000D01*
X139377036Y-126606915D01*
X139119850Y-126500122D01*
X138880954Y-126499914D01*
X138655520Y-126274480D01*
X138517641Y-126182351D01*
X138490657Y-126176984D01*
X138355000Y-126150000D01*
X138179983Y-126150000D01*
X138180121Y-125991372D01*
X138073777Y-125734000D01*
X137877036Y-125536915D01*
X137619850Y-125430122D01*
X137341372Y-125429879D01*
X137084000Y-125536223D01*
X136886915Y-125732964D01*
X136780122Y-125990150D01*
X136779879Y-126268628D01*
X136886223Y-126526000D01*
X137082964Y-126723085D01*
X137340150Y-126829878D01*
X137579046Y-126830086D01*
X137624480Y-126875520D01*
X137761721Y-126967223D01*
X137650000Y-126945000D01*
X136999641Y-126945000D01*
X136953777Y-126834000D01*
X136757036Y-126636915D01*
X136499850Y-126530122D01*
X136221372Y-126529879D01*
X135964000Y-126636223D01*
X135766915Y-126832964D01*
X135660122Y-127090150D01*
X135659879Y-127368628D01*
X135766223Y-127626000D01*
X135962964Y-127823085D01*
X136220150Y-127929878D01*
X136483788Y-127930108D01*
X136422140Y-128078574D01*
X136421860Y-128400016D01*
X136544611Y-128697097D01*
X136714891Y-128867675D01*
X136694906Y-128932480D01*
X137230000Y-129467574D01*
X137765094Y-128932480D01*
X137745062Y-128867525D01*
X137865111Y-128747685D01*
X137992315Y-128875111D01*
X137872325Y-128994891D01*
X137807520Y-128974906D01*
X137272426Y-129510000D01*
X137807520Y-130045094D01*
X137872475Y-130025062D01*
X137992315Y-130145111D01*
X137872325Y-130264891D01*
X137807520Y-130244906D01*
X137272426Y-130780000D01*
X137807520Y-131315094D01*
X137872475Y-131295062D01*
X137992315Y-131415111D01*
X137864889Y-131542315D01*
X137745109Y-131422325D01*
X137765094Y-131357520D01*
X137230000Y-130822426D01*
X136694906Y-131357520D01*
X136714938Y-131422475D01*
X136545410Y-131591707D01*
X136422140Y-131888574D01*
X136421860Y-132210016D01*
X136544611Y-132507097D01*
X136714891Y-132677675D01*
X136694906Y-132742480D01*
X137230000Y-133277574D01*
X137765094Y-132742480D01*
X137745062Y-132677525D01*
X137865111Y-132557685D01*
X137992315Y-132685111D01*
X137872325Y-132804891D01*
X137807520Y-132784906D01*
X137272426Y-133320000D01*
X137286569Y-133334143D01*
X137244143Y-133376569D01*
X137230000Y-133362426D01*
X136694906Y-133897520D01*
X136740373Y-134044952D01*
X137045740Y-134173220D01*
X136043960Y-135175000D01*
X135014828Y-135175000D01*
X134847036Y-135006915D01*
X134589850Y-134900122D01*
X134311372Y-134899879D01*
X134054000Y-135006223D01*
X133856915Y-135202964D01*
X133750122Y-135460150D01*
X133749879Y-135738628D01*
X118350000Y-135738628D01*
X118350000Y-133486400D01*
X136371163Y-133486400D01*
X136500217Y-133802396D01*
X136505048Y-133809627D01*
X136652480Y-133855094D01*
X137187574Y-133320000D01*
X136652480Y-132784906D01*
X136505048Y-132830373D01*
X136372860Y-133145071D01*
X136371163Y-133486400D01*
X118350000Y-133486400D01*
X118350000Y-130946400D01*
X136371163Y-130946400D01*
X136500217Y-131262396D01*
X136505048Y-131269627D01*
X136652480Y-131315094D01*
X137187574Y-130780000D01*
X136652480Y-130244906D01*
X136505048Y-130290373D01*
X136372860Y-130605071D01*
X136371163Y-130946400D01*
X118350000Y-130946400D01*
X118350000Y-130087520D01*
X136694906Y-130087520D01*
X136712632Y-130145000D01*
X136694906Y-130202480D01*
X137230000Y-130737574D01*
X137765094Y-130202480D01*
X137747368Y-130145000D01*
X137765094Y-130087520D01*
X137230000Y-129552426D01*
X136694906Y-130087520D01*
X118350000Y-130087520D01*
X118350000Y-129676400D01*
X136371163Y-129676400D01*
X136500217Y-129992396D01*
X136505048Y-129999627D01*
X136652480Y-130045094D01*
X137187574Y-129510000D01*
X136652480Y-128974906D01*
X136505048Y-129020373D01*
X136372860Y-129335071D01*
X136371163Y-129676400D01*
X118350000Y-129676400D01*
X118350000Y-125478628D01*
X125779879Y-125478628D01*
X125886223Y-125736000D01*
X126082964Y-125933085D01*
X126340150Y-126039878D01*
X126570000Y-126040079D01*
X126569879Y-126178628D01*
X126676223Y-126436000D01*
X126872964Y-126633085D01*
X127130150Y-126739878D01*
X127408628Y-126740121D01*
X127666000Y-126633777D01*
X127863085Y-126437036D01*
X127969878Y-126179850D01*
X127970121Y-125901372D01*
X127863777Y-125644000D01*
X127675000Y-125454893D01*
X127675000Y-123751040D01*
X128901237Y-122524803D01*
X128820122Y-122720150D01*
X128819879Y-122998628D01*
X128926223Y-123256000D01*
X129122964Y-123453085D01*
X129380150Y-123559878D01*
X129658628Y-123560121D01*
X129916000Y-123453777D01*
X130085072Y-123285000D01*
X130113960Y-123285000D01*
X132064443Y-125235484D01*
X132036915Y-125262964D01*
X131930122Y-125520150D01*
X131929879Y-125798628D01*
X132036223Y-126056000D01*
X132232964Y-126253085D01*
X132490150Y-126359878D01*
X132768628Y-126360121D01*
X133026000Y-126253777D01*
X133223085Y-126057036D01*
X133329878Y-125799850D01*
X133330121Y-125521372D01*
X133223777Y-125264000D01*
X133028899Y-125068781D01*
X133022649Y-125037360D01*
X133022649Y-125037359D01*
X132930521Y-124899480D01*
X132226041Y-124195000D01*
X133335172Y-124195000D01*
X133502964Y-124363085D01*
X133760150Y-124469878D01*
X134038628Y-124470121D01*
X134296000Y-124363777D01*
X134493085Y-124167036D01*
X134599878Y-123909850D01*
X134600121Y-123631372D01*
X134493777Y-123374000D01*
X134297036Y-123176915D01*
X134039850Y-123070122D01*
X133761372Y-123069879D01*
X133504000Y-123176223D01*
X133334928Y-123345000D01*
X132954692Y-123345000D01*
X133039878Y-123139850D01*
X133040035Y-122959948D01*
X133238628Y-122960121D01*
X133496000Y-122853777D01*
X133693085Y-122657036D01*
X133799878Y-122399850D01*
X133800121Y-122121372D01*
X133693777Y-121864000D01*
X133497036Y-121666915D01*
X133239850Y-121560122D01*
X133000954Y-121559914D01*
X132016040Y-120575000D01*
X137875511Y-120575000D01*
X137936407Y-120881147D01*
X138109826Y-121140685D01*
X138369364Y-121314104D01*
X138675511Y-121375000D01*
X139624489Y-121375000D01*
X139930636Y-121314104D01*
X140190174Y-121140685D01*
X140363593Y-120881147D01*
X140424489Y-120575000D01*
X140363593Y-120268853D01*
X140190174Y-120009315D01*
X139930636Y-119835896D01*
X139624489Y-119775000D01*
X138675511Y-119775000D01*
X138369364Y-119835896D01*
X138109826Y-120009315D01*
X137936407Y-120268853D01*
X137875511Y-120575000D01*
X132016040Y-120575000D01*
X131915000Y-120473960D01*
X131915000Y-119944828D01*
X132083085Y-119777036D01*
X132189878Y-119519850D01*
X132190121Y-119241372D01*
X132083777Y-118984000D01*
X131887036Y-118786915D01*
X131629850Y-118680122D01*
X131351372Y-118679879D01*
X131094000Y-118786223D01*
X130896915Y-118982964D01*
X130790122Y-119240150D01*
X130789974Y-119410052D01*
X130591372Y-119409879D01*
X130334000Y-119516223D01*
X130136915Y-119712964D01*
X130030122Y-119970150D01*
X130029879Y-120248628D01*
X130136223Y-120506000D01*
X130305000Y-120675072D01*
X130305000Y-121390000D01*
X130312966Y-121430046D01*
X130121372Y-121429879D01*
X129864000Y-121536223D01*
X129666915Y-121732964D01*
X129560122Y-121990150D01*
X129559974Y-122160035D01*
X129381372Y-122159879D01*
X129185038Y-122241003D01*
X129340520Y-122085521D01*
X129416476Y-121971844D01*
X129436000Y-121963777D01*
X129633085Y-121767036D01*
X129739878Y-121509850D01*
X129740121Y-121231372D01*
X129633777Y-120974000D01*
X129437036Y-120776915D01*
X129179850Y-120670122D01*
X128901372Y-120669879D01*
X128644000Y-120776223D01*
X128446915Y-120972964D01*
X128398891Y-121088619D01*
X128209850Y-121010122D01*
X127931372Y-121009879D01*
X127674000Y-121116223D01*
X127476915Y-121312964D01*
X127370122Y-121570150D01*
X127369879Y-121848628D01*
X127408021Y-121940939D01*
X126299480Y-123049480D01*
X126207351Y-123187359D01*
X126201984Y-123214343D01*
X126175000Y-123350000D01*
X126175000Y-124708623D01*
X126084000Y-124746223D01*
X125886915Y-124942964D01*
X125780122Y-125200150D01*
X125779879Y-125478628D01*
X118350000Y-125478628D01*
X118350000Y-123479598D01*
X118442144Y-123571903D01*
X118690145Y-123674883D01*
X118958677Y-123675117D01*
X119206857Y-123572571D01*
X119396903Y-123382856D01*
X119473401Y-123198628D01*
X121299879Y-123198628D01*
X121406223Y-123456000D01*
X121602964Y-123653085D01*
X121860150Y-123759878D01*
X122138628Y-123760121D01*
X122396000Y-123653777D01*
X122593085Y-123457036D01*
X122699878Y-123199850D01*
X122700121Y-122921372D01*
X122593777Y-122664000D01*
X122500000Y-122570059D01*
X122500000Y-122086396D01*
X123946451Y-120639945D01*
X124148628Y-120640121D01*
X124406000Y-120533777D01*
X124603085Y-120337036D01*
X124709878Y-120079850D01*
X124710121Y-119801372D01*
X124603777Y-119544000D01*
X124407036Y-119346915D01*
X124149850Y-119240122D01*
X123871372Y-119239879D01*
X123614000Y-119346223D01*
X123416915Y-119542964D01*
X123310122Y-119800150D01*
X123309944Y-120003660D01*
X121731802Y-121581802D01*
X121634254Y-121727792D01*
X121600000Y-121900000D01*
X121600000Y-122470216D01*
X121406915Y-122662964D01*
X121300122Y-122920150D01*
X121299879Y-123198628D01*
X119473401Y-123198628D01*
X119499883Y-123134855D01*
X119500117Y-122866323D01*
X119397571Y-122618143D01*
X119207856Y-122428097D01*
X118959855Y-122325117D01*
X118691323Y-122324883D01*
X118443143Y-122427429D01*
X118350000Y-122520410D01*
X118350000Y-118625000D01*
X135206878Y-118625000D01*
X135267774Y-118931147D01*
X135441193Y-119190685D01*
X135700731Y-119364104D01*
X136006878Y-119425000D01*
X136293122Y-119425000D01*
X136599269Y-119364104D01*
X136858807Y-119190685D01*
X137032226Y-118931147D01*
X137093122Y-118625000D01*
X137032226Y-118318853D01*
X136858807Y-118059315D01*
X136599269Y-117885896D01*
X136293122Y-117825000D01*
X136006878Y-117825000D01*
X135700731Y-117885896D01*
X135441193Y-118059315D01*
X135267774Y-118318853D01*
X135206878Y-118625000D01*
X118350000Y-118625000D01*
X118350000Y-113548628D01*
X123759879Y-113548628D01*
X123866223Y-113806000D01*
X124052677Y-113992780D01*
X123928097Y-114117144D01*
X123825117Y-114365145D01*
X123824883Y-114633677D01*
X123927429Y-114881857D01*
X124117144Y-115071903D01*
X124365145Y-115174883D01*
X124633677Y-115175117D01*
X124881857Y-115072571D01*
X125071903Y-114882856D01*
X125174883Y-114634855D01*
X125175117Y-114366323D01*
X125096064Y-114175000D01*
X135206878Y-114175000D01*
X135267774Y-114481147D01*
X135441193Y-114740685D01*
X135700731Y-114914104D01*
X136006878Y-114975000D01*
X136293122Y-114975000D01*
X136599269Y-114914104D01*
X136858807Y-114740685D01*
X137032226Y-114481147D01*
X137093122Y-114175000D01*
X137032226Y-113868853D01*
X136858807Y-113609315D01*
X136599269Y-113435896D01*
X136293122Y-113375000D01*
X136006878Y-113375000D01*
X135700731Y-113435896D01*
X135441193Y-113609315D01*
X135267774Y-113868853D01*
X135206878Y-114175000D01*
X125096064Y-114175000D01*
X125072571Y-114118143D01*
X124907291Y-113952575D01*
X125025072Y-113835000D01*
X127065155Y-113835000D01*
X127222964Y-113993085D01*
X127480150Y-114099878D01*
X127758628Y-114100121D01*
X128016000Y-113993777D01*
X128213085Y-113797036D01*
X128319878Y-113539850D01*
X128320121Y-113261372D01*
X128213777Y-113004000D01*
X128017036Y-112806915D01*
X127759850Y-112700122D01*
X127481372Y-112699879D01*
X127224000Y-112806223D01*
X127044910Y-112985000D01*
X125024828Y-112985000D01*
X124857036Y-112816915D01*
X124599850Y-112710122D01*
X124321372Y-112709879D01*
X124064000Y-112816223D01*
X123866915Y-113012964D01*
X123760122Y-113270150D01*
X123759879Y-113548628D01*
X118350000Y-113548628D01*
X118350000Y-112225000D01*
X137875511Y-112225000D01*
X137936407Y-112531147D01*
X138109826Y-112790685D01*
X138369364Y-112964104D01*
X138675511Y-113025000D01*
X139624489Y-113025000D01*
X139930636Y-112964104D01*
X140190174Y-112790685D01*
X140363593Y-112531147D01*
X140424489Y-112225000D01*
X140363593Y-111918853D01*
X140190174Y-111659315D01*
X139930636Y-111485896D01*
X139624489Y-111425000D01*
X138675511Y-111425000D01*
X138369364Y-111485896D01*
X138109826Y-111659315D01*
X137936407Y-111918853D01*
X137875511Y-112225000D01*
X118350000Y-112225000D01*
X118350000Y-106018628D01*
X123039879Y-106018628D01*
X123146223Y-106276000D01*
X123342964Y-106473085D01*
X123600150Y-106579878D01*
X123878628Y-106580121D01*
X124136000Y-106473777D01*
X124305072Y-106305000D01*
X126080057Y-106305000D01*
X126079879Y-106508628D01*
X126186223Y-106766000D01*
X126382964Y-106963085D01*
X126640150Y-107069878D01*
X126918628Y-107070121D01*
X127176000Y-106963777D01*
X127373085Y-106767036D01*
X127479878Y-106509850D01*
X127480121Y-106231372D01*
X127373777Y-105974000D01*
X127177036Y-105776915D01*
X126919850Y-105670122D01*
X126680954Y-105669914D01*
X126590520Y-105579480D01*
X126452641Y-105487351D01*
X126425657Y-105481984D01*
X126290000Y-105455000D01*
X124304828Y-105455000D01*
X124137036Y-105286915D01*
X123879850Y-105180122D01*
X123601372Y-105179879D01*
X123344000Y-105286223D01*
X123146915Y-105482964D01*
X123040122Y-105740150D01*
X123039879Y-106018628D01*
X118350000Y-106018628D01*
X118350000Y-104580000D01*
X134884123Y-104580000D01*
X134884123Y-106580000D01*
X134905042Y-106691173D01*
X134970745Y-106793279D01*
X135070997Y-106861778D01*
X135190000Y-106885877D01*
X137190000Y-106885877D01*
X137301173Y-106864958D01*
X137403279Y-106799255D01*
X137471778Y-106699003D01*
X137495877Y-106580000D01*
X137495877Y-105997433D01*
X137627271Y-106315429D01*
X137992647Y-106681444D01*
X138470279Y-106879774D01*
X138987452Y-106880226D01*
X139465429Y-106682729D01*
X139831444Y-106317353D01*
X140029774Y-105839721D01*
X140030226Y-105322548D01*
X139832729Y-104844571D01*
X139467353Y-104478556D01*
X138989721Y-104280226D01*
X138472548Y-104279774D01*
X137994571Y-104477271D01*
X137628556Y-104842647D01*
X137495877Y-105162174D01*
X137495877Y-104580000D01*
X137474958Y-104468827D01*
X137409255Y-104366721D01*
X137309003Y-104298222D01*
X137190000Y-104274123D01*
X135190000Y-104274123D01*
X135078827Y-104295042D01*
X134976721Y-104360745D01*
X134908222Y-104460997D01*
X134884123Y-104580000D01*
X118350000Y-104580000D01*
X118350000Y-102517647D01*
X134429793Y-102517647D01*
X134612097Y-102958857D01*
X134949367Y-103296717D01*
X135390258Y-103479791D01*
X135867647Y-103480207D01*
X136308857Y-103297903D01*
X136576955Y-103030273D01*
X138172153Y-103030273D01*
X138265352Y-103218431D01*
X138721729Y-103415935D01*
X139218949Y-103423756D01*
X139681314Y-103240705D01*
X139714648Y-103218431D01*
X139807847Y-103030273D01*
X138990000Y-102212426D01*
X138172153Y-103030273D01*
X136576955Y-103030273D01*
X136646717Y-102960633D01*
X136829791Y-102519742D01*
X136829896Y-102398949D01*
X137736244Y-102398949D01*
X137919295Y-102861314D01*
X137941569Y-102894648D01*
X138129727Y-102987847D01*
X138947574Y-102170000D01*
X139032426Y-102170000D01*
X139850273Y-102987847D01*
X140038431Y-102894648D01*
X140235935Y-102438271D01*
X140243756Y-101941051D01*
X140060705Y-101478686D01*
X140038431Y-101445352D01*
X139850273Y-101352153D01*
X139032426Y-102170000D01*
X138947574Y-102170000D01*
X138129727Y-101352153D01*
X137941569Y-101445352D01*
X137744065Y-101901729D01*
X137736244Y-102398949D01*
X136829896Y-102398949D01*
X136830207Y-102042353D01*
X136647903Y-101601143D01*
X136356996Y-101309727D01*
X138172153Y-101309727D01*
X138990000Y-102127574D01*
X139807847Y-101309727D01*
X139714648Y-101121569D01*
X139258271Y-100924065D01*
X138761051Y-100916244D01*
X138298686Y-101099295D01*
X138265352Y-101121569D01*
X138172153Y-101309727D01*
X136356996Y-101309727D01*
X136310633Y-101263283D01*
X135869742Y-101080209D01*
X135392353Y-101079793D01*
X134951143Y-101262097D01*
X134613283Y-101599367D01*
X134430209Y-102040258D01*
X134429793Y-102517647D01*
X118350000Y-102517647D01*
X118350000Y-97106500D01*
X135660000Y-97106500D01*
X135660000Y-98147674D01*
X135705672Y-98257937D01*
X135790064Y-98342328D01*
X135900327Y-98388000D01*
X138275000Y-98388000D01*
X138350000Y-98313000D01*
X138350000Y-97031500D01*
X135735000Y-97031500D01*
X135660000Y-97106500D01*
X118350000Y-97106500D01*
X118350000Y-95615326D01*
X135660000Y-95615326D01*
X135660000Y-96656500D01*
X135735000Y-96731500D01*
X138350000Y-96731500D01*
X138350000Y-95450000D01*
X138275000Y-95375000D01*
X135900327Y-95375000D01*
X135790064Y-95420672D01*
X135705672Y-95505063D01*
X135660000Y-95615326D01*
X118350000Y-95615326D01*
X118350000Y-92737647D01*
X135549793Y-92737647D01*
X135732097Y-93178857D01*
X136069367Y-93516717D01*
X136510258Y-93699791D01*
X136987647Y-93700207D01*
X137428857Y-93517903D01*
X137766717Y-93180633D01*
X137949791Y-92739742D01*
X137950207Y-92262353D01*
X137767903Y-91821143D01*
X137430633Y-91483283D01*
X136989742Y-91300209D01*
X136512353Y-91299793D01*
X136071143Y-91482097D01*
X135733283Y-91819367D01*
X135550209Y-92260258D01*
X135549793Y-92737647D01*
X118350000Y-92737647D01*
X118350000Y-89432390D01*
X125610036Y-89432390D01*
X125715406Y-89630939D01*
X126207921Y-89845102D01*
X126744903Y-89854486D01*
X127244600Y-89657662D01*
X127284594Y-89630939D01*
X127389964Y-89432390D01*
X126500000Y-88542426D01*
X125610036Y-89432390D01*
X118350000Y-89432390D01*
X118350000Y-88744903D01*
X125145514Y-88744903D01*
X125342338Y-89244600D01*
X125369061Y-89284594D01*
X125567610Y-89389964D01*
X126457574Y-88500000D01*
X126542426Y-88500000D01*
X127432390Y-89389964D01*
X127630939Y-89284594D01*
X127845102Y-88792079D01*
X127852941Y-88343500D01*
X135660000Y-88343500D01*
X135660000Y-89384674D01*
X135705672Y-89494937D01*
X135790064Y-89579328D01*
X135900327Y-89625000D01*
X138275000Y-89625000D01*
X138350000Y-89550000D01*
X138350000Y-88268500D01*
X135735000Y-88268500D01*
X135660000Y-88343500D01*
X127852941Y-88343500D01*
X127854486Y-88255097D01*
X127657662Y-87755400D01*
X127630939Y-87715406D01*
X127432390Y-87610036D01*
X126542426Y-88500000D01*
X126457574Y-88500000D01*
X125567610Y-87610036D01*
X125369061Y-87715406D01*
X125154898Y-88207921D01*
X125145514Y-88744903D01*
X118350000Y-88744903D01*
X118350000Y-87567610D01*
X125610036Y-87567610D01*
X126500000Y-88457574D01*
X127389964Y-87567610D01*
X127284594Y-87369061D01*
X126792079Y-87154898D01*
X126255097Y-87145514D01*
X125755400Y-87342338D01*
X125715406Y-87369061D01*
X125610036Y-87567610D01*
X118350000Y-87567610D01*
X118350000Y-87034472D01*
X118386230Y-86852326D01*
X135660000Y-86852326D01*
X135660000Y-87893500D01*
X135735000Y-87968500D01*
X138350000Y-87968500D01*
X138350000Y-86687000D01*
X138275000Y-86612000D01*
X135900327Y-86612000D01*
X135790064Y-86657672D01*
X135705672Y-86742063D01*
X135660000Y-86852326D01*
X118386230Y-86852326D01*
X118405813Y-86753879D01*
X118545229Y-86545228D01*
X118753880Y-86405813D01*
X119034472Y-86350000D01*
X139965528Y-86350000D01*
X140246121Y-86405813D01*
M02*
