M48
;DRILL file {KiCad 0.201509071501+6164~29~ubuntu14.04.1-product} date Wed 06 Jan 2016 18:25:35 GMT
;FORMAT={-:-/ absolute / inch / decimal}
FMAT,2
INCH,TZ
T1C0.012
T2C0.016
T3C0.020
T4C0.024
T5C0.025
T6C0.026
T7C0.035
T8C0.039
T9C0.040
%
G90
G05
M72
T1
X4.1831Y-3.9626
X4.3169Y-4.3583
X4.3346Y-3.7835
X4.374Y-3.7894
X4.4075Y-3.6693
X4.4114Y-4.1732
X4.4311Y-4.4311
X4.437Y-4.1457
X4.4587Y-3.8169
X4.4587Y-4.2657
X4.4636Y-4.1211
X4.4835Y-4.2373
X4.5059Y-4.1063
X4.5086Y-4.2122
X4.5197Y-4.2697
X4.5236Y-3.7224
X4.5236Y-3.8051
X4.5343Y-4.1879
X4.5374Y-4.5059
X4.5374Y-4.5433
X4.5387Y-4.0791
X4.5394Y-4.4587
X4.5571Y-3.7224
X4.5591Y-4.7736
X4.5791Y-4.0387
X4.5807Y-3.689
X4.5827Y-4.7972
X4.5838Y-4.137
X4.6173Y-4.1035
X4.6319Y-4.4587
X4.6339Y-4.4213
X4.6516Y-3.7874
X4.6516Y-4.5669
X4.6535Y-4.5138
X4.6555Y-3.75
X4.6909Y-4.1063
X4.7441Y-4.811
X4.7441Y-5.0748
X4.7697Y-3.9961
X4.7717Y-4.0433
X4.7736Y-4.7894
X4.7795Y-5.0748
X4.7835Y-4.6496
X4.8051Y-4.1969
X4.8071Y-4.6732
X4.872Y-4.9322
X4.8819Y-4.5787
X4.8976Y-4.4488
X4.8976Y-4.502
X4.8996Y-4.5413
X4.9055Y-4.4114
X4.9232Y-3.8366
X4.9232Y-4.563
X4.9441Y-4.9637
X4.9469Y-4.1476
X4.9691Y-4.9387
X5.0374Y-4.0453
X5.0394Y-4.4331
X5.0591Y-3.8957
X5.0807Y-5.2894
X5.0807Y-5.3327
X5.0807Y-5.3839
X5.2028Y-3.9055
X5.5807Y-5.2835
X5.5807Y-5.3327
X5.5807Y-5.378
T2
X4.6201Y-4.2717
X4.6713Y-4.2205
X4.6713Y-4.2717
X4.6713Y-4.3228
X4.7224Y-4.2717
T3
X4.9862Y-4.1378
X4.9902Y-4.1988
T5
X4.6262Y-4.996
X4.6616Y-4.9606
X4.6616Y-5.0313
X4.6969Y-4.9253
X4.6969Y-4.996
X4.7323Y-4.8899
X4.7323Y-4.9606
X4.7676Y-4.8546
X4.7676Y-4.9253
X4.803Y-4.8899
T7
X4.2742Y-3.7289
X5.7218Y-5.1766
T8
X4.1183Y-4.1596
X4.189Y-4.2303
T9
X4.7087Y-3.5689
X4.8406Y-3.5689
X5.2047Y-5.1654
T4
X4.2892Y-4.624G85X4.2697Y-4.6435
G05
X4.5216Y-4.8565G85X4.5022Y-4.876
G05
T6
X4.42Y-4.6018G85X4.4145Y-4.6073
G05
X4.5439Y-4.7256G85X4.5383Y-4.7312
G05
T0
M30
