G04 #@! TF.FileFunction,Legend,Bot*
%FSLAX46Y46*%
G04 Gerber Fmt 4.6, Leading zero omitted, Abs format (unit mm)*
G04 Created by KiCad (PCBNEW 0.201509071501+6164~29~ubuntu14.04.1-product) date Wed 06 Jan 2016 18:25:32 GMT*
%MOMM*%
G01*
G04 APERTURE LIST*
%ADD10C,0.100000*%
%ADD11C,0.150000*%
%ADD12C,0.200000*%
G04 APERTURE END LIST*
D10*
D11*
X127839940Y-89787167D02*
X127747947Y-89811817D01*
X127668279Y-89882462D01*
X127634607Y-89940783D01*
X127613260Y-90045101D01*
X127616562Y-90241411D01*
X127678186Y-90471394D01*
X127773481Y-90643055D01*
X127844127Y-90722724D01*
X127902448Y-90756395D01*
X128006766Y-90777742D01*
X128098759Y-90753093D01*
X128178428Y-90682447D01*
X128212099Y-90624126D01*
X128233446Y-90519808D01*
X128230144Y-90323498D01*
X128168520Y-90093515D01*
X128073225Y-89921854D01*
X128002579Y-89842186D01*
X127944258Y-89808514D01*
X127839940Y-89787167D01*
X127338166Y-90858295D02*
X127304495Y-90916616D01*
X127362816Y-90950288D01*
X127396488Y-90891967D01*
X127338166Y-90858295D01*
X127362816Y-90950288D01*
X126616966Y-90558551D02*
X126696634Y-90487905D01*
X126730305Y-90429584D01*
X126751652Y-90325267D01*
X126739328Y-90279270D01*
X126668682Y-90199602D01*
X126610361Y-90165931D01*
X126506043Y-90144584D01*
X126322057Y-90193883D01*
X126242388Y-90264528D01*
X126208717Y-90322850D01*
X126187370Y-90427167D01*
X126199694Y-90473164D01*
X126270340Y-90552832D01*
X126328661Y-90586503D01*
X126432979Y-90607850D01*
X126616966Y-90558551D01*
X126721283Y-90579898D01*
X126779604Y-90613570D01*
X126850250Y-90693239D01*
X126899549Y-90877225D01*
X126878202Y-90981542D01*
X126844530Y-91039864D01*
X126764862Y-91110509D01*
X126580876Y-91159808D01*
X126476558Y-91138461D01*
X126418237Y-91104790D01*
X126347591Y-91025122D01*
X126298292Y-90841136D01*
X126319639Y-90736817D01*
X126353311Y-90678496D01*
X126432979Y-90607850D01*
X125884325Y-90952058D02*
X125148381Y-91149254D01*
X124620188Y-90649897D02*
X124022234Y-90810118D01*
X124442807Y-91091817D01*
X124304817Y-91128791D01*
X124225149Y-91199437D01*
X124191477Y-91257758D01*
X124170130Y-91362076D01*
X124231754Y-91592058D01*
X124302400Y-91671727D01*
X124360721Y-91705398D01*
X124465038Y-91726745D01*
X124741018Y-91652797D01*
X124820686Y-91582151D01*
X124854358Y-91523830D01*
X123842435Y-91794974D02*
X123808764Y-91853295D01*
X123867085Y-91886966D01*
X123900757Y-91828645D01*
X123842435Y-91794974D01*
X123867085Y-91886966D01*
X123240294Y-91019638D02*
X122642340Y-91179860D01*
X123062913Y-91461558D01*
X122924923Y-91498532D01*
X122845255Y-91569178D01*
X122811583Y-91627499D01*
X122790237Y-91731818D01*
X122851860Y-91961800D01*
X122922506Y-92041468D01*
X122980827Y-92075140D01*
X123085145Y-92096487D01*
X123361124Y-92022538D01*
X123440792Y-91951892D01*
X123474464Y-91893571D01*
X122366361Y-91253808D02*
X122303206Y-92306007D01*
X121722411Y-91426354D01*
X120923311Y-92675748D02*
X120664492Y-91709823D01*
X120434510Y-91771446D01*
X120308844Y-91854417D01*
X120241501Y-91971059D01*
X120220154Y-92075377D01*
X120223456Y-92271687D01*
X120260431Y-92409677D01*
X120355726Y-92581338D01*
X120426372Y-92661006D01*
X120543014Y-92728350D01*
X120693329Y-92737372D01*
X120923311Y-92675748D01*
X119380778Y-92990471D02*
X119439099Y-93024143D01*
X119589413Y-93033165D01*
X119681406Y-93008516D01*
X119807071Y-92925545D01*
X119874415Y-92808903D01*
X119895762Y-92704585D01*
X119892459Y-92508275D01*
X119855485Y-92370285D01*
X119760190Y-92198624D01*
X119689544Y-92118956D01*
X119572901Y-92051612D01*
X119422587Y-92042590D01*
X119330594Y-92067239D01*
X119204929Y-92150210D01*
X119171257Y-92208531D01*
D12*
X125223143Y-96316191D02*
X124162483Y-97376851D01*
X125172636Y-96366698D02*
X125122128Y-96215176D01*
X124920098Y-96013145D01*
X124768575Y-95962637D01*
X124667560Y-95962638D01*
X124516036Y-96013145D01*
X124212991Y-96316190D01*
X124162484Y-96467713D01*
X124162483Y-96568728D01*
X124212991Y-96720252D01*
X124415021Y-96922283D01*
X124566544Y-96972790D01*
X126182788Y-97275836D02*
X125627205Y-97831420D01*
X125475681Y-97881927D01*
X125324158Y-97831420D01*
X125122128Y-97629389D01*
X125071621Y-97477866D01*
X126132281Y-97326343D02*
X126081773Y-97174821D01*
X125829235Y-96922283D01*
X125677712Y-96871775D01*
X125526189Y-96922282D01*
X125425174Y-97023297D01*
X125374666Y-97174821D01*
X125425174Y-97326343D01*
X125677712Y-97578881D01*
X125728220Y-97730404D01*
X125879743Y-98387004D02*
X126839388Y-97932435D01*
X126384819Y-98892080D01*
X127495987Y-98589034D02*
X126788880Y-99296141D01*
X126435326Y-99649694D02*
X126435326Y-99548679D01*
X126536342Y-99548679D01*
X126536342Y-99649694D01*
X126435326Y-99649694D01*
X126536342Y-99548679D01*
X128455632Y-99548679D02*
X127394971Y-100609340D01*
X128405124Y-99599187D02*
X128354616Y-99447664D01*
X128152586Y-99245634D01*
X128001063Y-99195125D01*
X127900048Y-99195126D01*
X127748525Y-99245633D01*
X127445479Y-99548679D01*
X127394972Y-99700202D01*
X127394971Y-99801217D01*
X127445479Y-99952741D01*
X127647510Y-100154771D01*
X127799033Y-100205278D01*
X128859693Y-100154771D02*
X128960708Y-100154770D01*
X128960708Y-100053756D01*
X128859693Y-100053755D01*
X128859693Y-100154771D01*
X128960708Y-100053756D01*
X128657663Y-101164924D02*
X129566800Y-100659847D01*
X129263754Y-101366954D01*
X129970861Y-101063909D01*
X129465785Y-101973046D01*
X130475938Y-101771016D02*
X130576953Y-101771015D01*
X130576953Y-101670000D01*
X130475938Y-101670000D01*
X130475938Y-101771016D01*
X130576953Y-101670000D01*
X130223399Y-102730661D02*
X130627461Y-103134722D01*
X130021369Y-103235737D02*
X130930507Y-102326599D01*
X131082029Y-102276091D01*
X131233552Y-102326600D01*
X131334567Y-102427615D01*
X131435583Y-103942844D02*
X132142689Y-103235737D01*
X130981014Y-103488275D02*
X131536598Y-102932691D01*
X131688121Y-102882183D01*
X131839644Y-102932692D01*
X131991166Y-103084214D01*
X132041674Y-103235736D01*
X132041674Y-103336752D01*
X132647766Y-103740814D02*
X131940659Y-104447920D01*
X132142690Y-104245889D02*
X132092182Y-104397412D01*
X132092182Y-104498428D01*
X132142689Y-104649951D01*
X132243704Y-104750966D01*
X132597258Y-105104519D02*
X133304365Y-104397412D01*
X132698274Y-105003503D02*
X132698273Y-105104518D01*
X132748781Y-105256042D01*
X132900303Y-105407565D01*
X133051826Y-105458072D01*
X133203350Y-105407565D01*
X133758933Y-104851981D01*
X134617563Y-105811625D02*
X134567055Y-105660103D01*
X134365025Y-105458073D01*
X134213502Y-105407565D01*
X134061979Y-105458072D01*
X133657918Y-105862133D01*
X133607411Y-106013656D01*
X133657918Y-106165179D01*
X133859948Y-106367210D01*
X134011471Y-106417717D01*
X134162995Y-106367210D01*
X134264010Y-106266194D01*
X133859948Y-105660103D01*
X135173147Y-106266194D02*
X134466040Y-106973301D01*
X134668071Y-106771270D02*
X134617563Y-106922793D01*
X134617563Y-107023808D01*
X134668070Y-107175332D01*
X134769085Y-107276347D01*
X135981269Y-108084468D02*
X135880254Y-108084469D01*
X135728731Y-108033961D01*
X135627715Y-107932945D01*
X135577207Y-107781422D01*
X135577208Y-107680407D01*
X135627715Y-107528884D01*
X135728730Y-107427869D01*
X135880254Y-107377362D01*
X135981269Y-107377361D01*
X136132791Y-107427869D01*
X136233807Y-107528885D01*
X136284315Y-107680407D01*
X136284314Y-107781422D01*
X135880254Y-108185483D02*
X136284314Y-107781422D01*
X136385330Y-107781422D01*
X136435837Y-107831930D01*
X136486345Y-107983453D01*
X136435837Y-108134976D01*
X136183299Y-108387514D01*
X135930761Y-108438022D01*
X135678223Y-108387514D01*
X135425685Y-108235991D01*
X135274162Y-107983453D01*
X135223654Y-107730915D01*
X135274162Y-107478377D01*
X135425684Y-107225839D01*
X135678223Y-107074316D01*
X135930761Y-107023808D01*
X136183300Y-107074316D01*
X136435837Y-107225839D01*
X136587360Y-107478376D01*
X136637868Y-107730915D01*
X137597513Y-108791575D02*
X137547005Y-108640052D01*
X137344974Y-108438022D01*
X137193451Y-108387513D01*
X137092436Y-108387514D01*
X136940913Y-108438021D01*
X136637868Y-108741067D01*
X136587360Y-108892590D01*
X136587360Y-108993605D01*
X136637868Y-109145129D01*
X136839898Y-109347159D01*
X136991421Y-109397666D01*
X138254111Y-109347159D02*
X138102588Y-109296650D01*
X137951066Y-109347158D01*
X137041928Y-110256296D01*
X138557157Y-109852235D02*
X138658172Y-109852234D01*
X138658172Y-109751220D01*
X138557157Y-109751219D01*
X138557157Y-109852235D01*
X138658172Y-109751220D01*
X139567310Y-110761372D02*
X139516802Y-110609850D01*
X139314772Y-110407819D01*
X139163249Y-110357311D01*
X139062233Y-110357311D01*
X138910710Y-110407819D01*
X138607665Y-110710864D01*
X138557158Y-110862387D01*
X138557157Y-110963402D01*
X138607665Y-111114926D01*
X138809695Y-111316956D01*
X138961218Y-111367464D01*
X140526954Y-111620002D02*
X139971370Y-112175586D01*
X139819847Y-112226093D01*
X139668324Y-112175586D01*
X139466294Y-111973555D01*
X139415787Y-111822032D01*
X140476447Y-111670509D02*
X140425939Y-111518987D01*
X140173401Y-111266448D01*
X140021878Y-111215941D01*
X139870355Y-111266448D01*
X139769340Y-111367463D01*
X139718832Y-111518987D01*
X139769340Y-111670509D01*
X140021878Y-111923047D01*
X140072386Y-112074570D01*
X141032031Y-112125078D02*
X140324924Y-112832185D01*
X140425940Y-112731169D02*
X140425939Y-112832184D01*
X140476447Y-112983708D01*
X140627969Y-113135231D01*
X140779492Y-113185738D01*
X140931015Y-113135231D01*
X141486599Y-112579647D01*
X140931015Y-113135231D02*
X140880508Y-113286754D01*
X140931015Y-113438277D01*
X141082538Y-113589799D01*
X141234062Y-113640307D01*
X141385584Y-113589799D01*
X141941168Y-113034215D01*
X142345229Y-113640307D02*
X142446244Y-113640306D01*
X142446244Y-113539292D01*
X142345229Y-113539291D01*
X142345229Y-113640307D01*
X142446244Y-113539292D01*
X143405889Y-114498937D02*
X142850306Y-115054521D01*
X142698782Y-115105028D01*
X142547259Y-115054521D01*
X142345229Y-114852490D01*
X142294722Y-114700967D01*
X143355382Y-114549444D02*
X143304874Y-114397922D01*
X143052336Y-114145384D01*
X142900813Y-114094876D01*
X142749290Y-114145383D01*
X142648275Y-114246398D01*
X142597767Y-114397922D01*
X142648275Y-114549444D01*
X142900813Y-114801982D01*
X142951321Y-114953505D01*
X144315027Y-115509089D02*
X144264519Y-115357567D01*
X144062489Y-115155536D01*
X143910966Y-115105028D01*
X143809951Y-115105029D01*
X143658427Y-115155536D01*
X143355382Y-115458581D01*
X143304875Y-115610104D01*
X143304874Y-115711119D01*
X143355382Y-115862643D01*
X143557412Y-116064674D01*
X143708935Y-116115181D01*
X144719088Y-116014166D02*
X144820103Y-116014165D01*
X144820103Y-115913150D01*
X144719088Y-115913150D01*
X144719088Y-116014166D01*
X144820103Y-115913150D01*
X145072641Y-117579902D02*
X145779748Y-116872795D01*
X144618072Y-117125334D02*
X145173657Y-116569749D01*
X145325179Y-116519241D01*
X145476702Y-116569750D01*
X145628225Y-116721272D01*
X145678733Y-116872795D01*
X145678733Y-116973811D01*
X146284824Y-117377872D02*
X145224164Y-118438532D01*
X145981779Y-117882948D02*
X146688885Y-117781933D01*
X145981778Y-118489039D02*
X145981779Y-117680917D01*
X130284008Y-98124364D02*
X129223348Y-99185024D01*
X130233501Y-98174871D02*
X130182993Y-98023348D01*
X129980962Y-97821318D01*
X129829439Y-97770810D01*
X129728424Y-97770810D01*
X129576901Y-97821317D01*
X129273856Y-98124363D01*
X129223348Y-98275886D01*
X129223348Y-98376901D01*
X129273856Y-98528425D01*
X129475886Y-98730455D01*
X129627409Y-98780962D01*
X129980962Y-99235532D02*
X130890100Y-98730455D01*
X130587054Y-99437561D01*
X131294161Y-99134517D01*
X130789084Y-100043654D01*
X131041623Y-100296192D02*
X131445684Y-100700253D01*
X130839592Y-100801268D02*
X131748730Y-99892131D01*
X131900253Y-99841623D01*
X132051776Y-99892131D01*
X132152791Y-99993146D01*
X131496192Y-101255836D02*
X131496192Y-101356852D01*
X131546699Y-101508375D01*
X131799237Y-101760913D01*
X131950760Y-101811421D01*
X132051776Y-101811421D01*
X132203299Y-101760913D01*
X132304314Y-101659898D01*
X132405330Y-101457867D01*
X132405329Y-100245685D01*
X133061928Y-100902284D01*
X132354821Y-102316497D02*
X133061928Y-103023604D01*
X133668019Y-101508375D01*
X134425633Y-102468019D02*
X134526649Y-102468019D01*
X134526649Y-102367004D01*
X134425633Y-102367004D01*
X134425633Y-102468019D01*
X134526649Y-102367004D01*
X135435786Y-103377157D02*
X135385279Y-103225634D01*
X135183248Y-103023604D01*
X135031725Y-102973095D01*
X134930710Y-102973096D01*
X134779187Y-103023603D01*
X134476141Y-103326649D01*
X134425634Y-103478172D01*
X134425633Y-103579187D01*
X134476141Y-103730711D01*
X134678172Y-103932741D01*
X134829695Y-103983248D01*
X136092385Y-103932741D02*
X135940862Y-103882232D01*
X135839847Y-103882233D01*
X135688324Y-103932740D01*
X135385279Y-104235786D01*
X135334771Y-104387309D01*
X135334771Y-104488324D01*
X135385279Y-104639848D01*
X135536801Y-104791370D01*
X135688324Y-104841877D01*
X135789340Y-104841877D01*
X135940863Y-104791370D01*
X136243908Y-104488325D01*
X136294416Y-104336802D01*
X136294416Y-104235786D01*
X136243908Y-104084263D01*
X136092385Y-103932741D01*
X136799492Y-104841878D02*
X136900507Y-104841877D01*
X136900507Y-104740863D01*
X136799492Y-104740862D01*
X136799492Y-104841878D01*
X136900507Y-104740863D01*
X137153045Y-106407615D02*
X137860152Y-105700508D01*
X136698477Y-105953046D02*
X137254061Y-105397462D01*
X137405584Y-105346954D01*
X137557107Y-105397462D01*
X137708629Y-105548985D01*
X137759137Y-105700507D01*
X137759137Y-105801523D01*
X138365229Y-106205584D02*
X137304569Y-107266245D01*
X138062183Y-106710660D02*
X138769289Y-106609645D01*
X138062183Y-107316752D02*
X138062183Y-106508630D01*
X138870305Y-108932996D02*
X139324874Y-106660153D01*
X139476397Y-108730966D02*
X139880458Y-109135027D01*
X139274367Y-109236043D02*
X140183504Y-108326905D01*
X140335027Y-108276397D01*
X140486550Y-108326905D01*
X140587565Y-108427921D01*
X141294672Y-109236042D02*
X141244164Y-109084519D01*
X141042133Y-108882489D01*
X140890611Y-108831981D01*
X140739088Y-108882488D01*
X140335027Y-109286550D01*
X140284519Y-109438073D01*
X140335027Y-109589596D01*
X140537057Y-109791626D01*
X140688580Y-109842133D01*
X140840103Y-109791626D01*
X140941118Y-109690611D01*
X140537057Y-109084519D01*
X142304824Y-110145180D02*
X141749240Y-110700763D01*
X141597717Y-110751271D01*
X141446194Y-110700763D01*
X141244164Y-110498733D01*
X141193657Y-110347210D01*
X142254317Y-110195687D02*
X142203809Y-110044164D01*
X141951271Y-109791626D01*
X141799748Y-109741118D01*
X141648225Y-109791626D01*
X141547210Y-109892641D01*
X141496702Y-110044164D01*
X141547210Y-110195687D01*
X141799748Y-110448225D01*
X141850255Y-110599748D01*
X142102794Y-111357363D02*
X143163454Y-110296703D01*
X142153302Y-111306855D02*
X142203809Y-111458378D01*
X142405839Y-111660408D01*
X142557362Y-111710916D01*
X142658378Y-111710916D01*
X142809901Y-111660408D01*
X143112947Y-111357363D01*
X143163454Y-111205840D01*
X143163454Y-111104824D01*
X143112946Y-110953302D01*
X142910916Y-110751271D01*
X142759393Y-110700763D01*
X143921069Y-111761424D02*
X143769545Y-111710916D01*
X143668530Y-111710916D01*
X143517007Y-111761424D01*
X143213962Y-112064469D01*
X143163455Y-112215992D01*
X143163454Y-112317007D01*
X143213962Y-112468531D01*
X143365484Y-112620053D01*
X143517007Y-112670561D01*
X143618023Y-112670561D01*
X143769546Y-112620053D01*
X144072592Y-112317008D01*
X144123099Y-112165485D01*
X144123099Y-112064469D01*
X144072591Y-111912947D01*
X143921069Y-111761424D01*
X143870561Y-113125130D02*
X144274622Y-113529191D01*
X143668530Y-113630206D02*
X144577668Y-112721069D01*
X144729190Y-112670561D01*
X144880714Y-112721069D01*
X144981729Y-112822084D01*
X135168096Y-101169973D02*
X135875203Y-100462866D01*
X134713527Y-100715405D02*
X135269112Y-100159820D01*
X135420634Y-100109312D01*
X135572157Y-100159821D01*
X135723680Y-100311343D01*
X135774188Y-100462866D01*
X135774188Y-100563882D01*
X136380279Y-100967943D02*
X135319619Y-102028603D01*
X136077234Y-101473019D02*
X136784340Y-101372004D01*
X136077233Y-102079110D02*
X136077234Y-101270988D01*
X137238909Y-101826573D02*
X136178249Y-102887233D01*
X137693478Y-102281141D02*
X137137894Y-102836725D01*
X136986371Y-102887232D01*
X136834848Y-102836725D01*
X136683325Y-102685203D01*
X136632818Y-102533679D01*
X136632818Y-102432664D01*
X138653123Y-103240786D02*
X138097539Y-103796370D01*
X137946016Y-103846877D01*
X137794493Y-103796370D01*
X137592463Y-103594340D01*
X137541955Y-103442817D01*
X138602615Y-103291294D02*
X138552108Y-103139771D01*
X138299569Y-102887233D01*
X138148047Y-102836725D01*
X137996524Y-102887232D01*
X137895509Y-102988247D01*
X137845001Y-103139771D01*
X137895509Y-103291294D01*
X138148047Y-103543832D01*
X138198554Y-103695355D01*
X139057184Y-103745862D02*
X139208706Y-103796370D01*
X139410737Y-103998401D01*
X139461245Y-104149923D01*
X139410737Y-104301446D01*
X139360229Y-104351954D01*
X139208707Y-104402462D01*
X139057184Y-104351954D01*
X138905661Y-104200431D01*
X138754139Y-104149923D01*
X138602615Y-104200431D01*
X138552108Y-104250939D01*
X138501600Y-104402462D01*
X138552108Y-104553985D01*
X138703631Y-104705508D01*
X138855154Y-104756015D01*
X139915814Y-104705508D02*
X140016829Y-104705507D01*
X140016829Y-104604493D01*
X139915814Y-104604492D01*
X139915814Y-104705508D01*
X140016829Y-104604493D01*
X139814799Y-105816676D02*
X140521906Y-105109569D01*
X139915815Y-105715660D02*
X139915814Y-105816675D01*
X139966322Y-105968199D01*
X140117844Y-106119721D01*
X140269367Y-106170229D01*
X140420890Y-106119721D01*
X140976474Y-105564138D01*
X141835104Y-106523782D02*
X141784596Y-106372260D01*
X141582566Y-106170229D01*
X141431043Y-106119721D01*
X141279520Y-106170229D01*
X140875459Y-106574290D01*
X140824952Y-106725813D01*
X140875459Y-106877336D01*
X141077489Y-107079366D01*
X141229012Y-107129874D01*
X141380535Y-107079366D01*
X141481551Y-106978351D01*
X141077489Y-106372260D01*
X141532058Y-107533935D02*
X141936119Y-107937996D01*
X141330027Y-108039011D02*
X142239165Y-107129874D01*
X142390688Y-107079366D01*
X142542211Y-107129874D01*
X142643226Y-107230890D01*
M02*
