G04 #@! TF.FileFunction,Copper,L1,Top,Signal*
%FSLAX46Y46*%
G04 Gerber Fmt 4.6, Leading zero omitted, Abs format (unit mm)*
G04 Created by KiCad (PCBNEW (2016-05-05 BZR 6775)-product) date Monday, 20 June 2016 'amt' 00:18:41*
%MOMM*%
%LPD*%
G01*
G04 APERTURE LIST*
%ADD10C,0.100000*%
%ADD11C,2.000000*%
%ADD12R,0.900000X0.500000*%
%ADD13C,1.800000*%
%ADD14R,2.000000X1.200000*%
%ADD15R,0.750000X0.800000*%
%ADD16R,1.500000X3.000000*%
%ADD17R,0.400000X0.900000*%
%ADD18R,0.800000X0.750000*%
%ADD19R,2.000000X2.000000*%
%ADD20R,1.198880X1.198880*%
%ADD21C,0.787000*%
%ADD22R,0.500000X0.900000*%
%ADD23C,0.750000*%
%ADD24R,1.100000X1.900000*%
%ADD25R,2.600000X0.700000*%
%ADD26R,2.600000X0.800000*%
%ADD27R,3.600000X0.800000*%
%ADD28R,0.300000X0.550000*%
%ADD29R,0.550000X0.300000*%
%ADD30R,1.000000X1.000000*%
%ADD31C,0.600000*%
%ADD32R,5.600000X5.600000*%
%ADD33R,5.080000X2.286000*%
%ADD34R,5.080000X2.413000*%
%ADD35R,0.600000X0.400000*%
%ADD36R,1.500000X2.400000*%
%ADD37C,0.960000*%
%ADD38C,0.250000*%
%ADD39C,0.500000*%
%ADD40C,0.300000*%
%ADD41C,0.750000*%
%ADD42C,1.000000*%
G04 APERTURE END LIST*
D10*
D11*
X126000000Y-140500000D03*
X126000000Y-88500000D03*
D12*
X118300000Y-93750000D03*
X118300000Y-95250000D03*
D13*
X116100000Y-97500000D03*
D14*
X120650000Y-93500000D03*
X138350000Y-107500000D03*
X138350000Y-105500000D03*
X138350000Y-103500000D03*
X138350000Y-101500000D03*
X138350000Y-99500000D03*
X138350000Y-97500000D03*
X138350000Y-95500000D03*
X138350000Y-93500000D03*
X120650000Y-95500000D03*
X120650000Y-97500000D03*
X120650000Y-99500000D03*
X120650000Y-101500000D03*
X120650000Y-103500000D03*
X120650000Y-105500000D03*
X120650000Y-107500000D03*
D12*
X140200000Y-130550000D03*
X140200000Y-129050000D03*
D15*
X133400000Y-139150000D03*
X133400000Y-140650000D03*
D12*
X134050000Y-133750000D03*
X134050000Y-132250000D03*
D16*
X129050000Y-135800000D03*
X131650000Y-135800000D03*
D17*
X130450000Y-138700000D03*
X131100000Y-138700000D03*
X131750000Y-138700000D03*
X130450000Y-140900000D03*
X131100000Y-140900000D03*
X131750000Y-140900000D03*
D18*
X133950000Y-90000000D03*
X132450000Y-90000000D03*
X133950000Y-91500000D03*
X132450000Y-91500000D03*
D19*
X138800000Y-135540000D03*
D11*
X138800000Y-133000000D03*
D13*
X121500000Y-89500000D03*
X129500000Y-89500000D03*
D20*
X140025000Y-122250980D03*
X140025000Y-124349020D03*
D12*
X140200000Y-125850000D03*
X140200000Y-127350000D03*
X138600000Y-125850000D03*
X138600000Y-127350000D03*
D15*
X128700000Y-139050000D03*
X128700000Y-140550000D03*
D10*
G36*
X126925305Y-138188909D02*
X126288909Y-138825305D01*
X125935355Y-138471751D01*
X126571751Y-137835355D01*
X126925305Y-138188909D01*
X126925305Y-138188909D01*
G37*
G36*
X125864645Y-137128249D02*
X125228249Y-137764645D01*
X124874695Y-137411091D01*
X125511091Y-136774695D01*
X125864645Y-137128249D01*
X125864645Y-137128249D01*
G37*
D20*
X138125000Y-122250980D03*
X138125000Y-124349020D03*
D15*
X130800000Y-127450000D03*
X130800000Y-128950000D03*
X129400000Y-127450000D03*
X129400000Y-128950000D03*
X132200000Y-127450000D03*
X132200000Y-128950000D03*
D18*
X135850000Y-116850000D03*
X134350000Y-116850000D03*
D15*
X135000000Y-127450000D03*
X135000000Y-128950000D03*
X133600000Y-127450000D03*
X133600000Y-128950000D03*
X114100000Y-117500000D03*
X114100000Y-116000000D03*
X127825000Y-124550000D03*
X127825000Y-123050000D03*
X126400000Y-124550000D03*
X126400000Y-123050000D03*
X117900000Y-110550000D03*
X117900000Y-112050000D03*
D21*
X139470000Y-114870000D03*
X138200000Y-114870000D03*
X139470000Y-113600000D03*
X138200000Y-113600000D03*
X139470000Y-112330000D03*
X138200000Y-112330000D03*
D22*
X122500000Y-115350000D03*
X124000000Y-115350000D03*
X124000000Y-113750000D03*
X122500000Y-113750000D03*
D23*
X124300000Y-120050000D03*
X122800000Y-119650000D03*
D24*
X131350000Y-131800000D03*
X128850000Y-131800000D03*
D25*
X123650000Y-130140000D03*
X117550000Y-130140000D03*
X117550000Y-128870000D03*
X117550000Y-127600000D03*
X117550000Y-126330000D03*
X117550000Y-125060000D03*
X123650000Y-128870000D03*
X123650000Y-127600000D03*
X123650000Y-126330000D03*
X123650000Y-125060000D03*
D26*
X117550000Y-133100000D03*
X117550000Y-122100000D03*
D27*
X123150000Y-133100000D03*
D26*
X123650000Y-122100000D03*
D28*
X130200000Y-125175000D03*
X130700000Y-125175000D03*
X131200000Y-125175000D03*
X131700000Y-125175000D03*
X132200000Y-125175000D03*
X132700000Y-125175000D03*
X133200000Y-125175000D03*
X133700000Y-125175000D03*
X134200000Y-125175000D03*
X134700000Y-125175000D03*
X135200000Y-125175000D03*
X135700000Y-125175000D03*
D29*
X136325000Y-124550000D03*
X136325000Y-124050000D03*
X136325000Y-123550000D03*
X136325000Y-123050000D03*
X136325000Y-122550000D03*
X136325000Y-122050000D03*
X136325000Y-121550000D03*
X136325000Y-121050000D03*
X136325000Y-120550000D03*
X136325000Y-120050000D03*
X136325000Y-119550000D03*
X136325000Y-119050000D03*
D28*
X135700000Y-118425000D03*
X135200000Y-118425000D03*
X134700000Y-118425000D03*
X134200000Y-118425000D03*
X133700000Y-118425000D03*
X133200000Y-118425000D03*
X132700000Y-118425000D03*
X132200000Y-118425000D03*
X131700000Y-118425000D03*
X131200000Y-118425000D03*
X130700000Y-118425000D03*
X130200000Y-118425000D03*
D29*
X129575000Y-119050000D03*
X129575000Y-119550000D03*
X129575000Y-120050000D03*
X129575000Y-120550000D03*
X129575000Y-121050000D03*
X129575000Y-121550000D03*
X129575000Y-122050000D03*
X129575000Y-122550000D03*
X129575000Y-123050000D03*
X129575000Y-123550000D03*
X129575000Y-124050000D03*
X129575000Y-124550000D03*
D19*
X131700000Y-123050000D03*
X134200000Y-123050000D03*
X131700000Y-120550000D03*
X134200000Y-120550000D03*
D30*
X131700000Y-123050000D03*
X134200000Y-123050000D03*
X131700000Y-120550000D03*
X134200000Y-120550000D03*
D31*
X130450000Y-124300000D03*
X132950000Y-124300000D03*
X135450000Y-124300000D03*
X130450000Y-121800000D03*
X132950000Y-121800000D03*
X135450000Y-121800000D03*
X130450000Y-119300000D03*
X132950000Y-119300000D03*
X135450000Y-119300000D03*
D32*
X132950000Y-121800000D03*
D15*
X128000000Y-127450000D03*
X128000000Y-128950000D03*
D12*
X113250000Y-127950000D03*
X113250000Y-126450000D03*
D15*
X114800000Y-126450000D03*
X114800000Y-127950000D03*
X114800000Y-129350000D03*
X114800000Y-130850000D03*
X114800000Y-125050000D03*
X114800000Y-123550000D03*
D33*
X114500000Y-97550000D03*
D34*
X114500000Y-101931500D03*
X114500000Y-93168500D03*
D30*
X116150000Y-109750000D03*
X114150000Y-109750000D03*
X116150000Y-111750000D03*
X114150000Y-111750000D03*
D35*
X118250000Y-117800000D03*
X118250000Y-116800000D03*
X118250000Y-115800000D03*
X115550000Y-117800000D03*
X115550000Y-116800000D03*
X115550000Y-115800000D03*
D36*
X116900000Y-116800000D03*
D37*
X130130000Y-142040000D03*
X128700000Y-138030000D03*
X137350000Y-119800000D03*
X125350000Y-123300000D03*
X114500000Y-101931500D03*
X114500000Y-93168500D03*
X134400000Y-115650000D03*
X124200000Y-137300000D03*
X119200000Y-111850000D03*
X123250000Y-95500000D03*
X131000000Y-91500000D03*
X114100000Y-118650000D03*
X116900000Y-116800000D03*
X113350000Y-130850000D03*
X113250000Y-124550000D03*
X121550000Y-126350000D03*
X127700000Y-130100000D03*
X130100000Y-130000000D03*
X133600000Y-130000000D03*
X139200000Y-129600000D03*
X140200000Y-112400000D03*
X131700000Y-139850000D03*
X129850000Y-139800000D03*
X123550000Y-108400000D03*
X120350000Y-109950000D03*
X139300000Y-117700000D03*
X113150000Y-108500000D03*
X115200000Y-108450000D03*
X136000000Y-127400000D03*
X131420000Y-142070000D03*
X132520000Y-138520000D03*
X140350000Y-117150000D03*
X136200000Y-128800000D03*
X121550000Y-122100000D03*
X119688150Y-119205000D03*
X121550000Y-120950000D03*
X131500000Y-113900000D03*
X133150000Y-115500000D03*
X130500000Y-114900000D03*
X132100000Y-116500000D03*
X135000000Y-126200000D03*
X135000000Y-130200000D03*
X125950000Y-126650000D03*
X129400000Y-126250000D03*
D38*
X134050000Y-133750000D02*
X128000000Y-133750000D01*
X128000000Y-133750000D02*
X127650000Y-134100000D01*
X127650000Y-134100000D02*
X127650000Y-137250000D01*
X127650000Y-137250000D02*
X128430000Y-138030000D01*
X128430000Y-138030000D02*
X128700000Y-138030000D01*
D39*
X126000000Y-138750000D02*
X126720000Y-138030000D01*
X126720000Y-138030000D02*
X128700000Y-138030000D01*
X126000000Y-140500000D02*
X126000000Y-138750000D01*
D38*
X128500000Y-136350000D02*
X129050000Y-135800000D01*
D40*
X130450000Y-138700000D02*
X129050000Y-138700000D01*
D38*
X128700000Y-138030000D02*
X128710000Y-138020000D01*
X128700000Y-138250000D02*
X128700000Y-138030000D01*
D41*
X128450000Y-138800000D02*
X128700000Y-139050000D01*
D40*
X129050000Y-138700000D02*
X128700000Y-139050000D01*
X128700000Y-139050000D02*
X128700000Y-138250000D01*
D38*
X130450000Y-141800000D02*
X130210000Y-142040000D01*
X130450000Y-140900000D02*
X130450000Y-141800000D01*
X130210000Y-142040000D02*
X130130000Y-142040000D01*
D41*
X126200000Y-139900000D02*
X126200000Y-140500000D01*
D38*
X116150000Y-111750000D02*
X116900000Y-111750000D01*
X116900000Y-111750000D02*
X117200000Y-112050000D01*
X117200000Y-112050000D02*
X117900000Y-112050000D01*
X133700000Y-125175000D02*
X133700000Y-122550000D01*
X129575000Y-122550000D02*
X128325000Y-122550000D01*
X128325000Y-122550000D02*
X127825000Y-123050000D01*
X127900000Y-123050000D02*
X128900000Y-124050000D01*
X128900000Y-124050000D02*
X129575000Y-124050000D01*
X127825000Y-123050000D02*
X127900000Y-123050000D01*
X136325000Y-119550000D02*
X137100000Y-119550000D01*
X137100000Y-119550000D02*
X137350000Y-119800000D01*
X126400000Y-123050000D02*
X125600000Y-123050000D01*
X125600000Y-123050000D02*
X125350000Y-123300000D01*
D42*
X123250000Y-96800000D02*
X122550000Y-97500000D01*
X122550000Y-97500000D02*
X120650000Y-97500000D01*
X123250000Y-95500000D02*
X123250000Y-96800000D01*
D38*
X118300000Y-93750000D02*
X120400000Y-93750000D01*
X120400000Y-93750000D02*
X120650000Y-93500000D01*
D42*
X120650000Y-93500000D02*
X114831500Y-93500000D01*
X114831500Y-93500000D02*
X114500000Y-93168500D01*
X120050000Y-97500000D02*
X115618500Y-101931500D01*
X115618500Y-101931500D02*
X114500000Y-101931500D01*
X120650000Y-97500000D02*
X120050000Y-97500000D01*
X115418500Y-101931500D02*
X114500000Y-101931500D01*
D38*
X134350000Y-116850000D02*
X134350000Y-115700000D01*
X134350000Y-115700000D02*
X134400000Y-115650000D01*
X125369670Y-137269670D02*
X124230330Y-137269670D01*
X117900000Y-112050000D02*
X119000000Y-112050000D01*
X119000000Y-112050000D02*
X119200000Y-111850000D01*
D42*
X122400000Y-93500000D02*
X123250000Y-94350000D01*
X123250000Y-94350000D02*
X123250000Y-95500000D01*
X120650000Y-93500000D02*
X122400000Y-93500000D01*
D38*
X132450000Y-91500000D02*
X131000000Y-91500000D01*
X132450000Y-90000000D02*
X132450000Y-91500000D01*
X114100000Y-117500000D02*
X114100000Y-118650000D01*
X114100000Y-117500000D02*
X114100000Y-117550000D01*
X118250000Y-116800000D02*
X116900000Y-116800000D01*
X114800000Y-130850000D02*
X113350000Y-130850000D01*
X114800000Y-123550000D02*
X114250000Y-123550000D01*
X114250000Y-123550000D02*
X113250000Y-124550000D01*
X113250000Y-126450000D02*
X113250000Y-124550000D01*
X121840000Y-125060000D02*
X121550000Y-125350000D01*
X121550000Y-125350000D02*
X121550000Y-126350000D01*
X123650000Y-125060000D02*
X121840000Y-125060000D01*
X123650000Y-126330000D02*
X121570000Y-126330000D01*
X121570000Y-126330000D02*
X121550000Y-126350000D01*
X132200000Y-122550000D02*
X132950000Y-121800000D01*
X126400000Y-123050000D02*
X127825000Y-123050000D01*
X128000000Y-128950000D02*
X128000000Y-129800000D01*
X128000000Y-129800000D02*
X127700000Y-130100000D01*
X130100000Y-128950000D02*
X129400000Y-128950000D01*
X130800000Y-128950000D02*
X130100000Y-128950000D01*
X130100000Y-128950000D02*
X130100000Y-130000000D01*
X133600000Y-128950000D02*
X132200000Y-128950000D01*
X133600000Y-128950000D02*
X133600000Y-130000000D01*
X133700000Y-122550000D02*
X132950000Y-121800000D01*
X133600000Y-128950000D02*
X135000000Y-128950000D01*
X140200000Y-129050000D02*
X139750000Y-129050000D01*
X139750000Y-129050000D02*
X139200000Y-129600000D01*
X140200000Y-127350000D02*
X140200000Y-129050000D01*
X140200000Y-127350000D02*
X138600000Y-127350000D01*
X135200000Y-119550000D02*
X132950000Y-121800000D01*
X139470000Y-112330000D02*
X140130000Y-112330000D01*
X140130000Y-112330000D02*
X140200000Y-112400000D01*
D40*
X133400000Y-140650000D02*
X132850000Y-140650000D01*
D38*
X132900000Y-140650000D02*
X132100000Y-139850000D01*
X133400000Y-140650000D02*
X132900000Y-140650000D01*
X132100000Y-139850000D02*
X131700000Y-139850000D01*
X131700000Y-139850000D02*
X130400000Y-139850000D01*
X130350000Y-139800000D02*
X129850000Y-139800000D01*
X130400000Y-139850000D02*
X130350000Y-139800000D01*
X114350000Y-121400000D02*
X116400000Y-123450000D01*
X114800000Y-125050000D02*
X116400000Y-123450000D01*
X116400000Y-123450000D02*
X118500000Y-123450000D01*
X118500000Y-123450000D02*
X119500000Y-124450000D01*
X119500000Y-124450000D02*
X119500000Y-128450000D01*
X119500000Y-128450000D02*
X120200000Y-129150000D01*
X114800000Y-125050000D02*
X117540000Y-125050000D01*
X114350000Y-121400000D02*
X113450000Y-121400000D01*
X112600000Y-120550000D02*
X112600000Y-116000000D01*
X113450000Y-121400000D02*
X112600000Y-120550000D01*
D39*
X123350000Y-104050000D02*
X123350000Y-108200000D01*
X123350000Y-108200000D02*
X123550000Y-108400000D01*
X123600000Y-103800000D02*
X123350000Y-104050000D01*
X123600000Y-98450000D02*
X123600000Y-103800000D01*
X123750000Y-98300000D02*
X123600000Y-98450000D01*
D38*
X124000000Y-113150000D02*
X120800000Y-109950000D01*
X120800000Y-109950000D02*
X120350000Y-109950000D01*
X124000000Y-113750000D02*
X124000000Y-113150000D01*
X119000000Y-109600000D02*
X120000000Y-109600000D01*
X120000000Y-109600000D02*
X120350000Y-109950000D01*
X116500000Y-107100000D02*
X119000000Y-109600000D01*
X116500000Y-107100000D02*
X113250000Y-107100000D01*
X113250000Y-107100000D02*
X112600000Y-107750000D01*
X112600000Y-107750000D02*
X112600000Y-108500000D01*
X133950000Y-91500000D02*
X135950000Y-93500000D01*
X135950000Y-93500000D02*
X138350000Y-93500000D01*
X133950000Y-90000000D02*
X133950000Y-91500000D01*
X133550000Y-88850000D02*
X133950000Y-89250000D01*
X133950000Y-89250000D02*
X133950000Y-90000000D01*
X131650000Y-88850000D02*
X133550000Y-88850000D01*
X131000000Y-89500000D02*
X131650000Y-88850000D01*
X129500000Y-89500000D02*
X131000000Y-89500000D01*
D39*
X124650000Y-97400000D02*
X123750000Y-98300000D01*
X124650000Y-93150000D02*
X124650000Y-97400000D01*
X128300000Y-89500000D02*
X124650000Y-93150000D01*
X129500000Y-89500000D02*
X128300000Y-89500000D01*
D38*
X139300000Y-117050000D02*
X139300000Y-117700000D01*
X139470000Y-114870000D02*
X139470000Y-115370000D01*
X139470000Y-115370000D02*
X139750000Y-115650000D01*
X139300000Y-117050000D02*
X136050000Y-117050000D01*
X139750000Y-115650000D02*
X139750000Y-116600000D01*
X139750000Y-116600000D02*
X139300000Y-117050000D01*
X136050000Y-117050000D02*
X135850000Y-116850000D01*
X136950000Y-118850000D02*
X136750000Y-119050000D01*
X136750000Y-119050000D02*
X136325000Y-119050000D01*
X136950000Y-118250000D02*
X136950000Y-118850000D01*
X135850000Y-117150000D02*
X136950000Y-118250000D01*
X135850000Y-116850000D02*
X135850000Y-117150000D01*
X124000000Y-113750000D02*
X124000000Y-115350000D01*
X122100000Y-131050000D02*
X126800000Y-131050000D01*
X117550000Y-130140000D02*
X119210000Y-130140000D01*
X120200000Y-129150000D02*
X122100000Y-131050000D01*
X119210000Y-130140000D02*
X120200000Y-129150000D01*
X126800000Y-131850000D02*
X126800000Y-131050000D01*
X126800000Y-131050000D02*
X126800000Y-127450000D01*
X133400000Y-138750000D02*
X136400000Y-135750000D01*
X136400000Y-135750000D02*
X136400000Y-135490000D01*
X133400000Y-139150000D02*
X133400000Y-138750000D01*
X133950000Y-91500000D02*
X133950000Y-91550000D01*
X129500000Y-89500000D02*
X130000000Y-89500000D01*
X117100000Y-109050000D02*
X116500000Y-108450000D01*
X116500000Y-108450000D02*
X115200000Y-108450000D01*
X117100000Y-109750000D02*
X117100000Y-109050000D01*
X117950000Y-110500000D02*
X117900000Y-110550000D01*
X116150000Y-109750000D02*
X117100000Y-109750000D01*
X117100000Y-109750000D02*
X117900000Y-110550000D01*
X112600000Y-116000000D02*
X112600000Y-108500000D01*
X113150000Y-108500000D02*
X112600000Y-108500000D01*
X113600000Y-116000000D02*
X112600000Y-116000000D01*
X116400000Y-110000000D02*
X116150000Y-109750000D01*
X114100000Y-116000000D02*
X113600000Y-116000000D01*
X115150000Y-116800000D02*
X114350000Y-116000000D01*
X114350000Y-116000000D02*
X114100000Y-116000000D01*
X115550000Y-116800000D02*
X115150000Y-116800000D01*
X117540000Y-125050000D02*
X117550000Y-125060000D01*
X129175000Y-125175000D02*
X128000000Y-126350000D01*
X128000000Y-126350000D02*
X128000000Y-127450000D01*
X130200000Y-125175000D02*
X129175000Y-125175000D01*
X126800000Y-127450000D02*
X126800000Y-125650000D01*
X127250000Y-127450000D02*
X126800000Y-127450000D01*
X136400000Y-133050000D02*
X132400000Y-133050000D01*
X132400000Y-133050000D02*
X132350000Y-133100000D01*
X132350000Y-133100000D02*
X128050000Y-133100000D01*
X128050000Y-133100000D02*
X126800000Y-131850000D01*
X126800000Y-125650000D02*
X126400000Y-125250000D01*
X126400000Y-125250000D02*
X126400000Y-124550000D01*
X127250000Y-127450000D02*
X128000000Y-127450000D01*
X136400000Y-133050000D02*
X136400000Y-135490000D01*
X136400000Y-129800000D02*
X136400000Y-133050000D01*
X136000000Y-127400000D02*
X136100000Y-127400000D01*
X136100000Y-127400000D02*
X137100000Y-128400000D01*
X137100000Y-128400000D02*
X137100000Y-129100000D01*
X137100000Y-129100000D02*
X136400000Y-129800000D01*
X127825000Y-124550000D02*
X129575000Y-124550000D01*
X126400000Y-124550000D02*
X127825000Y-124550000D01*
X133600000Y-127450000D02*
X135000000Y-127450000D01*
X134200000Y-126000000D02*
X133600000Y-126600000D01*
X133600000Y-126600000D02*
X133600000Y-127450000D01*
X134200000Y-125175000D02*
X134200000Y-126000000D01*
X136000000Y-127400000D02*
X135050000Y-127400000D01*
X135050000Y-127400000D02*
X135000000Y-127450000D01*
X139470000Y-114870000D02*
X139470000Y-115070000D01*
X132520000Y-138520000D02*
X132340000Y-138700000D01*
X132770000Y-138520000D02*
X133400000Y-139150000D01*
X132520000Y-138520000D02*
X132770000Y-138520000D01*
X132340000Y-138700000D02*
X131750000Y-138700000D01*
X131100000Y-140900000D02*
X131100000Y-141750000D01*
X131100000Y-141750000D02*
X131420000Y-142070000D01*
X131700000Y-126200000D02*
X130800000Y-127100000D01*
X130800000Y-127100000D02*
X130800000Y-127450000D01*
X131700000Y-125175000D02*
X131700000Y-126200000D01*
X131500000Y-128200000D02*
X131500000Y-131650000D01*
X131500000Y-131650000D02*
X131350000Y-131800000D01*
X130800000Y-127500000D02*
X131500000Y-128200000D01*
X130800000Y-127450000D02*
X130800000Y-127500000D01*
X131500000Y-130950000D02*
X131550000Y-131000000D01*
X130800000Y-127450000D02*
X130800000Y-127600000D01*
X130550000Y-126700000D02*
X130150000Y-126700000D01*
X130150000Y-126700000D02*
X129400000Y-127450000D01*
X131200000Y-126050000D02*
X130550000Y-126700000D01*
X131200000Y-125175000D02*
X131200000Y-126050000D01*
X129450000Y-127450000D02*
X129400000Y-127450000D01*
X128700000Y-127900000D02*
X128700000Y-131650000D01*
X128700000Y-131650000D02*
X128850000Y-131800000D01*
X129150000Y-127450000D02*
X128700000Y-127900000D01*
X129400000Y-127450000D02*
X129150000Y-127450000D01*
X129400000Y-127450000D02*
X129350000Y-127450000D01*
X133200000Y-125175000D02*
X133200000Y-126000000D01*
X133200000Y-126000000D02*
X132200000Y-127000000D01*
X139470000Y-113600000D02*
X140350000Y-114480000D01*
X140350000Y-114480000D02*
X140350000Y-115150000D01*
X140350000Y-117150000D02*
X140350000Y-115150000D01*
X135600000Y-128200000D02*
X132800000Y-128200000D01*
X136200000Y-128800000D02*
X135600000Y-128200000D01*
X132200000Y-127600000D02*
X132800000Y-128200000D01*
X132200000Y-127450000D02*
X132200000Y-127600000D01*
X132200000Y-127000000D02*
X132200000Y-127450000D01*
X139470000Y-113600000D02*
X139470000Y-113670000D01*
X116100000Y-97500000D02*
X114550000Y-97500000D01*
X114550000Y-97500000D02*
X114500000Y-97550000D01*
X117800000Y-96650000D02*
X117800000Y-97200000D01*
X117800000Y-97200000D02*
X117450000Y-97550000D01*
D42*
X119500000Y-95500000D02*
X118950000Y-96050000D01*
X118950000Y-96050000D02*
X117450000Y-97550000D01*
D38*
X118450000Y-95250000D02*
X118950000Y-95750000D01*
X118950000Y-95750000D02*
X118950000Y-96050000D01*
X118300000Y-95250000D02*
X118450000Y-95250000D01*
D42*
X117450000Y-97550000D02*
X114500000Y-97550000D01*
X120650000Y-95500000D02*
X119500000Y-95500000D01*
D38*
X140025000Y-125225000D02*
X140200000Y-125400000D01*
X140200000Y-125400000D02*
X140200000Y-125850000D01*
X140025000Y-124349020D02*
X140025000Y-125225000D01*
X138125000Y-124925000D02*
X138600000Y-125400000D01*
X138600000Y-125400000D02*
X138600000Y-125850000D01*
X138125000Y-124349020D02*
X138125000Y-124925000D01*
X133200000Y-114200000D02*
X131200000Y-116200000D01*
X131200000Y-116200000D02*
X131200000Y-118425000D01*
X137200000Y-114200000D02*
X133200000Y-114200000D01*
X137870000Y-114870000D02*
X137200000Y-114200000D01*
X138200000Y-114870000D02*
X137870000Y-114870000D01*
X128800000Y-118800000D02*
X129050000Y-119050000D01*
X129050000Y-119050000D02*
X129575000Y-119050000D01*
X128800000Y-117800000D02*
X128800000Y-118800000D01*
X133000000Y-113600000D02*
X128800000Y-117800000D01*
X138200000Y-113600000D02*
X133000000Y-113600000D01*
X138050000Y-129700000D02*
X138900000Y-130550000D01*
X138900000Y-130550000D02*
X140200000Y-130550000D01*
X138050000Y-128000000D02*
X138050000Y-129700000D01*
X137500000Y-127450000D02*
X138050000Y-128000000D01*
X137500000Y-126700000D02*
X137500000Y-127450000D01*
X136325000Y-125525000D02*
X137500000Y-126700000D01*
X136325000Y-124550000D02*
X136325000Y-125525000D01*
X139260000Y-135540000D02*
X140200000Y-134600000D01*
X140200000Y-134600000D02*
X140200000Y-130550000D01*
X138800000Y-135540000D02*
X139260000Y-135540000D01*
X121750000Y-119850000D02*
X120900000Y-119850000D01*
X120900000Y-119850000D02*
X120500000Y-120250000D01*
X120500000Y-120250000D02*
X119200000Y-120250000D01*
X119200000Y-120250000D02*
X117822000Y-118872000D01*
X117822000Y-118872000D02*
X116078000Y-118872000D01*
X116078000Y-118872000D02*
X115550000Y-118344000D01*
X115550000Y-118344000D02*
X115550000Y-117800000D01*
X121750000Y-115100000D02*
X121750000Y-113800000D01*
X121750000Y-115400000D02*
X121750000Y-115100000D01*
X121750000Y-115100000D02*
X121750000Y-119850000D01*
X121750000Y-119850000D02*
X122600000Y-120700000D01*
X114680000Y-113030000D02*
X120980000Y-113030000D01*
X120980000Y-113030000D02*
X121750000Y-113800000D01*
X114150000Y-111750000D02*
X114150000Y-112500000D01*
X114150000Y-112500000D02*
X114680000Y-113030000D01*
X124300000Y-120050000D02*
X124300000Y-120700000D01*
X122500000Y-115350000D02*
X121800000Y-115350000D01*
X121800000Y-115350000D02*
X121750000Y-115400000D01*
X123650000Y-120700000D02*
X124300000Y-120700000D01*
X124300000Y-120700000D02*
X125600000Y-120700000D01*
X120650000Y-123000000D02*
X120650000Y-127050000D01*
X121550000Y-122100000D02*
X120650000Y-123000000D01*
X122600000Y-120700000D02*
X123650000Y-120700000D01*
X125600000Y-120700000D02*
X126450000Y-121550000D01*
X126450000Y-121550000D02*
X129575000Y-121550000D01*
X123650000Y-128870000D02*
X122470000Y-128870000D01*
X122470000Y-128870000D02*
X120650000Y-127050000D01*
X123650000Y-128870000D02*
X122620000Y-128870000D01*
X118250000Y-117800000D02*
X118283150Y-117800000D01*
X118283150Y-117800000D02*
X119688150Y-119205000D01*
X120950000Y-110900000D02*
X119650000Y-110900000D01*
X119650000Y-110900000D02*
X116300000Y-107550000D01*
X122500000Y-112450000D02*
X120950000Y-110900000D01*
X122500000Y-113750000D02*
X122500000Y-112450000D01*
X116300000Y-107550000D02*
X114600000Y-107550000D01*
X114600000Y-107550000D02*
X114150000Y-108000000D01*
X114150000Y-108000000D02*
X114150000Y-109750000D01*
X123250000Y-115950000D02*
X123250000Y-114500000D01*
X123250000Y-114500000D02*
X122500000Y-113750000D01*
X122300000Y-116900000D02*
X123250000Y-115950000D01*
X122300000Y-119150000D02*
X122300000Y-116900000D01*
X122300000Y-119150000D02*
X122800000Y-119650000D01*
X120100000Y-127600000D02*
X120100000Y-121350000D01*
X120100000Y-121350000D02*
X120500000Y-120950000D01*
X120500000Y-120950000D02*
X121550000Y-120950000D01*
X125350000Y-121200000D02*
X121800000Y-121200000D01*
X121800000Y-121200000D02*
X121550000Y-120950000D01*
X126200000Y-122050000D02*
X125350000Y-121200000D01*
X129575000Y-122050000D02*
X126200000Y-122050000D01*
X123650000Y-130140000D02*
X122640000Y-130140000D01*
X122640000Y-130140000D02*
X120100000Y-127600000D01*
X131500000Y-113900000D02*
X131950000Y-113900000D01*
X131950000Y-113900000D02*
X138350000Y-107500000D01*
X132200000Y-117900000D02*
X133150000Y-116950000D01*
X133150000Y-116950000D02*
X133150000Y-115500000D01*
X132200000Y-118425000D02*
X132200000Y-117900000D01*
X129575000Y-120050000D02*
X129100000Y-120050000D01*
X122900000Y-100300000D02*
X122100000Y-99500000D01*
X129100000Y-120050000D02*
X128300000Y-119250000D01*
X128300000Y-115200000D02*
X122100000Y-109000000D01*
X128300000Y-119250000D02*
X128300000Y-115200000D01*
X121800000Y-104500000D02*
X122900000Y-103400000D01*
X122100000Y-109000000D02*
X122100000Y-106800000D01*
X122100000Y-106800000D02*
X121800000Y-106500000D01*
X121800000Y-106500000D02*
X119450000Y-106500000D01*
X119450000Y-106500000D02*
X119250000Y-106300000D01*
X122900000Y-103400000D02*
X122900000Y-100300000D01*
X119250000Y-106300000D02*
X119250000Y-104700000D01*
X119250000Y-104700000D02*
X119450000Y-104500000D01*
X119450000Y-104500000D02*
X121800000Y-104500000D01*
X122100000Y-99500000D02*
X120650000Y-99500000D01*
X129575000Y-120550000D02*
X128900000Y-120550000D01*
X127800000Y-115400000D02*
X121000000Y-108600000D01*
X128900000Y-120550000D02*
X127800000Y-119450000D01*
X119300000Y-108600000D02*
X118700000Y-108000000D01*
X127800000Y-119450000D02*
X127800000Y-115400000D01*
X118700000Y-108000000D02*
X118700000Y-102100000D01*
X121000000Y-108600000D02*
X119300000Y-108600000D01*
X118700000Y-102100000D02*
X119300000Y-101500000D01*
X119300000Y-101500000D02*
X120650000Y-101500000D01*
X129575000Y-121050000D02*
X128700000Y-121050000D01*
X118200000Y-108150000D02*
X118200000Y-101100000D01*
X128700000Y-121050000D02*
X127300000Y-119650000D01*
X121900000Y-100500000D02*
X122250000Y-100850000D01*
X127300000Y-119650000D02*
X127300000Y-115700000D01*
X127300000Y-115700000D02*
X120700000Y-109100000D01*
X118200000Y-101100000D02*
X118800000Y-100500000D01*
X120700000Y-109100000D02*
X119150000Y-109100000D01*
X119150000Y-109100000D02*
X118200000Y-108150000D01*
X118800000Y-100500000D02*
X121900000Y-100500000D01*
X122250000Y-100850000D02*
X122250000Y-103200000D01*
X122250000Y-103200000D02*
X121950000Y-103500000D01*
X121950000Y-103500000D02*
X120650000Y-103500000D01*
X122650000Y-106500000D02*
X121650000Y-105500000D01*
X121650000Y-105500000D02*
X120650000Y-105500000D01*
X122650000Y-108700000D02*
X122650000Y-106500000D01*
X128850000Y-114900000D02*
X122650000Y-108700000D01*
X130500000Y-114900000D02*
X128850000Y-114900000D01*
X131700000Y-118425000D02*
X131700000Y-116900000D01*
X131700000Y-116900000D02*
X132100000Y-116500000D01*
X140025000Y-122250980D02*
X138975980Y-123300000D01*
X138975980Y-123300000D02*
X137450000Y-123300000D01*
X137450000Y-123300000D02*
X136700000Y-122550000D01*
X136700000Y-122550000D02*
X136325000Y-122550000D01*
X136325000Y-122050000D02*
X137924020Y-122050000D01*
X137924020Y-122050000D02*
X138125000Y-122250980D01*
X135700000Y-125175000D02*
X135700000Y-125700000D01*
X136900000Y-127500000D02*
X137600000Y-128200000D01*
X135700000Y-125700000D02*
X136900000Y-126900000D01*
X136900000Y-126900000D02*
X136900000Y-127500000D01*
X137600000Y-128200000D02*
X137600000Y-131800000D01*
X137600000Y-131800000D02*
X138800000Y-133000000D01*
X134050000Y-132250000D02*
X134050000Y-131150000D01*
X134050000Y-131150000D02*
X135000000Y-130200000D01*
X135000000Y-126200000D02*
X134700000Y-125900000D01*
X134700000Y-125900000D02*
X134700000Y-125175000D01*
X125000000Y-127600000D02*
X125950000Y-126650000D01*
X123650000Y-127600000D02*
X125000000Y-127600000D01*
X130350000Y-126150000D02*
X129500000Y-126150000D01*
X129500000Y-126150000D02*
X129400000Y-126250000D01*
X130700000Y-125800000D02*
X130350000Y-126150000D01*
X130700000Y-125175000D02*
X130700000Y-125800000D01*
X114800000Y-129350000D02*
X115280000Y-128870000D01*
X115280000Y-128870000D02*
X117550000Y-128870000D01*
X114800000Y-126450000D02*
X117430000Y-126450000D01*
X117430000Y-126450000D02*
X117550000Y-126330000D01*
X113250000Y-127950000D02*
X114800000Y-127950000D01*
D10*
G36*
X133016660Y-140287262D02*
X133033458Y-140297184D01*
X133050000Y-140300000D01*
X134250000Y-140300000D01*
X134250000Y-141450000D01*
X132261803Y-141450000D01*
X131972361Y-141305279D01*
X131950000Y-141300000D01*
X131600000Y-141300000D01*
X131600000Y-140150000D01*
X131596194Y-140130866D01*
X131585355Y-140114645D01*
X131569134Y-140103806D01*
X131550000Y-140100000D01*
X130050000Y-140100000D01*
X130030866Y-140103806D01*
X130011452Y-140118156D01*
X129076450Y-141250000D01*
X128000000Y-141250000D01*
X128000000Y-140200000D01*
X129050000Y-140200000D01*
X129069134Y-140196194D01*
X129080000Y-140190000D01*
X130066667Y-139450000D01*
X132080897Y-139450000D01*
X133016660Y-140287262D01*
X133016660Y-140287262D01*
G37*
X133016660Y-140287262D02*
X133033458Y-140297184D01*
X133050000Y-140300000D01*
X134250000Y-140300000D01*
X134250000Y-141450000D01*
X132261803Y-141450000D01*
X131972361Y-141305279D01*
X131950000Y-141300000D01*
X131600000Y-141300000D01*
X131600000Y-140150000D01*
X131596194Y-140130866D01*
X131585355Y-140114645D01*
X131569134Y-140103806D01*
X131550000Y-140100000D01*
X130050000Y-140100000D01*
X130030866Y-140103806D01*
X130011452Y-140118156D01*
X129076450Y-141250000D01*
X128000000Y-141250000D01*
X128000000Y-140200000D01*
X129050000Y-140200000D01*
X129069134Y-140196194D01*
X129080000Y-140190000D01*
X130066667Y-139450000D01*
X132080897Y-139450000D01*
X133016660Y-140287262D01*
G36*
X134100000Y-139500000D02*
X133061803Y-139500000D01*
X132272361Y-139105279D01*
X132250000Y-139100000D01*
X131600000Y-139100000D01*
X131600000Y-138289776D01*
X132855696Y-138000000D01*
X134100000Y-138000000D01*
X134100000Y-139500000D01*
X134100000Y-139500000D01*
G37*
X134100000Y-139500000D02*
X133061803Y-139500000D01*
X132272361Y-139105279D01*
X132250000Y-139100000D01*
X131600000Y-139100000D01*
X131600000Y-138289776D01*
X132855696Y-138000000D01*
X134100000Y-138000000D01*
X134100000Y-139500000D01*
G36*
X132350000Y-137274734D02*
X131420340Y-137959747D01*
X131407125Y-137974275D01*
X131257125Y-138224275D01*
X131250000Y-138250000D01*
X131250000Y-139100000D01*
X130950000Y-139100000D01*
X130950000Y-134350000D01*
X132350000Y-134350000D01*
X132350000Y-137274734D01*
X132350000Y-137274734D01*
G37*
X132350000Y-137274734D02*
X131420340Y-137959747D01*
X131407125Y-137974275D01*
X131257125Y-138224275D01*
X131250000Y-138250000D01*
X131250000Y-139100000D01*
X130950000Y-139100000D01*
X130950000Y-134350000D01*
X132350000Y-134350000D01*
X132350000Y-137274734D01*
G36*
X129750000Y-137888539D02*
X129018648Y-139400000D01*
X127600000Y-139400000D01*
X127600000Y-138070710D01*
X128335355Y-137335355D01*
X128346194Y-137319134D01*
X128350000Y-137300000D01*
X128350000Y-134350000D01*
X129750000Y-134350000D01*
X129750000Y-137888539D01*
X129750000Y-137888539D01*
G37*
X129750000Y-137888539D02*
X129018648Y-139400000D01*
X127600000Y-139400000D01*
X127600000Y-138070710D01*
X128335355Y-137335355D01*
X128346194Y-137319134D01*
X128350000Y-137300000D01*
X128350000Y-134350000D01*
X129750000Y-134350000D01*
X129750000Y-137888539D01*
M02*
