G04 #@! TF.FileFunction,Soldermask,Bot*
%FSLAX46Y46*%
G04 Gerber Fmt 4.6, Leading zero omitted, Abs format (unit mm)*
G04 Created by KiCad (PCBNEW 4.0.1-3.201512150931+6195~38~ubuntu14.04.1-stable) date Sat 02 Jan 2016 04:25:21 GMT*
%MOMM*%
G01*
G04 APERTURE LIST*
%ADD10C,0.100000*%
%ADD11C,2.400000*%
%ADD12C,1.416000*%
%ADD13C,1.400000*%
%ADD14C,2.200000*%
%ADD15C,1.150000*%
G04 APERTURE END LIST*
D10*
G36*
X107050000Y-105802944D02*
X108747056Y-107500000D01*
X107050000Y-109197056D01*
X105352944Y-107500000D01*
X107050000Y-105802944D01*
X107050000Y-105802944D01*
G37*
D11*
X105253949Y-105703949D03*
D12*
X121098025Y-123305923D03*
X121996051Y-124203949D03*
X120200000Y-124203949D03*
X121098025Y-125101975D03*
X119301974Y-125101975D03*
X120200000Y-126000000D03*
X118403949Y-126000000D03*
X119301974Y-126898026D03*
X117505923Y-126898026D03*
X118403949Y-127796051D03*
D10*
G36*
X131969794Y-100444739D02*
X135844739Y-96569794D01*
X137833830Y-98558885D01*
X133958885Y-102433830D01*
X131969794Y-100444739D01*
X131969794Y-100444739D01*
G37*
G36*
X138166170Y-106641115D02*
X142041115Y-102766170D01*
X144030206Y-104755261D01*
X140155261Y-108630206D01*
X138166170Y-106641115D01*
X138166170Y-106641115D01*
G37*
D13*
X112348008Y-116805367D03*
X115494633Y-119951992D03*
D10*
G36*
X114197092Y-121525305D02*
X116205275Y-123533488D01*
X114578930Y-125159833D01*
X112570747Y-123151650D01*
X114197092Y-121525305D01*
X114197092Y-121525305D01*
G37*
G36*
X109148350Y-119729253D02*
X107140167Y-117721070D01*
X108766512Y-116094725D01*
X110774695Y-118102908D01*
X109148350Y-119729253D01*
X109148350Y-119729253D01*
G37*
D14*
X134800000Y-105500000D03*
X141400000Y-136200000D03*
X143500000Y-134200000D03*
D15*
X122850000Y-108000000D03*
X124000000Y-106900000D03*
D13*
X125397039Y-127404936D03*
X121086516Y-130278618D03*
X122523357Y-131715459D03*
D11*
X108565224Y-94715224D03*
X145334776Y-131484776D03*
M02*
