M48
;DRILL file {KiCad 4.0.1-3.201512150931+6195~38~ubuntu14.04.1-stable} date Thu 31 Dec 2015 00:46:44 GMT
;FORMAT={-:-/ absolute / inch / decimal}
FMAT,2
INCH,TZ
T1C0.008
T2C0.024
T3C0.025
T4C0.031
T5C0.035
T6C0.039
T7C0.026
%
G90
G05
M72
T1
X4.4646Y-3.7795
X4.5Y-3.7795
T2
X4.1339Y-4.9173
X4.1535Y-3.8248
X4.2244Y-4.7677
X4.2992Y-4.7008
X4.311Y-5.2244
X4.315Y-4.1614
X4.3189Y-4.8268
X4.3268Y-4.5906
X4.4252Y-5.1378
X4.4291Y-4.2441
X4.437Y-4.3543
X4.5079Y-4.3543
X4.5906Y-4.8583
X4.6732Y-4.5197
X4.7126Y-4.6181
X4.7126Y-4.7638
X4.7205Y-4.563
X4.7323Y-4.4173
X4.7677Y-4.6811
X4.7756Y-4.6181
X4.7795Y-4.3425
X4.7913Y-4.4213
X4.7953Y-4.4803
X4.8189Y-5.0197
X4.8386Y-4.6811
X4.8504Y-3.5787
X4.8976Y-5.1496
X4.9528Y-4.6417
X5.0433Y-4.6142
X5.0827Y-4.8465
X5.1063Y-5.0945
X5.1063Y-5.1535
X5.1378Y-5.0039
X5.1457Y-5.3228
X5.2165Y-5.0748
X5.2165Y-5.1339
X5.2795Y-5.1417
X5.3386Y-5.3504
X5.3661Y-5.0748
X5.4409Y-4.
X5.4567Y-5.2638
X5.5984Y-3.9961
T3
X4.6535Y-5.2756
X4.6535Y-5.3256
X4.7035Y-5.2756
X4.7035Y-5.3256
X4.7535Y-5.2756
X4.7535Y-5.3256
X4.8035Y-5.2756
X4.8035Y-5.3256
X4.8535Y-5.2756
X4.8535Y-5.3256
T4
X5.5354Y-4.9291
T5
X4.2723Y-3.725
X5.7199Y-5.1726
T6
X4.1772Y-4.1953
X4.1772Y-4.2953
T7
X4.2589Y-5.0982
X4.3703Y-5.2096
T0
M30
