G04 #@! TF.FileFunction,Copper,L2,Bot,Signal*
%FSLAX46Y46*%
G04 Gerber Fmt 4.6, Leading zero omitted, Abs format (unit mm)*
G04 Created by KiCad (PCBNEW 4.0.1-3.201512221402+6198~38~ubuntu14.04.1-stable) date Fri 05 Feb 2016 15:13:30 GMT*
%MOMM*%
G01*
G04 APERTURE LIST*
%ADD10C,0.100000*%
%ADD11C,0.960000*%
%ADD12O,1.900000X1.310000*%
%ADD13R,5.080000X2.413000*%
%ADD14R,2.000000X2.000000*%
%ADD15C,2.000000*%
%ADD16C,1.800000*%
%ADD17C,0.750000*%
%ADD18C,1.016000*%
%ADD19C,0.250000*%
%ADD20C,0.300000*%
%ADD21C,0.200000*%
G04 APERTURE END LIST*
D10*
D11*
X136150000Y-114175000D03*
X136150000Y-118625000D03*
D12*
X139150000Y-112225000D03*
X139150000Y-120575000D03*
D13*
X138500000Y-88118500D03*
X138500000Y-96881500D03*
D14*
X136190000Y-105580000D03*
D15*
X138730000Y-105580000D03*
D16*
X136750000Y-92500000D03*
X135630000Y-102280000D03*
X138990000Y-102170000D03*
D17*
X124500000Y-114500000D03*
X118825000Y-123000000D03*
D18*
X137230000Y-128240000D03*
X138500000Y-128240000D03*
X137230000Y-129510000D03*
X138500000Y-129510000D03*
X137230000Y-130780000D03*
X138500000Y-130780000D03*
X137230000Y-132050000D03*
X138500000Y-132050000D03*
X137230000Y-133320000D03*
X138500000Y-133320000D03*
D15*
X126500000Y-140500000D03*
X126500000Y-88500000D03*
D11*
X131180000Y-142140000D03*
X129750000Y-138130000D03*
X135600000Y-121675000D03*
X132625000Y-125450000D03*
X137475000Y-124550000D03*
X140275000Y-124500000D03*
X130900000Y-139900000D03*
X132750000Y-139950000D03*
X133725000Y-130350000D03*
X132700000Y-133650000D03*
X128190000Y-141600000D03*
X125030000Y-136350000D03*
X119100000Y-137070000D03*
X119960000Y-135240000D03*
X120610000Y-126190000D03*
X118870000Y-126200000D03*
X120600000Y-120550000D03*
X122830000Y-118470000D03*
X122610000Y-116940000D03*
X119620000Y-117100000D03*
X135200000Y-115100000D03*
X131700000Y-113990000D03*
X134940000Y-111150000D03*
X137500000Y-109140000D03*
X133900000Y-93850000D03*
X129000000Y-89550000D03*
X133570000Y-138620000D03*
X132470000Y-142170000D03*
X121920000Y-123140000D03*
X123930000Y-120070000D03*
X134375000Y-135600000D03*
X136300000Y-137975000D03*
X129600000Y-122650000D03*
X135875000Y-126800000D03*
X138775000Y-127025000D03*
X129875000Y-121450000D03*
X133375000Y-124500000D03*
X128425000Y-120050000D03*
X126240000Y-125670000D03*
X127670000Y-113400000D03*
X124440000Y-113440000D03*
X128700000Y-121200000D03*
X127320000Y-126150000D03*
X131975000Y-118725000D03*
X133325000Y-122125000D03*
X126890000Y-106430000D03*
X123620000Y-105830000D03*
X131100000Y-119575000D03*
X132500000Y-123000000D03*
D19*
X131180000Y-142140000D02*
X129760000Y-140720000D01*
X129760000Y-140720000D02*
X129760000Y-140540000D01*
X129760000Y-140540000D02*
X129760000Y-138120000D01*
X132470000Y-142170000D02*
X133570000Y-141070000D01*
X133570000Y-141070000D02*
X133570000Y-140920000D01*
D20*
X122050000Y-121900000D02*
X122050000Y-123010000D01*
X122050000Y-123010000D02*
X121920000Y-123140000D01*
X122050000Y-121900000D02*
X123880000Y-120070000D01*
X123880000Y-120070000D02*
X123930000Y-120070000D01*
D19*
X133570000Y-140920000D02*
X133570000Y-138620000D01*
X134925000Y-135600000D02*
X134375000Y-135600000D01*
X136300000Y-137975000D02*
X136310000Y-137965000D01*
X136310000Y-137965000D02*
X136310000Y-135690000D01*
X134925000Y-135600000D02*
X136220000Y-135600000D01*
X136310000Y-135690000D02*
X136220000Y-135600000D01*
X136220000Y-135600000D02*
X136300000Y-135520000D01*
X136300000Y-135520000D02*
X138500000Y-133320000D01*
X136730000Y-127370000D02*
X136425000Y-127675000D01*
X136425000Y-127675000D02*
X133650000Y-127675000D01*
X133650000Y-127675000D02*
X129440000Y-123465000D01*
X129440000Y-123465000D02*
X129440000Y-122810000D01*
X129440000Y-122810000D02*
X129600000Y-122650000D01*
X138500000Y-128240000D02*
X138500000Y-128220000D01*
X138500000Y-128220000D02*
X137650000Y-127370000D01*
X137650000Y-127370000D02*
X136730000Y-127370000D01*
X135875000Y-126800000D02*
X138550000Y-126800000D01*
X138550000Y-126800000D02*
X138775000Y-127025000D01*
X139425000Y-127675000D02*
X139425000Y-128585000D01*
X139425000Y-128585000D02*
X138500000Y-129510000D01*
X138775000Y-127025000D02*
X139425000Y-127675000D01*
X129875000Y-121450000D02*
X129875000Y-121605000D01*
X132770000Y-124500000D02*
X133375000Y-124500000D01*
X129875000Y-121605000D02*
X132770000Y-124500000D01*
X127800000Y-120850000D02*
X127800000Y-120675000D01*
X127800000Y-120675000D02*
X128425000Y-120050000D01*
X127800000Y-121325000D02*
X127800000Y-120850000D01*
X126240000Y-122885000D02*
X127800000Y-121325000D01*
X126240000Y-123710000D02*
X126240000Y-122885000D01*
X126240000Y-123710000D02*
X126240000Y-125670000D01*
D20*
X126325000Y-125585000D02*
X126240000Y-125670000D01*
X124440000Y-113440000D02*
X127630000Y-113440000D01*
X127630000Y-113440000D02*
X127670000Y-113400000D01*
D19*
X126800000Y-124025000D02*
X126800000Y-123100000D01*
X126800000Y-123100000D02*
X128700000Y-121200000D01*
X126800000Y-124025000D02*
X126800000Y-124900000D01*
X126800000Y-124900000D02*
X127320000Y-125420000D01*
X127320000Y-125420000D02*
X127320000Y-126150000D01*
X131975000Y-118725000D02*
X131975000Y-120775000D01*
X131975000Y-120775000D02*
X133325000Y-122125000D01*
X133325000Y-122125000D02*
X132965000Y-122125000D01*
X126890000Y-106430000D02*
X124230000Y-106430000D01*
X124230000Y-106430000D02*
X123630000Y-105830000D01*
X123630000Y-105830000D02*
X123620000Y-105830000D01*
X131100000Y-119575000D02*
X131100000Y-121600000D01*
X131100000Y-121600000D02*
X132500000Y-123000000D01*
X132500000Y-123000000D02*
X132340000Y-123000000D01*
D21*
G36*
X140246121Y-86405813D02*
X140454772Y-86545229D01*
X140499386Y-86612000D01*
X138725000Y-86612000D01*
X138650000Y-86687000D01*
X138650000Y-87968500D01*
X138670000Y-87968500D01*
X138670000Y-88268500D01*
X138650000Y-88268500D01*
X138650000Y-89550000D01*
X138725000Y-89625000D01*
X140650000Y-89625000D01*
X140650000Y-95375000D01*
X138725000Y-95375000D01*
X138650000Y-95450000D01*
X138650000Y-96731500D01*
X138670000Y-96731500D01*
X138670000Y-97031500D01*
X138650000Y-97031500D01*
X138650000Y-98313000D01*
X138725000Y-98388000D01*
X140650000Y-98388000D01*
X140650000Y-141965528D01*
X140594187Y-142246120D01*
X140454772Y-142454771D01*
X140246121Y-142594187D01*
X139965528Y-142650000D01*
X133093211Y-142650000D01*
X133130866Y-142612411D01*
X133249864Y-142325832D01*
X133250135Y-142015529D01*
X133242935Y-141998105D01*
X133870520Y-141370520D01*
X133962649Y-141232641D01*
X133995000Y-141070000D01*
X133995000Y-140678432D01*
X136218861Y-140678432D01*
X136340397Y-140972572D01*
X136565245Y-141197812D01*
X136859172Y-141319861D01*
X137177432Y-141320139D01*
X137471572Y-141198603D01*
X137696812Y-140973755D01*
X137818861Y-140679828D01*
X137818862Y-140678432D01*
X138250861Y-140678432D01*
X138372397Y-140972572D01*
X138597245Y-141197812D01*
X138891172Y-141319861D01*
X139209432Y-141320139D01*
X139503572Y-141198603D01*
X139728812Y-140973755D01*
X139850861Y-140679828D01*
X139851139Y-140361568D01*
X139729603Y-140067428D01*
X139504755Y-139842188D01*
X139210828Y-139720139D01*
X138892568Y-139719861D01*
X138598428Y-139841397D01*
X138373188Y-140066245D01*
X138251139Y-140360172D01*
X138250861Y-140678432D01*
X137818862Y-140678432D01*
X137819139Y-140361568D01*
X137697603Y-140067428D01*
X137472755Y-139842188D01*
X137178828Y-139720139D01*
X136860568Y-139719861D01*
X136566428Y-139841397D01*
X136341188Y-140066245D01*
X136219139Y-140360172D01*
X136218861Y-140678432D01*
X133995000Y-140678432D01*
X133995000Y-139288354D01*
X134011257Y-139281637D01*
X134230866Y-139062411D01*
X134349864Y-138775832D01*
X134350135Y-138465529D01*
X134231637Y-138178743D01*
X134012411Y-137959134D01*
X133725832Y-137840136D01*
X133415529Y-137839865D01*
X133128743Y-137958363D01*
X132909134Y-138177589D01*
X132790136Y-138464168D01*
X132789865Y-138774471D01*
X132908363Y-139061257D01*
X133127589Y-139280866D01*
X133145000Y-139288096D01*
X133145000Y-140893960D01*
X132642078Y-141396882D01*
X132625832Y-141390136D01*
X132315529Y-141389865D01*
X132028743Y-141508363D01*
X131839837Y-141696940D01*
X131622411Y-141479134D01*
X131335832Y-141360136D01*
X131025529Y-141359865D01*
X131008105Y-141367064D01*
X130185000Y-140543960D01*
X130185000Y-138794222D01*
X130191257Y-138791637D01*
X130410866Y-138572411D01*
X130529864Y-138285832D01*
X130530135Y-137975529D01*
X130411637Y-137688743D01*
X130192411Y-137469134D01*
X129905832Y-137350136D01*
X129595529Y-137349865D01*
X129308743Y-137468363D01*
X129089134Y-137687589D01*
X128970136Y-137974168D01*
X128969865Y-138284471D01*
X129088363Y-138571257D01*
X129307589Y-138790866D01*
X129335000Y-138802248D01*
X129335000Y-140720000D01*
X129358973Y-140840520D01*
X129367351Y-140882641D01*
X129459480Y-141020520D01*
X130406882Y-141967922D01*
X130400136Y-141984168D01*
X130399865Y-142294471D01*
X130518363Y-142581257D01*
X130586986Y-142650000D01*
X119034472Y-142650000D01*
X118753880Y-142594187D01*
X118545229Y-142454772D01*
X118405813Y-142246121D01*
X118350000Y-141965528D01*
X118350000Y-140757452D01*
X125199774Y-140757452D01*
X125397271Y-141235429D01*
X125762647Y-141601444D01*
X126240279Y-141799774D01*
X126757452Y-141800226D01*
X127235429Y-141602729D01*
X127601444Y-141237353D01*
X127799774Y-140759721D01*
X127800226Y-140242548D01*
X127602729Y-139764571D01*
X127237353Y-139398556D01*
X126759721Y-139200226D01*
X126242548Y-139199774D01*
X125764571Y-139397271D01*
X125398556Y-139762647D01*
X125200226Y-140240279D01*
X125199774Y-140757452D01*
X118350000Y-140757452D01*
X118350000Y-133486400D01*
X136371163Y-133486400D01*
X136500217Y-133802396D01*
X136505048Y-133809627D01*
X136652480Y-133855094D01*
X137187574Y-133320000D01*
X136652480Y-132784906D01*
X136505048Y-132830373D01*
X136372860Y-133145071D01*
X136371163Y-133486400D01*
X118350000Y-133486400D01*
X118350000Y-130946400D01*
X136371163Y-130946400D01*
X136500217Y-131262396D01*
X136505048Y-131269627D01*
X136652480Y-131315094D01*
X137187574Y-130780000D01*
X136652480Y-130244906D01*
X136505048Y-130290373D01*
X136372860Y-130605071D01*
X136371163Y-130946400D01*
X118350000Y-130946400D01*
X118350000Y-130087520D01*
X136694906Y-130087520D01*
X136712632Y-130145000D01*
X136694906Y-130202480D01*
X137230000Y-130737574D01*
X137765094Y-130202480D01*
X137747368Y-130145000D01*
X137765094Y-130087520D01*
X137230000Y-129552426D01*
X136694906Y-130087520D01*
X118350000Y-130087520D01*
X118350000Y-129676400D01*
X136371163Y-129676400D01*
X136500217Y-129992396D01*
X136505048Y-129999627D01*
X136652480Y-130045094D01*
X137187574Y-129510000D01*
X136652480Y-128974906D01*
X136505048Y-129020373D01*
X136372860Y-129335071D01*
X136371163Y-129676400D01*
X118350000Y-129676400D01*
X118350000Y-125824471D01*
X125459865Y-125824471D01*
X125578363Y-126111257D01*
X125797589Y-126330866D01*
X126084168Y-126449864D01*
X126394471Y-126450135D01*
X126570072Y-126377578D01*
X126658363Y-126591257D01*
X126877589Y-126810866D01*
X127164168Y-126929864D01*
X127474471Y-126930135D01*
X127761257Y-126811637D01*
X127980866Y-126592411D01*
X128099864Y-126305832D01*
X128100135Y-125995529D01*
X127981637Y-125708743D01*
X127762411Y-125489134D01*
X127745000Y-125481904D01*
X127745000Y-125420000D01*
X127712649Y-125257360D01*
X127712649Y-125257359D01*
X127620520Y-125119480D01*
X127225000Y-124723960D01*
X127225000Y-123276040D01*
X128527922Y-121973118D01*
X128544168Y-121979864D01*
X128854471Y-121980135D01*
X129141257Y-121861637D01*
X129183642Y-121819326D01*
X129213363Y-121891257D01*
X129266042Y-121944028D01*
X129158743Y-121988363D01*
X128939134Y-122207589D01*
X128820136Y-122494168D01*
X128819865Y-122804471D01*
X128938363Y-123091257D01*
X129015000Y-123168028D01*
X129015000Y-123465000D01*
X129039864Y-123590000D01*
X129047351Y-123627641D01*
X129139480Y-123765520D01*
X133349480Y-127975520D01*
X133487359Y-128067649D01*
X133514343Y-128073016D01*
X133650000Y-128100000D01*
X136422121Y-128100000D01*
X136421860Y-128400016D01*
X136544611Y-128697097D01*
X136714891Y-128867675D01*
X136694906Y-128932480D01*
X137230000Y-129467574D01*
X137765094Y-128932480D01*
X137745062Y-128867525D01*
X137865111Y-128747685D01*
X137992315Y-128875111D01*
X137872325Y-128994891D01*
X137807520Y-128974906D01*
X137272426Y-129510000D01*
X137807520Y-130045094D01*
X137872475Y-130025062D01*
X137992315Y-130145111D01*
X137872325Y-130264891D01*
X137807520Y-130244906D01*
X137272426Y-130780000D01*
X137807520Y-131315094D01*
X137872475Y-131295062D01*
X137992315Y-131415111D01*
X137864889Y-131542315D01*
X137745109Y-131422325D01*
X137765094Y-131357520D01*
X137230000Y-130822426D01*
X136694906Y-131357520D01*
X136714938Y-131422475D01*
X136545410Y-131591707D01*
X136422140Y-131888574D01*
X136421860Y-132210016D01*
X136544611Y-132507097D01*
X136714891Y-132677675D01*
X136694906Y-132742480D01*
X137230000Y-133277574D01*
X137765094Y-132742480D01*
X137745062Y-132677525D01*
X137865111Y-132557685D01*
X137992315Y-132685111D01*
X137872325Y-132804891D01*
X137807520Y-132784906D01*
X137272426Y-133320000D01*
X137286569Y-133334143D01*
X137244143Y-133376569D01*
X137230000Y-133362426D01*
X136694906Y-133897520D01*
X136740373Y-134044952D01*
X137045740Y-134173220D01*
X136043960Y-135175000D01*
X135043354Y-135175000D01*
X135036637Y-135158743D01*
X134817411Y-134939134D01*
X134530832Y-134820136D01*
X134220529Y-134819865D01*
X133933743Y-134938363D01*
X133714134Y-135157589D01*
X133595136Y-135444168D01*
X133594865Y-135754471D01*
X133713363Y-136041257D01*
X133932589Y-136260866D01*
X134219168Y-136379864D01*
X134529471Y-136380135D01*
X134816257Y-136261637D01*
X135035866Y-136042411D01*
X135043096Y-136025000D01*
X135885000Y-136025000D01*
X135885000Y-137302514D01*
X135858743Y-137313363D01*
X135639134Y-137532589D01*
X135520136Y-137819168D01*
X135519865Y-138129471D01*
X135638363Y-138416257D01*
X135857589Y-138635866D01*
X136144168Y-138754864D01*
X136454471Y-138755135D01*
X136741257Y-138636637D01*
X136960866Y-138417411D01*
X137079864Y-138130832D01*
X137080135Y-137820529D01*
X136961637Y-137533743D01*
X136742411Y-137314134D01*
X136735000Y-137311057D01*
X136735000Y-135690000D01*
X136734343Y-135686697D01*
X137302080Y-135118960D01*
X137235139Y-135280172D01*
X137234861Y-135598432D01*
X137356397Y-135892572D01*
X137581245Y-136117812D01*
X137875172Y-136239861D01*
X138193432Y-136240139D01*
X138487572Y-136118603D01*
X138712812Y-135893755D01*
X138834861Y-135599828D01*
X138835139Y-135281568D01*
X138713603Y-134987428D01*
X138488755Y-134762188D01*
X138194828Y-134640139D01*
X137876568Y-134639861D01*
X137714013Y-134707027D01*
X138306499Y-134114541D01*
X138338574Y-134127860D01*
X138660016Y-134128140D01*
X138957097Y-134005389D01*
X139184590Y-133778293D01*
X139307860Y-133481426D01*
X139308140Y-133159984D01*
X139185389Y-132862903D01*
X139007685Y-132684889D01*
X139184590Y-132508293D01*
X139307860Y-132211426D01*
X139308140Y-131889984D01*
X139185389Y-131592903D01*
X139007685Y-131414889D01*
X139184590Y-131238293D01*
X139307860Y-130941426D01*
X139308140Y-130619984D01*
X139185389Y-130322903D01*
X139007685Y-130144889D01*
X139184590Y-129968293D01*
X139307860Y-129671426D01*
X139308140Y-129349984D01*
X139294374Y-129316667D01*
X139725521Y-128885520D01*
X139817649Y-128747641D01*
X139850000Y-128585000D01*
X139850000Y-127675000D01*
X139817649Y-127512360D01*
X139817649Y-127512359D01*
X139725521Y-127374480D01*
X139548118Y-127197078D01*
X139554864Y-127180832D01*
X139555135Y-126870529D01*
X139436637Y-126583743D01*
X139217411Y-126364134D01*
X138930832Y-126245136D01*
X138620529Y-126244865D01*
X138333743Y-126363363D01*
X138322086Y-126375000D01*
X136543354Y-126375000D01*
X136536637Y-126358743D01*
X136317411Y-126139134D01*
X136030832Y-126020136D01*
X135720529Y-126019865D01*
X135433743Y-126138363D01*
X135214134Y-126357589D01*
X135095136Y-126644168D01*
X135094865Y-126954471D01*
X135213363Y-127241257D01*
X135222091Y-127250000D01*
X133826040Y-127250000D01*
X129932581Y-123356541D01*
X130041257Y-123311637D01*
X130260866Y-123092411D01*
X130379864Y-122805832D01*
X130379947Y-122710987D01*
X132469479Y-124800520D01*
X132561608Y-124862078D01*
X132607360Y-124892649D01*
X132700972Y-124911270D01*
X132713363Y-124941257D01*
X132932589Y-125160866D01*
X133219168Y-125279864D01*
X133529471Y-125280135D01*
X133816257Y-125161637D01*
X134035866Y-124942411D01*
X134154864Y-124655832D01*
X134155135Y-124345529D01*
X134036637Y-124058743D01*
X133817411Y-123839134D01*
X133530832Y-123720136D01*
X133220529Y-123719865D01*
X132933743Y-123838363D01*
X132821476Y-123950435D01*
X132651173Y-123780132D01*
X132654471Y-123780135D01*
X132941257Y-123661637D01*
X133160866Y-123442411D01*
X133279864Y-123155832D01*
X133280083Y-122904961D01*
X133479471Y-122905135D01*
X133766257Y-122786637D01*
X133985866Y-122567411D01*
X134104864Y-122280832D01*
X134105135Y-121970529D01*
X133986637Y-121683743D01*
X133767411Y-121464134D01*
X133480832Y-121345136D01*
X133170529Y-121344865D01*
X133153105Y-121352064D01*
X132400000Y-120598960D01*
X132400000Y-120575000D01*
X137875511Y-120575000D01*
X137948206Y-120940463D01*
X138155224Y-121250287D01*
X138465048Y-121457305D01*
X138830511Y-121530000D01*
X139469489Y-121530000D01*
X139834952Y-121457305D01*
X140144776Y-121250287D01*
X140351794Y-120940463D01*
X140424489Y-120575000D01*
X140351794Y-120209537D01*
X140144776Y-119899713D01*
X139834952Y-119692695D01*
X139469489Y-119620000D01*
X138830511Y-119620000D01*
X138465048Y-119692695D01*
X138155224Y-119899713D01*
X137948206Y-120209537D01*
X137875511Y-120575000D01*
X132400000Y-120575000D01*
X132400000Y-119393354D01*
X132416257Y-119386637D01*
X132635866Y-119167411D01*
X132754864Y-118880832D01*
X132754952Y-118779471D01*
X135369865Y-118779471D01*
X135488363Y-119066257D01*
X135707589Y-119285866D01*
X135994168Y-119404864D01*
X136304471Y-119405135D01*
X136591257Y-119286637D01*
X136810866Y-119067411D01*
X136929864Y-118780832D01*
X136930135Y-118470529D01*
X136811637Y-118183743D01*
X136592411Y-117964134D01*
X136305832Y-117845136D01*
X135995529Y-117844865D01*
X135708743Y-117963363D01*
X135489134Y-118182589D01*
X135370136Y-118469168D01*
X135369865Y-118779471D01*
X132754952Y-118779471D01*
X132755135Y-118570529D01*
X132636637Y-118283743D01*
X132417411Y-118064134D01*
X132130832Y-117945136D01*
X131820529Y-117944865D01*
X131533743Y-118063363D01*
X131314134Y-118282589D01*
X131195136Y-118569168D01*
X131194939Y-118795083D01*
X130945529Y-118794865D01*
X130658743Y-118913363D01*
X130439134Y-119132589D01*
X130320136Y-119419168D01*
X130319865Y-119729471D01*
X130438363Y-120016257D01*
X130657589Y-120235866D01*
X130675000Y-120243096D01*
X130675000Y-121600000D01*
X130694891Y-121700000D01*
X130707351Y-121762641D01*
X130799480Y-121900520D01*
X131726882Y-122827922D01*
X131720136Y-122844168D01*
X131720132Y-122849091D01*
X130602640Y-121731600D01*
X130654864Y-121605832D01*
X130655135Y-121295529D01*
X130536637Y-121008743D01*
X130317411Y-120789134D01*
X130030832Y-120670136D01*
X129720529Y-120669865D01*
X129433743Y-120788363D01*
X129391358Y-120830674D01*
X129361637Y-120758743D01*
X129142411Y-120539134D01*
X129069422Y-120508826D01*
X129085866Y-120492411D01*
X129204864Y-120205832D01*
X129205135Y-119895529D01*
X129086637Y-119608743D01*
X128867411Y-119389134D01*
X128580832Y-119270136D01*
X128270529Y-119269865D01*
X127983743Y-119388363D01*
X127764134Y-119607589D01*
X127645136Y-119894168D01*
X127644865Y-120204471D01*
X127652065Y-120221895D01*
X127499480Y-120374480D01*
X127407351Y-120512359D01*
X127407351Y-120512360D01*
X127375000Y-120675000D01*
X127375000Y-121148960D01*
X125939480Y-122584480D01*
X125847351Y-122722359D01*
X125847351Y-122722360D01*
X125815000Y-122885000D01*
X125815000Y-125001646D01*
X125798743Y-125008363D01*
X125579134Y-125227589D01*
X125460136Y-125514168D01*
X125459865Y-125824471D01*
X118350000Y-125824471D01*
X118350000Y-123479598D01*
X118442144Y-123571903D01*
X118690145Y-123674883D01*
X118958677Y-123675117D01*
X119206857Y-123572571D01*
X119396903Y-123382856D01*
X119433604Y-123294471D01*
X121139865Y-123294471D01*
X121258363Y-123581257D01*
X121477589Y-123800866D01*
X121764168Y-123919864D01*
X122074471Y-123920135D01*
X122361257Y-123801637D01*
X122580866Y-123582411D01*
X122699864Y-123295832D01*
X122700135Y-122985529D01*
X122581637Y-122698743D01*
X122500000Y-122616963D01*
X122500000Y-122086396D01*
X123747575Y-120838821D01*
X123774168Y-120849864D01*
X124084471Y-120850135D01*
X124371257Y-120731637D01*
X124590866Y-120512411D01*
X124709864Y-120225832D01*
X124710135Y-119915529D01*
X124591637Y-119628743D01*
X124372411Y-119409134D01*
X124085832Y-119290136D01*
X123775529Y-119289865D01*
X123488743Y-119408363D01*
X123269134Y-119627589D01*
X123150136Y-119914168D01*
X123149918Y-120163686D01*
X121731802Y-121581802D01*
X121634254Y-121727792D01*
X121600000Y-121900000D01*
X121600000Y-122428260D01*
X121478743Y-122478363D01*
X121259134Y-122697589D01*
X121140136Y-122984168D01*
X121139865Y-123294471D01*
X119433604Y-123294471D01*
X119499883Y-123134855D01*
X119500117Y-122866323D01*
X119397571Y-122618143D01*
X119207856Y-122428097D01*
X118959855Y-122325117D01*
X118691323Y-122324883D01*
X118443143Y-122427429D01*
X118350000Y-122520410D01*
X118350000Y-113594471D01*
X123659865Y-113594471D01*
X123778363Y-113881257D01*
X123971043Y-114074273D01*
X123928097Y-114117144D01*
X123825117Y-114365145D01*
X123824883Y-114633677D01*
X123927429Y-114881857D01*
X124117144Y-115071903D01*
X124365145Y-115174883D01*
X124633677Y-115175117D01*
X124881857Y-115072571D01*
X125071903Y-114882856D01*
X125174883Y-114634855D01*
X125175117Y-114366323D01*
X125159891Y-114329471D01*
X135369865Y-114329471D01*
X135488363Y-114616257D01*
X135707589Y-114835866D01*
X135994168Y-114954864D01*
X136304471Y-114955135D01*
X136591257Y-114836637D01*
X136810866Y-114617411D01*
X136929864Y-114330832D01*
X136930135Y-114020529D01*
X136811637Y-113733743D01*
X136592411Y-113514134D01*
X136305832Y-113395136D01*
X135995529Y-113394865D01*
X135708743Y-113513363D01*
X135489134Y-113732589D01*
X135370136Y-114019168D01*
X135369865Y-114329471D01*
X125159891Y-114329471D01*
X125072571Y-114118143D01*
X124968828Y-114014219D01*
X125093264Y-113890000D01*
X127057021Y-113890000D01*
X127227589Y-114060866D01*
X127514168Y-114179864D01*
X127824471Y-114180135D01*
X128111257Y-114061637D01*
X128330866Y-113842411D01*
X128449864Y-113555832D01*
X128450135Y-113245529D01*
X128331637Y-112958743D01*
X128112411Y-112739134D01*
X127825832Y-112620136D01*
X127515529Y-112619865D01*
X127228743Y-112738363D01*
X127009134Y-112957589D01*
X126995676Y-112990000D01*
X125092909Y-112990000D01*
X124882411Y-112779134D01*
X124595832Y-112660136D01*
X124285529Y-112659865D01*
X123998743Y-112778363D01*
X123779134Y-112997589D01*
X123660136Y-113284168D01*
X123659865Y-113594471D01*
X118350000Y-113594471D01*
X118350000Y-112225000D01*
X137875511Y-112225000D01*
X137948206Y-112590463D01*
X138155224Y-112900287D01*
X138465048Y-113107305D01*
X138830511Y-113180000D01*
X139469489Y-113180000D01*
X139834952Y-113107305D01*
X140144776Y-112900287D01*
X140351794Y-112590463D01*
X140424489Y-112225000D01*
X140351794Y-111859537D01*
X140144776Y-111549713D01*
X139834952Y-111342695D01*
X139469489Y-111270000D01*
X138830511Y-111270000D01*
X138465048Y-111342695D01*
X138155224Y-111549713D01*
X137948206Y-111859537D01*
X137875511Y-112225000D01*
X118350000Y-112225000D01*
X118350000Y-105984471D01*
X122839865Y-105984471D01*
X122958363Y-106271257D01*
X123177589Y-106490866D01*
X123464168Y-106609864D01*
X123774471Y-106610135D01*
X123798972Y-106600012D01*
X123929480Y-106730520D01*
X124067359Y-106822649D01*
X124094343Y-106828016D01*
X124230000Y-106855000D01*
X126221646Y-106855000D01*
X126228363Y-106871257D01*
X126447589Y-107090866D01*
X126734168Y-107209864D01*
X127044471Y-107210135D01*
X127331257Y-107091637D01*
X127550866Y-106872411D01*
X127669864Y-106585832D01*
X127670135Y-106275529D01*
X127551637Y-105988743D01*
X127332411Y-105769134D01*
X127045832Y-105650136D01*
X126735529Y-105649865D01*
X126448743Y-105768363D01*
X126229134Y-105987589D01*
X126221904Y-106005000D01*
X124406040Y-106005000D01*
X124396052Y-105995012D01*
X124399864Y-105985832D01*
X124400135Y-105675529D01*
X124281637Y-105388743D01*
X124062411Y-105169134D01*
X123775832Y-105050136D01*
X123465529Y-105049865D01*
X123178743Y-105168363D01*
X122959134Y-105387589D01*
X122840136Y-105674168D01*
X122839865Y-105984471D01*
X118350000Y-105984471D01*
X118350000Y-104580000D01*
X134884123Y-104580000D01*
X134884123Y-106580000D01*
X134905042Y-106691173D01*
X134970745Y-106793279D01*
X135070997Y-106861778D01*
X135190000Y-106885877D01*
X137190000Y-106885877D01*
X137301173Y-106864958D01*
X137403279Y-106799255D01*
X137471778Y-106699003D01*
X137495877Y-106580000D01*
X137495877Y-105997433D01*
X137627271Y-106315429D01*
X137992647Y-106681444D01*
X138470279Y-106879774D01*
X138987452Y-106880226D01*
X139465429Y-106682729D01*
X139831444Y-106317353D01*
X140029774Y-105839721D01*
X140030226Y-105322548D01*
X139832729Y-104844571D01*
X139467353Y-104478556D01*
X138989721Y-104280226D01*
X138472548Y-104279774D01*
X137994571Y-104477271D01*
X137628556Y-104842647D01*
X137495877Y-105162174D01*
X137495877Y-104580000D01*
X137474958Y-104468827D01*
X137409255Y-104366721D01*
X137309003Y-104298222D01*
X137190000Y-104274123D01*
X135190000Y-104274123D01*
X135078827Y-104295042D01*
X134976721Y-104360745D01*
X134908222Y-104460997D01*
X134884123Y-104580000D01*
X118350000Y-104580000D01*
X118350000Y-102517647D01*
X134429793Y-102517647D01*
X134612097Y-102958857D01*
X134949367Y-103296717D01*
X135390258Y-103479791D01*
X135867647Y-103480207D01*
X136308857Y-103297903D01*
X136576955Y-103030273D01*
X138172153Y-103030273D01*
X138265352Y-103218431D01*
X138721729Y-103415935D01*
X139218949Y-103423756D01*
X139681314Y-103240705D01*
X139714648Y-103218431D01*
X139807847Y-103030273D01*
X138990000Y-102212426D01*
X138172153Y-103030273D01*
X136576955Y-103030273D01*
X136646717Y-102960633D01*
X136829791Y-102519742D01*
X136829896Y-102398949D01*
X137736244Y-102398949D01*
X137919295Y-102861314D01*
X137941569Y-102894648D01*
X138129727Y-102987847D01*
X138947574Y-102170000D01*
X139032426Y-102170000D01*
X139850273Y-102987847D01*
X140038431Y-102894648D01*
X140235935Y-102438271D01*
X140243756Y-101941051D01*
X140060705Y-101478686D01*
X140038431Y-101445352D01*
X139850273Y-101352153D01*
X139032426Y-102170000D01*
X138947574Y-102170000D01*
X138129727Y-101352153D01*
X137941569Y-101445352D01*
X137744065Y-101901729D01*
X137736244Y-102398949D01*
X136829896Y-102398949D01*
X136830207Y-102042353D01*
X136647903Y-101601143D01*
X136356996Y-101309727D01*
X138172153Y-101309727D01*
X138990000Y-102127574D01*
X139807847Y-101309727D01*
X139714648Y-101121569D01*
X139258271Y-100924065D01*
X138761051Y-100916244D01*
X138298686Y-101099295D01*
X138265352Y-101121569D01*
X138172153Y-101309727D01*
X136356996Y-101309727D01*
X136310633Y-101263283D01*
X135869742Y-101080209D01*
X135392353Y-101079793D01*
X134951143Y-101262097D01*
X134613283Y-101599367D01*
X134430209Y-102040258D01*
X134429793Y-102517647D01*
X118350000Y-102517647D01*
X118350000Y-97106500D01*
X135660000Y-97106500D01*
X135660000Y-98147674D01*
X135705672Y-98257937D01*
X135790064Y-98342328D01*
X135900327Y-98388000D01*
X138275000Y-98388000D01*
X138350000Y-98313000D01*
X138350000Y-97031500D01*
X135735000Y-97031500D01*
X135660000Y-97106500D01*
X118350000Y-97106500D01*
X118350000Y-95615326D01*
X135660000Y-95615326D01*
X135660000Y-96656500D01*
X135735000Y-96731500D01*
X138350000Y-96731500D01*
X138350000Y-95450000D01*
X138275000Y-95375000D01*
X135900327Y-95375000D01*
X135790064Y-95420672D01*
X135705672Y-95505063D01*
X135660000Y-95615326D01*
X118350000Y-95615326D01*
X118350000Y-92737647D01*
X135549793Y-92737647D01*
X135732097Y-93178857D01*
X136069367Y-93516717D01*
X136510258Y-93699791D01*
X136987647Y-93700207D01*
X137428857Y-93517903D01*
X137766717Y-93180633D01*
X137949791Y-92739742D01*
X137950207Y-92262353D01*
X137767903Y-91821143D01*
X137430633Y-91483283D01*
X136989742Y-91300209D01*
X136512353Y-91299793D01*
X136071143Y-91482097D01*
X135733283Y-91819367D01*
X135550209Y-92260258D01*
X135549793Y-92737647D01*
X118350000Y-92737647D01*
X118350000Y-89432390D01*
X125610036Y-89432390D01*
X125715406Y-89630939D01*
X126207921Y-89845102D01*
X126744903Y-89854486D01*
X127244600Y-89657662D01*
X127284594Y-89630939D01*
X127389964Y-89432390D01*
X126500000Y-88542426D01*
X125610036Y-89432390D01*
X118350000Y-89432390D01*
X118350000Y-88744903D01*
X125145514Y-88744903D01*
X125342338Y-89244600D01*
X125369061Y-89284594D01*
X125567610Y-89389964D01*
X126457574Y-88500000D01*
X126542426Y-88500000D01*
X127432390Y-89389964D01*
X127630939Y-89284594D01*
X127845102Y-88792079D01*
X127852941Y-88343500D01*
X135660000Y-88343500D01*
X135660000Y-89384674D01*
X135705672Y-89494937D01*
X135790064Y-89579328D01*
X135900327Y-89625000D01*
X138275000Y-89625000D01*
X138350000Y-89550000D01*
X138350000Y-88268500D01*
X135735000Y-88268500D01*
X135660000Y-88343500D01*
X127852941Y-88343500D01*
X127854486Y-88255097D01*
X127657662Y-87755400D01*
X127630939Y-87715406D01*
X127432390Y-87610036D01*
X126542426Y-88500000D01*
X126457574Y-88500000D01*
X125567610Y-87610036D01*
X125369061Y-87715406D01*
X125154898Y-88207921D01*
X125145514Y-88744903D01*
X118350000Y-88744903D01*
X118350000Y-87567610D01*
X125610036Y-87567610D01*
X126500000Y-88457574D01*
X127389964Y-87567610D01*
X127284594Y-87369061D01*
X126792079Y-87154898D01*
X126255097Y-87145514D01*
X125755400Y-87342338D01*
X125715406Y-87369061D01*
X125610036Y-87567610D01*
X118350000Y-87567610D01*
X118350000Y-87034472D01*
X118386230Y-86852326D01*
X135660000Y-86852326D01*
X135660000Y-87893500D01*
X135735000Y-87968500D01*
X138350000Y-87968500D01*
X138350000Y-86687000D01*
X138275000Y-86612000D01*
X135900327Y-86612000D01*
X135790064Y-86657672D01*
X135705672Y-86742063D01*
X135660000Y-86852326D01*
X118386230Y-86852326D01*
X118405813Y-86753879D01*
X118545229Y-86545228D01*
X118753880Y-86405813D01*
X119034472Y-86350000D01*
X139965528Y-86350000D01*
X140246121Y-86405813D01*
X140246121Y-86405813D01*
G37*
X140246121Y-86405813D02*
X140454772Y-86545229D01*
X140499386Y-86612000D01*
X138725000Y-86612000D01*
X138650000Y-86687000D01*
X138650000Y-87968500D01*
X138670000Y-87968500D01*
X138670000Y-88268500D01*
X138650000Y-88268500D01*
X138650000Y-89550000D01*
X138725000Y-89625000D01*
X140650000Y-89625000D01*
X140650000Y-95375000D01*
X138725000Y-95375000D01*
X138650000Y-95450000D01*
X138650000Y-96731500D01*
X138670000Y-96731500D01*
X138670000Y-97031500D01*
X138650000Y-97031500D01*
X138650000Y-98313000D01*
X138725000Y-98388000D01*
X140650000Y-98388000D01*
X140650000Y-141965528D01*
X140594187Y-142246120D01*
X140454772Y-142454771D01*
X140246121Y-142594187D01*
X139965528Y-142650000D01*
X133093211Y-142650000D01*
X133130866Y-142612411D01*
X133249864Y-142325832D01*
X133250135Y-142015529D01*
X133242935Y-141998105D01*
X133870520Y-141370520D01*
X133962649Y-141232641D01*
X133995000Y-141070000D01*
X133995000Y-140678432D01*
X136218861Y-140678432D01*
X136340397Y-140972572D01*
X136565245Y-141197812D01*
X136859172Y-141319861D01*
X137177432Y-141320139D01*
X137471572Y-141198603D01*
X137696812Y-140973755D01*
X137818861Y-140679828D01*
X137818862Y-140678432D01*
X138250861Y-140678432D01*
X138372397Y-140972572D01*
X138597245Y-141197812D01*
X138891172Y-141319861D01*
X139209432Y-141320139D01*
X139503572Y-141198603D01*
X139728812Y-140973755D01*
X139850861Y-140679828D01*
X139851139Y-140361568D01*
X139729603Y-140067428D01*
X139504755Y-139842188D01*
X139210828Y-139720139D01*
X138892568Y-139719861D01*
X138598428Y-139841397D01*
X138373188Y-140066245D01*
X138251139Y-140360172D01*
X138250861Y-140678432D01*
X137818862Y-140678432D01*
X137819139Y-140361568D01*
X137697603Y-140067428D01*
X137472755Y-139842188D01*
X137178828Y-139720139D01*
X136860568Y-139719861D01*
X136566428Y-139841397D01*
X136341188Y-140066245D01*
X136219139Y-140360172D01*
X136218861Y-140678432D01*
X133995000Y-140678432D01*
X133995000Y-139288354D01*
X134011257Y-139281637D01*
X134230866Y-139062411D01*
X134349864Y-138775832D01*
X134350135Y-138465529D01*
X134231637Y-138178743D01*
X134012411Y-137959134D01*
X133725832Y-137840136D01*
X133415529Y-137839865D01*
X133128743Y-137958363D01*
X132909134Y-138177589D01*
X132790136Y-138464168D01*
X132789865Y-138774471D01*
X132908363Y-139061257D01*
X133127589Y-139280866D01*
X133145000Y-139288096D01*
X133145000Y-140893960D01*
X132642078Y-141396882D01*
X132625832Y-141390136D01*
X132315529Y-141389865D01*
X132028743Y-141508363D01*
X131839837Y-141696940D01*
X131622411Y-141479134D01*
X131335832Y-141360136D01*
X131025529Y-141359865D01*
X131008105Y-141367064D01*
X130185000Y-140543960D01*
X130185000Y-138794222D01*
X130191257Y-138791637D01*
X130410866Y-138572411D01*
X130529864Y-138285832D01*
X130530135Y-137975529D01*
X130411637Y-137688743D01*
X130192411Y-137469134D01*
X129905832Y-137350136D01*
X129595529Y-137349865D01*
X129308743Y-137468363D01*
X129089134Y-137687589D01*
X128970136Y-137974168D01*
X128969865Y-138284471D01*
X129088363Y-138571257D01*
X129307589Y-138790866D01*
X129335000Y-138802248D01*
X129335000Y-140720000D01*
X129358973Y-140840520D01*
X129367351Y-140882641D01*
X129459480Y-141020520D01*
X130406882Y-141967922D01*
X130400136Y-141984168D01*
X130399865Y-142294471D01*
X130518363Y-142581257D01*
X130586986Y-142650000D01*
X119034472Y-142650000D01*
X118753880Y-142594187D01*
X118545229Y-142454772D01*
X118405813Y-142246121D01*
X118350000Y-141965528D01*
X118350000Y-140757452D01*
X125199774Y-140757452D01*
X125397271Y-141235429D01*
X125762647Y-141601444D01*
X126240279Y-141799774D01*
X126757452Y-141800226D01*
X127235429Y-141602729D01*
X127601444Y-141237353D01*
X127799774Y-140759721D01*
X127800226Y-140242548D01*
X127602729Y-139764571D01*
X127237353Y-139398556D01*
X126759721Y-139200226D01*
X126242548Y-139199774D01*
X125764571Y-139397271D01*
X125398556Y-139762647D01*
X125200226Y-140240279D01*
X125199774Y-140757452D01*
X118350000Y-140757452D01*
X118350000Y-133486400D01*
X136371163Y-133486400D01*
X136500217Y-133802396D01*
X136505048Y-133809627D01*
X136652480Y-133855094D01*
X137187574Y-133320000D01*
X136652480Y-132784906D01*
X136505048Y-132830373D01*
X136372860Y-133145071D01*
X136371163Y-133486400D01*
X118350000Y-133486400D01*
X118350000Y-130946400D01*
X136371163Y-130946400D01*
X136500217Y-131262396D01*
X136505048Y-131269627D01*
X136652480Y-131315094D01*
X137187574Y-130780000D01*
X136652480Y-130244906D01*
X136505048Y-130290373D01*
X136372860Y-130605071D01*
X136371163Y-130946400D01*
X118350000Y-130946400D01*
X118350000Y-130087520D01*
X136694906Y-130087520D01*
X136712632Y-130145000D01*
X136694906Y-130202480D01*
X137230000Y-130737574D01*
X137765094Y-130202480D01*
X137747368Y-130145000D01*
X137765094Y-130087520D01*
X137230000Y-129552426D01*
X136694906Y-130087520D01*
X118350000Y-130087520D01*
X118350000Y-129676400D01*
X136371163Y-129676400D01*
X136500217Y-129992396D01*
X136505048Y-129999627D01*
X136652480Y-130045094D01*
X137187574Y-129510000D01*
X136652480Y-128974906D01*
X136505048Y-129020373D01*
X136372860Y-129335071D01*
X136371163Y-129676400D01*
X118350000Y-129676400D01*
X118350000Y-125824471D01*
X125459865Y-125824471D01*
X125578363Y-126111257D01*
X125797589Y-126330866D01*
X126084168Y-126449864D01*
X126394471Y-126450135D01*
X126570072Y-126377578D01*
X126658363Y-126591257D01*
X126877589Y-126810866D01*
X127164168Y-126929864D01*
X127474471Y-126930135D01*
X127761257Y-126811637D01*
X127980866Y-126592411D01*
X128099864Y-126305832D01*
X128100135Y-125995529D01*
X127981637Y-125708743D01*
X127762411Y-125489134D01*
X127745000Y-125481904D01*
X127745000Y-125420000D01*
X127712649Y-125257360D01*
X127712649Y-125257359D01*
X127620520Y-125119480D01*
X127225000Y-124723960D01*
X127225000Y-123276040D01*
X128527922Y-121973118D01*
X128544168Y-121979864D01*
X128854471Y-121980135D01*
X129141257Y-121861637D01*
X129183642Y-121819326D01*
X129213363Y-121891257D01*
X129266042Y-121944028D01*
X129158743Y-121988363D01*
X128939134Y-122207589D01*
X128820136Y-122494168D01*
X128819865Y-122804471D01*
X128938363Y-123091257D01*
X129015000Y-123168028D01*
X129015000Y-123465000D01*
X129039864Y-123590000D01*
X129047351Y-123627641D01*
X129139480Y-123765520D01*
X133349480Y-127975520D01*
X133487359Y-128067649D01*
X133514343Y-128073016D01*
X133650000Y-128100000D01*
X136422121Y-128100000D01*
X136421860Y-128400016D01*
X136544611Y-128697097D01*
X136714891Y-128867675D01*
X136694906Y-128932480D01*
X137230000Y-129467574D01*
X137765094Y-128932480D01*
X137745062Y-128867525D01*
X137865111Y-128747685D01*
X137992315Y-128875111D01*
X137872325Y-128994891D01*
X137807520Y-128974906D01*
X137272426Y-129510000D01*
X137807520Y-130045094D01*
X137872475Y-130025062D01*
X137992315Y-130145111D01*
X137872325Y-130264891D01*
X137807520Y-130244906D01*
X137272426Y-130780000D01*
X137807520Y-131315094D01*
X137872475Y-131295062D01*
X137992315Y-131415111D01*
X137864889Y-131542315D01*
X137745109Y-131422325D01*
X137765094Y-131357520D01*
X137230000Y-130822426D01*
X136694906Y-131357520D01*
X136714938Y-131422475D01*
X136545410Y-131591707D01*
X136422140Y-131888574D01*
X136421860Y-132210016D01*
X136544611Y-132507097D01*
X136714891Y-132677675D01*
X136694906Y-132742480D01*
X137230000Y-133277574D01*
X137765094Y-132742480D01*
X137745062Y-132677525D01*
X137865111Y-132557685D01*
X137992315Y-132685111D01*
X137872325Y-132804891D01*
X137807520Y-132784906D01*
X137272426Y-133320000D01*
X137286569Y-133334143D01*
X137244143Y-133376569D01*
X137230000Y-133362426D01*
X136694906Y-133897520D01*
X136740373Y-134044952D01*
X137045740Y-134173220D01*
X136043960Y-135175000D01*
X135043354Y-135175000D01*
X135036637Y-135158743D01*
X134817411Y-134939134D01*
X134530832Y-134820136D01*
X134220529Y-134819865D01*
X133933743Y-134938363D01*
X133714134Y-135157589D01*
X133595136Y-135444168D01*
X133594865Y-135754471D01*
X133713363Y-136041257D01*
X133932589Y-136260866D01*
X134219168Y-136379864D01*
X134529471Y-136380135D01*
X134816257Y-136261637D01*
X135035866Y-136042411D01*
X135043096Y-136025000D01*
X135885000Y-136025000D01*
X135885000Y-137302514D01*
X135858743Y-137313363D01*
X135639134Y-137532589D01*
X135520136Y-137819168D01*
X135519865Y-138129471D01*
X135638363Y-138416257D01*
X135857589Y-138635866D01*
X136144168Y-138754864D01*
X136454471Y-138755135D01*
X136741257Y-138636637D01*
X136960866Y-138417411D01*
X137079864Y-138130832D01*
X137080135Y-137820529D01*
X136961637Y-137533743D01*
X136742411Y-137314134D01*
X136735000Y-137311057D01*
X136735000Y-135690000D01*
X136734343Y-135686697D01*
X137302080Y-135118960D01*
X137235139Y-135280172D01*
X137234861Y-135598432D01*
X137356397Y-135892572D01*
X137581245Y-136117812D01*
X137875172Y-136239861D01*
X138193432Y-136240139D01*
X138487572Y-136118603D01*
X138712812Y-135893755D01*
X138834861Y-135599828D01*
X138835139Y-135281568D01*
X138713603Y-134987428D01*
X138488755Y-134762188D01*
X138194828Y-134640139D01*
X137876568Y-134639861D01*
X137714013Y-134707027D01*
X138306499Y-134114541D01*
X138338574Y-134127860D01*
X138660016Y-134128140D01*
X138957097Y-134005389D01*
X139184590Y-133778293D01*
X139307860Y-133481426D01*
X139308140Y-133159984D01*
X139185389Y-132862903D01*
X139007685Y-132684889D01*
X139184590Y-132508293D01*
X139307860Y-132211426D01*
X139308140Y-131889984D01*
X139185389Y-131592903D01*
X139007685Y-131414889D01*
X139184590Y-131238293D01*
X139307860Y-130941426D01*
X139308140Y-130619984D01*
X139185389Y-130322903D01*
X139007685Y-130144889D01*
X139184590Y-129968293D01*
X139307860Y-129671426D01*
X139308140Y-129349984D01*
X139294374Y-129316667D01*
X139725521Y-128885520D01*
X139817649Y-128747641D01*
X139850000Y-128585000D01*
X139850000Y-127675000D01*
X139817649Y-127512360D01*
X139817649Y-127512359D01*
X139725521Y-127374480D01*
X139548118Y-127197078D01*
X139554864Y-127180832D01*
X139555135Y-126870529D01*
X139436637Y-126583743D01*
X139217411Y-126364134D01*
X138930832Y-126245136D01*
X138620529Y-126244865D01*
X138333743Y-126363363D01*
X138322086Y-126375000D01*
X136543354Y-126375000D01*
X136536637Y-126358743D01*
X136317411Y-126139134D01*
X136030832Y-126020136D01*
X135720529Y-126019865D01*
X135433743Y-126138363D01*
X135214134Y-126357589D01*
X135095136Y-126644168D01*
X135094865Y-126954471D01*
X135213363Y-127241257D01*
X135222091Y-127250000D01*
X133826040Y-127250000D01*
X129932581Y-123356541D01*
X130041257Y-123311637D01*
X130260866Y-123092411D01*
X130379864Y-122805832D01*
X130379947Y-122710987D01*
X132469479Y-124800520D01*
X132561608Y-124862078D01*
X132607360Y-124892649D01*
X132700972Y-124911270D01*
X132713363Y-124941257D01*
X132932589Y-125160866D01*
X133219168Y-125279864D01*
X133529471Y-125280135D01*
X133816257Y-125161637D01*
X134035866Y-124942411D01*
X134154864Y-124655832D01*
X134155135Y-124345529D01*
X134036637Y-124058743D01*
X133817411Y-123839134D01*
X133530832Y-123720136D01*
X133220529Y-123719865D01*
X132933743Y-123838363D01*
X132821476Y-123950435D01*
X132651173Y-123780132D01*
X132654471Y-123780135D01*
X132941257Y-123661637D01*
X133160866Y-123442411D01*
X133279864Y-123155832D01*
X133280083Y-122904961D01*
X133479471Y-122905135D01*
X133766257Y-122786637D01*
X133985866Y-122567411D01*
X134104864Y-122280832D01*
X134105135Y-121970529D01*
X133986637Y-121683743D01*
X133767411Y-121464134D01*
X133480832Y-121345136D01*
X133170529Y-121344865D01*
X133153105Y-121352064D01*
X132400000Y-120598960D01*
X132400000Y-120575000D01*
X137875511Y-120575000D01*
X137948206Y-120940463D01*
X138155224Y-121250287D01*
X138465048Y-121457305D01*
X138830511Y-121530000D01*
X139469489Y-121530000D01*
X139834952Y-121457305D01*
X140144776Y-121250287D01*
X140351794Y-120940463D01*
X140424489Y-120575000D01*
X140351794Y-120209537D01*
X140144776Y-119899713D01*
X139834952Y-119692695D01*
X139469489Y-119620000D01*
X138830511Y-119620000D01*
X138465048Y-119692695D01*
X138155224Y-119899713D01*
X137948206Y-120209537D01*
X137875511Y-120575000D01*
X132400000Y-120575000D01*
X132400000Y-119393354D01*
X132416257Y-119386637D01*
X132635866Y-119167411D01*
X132754864Y-118880832D01*
X132754952Y-118779471D01*
X135369865Y-118779471D01*
X135488363Y-119066257D01*
X135707589Y-119285866D01*
X135994168Y-119404864D01*
X136304471Y-119405135D01*
X136591257Y-119286637D01*
X136810866Y-119067411D01*
X136929864Y-118780832D01*
X136930135Y-118470529D01*
X136811637Y-118183743D01*
X136592411Y-117964134D01*
X136305832Y-117845136D01*
X135995529Y-117844865D01*
X135708743Y-117963363D01*
X135489134Y-118182589D01*
X135370136Y-118469168D01*
X135369865Y-118779471D01*
X132754952Y-118779471D01*
X132755135Y-118570529D01*
X132636637Y-118283743D01*
X132417411Y-118064134D01*
X132130832Y-117945136D01*
X131820529Y-117944865D01*
X131533743Y-118063363D01*
X131314134Y-118282589D01*
X131195136Y-118569168D01*
X131194939Y-118795083D01*
X130945529Y-118794865D01*
X130658743Y-118913363D01*
X130439134Y-119132589D01*
X130320136Y-119419168D01*
X130319865Y-119729471D01*
X130438363Y-120016257D01*
X130657589Y-120235866D01*
X130675000Y-120243096D01*
X130675000Y-121600000D01*
X130694891Y-121700000D01*
X130707351Y-121762641D01*
X130799480Y-121900520D01*
X131726882Y-122827922D01*
X131720136Y-122844168D01*
X131720132Y-122849091D01*
X130602640Y-121731600D01*
X130654864Y-121605832D01*
X130655135Y-121295529D01*
X130536637Y-121008743D01*
X130317411Y-120789134D01*
X130030832Y-120670136D01*
X129720529Y-120669865D01*
X129433743Y-120788363D01*
X129391358Y-120830674D01*
X129361637Y-120758743D01*
X129142411Y-120539134D01*
X129069422Y-120508826D01*
X129085866Y-120492411D01*
X129204864Y-120205832D01*
X129205135Y-119895529D01*
X129086637Y-119608743D01*
X128867411Y-119389134D01*
X128580832Y-119270136D01*
X128270529Y-119269865D01*
X127983743Y-119388363D01*
X127764134Y-119607589D01*
X127645136Y-119894168D01*
X127644865Y-120204471D01*
X127652065Y-120221895D01*
X127499480Y-120374480D01*
X127407351Y-120512359D01*
X127407351Y-120512360D01*
X127375000Y-120675000D01*
X127375000Y-121148960D01*
X125939480Y-122584480D01*
X125847351Y-122722359D01*
X125847351Y-122722360D01*
X125815000Y-122885000D01*
X125815000Y-125001646D01*
X125798743Y-125008363D01*
X125579134Y-125227589D01*
X125460136Y-125514168D01*
X125459865Y-125824471D01*
X118350000Y-125824471D01*
X118350000Y-123479598D01*
X118442144Y-123571903D01*
X118690145Y-123674883D01*
X118958677Y-123675117D01*
X119206857Y-123572571D01*
X119396903Y-123382856D01*
X119433604Y-123294471D01*
X121139865Y-123294471D01*
X121258363Y-123581257D01*
X121477589Y-123800866D01*
X121764168Y-123919864D01*
X122074471Y-123920135D01*
X122361257Y-123801637D01*
X122580866Y-123582411D01*
X122699864Y-123295832D01*
X122700135Y-122985529D01*
X122581637Y-122698743D01*
X122500000Y-122616963D01*
X122500000Y-122086396D01*
X123747575Y-120838821D01*
X123774168Y-120849864D01*
X124084471Y-120850135D01*
X124371257Y-120731637D01*
X124590866Y-120512411D01*
X124709864Y-120225832D01*
X124710135Y-119915529D01*
X124591637Y-119628743D01*
X124372411Y-119409134D01*
X124085832Y-119290136D01*
X123775529Y-119289865D01*
X123488743Y-119408363D01*
X123269134Y-119627589D01*
X123150136Y-119914168D01*
X123149918Y-120163686D01*
X121731802Y-121581802D01*
X121634254Y-121727792D01*
X121600000Y-121900000D01*
X121600000Y-122428260D01*
X121478743Y-122478363D01*
X121259134Y-122697589D01*
X121140136Y-122984168D01*
X121139865Y-123294471D01*
X119433604Y-123294471D01*
X119499883Y-123134855D01*
X119500117Y-122866323D01*
X119397571Y-122618143D01*
X119207856Y-122428097D01*
X118959855Y-122325117D01*
X118691323Y-122324883D01*
X118443143Y-122427429D01*
X118350000Y-122520410D01*
X118350000Y-113594471D01*
X123659865Y-113594471D01*
X123778363Y-113881257D01*
X123971043Y-114074273D01*
X123928097Y-114117144D01*
X123825117Y-114365145D01*
X123824883Y-114633677D01*
X123927429Y-114881857D01*
X124117144Y-115071903D01*
X124365145Y-115174883D01*
X124633677Y-115175117D01*
X124881857Y-115072571D01*
X125071903Y-114882856D01*
X125174883Y-114634855D01*
X125175117Y-114366323D01*
X125159891Y-114329471D01*
X135369865Y-114329471D01*
X135488363Y-114616257D01*
X135707589Y-114835866D01*
X135994168Y-114954864D01*
X136304471Y-114955135D01*
X136591257Y-114836637D01*
X136810866Y-114617411D01*
X136929864Y-114330832D01*
X136930135Y-114020529D01*
X136811637Y-113733743D01*
X136592411Y-113514134D01*
X136305832Y-113395136D01*
X135995529Y-113394865D01*
X135708743Y-113513363D01*
X135489134Y-113732589D01*
X135370136Y-114019168D01*
X135369865Y-114329471D01*
X125159891Y-114329471D01*
X125072571Y-114118143D01*
X124968828Y-114014219D01*
X125093264Y-113890000D01*
X127057021Y-113890000D01*
X127227589Y-114060866D01*
X127514168Y-114179864D01*
X127824471Y-114180135D01*
X128111257Y-114061637D01*
X128330866Y-113842411D01*
X128449864Y-113555832D01*
X128450135Y-113245529D01*
X128331637Y-112958743D01*
X128112411Y-112739134D01*
X127825832Y-112620136D01*
X127515529Y-112619865D01*
X127228743Y-112738363D01*
X127009134Y-112957589D01*
X126995676Y-112990000D01*
X125092909Y-112990000D01*
X124882411Y-112779134D01*
X124595832Y-112660136D01*
X124285529Y-112659865D01*
X123998743Y-112778363D01*
X123779134Y-112997589D01*
X123660136Y-113284168D01*
X123659865Y-113594471D01*
X118350000Y-113594471D01*
X118350000Y-112225000D01*
X137875511Y-112225000D01*
X137948206Y-112590463D01*
X138155224Y-112900287D01*
X138465048Y-113107305D01*
X138830511Y-113180000D01*
X139469489Y-113180000D01*
X139834952Y-113107305D01*
X140144776Y-112900287D01*
X140351794Y-112590463D01*
X140424489Y-112225000D01*
X140351794Y-111859537D01*
X140144776Y-111549713D01*
X139834952Y-111342695D01*
X139469489Y-111270000D01*
X138830511Y-111270000D01*
X138465048Y-111342695D01*
X138155224Y-111549713D01*
X137948206Y-111859537D01*
X137875511Y-112225000D01*
X118350000Y-112225000D01*
X118350000Y-105984471D01*
X122839865Y-105984471D01*
X122958363Y-106271257D01*
X123177589Y-106490866D01*
X123464168Y-106609864D01*
X123774471Y-106610135D01*
X123798972Y-106600012D01*
X123929480Y-106730520D01*
X124067359Y-106822649D01*
X124094343Y-106828016D01*
X124230000Y-106855000D01*
X126221646Y-106855000D01*
X126228363Y-106871257D01*
X126447589Y-107090866D01*
X126734168Y-107209864D01*
X127044471Y-107210135D01*
X127331257Y-107091637D01*
X127550866Y-106872411D01*
X127669864Y-106585832D01*
X127670135Y-106275529D01*
X127551637Y-105988743D01*
X127332411Y-105769134D01*
X127045832Y-105650136D01*
X126735529Y-105649865D01*
X126448743Y-105768363D01*
X126229134Y-105987589D01*
X126221904Y-106005000D01*
X124406040Y-106005000D01*
X124396052Y-105995012D01*
X124399864Y-105985832D01*
X124400135Y-105675529D01*
X124281637Y-105388743D01*
X124062411Y-105169134D01*
X123775832Y-105050136D01*
X123465529Y-105049865D01*
X123178743Y-105168363D01*
X122959134Y-105387589D01*
X122840136Y-105674168D01*
X122839865Y-105984471D01*
X118350000Y-105984471D01*
X118350000Y-104580000D01*
X134884123Y-104580000D01*
X134884123Y-106580000D01*
X134905042Y-106691173D01*
X134970745Y-106793279D01*
X135070997Y-106861778D01*
X135190000Y-106885877D01*
X137190000Y-106885877D01*
X137301173Y-106864958D01*
X137403279Y-106799255D01*
X137471778Y-106699003D01*
X137495877Y-106580000D01*
X137495877Y-105997433D01*
X137627271Y-106315429D01*
X137992647Y-106681444D01*
X138470279Y-106879774D01*
X138987452Y-106880226D01*
X139465429Y-106682729D01*
X139831444Y-106317353D01*
X140029774Y-105839721D01*
X140030226Y-105322548D01*
X139832729Y-104844571D01*
X139467353Y-104478556D01*
X138989721Y-104280226D01*
X138472548Y-104279774D01*
X137994571Y-104477271D01*
X137628556Y-104842647D01*
X137495877Y-105162174D01*
X137495877Y-104580000D01*
X137474958Y-104468827D01*
X137409255Y-104366721D01*
X137309003Y-104298222D01*
X137190000Y-104274123D01*
X135190000Y-104274123D01*
X135078827Y-104295042D01*
X134976721Y-104360745D01*
X134908222Y-104460997D01*
X134884123Y-104580000D01*
X118350000Y-104580000D01*
X118350000Y-102517647D01*
X134429793Y-102517647D01*
X134612097Y-102958857D01*
X134949367Y-103296717D01*
X135390258Y-103479791D01*
X135867647Y-103480207D01*
X136308857Y-103297903D01*
X136576955Y-103030273D01*
X138172153Y-103030273D01*
X138265352Y-103218431D01*
X138721729Y-103415935D01*
X139218949Y-103423756D01*
X139681314Y-103240705D01*
X139714648Y-103218431D01*
X139807847Y-103030273D01*
X138990000Y-102212426D01*
X138172153Y-103030273D01*
X136576955Y-103030273D01*
X136646717Y-102960633D01*
X136829791Y-102519742D01*
X136829896Y-102398949D01*
X137736244Y-102398949D01*
X137919295Y-102861314D01*
X137941569Y-102894648D01*
X138129727Y-102987847D01*
X138947574Y-102170000D01*
X139032426Y-102170000D01*
X139850273Y-102987847D01*
X140038431Y-102894648D01*
X140235935Y-102438271D01*
X140243756Y-101941051D01*
X140060705Y-101478686D01*
X140038431Y-101445352D01*
X139850273Y-101352153D01*
X139032426Y-102170000D01*
X138947574Y-102170000D01*
X138129727Y-101352153D01*
X137941569Y-101445352D01*
X137744065Y-101901729D01*
X137736244Y-102398949D01*
X136829896Y-102398949D01*
X136830207Y-102042353D01*
X136647903Y-101601143D01*
X136356996Y-101309727D01*
X138172153Y-101309727D01*
X138990000Y-102127574D01*
X139807847Y-101309727D01*
X139714648Y-101121569D01*
X139258271Y-100924065D01*
X138761051Y-100916244D01*
X138298686Y-101099295D01*
X138265352Y-101121569D01*
X138172153Y-101309727D01*
X136356996Y-101309727D01*
X136310633Y-101263283D01*
X135869742Y-101080209D01*
X135392353Y-101079793D01*
X134951143Y-101262097D01*
X134613283Y-101599367D01*
X134430209Y-102040258D01*
X134429793Y-102517647D01*
X118350000Y-102517647D01*
X118350000Y-97106500D01*
X135660000Y-97106500D01*
X135660000Y-98147674D01*
X135705672Y-98257937D01*
X135790064Y-98342328D01*
X135900327Y-98388000D01*
X138275000Y-98388000D01*
X138350000Y-98313000D01*
X138350000Y-97031500D01*
X135735000Y-97031500D01*
X135660000Y-97106500D01*
X118350000Y-97106500D01*
X118350000Y-95615326D01*
X135660000Y-95615326D01*
X135660000Y-96656500D01*
X135735000Y-96731500D01*
X138350000Y-96731500D01*
X138350000Y-95450000D01*
X138275000Y-95375000D01*
X135900327Y-95375000D01*
X135790064Y-95420672D01*
X135705672Y-95505063D01*
X135660000Y-95615326D01*
X118350000Y-95615326D01*
X118350000Y-92737647D01*
X135549793Y-92737647D01*
X135732097Y-93178857D01*
X136069367Y-93516717D01*
X136510258Y-93699791D01*
X136987647Y-93700207D01*
X137428857Y-93517903D01*
X137766717Y-93180633D01*
X137949791Y-92739742D01*
X137950207Y-92262353D01*
X137767903Y-91821143D01*
X137430633Y-91483283D01*
X136989742Y-91300209D01*
X136512353Y-91299793D01*
X136071143Y-91482097D01*
X135733283Y-91819367D01*
X135550209Y-92260258D01*
X135549793Y-92737647D01*
X118350000Y-92737647D01*
X118350000Y-89432390D01*
X125610036Y-89432390D01*
X125715406Y-89630939D01*
X126207921Y-89845102D01*
X126744903Y-89854486D01*
X127244600Y-89657662D01*
X127284594Y-89630939D01*
X127389964Y-89432390D01*
X126500000Y-88542426D01*
X125610036Y-89432390D01*
X118350000Y-89432390D01*
X118350000Y-88744903D01*
X125145514Y-88744903D01*
X125342338Y-89244600D01*
X125369061Y-89284594D01*
X125567610Y-89389964D01*
X126457574Y-88500000D01*
X126542426Y-88500000D01*
X127432390Y-89389964D01*
X127630939Y-89284594D01*
X127845102Y-88792079D01*
X127852941Y-88343500D01*
X135660000Y-88343500D01*
X135660000Y-89384674D01*
X135705672Y-89494937D01*
X135790064Y-89579328D01*
X135900327Y-89625000D01*
X138275000Y-89625000D01*
X138350000Y-89550000D01*
X138350000Y-88268500D01*
X135735000Y-88268500D01*
X135660000Y-88343500D01*
X127852941Y-88343500D01*
X127854486Y-88255097D01*
X127657662Y-87755400D01*
X127630939Y-87715406D01*
X127432390Y-87610036D01*
X126542426Y-88500000D01*
X126457574Y-88500000D01*
X125567610Y-87610036D01*
X125369061Y-87715406D01*
X125154898Y-88207921D01*
X125145514Y-88744903D01*
X118350000Y-88744903D01*
X118350000Y-87567610D01*
X125610036Y-87567610D01*
X126500000Y-88457574D01*
X127389964Y-87567610D01*
X127284594Y-87369061D01*
X126792079Y-87154898D01*
X126255097Y-87145514D01*
X125755400Y-87342338D01*
X125715406Y-87369061D01*
X125610036Y-87567610D01*
X118350000Y-87567610D01*
X118350000Y-87034472D01*
X118386230Y-86852326D01*
X135660000Y-86852326D01*
X135660000Y-87893500D01*
X135735000Y-87968500D01*
X138350000Y-87968500D01*
X138350000Y-86687000D01*
X138275000Y-86612000D01*
X135900327Y-86612000D01*
X135790064Y-86657672D01*
X135705672Y-86742063D01*
X135660000Y-86852326D01*
X118386230Y-86852326D01*
X118405813Y-86753879D01*
X118545229Y-86545228D01*
X118753880Y-86405813D01*
X119034472Y-86350000D01*
X139965528Y-86350000D01*
X140246121Y-86405813D01*
M02*
