G04 #@! TF.FileFunction,Legend,Top*
%FSLAX46Y46*%
G04 Gerber Fmt 4.6, Leading zero omitted, Abs format (unit mm)*
G04 Created by KiCad (PCBNEW (2016-05-05 BZR 6775)-product) date Monday, 20 June 2016 'amt' 00:31:08*
%MOMM*%
%LPD*%
G01*
G04 APERTURE LIST*
%ADD10C,0.100000*%
%ADD11C,0.200000*%
%ADD12C,0.300000*%
%ADD13C,0.400000*%
%ADD14C,0.150000*%
%ADD15C,0.010000*%
G04 APERTURE END LIST*
D10*
D11*
X138228571Y-121014285D02*
X138228571Y-120680952D01*
X138752380Y-120538095D02*
X138752380Y-121014285D01*
X137752380Y-121014285D01*
X137752380Y-120538095D01*
X138752380Y-119538095D02*
X138276190Y-119871428D01*
X138752380Y-120109523D02*
X137752380Y-120109523D01*
X137752380Y-119728571D01*
X137800000Y-119633333D01*
X137847619Y-119585714D01*
X137942857Y-119538095D01*
X138085714Y-119538095D01*
X138180952Y-119585714D01*
X138228571Y-119633333D01*
X138276190Y-119728571D01*
X138276190Y-120109523D01*
X138752380Y-118538095D02*
X138276190Y-118871428D01*
X138752380Y-119109523D02*
X137752380Y-119109523D01*
X137752380Y-118728571D01*
X137800000Y-118633333D01*
X137847619Y-118585714D01*
X137942857Y-118538095D01*
X138085714Y-118538095D01*
X138180952Y-118585714D01*
X138228571Y-118633333D01*
X138276190Y-118728571D01*
X138276190Y-119109523D01*
X140266666Y-120969047D02*
X140266666Y-120492857D01*
X140552380Y-121064285D02*
X139552380Y-120730952D01*
X140552380Y-120397619D01*
X140457142Y-119492857D02*
X140504761Y-119540476D01*
X140552380Y-119683333D01*
X140552380Y-119778571D01*
X140504761Y-119921428D01*
X140409523Y-120016666D01*
X140314285Y-120064285D01*
X140123809Y-120111904D01*
X139980952Y-120111904D01*
X139790476Y-120064285D01*
X139695238Y-120016666D01*
X139600000Y-119921428D01*
X139552380Y-119778571D01*
X139552380Y-119683333D01*
X139600000Y-119540476D01*
X139647619Y-119492857D01*
X139552380Y-119207142D02*
X139552380Y-118635714D01*
X140552380Y-118921428D02*
X139552380Y-118921428D01*
X120148571Y-137439817D02*
X120748571Y-136400586D01*
X120996007Y-136543444D01*
X121115897Y-136678645D01*
X121157729Y-136834762D01*
X121150073Y-136962308D01*
X121085275Y-137188828D01*
X120999560Y-137337290D01*
X120835787Y-137506667D01*
X120729157Y-137577070D01*
X120573040Y-137618901D01*
X120396007Y-137582674D01*
X120148571Y-137439817D01*
X121309743Y-137714322D02*
X121804615Y-138000037D01*
X121039340Y-137954103D02*
X121985751Y-137114872D01*
X121732161Y-138354103D01*
X122530109Y-137429158D02*
X122276520Y-138668388D01*
X123222930Y-137829158D01*
X122969340Y-139068388D02*
X123569340Y-138029158D01*
X123464212Y-139354103D02*
X124064212Y-138314872D01*
X124311647Y-138457729D01*
X124431537Y-138592931D01*
X124473369Y-138749048D01*
X124465713Y-138876594D01*
X124400915Y-139103114D01*
X124315200Y-139251575D01*
X124151428Y-139420952D01*
X124044798Y-139491355D01*
X123888680Y-139533187D01*
X123711647Y-139496960D01*
X123464212Y-139354103D01*
X118783572Y-137575495D02*
X119377418Y-137918352D01*
X118480495Y-138786154D02*
X119080495Y-137746923D01*
X119723828Y-138118352D02*
X119238114Y-138959633D01*
X119230458Y-139087179D01*
X119251374Y-139165238D01*
X119321777Y-139271868D01*
X119519725Y-139386154D01*
X119647271Y-139393809D01*
X119725330Y-139372894D01*
X119831960Y-139302491D01*
X120317674Y-138461209D01*
X120806392Y-140129011D02*
X120745696Y-139434139D01*
X120212546Y-139786154D02*
X120812546Y-138746923D01*
X121208443Y-138975495D01*
X121278846Y-139082125D01*
X121299761Y-139160183D01*
X121292106Y-139287729D01*
X121206392Y-139436190D01*
X121099761Y-139506593D01*
X121021703Y-139527509D01*
X120894157Y-139519853D01*
X120498260Y-139291282D01*
X121251776Y-140386154D02*
X121851776Y-139346923D01*
X121845622Y-140729011D01*
X122445622Y-139689780D01*
X122654779Y-140470366D02*
X123001190Y-140670366D01*
X122835365Y-141300439D02*
X122340494Y-141014725D01*
X122940494Y-139975495D01*
X123435365Y-140261209D01*
X123874596Y-141900439D02*
X123813900Y-141205568D01*
X123280750Y-141557582D02*
X123880750Y-140518352D01*
X124276647Y-140746923D01*
X124347050Y-140853553D01*
X124367966Y-140931612D01*
X124360310Y-141059157D01*
X124274596Y-141207619D01*
X124167966Y-141278022D01*
X124089907Y-141298938D01*
X123962361Y-141291282D01*
X123566464Y-141062710D01*
D12*
X112473809Y-133954761D02*
X113616666Y-133954761D01*
X113045238Y-135954761D02*
X113045238Y-133954761D01*
X114283333Y-134907142D02*
X114950000Y-134907142D01*
X115235714Y-135954761D02*
X114283333Y-135954761D01*
X114283333Y-133954761D01*
X115235714Y-133954761D01*
X115997619Y-135383333D02*
X116950000Y-135383333D01*
X115807142Y-135954761D02*
X116473809Y-133954761D01*
X117140476Y-135954761D01*
X117807142Y-135954761D02*
X117807142Y-133954761D01*
X118569047Y-133954761D01*
X118759523Y-134050000D01*
X118854761Y-134145238D01*
X118950000Y-134335714D01*
X118950000Y-134621428D01*
X118854761Y-134811904D01*
X118759523Y-134907142D01*
X118569047Y-135002380D01*
X117807142Y-135002380D01*
X120188095Y-133954761D02*
X120569047Y-133954761D01*
X120759523Y-134050000D01*
X120950000Y-134240476D01*
X121045238Y-134621428D01*
X121045238Y-135288095D01*
X120950000Y-135669047D01*
X120759523Y-135859523D01*
X120569047Y-135954761D01*
X120188095Y-135954761D01*
X119997619Y-135859523D01*
X119807142Y-135669047D01*
X119711904Y-135288095D01*
X119711904Y-134621428D01*
X119807142Y-134240476D01*
X119997619Y-134050000D01*
X120188095Y-133954761D01*
X121616666Y-133954761D02*
X122759523Y-133954761D01*
X122188095Y-135954761D02*
X122188095Y-133954761D01*
X124950000Y-135954761D02*
X124950000Y-134621428D01*
X124950000Y-135002380D02*
X125045238Y-134811904D01*
X125140476Y-134716666D01*
X125330952Y-134621428D01*
X125521428Y-134621428D01*
X125997619Y-133954761D02*
X127235714Y-133954761D01*
X126569047Y-134716666D01*
X126854761Y-134716666D01*
X127045238Y-134811904D01*
X127140476Y-134907142D01*
X127235714Y-135097619D01*
X127235714Y-135573809D01*
X127140476Y-135764285D01*
X127045238Y-135859523D01*
X126854761Y-135954761D01*
X126283333Y-135954761D01*
X126092857Y-135859523D01*
X125997619Y-135764285D01*
D13*
X125300000Y-132200000D02*
G75*
G03X125300000Y-132200000I-200000J0D01*
G01*
D14*
X119100000Y-133600000D02*
X121100000Y-133600000D01*
X124600000Y-130600000D02*
X124600000Y-132600000D01*
X124600000Y-122600000D02*
X124600000Y-124600000D01*
X119100000Y-121600000D02*
X122100000Y-121600000D01*
X116600000Y-124600000D02*
X116600000Y-122600000D01*
X116600000Y-132600000D02*
X116600000Y-130600000D01*
X117625000Y-95000000D02*
X117625000Y-94000000D01*
X118975000Y-94000000D02*
X118975000Y-95000000D01*
X139500000Y-108500000D02*
X139500000Y-92500000D01*
X139500000Y-92500000D02*
X119500000Y-92500000D01*
X119500000Y-92500000D02*
X119500000Y-108500000D01*
X119500000Y-108500000D02*
X139500000Y-108500000D01*
X140875000Y-129300000D02*
X140875000Y-130300000D01*
X139525000Y-130300000D02*
X139525000Y-129300000D01*
X134000000Y-139550000D02*
X134000000Y-140250000D01*
X132800000Y-140250000D02*
X132800000Y-139550000D01*
X134725000Y-132500000D02*
X134725000Y-133500000D01*
X133375000Y-133500000D02*
X133375000Y-132500000D01*
X131850000Y-137400000D02*
X128850000Y-137400000D01*
X128850000Y-134200000D02*
X131850000Y-134200000D01*
X130100000Y-141000000D02*
G75*
G03X130100000Y-141000000I-200000J0D01*
G01*
X132100000Y-139000000D02*
X132300000Y-139000000D01*
X132300000Y-139000000D02*
X132300000Y-140600000D01*
X132300000Y-140600000D02*
X132100000Y-140600000D01*
X129900000Y-139000000D02*
X130100000Y-139000000D01*
X129900000Y-139000000D02*
X129900000Y-140600000D01*
X129900000Y-140600000D02*
X130100000Y-140600000D01*
X133550000Y-90600000D02*
X132850000Y-90600000D01*
X132850000Y-89400000D02*
X133550000Y-89400000D01*
X133550000Y-92100000D02*
X132850000Y-92100000D01*
X132850000Y-90900000D02*
X133550000Y-90900000D01*
X140114000Y-135739000D02*
X139914000Y-135739000D01*
X137520000Y-135739000D02*
X137700000Y-135739000D01*
X137830357Y-132511256D02*
G75*
G03X137514000Y-135739000I1003643J-1727744D01*
G01*
X137700932Y-133186994D02*
G75*
G03X137700000Y-135290000I1133068J-1052006D01*
G01*
X140140726Y-135726220D02*
G75*
G03X139794000Y-132489000I-1306726J1497220D01*
G01*
X139913253Y-135252889D02*
G75*
G03X139894000Y-133205000I-1079253J1013889D01*
G01*
X140775000Y-124900000D02*
X140775000Y-122200000D01*
X139275000Y-124900000D02*
X139275000Y-122200000D01*
X140175000Y-123400000D02*
X139925000Y-123400000D01*
X139925000Y-123400000D02*
X140075000Y-123550000D01*
X139675000Y-123650000D02*
X140375000Y-123650000D01*
X140025000Y-123300000D02*
X140025000Y-122950000D01*
X140025000Y-123650000D02*
X139675000Y-123300000D01*
X139675000Y-123300000D02*
X140375000Y-123300000D01*
X140375000Y-123300000D02*
X140025000Y-123650000D01*
X139525000Y-127100000D02*
X139525000Y-126100000D01*
X140875000Y-126100000D02*
X140875000Y-127100000D01*
X137925000Y-127100000D02*
X137925000Y-126100000D01*
X139275000Y-126100000D02*
X139275000Y-127100000D01*
X129300000Y-139450000D02*
X129300000Y-140150000D01*
X128100000Y-140150000D02*
X128100000Y-139450000D01*
X126023744Y-136969150D02*
X126730850Y-137676256D01*
X125776256Y-138630850D02*
X125069150Y-137923744D01*
X138875000Y-124900000D02*
X138875000Y-122200000D01*
X137375000Y-124900000D02*
X137375000Y-122200000D01*
X138275000Y-123400000D02*
X138025000Y-123400000D01*
X138025000Y-123400000D02*
X138175000Y-123550000D01*
X137775000Y-123650000D02*
X138475000Y-123650000D01*
X138125000Y-123300000D02*
X138125000Y-122950000D01*
X138125000Y-123650000D02*
X137775000Y-123300000D01*
X137775000Y-123300000D02*
X138475000Y-123300000D01*
X138475000Y-123300000D02*
X138125000Y-123650000D01*
X131400000Y-127850000D02*
X131400000Y-128550000D01*
X130200000Y-128550000D02*
X130200000Y-127850000D01*
X130000000Y-127850000D02*
X130000000Y-128550000D01*
X128800000Y-128550000D02*
X128800000Y-127850000D01*
X132800000Y-127850000D02*
X132800000Y-128550000D01*
X131600000Y-128550000D02*
X131600000Y-127850000D01*
X135450000Y-117450000D02*
X134750000Y-117450000D01*
X134750000Y-116250000D02*
X135450000Y-116250000D01*
X135600000Y-127850000D02*
X135600000Y-128550000D01*
X134400000Y-128550000D02*
X134400000Y-127850000D01*
X134200000Y-127850000D02*
X134200000Y-128550000D01*
X133000000Y-128550000D02*
X133000000Y-127850000D01*
X113500000Y-117100000D02*
X113500000Y-116400000D01*
X114700000Y-116400000D02*
X114700000Y-117100000D01*
X127225000Y-124150000D02*
X127225000Y-123450000D01*
X128425000Y-123450000D02*
X128425000Y-124150000D01*
X125800000Y-124150000D02*
X125800000Y-123450000D01*
X127000000Y-123450000D02*
X127000000Y-124150000D01*
X118500000Y-110950000D02*
X118500000Y-111650000D01*
X117300000Y-111650000D02*
X117300000Y-110950000D01*
X123750000Y-116025000D02*
X122750000Y-116025000D01*
X122750000Y-114675000D02*
X123750000Y-114675000D01*
X122750000Y-113075000D02*
X123750000Y-113075000D01*
X123750000Y-114425000D02*
X122750000Y-114425000D01*
X129100000Y-130725000D02*
X131100000Y-130725000D01*
X131100000Y-132875000D02*
X129100000Y-132875000D01*
X129800000Y-125350000D02*
X129400000Y-124950000D01*
X129400000Y-118650000D02*
X129400000Y-118250000D01*
X129400000Y-118250000D02*
X129800000Y-118250000D01*
X136500000Y-118650000D02*
X136500000Y-118250000D01*
X136500000Y-118250000D02*
X136100000Y-118250000D01*
X136500000Y-124950000D02*
X136500000Y-125350000D01*
X136500000Y-125350000D02*
X136100000Y-125350000D01*
X128600000Y-127850000D02*
X128600000Y-128550000D01*
X127400000Y-128550000D02*
X127400000Y-127850000D01*
X113925000Y-126700000D02*
X113925000Y-127700000D01*
X112575000Y-127700000D02*
X112575000Y-126700000D01*
X115400000Y-126850000D02*
X115400000Y-127550000D01*
X114200000Y-127550000D02*
X114200000Y-126850000D01*
X115400000Y-129750000D02*
X115400000Y-130450000D01*
X114200000Y-130450000D02*
X114200000Y-129750000D01*
X114200000Y-124650000D02*
X114200000Y-123950000D01*
X115400000Y-123950000D02*
X115400000Y-124650000D01*
D15*
G36*
X129983615Y-112449739D02*
X130012821Y-112460634D01*
X130088106Y-112488587D01*
X130174805Y-112516312D01*
X130269826Y-112543064D01*
X130370078Y-112568102D01*
X130472468Y-112590680D01*
X130573907Y-112610056D01*
X130671301Y-112625486D01*
X130728657Y-112632785D01*
X130793888Y-112638788D01*
X130870154Y-112643470D01*
X130954031Y-112646793D01*
X131042097Y-112648720D01*
X131130928Y-112649210D01*
X131217101Y-112648228D01*
X131297194Y-112645734D01*
X131367784Y-112641691D01*
X131387174Y-112640119D01*
X131467184Y-112631526D01*
X131552560Y-112619602D01*
X131639086Y-112605095D01*
X131722543Y-112588754D01*
X131798714Y-112571328D01*
X131846257Y-112558649D01*
X131877823Y-112549646D01*
X131906499Y-112541587D01*
X131927724Y-112535749D01*
X131933343Y-112534260D01*
X131948578Y-112529694D01*
X131973946Y-112521426D01*
X132005911Y-112510629D01*
X132040794Y-112498531D01*
X132087832Y-112483269D01*
X132122203Y-112475001D01*
X132143954Y-112473721D01*
X132153135Y-112479423D01*
X132152689Y-112486018D01*
X132143782Y-112494188D01*
X132122474Y-112505392D01*
X132090424Y-112519060D01*
X132049290Y-112534618D01*
X132000730Y-112551496D01*
X131946402Y-112569122D01*
X131887966Y-112586924D01*
X131827079Y-112604331D01*
X131765399Y-112620769D01*
X131751914Y-112624193D01*
X131679671Y-112640731D01*
X131597937Y-112656682D01*
X131511736Y-112671209D01*
X131426088Y-112683477D01*
X131346016Y-112692648D01*
X131334629Y-112693720D01*
X131291440Y-112696615D01*
X131237387Y-112698647D01*
X131176093Y-112699817D01*
X131111182Y-112700129D01*
X131046277Y-112699588D01*
X130985002Y-112698195D01*
X130930981Y-112695956D01*
X130892512Y-112693303D01*
X130747945Y-112677975D01*
X130607563Y-112658180D01*
X130472917Y-112634274D01*
X130345562Y-112606613D01*
X130227049Y-112575552D01*
X130118932Y-112541447D01*
X130022764Y-112504652D01*
X129975532Y-112483401D01*
X129946134Y-112468765D01*
X129929094Y-112458481D01*
X129923344Y-112451392D01*
X129927815Y-112446342D01*
X129938138Y-112442966D01*
X129956397Y-112442784D01*
X129983615Y-112449739D01*
X129983615Y-112449739D01*
G37*
X129983615Y-112449739D02*
X130012821Y-112460634D01*
X130088106Y-112488587D01*
X130174805Y-112516312D01*
X130269826Y-112543064D01*
X130370078Y-112568102D01*
X130472468Y-112590680D01*
X130573907Y-112610056D01*
X130671301Y-112625486D01*
X130728657Y-112632785D01*
X130793888Y-112638788D01*
X130870154Y-112643470D01*
X130954031Y-112646793D01*
X131042097Y-112648720D01*
X131130928Y-112649210D01*
X131217101Y-112648228D01*
X131297194Y-112645734D01*
X131367784Y-112641691D01*
X131387174Y-112640119D01*
X131467184Y-112631526D01*
X131552560Y-112619602D01*
X131639086Y-112605095D01*
X131722543Y-112588754D01*
X131798714Y-112571328D01*
X131846257Y-112558649D01*
X131877823Y-112549646D01*
X131906499Y-112541587D01*
X131927724Y-112535749D01*
X131933343Y-112534260D01*
X131948578Y-112529694D01*
X131973946Y-112521426D01*
X132005911Y-112510629D01*
X132040794Y-112498531D01*
X132087832Y-112483269D01*
X132122203Y-112475001D01*
X132143954Y-112473721D01*
X132153135Y-112479423D01*
X132152689Y-112486018D01*
X132143782Y-112494188D01*
X132122474Y-112505392D01*
X132090424Y-112519060D01*
X132049290Y-112534618D01*
X132000730Y-112551496D01*
X131946402Y-112569122D01*
X131887966Y-112586924D01*
X131827079Y-112604331D01*
X131765399Y-112620769D01*
X131751914Y-112624193D01*
X131679671Y-112640731D01*
X131597937Y-112656682D01*
X131511736Y-112671209D01*
X131426088Y-112683477D01*
X131346016Y-112692648D01*
X131334629Y-112693720D01*
X131291440Y-112696615D01*
X131237387Y-112698647D01*
X131176093Y-112699817D01*
X131111182Y-112700129D01*
X131046277Y-112699588D01*
X130985002Y-112698195D01*
X130930981Y-112695956D01*
X130892512Y-112693303D01*
X130747945Y-112677975D01*
X130607563Y-112658180D01*
X130472917Y-112634274D01*
X130345562Y-112606613D01*
X130227049Y-112575552D01*
X130118932Y-112541447D01*
X130022764Y-112504652D01*
X129975532Y-112483401D01*
X129946134Y-112468765D01*
X129929094Y-112458481D01*
X129923344Y-112451392D01*
X129927815Y-112446342D01*
X129938138Y-112442966D01*
X129956397Y-112442784D01*
X129983615Y-112449739D01*
G36*
X132114856Y-110076647D02*
X132134133Y-110127940D01*
X132160628Y-110185584D01*
X132194868Y-110250547D01*
X132237382Y-110323798D01*
X132288697Y-110406305D01*
X132325617Y-110463221D01*
X132373470Y-110538007D01*
X132413453Y-110605450D01*
X132447299Y-110669091D01*
X132476738Y-110732471D01*
X132503504Y-110799132D01*
X132529327Y-110872615D01*
X132536446Y-110894342D01*
X132553205Y-110952913D01*
X132568308Y-111018498D01*
X132581004Y-111086715D01*
X132590540Y-111153181D01*
X132596164Y-111213515D01*
X132597372Y-111249478D01*
X132593322Y-111328940D01*
X132581829Y-111413691D01*
X132563881Y-111499387D01*
X132540464Y-111581685D01*
X132512565Y-111656242D01*
X132497666Y-111688413D01*
X132478995Y-111723874D01*
X132458139Y-111759395D01*
X132433893Y-111796654D01*
X132405052Y-111837329D01*
X132370411Y-111883100D01*
X132328766Y-111935643D01*
X132278911Y-111996639D01*
X132260210Y-112019200D01*
X132217803Y-112070516D01*
X132183098Y-112113284D01*
X132154253Y-112149890D01*
X132129424Y-112182720D01*
X132106770Y-112214160D01*
X132084446Y-112246597D01*
X132083419Y-112248120D01*
X132071135Y-112265454D01*
X132058970Y-112279514D01*
X132044850Y-112291389D01*
X132026701Y-112302171D01*
X132002450Y-112312949D01*
X131970023Y-112324815D01*
X131927346Y-112338859D01*
X131886172Y-112351850D01*
X131758662Y-112388290D01*
X131626407Y-112419657D01*
X131495007Y-112444744D01*
X131378172Y-112461416D01*
X131348587Y-112464014D01*
X131307594Y-112466439D01*
X131258295Y-112468612D01*
X131203797Y-112470454D01*
X131147202Y-112471884D01*
X131091617Y-112472823D01*
X131040144Y-112473192D01*
X130995890Y-112472911D01*
X130964514Y-112472023D01*
X130912248Y-112468722D01*
X130853258Y-112463534D01*
X130792935Y-112457036D01*
X130736670Y-112449806D01*
X130692372Y-112442871D01*
X130656224Y-112436689D01*
X130617569Y-112430417D01*
X130585222Y-112425478D01*
X130542045Y-112417816D01*
X130488214Y-112406068D01*
X130426669Y-112391066D01*
X130360348Y-112373641D01*
X130292190Y-112354622D01*
X130225134Y-112334841D01*
X130162119Y-112315128D01*
X130106083Y-112296314D01*
X130059967Y-112279231D01*
X130042857Y-112272167D01*
X130024027Y-112262624D01*
X130010807Y-112250977D01*
X129999412Y-112232997D01*
X129989872Y-112213009D01*
X129971252Y-112179849D01*
X129943193Y-112140826D01*
X129911187Y-112102657D01*
X129872470Y-112057739D01*
X129830432Y-112006292D01*
X129788591Y-111952797D01*
X129750468Y-111901735D01*
X129725124Y-111865813D01*
X129702213Y-111832169D01*
X129750188Y-111804127D01*
X129804813Y-111763806D01*
X129852608Y-111710717D01*
X129893547Y-111644914D01*
X129927603Y-111566449D01*
X129954748Y-111475376D01*
X129974957Y-111371749D01*
X129977381Y-111355171D01*
X129981520Y-111313032D01*
X129983726Y-111262616D01*
X129984049Y-111208452D01*
X129982540Y-111155073D01*
X129979250Y-111107009D01*
X129974229Y-111068791D01*
X129974178Y-111068514D01*
X129950767Y-110975995D01*
X129916491Y-110889742D01*
X129872234Y-110811236D01*
X129818876Y-110741956D01*
X129757300Y-110683383D01*
X129734294Y-110665917D01*
X129710931Y-110648793D01*
X129697657Y-110637221D01*
X129692500Y-110628683D01*
X129693488Y-110620657D01*
X129695506Y-110616359D01*
X129701493Y-110605189D01*
X129713212Y-110583549D01*
X129729432Y-110553704D01*
X129748922Y-110517918D01*
X129770452Y-110478457D01*
X129772104Y-110475433D01*
X129815309Y-110395023D01*
X129851388Y-110324908D01*
X129881202Y-110263269D01*
X129905614Y-110208285D01*
X129925488Y-110158133D01*
X129934662Y-110132342D01*
X129944769Y-110103055D01*
X129953164Y-110079358D01*
X129958748Y-110064318D01*
X129960362Y-110060619D01*
X129967514Y-110062052D01*
X129984839Y-110068221D01*
X130009243Y-110077982D01*
X130022656Y-110083647D01*
X130097124Y-110113325D01*
X130179778Y-110142324D01*
X130266070Y-110169271D01*
X130351451Y-110192796D01*
X130431375Y-110211529D01*
X130474657Y-110219871D01*
X130538541Y-110230589D01*
X130595249Y-110239147D01*
X130648048Y-110245833D01*
X130700204Y-110250936D01*
X130754981Y-110254746D01*
X130815646Y-110257550D01*
X130885464Y-110259639D01*
X130936548Y-110260735D01*
X131022905Y-110261951D01*
X131097946Y-110261895D01*
X131164832Y-110260363D01*
X131226722Y-110257151D01*
X131286775Y-110252057D01*
X131348152Y-110244875D01*
X131414011Y-110235402D01*
X131470458Y-110226304D01*
X131606165Y-110201480D01*
X131728084Y-110174551D01*
X131836811Y-110145355D01*
X131932942Y-110113729D01*
X132017073Y-110079511D01*
X132027637Y-110074641D01*
X132102705Y-110039499D01*
X132114856Y-110076647D01*
X132114856Y-110076647D01*
G37*
X132114856Y-110076647D02*
X132134133Y-110127940D01*
X132160628Y-110185584D01*
X132194868Y-110250547D01*
X132237382Y-110323798D01*
X132288697Y-110406305D01*
X132325617Y-110463221D01*
X132373470Y-110538007D01*
X132413453Y-110605450D01*
X132447299Y-110669091D01*
X132476738Y-110732471D01*
X132503504Y-110799132D01*
X132529327Y-110872615D01*
X132536446Y-110894342D01*
X132553205Y-110952913D01*
X132568308Y-111018498D01*
X132581004Y-111086715D01*
X132590540Y-111153181D01*
X132596164Y-111213515D01*
X132597372Y-111249478D01*
X132593322Y-111328940D01*
X132581829Y-111413691D01*
X132563881Y-111499387D01*
X132540464Y-111581685D01*
X132512565Y-111656242D01*
X132497666Y-111688413D01*
X132478995Y-111723874D01*
X132458139Y-111759395D01*
X132433893Y-111796654D01*
X132405052Y-111837329D01*
X132370411Y-111883100D01*
X132328766Y-111935643D01*
X132278911Y-111996639D01*
X132260210Y-112019200D01*
X132217803Y-112070516D01*
X132183098Y-112113284D01*
X132154253Y-112149890D01*
X132129424Y-112182720D01*
X132106770Y-112214160D01*
X132084446Y-112246597D01*
X132083419Y-112248120D01*
X132071135Y-112265454D01*
X132058970Y-112279514D01*
X132044850Y-112291389D01*
X132026701Y-112302171D01*
X132002450Y-112312949D01*
X131970023Y-112324815D01*
X131927346Y-112338859D01*
X131886172Y-112351850D01*
X131758662Y-112388290D01*
X131626407Y-112419657D01*
X131495007Y-112444744D01*
X131378172Y-112461416D01*
X131348587Y-112464014D01*
X131307594Y-112466439D01*
X131258295Y-112468612D01*
X131203797Y-112470454D01*
X131147202Y-112471884D01*
X131091617Y-112472823D01*
X131040144Y-112473192D01*
X130995890Y-112472911D01*
X130964514Y-112472023D01*
X130912248Y-112468722D01*
X130853258Y-112463534D01*
X130792935Y-112457036D01*
X130736670Y-112449806D01*
X130692372Y-112442871D01*
X130656224Y-112436689D01*
X130617569Y-112430417D01*
X130585222Y-112425478D01*
X130542045Y-112417816D01*
X130488214Y-112406068D01*
X130426669Y-112391066D01*
X130360348Y-112373641D01*
X130292190Y-112354622D01*
X130225134Y-112334841D01*
X130162119Y-112315128D01*
X130106083Y-112296314D01*
X130059967Y-112279231D01*
X130042857Y-112272167D01*
X130024027Y-112262624D01*
X130010807Y-112250977D01*
X129999412Y-112232997D01*
X129989872Y-112213009D01*
X129971252Y-112179849D01*
X129943193Y-112140826D01*
X129911187Y-112102657D01*
X129872470Y-112057739D01*
X129830432Y-112006292D01*
X129788591Y-111952797D01*
X129750468Y-111901735D01*
X129725124Y-111865813D01*
X129702213Y-111832169D01*
X129750188Y-111804127D01*
X129804813Y-111763806D01*
X129852608Y-111710717D01*
X129893547Y-111644914D01*
X129927603Y-111566449D01*
X129954748Y-111475376D01*
X129974957Y-111371749D01*
X129977381Y-111355171D01*
X129981520Y-111313032D01*
X129983726Y-111262616D01*
X129984049Y-111208452D01*
X129982540Y-111155073D01*
X129979250Y-111107009D01*
X129974229Y-111068791D01*
X129974178Y-111068514D01*
X129950767Y-110975995D01*
X129916491Y-110889742D01*
X129872234Y-110811236D01*
X129818876Y-110741956D01*
X129757300Y-110683383D01*
X129734294Y-110665917D01*
X129710931Y-110648793D01*
X129697657Y-110637221D01*
X129692500Y-110628683D01*
X129693488Y-110620657D01*
X129695506Y-110616359D01*
X129701493Y-110605189D01*
X129713212Y-110583549D01*
X129729432Y-110553704D01*
X129748922Y-110517918D01*
X129770452Y-110478457D01*
X129772104Y-110475433D01*
X129815309Y-110395023D01*
X129851388Y-110324908D01*
X129881202Y-110263269D01*
X129905614Y-110208285D01*
X129925488Y-110158133D01*
X129934662Y-110132342D01*
X129944769Y-110103055D01*
X129953164Y-110079358D01*
X129958748Y-110064318D01*
X129960362Y-110060619D01*
X129967514Y-110062052D01*
X129984839Y-110068221D01*
X130009243Y-110077982D01*
X130022656Y-110083647D01*
X130097124Y-110113325D01*
X130179778Y-110142324D01*
X130266070Y-110169271D01*
X130351451Y-110192796D01*
X130431375Y-110211529D01*
X130474657Y-110219871D01*
X130538541Y-110230589D01*
X130595249Y-110239147D01*
X130648048Y-110245833D01*
X130700204Y-110250936D01*
X130754981Y-110254746D01*
X130815646Y-110257550D01*
X130885464Y-110259639D01*
X130936548Y-110260735D01*
X131022905Y-110261951D01*
X131097946Y-110261895D01*
X131164832Y-110260363D01*
X131226722Y-110257151D01*
X131286775Y-110252057D01*
X131348152Y-110244875D01*
X131414011Y-110235402D01*
X131470458Y-110226304D01*
X131606165Y-110201480D01*
X131728084Y-110174551D01*
X131836811Y-110145355D01*
X131932942Y-110113729D01*
X132017073Y-110079511D01*
X132027637Y-110074641D01*
X132102705Y-110039499D01*
X132114856Y-110076647D01*
G36*
X133200713Y-109849288D02*
X133276755Y-109867432D01*
X133287074Y-109870790D01*
X133340413Y-109890556D01*
X133385590Y-109912183D01*
X133428886Y-109938980D01*
X133461638Y-109962736D01*
X133528923Y-110022617D01*
X133588361Y-110093295D01*
X133639214Y-110172912D01*
X133680742Y-110259611D01*
X133712205Y-110351533D01*
X133732863Y-110446820D01*
X133741976Y-110543614D01*
X133738806Y-110640056D01*
X133737167Y-110654857D01*
X133730818Y-110695051D01*
X133720601Y-110745467D01*
X133707386Y-110802609D01*
X133692045Y-110862981D01*
X133675448Y-110923085D01*
X133658465Y-110979426D01*
X133649517Y-111006828D01*
X133598282Y-111141543D01*
X133539233Y-111264505D01*
X133471762Y-111376559D01*
X133395266Y-111478551D01*
X133309136Y-111571324D01*
X133212769Y-111655723D01*
X133151161Y-111701725D01*
X133092942Y-111737596D01*
X133024089Y-111771567D01*
X132948472Y-111802282D01*
X132869961Y-111828385D01*
X132792427Y-111848521D01*
X132719739Y-111861335D01*
X132686145Y-111864590D01*
X132618889Y-111868947D01*
X132658748Y-111786230D01*
X132698607Y-111703514D01*
X132755032Y-111699020D01*
X132838226Y-111685877D01*
X132923612Y-111660263D01*
X133008788Y-111623472D01*
X133091348Y-111576799D01*
X133168890Y-111521541D01*
X133239009Y-111458992D01*
X133277288Y-111417602D01*
X133338567Y-111337878D01*
X133396593Y-111246819D01*
X133449878Y-111147495D01*
X133496937Y-111042975D01*
X133536285Y-110936331D01*
X133566435Y-110830632D01*
X133571079Y-110810555D01*
X133577045Y-110781354D01*
X133581393Y-110753348D01*
X133584371Y-110723313D01*
X133586227Y-110688023D01*
X133587210Y-110644254D01*
X133587549Y-110596800D01*
X133587542Y-110546182D01*
X133587023Y-110507240D01*
X133585761Y-110477139D01*
X133583522Y-110453042D01*
X133580075Y-110432116D01*
X133575187Y-110411523D01*
X133571201Y-110397228D01*
X133541371Y-110317467D01*
X133500454Y-110244576D01*
X133449688Y-110180213D01*
X133390312Y-110126035D01*
X133345966Y-110096042D01*
X133304510Y-110073817D01*
X133265820Y-110058831D01*
X133225188Y-110049902D01*
X133177907Y-110045845D01*
X133144061Y-110045257D01*
X133090181Y-110046664D01*
X133045690Y-110051614D01*
X133005673Y-110061202D01*
X132965214Y-110076523D01*
X132931200Y-110092646D01*
X132889921Y-110115183D01*
X132847752Y-110142014D01*
X132802841Y-110174535D01*
X132753336Y-110214140D01*
X132697386Y-110262223D01*
X132652452Y-110302528D01*
X132610384Y-110340460D01*
X132577735Y-110369098D01*
X132553498Y-110389244D01*
X132536664Y-110401700D01*
X132526226Y-110407268D01*
X132521296Y-110406887D01*
X132516448Y-110400225D01*
X132505390Y-110384433D01*
X132490109Y-110362357D01*
X132482325Y-110351046D01*
X132445616Y-110297607D01*
X132487574Y-110266719D01*
X132509796Y-110249199D01*
X132538553Y-110224872D01*
X132569994Y-110197070D01*
X132597923Y-110171336D01*
X132647675Y-110124494D01*
X132688427Y-110086345D01*
X132721674Y-110055558D01*
X132748912Y-110030801D01*
X132771638Y-110010742D01*
X132791346Y-109994052D01*
X132809535Y-109979398D01*
X132827699Y-109965450D01*
X132837609Y-109958050D01*
X132911929Y-109908928D01*
X132984205Y-109873722D01*
X133055632Y-109852202D01*
X133127403Y-109844134D01*
X133200713Y-109849288D01*
X133200713Y-109849288D01*
G37*
X133200713Y-109849288D02*
X133276755Y-109867432D01*
X133287074Y-109870790D01*
X133340413Y-109890556D01*
X133385590Y-109912183D01*
X133428886Y-109938980D01*
X133461638Y-109962736D01*
X133528923Y-110022617D01*
X133588361Y-110093295D01*
X133639214Y-110172912D01*
X133680742Y-110259611D01*
X133712205Y-110351533D01*
X133732863Y-110446820D01*
X133741976Y-110543614D01*
X133738806Y-110640056D01*
X133737167Y-110654857D01*
X133730818Y-110695051D01*
X133720601Y-110745467D01*
X133707386Y-110802609D01*
X133692045Y-110862981D01*
X133675448Y-110923085D01*
X133658465Y-110979426D01*
X133649517Y-111006828D01*
X133598282Y-111141543D01*
X133539233Y-111264505D01*
X133471762Y-111376559D01*
X133395266Y-111478551D01*
X133309136Y-111571324D01*
X133212769Y-111655723D01*
X133151161Y-111701725D01*
X133092942Y-111737596D01*
X133024089Y-111771567D01*
X132948472Y-111802282D01*
X132869961Y-111828385D01*
X132792427Y-111848521D01*
X132719739Y-111861335D01*
X132686145Y-111864590D01*
X132618889Y-111868947D01*
X132658748Y-111786230D01*
X132698607Y-111703514D01*
X132755032Y-111699020D01*
X132838226Y-111685877D01*
X132923612Y-111660263D01*
X133008788Y-111623472D01*
X133091348Y-111576799D01*
X133168890Y-111521541D01*
X133239009Y-111458992D01*
X133277288Y-111417602D01*
X133338567Y-111337878D01*
X133396593Y-111246819D01*
X133449878Y-111147495D01*
X133496937Y-111042975D01*
X133536285Y-110936331D01*
X133566435Y-110830632D01*
X133571079Y-110810555D01*
X133577045Y-110781354D01*
X133581393Y-110753348D01*
X133584371Y-110723313D01*
X133586227Y-110688023D01*
X133587210Y-110644254D01*
X133587549Y-110596800D01*
X133587542Y-110546182D01*
X133587023Y-110507240D01*
X133585761Y-110477139D01*
X133583522Y-110453042D01*
X133580075Y-110432116D01*
X133575187Y-110411523D01*
X133571201Y-110397228D01*
X133541371Y-110317467D01*
X133500454Y-110244576D01*
X133449688Y-110180213D01*
X133390312Y-110126035D01*
X133345966Y-110096042D01*
X133304510Y-110073817D01*
X133265820Y-110058831D01*
X133225188Y-110049902D01*
X133177907Y-110045845D01*
X133144061Y-110045257D01*
X133090181Y-110046664D01*
X133045690Y-110051614D01*
X133005673Y-110061202D01*
X132965214Y-110076523D01*
X132931200Y-110092646D01*
X132889921Y-110115183D01*
X132847752Y-110142014D01*
X132802841Y-110174535D01*
X132753336Y-110214140D01*
X132697386Y-110262223D01*
X132652452Y-110302528D01*
X132610384Y-110340460D01*
X132577735Y-110369098D01*
X132553498Y-110389244D01*
X132536664Y-110401700D01*
X132526226Y-110407268D01*
X132521296Y-110406887D01*
X132516448Y-110400225D01*
X132505390Y-110384433D01*
X132490109Y-110362357D01*
X132482325Y-110351046D01*
X132445616Y-110297607D01*
X132487574Y-110266719D01*
X132509796Y-110249199D01*
X132538553Y-110224872D01*
X132569994Y-110197070D01*
X132597923Y-110171336D01*
X132647675Y-110124494D01*
X132688427Y-110086345D01*
X132721674Y-110055558D01*
X132748912Y-110030801D01*
X132771638Y-110010742D01*
X132791346Y-109994052D01*
X132809535Y-109979398D01*
X132827699Y-109965450D01*
X132837609Y-109958050D01*
X132911929Y-109908928D01*
X132984205Y-109873722D01*
X133055632Y-109852202D01*
X133127403Y-109844134D01*
X133200713Y-109849288D01*
G36*
X128659026Y-110327709D02*
X128718721Y-110367107D01*
X128781400Y-110418320D01*
X128845130Y-110479506D01*
X128907977Y-110548822D01*
X128962048Y-110616450D01*
X129017470Y-110687219D01*
X129068318Y-110745622D01*
X129115891Y-110792565D01*
X129161493Y-110828954D01*
X129206423Y-110855695D01*
X129251983Y-110873693D01*
X129299474Y-110883854D01*
X129350198Y-110887085D01*
X129350787Y-110887085D01*
X129413702Y-110880154D01*
X129476294Y-110860068D01*
X129535313Y-110827887D01*
X129538141Y-110825960D01*
X129559041Y-110812373D01*
X129575738Y-110802976D01*
X129583709Y-110800000D01*
X129595446Y-110804994D01*
X129614136Y-110818348D01*
X129637035Y-110837620D01*
X129661401Y-110860368D01*
X129684491Y-110884149D01*
X129703564Y-110906522D01*
X129704075Y-110907185D01*
X129723878Y-110934911D01*
X129742994Y-110964870D01*
X129755063Y-110986380D01*
X129770902Y-111025432D01*
X129784685Y-111073975D01*
X129795357Y-111127022D01*
X129801862Y-111179584D01*
X129803372Y-111214588D01*
X129801343Y-111258720D01*
X129795774Y-111310359D01*
X129787441Y-111364921D01*
X129777121Y-111417824D01*
X129765590Y-111464486D01*
X129755954Y-111494408D01*
X129729162Y-111549848D01*
X129694062Y-111598042D01*
X129652622Y-111637009D01*
X129606810Y-111664767D01*
X129575881Y-111675791D01*
X129538596Y-111682002D01*
X129493988Y-111684283D01*
X129448729Y-111682548D01*
X129415114Y-111677926D01*
X129379344Y-111668512D01*
X129336275Y-111653899D01*
X129291171Y-111636156D01*
X129249294Y-111617354D01*
X129215928Y-111599576D01*
X129113475Y-111529782D01*
X129022710Y-111451683D01*
X128943819Y-111365486D01*
X128876986Y-111271397D01*
X128822395Y-111169625D01*
X128812393Y-111147037D01*
X128799482Y-111115930D01*
X128789038Y-111089094D01*
X128782254Y-111069700D01*
X128780257Y-111061484D01*
X128778193Y-111049779D01*
X128772610Y-111026722D01*
X128764215Y-110994845D01*
X128753715Y-110956681D01*
X128741818Y-110914763D01*
X128729230Y-110871624D01*
X128716658Y-110829797D01*
X128706261Y-110796371D01*
X128689109Y-110747701D01*
X128668511Y-110697757D01*
X128646034Y-110649737D01*
X128623248Y-110606838D01*
X128601719Y-110572258D01*
X128587158Y-110553501D01*
X128558096Y-110526083D01*
X128518649Y-110497038D01*
X128467508Y-110465465D01*
X128423326Y-110440993D01*
X128364114Y-110409355D01*
X128399757Y-110405043D01*
X128450859Y-110396047D01*
X128501456Y-110382089D01*
X128547946Y-110364507D01*
X128586731Y-110344642D01*
X128611855Y-110326123D01*
X128628653Y-110310359D01*
X128659026Y-110327709D01*
X128659026Y-110327709D01*
G37*
X128659026Y-110327709D02*
X128718721Y-110367107D01*
X128781400Y-110418320D01*
X128845130Y-110479506D01*
X128907977Y-110548822D01*
X128962048Y-110616450D01*
X129017470Y-110687219D01*
X129068318Y-110745622D01*
X129115891Y-110792565D01*
X129161493Y-110828954D01*
X129206423Y-110855695D01*
X129251983Y-110873693D01*
X129299474Y-110883854D01*
X129350198Y-110887085D01*
X129350787Y-110887085D01*
X129413702Y-110880154D01*
X129476294Y-110860068D01*
X129535313Y-110827887D01*
X129538141Y-110825960D01*
X129559041Y-110812373D01*
X129575738Y-110802976D01*
X129583709Y-110800000D01*
X129595446Y-110804994D01*
X129614136Y-110818348D01*
X129637035Y-110837620D01*
X129661401Y-110860368D01*
X129684491Y-110884149D01*
X129703564Y-110906522D01*
X129704075Y-110907185D01*
X129723878Y-110934911D01*
X129742994Y-110964870D01*
X129755063Y-110986380D01*
X129770902Y-111025432D01*
X129784685Y-111073975D01*
X129795357Y-111127022D01*
X129801862Y-111179584D01*
X129803372Y-111214588D01*
X129801343Y-111258720D01*
X129795774Y-111310359D01*
X129787441Y-111364921D01*
X129777121Y-111417824D01*
X129765590Y-111464486D01*
X129755954Y-111494408D01*
X129729162Y-111549848D01*
X129694062Y-111598042D01*
X129652622Y-111637009D01*
X129606810Y-111664767D01*
X129575881Y-111675791D01*
X129538596Y-111682002D01*
X129493988Y-111684283D01*
X129448729Y-111682548D01*
X129415114Y-111677926D01*
X129379344Y-111668512D01*
X129336275Y-111653899D01*
X129291171Y-111636156D01*
X129249294Y-111617354D01*
X129215928Y-111599576D01*
X129113475Y-111529782D01*
X129022710Y-111451683D01*
X128943819Y-111365486D01*
X128876986Y-111271397D01*
X128822395Y-111169625D01*
X128812393Y-111147037D01*
X128799482Y-111115930D01*
X128789038Y-111089094D01*
X128782254Y-111069700D01*
X128780257Y-111061484D01*
X128778193Y-111049779D01*
X128772610Y-111026722D01*
X128764215Y-110994845D01*
X128753715Y-110956681D01*
X128741818Y-110914763D01*
X128729230Y-110871624D01*
X128716658Y-110829797D01*
X128706261Y-110796371D01*
X128689109Y-110747701D01*
X128668511Y-110697757D01*
X128646034Y-110649737D01*
X128623248Y-110606838D01*
X128601719Y-110572258D01*
X128587158Y-110553501D01*
X128558096Y-110526083D01*
X128518649Y-110497038D01*
X128467508Y-110465465D01*
X128423326Y-110440993D01*
X128364114Y-110409355D01*
X128399757Y-110405043D01*
X128450859Y-110396047D01*
X128501456Y-110382089D01*
X128547946Y-110364507D01*
X128586731Y-110344642D01*
X128611855Y-110326123D01*
X128628653Y-110310359D01*
X128659026Y-110327709D01*
G36*
X129904640Y-109778116D02*
X129912229Y-109780188D01*
X129925250Y-109785044D01*
X129948453Y-109794797D01*
X129978883Y-109808168D01*
X130013588Y-109823875D01*
X130024714Y-109829000D01*
X130125779Y-109873835D01*
X130219989Y-109911284D01*
X130311929Y-109942897D01*
X130406182Y-109970226D01*
X130507332Y-109994821D01*
X130529086Y-109999611D01*
X130648829Y-110025574D01*
X130876736Y-110028863D01*
X130946655Y-110029517D01*
X131014993Y-110029492D01*
X131079000Y-110028827D01*
X131135922Y-110027561D01*
X131183007Y-110025733D01*
X131208531Y-110024148D01*
X131353376Y-110007952D01*
X131504266Y-109981611D01*
X131657786Y-109945985D01*
X131810517Y-109901934D01*
X131959043Y-109850319D01*
X132059172Y-109809938D01*
X132086923Y-109798452D01*
X132110026Y-109789644D01*
X132124970Y-109784820D01*
X132128115Y-109784297D01*
X132130748Y-109788021D01*
X132122894Y-109797579D01*
X132106583Y-109811460D01*
X132083843Y-109828149D01*
X132056706Y-109846134D01*
X132027200Y-109863903D01*
X132005091Y-109875993D01*
X131949132Y-109903744D01*
X131893843Y-109928050D01*
X131836717Y-109949718D01*
X131775248Y-109969556D01*
X131706928Y-109988372D01*
X131629249Y-110006971D01*
X131539706Y-110026162D01*
X131536917Y-110026733D01*
X131434148Y-110045643D01*
X131327545Y-110061336D01*
X131220227Y-110073541D01*
X131115310Y-110081989D01*
X131015912Y-110086408D01*
X130925151Y-110086528D01*
X130873800Y-110084274D01*
X130816729Y-110079731D01*
X130753449Y-110073311D01*
X130687440Y-110065480D01*
X130622177Y-110056704D01*
X130561139Y-110047449D01*
X130507802Y-110038182D01*
X130467400Y-110029783D01*
X130368767Y-110004650D01*
X130275693Y-109977005D01*
X130189505Y-109947406D01*
X130111528Y-109916408D01*
X130043088Y-109884567D01*
X129985510Y-109852441D01*
X129940120Y-109820586D01*
X129915857Y-109798266D01*
X129902781Y-109783987D01*
X129899193Y-109778024D01*
X129904640Y-109778116D01*
X129904640Y-109778116D01*
G37*
X129904640Y-109778116D02*
X129912229Y-109780188D01*
X129925250Y-109785044D01*
X129948453Y-109794797D01*
X129978883Y-109808168D01*
X130013588Y-109823875D01*
X130024714Y-109829000D01*
X130125779Y-109873835D01*
X130219989Y-109911284D01*
X130311929Y-109942897D01*
X130406182Y-109970226D01*
X130507332Y-109994821D01*
X130529086Y-109999611D01*
X130648829Y-110025574D01*
X130876736Y-110028863D01*
X130946655Y-110029517D01*
X131014993Y-110029492D01*
X131079000Y-110028827D01*
X131135922Y-110027561D01*
X131183007Y-110025733D01*
X131208531Y-110024148D01*
X131353376Y-110007952D01*
X131504266Y-109981611D01*
X131657786Y-109945985D01*
X131810517Y-109901934D01*
X131959043Y-109850319D01*
X132059172Y-109809938D01*
X132086923Y-109798452D01*
X132110026Y-109789644D01*
X132124970Y-109784820D01*
X132128115Y-109784297D01*
X132130748Y-109788021D01*
X132122894Y-109797579D01*
X132106583Y-109811460D01*
X132083843Y-109828149D01*
X132056706Y-109846134D01*
X132027200Y-109863903D01*
X132005091Y-109875993D01*
X131949132Y-109903744D01*
X131893843Y-109928050D01*
X131836717Y-109949718D01*
X131775248Y-109969556D01*
X131706928Y-109988372D01*
X131629249Y-110006971D01*
X131539706Y-110026162D01*
X131536917Y-110026733D01*
X131434148Y-110045643D01*
X131327545Y-110061336D01*
X131220227Y-110073541D01*
X131115310Y-110081989D01*
X131015912Y-110086408D01*
X130925151Y-110086528D01*
X130873800Y-110084274D01*
X130816729Y-110079731D01*
X130753449Y-110073311D01*
X130687440Y-110065480D01*
X130622177Y-110056704D01*
X130561139Y-110047449D01*
X130507802Y-110038182D01*
X130467400Y-110029783D01*
X130368767Y-110004650D01*
X130275693Y-109977005D01*
X130189505Y-109947406D01*
X130111528Y-109916408D01*
X130043088Y-109884567D01*
X129985510Y-109852441D01*
X129940120Y-109820586D01*
X129915857Y-109798266D01*
X129902781Y-109783987D01*
X129899193Y-109778024D01*
X129904640Y-109778116D01*
G36*
X131392340Y-109185219D02*
X131500981Y-109227698D01*
X131605567Y-109282841D01*
X131704234Y-109349247D01*
X131795117Y-109425514D01*
X131876355Y-109510238D01*
X131945774Y-109601559D01*
X131972719Y-109641845D01*
X131949403Y-109652031D01*
X131864427Y-109686115D01*
X131768698Y-109719242D01*
X131665979Y-109750406D01*
X131560029Y-109778598D01*
X131454611Y-109802810D01*
X131353486Y-109822036D01*
X131269314Y-109834235D01*
X131232617Y-109837924D01*
X131186995Y-109841441D01*
X131134807Y-109844704D01*
X131078411Y-109847630D01*
X131020165Y-109850138D01*
X130962428Y-109852143D01*
X130907558Y-109853564D01*
X130857914Y-109854318D01*
X130815855Y-109854322D01*
X130783738Y-109853493D01*
X130764943Y-109851915D01*
X130677425Y-109837834D01*
X130601441Y-109824159D01*
X130534054Y-109810196D01*
X130472326Y-109795250D01*
X130413318Y-109778627D01*
X130354093Y-109759633D01*
X130311346Y-109744702D01*
X130266620Y-109728013D01*
X130219429Y-109709344D01*
X130173771Y-109690359D01*
X130133644Y-109672723D01*
X130103047Y-109658100D01*
X130101927Y-109657523D01*
X130079173Y-109645757D01*
X130098986Y-109615092D01*
X130135642Y-109563655D01*
X130180896Y-109508637D01*
X130231147Y-109454317D01*
X130250795Y-109434757D01*
X130333433Y-109361165D01*
X130417932Y-109299972D01*
X130507651Y-109249139D01*
X130605947Y-109206627D01*
X130655258Y-109189209D01*
X130712488Y-109170230D01*
X130773040Y-109201665D01*
X130826353Y-109225431D01*
X130881534Y-109241576D01*
X130942351Y-109250899D01*
X131012571Y-109254198D01*
X131020801Y-109254228D01*
X131091576Y-109251883D01*
X131151910Y-109244287D01*
X131205186Y-109230601D01*
X131254792Y-109209984D01*
X131298180Y-109185388D01*
X131330308Y-109165107D01*
X131392340Y-109185219D01*
X131392340Y-109185219D01*
G37*
X131392340Y-109185219D02*
X131500981Y-109227698D01*
X131605567Y-109282841D01*
X131704234Y-109349247D01*
X131795117Y-109425514D01*
X131876355Y-109510238D01*
X131945774Y-109601559D01*
X131972719Y-109641845D01*
X131949403Y-109652031D01*
X131864427Y-109686115D01*
X131768698Y-109719242D01*
X131665979Y-109750406D01*
X131560029Y-109778598D01*
X131454611Y-109802810D01*
X131353486Y-109822036D01*
X131269314Y-109834235D01*
X131232617Y-109837924D01*
X131186995Y-109841441D01*
X131134807Y-109844704D01*
X131078411Y-109847630D01*
X131020165Y-109850138D01*
X130962428Y-109852143D01*
X130907558Y-109853564D01*
X130857914Y-109854318D01*
X130815855Y-109854322D01*
X130783738Y-109853493D01*
X130764943Y-109851915D01*
X130677425Y-109837834D01*
X130601441Y-109824159D01*
X130534054Y-109810196D01*
X130472326Y-109795250D01*
X130413318Y-109778627D01*
X130354093Y-109759633D01*
X130311346Y-109744702D01*
X130266620Y-109728013D01*
X130219429Y-109709344D01*
X130173771Y-109690359D01*
X130133644Y-109672723D01*
X130103047Y-109658100D01*
X130101927Y-109657523D01*
X130079173Y-109645757D01*
X130098986Y-109615092D01*
X130135642Y-109563655D01*
X130180896Y-109508637D01*
X130231147Y-109454317D01*
X130250795Y-109434757D01*
X130333433Y-109361165D01*
X130417932Y-109299972D01*
X130507651Y-109249139D01*
X130605947Y-109206627D01*
X130655258Y-109189209D01*
X130712488Y-109170230D01*
X130773040Y-109201665D01*
X130826353Y-109225431D01*
X130881534Y-109241576D01*
X130942351Y-109250899D01*
X131012571Y-109254198D01*
X131020801Y-109254228D01*
X131091576Y-109251883D01*
X131151910Y-109244287D01*
X131205186Y-109230601D01*
X131254792Y-109209984D01*
X131298180Y-109185388D01*
X131330308Y-109165107D01*
X131392340Y-109185219D01*
G36*
X131077738Y-108910834D02*
X131118673Y-108932612D01*
X131138064Y-108949312D01*
X131157749Y-108971568D01*
X131174798Y-108995378D01*
X131186280Y-109016736D01*
X131189486Y-109029347D01*
X131182834Y-109041292D01*
X131164863Y-109054326D01*
X131138554Y-109067042D01*
X131106886Y-109078031D01*
X131072839Y-109085885D01*
X131068353Y-109086608D01*
X131042031Y-109090421D01*
X131021431Y-109093028D01*
X131010662Y-109093913D01*
X131010296Y-109093889D01*
X131000693Y-109092222D01*
X130981035Y-109088490D01*
X130955497Y-109083487D01*
X130954381Y-109083265D01*
X130924060Y-109075335D01*
X130895224Y-109064643D01*
X130876703Y-109055038D01*
X130859990Y-109043152D01*
X130853286Y-109033920D01*
X130854275Y-109022331D01*
X130857290Y-109013047D01*
X130866637Y-108996037D01*
X130883279Y-108974131D01*
X130903633Y-108952041D01*
X130903855Y-108951823D01*
X130928040Y-108929969D01*
X130948907Y-108916403D01*
X130971960Y-108907887D01*
X130983100Y-108905152D01*
X131031694Y-108900926D01*
X131077738Y-108910834D01*
X131077738Y-108910834D01*
G37*
X131077738Y-108910834D02*
X131118673Y-108932612D01*
X131138064Y-108949312D01*
X131157749Y-108971568D01*
X131174798Y-108995378D01*
X131186280Y-109016736D01*
X131189486Y-109029347D01*
X131182834Y-109041292D01*
X131164863Y-109054326D01*
X131138554Y-109067042D01*
X131106886Y-109078031D01*
X131072839Y-109085885D01*
X131068353Y-109086608D01*
X131042031Y-109090421D01*
X131021431Y-109093028D01*
X131010662Y-109093913D01*
X131010296Y-109093889D01*
X131000693Y-109092222D01*
X130981035Y-109088490D01*
X130955497Y-109083487D01*
X130954381Y-109083265D01*
X130924060Y-109075335D01*
X130895224Y-109064643D01*
X130876703Y-109055038D01*
X130859990Y-109043152D01*
X130853286Y-109033920D01*
X130854275Y-109022331D01*
X130857290Y-109013047D01*
X130866637Y-108996037D01*
X130883279Y-108974131D01*
X130903633Y-108952041D01*
X130903855Y-108951823D01*
X130928040Y-108929969D01*
X130948907Y-108916403D01*
X130971960Y-108907887D01*
X130983100Y-108905152D01*
X131031694Y-108900926D01*
X131077738Y-108910834D01*
D14*
X112100000Y-96350000D02*
X112100000Y-94450000D01*
X112100000Y-100650000D02*
X112100000Y-98750000D01*
X116650000Y-108500000D02*
G75*
G03X116650000Y-108500000I-250000J0D01*
G01*
X116900000Y-109000000D02*
X113400000Y-109000000D01*
X113400000Y-109000000D02*
X113400000Y-112500000D01*
X113400000Y-112500000D02*
X116900000Y-112500000D01*
X116900000Y-112500000D02*
X116900000Y-109000000D01*
X119400000Y-118300000D02*
G75*
G03X119400000Y-118300000I-250000J0D01*
G01*
X118650000Y-118550000D02*
X118650000Y-115050000D01*
X118650000Y-115050000D02*
X115150000Y-115050000D01*
X115150000Y-115050000D02*
X115150000Y-118550000D01*
X115150000Y-118550000D02*
X118650000Y-118550000D01*
X120766666Y-129461904D02*
X120766666Y-128985714D01*
X121052380Y-129557142D02*
X120052380Y-129223809D01*
X121052380Y-128890476D01*
X121052380Y-128557142D02*
X120052380Y-128557142D01*
X120766666Y-128223809D01*
X120052380Y-127890476D01*
X121052380Y-127890476D01*
X120100000Y-126890476D02*
X120052380Y-126985714D01*
X120052380Y-127128571D01*
X120100000Y-127271428D01*
X120195238Y-127366666D01*
X120290476Y-127414285D01*
X120480952Y-127461904D01*
X120623809Y-127461904D01*
X120814285Y-127414285D01*
X120909523Y-127366666D01*
X121004761Y-127271428D01*
X121052380Y-127128571D01*
X121052380Y-127033333D01*
X121004761Y-126890476D01*
X120957142Y-126842857D01*
X120623809Y-126842857D01*
X120623809Y-127033333D01*
X120480952Y-126271428D02*
X120433333Y-126366666D01*
X120385714Y-126414285D01*
X120290476Y-126461904D01*
X120242857Y-126461904D01*
X120147619Y-126414285D01*
X120100000Y-126366666D01*
X120052380Y-126271428D01*
X120052380Y-126080952D01*
X120100000Y-125985714D01*
X120147619Y-125938095D01*
X120242857Y-125890476D01*
X120290476Y-125890476D01*
X120385714Y-125938095D01*
X120433333Y-125985714D01*
X120480952Y-126080952D01*
X120480952Y-126271428D01*
X120528571Y-126366666D01*
X120576190Y-126414285D01*
X120671428Y-126461904D01*
X120861904Y-126461904D01*
X120957142Y-126414285D01*
X121004761Y-126366666D01*
X121052380Y-126271428D01*
X121052380Y-126080952D01*
X121004761Y-125985714D01*
X120957142Y-125938095D01*
X120861904Y-125890476D01*
X120671428Y-125890476D01*
X120576190Y-125938095D01*
X120528571Y-125985714D01*
X120480952Y-126080952D01*
X120480952Y-125319047D02*
X120433333Y-125414285D01*
X120385714Y-125461904D01*
X120290476Y-125509523D01*
X120242857Y-125509523D01*
X120147619Y-125461904D01*
X120100000Y-125414285D01*
X120052380Y-125319047D01*
X120052380Y-125128571D01*
X120100000Y-125033333D01*
X120147619Y-124985714D01*
X120242857Y-124938095D01*
X120290476Y-124938095D01*
X120385714Y-124985714D01*
X120433333Y-125033333D01*
X120480952Y-125128571D01*
X120480952Y-125319047D01*
X120528571Y-125414285D01*
X120576190Y-125461904D01*
X120671428Y-125509523D01*
X120861904Y-125509523D01*
X120957142Y-125461904D01*
X121004761Y-125414285D01*
X121052380Y-125319047D01*
X121052380Y-125128571D01*
X121004761Y-125033333D01*
X120957142Y-124985714D01*
X120861904Y-124938095D01*
X120671428Y-124938095D01*
X120576190Y-124985714D01*
X120528571Y-125033333D01*
X120480952Y-125128571D01*
X126228571Y-103178571D02*
X125728571Y-102464285D01*
X125371428Y-103178571D02*
X125371428Y-101678571D01*
X125942857Y-101678571D01*
X126085714Y-101750000D01*
X126157142Y-101821428D01*
X126228571Y-101964285D01*
X126228571Y-102178571D01*
X126157142Y-102321428D01*
X126085714Y-102392857D01*
X125942857Y-102464285D01*
X125371428Y-102464285D01*
X127371428Y-102392857D02*
X126871428Y-102392857D01*
X126871428Y-103178571D02*
X126871428Y-101678571D01*
X127585714Y-101678571D01*
X128157142Y-103178571D02*
X128157142Y-101678571D01*
X128657142Y-102750000D01*
X129157142Y-101678571D01*
X129157142Y-103178571D01*
X130514285Y-101678571D02*
X130228571Y-101678571D01*
X130085714Y-101750000D01*
X130014285Y-101821428D01*
X129871428Y-102035714D01*
X129800000Y-102321428D01*
X129800000Y-102892857D01*
X129871428Y-103035714D01*
X129942857Y-103107142D01*
X130085714Y-103178571D01*
X130371428Y-103178571D01*
X130514285Y-103107142D01*
X130585714Y-103035714D01*
X130657142Y-102892857D01*
X130657142Y-102535714D01*
X130585714Y-102392857D01*
X130514285Y-102321428D01*
X130371428Y-102250000D01*
X130085714Y-102250000D01*
X129942857Y-102321428D01*
X129871428Y-102392857D01*
X129800000Y-102535714D01*
X131371428Y-103178571D02*
X131657142Y-103178571D01*
X131800000Y-103107142D01*
X131871428Y-103035714D01*
X132014285Y-102821428D01*
X132085714Y-102535714D01*
X132085714Y-101964285D01*
X132014285Y-101821428D01*
X131942857Y-101750000D01*
X131800000Y-101678571D01*
X131514285Y-101678571D01*
X131371428Y-101750000D01*
X131300000Y-101821428D01*
X131228571Y-101964285D01*
X131228571Y-102321428D01*
X131300000Y-102464285D01*
X131371428Y-102535714D01*
X131514285Y-102607142D01*
X131800000Y-102607142D01*
X131942857Y-102535714D01*
X132014285Y-102464285D01*
X132085714Y-102321428D01*
X132585714Y-101678571D02*
X132942857Y-103178571D01*
X133228571Y-102107142D01*
X133514285Y-103178571D01*
X133871428Y-101678571D01*
X120738095Y-87400000D02*
X120642857Y-87352380D01*
X120500000Y-87352380D01*
X120357142Y-87400000D01*
X120261904Y-87495238D01*
X120214285Y-87590476D01*
X120166666Y-87780952D01*
X120166666Y-87923809D01*
X120214285Y-88114285D01*
X120261904Y-88209523D01*
X120357142Y-88304761D01*
X120500000Y-88352380D01*
X120595238Y-88352380D01*
X120738095Y-88304761D01*
X120785714Y-88257142D01*
X120785714Y-87923809D01*
X120595238Y-87923809D01*
X121214285Y-88352380D02*
X121214285Y-87352380D01*
X121785714Y-88352380D01*
X121785714Y-87352380D01*
X122261904Y-88352380D02*
X122261904Y-87352380D01*
X122500000Y-87352380D01*
X122642857Y-87400000D01*
X122738095Y-87495238D01*
X122785714Y-87590476D01*
X122833333Y-87780952D01*
X122833333Y-87923809D01*
X122785714Y-88114285D01*
X122738095Y-88209523D01*
X122642857Y-88304761D01*
X122500000Y-88352380D01*
X122261904Y-88352380D01*
X128309523Y-87252380D02*
X128928571Y-87252380D01*
X128595238Y-87633333D01*
X128738095Y-87633333D01*
X128833333Y-87680952D01*
X128880952Y-87728571D01*
X128928571Y-87823809D01*
X128928571Y-88061904D01*
X128880952Y-88157142D01*
X128833333Y-88204761D01*
X128738095Y-88252380D01*
X128452380Y-88252380D01*
X128357142Y-88204761D01*
X128309523Y-88157142D01*
X129261904Y-87585714D02*
X129500000Y-88252380D01*
X129738095Y-87585714D01*
X130023809Y-87252380D02*
X130642857Y-87252380D01*
X130309523Y-87633333D01*
X130452380Y-87633333D01*
X130547619Y-87680952D01*
X130595238Y-87728571D01*
X130642857Y-87823809D01*
X130642857Y-88061904D01*
X130595238Y-88157142D01*
X130547619Y-88204761D01*
X130452380Y-88252380D01*
X130166666Y-88252380D01*
X130071428Y-88204761D01*
X130023809Y-88157142D01*
X125147854Y-119873560D02*
X125282541Y-119806216D01*
X125450900Y-119637857D01*
X125484572Y-119536842D01*
X125484572Y-119469499D01*
X125450900Y-119368483D01*
X125383556Y-119301140D01*
X125282541Y-119267468D01*
X125215198Y-119267468D01*
X125114182Y-119301140D01*
X124945824Y-119402155D01*
X124844808Y-119435827D01*
X124777465Y-119435827D01*
X124676450Y-119402155D01*
X124609106Y-119334812D01*
X124575434Y-119233796D01*
X124575434Y-119166453D01*
X124609106Y-119065438D01*
X124777465Y-118897079D01*
X124912152Y-118829735D01*
X126225350Y-118728720D02*
X126225350Y-118796064D01*
X126158007Y-118930751D01*
X126090663Y-118998094D01*
X125955976Y-119065438D01*
X125821289Y-119065438D01*
X125720274Y-119031766D01*
X125551915Y-118930751D01*
X125450900Y-118829735D01*
X125349885Y-118661377D01*
X125316213Y-118560361D01*
X125316213Y-118425674D01*
X125383556Y-118290987D01*
X125450900Y-118223644D01*
X125585587Y-118156300D01*
X125652930Y-118156300D01*
X126595739Y-118493018D02*
X125888633Y-117785911D01*
X126999800Y-118088957D02*
X126292694Y-117987942D01*
X126292694Y-117381850D02*
X126292694Y-118189972D01*
X123581689Y-119596293D02*
X123716376Y-119528950D01*
X123884734Y-119360591D01*
X123918406Y-119259576D01*
X123918406Y-119192232D01*
X123884734Y-119091217D01*
X123817391Y-119023873D01*
X123716376Y-118990202D01*
X123649032Y-118990202D01*
X123548017Y-119023873D01*
X123379658Y-119124889D01*
X123278643Y-119158560D01*
X123211299Y-119158560D01*
X123110284Y-119124889D01*
X123042941Y-119057545D01*
X123009269Y-118956530D01*
X123009269Y-118889186D01*
X123042941Y-118788171D01*
X123211299Y-118619812D01*
X123345986Y-118552469D01*
X124322467Y-118922858D02*
X123615360Y-118215751D01*
X123783719Y-118047392D01*
X123918406Y-117980049D01*
X124053093Y-117980049D01*
X124154109Y-118013721D01*
X124322467Y-118114736D01*
X124423483Y-118215751D01*
X124524498Y-118384110D01*
X124558170Y-118485125D01*
X124558170Y-118619812D01*
X124490826Y-118754499D01*
X124322467Y-118922858D01*
X124793872Y-118047392D02*
X125130589Y-117710675D01*
X124928559Y-118316766D02*
X124457154Y-117373957D01*
X125399963Y-117845362D01*
M02*
